G04 #@! TF.GenerationSoftware,KiCad,Pcbnew,(5.1.6-0-10_14)*
G04 #@! TF.CreationDate,2022-03-08T14:54:54+09:00*
G04 #@! TF.ProjectId,cool936,636f6f6c-3933-4362-9e6b-696361645f70,rev?*
G04 #@! TF.SameCoordinates,Original*
G04 #@! TF.FileFunction,Profile,NP*
%FSLAX46Y46*%
G04 Gerber Fmt 4.6, Leading zero omitted, Abs format (unit mm)*
G04 Created by KiCad (PCBNEW (5.1.6-0-10_14)) date 2022-03-08 14:54:54*
%MOMM*%
%LPD*%
G01*
G04 APERTURE LIST*
G04 #@! TA.AperFunction,Profile*
%ADD10C,0.150000*%
G04 #@! TD*
G04 APERTURE END LIST*
D10*
X137140000Y121850000D02*
X177290000Y121850000D01*
X180410000Y39500000D02*
X194400000Y39500000D01*
X197080000Y72550000D02*
X197080000Y58550000D01*
X192020000Y58550000D02*
X192020000Y72550000D01*
X192020000Y72550000D02*
X178030000Y72550000D01*
X181360000Y119450000D02*
X177290000Y121850000D01*
X178030000Y58550000D02*
X192020000Y58550000D01*
X177740000Y96650000D02*
X177740000Y110650000D01*
X237260000Y110650000D02*
X223270000Y110650000D01*
X177740000Y110650000D02*
X163750000Y110650000D01*
X215830000Y96650000D02*
X215830000Y110650000D01*
X196780000Y96650000D02*
X196780000Y110650000D01*
X182790000Y110650000D02*
X182790000Y96650000D01*
X168210000Y53500000D02*
X154220000Y53500000D01*
X168210000Y39500000D02*
X168210000Y53500000D01*
X158980000Y58550000D02*
X172970000Y58550000D01*
X201550000Y91600000D02*
X187560000Y91600000D01*
X234890000Y58550000D02*
X234890000Y72550000D01*
X239640000Y91600000D02*
X225650000Y91600000D01*
X239640000Y77600000D02*
X239640000Y91600000D01*
X252170000Y114110000D02*
X252170000Y36040103D01*
X163750000Y96650000D02*
X177740000Y96650000D01*
X163750000Y110650000D02*
X163750000Y96650000D01*
X168510000Y91600000D02*
X168510000Y77600000D01*
X237260000Y96650000D02*
X237260000Y110650000D01*
X205100000Y33540000D02*
G75*
G03*
X205100000Y33540000I-1100000J0D01*
G01*
X186210000Y127630000D02*
X244429897Y121850103D01*
X246530000Y33540000D02*
G75*
G03*
X246530000Y33540000I-1100000J0D01*
G01*
X175320000Y33540000D02*
G75*
G03*
X175320000Y33540000I-1100000J0D01*
G01*
X220900000Y72550000D02*
X220900000Y58550000D01*
X154220000Y39500000D02*
X168210000Y39500000D01*
X194400000Y53500000D02*
X180410000Y53500000D01*
X194400000Y39500000D02*
X194400000Y53500000D01*
X180410000Y53500000D02*
X180410000Y39500000D01*
X234890000Y72550000D02*
X220900000Y72550000D01*
X197080000Y58550000D02*
X211070000Y58550000D01*
X208990000Y39500000D02*
X222980000Y39500000D01*
X201550000Y77600000D02*
X201550000Y91600000D01*
X158980000Y72550000D02*
X158980000Y58550000D01*
X187560000Y91600000D02*
X187560000Y77600000D01*
X137150000Y53440000D02*
X137140000Y111880000D01*
X163450000Y91600000D02*
X149460000Y91600000D01*
X222980000Y39500000D02*
X222980000Y53500000D01*
X208990000Y53500000D02*
X208990000Y39500000D01*
X211070000Y58550000D02*
X211070000Y72550000D01*
X211070000Y72550000D02*
X197080000Y72550000D01*
X182500000Y91600000D02*
X168510000Y91600000D01*
X181360000Y119450000D02*
X186210000Y127630000D01*
X178030000Y72550000D02*
X178030000Y58550000D01*
X137150000Y32040000D02*
X137150000Y53440000D01*
X246530000Y117100000D02*
G75*
G03*
X246530000Y117100000I-1100000J0D01*
G01*
X142760000Y117100000D02*
G75*
G03*
X142760000Y117100000I-1100000J0D01*
G01*
X244429897Y28300000D02*
X137150000Y28300000D01*
X142760000Y33540000D02*
G75*
G03*
X142760000Y33540000I-1100000J0D01*
G01*
X158680000Y110650000D02*
X144690000Y110650000D01*
X187560000Y77600000D02*
X201550000Y77600000D01*
X137150000Y28300000D02*
X137150000Y32040000D01*
X205100000Y121780000D02*
G75*
G03*
X205100000Y121780000I-1100000J0D01*
G01*
X244429897Y121850103D02*
G75*
G02*
X252170000Y114110000I0J-7740103D01*
G01*
X196780000Y110650000D02*
X182790000Y110650000D01*
X182790000Y96650000D02*
X196780000Y96650000D01*
X175320000Y117100000D02*
G75*
G03*
X175320000Y117100000I-1100000J0D01*
G01*
X201840000Y110650000D02*
X201840000Y96650000D01*
X206610000Y77600000D02*
X220600000Y77600000D01*
X206610000Y91600000D02*
X206610000Y77600000D01*
X144690000Y110650000D02*
X144690000Y96650000D01*
X168510000Y77600000D02*
X182500000Y77600000D01*
X142760000Y91110000D02*
G75*
G03*
X142760000Y91110000I-1100000J0D01*
G01*
X154220000Y53500000D02*
X154220000Y39500000D01*
X201840000Y96650000D02*
X215830000Y96650000D01*
X182500000Y77600000D02*
X182500000Y91600000D01*
X137140000Y111880000D02*
X137140000Y121850000D01*
X220600000Y91600000D02*
X206610000Y91600000D01*
X220600000Y77600000D02*
X220600000Y91600000D01*
X223270000Y96650000D02*
X237260000Y96650000D01*
X223270000Y110650000D02*
X223270000Y96650000D01*
X246530000Y91530000D02*
G75*
G03*
X246530000Y91530000I-1100000J0D01*
G01*
X172970000Y72550000D02*
X158980000Y72550000D01*
X172970000Y58550000D02*
X172970000Y72550000D01*
X149460000Y91600000D02*
X149460000Y77600000D01*
X163450000Y77600000D02*
X163450000Y91600000D01*
X222980000Y53500000D02*
X208990000Y53500000D01*
X220900000Y58550000D02*
X234890000Y58550000D01*
X225650000Y77600000D02*
X239640000Y77600000D01*
X225650000Y91600000D02*
X225650000Y77600000D01*
X149460000Y77600000D02*
X163450000Y77600000D01*
X158680000Y96650000D02*
X158680000Y110650000D01*
X144690000Y96650000D02*
X158680000Y96650000D01*
X215830000Y110650000D02*
X201840000Y110650000D01*
X252170000Y36040103D02*
G75*
G02*
X244429897Y28300000I-7740103J0D01*
G01*
M02*
