G04 #@! TF.GenerationSoftware,KiCad,Pcbnew,(5.1.6-0-10_14)*
G04 #@! TF.CreationDate,2022-05-29T14:17:38+09:00*
G04 #@! TF.ProjectId,cool936,636f6f6c-3933-4362-9e6b-696361645f70,rev?*
G04 #@! TF.SameCoordinates,Original*
G04 #@! TF.FileFunction,Legend,Top*
G04 #@! TF.FilePolarity,Positive*
%FSLAX46Y46*%
G04 Gerber Fmt 4.6, Leading zero omitted, Abs format (unit mm)*
G04 Created by KiCad (PCBNEW (5.1.6-0-10_14)) date 2022-05-29 14:17:38*
%MOMM*%
%LPD*%
G01*
G04 APERTURE LIST*
%ADD10C,0.300000*%
%ADD11C,0.150000*%
G04 APERTURE END LIST*
D10*
X21242857Y-61122142D02*
X21100000Y-61193571D01*
X20814285Y-61193571D01*
X20671428Y-61122142D01*
X20600000Y-61050714D01*
X20528571Y-60907857D01*
X20528571Y-60479285D01*
X20600000Y-60336428D01*
X20671428Y-60265000D01*
X20814285Y-60193571D01*
X21100000Y-60193571D01*
X21242857Y-60265000D01*
X22100000Y-61193571D02*
X21957142Y-61122142D01*
X21885714Y-61050714D01*
X21814285Y-60907857D01*
X21814285Y-60479285D01*
X21885714Y-60336428D01*
X21957142Y-60265000D01*
X22100000Y-60193571D01*
X22314285Y-60193571D01*
X22457142Y-60265000D01*
X22528571Y-60336428D01*
X22600000Y-60479285D01*
X22600000Y-60907857D01*
X22528571Y-61050714D01*
X22457142Y-61122142D01*
X22314285Y-61193571D01*
X22100000Y-61193571D01*
X23457142Y-61193571D02*
X23314285Y-61122142D01*
X23242857Y-61050714D01*
X23171428Y-60907857D01*
X23171428Y-60479285D01*
X23242857Y-60336428D01*
X23314285Y-60265000D01*
X23457142Y-60193571D01*
X23671428Y-60193571D01*
X23814285Y-60265000D01*
X23885714Y-60336428D01*
X23957142Y-60479285D01*
X23957142Y-60907857D01*
X23885714Y-61050714D01*
X23814285Y-61122142D01*
X23671428Y-61193571D01*
X23457142Y-61193571D01*
X24814285Y-61193571D02*
X24671428Y-61122142D01*
X24600000Y-60979285D01*
X24600000Y-59693571D01*
X25457142Y-61193571D02*
X25742857Y-61193571D01*
X25885714Y-61122142D01*
X25957142Y-61050714D01*
X26100000Y-60836428D01*
X26171428Y-60550714D01*
X26171428Y-59979285D01*
X26100000Y-59836428D01*
X26028571Y-59765000D01*
X25885714Y-59693571D01*
X25600000Y-59693571D01*
X25457142Y-59765000D01*
X25385714Y-59836428D01*
X25314285Y-59979285D01*
X25314285Y-60336428D01*
X25385714Y-60479285D01*
X25457142Y-60550714D01*
X25600000Y-60622142D01*
X25885714Y-60622142D01*
X26028571Y-60550714D01*
X26100000Y-60479285D01*
X26171428Y-60336428D01*
X26671428Y-59693571D02*
X27600000Y-59693571D01*
X27100000Y-60265000D01*
X27314285Y-60265000D01*
X27457142Y-60336428D01*
X27528571Y-60407857D01*
X27600000Y-60550714D01*
X27600000Y-60907857D01*
X27528571Y-61050714D01*
X27457142Y-61122142D01*
X27314285Y-61193571D01*
X26885714Y-61193571D01*
X26742857Y-61122142D01*
X26671428Y-61050714D01*
X28885714Y-59693571D02*
X28600000Y-59693571D01*
X28457142Y-59765000D01*
X28385714Y-59836428D01*
X28242857Y-60050714D01*
X28171428Y-60336428D01*
X28171428Y-60907857D01*
X28242857Y-61050714D01*
X28314285Y-61122142D01*
X28457142Y-61193571D01*
X28742857Y-61193571D01*
X28885714Y-61122142D01*
X28957142Y-61050714D01*
X29028571Y-60907857D01*
X29028571Y-60550714D01*
X28957142Y-60407857D01*
X28885714Y-60336428D01*
X28742857Y-60265000D01*
X28457142Y-60265000D01*
X28314285Y-60336428D01*
X28242857Y-60407857D01*
X28171428Y-60550714D01*
X21171428Y-63743571D02*
X21028571Y-63672142D01*
X20957142Y-63529285D01*
X20957142Y-62243571D01*
X22314285Y-63672142D02*
X22171428Y-63743571D01*
X21885714Y-63743571D01*
X21742857Y-63672142D01*
X21671428Y-63529285D01*
X21671428Y-62957857D01*
X21742857Y-62815000D01*
X21885714Y-62743571D01*
X22171428Y-62743571D01*
X22314285Y-62815000D01*
X22385714Y-62957857D01*
X22385714Y-63100714D01*
X21671428Y-63243571D01*
X22814285Y-62743571D02*
X23385714Y-62743571D01*
X23028571Y-63743571D02*
X23028571Y-62457857D01*
X23100000Y-62315000D01*
X23242857Y-62243571D01*
X23385714Y-62243571D01*
X23671428Y-62743571D02*
X24242857Y-62743571D01*
X23885714Y-62243571D02*
X23885714Y-63529285D01*
X23957142Y-63672142D01*
X24100000Y-63743571D01*
X24242857Y-63743571D01*
X24385714Y-63886428D02*
X25528571Y-63886428D01*
X25814285Y-63672142D02*
X25957142Y-63743571D01*
X26242857Y-63743571D01*
X26385714Y-63672142D01*
X26457142Y-63529285D01*
X26457142Y-63457857D01*
X26385714Y-63315000D01*
X26242857Y-63243571D01*
X26028571Y-63243571D01*
X25885714Y-63172142D01*
X25814285Y-63029285D01*
X25814285Y-62957857D01*
X25885714Y-62815000D01*
X26028571Y-62743571D01*
X26242857Y-62743571D01*
X26385714Y-62815000D01*
X27100000Y-63743571D02*
X27100000Y-62743571D01*
X27100000Y-62243571D02*
X27028571Y-62315000D01*
X27100000Y-62386428D01*
X27171428Y-62315000D01*
X27100000Y-62243571D01*
X27100000Y-62386428D01*
X28457142Y-63743571D02*
X28457142Y-62243571D01*
X28457142Y-63672142D02*
X28314285Y-63743571D01*
X28028571Y-63743571D01*
X27885714Y-63672142D01*
X27814285Y-63600714D01*
X27742857Y-63457857D01*
X27742857Y-63029285D01*
X27814285Y-62886428D01*
X27885714Y-62815000D01*
X28028571Y-62743571D01*
X28314285Y-62743571D01*
X28457142Y-62815000D01*
X29742857Y-63672142D02*
X29600000Y-63743571D01*
X29314285Y-63743571D01*
X29171428Y-63672142D01*
X29100000Y-63529285D01*
X29100000Y-62957857D01*
X29171428Y-62815000D01*
X29314285Y-62743571D01*
X29600000Y-62743571D01*
X29742857Y-62815000D01*
X29814285Y-62957857D01*
X29814285Y-63100714D01*
X29100000Y-63243571D01*
D11*
X70910000Y-39680000D02*
X69410000Y-39680000D01*
X70910000Y-45080000D02*
X70910000Y-39680000D01*
X69410000Y-45080000D02*
X70910000Y-45080000D01*
X69410000Y-39680000D02*
X69410000Y-45080000D01*
X69660000Y-42880000D02*
X70660000Y-42880000D01*
X70660000Y-41880000D02*
X70160000Y-42780000D01*
X69660000Y-41880000D02*
X70660000Y-41880000D01*
X70160000Y-42780000D02*
X69660000Y-41880000D01*
X58950000Y-1810000D02*
X57450000Y-1810000D01*
X58950000Y-7210000D02*
X58950000Y-1810000D01*
X57450000Y-7210000D02*
X58950000Y-7210000D01*
X57450000Y-1810000D02*
X57450000Y-7210000D01*
X57700000Y-5010000D02*
X58700000Y-5010000D01*
X58700000Y-4010000D02*
X58200000Y-4910000D01*
X57700000Y-4010000D02*
X58700000Y-4010000D01*
X58200000Y-4910000D02*
X57700000Y-4010000D01*
X37630000Y1360000D02*
X36130000Y1360000D01*
X37630000Y-4040000D02*
X37630000Y1360000D01*
X36130000Y-4040000D02*
X37630000Y-4040000D01*
X36130000Y1360000D02*
X36130000Y-4040000D01*
X36380000Y-1840000D02*
X37380000Y-1840000D01*
X37380000Y-840000D02*
X36880000Y-1740000D01*
X36380000Y-840000D02*
X37380000Y-840000D01*
X36880000Y-1740000D02*
X36380000Y-840000D01*
X80470000Y-12030000D02*
X78970000Y-12030000D01*
X80470000Y-17430000D02*
X80470000Y-12030000D01*
X78970000Y-17430000D02*
X80470000Y-17430000D01*
X78970000Y-12030000D02*
X78970000Y-17430000D01*
X79220000Y-15230000D02*
X80220000Y-15230000D01*
X80220000Y-14230000D02*
X79720000Y-15130000D01*
X79220000Y-14230000D02*
X80220000Y-14230000D01*
X79720000Y-15130000D02*
X79220000Y-14230000D01*
X62230000Y-49480000D02*
X62230000Y-47980000D01*
X56830000Y-49480000D02*
X62230000Y-49480000D01*
X56830000Y-47980000D02*
X56830000Y-49480000D01*
X62230000Y-47980000D02*
X56830000Y-47980000D01*
X59030000Y-48230000D02*
X59030000Y-49230000D01*
X60030000Y-49230000D02*
X59130000Y-48730000D01*
X60030000Y-48230000D02*
X60030000Y-49230000D01*
X59130000Y-48730000D02*
X60030000Y-48230000D01*
X97230000Y-1610000D02*
X95730000Y-1610000D01*
X97230000Y-7010000D02*
X97230000Y-1610000D01*
X95730000Y-7010000D02*
X97230000Y-7010000D01*
X95730000Y-1610000D02*
X95730000Y-7010000D01*
X95980000Y-4810000D02*
X96980000Y-4810000D01*
X96980000Y-3810000D02*
X96480000Y-4710000D01*
X95980000Y-3810000D02*
X96980000Y-3810000D01*
X96480000Y-4710000D02*
X95980000Y-3810000D01*
X75790000Y-1670000D02*
X74290000Y-1670000D01*
X75790000Y-7070000D02*
X75790000Y-1670000D01*
X74290000Y-7070000D02*
X75790000Y-7070000D01*
X74290000Y-1670000D02*
X74290000Y-7070000D01*
X74540000Y-4870000D02*
X75540000Y-4870000D01*
X75540000Y-3870000D02*
X75040000Y-4770000D01*
X74540000Y-3870000D02*
X75540000Y-3870000D01*
X75040000Y-4770000D02*
X74540000Y-3870000D01*
X104340000Y-10620000D02*
X105240000Y-10120000D01*
X105240000Y-10120000D02*
X105240000Y-11120000D01*
X105240000Y-11120000D02*
X104340000Y-10620000D01*
X104240000Y-10120000D02*
X104240000Y-11120000D01*
X107440000Y-9870000D02*
X102040000Y-9870000D01*
X102040000Y-9870000D02*
X102040000Y-11370000D01*
X102040000Y-11370000D02*
X107440000Y-11370000D01*
X107440000Y-11370000D02*
X107440000Y-9870000D01*
X47540000Y-34840000D02*
X46040000Y-34840000D01*
X47540000Y-40240000D02*
X47540000Y-34840000D01*
X46040000Y-40240000D02*
X47540000Y-40240000D01*
X46040000Y-34840000D02*
X46040000Y-40240000D01*
X46290000Y-38040000D02*
X47290000Y-38040000D01*
X47290000Y-37040000D02*
X46790000Y-37940000D01*
X46290000Y-37040000D02*
X47290000Y-37040000D01*
X46790000Y-37940000D02*
X46290000Y-37040000D01*
X95850000Y-53980000D02*
X94350000Y-53980000D01*
X95850000Y-59380000D02*
X95850000Y-53980000D01*
X94350000Y-59380000D02*
X95850000Y-59380000D01*
X94350000Y-53980000D02*
X94350000Y-59380000D01*
X94600000Y-57180000D02*
X95600000Y-57180000D01*
X95600000Y-56180000D02*
X95100000Y-57080000D01*
X94600000Y-56180000D02*
X95600000Y-56180000D01*
X95100000Y-57080000D02*
X94600000Y-56180000D01*
X92840000Y-53980000D02*
X91340000Y-53980000D01*
X92840000Y-59380000D02*
X92840000Y-53980000D01*
X91340000Y-59380000D02*
X92840000Y-59380000D01*
X91340000Y-53980000D02*
X91340000Y-59380000D01*
X91590000Y-57180000D02*
X92590000Y-57180000D01*
X92590000Y-56180000D02*
X92090000Y-57080000D01*
X91590000Y-56180000D02*
X92590000Y-56180000D01*
X92090000Y-57080000D02*
X91590000Y-56180000D01*
X89980000Y-39720000D02*
X88480000Y-39720000D01*
X89980000Y-45120000D02*
X89980000Y-39720000D01*
X88480000Y-45120000D02*
X89980000Y-45120000D01*
X88480000Y-39720000D02*
X88480000Y-45120000D01*
X88730000Y-42920000D02*
X89730000Y-42920000D01*
X89730000Y-41920000D02*
X89230000Y-42820000D01*
X88730000Y-41920000D02*
X89730000Y-41920000D01*
X89230000Y-42820000D02*
X88730000Y-41920000D01*
X108970000Y-39870000D02*
X107470000Y-39870000D01*
X108970000Y-45270000D02*
X108970000Y-39870000D01*
X107470000Y-45270000D02*
X108970000Y-45270000D01*
X107470000Y-39870000D02*
X107470000Y-45270000D01*
X107720000Y-43070000D02*
X108720000Y-43070000D01*
X108720000Y-42070000D02*
X108220000Y-42970000D01*
X107720000Y-42070000D02*
X108720000Y-42070000D01*
X108220000Y-42970000D02*
X107720000Y-42070000D01*
X110750000Y-43000000D02*
X110250000Y-42100000D01*
X110250000Y-42100000D02*
X111250000Y-42100000D01*
X111250000Y-42100000D02*
X110750000Y-43000000D01*
X110250000Y-43100000D02*
X111250000Y-43100000D01*
X110000000Y-39900000D02*
X110000000Y-45300000D01*
X110000000Y-45300000D02*
X111500000Y-45300000D01*
X111500000Y-45300000D02*
X111500000Y-39900000D01*
X111500000Y-39900000D02*
X110000000Y-39900000D01*
X88850000Y-11370000D02*
X88850000Y-9870000D01*
X83450000Y-11370000D02*
X88850000Y-11370000D01*
X83450000Y-9870000D02*
X83450000Y-11370000D01*
X88850000Y-9870000D02*
X83450000Y-9870000D01*
X85650000Y-10120000D02*
X85650000Y-11120000D01*
X86650000Y-11120000D02*
X85750000Y-10620000D01*
X86650000Y-10120000D02*
X86650000Y-11120000D01*
X85750000Y-10620000D02*
X86650000Y-10120000D01*
X94650000Y-1700000D02*
X93150000Y-1700000D01*
X94650000Y-7100000D02*
X94650000Y-1700000D01*
X93150000Y-7100000D02*
X94650000Y-7100000D01*
X93150000Y-1700000D02*
X93150000Y-7100000D01*
X93400000Y-4900000D02*
X94400000Y-4900000D01*
X94400000Y-3900000D02*
X93900000Y-4800000D01*
X93400000Y-3900000D02*
X94400000Y-3900000D01*
X93900000Y-4800000D02*
X93400000Y-3900000D01*
X49480000Y-49410000D02*
X49480000Y-47910000D01*
X44080000Y-49410000D02*
X49480000Y-49410000D01*
X44080000Y-47910000D02*
X44080000Y-49410000D01*
X49480000Y-47910000D02*
X44080000Y-47910000D01*
X46280000Y-48160000D02*
X46280000Y-49160000D01*
X47280000Y-49160000D02*
X46380000Y-48660000D01*
X47280000Y-48160000D02*
X47280000Y-49160000D01*
X46380000Y-48660000D02*
X47280000Y-48160000D01*
X40100000Y-11820000D02*
X38600000Y-11820000D01*
X40100000Y-17220000D02*
X40100000Y-11820000D01*
X38600000Y-17220000D02*
X40100000Y-17220000D01*
X38600000Y-11820000D02*
X38600000Y-17220000D01*
X38850000Y-15020000D02*
X39850000Y-15020000D01*
X39850000Y-14020000D02*
X39350000Y-14920000D01*
X38850000Y-14020000D02*
X39850000Y-14020000D01*
X39350000Y-14920000D02*
X38850000Y-14020000D01*
X61560000Y-11880000D02*
X60060000Y-11880000D01*
X61560000Y-17280000D02*
X61560000Y-11880000D01*
X60060000Y-17280000D02*
X61560000Y-17280000D01*
X60060000Y-11880000D02*
X60060000Y-17280000D01*
X60310000Y-15080000D02*
X61310000Y-15080000D01*
X61310000Y-14080000D02*
X60810000Y-14980000D01*
X60310000Y-14080000D02*
X61310000Y-14080000D01*
X60810000Y-14980000D02*
X60310000Y-14080000D01*
M02*
