M48
; DRILL file {KiCad (5.1.6-0-10_14)} date Wednesday, August 31, 2022 at 05:51:29 PM
; FORMAT={-:-/ absolute / metric / decimal}
; #@! TF.CreationDate,2022-08-31T17:51:29+09:00
; #@! TF.GenerationSoftware,Kicad,Pcbnew,(5.1.6-0-10_14)
; #@! TF.FileFunction,NonPlated,1,2,NPTH
FMAT,2
METRIC
T1C1.200
T2C1.750
T3C3.988
%
G90
G05
T1
X214.139Y18.0
X220.201Y14.5
T2
X213.995Y0.0
X224.155Y0.0
X190.183Y-38.1
X200.343Y-38.1
X252.095Y-38.1
X262.255Y-38.1
X211.614Y-57.15
X221.774Y-57.15
X199.707Y-19.05
X209.867Y-19.05
X185.42Y-57.15
X195.58Y-57.15
X254.476Y0.0
X264.636Y0.0
X237.807Y-19.05
X247.968Y-19.05
X194.945Y0.0
X205.105Y0.0
X209.232Y-38.1
X219.392Y-38.1
X240.188Y-57.15
X250.349Y-57.15
X228.282Y-38.1
X238.442Y-38.1
X180.657Y-19.05
X190.817Y-19.05
X256.858Y-19.05
X267.017Y-19.05
X218.757Y-19.05
X228.917Y-19.05
X175.895Y0.0
X186.055Y0.0
X233.045Y0.0
X243.205Y0.0
T3
X185.737Y-19.05
X261.938Y-19.05
X223.837Y-19.05
X180.975Y0.0
X238.125Y0.0
X219.075Y0.0
X195.262Y-38.1
X257.175Y-38.1
X216.694Y-57.15
X204.787Y-19.05
X190.5Y-57.15
X259.556Y0.0
X242.887Y-19.05
X200.025Y0.0
X214.312Y-38.1
X245.268Y-57.15
X233.362Y-38.1
T0
M30
