G04 #@! TF.GenerationSoftware,KiCad,Pcbnew,(5.1.6-0-10_14)*
G04 #@! TF.CreationDate,2022-08-31T17:51:27+09:00*
G04 #@! TF.ProjectId,cool936,636f6f6c-3933-4362-9e6b-696361645f70,rev?*
G04 #@! TF.SameCoordinates,Original*
G04 #@! TF.FileFunction,Soldermask,Bot*
G04 #@! TF.FilePolarity,Negative*
%FSLAX46Y46*%
G04 Gerber Fmt 4.6, Leading zero omitted, Abs format (unit mm)*
G04 Created by KiCad (PCBNEW (5.1.6-0-10_14)) date 2022-08-31 17:51:27*
%MOMM*%
%LPD*%
G01*
G04 APERTURE LIST*
%ADD10C,0.100000*%
G04 APERTURE END LIST*
D10*
G36*
X233139500Y-59699500D02*
G01*
X231640500Y-59699500D01*
X231640500Y-58200500D01*
X233139500Y-58200500D01*
X233139500Y-59699500D01*
G37*
G36*
X202509500Y-59649500D02*
G01*
X201010500Y-59649500D01*
X201010500Y-58150500D01*
X202509500Y-58150500D01*
X202509500Y-59649500D01*
G37*
G36*
X257229500Y-59634500D02*
G01*
X255730500Y-59634500D01*
X255730500Y-58135500D01*
X257229500Y-58135500D01*
X257229500Y-59634500D01*
G37*
G36*
X191096474Y-55183684D02*
G01*
X191314474Y-55273983D01*
X191468623Y-55337833D01*
X191803548Y-55561623D01*
X192088377Y-55846452D01*
X192312167Y-56181377D01*
X192344562Y-56259586D01*
X192466316Y-56553526D01*
X192544900Y-56948594D01*
X192544900Y-57351406D01*
X192466316Y-57746474D01*
X192415451Y-57869272D01*
X192312167Y-58118623D01*
X192088377Y-58453548D01*
X191803548Y-58738377D01*
X191468623Y-58962167D01*
X191314474Y-59026017D01*
X191096474Y-59116316D01*
X190701406Y-59194900D01*
X190298594Y-59194900D01*
X189903526Y-59116316D01*
X189685526Y-59026017D01*
X189531377Y-58962167D01*
X189196452Y-58738377D01*
X188911623Y-58453548D01*
X188687833Y-58118623D01*
X188584549Y-57869272D01*
X188533684Y-57746474D01*
X188455100Y-57351406D01*
X188455100Y-56948594D01*
X188533684Y-56553526D01*
X188655438Y-56259586D01*
X188687833Y-56181377D01*
X188911623Y-55846452D01*
X189196452Y-55561623D01*
X189531377Y-55337833D01*
X189685526Y-55273983D01*
X189903526Y-55183684D01*
X190298594Y-55105100D01*
X190701406Y-55105100D01*
X191096474Y-55183684D01*
G37*
G36*
X217290474Y-55183684D02*
G01*
X217508474Y-55273983D01*
X217662623Y-55337833D01*
X217997548Y-55561623D01*
X218282377Y-55846452D01*
X218506167Y-56181377D01*
X218538562Y-56259586D01*
X218660316Y-56553526D01*
X218738900Y-56948594D01*
X218738900Y-57351406D01*
X218660316Y-57746474D01*
X218609451Y-57869272D01*
X218506167Y-58118623D01*
X218282377Y-58453548D01*
X217997548Y-58738377D01*
X217662623Y-58962167D01*
X217508474Y-59026017D01*
X217290474Y-59116316D01*
X216895406Y-59194900D01*
X216492594Y-59194900D01*
X216097526Y-59116316D01*
X215879526Y-59026017D01*
X215725377Y-58962167D01*
X215390452Y-58738377D01*
X215105623Y-58453548D01*
X214881833Y-58118623D01*
X214778549Y-57869272D01*
X214727684Y-57746474D01*
X214649100Y-57351406D01*
X214649100Y-56948594D01*
X214727684Y-56553526D01*
X214849438Y-56259586D01*
X214881833Y-56181377D01*
X215105623Y-55846452D01*
X215390452Y-55561623D01*
X215725377Y-55337833D01*
X215879526Y-55273983D01*
X216097526Y-55183684D01*
X216492594Y-55105100D01*
X216895406Y-55105100D01*
X217290474Y-55183684D01*
G37*
G36*
X245864974Y-55183684D02*
G01*
X246082974Y-55273983D01*
X246237123Y-55337833D01*
X246572048Y-55561623D01*
X246856877Y-55846452D01*
X247080667Y-56181377D01*
X247113062Y-56259586D01*
X247234816Y-56553526D01*
X247313400Y-56948594D01*
X247313400Y-57351406D01*
X247234816Y-57746474D01*
X247183951Y-57869272D01*
X247080667Y-58118623D01*
X246856877Y-58453548D01*
X246572048Y-58738377D01*
X246237123Y-58962167D01*
X246082974Y-59026017D01*
X245864974Y-59116316D01*
X245469906Y-59194900D01*
X245067094Y-59194900D01*
X244672026Y-59116316D01*
X244454026Y-59026017D01*
X244299877Y-58962167D01*
X243964952Y-58738377D01*
X243680123Y-58453548D01*
X243456333Y-58118623D01*
X243353049Y-57869272D01*
X243302184Y-57746474D01*
X243223600Y-57351406D01*
X243223600Y-56948594D01*
X243302184Y-56553526D01*
X243423938Y-56259586D01*
X243456333Y-56181377D01*
X243680123Y-55846452D01*
X243964952Y-55561623D01*
X244299877Y-55337833D01*
X244454026Y-55273983D01*
X244672026Y-55183684D01*
X245067094Y-55105100D01*
X245469906Y-55105100D01*
X245864974Y-55183684D01*
G37*
G36*
X240458604Y-56259585D02*
G01*
X240627126Y-56329389D01*
X240778791Y-56430728D01*
X240907772Y-56559709D01*
X241009111Y-56711374D01*
X241078915Y-56879896D01*
X241114500Y-57058797D01*
X241114500Y-57241203D01*
X241078915Y-57420104D01*
X241009111Y-57588626D01*
X240907772Y-57740291D01*
X240778791Y-57869272D01*
X240627126Y-57970611D01*
X240458604Y-58040415D01*
X240279703Y-58076000D01*
X240097297Y-58076000D01*
X239918396Y-58040415D01*
X239749874Y-57970611D01*
X239598209Y-57869272D01*
X239469228Y-57740291D01*
X239367889Y-57588626D01*
X239298085Y-57420104D01*
X239262500Y-57241203D01*
X239262500Y-57058797D01*
X239298085Y-56879896D01*
X239367889Y-56711374D01*
X239469228Y-56559709D01*
X239598209Y-56430728D01*
X239749874Y-56329389D01*
X239918396Y-56259585D01*
X240097297Y-56224000D01*
X240279703Y-56224000D01*
X240458604Y-56259585D01*
G37*
G36*
X250618604Y-56259585D02*
G01*
X250787126Y-56329389D01*
X250938791Y-56430728D01*
X251067772Y-56559709D01*
X251169111Y-56711374D01*
X251238915Y-56879896D01*
X251274500Y-57058797D01*
X251274500Y-57241203D01*
X251238915Y-57420104D01*
X251169111Y-57588626D01*
X251067772Y-57740291D01*
X250938791Y-57869272D01*
X250787126Y-57970611D01*
X250618604Y-58040415D01*
X250439703Y-58076000D01*
X250257297Y-58076000D01*
X250078396Y-58040415D01*
X249909874Y-57970611D01*
X249758209Y-57869272D01*
X249629228Y-57740291D01*
X249527889Y-57588626D01*
X249458085Y-57420104D01*
X249422500Y-57241203D01*
X249422500Y-57058797D01*
X249458085Y-56879896D01*
X249527889Y-56711374D01*
X249629228Y-56559709D01*
X249758209Y-56430728D01*
X249909874Y-56329389D01*
X250078396Y-56259585D01*
X250257297Y-56224000D01*
X250439703Y-56224000D01*
X250618604Y-56259585D01*
G37*
G36*
X185690104Y-56259585D02*
G01*
X185858626Y-56329389D01*
X186010291Y-56430728D01*
X186139272Y-56559709D01*
X186240611Y-56711374D01*
X186310415Y-56879896D01*
X186346000Y-57058797D01*
X186346000Y-57241203D01*
X186310415Y-57420104D01*
X186240611Y-57588626D01*
X186139272Y-57740291D01*
X186010291Y-57869272D01*
X185858626Y-57970611D01*
X185690104Y-58040415D01*
X185511203Y-58076000D01*
X185328797Y-58076000D01*
X185149896Y-58040415D01*
X184981374Y-57970611D01*
X184829709Y-57869272D01*
X184700728Y-57740291D01*
X184599389Y-57588626D01*
X184529585Y-57420104D01*
X184494000Y-57241203D01*
X184494000Y-57058797D01*
X184529585Y-56879896D01*
X184599389Y-56711374D01*
X184700728Y-56559709D01*
X184829709Y-56430728D01*
X184981374Y-56329389D01*
X185149896Y-56259585D01*
X185328797Y-56224000D01*
X185511203Y-56224000D01*
X185690104Y-56259585D01*
G37*
G36*
X195850104Y-56259585D02*
G01*
X196018626Y-56329389D01*
X196170291Y-56430728D01*
X196299272Y-56559709D01*
X196400611Y-56711374D01*
X196470415Y-56879896D01*
X196506000Y-57058797D01*
X196506000Y-57241203D01*
X196470415Y-57420104D01*
X196400611Y-57588626D01*
X196299272Y-57740291D01*
X196170291Y-57869272D01*
X196018626Y-57970611D01*
X195850104Y-58040415D01*
X195671203Y-58076000D01*
X195488797Y-58076000D01*
X195309896Y-58040415D01*
X195141374Y-57970611D01*
X194989709Y-57869272D01*
X194860728Y-57740291D01*
X194759389Y-57588626D01*
X194689585Y-57420104D01*
X194654000Y-57241203D01*
X194654000Y-57058797D01*
X194689585Y-56879896D01*
X194759389Y-56711374D01*
X194860728Y-56559709D01*
X194989709Y-56430728D01*
X195141374Y-56329389D01*
X195309896Y-56259585D01*
X195488797Y-56224000D01*
X195671203Y-56224000D01*
X195850104Y-56259585D01*
G37*
G36*
X211884104Y-56259585D02*
G01*
X212052626Y-56329389D01*
X212204291Y-56430728D01*
X212333272Y-56559709D01*
X212434611Y-56711374D01*
X212504415Y-56879896D01*
X212540000Y-57058797D01*
X212540000Y-57241203D01*
X212504415Y-57420104D01*
X212434611Y-57588626D01*
X212333272Y-57740291D01*
X212204291Y-57869272D01*
X212052626Y-57970611D01*
X211884104Y-58040415D01*
X211705203Y-58076000D01*
X211522797Y-58076000D01*
X211343896Y-58040415D01*
X211175374Y-57970611D01*
X211023709Y-57869272D01*
X210894728Y-57740291D01*
X210793389Y-57588626D01*
X210723585Y-57420104D01*
X210688000Y-57241203D01*
X210688000Y-57058797D01*
X210723585Y-56879896D01*
X210793389Y-56711374D01*
X210894728Y-56559709D01*
X211023709Y-56430728D01*
X211175374Y-56329389D01*
X211343896Y-56259585D01*
X211522797Y-56224000D01*
X211705203Y-56224000D01*
X211884104Y-56259585D01*
G37*
G36*
X222044104Y-56259585D02*
G01*
X222212626Y-56329389D01*
X222364291Y-56430728D01*
X222493272Y-56559709D01*
X222594611Y-56711374D01*
X222664415Y-56879896D01*
X222700000Y-57058797D01*
X222700000Y-57241203D01*
X222664415Y-57420104D01*
X222594611Y-57588626D01*
X222493272Y-57740291D01*
X222364291Y-57869272D01*
X222212626Y-57970611D01*
X222044104Y-58040415D01*
X221865203Y-58076000D01*
X221682797Y-58076000D01*
X221503896Y-58040415D01*
X221335374Y-57970611D01*
X221183709Y-57869272D01*
X221054728Y-57740291D01*
X220953389Y-57588626D01*
X220883585Y-57420104D01*
X220848000Y-57241203D01*
X220848000Y-57058797D01*
X220883585Y-56879896D01*
X220953389Y-56711374D01*
X221054728Y-56559709D01*
X221183709Y-56430728D01*
X221335374Y-56329389D01*
X221503896Y-56259585D01*
X221682797Y-56224000D01*
X221865203Y-56224000D01*
X222044104Y-56259585D01*
G37*
G36*
X232916000Y-57616000D02*
G01*
X231864000Y-57616000D01*
X231864000Y-56214000D01*
X232916000Y-56214000D01*
X232916000Y-57616000D01*
G37*
G36*
X202286000Y-57566000D02*
G01*
X201234000Y-57566000D01*
X201234000Y-56164000D01*
X202286000Y-56164000D01*
X202286000Y-57566000D01*
G37*
G36*
X257006000Y-57551000D02*
G01*
X255954000Y-57551000D01*
X255954000Y-56149000D01*
X257006000Y-56149000D01*
X257006000Y-57551000D01*
G37*
G36*
X239458500Y-55860000D02*
G01*
X236908500Y-55860000D01*
X236908500Y-53360000D01*
X239458500Y-53360000D01*
X239458500Y-55860000D01*
G37*
G36*
X210884000Y-55860000D02*
G01*
X208334000Y-55860000D01*
X208334000Y-53360000D01*
X210884000Y-53360000D01*
X210884000Y-55860000D01*
G37*
G36*
X184690000Y-55860000D02*
G01*
X182140000Y-55860000D01*
X182140000Y-53360000D01*
X184690000Y-53360000D01*
X184690000Y-55860000D01*
G37*
G36*
X232916000Y-54066000D02*
G01*
X231864000Y-54066000D01*
X231864000Y-52664000D01*
X232916000Y-52664000D01*
X232916000Y-54066000D01*
G37*
G36*
X202286000Y-54016000D02*
G01*
X201234000Y-54016000D01*
X201234000Y-52614000D01*
X202286000Y-52614000D01*
X202286000Y-54016000D01*
G37*
G36*
X257006000Y-54001000D02*
G01*
X255954000Y-54001000D01*
X255954000Y-52599000D01*
X257006000Y-52599000D01*
X257006000Y-54001000D01*
G37*
G36*
X197590000Y-53320000D02*
G01*
X195040000Y-53320000D01*
X195040000Y-50820000D01*
X197590000Y-50820000D01*
X197590000Y-53320000D01*
G37*
G36*
X223784000Y-53320000D02*
G01*
X221234000Y-53320000D01*
X221234000Y-50820000D01*
X223784000Y-50820000D01*
X223784000Y-53320000D01*
G37*
G36*
X252358500Y-53320000D02*
G01*
X249808500Y-53320000D01*
X249808500Y-50820000D01*
X252358500Y-50820000D01*
X252358500Y-53320000D01*
G37*
G36*
X232484425Y-50584599D02*
G01*
X232608621Y-50609302D01*
X232745022Y-50665801D01*
X232867779Y-50747825D01*
X232972175Y-50852221D01*
X233054199Y-50974978D01*
X233110698Y-51111379D01*
X233139500Y-51256181D01*
X233139500Y-51403819D01*
X233110698Y-51548621D01*
X233054199Y-51685022D01*
X232972175Y-51807779D01*
X232867779Y-51912175D01*
X232745022Y-51994199D01*
X232608621Y-52050698D01*
X232484425Y-52075401D01*
X232463820Y-52079500D01*
X232316180Y-52079500D01*
X232295575Y-52075401D01*
X232171379Y-52050698D01*
X232034978Y-51994199D01*
X231912221Y-51912175D01*
X231807825Y-51807779D01*
X231725801Y-51685022D01*
X231669302Y-51548621D01*
X231640500Y-51403819D01*
X231640500Y-51256181D01*
X231669302Y-51111379D01*
X231725801Y-50974978D01*
X231807825Y-50852221D01*
X231912221Y-50747825D01*
X232034978Y-50665801D01*
X232171379Y-50609302D01*
X232295575Y-50584599D01*
X232316180Y-50580500D01*
X232463820Y-50580500D01*
X232484425Y-50584599D01*
G37*
G36*
X201854425Y-50534599D02*
G01*
X201978621Y-50559302D01*
X202115022Y-50615801D01*
X202237779Y-50697825D01*
X202342175Y-50802221D01*
X202424199Y-50924978D01*
X202480698Y-51061379D01*
X202509500Y-51206181D01*
X202509500Y-51353819D01*
X202480698Y-51498621D01*
X202424199Y-51635022D01*
X202342175Y-51757779D01*
X202237779Y-51862175D01*
X202115022Y-51944199D01*
X201978621Y-52000698D01*
X201854425Y-52025401D01*
X201833820Y-52029500D01*
X201686180Y-52029500D01*
X201665575Y-52025401D01*
X201541379Y-52000698D01*
X201404978Y-51944199D01*
X201282221Y-51862175D01*
X201177825Y-51757779D01*
X201095801Y-51635022D01*
X201039302Y-51498621D01*
X201010500Y-51353819D01*
X201010500Y-51206181D01*
X201039302Y-51061379D01*
X201095801Y-50924978D01*
X201177825Y-50802221D01*
X201282221Y-50697825D01*
X201404978Y-50615801D01*
X201541379Y-50559302D01*
X201665575Y-50534599D01*
X201686180Y-50530500D01*
X201833820Y-50530500D01*
X201854425Y-50534599D01*
G37*
G36*
X256574425Y-50519599D02*
G01*
X256698621Y-50544302D01*
X256835022Y-50600801D01*
X256957779Y-50682825D01*
X257062175Y-50787221D01*
X257144199Y-50909978D01*
X257200698Y-51046379D01*
X257229500Y-51191181D01*
X257229500Y-51338819D01*
X257200698Y-51483621D01*
X257144199Y-51620022D01*
X257062175Y-51742779D01*
X256957779Y-51847175D01*
X256835022Y-51929199D01*
X256698621Y-51985698D01*
X256574425Y-52010401D01*
X256553820Y-52014500D01*
X256406180Y-52014500D01*
X256385575Y-52010401D01*
X256261379Y-51985698D01*
X256124978Y-51929199D01*
X256002221Y-51847175D01*
X255897825Y-51742779D01*
X255815801Y-51620022D01*
X255759302Y-51483621D01*
X255730500Y-51338819D01*
X255730500Y-51191181D01*
X255759302Y-51046379D01*
X255815801Y-50909978D01*
X255897825Y-50787221D01*
X256002221Y-50682825D01*
X256124978Y-50600801D01*
X256261379Y-50544302D01*
X256385575Y-50519599D01*
X256406180Y-50515500D01*
X256553820Y-50515500D01*
X256574425Y-50519599D01*
G37*
G36*
X223249500Y-46929500D02*
G01*
X221750500Y-46929500D01*
X221750500Y-45430500D01*
X223249500Y-45430500D01*
X223249500Y-46929500D01*
G37*
G36*
X204249500Y-46899500D02*
G01*
X202750500Y-46899500D01*
X202750500Y-45400500D01*
X204249500Y-45400500D01*
X204249500Y-46899500D01*
G37*
G36*
X223026000Y-44846000D02*
G01*
X221974000Y-44846000D01*
X221974000Y-43444000D01*
X223026000Y-43444000D01*
X223026000Y-44846000D01*
G37*
G36*
X204026000Y-44816000D02*
G01*
X202974000Y-44816000D01*
X202974000Y-43414000D01*
X204026000Y-43414000D01*
X204026000Y-44816000D01*
G37*
G36*
X244529500Y-41609500D02*
G01*
X243030500Y-41609500D01*
X243030500Y-40110500D01*
X244529500Y-40110500D01*
X244529500Y-41609500D01*
G37*
G36*
X247179500Y-41609500D02*
G01*
X245680500Y-41609500D01*
X245680500Y-40110500D01*
X247179500Y-40110500D01*
X247179500Y-41609500D01*
G37*
G36*
X223026000Y-41296000D02*
G01*
X221974000Y-41296000D01*
X221974000Y-39894000D01*
X223026000Y-39894000D01*
X223026000Y-41296000D01*
G37*
G36*
X204026000Y-41266000D02*
G01*
X202974000Y-41266000D01*
X202974000Y-39864000D01*
X204026000Y-39864000D01*
X204026000Y-41266000D01*
G37*
G36*
X214908974Y-36133684D02*
G01*
X215126974Y-36223983D01*
X215281123Y-36287833D01*
X215616048Y-36511623D01*
X215900877Y-36796452D01*
X216124667Y-37131377D01*
X216157062Y-37209586D01*
X216278816Y-37503526D01*
X216357400Y-37898594D01*
X216357400Y-38301406D01*
X216278816Y-38696474D01*
X216227951Y-38819272D01*
X216124667Y-39068623D01*
X215900877Y-39403548D01*
X215616048Y-39688377D01*
X215281123Y-39912167D01*
X215126974Y-39976017D01*
X214908974Y-40066316D01*
X214513906Y-40144900D01*
X214111094Y-40144900D01*
X213716026Y-40066316D01*
X213498026Y-39976017D01*
X213343877Y-39912167D01*
X213008952Y-39688377D01*
X212724123Y-39403548D01*
X212500333Y-39068623D01*
X212397049Y-38819272D01*
X212346184Y-38696474D01*
X212267600Y-38301406D01*
X212267600Y-37898594D01*
X212346184Y-37503526D01*
X212467938Y-37209586D01*
X212500333Y-37131377D01*
X212724123Y-36796452D01*
X213008952Y-36511623D01*
X213343877Y-36287833D01*
X213498026Y-36223983D01*
X213716026Y-36133684D01*
X214111094Y-36055100D01*
X214513906Y-36055100D01*
X214908974Y-36133684D01*
G37*
G36*
X257771974Y-36133684D02*
G01*
X257989974Y-36223983D01*
X258144123Y-36287833D01*
X258479048Y-36511623D01*
X258763877Y-36796452D01*
X258987667Y-37131377D01*
X259020062Y-37209586D01*
X259141816Y-37503526D01*
X259220400Y-37898594D01*
X259220400Y-38301406D01*
X259141816Y-38696474D01*
X259090951Y-38819272D01*
X258987667Y-39068623D01*
X258763877Y-39403548D01*
X258479048Y-39688377D01*
X258144123Y-39912167D01*
X257989974Y-39976017D01*
X257771974Y-40066316D01*
X257376906Y-40144900D01*
X256974094Y-40144900D01*
X256579026Y-40066316D01*
X256361026Y-39976017D01*
X256206877Y-39912167D01*
X255871952Y-39688377D01*
X255587123Y-39403548D01*
X255363333Y-39068623D01*
X255260049Y-38819272D01*
X255209184Y-38696474D01*
X255130600Y-38301406D01*
X255130600Y-37898594D01*
X255209184Y-37503526D01*
X255330938Y-37209586D01*
X255363333Y-37131377D01*
X255587123Y-36796452D01*
X255871952Y-36511623D01*
X256206877Y-36287833D01*
X256361026Y-36223983D01*
X256579026Y-36133684D01*
X256974094Y-36055100D01*
X257376906Y-36055100D01*
X257771974Y-36133684D01*
G37*
G36*
X195858974Y-36133684D02*
G01*
X196076974Y-36223983D01*
X196231123Y-36287833D01*
X196566048Y-36511623D01*
X196850877Y-36796452D01*
X197074667Y-37131377D01*
X197107062Y-37209586D01*
X197228816Y-37503526D01*
X197307400Y-37898594D01*
X197307400Y-38301406D01*
X197228816Y-38696474D01*
X197177951Y-38819272D01*
X197074667Y-39068623D01*
X196850877Y-39403548D01*
X196566048Y-39688377D01*
X196231123Y-39912167D01*
X196076974Y-39976017D01*
X195858974Y-40066316D01*
X195463906Y-40144900D01*
X195061094Y-40144900D01*
X194666026Y-40066316D01*
X194448026Y-39976017D01*
X194293877Y-39912167D01*
X193958952Y-39688377D01*
X193674123Y-39403548D01*
X193450333Y-39068623D01*
X193347049Y-38819272D01*
X193296184Y-38696474D01*
X193217600Y-38301406D01*
X193217600Y-37898594D01*
X193296184Y-37503526D01*
X193417938Y-37209586D01*
X193450333Y-37131377D01*
X193674123Y-36796452D01*
X193958952Y-36511623D01*
X194293877Y-36287833D01*
X194448026Y-36223983D01*
X194666026Y-36133684D01*
X195061094Y-36055100D01*
X195463906Y-36055100D01*
X195858974Y-36133684D01*
G37*
G36*
X233958974Y-36133684D02*
G01*
X234176974Y-36223983D01*
X234331123Y-36287833D01*
X234666048Y-36511623D01*
X234950877Y-36796452D01*
X235174667Y-37131377D01*
X235207062Y-37209586D01*
X235328816Y-37503526D01*
X235407400Y-37898594D01*
X235407400Y-38301406D01*
X235328816Y-38696474D01*
X235277951Y-38819272D01*
X235174667Y-39068623D01*
X234950877Y-39403548D01*
X234666048Y-39688377D01*
X234331123Y-39912167D01*
X234176974Y-39976017D01*
X233958974Y-40066316D01*
X233563906Y-40144900D01*
X233161094Y-40144900D01*
X232766026Y-40066316D01*
X232548026Y-39976017D01*
X232393877Y-39912167D01*
X232058952Y-39688377D01*
X231774123Y-39403548D01*
X231550333Y-39068623D01*
X231447049Y-38819272D01*
X231396184Y-38696474D01*
X231317600Y-38301406D01*
X231317600Y-37898594D01*
X231396184Y-37503526D01*
X231517938Y-37209586D01*
X231550333Y-37131377D01*
X231774123Y-36796452D01*
X232058952Y-36511623D01*
X232393877Y-36287833D01*
X232548026Y-36223983D01*
X232766026Y-36133684D01*
X233161094Y-36055100D01*
X233563906Y-36055100D01*
X233958974Y-36133684D01*
G37*
G36*
X244306000Y-39526000D02*
G01*
X243254000Y-39526000D01*
X243254000Y-38124000D01*
X244306000Y-38124000D01*
X244306000Y-39526000D01*
G37*
G36*
X246956000Y-39526000D02*
G01*
X245904000Y-39526000D01*
X245904000Y-38124000D01*
X246956000Y-38124000D01*
X246956000Y-39526000D01*
G37*
G36*
X222594425Y-37814599D02*
G01*
X222718621Y-37839302D01*
X222855022Y-37895801D01*
X222977779Y-37977825D01*
X223082175Y-38082221D01*
X223164199Y-38204978D01*
X223220698Y-38341379D01*
X223249500Y-38486181D01*
X223249500Y-38633819D01*
X223220698Y-38778621D01*
X223164199Y-38915022D01*
X223082175Y-39037779D01*
X222977779Y-39142175D01*
X222855022Y-39224199D01*
X222718621Y-39280698D01*
X222594425Y-39305401D01*
X222573820Y-39309500D01*
X222426180Y-39309500D01*
X222405575Y-39305401D01*
X222281379Y-39280698D01*
X222144978Y-39224199D01*
X222022221Y-39142175D01*
X221917825Y-39037779D01*
X221835801Y-38915022D01*
X221779302Y-38778621D01*
X221750500Y-38633819D01*
X221750500Y-38486181D01*
X221779302Y-38341379D01*
X221835801Y-38204978D01*
X221917825Y-38082221D01*
X222022221Y-37977825D01*
X222144978Y-37895801D01*
X222281379Y-37839302D01*
X222405575Y-37814599D01*
X222426180Y-37810500D01*
X222573820Y-37810500D01*
X222594425Y-37814599D01*
G37*
G36*
X203594425Y-37784599D02*
G01*
X203718621Y-37809302D01*
X203855022Y-37865801D01*
X203977779Y-37947825D01*
X204082175Y-38052221D01*
X204164199Y-38174978D01*
X204220698Y-38311379D01*
X204249500Y-38456181D01*
X204249500Y-38603819D01*
X204220698Y-38748621D01*
X204164199Y-38885022D01*
X204082175Y-39007779D01*
X203977779Y-39112175D01*
X203855022Y-39194199D01*
X203718621Y-39250698D01*
X203594425Y-39275401D01*
X203573820Y-39279500D01*
X203426180Y-39279500D01*
X203405575Y-39275401D01*
X203281379Y-39250698D01*
X203144978Y-39194199D01*
X203022221Y-39112175D01*
X202917825Y-39007779D01*
X202835801Y-38885022D01*
X202779302Y-38748621D01*
X202750500Y-38603819D01*
X202750500Y-38456181D01*
X202779302Y-38311379D01*
X202835801Y-38174978D01*
X202917825Y-38052221D01*
X203022221Y-37947825D01*
X203144978Y-37865801D01*
X203281379Y-37809302D01*
X203405575Y-37784599D01*
X203426180Y-37780500D01*
X203573820Y-37780500D01*
X203594425Y-37784599D01*
G37*
G36*
X190452604Y-37209585D02*
G01*
X190621126Y-37279389D01*
X190772791Y-37380728D01*
X190901772Y-37509709D01*
X191003111Y-37661374D01*
X191072915Y-37829896D01*
X191108500Y-38008797D01*
X191108500Y-38191203D01*
X191072915Y-38370104D01*
X191003111Y-38538626D01*
X190901772Y-38690291D01*
X190772791Y-38819272D01*
X190621126Y-38920611D01*
X190452604Y-38990415D01*
X190273703Y-39026000D01*
X190091297Y-39026000D01*
X189912396Y-38990415D01*
X189743874Y-38920611D01*
X189592209Y-38819272D01*
X189463228Y-38690291D01*
X189361889Y-38538626D01*
X189292085Y-38370104D01*
X189256500Y-38191203D01*
X189256500Y-38008797D01*
X189292085Y-37829896D01*
X189361889Y-37661374D01*
X189463228Y-37509709D01*
X189592209Y-37380728D01*
X189743874Y-37279389D01*
X189912396Y-37209585D01*
X190091297Y-37174000D01*
X190273703Y-37174000D01*
X190452604Y-37209585D01*
G37*
G36*
X262525604Y-37209585D02*
G01*
X262694126Y-37279389D01*
X262845791Y-37380728D01*
X262974772Y-37509709D01*
X263076111Y-37661374D01*
X263145915Y-37829896D01*
X263181500Y-38008797D01*
X263181500Y-38191203D01*
X263145915Y-38370104D01*
X263076111Y-38538626D01*
X262974772Y-38690291D01*
X262845791Y-38819272D01*
X262694126Y-38920611D01*
X262525604Y-38990415D01*
X262346703Y-39026000D01*
X262164297Y-39026000D01*
X261985396Y-38990415D01*
X261816874Y-38920611D01*
X261665209Y-38819272D01*
X261536228Y-38690291D01*
X261434889Y-38538626D01*
X261365085Y-38370104D01*
X261329500Y-38191203D01*
X261329500Y-38008797D01*
X261365085Y-37829896D01*
X261434889Y-37661374D01*
X261536228Y-37509709D01*
X261665209Y-37380728D01*
X261816874Y-37279389D01*
X261985396Y-37209585D01*
X262164297Y-37174000D01*
X262346703Y-37174000D01*
X262525604Y-37209585D01*
G37*
G36*
X200612604Y-37209585D02*
G01*
X200781126Y-37279389D01*
X200932791Y-37380728D01*
X201061772Y-37509709D01*
X201163111Y-37661374D01*
X201232915Y-37829896D01*
X201268500Y-38008797D01*
X201268500Y-38191203D01*
X201232915Y-38370104D01*
X201163111Y-38538626D01*
X201061772Y-38690291D01*
X200932791Y-38819272D01*
X200781126Y-38920611D01*
X200612604Y-38990415D01*
X200433703Y-39026000D01*
X200251297Y-39026000D01*
X200072396Y-38990415D01*
X199903874Y-38920611D01*
X199752209Y-38819272D01*
X199623228Y-38690291D01*
X199521889Y-38538626D01*
X199452085Y-38370104D01*
X199416500Y-38191203D01*
X199416500Y-38008797D01*
X199452085Y-37829896D01*
X199521889Y-37661374D01*
X199623228Y-37509709D01*
X199752209Y-37380728D01*
X199903874Y-37279389D01*
X200072396Y-37209585D01*
X200251297Y-37174000D01*
X200433703Y-37174000D01*
X200612604Y-37209585D01*
G37*
G36*
X252365604Y-37209585D02*
G01*
X252534126Y-37279389D01*
X252685791Y-37380728D01*
X252814772Y-37509709D01*
X252916111Y-37661374D01*
X252985915Y-37829896D01*
X253021500Y-38008797D01*
X253021500Y-38191203D01*
X252985915Y-38370104D01*
X252916111Y-38538626D01*
X252814772Y-38690291D01*
X252685791Y-38819272D01*
X252534126Y-38920611D01*
X252365604Y-38990415D01*
X252186703Y-39026000D01*
X252004297Y-39026000D01*
X251825396Y-38990415D01*
X251656874Y-38920611D01*
X251505209Y-38819272D01*
X251376228Y-38690291D01*
X251274889Y-38538626D01*
X251205085Y-38370104D01*
X251169500Y-38191203D01*
X251169500Y-38008797D01*
X251205085Y-37829896D01*
X251274889Y-37661374D01*
X251376228Y-37509709D01*
X251505209Y-37380728D01*
X251656874Y-37279389D01*
X251825396Y-37209585D01*
X252004297Y-37174000D01*
X252186703Y-37174000D01*
X252365604Y-37209585D01*
G37*
G36*
X228552604Y-37209585D02*
G01*
X228721126Y-37279389D01*
X228872791Y-37380728D01*
X229001772Y-37509709D01*
X229103111Y-37661374D01*
X229172915Y-37829896D01*
X229208500Y-38008797D01*
X229208500Y-38191203D01*
X229172915Y-38370104D01*
X229103111Y-38538626D01*
X229001772Y-38690291D01*
X228872791Y-38819272D01*
X228721126Y-38920611D01*
X228552604Y-38990415D01*
X228373703Y-39026000D01*
X228191297Y-39026000D01*
X228012396Y-38990415D01*
X227843874Y-38920611D01*
X227692209Y-38819272D01*
X227563228Y-38690291D01*
X227461889Y-38538626D01*
X227392085Y-38370104D01*
X227356500Y-38191203D01*
X227356500Y-38008797D01*
X227392085Y-37829896D01*
X227461889Y-37661374D01*
X227563228Y-37509709D01*
X227692209Y-37380728D01*
X227843874Y-37279389D01*
X228012396Y-37209585D01*
X228191297Y-37174000D01*
X228373703Y-37174000D01*
X228552604Y-37209585D01*
G37*
G36*
X238712604Y-37209585D02*
G01*
X238881126Y-37279389D01*
X239032791Y-37380728D01*
X239161772Y-37509709D01*
X239263111Y-37661374D01*
X239332915Y-37829896D01*
X239368500Y-38008797D01*
X239368500Y-38191203D01*
X239332915Y-38370104D01*
X239263111Y-38538626D01*
X239161772Y-38690291D01*
X239032791Y-38819272D01*
X238881126Y-38920611D01*
X238712604Y-38990415D01*
X238533703Y-39026000D01*
X238351297Y-39026000D01*
X238172396Y-38990415D01*
X238003874Y-38920611D01*
X237852209Y-38819272D01*
X237723228Y-38690291D01*
X237621889Y-38538626D01*
X237552085Y-38370104D01*
X237516500Y-38191203D01*
X237516500Y-38008797D01*
X237552085Y-37829896D01*
X237621889Y-37661374D01*
X237723228Y-37509709D01*
X237852209Y-37380728D01*
X238003874Y-37279389D01*
X238172396Y-37209585D01*
X238351297Y-37174000D01*
X238533703Y-37174000D01*
X238712604Y-37209585D01*
G37*
G36*
X209502604Y-37209585D02*
G01*
X209671126Y-37279389D01*
X209822791Y-37380728D01*
X209951772Y-37509709D01*
X210053111Y-37661374D01*
X210122915Y-37829896D01*
X210158500Y-38008797D01*
X210158500Y-38191203D01*
X210122915Y-38370104D01*
X210053111Y-38538626D01*
X209951772Y-38690291D01*
X209822791Y-38819272D01*
X209671126Y-38920611D01*
X209502604Y-38990415D01*
X209323703Y-39026000D01*
X209141297Y-39026000D01*
X208962396Y-38990415D01*
X208793874Y-38920611D01*
X208642209Y-38819272D01*
X208513228Y-38690291D01*
X208411889Y-38538626D01*
X208342085Y-38370104D01*
X208306500Y-38191203D01*
X208306500Y-38008797D01*
X208342085Y-37829896D01*
X208411889Y-37661374D01*
X208513228Y-37509709D01*
X208642209Y-37380728D01*
X208793874Y-37279389D01*
X208962396Y-37209585D01*
X209141297Y-37174000D01*
X209323703Y-37174000D01*
X209502604Y-37209585D01*
G37*
G36*
X219662604Y-37209585D02*
G01*
X219831126Y-37279389D01*
X219982791Y-37380728D01*
X220111772Y-37509709D01*
X220213111Y-37661374D01*
X220282915Y-37829896D01*
X220318500Y-38008797D01*
X220318500Y-38191203D01*
X220282915Y-38370104D01*
X220213111Y-38538626D01*
X220111772Y-38690291D01*
X219982791Y-38819272D01*
X219831126Y-38920611D01*
X219662604Y-38990415D01*
X219483703Y-39026000D01*
X219301297Y-39026000D01*
X219122396Y-38990415D01*
X218953874Y-38920611D01*
X218802209Y-38819272D01*
X218673228Y-38690291D01*
X218571889Y-38538626D01*
X218502085Y-38370104D01*
X218466500Y-38191203D01*
X218466500Y-38008797D01*
X218502085Y-37829896D01*
X218571889Y-37661374D01*
X218673228Y-37509709D01*
X218802209Y-37380728D01*
X218953874Y-37279389D01*
X219122396Y-37209585D01*
X219301297Y-37174000D01*
X219483703Y-37174000D01*
X219662604Y-37209585D01*
G37*
G36*
X189452500Y-36810000D02*
G01*
X186902500Y-36810000D01*
X186902500Y-34310000D01*
X189452500Y-34310000D01*
X189452500Y-36810000D01*
G37*
G36*
X208502500Y-36810000D02*
G01*
X205952500Y-36810000D01*
X205952500Y-34310000D01*
X208502500Y-34310000D01*
X208502500Y-36810000D01*
G37*
G36*
X251365500Y-36810000D02*
G01*
X248815500Y-36810000D01*
X248815500Y-34310000D01*
X251365500Y-34310000D01*
X251365500Y-36810000D01*
G37*
G36*
X227552500Y-36810000D02*
G01*
X225002500Y-36810000D01*
X225002500Y-34310000D01*
X227552500Y-34310000D01*
X227552500Y-36810000D01*
G37*
G36*
X244306000Y-35976000D02*
G01*
X243254000Y-35976000D01*
X243254000Y-34574000D01*
X244306000Y-34574000D01*
X244306000Y-35976000D01*
G37*
G36*
X246956000Y-35976000D02*
G01*
X245904000Y-35976000D01*
X245904000Y-34574000D01*
X246956000Y-34574000D01*
X246956000Y-35976000D01*
G37*
G36*
X221402500Y-34270000D02*
G01*
X218852500Y-34270000D01*
X218852500Y-31770000D01*
X221402500Y-31770000D01*
X221402500Y-34270000D01*
G37*
G36*
X240452500Y-34270000D02*
G01*
X237902500Y-34270000D01*
X237902500Y-31770000D01*
X240452500Y-31770000D01*
X240452500Y-34270000D01*
G37*
G36*
X264265500Y-34270000D02*
G01*
X261715500Y-34270000D01*
X261715500Y-31770000D01*
X264265500Y-31770000D01*
X264265500Y-34270000D01*
G37*
G36*
X202352500Y-34270000D02*
G01*
X199802500Y-34270000D01*
X199802500Y-31770000D01*
X202352500Y-31770000D01*
X202352500Y-34270000D01*
G37*
G36*
X243874425Y-32494599D02*
G01*
X243998621Y-32519302D01*
X244135022Y-32575801D01*
X244257779Y-32657825D01*
X244362175Y-32762221D01*
X244444199Y-32884978D01*
X244500698Y-33021379D01*
X244529500Y-33166181D01*
X244529500Y-33313819D01*
X244500698Y-33458621D01*
X244444199Y-33595022D01*
X244362175Y-33717779D01*
X244257779Y-33822175D01*
X244135022Y-33904199D01*
X243998621Y-33960698D01*
X243874425Y-33985401D01*
X243853820Y-33989500D01*
X243706180Y-33989500D01*
X243685575Y-33985401D01*
X243561379Y-33960698D01*
X243424978Y-33904199D01*
X243302221Y-33822175D01*
X243197825Y-33717779D01*
X243115801Y-33595022D01*
X243059302Y-33458621D01*
X243030500Y-33313819D01*
X243030500Y-33166181D01*
X243059302Y-33021379D01*
X243115801Y-32884978D01*
X243197825Y-32762221D01*
X243302221Y-32657825D01*
X243424978Y-32575801D01*
X243561379Y-32519302D01*
X243685575Y-32494599D01*
X243706180Y-32490500D01*
X243853820Y-32490500D01*
X243874425Y-32494599D01*
G37*
G36*
X246524425Y-32494599D02*
G01*
X246648621Y-32519302D01*
X246785022Y-32575801D01*
X246907779Y-32657825D01*
X247012175Y-32762221D01*
X247094199Y-32884978D01*
X247150698Y-33021379D01*
X247179500Y-33166181D01*
X247179500Y-33313819D01*
X247150698Y-33458621D01*
X247094199Y-33595022D01*
X247012175Y-33717779D01*
X246907779Y-33822175D01*
X246785022Y-33904199D01*
X246648621Y-33960698D01*
X246524425Y-33985401D01*
X246503820Y-33989500D01*
X246356180Y-33989500D01*
X246335575Y-33985401D01*
X246211379Y-33960698D01*
X246074978Y-33904199D01*
X245952221Y-33822175D01*
X245847825Y-33717779D01*
X245765801Y-33595022D01*
X245709302Y-33458621D01*
X245680500Y-33313819D01*
X245680500Y-33166181D01*
X245709302Y-33021379D01*
X245765801Y-32884978D01*
X245847825Y-32762221D01*
X245952221Y-32657825D01*
X246074978Y-32575801D01*
X246211379Y-32519302D01*
X246335575Y-32494599D01*
X246356180Y-32490500D01*
X246503820Y-32490500D01*
X246524425Y-32494599D01*
G37*
G36*
X227271000Y-29751000D02*
G01*
X225369000Y-29751000D01*
X225369000Y-28829000D01*
X227271000Y-28829000D01*
X227271000Y-29751000D01*
G37*
G36*
X222271000Y-29751000D02*
G01*
X220369000Y-29751000D01*
X220369000Y-28829000D01*
X222271000Y-28829000D01*
X222271000Y-29751000D01*
G37*
G36*
X198721000Y-29691000D02*
G01*
X196819000Y-29691000D01*
X196819000Y-28769000D01*
X198721000Y-28769000D01*
X198721000Y-29691000D01*
G37*
G36*
X253221000Y-29691000D02*
G01*
X251319000Y-29691000D01*
X251319000Y-28769000D01*
X253221000Y-28769000D01*
X253221000Y-29691000D01*
G37*
G36*
X248221000Y-29691000D02*
G01*
X246319000Y-29691000D01*
X246319000Y-28769000D01*
X248221000Y-28769000D01*
X248221000Y-29691000D01*
G37*
G36*
X193721000Y-29691000D02*
G01*
X191819000Y-29691000D01*
X191819000Y-28769000D01*
X193721000Y-28769000D01*
X193721000Y-29691000D01*
G37*
G36*
X222271000Y-28251000D02*
G01*
X220369000Y-28251000D01*
X220369000Y-27329000D01*
X222271000Y-27329000D01*
X222271000Y-28251000D01*
G37*
G36*
X227271000Y-28251000D02*
G01*
X225369000Y-28251000D01*
X225369000Y-27329000D01*
X227271000Y-27329000D01*
X227271000Y-28251000D01*
G37*
G36*
X266094425Y-26704599D02*
G01*
X266218621Y-26729302D01*
X266355022Y-26785801D01*
X266477779Y-26867825D01*
X266582175Y-26972221D01*
X266664199Y-27094978D01*
X266720698Y-27231379D01*
X266749500Y-27376181D01*
X266749500Y-27523819D01*
X266720698Y-27668621D01*
X266664199Y-27805022D01*
X266582175Y-27927779D01*
X266477779Y-28032175D01*
X266355022Y-28114199D01*
X266218621Y-28170698D01*
X266094425Y-28195401D01*
X266073820Y-28199500D01*
X265926180Y-28199500D01*
X265905575Y-28195401D01*
X265781379Y-28170698D01*
X265644978Y-28114199D01*
X265522221Y-28032175D01*
X265417825Y-27927779D01*
X265335801Y-27805022D01*
X265279302Y-27668621D01*
X265250500Y-27523819D01*
X265250500Y-27376181D01*
X265279302Y-27231379D01*
X265335801Y-27094978D01*
X265417825Y-26972221D01*
X265522221Y-26867825D01*
X265644978Y-26785801D01*
X265781379Y-26729302D01*
X265905575Y-26704599D01*
X265926180Y-26700500D01*
X266073820Y-26700500D01*
X266094425Y-26704599D01*
G37*
G36*
X259129500Y-28199500D02*
G01*
X257630500Y-28199500D01*
X257630500Y-26700500D01*
X259129500Y-26700500D01*
X259129500Y-28199500D01*
G37*
G36*
X193721000Y-28191000D02*
G01*
X191819000Y-28191000D01*
X191819000Y-27269000D01*
X193721000Y-27269000D01*
X193721000Y-28191000D01*
G37*
G36*
X248221000Y-28191000D02*
G01*
X246319000Y-28191000D01*
X246319000Y-27269000D01*
X248221000Y-27269000D01*
X248221000Y-28191000D01*
G37*
G36*
X253221000Y-28191000D02*
G01*
X251319000Y-28191000D01*
X251319000Y-27269000D01*
X253221000Y-27269000D01*
X253221000Y-28191000D01*
G37*
G36*
X198721000Y-28191000D02*
G01*
X196819000Y-28191000D01*
X196819000Y-27269000D01*
X198721000Y-27269000D01*
X198721000Y-28191000D01*
G37*
G36*
X264666000Y-27976000D02*
G01*
X263264000Y-27976000D01*
X263264000Y-26924000D01*
X264666000Y-26924000D01*
X264666000Y-27976000D01*
G37*
G36*
X261116000Y-27976000D02*
G01*
X259714000Y-27976000D01*
X259714000Y-26924000D01*
X261116000Y-26924000D01*
X261116000Y-27976000D01*
G37*
G36*
X232829500Y-27499500D02*
G01*
X231330500Y-27499500D01*
X231330500Y-26000500D01*
X232829500Y-26000500D01*
X232829500Y-27499500D01*
G37*
G36*
X235319500Y-27479500D02*
G01*
X233820500Y-27479500D01*
X233820500Y-25980500D01*
X235319500Y-25980500D01*
X235319500Y-27479500D01*
G37*
G36*
X213629500Y-25969500D02*
G01*
X212130500Y-25969500D01*
X212130500Y-24470500D01*
X213629500Y-24470500D01*
X213629500Y-25969500D01*
G37*
G36*
X194759500Y-25779500D02*
G01*
X193260500Y-25779500D01*
X193260500Y-24280500D01*
X194759500Y-24280500D01*
X194759500Y-25779500D01*
G37*
G36*
X232606000Y-25416000D02*
G01*
X231554000Y-25416000D01*
X231554000Y-24014000D01*
X232606000Y-24014000D01*
X232606000Y-25416000D01*
G37*
G36*
X235096000Y-25396000D02*
G01*
X234044000Y-25396000D01*
X234044000Y-23994000D01*
X235096000Y-23994000D01*
X235096000Y-25396000D01*
G37*
G36*
X213406000Y-23886000D02*
G01*
X212354000Y-23886000D01*
X212354000Y-22484000D01*
X213406000Y-22484000D01*
X213406000Y-23886000D01*
G37*
G36*
X194536000Y-23696000D02*
G01*
X193484000Y-23696000D01*
X193484000Y-22294000D01*
X194536000Y-22294000D01*
X194536000Y-23696000D01*
G37*
G36*
X232606000Y-21866000D02*
G01*
X231554000Y-21866000D01*
X231554000Y-20464000D01*
X232606000Y-20464000D01*
X232606000Y-21866000D01*
G37*
G36*
X235096000Y-21846000D02*
G01*
X234044000Y-21846000D01*
X234044000Y-20444000D01*
X235096000Y-20444000D01*
X235096000Y-21846000D01*
G37*
G36*
X262533974Y-17083684D02*
G01*
X262751974Y-17173983D01*
X262906123Y-17237833D01*
X263241048Y-17461623D01*
X263525877Y-17746452D01*
X263749667Y-18081377D01*
X263782062Y-18159586D01*
X263903816Y-18453526D01*
X263982400Y-18848594D01*
X263982400Y-19251406D01*
X263903816Y-19646474D01*
X263815578Y-19859500D01*
X263749667Y-20018623D01*
X263525877Y-20353548D01*
X263241048Y-20638377D01*
X262906123Y-20862167D01*
X262751974Y-20926017D01*
X262533974Y-21016316D01*
X262138906Y-21094900D01*
X261736094Y-21094900D01*
X261341026Y-21016316D01*
X261123026Y-20926017D01*
X260968877Y-20862167D01*
X260633952Y-20638377D01*
X260349123Y-20353548D01*
X260125333Y-20018623D01*
X260059422Y-19859500D01*
X259971184Y-19646474D01*
X259892600Y-19251406D01*
X259892600Y-18848594D01*
X259971184Y-18453526D01*
X260092938Y-18159586D01*
X260125333Y-18081377D01*
X260349123Y-17746452D01*
X260633952Y-17461623D01*
X260968877Y-17237833D01*
X261123026Y-17173983D01*
X261341026Y-17083684D01*
X261736094Y-17005100D01*
X262138906Y-17005100D01*
X262533974Y-17083684D01*
G37*
G36*
X224433974Y-17083684D02*
G01*
X224651974Y-17173983D01*
X224806123Y-17237833D01*
X225141048Y-17461623D01*
X225425877Y-17746452D01*
X225649667Y-18081377D01*
X225682062Y-18159586D01*
X225803816Y-18453526D01*
X225882400Y-18848594D01*
X225882400Y-19251406D01*
X225803816Y-19646474D01*
X225715578Y-19859500D01*
X225649667Y-20018623D01*
X225425877Y-20353548D01*
X225141048Y-20638377D01*
X224806123Y-20862167D01*
X224651974Y-20926017D01*
X224433974Y-21016316D01*
X224038906Y-21094900D01*
X223636094Y-21094900D01*
X223241026Y-21016316D01*
X223023026Y-20926017D01*
X222868877Y-20862167D01*
X222533952Y-20638377D01*
X222249123Y-20353548D01*
X222025333Y-20018623D01*
X221959422Y-19859500D01*
X221871184Y-19646474D01*
X221792600Y-19251406D01*
X221792600Y-18848594D01*
X221871184Y-18453526D01*
X221992938Y-18159586D01*
X222025333Y-18081377D01*
X222249123Y-17746452D01*
X222533952Y-17461623D01*
X222868877Y-17237833D01*
X223023026Y-17173983D01*
X223241026Y-17083684D01*
X223636094Y-17005100D01*
X224038906Y-17005100D01*
X224433974Y-17083684D01*
G37*
G36*
X205383974Y-17083684D02*
G01*
X205601974Y-17173983D01*
X205756123Y-17237833D01*
X206091048Y-17461623D01*
X206375877Y-17746452D01*
X206599667Y-18081377D01*
X206632062Y-18159586D01*
X206753816Y-18453526D01*
X206832400Y-18848594D01*
X206832400Y-19251406D01*
X206753816Y-19646474D01*
X206665578Y-19859500D01*
X206599667Y-20018623D01*
X206375877Y-20353548D01*
X206091048Y-20638377D01*
X205756123Y-20862167D01*
X205601974Y-20926017D01*
X205383974Y-21016316D01*
X204988906Y-21094900D01*
X204586094Y-21094900D01*
X204191026Y-21016316D01*
X203973026Y-20926017D01*
X203818877Y-20862167D01*
X203483952Y-20638377D01*
X203199123Y-20353548D01*
X202975333Y-20018623D01*
X202909422Y-19859500D01*
X202821184Y-19646474D01*
X202742600Y-19251406D01*
X202742600Y-18848594D01*
X202821184Y-18453526D01*
X202942938Y-18159586D01*
X202975333Y-18081377D01*
X203199123Y-17746452D01*
X203483952Y-17461623D01*
X203818877Y-17237833D01*
X203973026Y-17173983D01*
X204191026Y-17083684D01*
X204586094Y-17005100D01*
X204988906Y-17005100D01*
X205383974Y-17083684D01*
G37*
G36*
X186333974Y-17083684D02*
G01*
X186551974Y-17173983D01*
X186706123Y-17237833D01*
X187041048Y-17461623D01*
X187325877Y-17746452D01*
X187549667Y-18081377D01*
X187582062Y-18159586D01*
X187703816Y-18453526D01*
X187782400Y-18848594D01*
X187782400Y-19251406D01*
X187703816Y-19646474D01*
X187615578Y-19859500D01*
X187549667Y-20018623D01*
X187325877Y-20353548D01*
X187041048Y-20638377D01*
X186706123Y-20862167D01*
X186551974Y-20926017D01*
X186333974Y-21016316D01*
X185938906Y-21094900D01*
X185536094Y-21094900D01*
X185141026Y-21016316D01*
X184923026Y-20926017D01*
X184768877Y-20862167D01*
X184433952Y-20638377D01*
X184149123Y-20353548D01*
X183925333Y-20018623D01*
X183859422Y-19859500D01*
X183771184Y-19646474D01*
X183692600Y-19251406D01*
X183692600Y-18848594D01*
X183771184Y-18453526D01*
X183892938Y-18159586D01*
X183925333Y-18081377D01*
X184149123Y-17746452D01*
X184433952Y-17461623D01*
X184768877Y-17237833D01*
X184923026Y-17173983D01*
X185141026Y-17083684D01*
X185536094Y-17005100D01*
X185938906Y-17005100D01*
X186333974Y-17083684D01*
G37*
G36*
X243483974Y-17083684D02*
G01*
X243701974Y-17173983D01*
X243856123Y-17237833D01*
X244191048Y-17461623D01*
X244475877Y-17746452D01*
X244699667Y-18081377D01*
X244732062Y-18159586D01*
X244853816Y-18453526D01*
X244932400Y-18848594D01*
X244932400Y-19251406D01*
X244853816Y-19646474D01*
X244765578Y-19859500D01*
X244699667Y-20018623D01*
X244475877Y-20353548D01*
X244191048Y-20638377D01*
X243856123Y-20862167D01*
X243701974Y-20926017D01*
X243483974Y-21016316D01*
X243088906Y-21094900D01*
X242686094Y-21094900D01*
X242291026Y-21016316D01*
X242073026Y-20926017D01*
X241918877Y-20862167D01*
X241583952Y-20638377D01*
X241299123Y-20353548D01*
X241075333Y-20018623D01*
X241009422Y-19859500D01*
X240921184Y-19646474D01*
X240842600Y-19251406D01*
X240842600Y-18848594D01*
X240921184Y-18453526D01*
X241042938Y-18159586D01*
X241075333Y-18081377D01*
X241299123Y-17746452D01*
X241583952Y-17461623D01*
X241918877Y-17237833D01*
X242073026Y-17173983D01*
X242291026Y-17083684D01*
X242686094Y-17005100D01*
X243088906Y-17005100D01*
X243483974Y-17083684D01*
G37*
G36*
X213406000Y-20336000D02*
G01*
X212354000Y-20336000D01*
X212354000Y-18934000D01*
X213406000Y-18934000D01*
X213406000Y-20336000D01*
G37*
G36*
X194536000Y-20146000D02*
G01*
X193484000Y-20146000D01*
X193484000Y-18744000D01*
X194536000Y-18744000D01*
X194536000Y-20146000D01*
G37*
G36*
X229187604Y-18159585D02*
G01*
X229356126Y-18229389D01*
X229507791Y-18330728D01*
X229636772Y-18459709D01*
X229738111Y-18611374D01*
X229807915Y-18779896D01*
X229843500Y-18958797D01*
X229843500Y-19141203D01*
X229807915Y-19320104D01*
X229738111Y-19488626D01*
X229636772Y-19640291D01*
X229507791Y-19769272D01*
X229356126Y-19870611D01*
X229187604Y-19940415D01*
X229008703Y-19976000D01*
X228826297Y-19976000D01*
X228647396Y-19940415D01*
X228478874Y-19870611D01*
X228327209Y-19769272D01*
X228198228Y-19640291D01*
X228096889Y-19488626D01*
X228027085Y-19320104D01*
X227991500Y-19141203D01*
X227991500Y-18958797D01*
X228027085Y-18779896D01*
X228096889Y-18611374D01*
X228198228Y-18459709D01*
X228327209Y-18330728D01*
X228478874Y-18229389D01*
X228647396Y-18159585D01*
X228826297Y-18124000D01*
X229008703Y-18124000D01*
X229187604Y-18159585D01*
G37*
G36*
X238077604Y-18159585D02*
G01*
X238246126Y-18229389D01*
X238397791Y-18330728D01*
X238526772Y-18459709D01*
X238628111Y-18611374D01*
X238697915Y-18779896D01*
X238733500Y-18958797D01*
X238733500Y-19141203D01*
X238697915Y-19320104D01*
X238628111Y-19488626D01*
X238526772Y-19640291D01*
X238397791Y-19769272D01*
X238246126Y-19870611D01*
X238077604Y-19940415D01*
X237898703Y-19976000D01*
X237716297Y-19976000D01*
X237537396Y-19940415D01*
X237368874Y-19870611D01*
X237217209Y-19769272D01*
X237088228Y-19640291D01*
X236986889Y-19488626D01*
X236917085Y-19320104D01*
X236881500Y-19141203D01*
X236881500Y-18958797D01*
X236917085Y-18779896D01*
X236986889Y-18611374D01*
X237088228Y-18459709D01*
X237217209Y-18330728D01*
X237368874Y-18229389D01*
X237537396Y-18159585D01*
X237716297Y-18124000D01*
X237898703Y-18124000D01*
X238077604Y-18159585D01*
G37*
G36*
X180927604Y-18159585D02*
G01*
X181096126Y-18229389D01*
X181247791Y-18330728D01*
X181376772Y-18459709D01*
X181478111Y-18611374D01*
X181547915Y-18779896D01*
X181583500Y-18958797D01*
X181583500Y-19141203D01*
X181547915Y-19320104D01*
X181478111Y-19488626D01*
X181376772Y-19640291D01*
X181247791Y-19769272D01*
X181096126Y-19870611D01*
X180927604Y-19940415D01*
X180748703Y-19976000D01*
X180566297Y-19976000D01*
X180387396Y-19940415D01*
X180218874Y-19870611D01*
X180067209Y-19769272D01*
X179938228Y-19640291D01*
X179836889Y-19488626D01*
X179767085Y-19320104D01*
X179731500Y-19141203D01*
X179731500Y-18958797D01*
X179767085Y-18779896D01*
X179836889Y-18611374D01*
X179938228Y-18459709D01*
X180067209Y-18330728D01*
X180218874Y-18229389D01*
X180387396Y-18159585D01*
X180566297Y-18124000D01*
X180748703Y-18124000D01*
X180927604Y-18159585D01*
G37*
G36*
X191087604Y-18159585D02*
G01*
X191256126Y-18229389D01*
X191407791Y-18330728D01*
X191536772Y-18459709D01*
X191638111Y-18611374D01*
X191707915Y-18779896D01*
X191743500Y-18958797D01*
X191743500Y-19141203D01*
X191707915Y-19320104D01*
X191638111Y-19488626D01*
X191536772Y-19640291D01*
X191407791Y-19769272D01*
X191256126Y-19870611D01*
X191087604Y-19940415D01*
X190908703Y-19976000D01*
X190726297Y-19976000D01*
X190547396Y-19940415D01*
X190378874Y-19870611D01*
X190227209Y-19769272D01*
X190098228Y-19640291D01*
X189996889Y-19488626D01*
X189927085Y-19320104D01*
X189891500Y-19141203D01*
X189891500Y-18958797D01*
X189927085Y-18779896D01*
X189996889Y-18611374D01*
X190098228Y-18459709D01*
X190227209Y-18330728D01*
X190378874Y-18229389D01*
X190547396Y-18159585D01*
X190726297Y-18124000D01*
X190908703Y-18124000D01*
X191087604Y-18159585D01*
G37*
G36*
X199977604Y-18159585D02*
G01*
X200146126Y-18229389D01*
X200297791Y-18330728D01*
X200426772Y-18459709D01*
X200528111Y-18611374D01*
X200597915Y-18779896D01*
X200633500Y-18958797D01*
X200633500Y-19141203D01*
X200597915Y-19320104D01*
X200528111Y-19488626D01*
X200426772Y-19640291D01*
X200297791Y-19769272D01*
X200146126Y-19870611D01*
X199977604Y-19940415D01*
X199798703Y-19976000D01*
X199616297Y-19976000D01*
X199437396Y-19940415D01*
X199268874Y-19870611D01*
X199117209Y-19769272D01*
X198988228Y-19640291D01*
X198886889Y-19488626D01*
X198817085Y-19320104D01*
X198781500Y-19141203D01*
X198781500Y-18958797D01*
X198817085Y-18779896D01*
X198886889Y-18611374D01*
X198988228Y-18459709D01*
X199117209Y-18330728D01*
X199268874Y-18229389D01*
X199437396Y-18159585D01*
X199616297Y-18124000D01*
X199798703Y-18124000D01*
X199977604Y-18159585D01*
G37*
G36*
X210137604Y-18159585D02*
G01*
X210306126Y-18229389D01*
X210457791Y-18330728D01*
X210586772Y-18459709D01*
X210688111Y-18611374D01*
X210757915Y-18779896D01*
X210793500Y-18958797D01*
X210793500Y-19141203D01*
X210757915Y-19320104D01*
X210688111Y-19488626D01*
X210586772Y-19640291D01*
X210457791Y-19769272D01*
X210306126Y-19870611D01*
X210137604Y-19940415D01*
X209958703Y-19976000D01*
X209776297Y-19976000D01*
X209597396Y-19940415D01*
X209428874Y-19870611D01*
X209277209Y-19769272D01*
X209148228Y-19640291D01*
X209046889Y-19488626D01*
X208977085Y-19320104D01*
X208941500Y-19141203D01*
X208941500Y-18958797D01*
X208977085Y-18779896D01*
X209046889Y-18611374D01*
X209148228Y-18459709D01*
X209277209Y-18330728D01*
X209428874Y-18229389D01*
X209597396Y-18159585D01*
X209776297Y-18124000D01*
X209958703Y-18124000D01*
X210137604Y-18159585D01*
G37*
G36*
X219027604Y-18159585D02*
G01*
X219196126Y-18229389D01*
X219347791Y-18330728D01*
X219476772Y-18459709D01*
X219578111Y-18611374D01*
X219647915Y-18779896D01*
X219683500Y-18958797D01*
X219683500Y-19141203D01*
X219647915Y-19320104D01*
X219578111Y-19488626D01*
X219476772Y-19640291D01*
X219347791Y-19769272D01*
X219196126Y-19870611D01*
X219027604Y-19940415D01*
X218848703Y-19976000D01*
X218666297Y-19976000D01*
X218487396Y-19940415D01*
X218318874Y-19870611D01*
X218167209Y-19769272D01*
X218038228Y-19640291D01*
X217936889Y-19488626D01*
X217867085Y-19320104D01*
X217831500Y-19141203D01*
X217831500Y-18958797D01*
X217867085Y-18779896D01*
X217936889Y-18611374D01*
X218038228Y-18459709D01*
X218167209Y-18330728D01*
X218318874Y-18229389D01*
X218487396Y-18159585D01*
X218666297Y-18124000D01*
X218848703Y-18124000D01*
X219027604Y-18159585D01*
G37*
G36*
X257127604Y-18159585D02*
G01*
X257296126Y-18229389D01*
X257447791Y-18330728D01*
X257576772Y-18459709D01*
X257678111Y-18611374D01*
X257747915Y-18779896D01*
X257783500Y-18958797D01*
X257783500Y-19141203D01*
X257747915Y-19320104D01*
X257678111Y-19488626D01*
X257576772Y-19640291D01*
X257447791Y-19769272D01*
X257296126Y-19870611D01*
X257127604Y-19940415D01*
X256948703Y-19976000D01*
X256766297Y-19976000D01*
X256587396Y-19940415D01*
X256418874Y-19870611D01*
X256267209Y-19769272D01*
X256138228Y-19640291D01*
X256036889Y-19488626D01*
X255967085Y-19320104D01*
X255931500Y-19141203D01*
X255931500Y-18958797D01*
X255967085Y-18779896D01*
X256036889Y-18611374D01*
X256138228Y-18459709D01*
X256267209Y-18330728D01*
X256418874Y-18229389D01*
X256587396Y-18159585D01*
X256766297Y-18124000D01*
X256948703Y-18124000D01*
X257127604Y-18159585D01*
G37*
G36*
X248237604Y-18159585D02*
G01*
X248406126Y-18229389D01*
X248557791Y-18330728D01*
X248686772Y-18459709D01*
X248788111Y-18611374D01*
X248857915Y-18779896D01*
X248893500Y-18958797D01*
X248893500Y-19141203D01*
X248857915Y-19320104D01*
X248788111Y-19488626D01*
X248686772Y-19640291D01*
X248557791Y-19769272D01*
X248406126Y-19870611D01*
X248237604Y-19940415D01*
X248058703Y-19976000D01*
X247876297Y-19976000D01*
X247697396Y-19940415D01*
X247528874Y-19870611D01*
X247377209Y-19769272D01*
X247248228Y-19640291D01*
X247146889Y-19488626D01*
X247077085Y-19320104D01*
X247041500Y-19141203D01*
X247041500Y-18958797D01*
X247077085Y-18779896D01*
X247146889Y-18611374D01*
X247248228Y-18459709D01*
X247377209Y-18330728D01*
X247528874Y-18229389D01*
X247697396Y-18159585D01*
X247876297Y-18124000D01*
X248058703Y-18124000D01*
X248237604Y-18159585D01*
G37*
G36*
X267287604Y-18159585D02*
G01*
X267456126Y-18229389D01*
X267607791Y-18330728D01*
X267736772Y-18459709D01*
X267838111Y-18611374D01*
X267907915Y-18779896D01*
X267943500Y-18958797D01*
X267943500Y-19141203D01*
X267907915Y-19320104D01*
X267838111Y-19488626D01*
X267736772Y-19640291D01*
X267607791Y-19769272D01*
X267456126Y-19870611D01*
X267287604Y-19940415D01*
X267108703Y-19976000D01*
X266926297Y-19976000D01*
X266747396Y-19940415D01*
X266578874Y-19870611D01*
X266427209Y-19769272D01*
X266298228Y-19640291D01*
X266196889Y-19488626D01*
X266127085Y-19320104D01*
X266091500Y-19141203D01*
X266091500Y-18958797D01*
X266127085Y-18779896D01*
X266196889Y-18611374D01*
X266298228Y-18459709D01*
X266427209Y-18330728D01*
X266578874Y-18229389D01*
X266747396Y-18159585D01*
X266926297Y-18124000D01*
X267108703Y-18124000D01*
X267287604Y-18159585D01*
G37*
G36*
X232174425Y-18384599D02*
G01*
X232298621Y-18409302D01*
X232435022Y-18465801D01*
X232557779Y-18547825D01*
X232662175Y-18652221D01*
X232744199Y-18774978D01*
X232800698Y-18911379D01*
X232829500Y-19056181D01*
X232829500Y-19203819D01*
X232800698Y-19348621D01*
X232744199Y-19485022D01*
X232662175Y-19607779D01*
X232557779Y-19712175D01*
X232435022Y-19794199D01*
X232298621Y-19850698D01*
X232174425Y-19875401D01*
X232153820Y-19879500D01*
X232006180Y-19879500D01*
X231985575Y-19875401D01*
X231861379Y-19850698D01*
X231724978Y-19794199D01*
X231602221Y-19712175D01*
X231497825Y-19607779D01*
X231415801Y-19485022D01*
X231359302Y-19348621D01*
X231330500Y-19203819D01*
X231330500Y-19056181D01*
X231359302Y-18911379D01*
X231415801Y-18774978D01*
X231497825Y-18652221D01*
X231602221Y-18547825D01*
X231724978Y-18465801D01*
X231861379Y-18409302D01*
X231985575Y-18384599D01*
X232006180Y-18380500D01*
X232153820Y-18380500D01*
X232174425Y-18384599D01*
G37*
G36*
X234664425Y-18364599D02*
G01*
X234788621Y-18389302D01*
X234925022Y-18445801D01*
X235047779Y-18527825D01*
X235152175Y-18632221D01*
X235234199Y-18754978D01*
X235290698Y-18891379D01*
X235319500Y-19036181D01*
X235319500Y-19183819D01*
X235290698Y-19328621D01*
X235234199Y-19465022D01*
X235152175Y-19587779D01*
X235047779Y-19692175D01*
X234925022Y-19774199D01*
X234788621Y-19830698D01*
X234664425Y-19855401D01*
X234643820Y-19859500D01*
X234496180Y-19859500D01*
X234475575Y-19855401D01*
X234351379Y-19830698D01*
X234214978Y-19774199D01*
X234092221Y-19692175D01*
X233987825Y-19587779D01*
X233905801Y-19465022D01*
X233849302Y-19328621D01*
X233820500Y-19183819D01*
X233820500Y-19036181D01*
X233849302Y-18891379D01*
X233905801Y-18754978D01*
X233987825Y-18632221D01*
X234092221Y-18527825D01*
X234214978Y-18445801D01*
X234351379Y-18389302D01*
X234475575Y-18364599D01*
X234496180Y-18360500D01*
X234643820Y-18360500D01*
X234664425Y-18364599D01*
G37*
G36*
X212974425Y-16854599D02*
G01*
X213098621Y-16879302D01*
X213235022Y-16935801D01*
X213357779Y-17017825D01*
X213462175Y-17122221D01*
X213544199Y-17244978D01*
X213600698Y-17381379D01*
X213629500Y-17526181D01*
X213629500Y-17673819D01*
X213600698Y-17818621D01*
X213544199Y-17955022D01*
X213462175Y-18077779D01*
X213357779Y-18182175D01*
X213235022Y-18264199D01*
X213098621Y-18320698D01*
X212974425Y-18345401D01*
X212953820Y-18349500D01*
X212806180Y-18349500D01*
X212785575Y-18345401D01*
X212661379Y-18320698D01*
X212524978Y-18264199D01*
X212402221Y-18182175D01*
X212297825Y-18077779D01*
X212215801Y-17955022D01*
X212159302Y-17818621D01*
X212130500Y-17673819D01*
X212130500Y-17526181D01*
X212159302Y-17381379D01*
X212215801Y-17244978D01*
X212297825Y-17122221D01*
X212402221Y-17017825D01*
X212524978Y-16935801D01*
X212661379Y-16879302D01*
X212785575Y-16854599D01*
X212806180Y-16850500D01*
X212953820Y-16850500D01*
X212974425Y-16854599D01*
G37*
G36*
X194104425Y-16664599D02*
G01*
X194228621Y-16689302D01*
X194365022Y-16745801D01*
X194487779Y-16827825D01*
X194592175Y-16932221D01*
X194674199Y-17054978D01*
X194730698Y-17191379D01*
X194759500Y-17336181D01*
X194759500Y-17483819D01*
X194730698Y-17628621D01*
X194674199Y-17765022D01*
X194592175Y-17887779D01*
X194487779Y-17992175D01*
X194365022Y-18074199D01*
X194228621Y-18130698D01*
X194104425Y-18155401D01*
X194083820Y-18159500D01*
X193936180Y-18159500D01*
X193915575Y-18155401D01*
X193791379Y-18130698D01*
X193654978Y-18074199D01*
X193532221Y-17992175D01*
X193427825Y-17887779D01*
X193345801Y-17765022D01*
X193289302Y-17628621D01*
X193260500Y-17483819D01*
X193260500Y-17336181D01*
X193289302Y-17191379D01*
X193345801Y-17054978D01*
X193427825Y-16932221D01*
X193532221Y-16827825D01*
X193654978Y-16745801D01*
X193791379Y-16689302D01*
X193915575Y-16664599D01*
X193936180Y-16660500D01*
X194083820Y-16660500D01*
X194104425Y-16664599D01*
G37*
G36*
X237077500Y-17760000D02*
G01*
X234527500Y-17760000D01*
X234527500Y-15260000D01*
X237077500Y-15260000D01*
X237077500Y-17760000D01*
G37*
G36*
X179927500Y-17760000D02*
G01*
X177377500Y-17760000D01*
X177377500Y-15260000D01*
X179927500Y-15260000D01*
X179927500Y-17760000D01*
G37*
G36*
X218027500Y-17760000D02*
G01*
X215477500Y-17760000D01*
X215477500Y-15260000D01*
X218027500Y-15260000D01*
X218027500Y-17760000D01*
G37*
G36*
X198977500Y-17760000D02*
G01*
X196427500Y-17760000D01*
X196427500Y-15260000D01*
X198977500Y-15260000D01*
X198977500Y-17760000D01*
G37*
G36*
X256127500Y-17760000D02*
G01*
X253577500Y-17760000D01*
X253577500Y-15260000D01*
X256127500Y-15260000D01*
X256127500Y-17760000D01*
G37*
G36*
X269027500Y-15220000D02*
G01*
X266477500Y-15220000D01*
X266477500Y-12720000D01*
X269027500Y-12720000D01*
X269027500Y-15220000D01*
G37*
G36*
X249977500Y-15220000D02*
G01*
X247427500Y-15220000D01*
X247427500Y-12720000D01*
X249977500Y-12720000D01*
X249977500Y-15220000D01*
G37*
G36*
X230927500Y-15220000D02*
G01*
X228377500Y-15220000D01*
X228377500Y-12720000D01*
X230927500Y-12720000D01*
X230927500Y-15220000D01*
G37*
G36*
X211877500Y-15220000D02*
G01*
X209327500Y-15220000D01*
X209327500Y-12720000D01*
X211877500Y-12720000D01*
X211877500Y-15220000D01*
G37*
G36*
X192827500Y-15220000D02*
G01*
X190277500Y-15220000D01*
X190277500Y-12720000D01*
X192827500Y-12720000D01*
X192827500Y-15220000D01*
G37*
G36*
X228089500Y-9109500D02*
G01*
X226590500Y-9109500D01*
X226590500Y-7610500D01*
X228089500Y-7610500D01*
X228089500Y-9109500D01*
G37*
G36*
X189929500Y-8979500D02*
G01*
X188430500Y-8979500D01*
X188430500Y-7480500D01*
X189929500Y-7480500D01*
X189929500Y-8979500D01*
G37*
G36*
X208989500Y-8849500D02*
G01*
X207490500Y-8849500D01*
X207490500Y-7350500D01*
X208989500Y-7350500D01*
X208989500Y-8849500D01*
G37*
G36*
X240815142Y-6419642D02*
G01*
X240963101Y-6480929D01*
X241096255Y-6569899D01*
X241209501Y-6683145D01*
X241298471Y-6816299D01*
X241359758Y-6964258D01*
X241391000Y-7121325D01*
X241391000Y-7281475D01*
X241359758Y-7438542D01*
X241298471Y-7586501D01*
X241209501Y-7719655D01*
X241096255Y-7832901D01*
X240963101Y-7921871D01*
X240815142Y-7983158D01*
X240658075Y-8014400D01*
X240497925Y-8014400D01*
X240340858Y-7983158D01*
X240192899Y-7921871D01*
X240059745Y-7832901D01*
X239946499Y-7719655D01*
X239857529Y-7586501D01*
X239796242Y-7438542D01*
X239765000Y-7281475D01*
X239765000Y-7121325D01*
X239796242Y-6964258D01*
X239857529Y-6816299D01*
X239946499Y-6683145D01*
X240059745Y-6569899D01*
X240192899Y-6480929D01*
X240340858Y-6419642D01*
X240497925Y-6388400D01*
X240658075Y-6388400D01*
X240815142Y-6419642D01*
G37*
G36*
X248435142Y-6419642D02*
G01*
X248583101Y-6480929D01*
X248716255Y-6569899D01*
X248829501Y-6683145D01*
X248918471Y-6816299D01*
X248979758Y-6964258D01*
X249011000Y-7121325D01*
X249011000Y-7281475D01*
X248979758Y-7438542D01*
X248918471Y-7586501D01*
X248829501Y-7719655D01*
X248716255Y-7832901D01*
X248583101Y-7921871D01*
X248435142Y-7983158D01*
X248278075Y-8014400D01*
X248117925Y-8014400D01*
X247960858Y-7983158D01*
X247812899Y-7921871D01*
X247679745Y-7832901D01*
X247566499Y-7719655D01*
X247477529Y-7586501D01*
X247416242Y-7438542D01*
X247385000Y-7281475D01*
X247385000Y-7121325D01*
X247416242Y-6964258D01*
X247477529Y-6816299D01*
X247566499Y-6683145D01*
X247679745Y-6569899D01*
X247812899Y-6480929D01*
X247960858Y-6419642D01*
X248117925Y-6388400D01*
X248278075Y-6388400D01*
X248435142Y-6419642D01*
G37*
G36*
X250975142Y-6419642D02*
G01*
X251123101Y-6480929D01*
X251256255Y-6569899D01*
X251369501Y-6683145D01*
X251458471Y-6816299D01*
X251519758Y-6964258D01*
X251551000Y-7121325D01*
X251551000Y-7281475D01*
X251519758Y-7438542D01*
X251458471Y-7586501D01*
X251369501Y-7719655D01*
X251256255Y-7832901D01*
X251123101Y-7921871D01*
X250975142Y-7983158D01*
X250818075Y-8014400D01*
X250657925Y-8014400D01*
X250500858Y-7983158D01*
X250352899Y-7921871D01*
X250219745Y-7832901D01*
X250106499Y-7719655D01*
X250017529Y-7586501D01*
X249956242Y-7438542D01*
X249925000Y-7281475D01*
X249925000Y-7121325D01*
X249956242Y-6964258D01*
X250017529Y-6816299D01*
X250106499Y-6683145D01*
X250219745Y-6569899D01*
X250352899Y-6480929D01*
X250500858Y-6419642D01*
X250657925Y-6388400D01*
X250818075Y-6388400D01*
X250975142Y-6419642D01*
G37*
G36*
X253515142Y-6419642D02*
G01*
X253663101Y-6480929D01*
X253796255Y-6569899D01*
X253909501Y-6683145D01*
X253998471Y-6816299D01*
X254059758Y-6964258D01*
X254091000Y-7121325D01*
X254091000Y-7281475D01*
X254059758Y-7438542D01*
X253998471Y-7586501D01*
X253909501Y-7719655D01*
X253796255Y-7832901D01*
X253663101Y-7921871D01*
X253515142Y-7983158D01*
X253358075Y-8014400D01*
X253197925Y-8014400D01*
X253040858Y-7983158D01*
X252892899Y-7921871D01*
X252759745Y-7832901D01*
X252646499Y-7719655D01*
X252557529Y-7586501D01*
X252496242Y-7438542D01*
X252465000Y-7281475D01*
X252465000Y-7121325D01*
X252496242Y-6964258D01*
X252557529Y-6816299D01*
X252646499Y-6683145D01*
X252759745Y-6569899D01*
X252892899Y-6480929D01*
X253040858Y-6419642D01*
X253197925Y-6388400D01*
X253358075Y-6388400D01*
X253515142Y-6419642D01*
G37*
G36*
X256055142Y-6419642D02*
G01*
X256203101Y-6480929D01*
X256336255Y-6569899D01*
X256449501Y-6683145D01*
X256538471Y-6816299D01*
X256599758Y-6964258D01*
X256631000Y-7121325D01*
X256631000Y-7281475D01*
X256599758Y-7438542D01*
X256538471Y-7586501D01*
X256449501Y-7719655D01*
X256336255Y-7832901D01*
X256203101Y-7921871D01*
X256055142Y-7983158D01*
X255898075Y-8014400D01*
X255737925Y-8014400D01*
X255580858Y-7983158D01*
X255432899Y-7921871D01*
X255299745Y-7832901D01*
X255186499Y-7719655D01*
X255097529Y-7586501D01*
X255036242Y-7438542D01*
X255005000Y-7281475D01*
X255005000Y-7121325D01*
X255036242Y-6964258D01*
X255097529Y-6816299D01*
X255186499Y-6683145D01*
X255299745Y-6569899D01*
X255432899Y-6480929D01*
X255580858Y-6419642D01*
X255737925Y-6388400D01*
X255898075Y-6388400D01*
X256055142Y-6419642D01*
G37*
G36*
X258595142Y-6419642D02*
G01*
X258743101Y-6480929D01*
X258876255Y-6569899D01*
X258989501Y-6683145D01*
X259078471Y-6816299D01*
X259139758Y-6964258D01*
X259171000Y-7121325D01*
X259171000Y-7281475D01*
X259139758Y-7438542D01*
X259078471Y-7586501D01*
X258989501Y-7719655D01*
X258876255Y-7832901D01*
X258743101Y-7921871D01*
X258595142Y-7983158D01*
X258438075Y-8014400D01*
X258277925Y-8014400D01*
X258120858Y-7983158D01*
X257972899Y-7921871D01*
X257839745Y-7832901D01*
X257726499Y-7719655D01*
X257637529Y-7586501D01*
X257576242Y-7438542D01*
X257545000Y-7281475D01*
X257545000Y-7121325D01*
X257576242Y-6964258D01*
X257637529Y-6816299D01*
X257726499Y-6683145D01*
X257839745Y-6569899D01*
X257972899Y-6480929D01*
X258120858Y-6419642D01*
X258277925Y-6388400D01*
X258438075Y-6388400D01*
X258595142Y-6419642D01*
G37*
G36*
X261135142Y-6419642D02*
G01*
X261283101Y-6480929D01*
X261416255Y-6569899D01*
X261529501Y-6683145D01*
X261618471Y-6816299D01*
X261679758Y-6964258D01*
X261711000Y-7121325D01*
X261711000Y-7281475D01*
X261679758Y-7438542D01*
X261618471Y-7586501D01*
X261529501Y-7719655D01*
X261416255Y-7832901D01*
X261283101Y-7921871D01*
X261135142Y-7983158D01*
X260978075Y-8014400D01*
X260817925Y-8014400D01*
X260660858Y-7983158D01*
X260512899Y-7921871D01*
X260379745Y-7832901D01*
X260266499Y-7719655D01*
X260177529Y-7586501D01*
X260116242Y-7438542D01*
X260085000Y-7281475D01*
X260085000Y-7121325D01*
X260116242Y-6964258D01*
X260177529Y-6816299D01*
X260266499Y-6683145D01*
X260379745Y-6569899D01*
X260512899Y-6480929D01*
X260660858Y-6419642D01*
X260817925Y-6388400D01*
X260978075Y-6388400D01*
X261135142Y-6419642D01*
G37*
G36*
X263675142Y-6419642D02*
G01*
X263823101Y-6480929D01*
X263956255Y-6569899D01*
X264069501Y-6683145D01*
X264158471Y-6816299D01*
X264219758Y-6964258D01*
X264251000Y-7121325D01*
X264251000Y-7281475D01*
X264219758Y-7438542D01*
X264158471Y-7586501D01*
X264069501Y-7719655D01*
X263956255Y-7832901D01*
X263823101Y-7921871D01*
X263675142Y-7983158D01*
X263518075Y-8014400D01*
X263357925Y-8014400D01*
X263200858Y-7983158D01*
X263052899Y-7921871D01*
X262919745Y-7832901D01*
X262806499Y-7719655D01*
X262717529Y-7586501D01*
X262656242Y-7438542D01*
X262625000Y-7281475D01*
X262625000Y-7121325D01*
X262656242Y-6964258D01*
X262717529Y-6816299D01*
X262806499Y-6683145D01*
X262919745Y-6569899D01*
X263052899Y-6480929D01*
X263200858Y-6419642D01*
X263357925Y-6388400D01*
X263518075Y-6388400D01*
X263675142Y-6419642D01*
G37*
G36*
X243355142Y-6419642D02*
G01*
X243503101Y-6480929D01*
X243636255Y-6569899D01*
X243749501Y-6683145D01*
X243838471Y-6816299D01*
X243899758Y-6964258D01*
X243931000Y-7121325D01*
X243931000Y-7281475D01*
X243899758Y-7438542D01*
X243838471Y-7586501D01*
X243749501Y-7719655D01*
X243636255Y-7832901D01*
X243503101Y-7921871D01*
X243355142Y-7983158D01*
X243198075Y-8014400D01*
X243037925Y-8014400D01*
X242880858Y-7983158D01*
X242732899Y-7921871D01*
X242599745Y-7832901D01*
X242486499Y-7719655D01*
X242397529Y-7586501D01*
X242336242Y-7438542D01*
X242305000Y-7281475D01*
X242305000Y-7121325D01*
X242336242Y-6964258D01*
X242397529Y-6816299D01*
X242486499Y-6683145D01*
X242599745Y-6569899D01*
X242732899Y-6480929D01*
X242880858Y-6419642D01*
X243037925Y-6388400D01*
X243198075Y-6388400D01*
X243355142Y-6419642D01*
G37*
G36*
X235735142Y-6419642D02*
G01*
X235883101Y-6480929D01*
X236016255Y-6569899D01*
X236129501Y-6683145D01*
X236218471Y-6816299D01*
X236279758Y-6964258D01*
X236311000Y-7121325D01*
X236311000Y-7281475D01*
X236279758Y-7438542D01*
X236218471Y-7586501D01*
X236129501Y-7719655D01*
X236016255Y-7832901D01*
X235883101Y-7921871D01*
X235735142Y-7983158D01*
X235578075Y-8014400D01*
X235417925Y-8014400D01*
X235260858Y-7983158D01*
X235112899Y-7921871D01*
X234979745Y-7832901D01*
X234866499Y-7719655D01*
X234777529Y-7586501D01*
X234716242Y-7438542D01*
X234685000Y-7281475D01*
X234685000Y-7121325D01*
X234716242Y-6964258D01*
X234777529Y-6816299D01*
X234866499Y-6683145D01*
X234979745Y-6569899D01*
X235112899Y-6480929D01*
X235260858Y-6419642D01*
X235417925Y-6388400D01*
X235578075Y-6388400D01*
X235735142Y-6419642D01*
G37*
G36*
X238275142Y-6419642D02*
G01*
X238423101Y-6480929D01*
X238556255Y-6569899D01*
X238669501Y-6683145D01*
X238758471Y-6816299D01*
X238819758Y-6964258D01*
X238851000Y-7121325D01*
X238851000Y-7281475D01*
X238819758Y-7438542D01*
X238758471Y-7586501D01*
X238669501Y-7719655D01*
X238556255Y-7832901D01*
X238423101Y-7921871D01*
X238275142Y-7983158D01*
X238118075Y-8014400D01*
X237957925Y-8014400D01*
X237800858Y-7983158D01*
X237652899Y-7921871D01*
X237519745Y-7832901D01*
X237406499Y-7719655D01*
X237317529Y-7586501D01*
X237256242Y-7438542D01*
X237225000Y-7281475D01*
X237225000Y-7121325D01*
X237256242Y-6964258D01*
X237317529Y-6816299D01*
X237406499Y-6683145D01*
X237519745Y-6569899D01*
X237652899Y-6480929D01*
X237800858Y-6419642D01*
X237957925Y-6388400D01*
X238118075Y-6388400D01*
X238275142Y-6419642D01*
G37*
G36*
X245895142Y-6419642D02*
G01*
X246043101Y-6480929D01*
X246176255Y-6569899D01*
X246289501Y-6683145D01*
X246378471Y-6816299D01*
X246439758Y-6964258D01*
X246471000Y-7121325D01*
X246471000Y-7281475D01*
X246439758Y-7438542D01*
X246378471Y-7586501D01*
X246289501Y-7719655D01*
X246176255Y-7832901D01*
X246043101Y-7921871D01*
X245895142Y-7983158D01*
X245738075Y-8014400D01*
X245577925Y-8014400D01*
X245420858Y-7983158D01*
X245272899Y-7921871D01*
X245139745Y-7832901D01*
X245026499Y-7719655D01*
X244937529Y-7586501D01*
X244876242Y-7438542D01*
X244845000Y-7281475D01*
X244845000Y-7121325D01*
X244876242Y-6964258D01*
X244937529Y-6816299D01*
X245026499Y-6683145D01*
X245139745Y-6569899D01*
X245272899Y-6480929D01*
X245420858Y-6419642D01*
X245577925Y-6388400D01*
X245738075Y-6388400D01*
X245895142Y-6419642D01*
G37*
G36*
X268579500Y-7039500D02*
G01*
X267080500Y-7039500D01*
X267080500Y-5540500D01*
X268579500Y-5540500D01*
X268579500Y-7039500D01*
G37*
G36*
X227866000Y-7026000D02*
G01*
X226814000Y-7026000D01*
X226814000Y-5624000D01*
X227866000Y-5624000D01*
X227866000Y-7026000D01*
G37*
G36*
X189706000Y-6896000D02*
G01*
X188654000Y-6896000D01*
X188654000Y-5494000D01*
X189706000Y-5494000D01*
X189706000Y-6896000D01*
G37*
G36*
X208766000Y-6766000D02*
G01*
X207714000Y-6766000D01*
X207714000Y-5364000D01*
X208766000Y-5364000D01*
X208766000Y-6766000D01*
G37*
G36*
X247729500Y-5349500D02*
G01*
X246230500Y-5349500D01*
X246230500Y-3850500D01*
X247729500Y-3850500D01*
X247729500Y-5349500D01*
G37*
G36*
X268356000Y-4956000D02*
G01*
X267304000Y-4956000D01*
X267304000Y-3554000D01*
X268356000Y-3554000D01*
X268356000Y-4956000D01*
G37*
G36*
X227866000Y-3476000D02*
G01*
X226814000Y-3476000D01*
X226814000Y-2074000D01*
X227866000Y-2074000D01*
X227866000Y-3476000D01*
G37*
G36*
X189706000Y-3346000D02*
G01*
X188654000Y-3346000D01*
X188654000Y-1944000D01*
X189706000Y-1944000D01*
X189706000Y-3346000D01*
G37*
G36*
X247506000Y-3266000D02*
G01*
X246454000Y-3266000D01*
X246454000Y-1864000D01*
X247506000Y-1864000D01*
X247506000Y-3266000D01*
G37*
G36*
X208766000Y-3216000D02*
G01*
X207714000Y-3216000D01*
X207714000Y-1814000D01*
X208766000Y-1814000D01*
X208766000Y-3216000D01*
G37*
G36*
X219671474Y1966316D02*
G01*
X219889474Y1876017D01*
X220043623Y1812167D01*
X220378548Y1588377D01*
X220663377Y1303548D01*
X220887167Y968623D01*
X220919562Y890414D01*
X221041316Y596474D01*
X221119900Y201406D01*
X221119900Y-201406D01*
X221041316Y-596474D01*
X220990451Y-719272D01*
X220887167Y-968623D01*
X220663377Y-1303548D01*
X220378548Y-1588377D01*
X220043623Y-1812167D01*
X219918486Y-1864000D01*
X219671474Y-1966316D01*
X219276406Y-2044900D01*
X218873594Y-2044900D01*
X218478526Y-1966316D01*
X218231514Y-1864000D01*
X218106377Y-1812167D01*
X217771452Y-1588377D01*
X217486623Y-1303548D01*
X217262833Y-968623D01*
X217159549Y-719272D01*
X217108684Y-596474D01*
X217030100Y-201406D01*
X217030100Y201406D01*
X217108684Y596474D01*
X217230438Y890414D01*
X217262833Y968623D01*
X217486623Y1303548D01*
X217771452Y1588377D01*
X218106377Y1812167D01*
X218260526Y1876017D01*
X218478526Y1966316D01*
X218873594Y2044900D01*
X219276406Y2044900D01*
X219671474Y1966316D01*
G37*
G36*
X200621474Y1966316D02*
G01*
X200839474Y1876017D01*
X200993623Y1812167D01*
X201328548Y1588377D01*
X201613377Y1303548D01*
X201837167Y968623D01*
X201869562Y890414D01*
X201991316Y596474D01*
X202069900Y201406D01*
X202069900Y-201406D01*
X201991316Y-596474D01*
X201940451Y-719272D01*
X201837167Y-968623D01*
X201613377Y-1303548D01*
X201328548Y-1588377D01*
X200993623Y-1812167D01*
X200868486Y-1864000D01*
X200621474Y-1966316D01*
X200226406Y-2044900D01*
X199823594Y-2044900D01*
X199428526Y-1966316D01*
X199181514Y-1864000D01*
X199056377Y-1812167D01*
X198721452Y-1588377D01*
X198436623Y-1303548D01*
X198212833Y-968623D01*
X198109549Y-719272D01*
X198058684Y-596474D01*
X197980100Y-201406D01*
X197980100Y201406D01*
X198058684Y596474D01*
X198180438Y890414D01*
X198212833Y968623D01*
X198436623Y1303548D01*
X198721452Y1588377D01*
X199056377Y1812167D01*
X199210526Y1876017D01*
X199428526Y1966316D01*
X199823594Y2044900D01*
X200226406Y2044900D01*
X200621474Y1966316D01*
G37*
G36*
X238721474Y1966316D02*
G01*
X238939474Y1876017D01*
X239093623Y1812167D01*
X239428548Y1588377D01*
X239713377Y1303548D01*
X239937167Y968623D01*
X239969562Y890414D01*
X240091316Y596474D01*
X240169900Y201406D01*
X240169900Y-201406D01*
X240091316Y-596474D01*
X240040451Y-719272D01*
X239937167Y-968623D01*
X239713377Y-1303548D01*
X239428548Y-1588377D01*
X239093623Y-1812167D01*
X238968486Y-1864000D01*
X238721474Y-1966316D01*
X238326406Y-2044900D01*
X237923594Y-2044900D01*
X237528526Y-1966316D01*
X237281514Y-1864000D01*
X237156377Y-1812167D01*
X236821452Y-1588377D01*
X236536623Y-1303548D01*
X236312833Y-968623D01*
X236209549Y-719272D01*
X236158684Y-596474D01*
X236080100Y-201406D01*
X236080100Y201406D01*
X236158684Y596474D01*
X236280438Y890414D01*
X236312833Y968623D01*
X236536623Y1303548D01*
X236821452Y1588377D01*
X237156377Y1812167D01*
X237310526Y1876017D01*
X237528526Y1966316D01*
X237923594Y2044900D01*
X238326406Y2044900D01*
X238721474Y1966316D01*
G37*
G36*
X181571474Y1966316D02*
G01*
X181789474Y1876017D01*
X181943623Y1812167D01*
X182278548Y1588377D01*
X182563377Y1303548D01*
X182787167Y968623D01*
X182819562Y890414D01*
X182941316Y596474D01*
X183019900Y201406D01*
X183019900Y-201406D01*
X182941316Y-596474D01*
X182890451Y-719272D01*
X182787167Y-968623D01*
X182563377Y-1303548D01*
X182278548Y-1588377D01*
X181943623Y-1812167D01*
X181818486Y-1864000D01*
X181571474Y-1966316D01*
X181176406Y-2044900D01*
X180773594Y-2044900D01*
X180378526Y-1966316D01*
X180131514Y-1864000D01*
X180006377Y-1812167D01*
X179671452Y-1588377D01*
X179386623Y-1303548D01*
X179162833Y-968623D01*
X179059549Y-719272D01*
X179008684Y-596474D01*
X178930100Y-201406D01*
X178930100Y201406D01*
X179008684Y596474D01*
X179130438Y890414D01*
X179162833Y968623D01*
X179386623Y1303548D01*
X179671452Y1588377D01*
X180006377Y1812167D01*
X180160526Y1876017D01*
X180378526Y1966316D01*
X180773594Y2044900D01*
X181176406Y2044900D01*
X181571474Y1966316D01*
G37*
G36*
X260152473Y1966316D02*
G01*
X260370473Y1876017D01*
X260524622Y1812167D01*
X260859547Y1588377D01*
X261144376Y1303548D01*
X261368166Y968623D01*
X261400561Y890414D01*
X261522315Y596474D01*
X261600899Y201406D01*
X261600899Y-201406D01*
X261522315Y-596474D01*
X261471450Y-719272D01*
X261368166Y-968623D01*
X261144376Y-1303548D01*
X260859547Y-1588377D01*
X260524622Y-1812167D01*
X260399485Y-1864000D01*
X260152473Y-1966316D01*
X259757405Y-2044900D01*
X259354593Y-2044900D01*
X258959525Y-1966316D01*
X258712513Y-1864000D01*
X258587376Y-1812167D01*
X258252451Y-1588377D01*
X257967622Y-1303548D01*
X257743832Y-968623D01*
X257640548Y-719272D01*
X257589683Y-596474D01*
X257511099Y-201406D01*
X257511099Y201406D01*
X257589683Y596474D01*
X257711437Y890414D01*
X257743832Y968623D01*
X257967622Y1303548D01*
X258252451Y1588377D01*
X258587376Y1812167D01*
X258741525Y1876017D01*
X258959525Y1966316D01*
X259354593Y2044900D01*
X259757405Y2044900D01*
X260152473Y1966316D01*
G37*
G36*
X227434425Y5401D02*
G01*
X227558621Y-19302D01*
X227695022Y-75801D01*
X227817779Y-157825D01*
X227922175Y-262221D01*
X228004199Y-384978D01*
X228060698Y-521379D01*
X228089500Y-666181D01*
X228089500Y-813819D01*
X228060698Y-958621D01*
X228004199Y-1095022D01*
X227922175Y-1217779D01*
X227817779Y-1322175D01*
X227695022Y-1404199D01*
X227558621Y-1460698D01*
X227434425Y-1485401D01*
X227413820Y-1489500D01*
X227266180Y-1489500D01*
X227245575Y-1485401D01*
X227121379Y-1460698D01*
X226984978Y-1404199D01*
X226862221Y-1322175D01*
X226757825Y-1217779D01*
X226675801Y-1095022D01*
X226619302Y-958621D01*
X226590500Y-813819D01*
X226590500Y-666181D01*
X226619302Y-521379D01*
X226675801Y-384978D01*
X226757825Y-262221D01*
X226862221Y-157825D01*
X226984978Y-75801D01*
X227121379Y-19302D01*
X227245575Y5401D01*
X227266180Y9500D01*
X227413820Y9500D01*
X227434425Y5401D01*
G37*
G36*
X268356000Y-1406000D02*
G01*
X267304000Y-1406000D01*
X267304000Y-4000D01*
X268356000Y-4000D01*
X268356000Y-1406000D01*
G37*
G36*
X189274425Y135401D02*
G01*
X189398621Y110698D01*
X189535022Y54199D01*
X189657779Y-27825D01*
X189762175Y-132221D01*
X189844199Y-254978D01*
X189900698Y-391379D01*
X189929500Y-536181D01*
X189929500Y-683819D01*
X189900698Y-828621D01*
X189844199Y-965022D01*
X189762175Y-1087779D01*
X189657779Y-1192175D01*
X189535022Y-1274199D01*
X189398621Y-1330698D01*
X189274425Y-1355401D01*
X189253820Y-1359500D01*
X189106180Y-1359500D01*
X189085575Y-1355401D01*
X188961379Y-1330698D01*
X188824978Y-1274199D01*
X188702221Y-1192175D01*
X188597825Y-1087779D01*
X188515801Y-965022D01*
X188459302Y-828621D01*
X188430500Y-683819D01*
X188430500Y-536181D01*
X188459302Y-391379D01*
X188515801Y-254978D01*
X188597825Y-132221D01*
X188702221Y-27825D01*
X188824978Y54199D01*
X188961379Y110698D01*
X189085575Y135401D01*
X189106180Y139500D01*
X189253820Y139500D01*
X189274425Y135401D01*
G37*
G36*
X208334425Y265401D02*
G01*
X208458621Y240698D01*
X208595022Y184199D01*
X208717779Y102175D01*
X208822175Y-2221D01*
X208904199Y-124978D01*
X208960698Y-261379D01*
X208989500Y-406181D01*
X208989500Y-553819D01*
X208960698Y-698621D01*
X208904199Y-835022D01*
X208822175Y-957779D01*
X208717779Y-1062175D01*
X208595022Y-1144199D01*
X208458621Y-1200698D01*
X208334425Y-1225401D01*
X208313820Y-1229500D01*
X208166180Y-1229500D01*
X208145575Y-1225401D01*
X208021379Y-1200698D01*
X207884978Y-1144199D01*
X207762221Y-1062175D01*
X207657825Y-957779D01*
X207575801Y-835022D01*
X207519302Y-698621D01*
X207490500Y-553819D01*
X207490500Y-406181D01*
X207519302Y-261379D01*
X207575801Y-124978D01*
X207657825Y-2221D01*
X207762221Y102175D01*
X207884978Y184199D01*
X208021379Y240698D01*
X208145575Y265401D01*
X208166180Y269500D01*
X208313820Y269500D01*
X208334425Y265401D01*
G37*
G36*
X176165104Y890415D02*
G01*
X176333626Y820611D01*
X176485291Y719272D01*
X176614272Y590291D01*
X176715611Y438626D01*
X176785415Y270104D01*
X176821000Y91203D01*
X176821000Y-91203D01*
X176785415Y-270104D01*
X176715611Y-438626D01*
X176614272Y-590291D01*
X176485291Y-719272D01*
X176333626Y-820611D01*
X176165104Y-890415D01*
X175986203Y-926000D01*
X175803797Y-926000D01*
X175624896Y-890415D01*
X175456374Y-820611D01*
X175304709Y-719272D01*
X175175728Y-590291D01*
X175074389Y-438626D01*
X175004585Y-270104D01*
X174969000Y-91203D01*
X174969000Y91203D01*
X175004585Y270104D01*
X175074389Y438626D01*
X175175728Y590291D01*
X175304709Y719272D01*
X175456374Y820611D01*
X175624896Y890415D01*
X175803797Y926000D01*
X175986203Y926000D01*
X176165104Y890415D01*
G37*
G36*
X186325104Y890415D02*
G01*
X186493626Y820611D01*
X186645291Y719272D01*
X186774272Y590291D01*
X186875611Y438626D01*
X186945415Y270104D01*
X186981000Y91203D01*
X186981000Y-91203D01*
X186945415Y-270104D01*
X186875611Y-438626D01*
X186774272Y-590291D01*
X186645291Y-719272D01*
X186493626Y-820611D01*
X186325104Y-890415D01*
X186146203Y-926000D01*
X185963797Y-926000D01*
X185784896Y-890415D01*
X185616374Y-820611D01*
X185464709Y-719272D01*
X185335728Y-590291D01*
X185234389Y-438626D01*
X185164585Y-270104D01*
X185129000Y-91203D01*
X185129000Y91203D01*
X185164585Y270104D01*
X185234389Y438626D01*
X185335728Y590291D01*
X185464709Y719272D01*
X185616374Y820611D01*
X185784896Y890415D01*
X185963797Y926000D01*
X186146203Y926000D01*
X186325104Y890415D01*
G37*
G36*
X195215104Y890415D02*
G01*
X195383626Y820611D01*
X195535291Y719272D01*
X195664272Y590291D01*
X195765611Y438626D01*
X195835415Y270104D01*
X195871000Y91203D01*
X195871000Y-91203D01*
X195835415Y-270104D01*
X195765611Y-438626D01*
X195664272Y-590291D01*
X195535291Y-719272D01*
X195383626Y-820611D01*
X195215104Y-890415D01*
X195036203Y-926000D01*
X194853797Y-926000D01*
X194674896Y-890415D01*
X194506374Y-820611D01*
X194354709Y-719272D01*
X194225728Y-590291D01*
X194124389Y-438626D01*
X194054585Y-270104D01*
X194019000Y-91203D01*
X194019000Y91203D01*
X194054585Y270104D01*
X194124389Y438626D01*
X194225728Y590291D01*
X194354709Y719272D01*
X194506374Y820611D01*
X194674896Y890415D01*
X194853797Y926000D01*
X195036203Y926000D01*
X195215104Y890415D01*
G37*
G36*
X205375104Y890415D02*
G01*
X205543626Y820611D01*
X205695291Y719272D01*
X205824272Y590291D01*
X205925611Y438626D01*
X205995415Y270104D01*
X206031000Y91203D01*
X206031000Y-91203D01*
X205995415Y-270104D01*
X205925611Y-438626D01*
X205824272Y-590291D01*
X205695291Y-719272D01*
X205543626Y-820611D01*
X205375104Y-890415D01*
X205196203Y-926000D01*
X205013797Y-926000D01*
X204834896Y-890415D01*
X204666374Y-820611D01*
X204514709Y-719272D01*
X204385728Y-590291D01*
X204284389Y-438626D01*
X204214585Y-270104D01*
X204179000Y-91203D01*
X204179000Y91203D01*
X204214585Y270104D01*
X204284389Y438626D01*
X204385728Y590291D01*
X204514709Y719272D01*
X204666374Y820611D01*
X204834896Y890415D01*
X205013797Y926000D01*
X205196203Y926000D01*
X205375104Y890415D01*
G37*
G36*
X264906103Y890415D02*
G01*
X265074625Y820611D01*
X265226290Y719272D01*
X265355271Y590291D01*
X265456610Y438626D01*
X265526414Y270104D01*
X265561999Y91203D01*
X265561999Y-91203D01*
X265526414Y-270104D01*
X265456610Y-438626D01*
X265355271Y-590291D01*
X265226290Y-719272D01*
X265074625Y-820611D01*
X264906103Y-890415D01*
X264727202Y-926000D01*
X264544796Y-926000D01*
X264365895Y-890415D01*
X264197373Y-820611D01*
X264045708Y-719272D01*
X263916727Y-590291D01*
X263815388Y-438626D01*
X263745584Y-270104D01*
X263709999Y-91203D01*
X263709999Y91203D01*
X263745584Y270104D01*
X263815388Y438626D01*
X263916727Y590291D01*
X264045708Y719272D01*
X264197373Y820611D01*
X264365895Y890415D01*
X264544796Y926000D01*
X264727202Y926000D01*
X264906103Y890415D01*
G37*
G36*
X214265104Y890415D02*
G01*
X214433626Y820611D01*
X214585291Y719272D01*
X214714272Y590291D01*
X214815611Y438626D01*
X214885415Y270104D01*
X214921000Y91203D01*
X214921000Y-91203D01*
X214885415Y-270104D01*
X214815611Y-438626D01*
X214714272Y-590291D01*
X214585291Y-719272D01*
X214433626Y-820611D01*
X214265104Y-890415D01*
X214086203Y-926000D01*
X213903797Y-926000D01*
X213724896Y-890415D01*
X213556374Y-820611D01*
X213404709Y-719272D01*
X213275728Y-590291D01*
X213174389Y-438626D01*
X213104585Y-270104D01*
X213069000Y-91203D01*
X213069000Y91203D01*
X213104585Y270104D01*
X213174389Y438626D01*
X213275728Y590291D01*
X213404709Y719272D01*
X213556374Y820611D01*
X213724896Y890415D01*
X213903797Y926000D01*
X214086203Y926000D01*
X214265104Y890415D01*
G37*
G36*
X224425104Y890415D02*
G01*
X224593626Y820611D01*
X224745291Y719272D01*
X224874272Y590291D01*
X224975611Y438626D01*
X225045415Y270104D01*
X225081000Y91203D01*
X225081000Y-91203D01*
X225045415Y-270104D01*
X224975611Y-438626D01*
X224874272Y-590291D01*
X224745291Y-719272D01*
X224593626Y-820611D01*
X224425104Y-890415D01*
X224246203Y-926000D01*
X224063797Y-926000D01*
X223884896Y-890415D01*
X223716374Y-820611D01*
X223564709Y-719272D01*
X223435728Y-590291D01*
X223334389Y-438626D01*
X223264585Y-270104D01*
X223229000Y-91203D01*
X223229000Y91203D01*
X223264585Y270104D01*
X223334389Y438626D01*
X223435728Y590291D01*
X223564709Y719272D01*
X223716374Y820611D01*
X223884896Y890415D01*
X224063797Y926000D01*
X224246203Y926000D01*
X224425104Y890415D01*
G37*
G36*
X233315104Y890415D02*
G01*
X233483626Y820611D01*
X233635291Y719272D01*
X233764272Y590291D01*
X233865611Y438626D01*
X233935415Y270104D01*
X233971000Y91203D01*
X233971000Y-91203D01*
X233935415Y-270104D01*
X233865611Y-438626D01*
X233764272Y-590291D01*
X233635291Y-719272D01*
X233483626Y-820611D01*
X233315104Y-890415D01*
X233136203Y-926000D01*
X232953797Y-926000D01*
X232774896Y-890415D01*
X232606374Y-820611D01*
X232454709Y-719272D01*
X232325728Y-590291D01*
X232224389Y-438626D01*
X232154585Y-270104D01*
X232119000Y-91203D01*
X232119000Y91203D01*
X232154585Y270104D01*
X232224389Y438626D01*
X232325728Y590291D01*
X232454709Y719272D01*
X232606374Y820611D01*
X232774896Y890415D01*
X232953797Y926000D01*
X233136203Y926000D01*
X233315104Y890415D01*
G37*
G36*
X243475104Y890415D02*
G01*
X243643626Y820611D01*
X243795291Y719272D01*
X243924272Y590291D01*
X244025611Y438626D01*
X244095415Y270104D01*
X244131000Y91203D01*
X244131000Y-91203D01*
X244095415Y-270104D01*
X244025611Y-438626D01*
X243924272Y-590291D01*
X243795291Y-719272D01*
X243643626Y-820611D01*
X243475104Y-890415D01*
X243296203Y-926000D01*
X243113797Y-926000D01*
X242934896Y-890415D01*
X242766374Y-820611D01*
X242614709Y-719272D01*
X242485728Y-590291D01*
X242384389Y-438626D01*
X242314585Y-270104D01*
X242279000Y-91203D01*
X242279000Y91203D01*
X242314585Y270104D01*
X242384389Y438626D01*
X242485728Y590291D01*
X242614709Y719272D01*
X242766374Y820611D01*
X242934896Y890415D01*
X243113797Y926000D01*
X243296203Y926000D01*
X243475104Y890415D01*
G37*
G36*
X254746103Y890415D02*
G01*
X254914625Y820611D01*
X255066290Y719272D01*
X255195271Y590291D01*
X255296610Y438626D01*
X255366414Y270104D01*
X255401999Y91203D01*
X255401999Y-91203D01*
X255366414Y-270104D01*
X255296610Y-438626D01*
X255195271Y-590291D01*
X255066290Y-719272D01*
X254914625Y-820611D01*
X254746103Y-890415D01*
X254567202Y-926000D01*
X254384796Y-926000D01*
X254205895Y-890415D01*
X254037373Y-820611D01*
X253885708Y-719272D01*
X253756727Y-590291D01*
X253655388Y-438626D01*
X253585584Y-270104D01*
X253549999Y-91203D01*
X253549999Y91203D01*
X253585584Y270104D01*
X253655388Y438626D01*
X253756727Y590291D01*
X253885708Y719272D01*
X254037373Y820611D01*
X254205895Y890415D01*
X254384796Y926000D01*
X254567202Y926000D01*
X254746103Y890415D01*
G37*
G36*
X247506000Y284000D02*
G01*
X246454000Y284000D01*
X246454000Y1686000D01*
X247506000Y1686000D01*
X247506000Y284000D01*
G37*
G36*
X267924425Y2075401D02*
G01*
X268048621Y2050698D01*
X268185022Y1994199D01*
X268307779Y1912175D01*
X268412175Y1807779D01*
X268494199Y1685022D01*
X268550698Y1548621D01*
X268579500Y1403819D01*
X268579500Y1256181D01*
X268550698Y1111379D01*
X268494199Y974978D01*
X268412175Y852221D01*
X268307779Y747825D01*
X268185022Y665801D01*
X268048621Y609302D01*
X267924425Y584599D01*
X267903820Y580500D01*
X267756180Y580500D01*
X267735575Y584599D01*
X267611379Y609302D01*
X267474978Y665801D01*
X267352221Y747825D01*
X267247825Y852221D01*
X267165801Y974978D01*
X267109302Y1111379D01*
X267080500Y1256181D01*
X267080500Y1403819D01*
X267109302Y1548621D01*
X267165801Y1685022D01*
X267247825Y1807779D01*
X267352221Y1912175D01*
X267474978Y1994199D01*
X267611379Y2050698D01*
X267735575Y2075401D01*
X267756180Y2079500D01*
X267903820Y2079500D01*
X267924425Y2075401D01*
G37*
G36*
X213265000Y1290000D02*
G01*
X210715000Y1290000D01*
X210715000Y3790000D01*
X213265000Y3790000D01*
X213265000Y1290000D01*
G37*
G36*
X253745999Y1290000D02*
G01*
X251195999Y1290000D01*
X251195999Y3790000D01*
X253745999Y3790000D01*
X253745999Y1290000D01*
G37*
G36*
X232315000Y1290000D02*
G01*
X229765000Y1290000D01*
X229765000Y3790000D01*
X232315000Y3790000D01*
X232315000Y1290000D01*
G37*
G36*
X175165000Y1290000D02*
G01*
X172615000Y1290000D01*
X172615000Y3790000D01*
X175165000Y3790000D01*
X175165000Y1290000D01*
G37*
G36*
X194215000Y1290000D02*
G01*
X191665000Y1290000D01*
X191665000Y3790000D01*
X194215000Y3790000D01*
X194215000Y1290000D01*
G37*
G36*
X247074425Y3765401D02*
G01*
X247198621Y3740698D01*
X247335022Y3684199D01*
X247457779Y3602175D01*
X247562175Y3497779D01*
X247644199Y3375022D01*
X247700698Y3238621D01*
X247729500Y3093819D01*
X247729500Y2946181D01*
X247700698Y2801379D01*
X247644199Y2664978D01*
X247562175Y2542221D01*
X247457779Y2437825D01*
X247335022Y2355801D01*
X247198621Y2299302D01*
X247074425Y2274599D01*
X247053820Y2270500D01*
X246906180Y2270500D01*
X246885575Y2274599D01*
X246761379Y2299302D01*
X246624978Y2355801D01*
X246502221Y2437825D01*
X246397825Y2542221D01*
X246315801Y2664978D01*
X246259302Y2801379D01*
X246230500Y2946181D01*
X246230500Y3093819D01*
X246259302Y3238621D01*
X246315801Y3375022D01*
X246397825Y3497779D01*
X246502221Y3602175D01*
X246624978Y3684199D01*
X246761379Y3740698D01*
X246885575Y3765401D01*
X246906180Y3769500D01*
X247053820Y3769500D01*
X247074425Y3765401D01*
G37*
G36*
X188065000Y3830000D02*
G01*
X185515000Y3830000D01*
X185515000Y6330000D01*
X188065000Y6330000D01*
X188065000Y3830000D01*
G37*
G36*
X266645999Y3830000D02*
G01*
X264095999Y3830000D01*
X264095999Y6330000D01*
X266645999Y6330000D01*
X266645999Y3830000D01*
G37*
G36*
X207115000Y3830000D02*
G01*
X204565000Y3830000D01*
X204565000Y6330000D01*
X207115000Y6330000D01*
X207115000Y3830000D01*
G37*
G36*
X226165000Y3830000D02*
G01*
X223615000Y3830000D01*
X223615000Y6330000D01*
X226165000Y6330000D01*
X226165000Y3830000D01*
G37*
G36*
X245215000Y3830000D02*
G01*
X242665000Y3830000D01*
X242665000Y6330000D01*
X245215000Y6330000D01*
X245215000Y3830000D01*
G37*
G36*
X248435142Y8800358D02*
G01*
X248583101Y8739071D01*
X248716255Y8650101D01*
X248829501Y8536855D01*
X248918471Y8403701D01*
X248979758Y8255742D01*
X249011000Y8098675D01*
X249011000Y7938525D01*
X248979758Y7781458D01*
X248918471Y7633499D01*
X248829501Y7500345D01*
X248716255Y7387099D01*
X248583101Y7298129D01*
X248435142Y7236842D01*
X248278075Y7205600D01*
X248117925Y7205600D01*
X247960858Y7236842D01*
X247812899Y7298129D01*
X247679745Y7387099D01*
X247566499Y7500345D01*
X247477529Y7633499D01*
X247416242Y7781458D01*
X247385000Y7938525D01*
X247385000Y8098675D01*
X247416242Y8255742D01*
X247477529Y8403701D01*
X247566499Y8536855D01*
X247679745Y8650101D01*
X247812899Y8739071D01*
X247960858Y8800358D01*
X248117925Y8831600D01*
X248278075Y8831600D01*
X248435142Y8800358D01*
G37*
G36*
X253515142Y8800358D02*
G01*
X253663101Y8739071D01*
X253796255Y8650101D01*
X253909501Y8536855D01*
X253998471Y8403701D01*
X254059758Y8255742D01*
X254091000Y8098675D01*
X254091000Y7938525D01*
X254059758Y7781458D01*
X253998471Y7633499D01*
X253909501Y7500345D01*
X253796255Y7387099D01*
X253663101Y7298129D01*
X253515142Y7236842D01*
X253358075Y7205600D01*
X253197925Y7205600D01*
X253040858Y7236842D01*
X252892899Y7298129D01*
X252759745Y7387099D01*
X252646499Y7500345D01*
X252557529Y7633499D01*
X252496242Y7781458D01*
X252465000Y7938525D01*
X252465000Y8098675D01*
X252496242Y8255742D01*
X252557529Y8403701D01*
X252646499Y8536855D01*
X252759745Y8650101D01*
X252892899Y8739071D01*
X253040858Y8800358D01*
X253197925Y8831600D01*
X253358075Y8831600D01*
X253515142Y8800358D01*
G37*
G36*
X256055142Y8800358D02*
G01*
X256203101Y8739071D01*
X256336255Y8650101D01*
X256449501Y8536855D01*
X256538471Y8403701D01*
X256599758Y8255742D01*
X256631000Y8098675D01*
X256631000Y7938525D01*
X256599758Y7781458D01*
X256538471Y7633499D01*
X256449501Y7500345D01*
X256336255Y7387099D01*
X256203101Y7298129D01*
X256055142Y7236842D01*
X255898075Y7205600D01*
X255737925Y7205600D01*
X255580858Y7236842D01*
X255432899Y7298129D01*
X255299745Y7387099D01*
X255186499Y7500345D01*
X255097529Y7633499D01*
X255036242Y7781458D01*
X255005000Y7938525D01*
X255005000Y8098675D01*
X255036242Y8255742D01*
X255097529Y8403701D01*
X255186499Y8536855D01*
X255299745Y8650101D01*
X255432899Y8739071D01*
X255580858Y8800358D01*
X255737925Y8831600D01*
X255898075Y8831600D01*
X256055142Y8800358D01*
G37*
G36*
X263675142Y8800358D02*
G01*
X263823101Y8739071D01*
X263956255Y8650101D01*
X264069501Y8536855D01*
X264158471Y8403701D01*
X264219758Y8255742D01*
X264251000Y8098675D01*
X264251000Y7938525D01*
X264219758Y7781458D01*
X264158471Y7633499D01*
X264069501Y7500345D01*
X263956255Y7387099D01*
X263823101Y7298129D01*
X263675142Y7236842D01*
X263518075Y7205600D01*
X263357925Y7205600D01*
X263200858Y7236842D01*
X263052899Y7298129D01*
X262919745Y7387099D01*
X262806499Y7500345D01*
X262717529Y7633499D01*
X262656242Y7781458D01*
X262625000Y7938525D01*
X262625000Y8098675D01*
X262656242Y8255742D01*
X262717529Y8403701D01*
X262806499Y8536855D01*
X262919745Y8650101D01*
X263052899Y8739071D01*
X263200858Y8800358D01*
X263357925Y8831600D01*
X263518075Y8831600D01*
X263675142Y8800358D01*
G37*
G36*
X261135142Y8800358D02*
G01*
X261283101Y8739071D01*
X261416255Y8650101D01*
X261529501Y8536855D01*
X261618471Y8403701D01*
X261679758Y8255742D01*
X261711000Y8098675D01*
X261711000Y7938525D01*
X261679758Y7781458D01*
X261618471Y7633499D01*
X261529501Y7500345D01*
X261416255Y7387099D01*
X261283101Y7298129D01*
X261135142Y7236842D01*
X260978075Y7205600D01*
X260817925Y7205600D01*
X260660858Y7236842D01*
X260512899Y7298129D01*
X260379745Y7387099D01*
X260266499Y7500345D01*
X260177529Y7633499D01*
X260116242Y7781458D01*
X260085000Y7938525D01*
X260085000Y8098675D01*
X260116242Y8255742D01*
X260177529Y8403701D01*
X260266499Y8536855D01*
X260379745Y8650101D01*
X260512899Y8739071D01*
X260660858Y8800358D01*
X260817925Y8831600D01*
X260978075Y8831600D01*
X261135142Y8800358D01*
G37*
G36*
X258595142Y8800358D02*
G01*
X258743101Y8739071D01*
X258876255Y8650101D01*
X258989501Y8536855D01*
X259078471Y8403701D01*
X259139758Y8255742D01*
X259171000Y8098675D01*
X259171000Y7938525D01*
X259139758Y7781458D01*
X259078471Y7633499D01*
X258989501Y7500345D01*
X258876255Y7387099D01*
X258743101Y7298129D01*
X258595142Y7236842D01*
X258438075Y7205600D01*
X258277925Y7205600D01*
X258120858Y7236842D01*
X257972899Y7298129D01*
X257839745Y7387099D01*
X257726499Y7500345D01*
X257637529Y7633499D01*
X257576242Y7781458D01*
X257545000Y7938525D01*
X257545000Y8098675D01*
X257576242Y8255742D01*
X257637529Y8403701D01*
X257726499Y8536855D01*
X257839745Y8650101D01*
X257972899Y8739071D01*
X258120858Y8800358D01*
X258277925Y8831600D01*
X258438075Y8831600D01*
X258595142Y8800358D01*
G37*
G36*
X250975142Y8800358D02*
G01*
X251123101Y8739071D01*
X251256255Y8650101D01*
X251369501Y8536855D01*
X251458471Y8403701D01*
X251519758Y8255742D01*
X251551000Y8098675D01*
X251551000Y7938525D01*
X251519758Y7781458D01*
X251458471Y7633499D01*
X251369501Y7500345D01*
X251256255Y7387099D01*
X251123101Y7298129D01*
X250975142Y7236842D01*
X250818075Y7205600D01*
X250657925Y7205600D01*
X250500858Y7236842D01*
X250352899Y7298129D01*
X250219745Y7387099D01*
X250106499Y7500345D01*
X250017529Y7633499D01*
X249956242Y7781458D01*
X249925000Y7938525D01*
X249925000Y8098675D01*
X249956242Y8255742D01*
X250017529Y8403701D01*
X250106499Y8536855D01*
X250219745Y8650101D01*
X250352899Y8739071D01*
X250500858Y8800358D01*
X250657925Y8831600D01*
X250818075Y8831600D01*
X250975142Y8800358D01*
G37*
G36*
X245895142Y8800358D02*
G01*
X246043101Y8739071D01*
X246176255Y8650101D01*
X246289501Y8536855D01*
X246378471Y8403701D01*
X246439758Y8255742D01*
X246471000Y8098675D01*
X246471000Y7938525D01*
X246439758Y7781458D01*
X246378471Y7633499D01*
X246289501Y7500345D01*
X246176255Y7387099D01*
X246043101Y7298129D01*
X245895142Y7236842D01*
X245738075Y7205600D01*
X245577925Y7205600D01*
X245420858Y7236842D01*
X245272899Y7298129D01*
X245139745Y7387099D01*
X245026499Y7500345D01*
X244937529Y7633499D01*
X244876242Y7781458D01*
X244845000Y7938525D01*
X244845000Y8098675D01*
X244876242Y8255742D01*
X244937529Y8403701D01*
X245026499Y8536855D01*
X245139745Y8650101D01*
X245272899Y8739071D01*
X245420858Y8800358D01*
X245577925Y8831600D01*
X245738075Y8831600D01*
X245895142Y8800358D01*
G37*
G36*
X235735142Y8800358D02*
G01*
X235883101Y8739071D01*
X236016255Y8650101D01*
X236129501Y8536855D01*
X236218471Y8403701D01*
X236279758Y8255742D01*
X236311000Y8098675D01*
X236311000Y7938525D01*
X236279758Y7781458D01*
X236218471Y7633499D01*
X236129501Y7500345D01*
X236016255Y7387099D01*
X235883101Y7298129D01*
X235735142Y7236842D01*
X235578075Y7205600D01*
X235417925Y7205600D01*
X235260858Y7236842D01*
X235112899Y7298129D01*
X234979745Y7387099D01*
X234866499Y7500345D01*
X234777529Y7633499D01*
X234716242Y7781458D01*
X234685000Y7938525D01*
X234685000Y8098675D01*
X234716242Y8255742D01*
X234777529Y8403701D01*
X234866499Y8536855D01*
X234979745Y8650101D01*
X235112899Y8739071D01*
X235260858Y8800358D01*
X235417925Y8831600D01*
X235578075Y8831600D01*
X235735142Y8800358D01*
G37*
G36*
X238275142Y8800358D02*
G01*
X238423101Y8739071D01*
X238556255Y8650101D01*
X238669501Y8536855D01*
X238758471Y8403701D01*
X238819758Y8255742D01*
X238851000Y8098675D01*
X238851000Y7938525D01*
X238819758Y7781458D01*
X238758471Y7633499D01*
X238669501Y7500345D01*
X238556255Y7387099D01*
X238423101Y7298129D01*
X238275142Y7236842D01*
X238118075Y7205600D01*
X237957925Y7205600D01*
X237800858Y7236842D01*
X237652899Y7298129D01*
X237519745Y7387099D01*
X237406499Y7500345D01*
X237317529Y7633499D01*
X237256242Y7781458D01*
X237225000Y7938525D01*
X237225000Y8098675D01*
X237256242Y8255742D01*
X237317529Y8403701D01*
X237406499Y8536855D01*
X237519745Y8650101D01*
X237652899Y8739071D01*
X237800858Y8800358D01*
X237957925Y8831600D01*
X238118075Y8831600D01*
X238275142Y8800358D01*
G37*
G36*
X243355142Y8800358D02*
G01*
X243503101Y8739071D01*
X243636255Y8650101D01*
X243749501Y8536855D01*
X243838471Y8403701D01*
X243899758Y8255742D01*
X243931000Y8098675D01*
X243931000Y7938525D01*
X243899758Y7781458D01*
X243838471Y7633499D01*
X243749501Y7500345D01*
X243636255Y7387099D01*
X243503101Y7298129D01*
X243355142Y7236842D01*
X243198075Y7205600D01*
X243037925Y7205600D01*
X242880858Y7236842D01*
X242732899Y7298129D01*
X242599745Y7387099D01*
X242486499Y7500345D01*
X242397529Y7633499D01*
X242336242Y7781458D01*
X242305000Y7938525D01*
X242305000Y8098675D01*
X242336242Y8255742D01*
X242397529Y8403701D01*
X242486499Y8536855D01*
X242599745Y8650101D01*
X242732899Y8739071D01*
X242880858Y8800358D01*
X243037925Y8831600D01*
X243198075Y8831600D01*
X243355142Y8800358D01*
G37*
G36*
X240815142Y8800358D02*
G01*
X240963101Y8739071D01*
X241096255Y8650101D01*
X241209501Y8536855D01*
X241298471Y8403701D01*
X241359758Y8255742D01*
X241391000Y8098675D01*
X241391000Y7938525D01*
X241359758Y7781458D01*
X241298471Y7633499D01*
X241209501Y7500345D01*
X241096255Y7387099D01*
X240963101Y7298129D01*
X240815142Y7236842D01*
X240658075Y7205600D01*
X240497925Y7205600D01*
X240340858Y7236842D01*
X240192899Y7298129D01*
X240059745Y7387099D01*
X239946499Y7500345D01*
X239857529Y7633499D01*
X239796242Y7781458D01*
X239765000Y7938525D01*
X239765000Y8098675D01*
X239796242Y8255742D01*
X239857529Y8403701D01*
X239946499Y8536855D01*
X240059745Y8650101D01*
X240192899Y8739071D01*
X240340858Y8800358D01*
X240497925Y8831600D01*
X240658075Y8831600D01*
X240815142Y8800358D01*
G37*
G36*
X220391106Y15125983D02*
G01*
X220509580Y15076909D01*
X220616204Y15005665D01*
X220706881Y14914988D01*
X220778125Y14808364D01*
X220827199Y14689890D01*
X220852216Y14564118D01*
X220852216Y14435882D01*
X220827199Y14310110D01*
X220778125Y14191636D01*
X220706881Y14085012D01*
X220616204Y13994335D01*
X220509580Y13923091D01*
X220509579Y13923090D01*
X220509578Y13923090D01*
X220391106Y13874017D01*
X220265335Y13849000D01*
X220137097Y13849000D01*
X220011326Y13874017D01*
X219892854Y13923090D01*
X219892853Y13923090D01*
X219892852Y13923091D01*
X219786228Y13994335D01*
X219695551Y14085012D01*
X219624307Y14191636D01*
X219575233Y14310110D01*
X219550216Y14435882D01*
X219550216Y14564118D01*
X219575233Y14689890D01*
X219624307Y14808364D01*
X219695551Y14914988D01*
X219786228Y15005665D01*
X219892852Y15076909D01*
X220011326Y15125983D01*
X220137097Y15151000D01*
X220265335Y15151000D01*
X220391106Y15125983D01*
G37*
G36*
X214328928Y18625983D02*
G01*
X214447402Y18576909D01*
X214554026Y18505665D01*
X214644703Y18414988D01*
X214715947Y18308364D01*
X214765021Y18189890D01*
X214790038Y18064118D01*
X214790038Y17935882D01*
X214765021Y17810110D01*
X214715947Y17691636D01*
X214644703Y17585012D01*
X214554026Y17494335D01*
X214447402Y17423091D01*
X214447401Y17423090D01*
X214447400Y17423090D01*
X214328928Y17374017D01*
X214203157Y17349000D01*
X214074919Y17349000D01*
X213949148Y17374017D01*
X213830676Y17423090D01*
X213830675Y17423090D01*
X213830674Y17423091D01*
X213724050Y17494335D01*
X213633373Y17585012D01*
X213562129Y17691636D01*
X213513055Y17810110D01*
X213488038Y17935882D01*
X213488038Y18064118D01*
X213513055Y18189890D01*
X213562129Y18308364D01*
X213633373Y18414988D01*
X213724050Y18505665D01*
X213830674Y18576909D01*
X213949148Y18625983D01*
X214074919Y18651000D01*
X214203157Y18651000D01*
X214328928Y18625983D01*
G37*
M02*
