999
"DXF R12 Output" (www.mydxf.blogspot.com)
 0 
SECTION
 2 
HEADER
 9 
$ACADVER
 1 
AC1009
 9 
$EXTMIN
 10 
 0 
 20 
 0 
 9 
$EXTMAX
 10 
 8.5 
 20 
 11 
 0 
ENDSEC
 0 
SECTION
 2 
ENTITIES
0
LINE
8
Layer 1
10
-30.834100
20
-95.166400
11
-30.834100
21
-90.532000
0
LINE
8
Layer 1
10
-44.668400
20
-77.157900
11
-29.230500
21
-77.160158
0
LINE
8
Layer 1
10
-33.503600
20
-90.532000
11
-33.503600
21
-85.167200
0
LINE
8
Layer 1
10
-29.230500
20
-77.160000
11
-29.230500
21
-79.982200
0
LINE
8
Layer 1
10
-34.166700
20
-103.562000
11
-34.166700
21
-95.166400
0
LINE
8
Layer 1
10
-34.166700
20
-95.166400
11
-30.834100
21
-95.166400
0
LINE
8
Layer 1
10
-29.259200
20
-84.249600
11
-29.230500
21
-84.249600
0
LINE
8
Layer 1
10
-29.259200
20
-79.982200
11
-29.230500
21
-79.982200
0
LINE
8
Layer 1
10
-29.259200
20
-79.982200
11
-31.392530
21
-82.116240
0
LINE
8
Layer 1
10
-44.798200
20
-79.595900
11
-34.819020
21
-79.601629
0
LINE
8
Layer 1
10
-29.230500
20
-100.718000
11
-29.230500
21
-103.562000
0
LINE
8
Layer 1
10
-45.808200
20
-77.809500
11
-44.798170
21
-79.595870
0
LINE
8
Layer 1
10
-34.819000
20
-85.167200
11
-34.819000
21
-79.601600
0
LINE
8
Layer 1
10
-27.097200
20
-98.583600
11
-29.230530
21
-96.450270
0
LINE
8
Layer 1
10
-33.503600
20
-85.167200
11
-34.819000
21
-85.167200
0
LINE
8
Layer 1
10
-30.834100
20
-90.532000
11
-33.503600
21
-90.532000
0
LINE
8
Layer 1
10
-29.230500
20
-100.718000
11
-27.097170
21
-98.583960
0
LINE
8
Layer 1
10
-31.392500
20
-82.116300
11
-29.259170
21
-84.249630
0
LINE
8
Layer 1
10
-29.230500
20
-103.562000
11
-34.166700
21
-103.562000
0
LINE
8
Layer 1
10
-45.808200
20
-77.809500
11
-44.668420
21
-77.157889
0
LINE
8
Layer 1
10
-29.230500
20
-84.249600
11
-29.230500
21
-96.450300
0
LINE
8
Layer 1
10
-27.656300
20
-62.120600
11
-27.656300
21
-64.965800
0
LINE
8
Layer 1
10
-44.234000
20
-39.212500
11
-43.223250
21
-40.999590
0
LINE
8
Layer 1
10
-33.244100
20
-46.570100
11
-33.244100
21
-41.004600
0
LINE
8
Layer 1
10
-25.522300
20
-59.987300
11
-27.656340
21
-57.853260
0
LINE
8
Layer 1
10
-31.928700
20
-46.570100
11
-33.244100
21
-46.570100
0
LINE
8
Layer 1
10
-29.259200
20
-51.935000
11
-31.928700
21
-51.935000
0
LINE
8
Layer 1
10
-43.093500
20
-38.560800
11
-27.656300
21
-38.563679
0
LINE
8
Layer 1
10
-31.928700
20
-51.935000
11
-31.928700
21
-46.570100
0
LINE
8
Layer 1
10
-27.656300
20
-38.563700
11
-27.656300
21
-41.385900
0
LINE
8
Layer 1
10
-32.591800
20
-64.965800
11
-32.591800
21
-56.569400
0
LINE
8
Layer 1
10
-32.591800
20
-56.569400
11
-29.259200
21
-56.569400
0
LINE
8
Layer 1
10
-27.684300
20
-45.653300
11
-27.656300
21
-45.653300
0
LINE
8
Layer 1
10
-27.684300
20
-41.385900
11
-27.656300
21
-41.385900
0
LINE
8
Layer 1
10
-27.684300
20
-41.385900
11
-29.817630
21
-43.519230
0
LINE
8
Layer 1
10
-43.223300
20
-40.999500
11
-33.244120
21
-41.004524
0
LINE
8
Layer 1
10
-27.656300
20
-62.120600
11
-25.522260
21
-59.987270
0
LINE
8
Layer 1
10
-29.817600
20
-43.519200
11
-27.684270
21
-45.653240
0
LINE
8
Layer 1
10
-27.656300
20
-64.965800
11
-32.591800
21
-64.965800
0
LINE
8
Layer 1
10
-44.234000
20
-39.212500
11
-43.093500
21
-38.560889
0
LINE
8
Layer 1
10
-27.656300
20
-45.653300
11
-27.656300
21
-57.853300
0
LINE
8
Layer 1
10
-29.259200
20
-56.569400
11
-29.259200
21
-51.935000
0
LINE
8
Layer 1
10
-68.135100
20
-142.525000
11
-68.135100
21
-125.333000
0
LINE
8
Layer 1
10
-65.448300
20
-142.052000
11
-37.922900
21
-142.052000
0
LINE
8
Layer 1
10
-68.135100
20
-125.333000
11
-65.448300
21
-125.333000
0
LINE
8
Layer 1
10
-37.922900
20
-142.052000
11
-37.922900
21
-144.710000
0
LINE
8
Layer 1
10
-37.922900
20
-144.710000
11
-65.950800
21
-144.710000
0
LINE
8
Layer 1
10
-68.135800
20
-142.526000
11
-67.969414
21
-143.362000
0
LINE
8
Layer 1
10
-67.969414
20
-143.362000
11
-67.495744
21
-144.070673
0
LINE
8
Layer 1
10
-67.495744
20
-144.070673
11
-66.786915
21
-144.544109
0
LINE
8
Layer 1
10
-66.786915
20
-144.544109
11
-65.950860
21
-144.710220
0
LINE
8
Layer 1
10
-65.448300
20
-125.333000
11
-65.448300
21
-142.052000
0
LINE
8
Layer 1
10
-34.807500
20
-126.001000
11
-36.123000
21
-126.001000
0
LINE
8
Layer 1
10
-32.138000
20
-131.367000
11
-34.807500
21
-131.367000
0
LINE
8
Layer 1
10
-45.972400
20
-117.992000
11
-30.534500
21
-117.994879
0
LINE
8
Layer 1
10
-34.807500
20
-131.367000
11
-34.807500
21
-126.001000
0
LINE
8
Layer 1
10
-30.534400
20
-117.995000
11
-30.534400
21
-120.817000
0
LINE
8
Layer 1
10
-35.470600
20
-144.397000
11
-35.470600
21
-136.001000
0
LINE
8
Layer 1
10
-35.470600
20
-136.001000
11
-32.138000
21
-136.001000
0
LINE
8
Layer 1
10
-30.563100
20
-125.085000
11
-30.534400
21
-125.085000
0
LINE
8
Layer 1
10
-30.563100
20
-120.817000
11
-30.534400
21
-120.817000
0
LINE
8
Layer 1
10
-30.563100
20
-120.817000
11
-32.696430
21
-122.950330
0
LINE
8
Layer 1
10
-46.102100
20
-120.431000
11
-36.122920
21
-120.436729
0
LINE
8
Layer 1
10
-30.534400
20
-141.552000
11
-28.401070
21
-139.418670
0
LINE
8
Layer 1
10
-32.696400
20
-122.951000
11
-30.563070
21
-125.085040
0
LINE
8
Layer 1
10
-30.534400
20
-144.397000
11
-35.470600
21
-144.397000
0
LINE
8
Layer 1
10
-47.112200
20
-118.644000
11
-45.972420
21
-117.991672
0
LINE
8
Layer 1
10
-30.534400
20
-125.085000
11
-30.534400
21
-137.285000
0
LINE
8
Layer 1
10
-47.112200
20
-118.644000
11
-46.102170
21
-120.430370
0
LINE
8
Layer 1
10
-36.123000
20
-126.001000
11
-36.123000
21
-120.437000
0
LINE
8
Layer 1
10
-32.138000
20
-136.001000
11
-32.138000
21
-131.367000
0
LINE
8
Layer 1
10
-30.534400
20
-141.552000
11
-30.534400
21
-144.397000
0
LINE
8
Layer 1
10
-28.401100
20
-139.419000
11
-30.534430
21
-137.284960
0
LINE
8
Layer 1
10
17.194500
20
-61.903400
11
17.194500
21
-41.459000
0
LINE
8
Layer 1
10
18.064000
20
-64.646800
11
-8.173930
21
-64.646800
0
LINE
8
Layer 1
10
20.248200
20
-41.459000
11
20.248200
21
-62.461800
0
LINE
8
Layer 1
10
18.063600
20
-64.647000
11
18.899552
21
-64.480725
0
LINE
8
Layer 1
10
18.899552
20
-64.480725
11
19.608238
21
-64.007198
0
LINE
8
Layer 1
10
19.608238
20
-64.007198
11
20.081765
21
-63.298512
0
LINE
8
Layer 1
10
20.081765
20
-63.298512
11
20.248040
21
-62.462560
0
LINE
8
Layer 1
10
17.194500
20
-41.459000
11
20.248200
21
-41.459000
0
LINE
8
Layer 1
10
-8.173930
20
-61.903400
11
17.194500
21
-61.903400
0
LINE
8
Layer 1
10
-8.173930
20
-61.903400
11
-8.173930
21
-64.646800
0
LINE
8
Layer 1
10
-65.188800
20
-62.114900
11
-37.663500
21
-62.114900
0
LINE
8
Layer 1
10
-37.663500
20
-62.114900
11
-37.663500
21
-64.773700
0
LINE
8
Layer 1
10
-67.875600
20
-41.507100
11
-65.188800
21
-41.507100
0
LINE
8
Layer 1
10
-67.875600
20
-62.589400
11
-67.875600
21
-41.507100
0
LINE
8
Layer 1
10
-37.663500
20
-64.773700
11
-65.691300
21
-64.773700
0
LINE
8
Layer 1
10
-67.875600
20
-62.589600
11
-67.703943
21
-63.439810
0
LINE
8
Layer 1
10
-67.703943
20
-63.439810
11
-67.235851
21
-64.134115
0
LINE
8
Layer 1
10
-67.235851
20
-64.134115
11
-66.541579
21
-64.602255
0
LINE
8
Layer 1
10
-66.541579
20
-64.602255
11
-65.691380
21
-64.773970
0
LINE
8
Layer 1
10
-65.188800
20
-41.507100
11
-65.188800
21
-62.114900
0
LINE
8
Layer 1
10
19.367900
20
-18.155900
11
-6.869990
21
-18.155900
0
LINE
8
Layer 1
10
18.498400
20
-15.413200
11
18.498400
21
5.030440
0
LINE
8
Layer 1
10
21.552200
20
5.030440
11
21.552200
21
-15.971700
0
LINE
8
Layer 1
10
19.367400
20
-18.156500
11
20.217669
21
-17.984848
0
LINE
8
Layer 1
10
20.217669
20
-17.984848
11
20.912013
21
-17.516723
0
LINE
8
Layer 1
10
20.912013
20
-17.516723
11
21.380161
21
-16.822394
0
LINE
8
Layer 1
10
21.380161
20
-16.822394
11
21.551840
21
-15.972130
0
LINE
8
Layer 1
10
18.498400
20
5.030440
11
21.552200
21
5.030440
0
LINE
8
Layer 1
10
-6.869990
20
-15.413200
11
18.498400
21
-15.413200
0
LINE
8
Layer 1
10
-6.869990
20
-15.413200
11
-6.869990
21
-18.155900
0
LINE
8
Layer 1
10
159.112000
20
133.591000
11
158.261838
21
133.419300
0
LINE
8
Layer 1
10
158.261838
20
133.419300
11
157.567582
21
132.951198
0
LINE
8
Layer 1
10
157.567582
20
132.951198
11
157.099480
21
132.256942
0
LINE
8
Layer 1
10
157.099480
20
132.256942
11
156.927780
21
131.406780
0
LINE
8
Layer 1
10
176.638000
20
133.594000
11
192.075200
21
133.591742
0
LINE
8
Layer 1
10
174.160000
20
135.183000
11
159.112000
21
133.591610
0
LINE
8
Layer 1
10
201.361000
20
114.284000
11
201.358121
21
130.777100
0
LINE
8
Layer 1
10
174.446000
20
134.692000
11
174.160696
21
135.183038
0
LINE
8
Layer 1
10
201.361000
20
133.591000
11
212.689000
21
133.591000
0
LINE
8
Layer 1
10
213.838000
20
132.914000
11
212.689620
21
133.591417
0
LINE
8
Layer 1
10
233.822000
20
131.406000
11
233.822000
21
109.374000
0
LINE
8
Layer 1
10
156.927000
20
109.374000
11
156.927000
21
131.406000
0
LINE
8
Layer 1
10
192.076000
20
133.591000
11
192.076000
21
130.769000
0
LINE
8
Layer 1
10
215.207000
20
135.222000
11
231.637800
21
133.591180
0
LINE
8
Layer 1
10
175.498000
20
132.942000
11
176.638500
21
133.593611
0
LINE
8
Layer 1
10
192.076000
20
130.769000
11
192.076000
21
114.301000
0
LINE
8
Layer 1
10
201.358000
20
130.777000
11
201.358000
21
133.591000
0
LINE
8
Layer 1
10
213.838000
20
132.914000
11
215.207170
21
135.222240
0
LINE
8
Layer 1
10
233.823000
20
131.407000
11
233.656614
21
132.243000
0
LINE
8
Layer 1
10
233.656614
20
132.243000
11
233.182944
21
132.951673
0
LINE
8
Layer 1
10
233.182944
20
132.951673
11
232.474115
21
133.425109
0
LINE
8
Layer 1
10
232.474115
20
133.425109
11
231.638060
21
133.591220
0
LINE
8
Layer 1
10
174.446000
20
134.692000
11
175.498330
21
132.942180
0
LINE
8
Layer 1
10
-47.276300
20
28.189500
11
-47.276300
21
24.241100
0
LINE
8
Layer 1
10
-43.328000
20
24.238300
11
-43.328000
21
28.189500
0
LINE
8
Layer 1
10
-47.358000
20
40.367300
11
-47.358000
21
44.318500
0
LINE
8
Layer 1
10
-51.306400
20
44.318500
11
-51.306400
21
40.370100
0
LINE
8
Layer 1
10
-51.306400
20
40.367300
11
-47.358000
21
40.367300
0
LINE
8
Layer 1
10
-60.235400
20
23.261900
11
-60.235400
21
45.294800
0
LINE
8
Layer 1
10
-25.087900
20
47.479800
11
-25.087900
21
44.657600
0
LINE
8
Layer 1
10
-25.087900
20
21.077700
11
-58.051200
21
21.077700
0
LINE
8
Layer 1
10
-40.525100
20
47.481900
11
-25.087900
21
47.479642
0
LINE
8
Layer 1
10
-41.665600
20
46.830300
11
-40.525100
21
47.481911
0
LINE
8
Layer 1
10
-25.087900
20
44.657600
11
-25.087900
21
28.189500
0
LINE
8
Layer 1
10
-31.147300
20
33.565800
11
-31.147300
21
29.617500
0
LINE
8
Layer 1
10
-31.229100
20
40.367300
11
-31.229100
21
44.318500
0
LINE
8
Layer 1
10
-58.051900
20
47.479800
11
-58.902099
21
47.308085
0
LINE
8
Layer 1
10
-58.902099
20
47.308085
11
-59.596371
21
46.839945
0
LINE
8
Layer 1
10
-59.596371
20
46.839945
11
-60.064463
21
46.145640
0
LINE
8
Layer 1
10
-60.064463
20
46.145640
11
-60.236120
21
45.295430
0
LINE
8
Layer 1
10
-54.667700
20
33.565800
11
-54.667700
21
29.617500
0
LINE
8
Layer 1
10
-52.652700
20
28.189500
11
-52.652700
21
24.241100
0
LINE
8
Layer 1
10
-56.011100
20
34.990900
11
-52.062700
21
34.990900
0
LINE
8
Layer 1
10
-41.984600
20
40.367300
11
-41.984600
21
44.318500
0
LINE
8
Layer 1
10
-37.951600
20
33.565800
11
-41.900000
21
33.565800
0
LINE
8
Layer 1
10
-37.951600
20
29.614600
11
-37.951600
21
33.565800
0
LINE
8
Layer 1
10
-41.900000
20
29.614600
11
-37.951600
21
29.614600
0
LINE
8
Layer 1
10
-47.276300
20
24.238300
11
-43.328000
21
24.238300
0
LINE
8
Layer 1
10
-30.557400
20
24.238300
11
-30.557400
21
28.189500
0
LINE
8
Layer 1
10
-34.505800
20
24.238300
11
-30.557400
21
24.238300
0
LINE
8
Layer 1
10
-47.358000
20
44.318500
11
-51.306400
21
44.318500
0
LINE
8
Layer 1
10
-36.605400
20
40.367300
11
-36.605400
21
44.318500
0
LINE
8
Layer 1
10
-31.229100
20
44.318500
11
-35.177400
21
44.318500
0
LINE
8
Layer 1
10
-40.553800
20
44.318500
11
-40.553800
21
40.370100
0
LINE
8
Layer 1
10
-35.177400
20
40.367300
11
-31.229100
21
40.367300
0
LINE
8
Layer 1
10
-35.177400
20
44.318500
11
-35.177400
21
40.370100
0
LINE
8
Layer 1
10
-49.963100
20
34.990900
11
-46.014700
21
34.990900
0
LINE
8
Layer 1
10
-34.505800
20
28.189500
11
-34.505800
21
24.241100
0
LINE
8
Layer 1
10
-50.719300
20
29.614600
11
-50.719300
21
33.565800
0
LINE
8
Layer 1
10
-54.667700
20
29.614600
11
-50.719300
21
29.614600
0
LINE
8
Layer 1
10
-50.719300
20
33.565800
11
-54.667700
21
33.565800
0
LINE
8
Layer 1
10
-60.236100
20
23.262400
11
-60.064463
21
22.412167
0
LINE
8
Layer 1
10
-60.064463
20
22.412167
11
-59.596376
21
21.717840
0
LINE
8
Layer 1
10
-59.596376
20
21.717840
11
-58.902095
21
21.249682
0
LINE
8
Layer 1
10
-58.902095
20
21.249682
11
-58.051880
21
21.077960
0
LINE
8
Layer 1
10
-46.014700
20
34.990900
11
-46.014700
21
38.942200
0
LINE
8
Layer 1
10
-46.014700
20
38.942200
11
-49.963100
21
38.942200
0
LINE
8
Layer 1
10
-52.062700
20
38.942200
11
-56.011100
21
38.942200
0
LINE
8
Layer 1
10
-49.963100
20
38.942200
11
-49.963100
21
34.993800
0
LINE
8
Layer 1
10
-52.737200
20
40.367300
11
-52.737200
21
44.318500
0
LINE
8
Layer 1
10
-56.685600
20
44.318500
11
-56.685600
21
40.370100
0
LINE
8
Layer 1
10
-25.087900
20
28.189500
11
-25.087900
21
21.077700
0
LINE
8
Layer 1
10
-41.900000
20
28.189500
11
-41.900000
21
24.241100
0
LINE
8
Layer 1
10
-37.951600
20
24.238300
11
-37.951600
21
28.189500
0
LINE
8
Layer 1
10
-42.717900
20
48.580100
11
-43.003204
21
49.071138
0
LINE
8
Layer 1
10
-41.900000
20
24.238300
11
-37.951600
21
24.238300
0
LINE
8
Layer 1
10
-45.933000
20
44.318500
11
-45.933000
21
40.370100
0
LINE
8
Layer 1
10
-45.933000
20
40.367300
11
-41.984600
21
40.367300
0
LINE
8
Layer 1
10
-41.984600
20
44.318500
11
-45.933000
21
44.318500
0
LINE
8
Layer 1
10
-33.834100
20
38.942200
11
-33.834100
21
34.993800
0
LINE
8
Layer 1
10
-35.262000
20
34.990900
11
-35.262000
21
38.942200
0
LINE
8
Layer 1
10
-42.717900
20
48.580100
11
-41.665570
21
46.830280
0
LINE
8
Layer 1
10
-41.900000
20
33.565800
11
-41.900000
21
29.617500
0
LINE
8
Layer 1
10
-44.586700
20
34.990900
11
-40.638400
21
34.990900
0
LINE
8
Layer 1
10
-43.328000
20
28.189500
11
-47.276300
21
28.189500
0
LINE
8
Layer 1
10
-56.685600
20
40.367300
11
-52.737200
21
40.367300
0
LINE
8
Layer 1
10
-52.062700
20
34.990900
11
-52.062700
21
38.942200
0
LINE
8
Layer 1
10
-56.011100
20
38.942200
11
-56.011100
21
34.993800
0
LINE
8
Layer 1
10
-27.199000
20
33.565800
11
-31.147300
21
33.565800
0
LINE
8
Layer 1
10
-52.737200
20
44.318500
11
-56.685600
21
44.318500
0
LINE
8
Layer 1
10
-27.199000
20
29.614600
11
-27.199000
21
33.565800
0
LINE
8
Layer 1
10
-40.553800
20
40.367300
11
-36.605400
21
40.367300
0
LINE
8
Layer 1
10
-29.885700
20
38.942200
11
-33.834100
21
38.942200
0
LINE
8
Layer 1
10
-36.605400
20
44.318500
11
-40.553800
21
44.318500
0
LINE
8
Layer 1
10
-43.328000
20
29.614600
11
-43.328000
21
33.565800
0
LINE
8
Layer 1
10
-48.704300
20
24.238300
11
-48.704300
21
28.189500
0
LINE
8
Layer 1
10
-32.575300
20
33.565800
11
-36.523700
21
33.565800
0
LINE
8
Layer 1
10
-32.575300
20
29.614600
11
-32.575300
21
33.565800
0
LINE
8
Layer 1
10
-30.557400
20
28.189500
11
-34.505800
21
28.189500
0
LINE
8
Layer 1
10
-47.276300
20
29.614600
11
-43.328000
21
29.614600
0
LINE
8
Layer 1
10
-36.523700
20
29.614600
11
-32.575300
21
29.614600
0
LINE
8
Layer 1
10
-31.147300
20
29.614600
11
-27.199000
21
29.614600
0
LINE
8
Layer 1
10
-48.704300
20
28.189500
11
-52.652700
21
28.189500
0
LINE
8
Layer 1
10
-36.523700
20
33.565800
11
-36.523700
21
29.617500
0
LINE
8
Layer 1
10
-29.885700
20
34.990900
11
-29.885700
21
38.942200
0
LINE
8
Layer 1
10
-33.834100
20
34.990900
11
-29.885700
21
34.990900
0
LINE
8
Layer 1
10
-43.328000
20
33.565800
11
-47.276300
21
33.565800
0
LINE
8
Layer 1
10
-47.276300
20
33.565800
11
-47.276300
21
29.617500
0
LINE
8
Layer 1
10
-52.652700
20
24.238300
11
-48.704300
21
24.238300
0
LINE
8
Layer 1
10
-35.262000
20
38.942200
11
-39.210400
21
38.942200
0
LINE
8
Layer 1
10
-39.210400
20
38.942200
11
-39.210400
21
34.993800
0
LINE
8
Layer 1
10
-37.951600
20
28.189500
11
-41.900000
21
28.189500
0
LINE
8
Layer 1
10
-43.003200
20
49.071200
11
-58.051200
21
47.479810
0
LINE
8
Layer 1
10
-39.210400
20
34.990900
11
-35.262000
21
34.990900
0
LINE
8
Layer 1
10
-40.638400
20
38.942200
11
-44.586700
21
38.942200
0
LINE
8
Layer 1
10
-44.586700
20
38.942200
11
-44.586700
21
34.993800
0
LINE
8
Layer 1
10
-40.638400
20
34.990900
11
-40.638400
21
38.942200
0
LINE
8
Layer 1
10
14.474000
20
21.077700
11
-15.802600
21
21.077700
0
LINE
8
Layer 1
10
-15.802600
20
21.077700
11
-15.802600
21
28.172300
0
LINE
8
Layer 1
10
1.110630
20
33.565800
11
1.110630
21
29.617500
0
LINE
8
Layer 1
10
-0.317319
20
29.614600
11
-0.317319
21
33.565800
0
LINE
8
Layer 1
10
-0.317319
20
33.565800
11
-4.265700
21
33.565800
0
LINE
8
Layer 1
10
-3.325910
20
46.802400
11
-4.474290
21
47.479817
0
LINE
8
Layer 1
10
-4.265700
20
29.614600
11
-0.317319
21
29.614600
0
LINE
8
Layer 1
10
11.781600
20
29.614600
11
11.781600
21
33.565800
0
LINE
8
Layer 1
10
13.122100
20
38.942200
11
9.173690
21
38.942200
0
LINE
8
Layer 1
10
13.122100
20
34.990900
11
13.122100
21
38.942200
0
LINE
8
Layer 1
10
16.658300
20
45.294800
11
16.658300
21
23.261900
0
LINE
8
Layer 1
10
14.473800
20
21.077900
11
15.324064
21
21.249579
0
LINE
8
Layer 1
10
15.324064
20
21.249579
11
16.018393
21
21.717727
0
LINE
8
Layer 1
10
16.018393
20
21.717727
11
16.486518
21
22.412071
0
LINE
8
Layer 1
10
16.486518
20
22.412071
11
16.658170
21
23.262340
0
LINE
8
Layer 1
10
-4.347420
20
40.367300
11
-4.347420
21
44.318500
0
LINE
8
Layer 1
10
12.450400
20
44.318500
11
8.502010
21
44.318500
0
LINE
8
Layer 1
10
-4.347420
20
44.318500
11
-8.295790
21
44.318500
0
LINE
8
Layer 1
10
-8.295790
20
40.367300
11
-4.347420
21
40.367300
0
LINE
8
Layer 1
10
-8.295790
20
44.318500
11
-8.295790
21
40.370100
0
LINE
8
Layer 1
10
-6.952430
20
38.942200
11
-6.952430
21
34.993800
0
LINE
8
Layer 1
10
12.450400
20
40.367300
11
12.450400
21
44.318500
0
LINE
8
Layer 1
10
-1.956740
20
49.110600
11
14.474060
21
47.479780
0
LINE
8
Layer 1
10
9.173690
20
34.990900
11
13.122100
21
34.990900
0
LINE
8
Layer 1
10
9.173690
20
38.942200
11
9.173690
21
34.993800
0
LINE
8
Layer 1
10
-12.328800
20
34.990900
11
-8.380380
21
34.990900
0
LINE
8
Layer 1
10
-15.805400
20
44.665500
11
-15.805400
21
47.479800
0
LINE
8
Layer 1
10
-5.693650
20
33.565800
11
-9.642020
21
33.565800
0
LINE
8
Layer 1
10
-5.693650
20
29.614600
11
-5.693650
21
33.565800
0
LINE
8
Layer 1
10
-12.328800
20
38.942200
11
-12.328800
21
34.993800
0
LINE
8
Layer 1
10
-8.380380
20
34.990900
11
-8.380380
21
38.942200
0
LINE
8
Layer 1
10
8.420290
20
28.189500
11
4.471910
21
28.189500
0
LINE
8
Layer 1
10
7.833200
20
29.614600
11
11.781600
21
29.614600
0
LINE
8
Layer 1
10
-3.325910
20
46.802400
11
-1.956740
21
49.110640
0
LINE
8
Layer 1
10
-4.265700
20
33.565800
11
-4.265700
21
29.617500
0
LINE
8
Layer 1
10
-8.380380
20
38.942200
11
-12.328800
21
38.942200
0
LINE
8
Layer 1
10
8.420290
20
24.238300
11
8.420290
21
28.189500
0
LINE
8
Layer 1
10
4.471910
20
28.189500
11
4.471910
21
24.241100
0
LINE
8
Layer 1
10
5.059010
20
29.614600
11
5.059010
21
33.565800
0
LINE
8
Layer 1
10
5.059010
20
33.565800
11
1.110630
21
33.565800
0
LINE
8
Layer 1
10
2.372280
20
34.990900
11
2.372280
21
38.942200
0
LINE
8
Layer 1
10
-9.642020
20
33.565800
11
-9.642020
21
29.617500
0
LINE
8
Layer 1
10
-1.576100
20
38.942200
11
-1.576100
21
34.993800
0
LINE
8
Layer 1
10
-15.802600
20
28.172300
11
-15.805400
21
44.665500
0
LINE
8
Layer 1
10
-10.985400
20
28.189500
11
-10.985400
21
24.241100
0
LINE
8
Layer 1
10
-9.726610
20
44.318500
11
-13.675000
21
44.318500
0
LINE
8
Layer 1
10
-1.576100
20
34.990900
11
2.372280
21
34.990900
0
LINE
8
Layer 1
10
7.748610
20
38.942200
11
3.800230
21
38.942200
0
LINE
8
Layer 1
10
7.748610
20
34.990900
11
7.748610
21
38.942200
0
LINE
8
Layer 1
10
8.502010
20
40.367300
11
12.450400
21
40.367300
0
LINE
8
Layer 1
10
8.502010
20
44.318500
11
8.502010
21
40.370100
0
LINE
8
Layer 1
10
-9.642020
20
29.614600
11
-5.693650
21
29.614600
0
LINE
8
Layer 1
10
2.372280
20
38.942200
11
-1.576100
21
38.942200
0
LINE
8
Layer 1
10
16.658100
20
45.295400
11
16.486448
21
46.145669
0
LINE
8
Layer 1
10
16.486448
20
46.145669
11
16.018323
21
46.840013
0
LINE
8
Layer 1
10
16.018323
20
46.840013
11
15.323994
21
47.308161
0
LINE
8
Layer 1
10
15.323994
20
47.308161
11
14.473730
21
47.479840
0
LINE
8
Layer 1
10
1.026050
20
44.318500
11
-2.922330
21
44.318500
0
LINE
8
Layer 1
10
-2.922330
20
40.367300
11
1.026050
21
40.367300
0
LINE
8
Layer 1
10
2.454000
20
44.318500
11
2.454000
21
40.370100
0
LINE
8
Layer 1
10
3.800230
20
34.990900
11
7.748610
21
34.990900
0
LINE
8
Layer 1
10
3.800230
20
38.942200
11
3.800230
21
34.993800
0
LINE
8
Layer 1
10
-9.726610
20
40.367300
11
-9.726610
21
44.318500
0
LINE
8
Layer 1
10
-13.675000
20
40.367300
11
-9.726610
21
40.367300
0
LINE
8
Layer 1
10
6.402380
20
44.318500
11
2.454000
21
44.318500
0
LINE
8
Layer 1
10
-10.985400
20
24.238300
11
-7.037010
21
24.238300
0
LINE
8
Layer 1
10
0.354364
20
28.189500
11
-3.594010
21
28.189500
0
LINE
8
Layer 1
10
0.354364
20
24.238300
11
0.354364
21
28.189500
0
LINE
8
Layer 1
10
-3.594010
20
28.189500
11
-3.594010
21
24.241100
0
LINE
8
Layer 1
10
11.781600
20
33.565800
11
7.833200
21
33.565800
0
LINE
8
Layer 1
10
1.110630
20
29.614600
11
5.059010
21
29.614600
0
LINE
8
Layer 1
10
4.471910
20
24.238300
11
8.420290
21
24.238300
0
LINE
8
Layer 1
10
7.833200
20
33.565800
11
7.833200
21
29.617500
0
LINE
8
Layer 1
10
-3.004050
20
38.942200
11
-6.952430
21
38.942200
0
LINE
8
Layer 1
10
-3.004050
20
34.990900
11
-3.004050
21
38.942200
0
LINE
8
Layer 1
10
-7.037010
20
28.189500
11
-10.985400
21
28.189500
0
LINE
8
Layer 1
10
-7.037010
20
24.238300
11
-7.037010
21
28.189500
0
LINE
8
Layer 1
10
-13.675000
20
44.318500
11
-13.675000
21
40.370100
0
LINE
8
Layer 1
10
-6.952430
20
34.990900
11
-3.004050
21
34.990900
0
LINE
8
Layer 1
10
-15.802600
20
47.479800
11
-4.474300
21
47.479800
0
LINE
8
Layer 1
10
-3.594010
20
24.238300
11
0.354364
21
24.238300
0
LINE
8
Layer 1
10
6.402380
20
40.367300
11
6.402380
21
44.318500
0
LINE
8
Layer 1
10
1.026050
20
40.367300
11
1.026050
21
44.318500
0
LINE
8
Layer 1
10
2.454000
20
40.367300
11
6.402380
21
40.367300
0
LINE
8
Layer 1
10
-2.922330
20
44.318500
11
-2.922330
21
40.370100
0
LINE
8
Layer 1
10
103.851000
20
51.579700
11
109.216000
21
51.579700
0
LINE
8
Layer 1
10
109.216000
20
51.579700
11
109.216000
21
54.277900
0
LINE
8
Layer 1
10
99.067700
20
50.247800
11
103.851000
21
50.247800
0
LINE
8
Layer 1
10
115.428000
20
52.962500
11
123.028000
21
52.962500
0
LINE
8
Layer 1
10
109.216000
20
54.277900
11
115.428000
21
54.277900
0
LINE
8
Layer 1
10
103.851000
20
50.247800
11
103.851000
21
51.579700
0
LINE
8
Layer 1
10
97.303600
20
61.401200
11
96.626183
21
60.252820
0
LINE
8
Layer 1
10
118.066000
20
51.085800
11
115.932670
21
48.952470
0
LINE
8
Layer 1
10
120.200000
20
48.952500
11
118.065960
21
51.085830
0
LINE
8
Layer 1
10
115.428000
20
54.277900
11
115.428000
21
52.962500
0
LINE
8
Layer 1
10
123.028000
20
48.923800
11
120.200000
21
48.923800
0
LINE
8
Layer 1
10
99.053400
20
60.362500
11
97.303580
21
61.401210
0
LINE
8
Layer 1
10
99.067700
20
50.247800
11
99.053363
21
60.362500
0
LINE
8
Layer 1
10
96.626100
20
48.923800
11
96.626100
21
60.252800
0
LINE
8
Layer 1
10
115.933000
20
48.923800
11
115.933000
21
48.952500
0
LINE
8
Layer 1
10
101.574000
20
46.787600
11
103.707330
21
48.921640
0
LINE
8
Layer 1
10
99.439800
20
48.921600
11
101.573840
21
46.787560
0
LINE
8
Layer 1
10
99.439800
20
48.921600
11
96.626100
21
48.921600
0
LINE
8
Layer 1
10
123.028000
20
48.923800
11
123.028000
21
52.962500
0
LINE
8
Layer 1
10
115.933000
20
48.923800
11
103.707000
21
48.923800
0
LINE
8
Layer 1
10
120.200000
20
48.923800
11
120.200000
21
48.952500
0
LINE
8
Layer 1
10
-30.471200
20
33.395700
11
-30.443200
21
33.395700
0
LINE
8
Layer 1
10
-30.474100
20
54.155500
11
-30.474100
21
56.969800
0
LINE
8
Layer 1
10
-30.471200
20
30.567700
11
-26.432500
21
30.567700
0
LINE
8
Layer 1
10
-30.471200
20
37.662300
11
-30.471200
21
49.888800
0
LINE
8
Layer 1
10
-27.815300
20
44.379900
11
-25.117800
21
44.379900
0
LINE
8
Layer 1
10
-26.432500
20
38.167700
11
-26.432500
21
30.567700
0
LINE
8
Layer 1
10
-25.117800
20
44.379900
11
-25.117800
21
38.167700
0
LINE
8
Layer 1
10
-29.147900
20
49.744700
11
-27.815300
21
49.744700
0
LINE
8
Layer 1
10
-17.994500
20
56.292400
11
-19.142880
21
56.969817
0
LINE
8
Layer 1
10
-28.309200
20
35.529000
11
-30.443240
21
37.662330
0
LINE
8
Layer 1
10
-30.443200
20
33.395700
11
-28.309160
21
35.529030
0
LINE
8
Layer 1
10
-25.117800
20
38.167700
11
-26.432500
21
38.167700
0
LINE
8
Layer 1
10
-30.471200
20
30.567700
11
-30.471200
21
33.395700
0
LINE
8
Layer 1
10
-19.032500
20
54.542600
11
-17.994510
21
56.292420
0
LINE
8
Layer 1
10
-29.147900
20
54.528200
11
-19.032500
21
54.542537
0
LINE
8
Layer 1
10
-30.471200
20
56.969800
11
-19.142900
21
56.969800
0
LINE
8
Layer 1
10
-30.471200
20
37.662300
11
-30.443200
21
37.662300
0
LINE
8
Layer 1
10
-32.607400
20
52.022100
11
-30.474070
21
49.888770
0
LINE
8
Layer 1
10
-30.474100
20
54.155500
11
-32.607430
21
52.022170
0
LINE
8
Layer 1
10
-27.815300
20
49.744700
11
-27.815300
21
44.379900
0
LINE
8
Layer 1
10
-29.147900
20
54.528200
11
-29.147900
21
49.744700
0
LINE
8
Layer 1
10
-68.135100
20
-142.525000
11
-68.135100
21
-125.333000
0
LINE
8
Layer 1
10
-65.448300
20
-142.052000
11
-37.922900
21
-142.052000
0
LINE
8
Layer 1
10
-68.135100
20
-125.333000
11
-65.448300
21
-125.333000
0
LINE
8
Layer 1
10
-37.922900
20
-142.052000
11
-37.922900
21
-144.710000
0
LINE
8
Layer 1
10
-37.922900
20
-144.710000
11
-65.950800
21
-144.710000
0
LINE
8
Layer 1
10
-68.135800
20
-142.526000
11
-67.969414
21
-143.362000
0
LINE
8
Layer 1
10
-67.969414
20
-143.362000
11
-67.495744
21
-144.070673
0
LINE
8
Layer 1
10
-67.495744
20
-144.070673
11
-66.786915
21
-144.544109
0
LINE
8
Layer 1
10
-66.786915
20
-144.544109
11
-65.950860
21
-144.710220
0
LINE
8
Layer 1
10
-65.448300
20
-125.333000
11
-65.448300
21
-142.052000
0
LINE
8
Layer 1
10
45.596700
20
-1067.400000
11
45.596700
21
-1063.820000
0
LINE
8
Layer 1
10
55.762100
20
-1064.800000
11
96.946600
21
-1064.800000
0
LINE
8
Layer 1
10
96.946600
20
-1064.800000
11
96.946600
21
-1085.130000
0
LINE
8
Layer 1
10
45.596700
20
-1082.100000
11
55.740400
21
-1082.100000
0
LINE
8
Layer 1
10
55.740400
20
-1082.100000
11
55.740400
21
-1085.130000
0
LINE
8
Layer 1
10
55.740400
20
-1085.130000
11
96.946600
21
-1085.130000
0
LINE
8
Layer 1
10
55.762100
20
-1064.800000
11
55.762100
21
-1067.400000
0
LINE
8
Layer 1
10
55.762100
20
-1067.400000
11
45.596700
21
-1067.400000
0
LINE
8
Layer 1
10
53.852000
20
-1055.560000
11
52.233508
21
-1055.719772
0
LINE
8
Layer 1
10
52.233508
20
-1055.719772
11
50.691918
21
-1056.187903
0
LINE
8
Layer 1
10
50.691918
20
-1056.187903
11
49.270565
21
-1056.946454
0
LINE
8
Layer 1
10
49.270565
20
-1056.946454
11
48.012781
21
-1057.977484
0
LINE
8
Layer 1
10
48.012781
20
-1057.977484
11
46.981463
21
-1059.235033
0
LINE
8
Layer 1
10
46.981463
20
-1059.235033
11
46.222587
21
-1060.656212
0
LINE
8
Layer 1
10
46.222587
20
-1060.656212
11
45.754102
21
-1062.197694
0
LINE
8
Layer 1
10
45.754102
20
-1062.197694
11
45.593960
21
-1063.816150
0
LINE
8
Layer 1
10
120.092000
20
-1055.550000
11
178.437400
21
-1055.560724
0
LINE
8
Layer 1
10
110.726000
20
-1049.550000
11
53.851700
21
-1055.567420
0
LINE
8
Layer 1
10
111.805000
20
-1051.400000
11
110.726690
21
-1049.544110
0
LINE
8
Layer 1
10
45.594000
20
-1087.000000
11
45.754142
21
-1088.618456
0
LINE
8
Layer 1
10
45.754142
20
-1088.618456
11
46.222627
21
-1090.159938
0
LINE
8
Layer 1
10
46.222627
20
-1090.159938
11
46.981503
21
-1091.581117
0
LINE
8
Layer 1
10
46.981503
20
-1091.581117
11
48.012821
21
-1092.838666
0
LINE
8
Layer 1
10
48.012821
20
-1092.838666
11
49.270605
21
-1093.869696
0
LINE
8
Layer 1
10
49.270605
20
-1093.869696
11
50.691958
21
-1094.628247
0
LINE
8
Layer 1
10
50.691958
20
-1094.628247
11
52.233548
21
-1095.096378
0
LINE
8
Layer 1
10
52.233548
20
-1095.096378
11
53.852040
21
-1095.256150
0
LINE
8
Layer 1
10
45.596700
20
-1087.000000
11
45.596700
21
-1082.100000
0
LINE
8
Layer 1
10
178.438000
20
-1055.560000
11
178.438000
21
-1066.230000
0
LINE
8
Layer 1
10
178.438000
20
-1095.250000
11
53.852000
21
-1095.250000
0
LINE
8
Layer 1
10
115.785000
20
-1058.020000
11
120.092840
21
-1055.557220
0
LINE
8
Layer 1
10
178.438000
20
-1066.230000
11
178.438000
21
-1095.250000
0
LINE
8
Layer 1
10
111.805000
20
-1051.400000
11
115.785010
21
-1058.013480
0
LINE
8
Layer 1
10
336.221000
20
-1067.700000
11
336.221000
21
-1063.820000
0
LINE
8
Layer 1
10
336.221000
20
-1082.400000
11
324.679000
21
-1082.400000
0
LINE
8
Layer 1
10
324.679000
20
-1082.400000
11
324.679000
21
-1085.130000
0
LINE
8
Layer 1
10
324.679000
20
-1085.130000
11
284.893000
21
-1085.130000
0
LINE
8
Layer 1
10
284.893000
20
-1085.130000
11
284.893000
21
-1064.820000
0
LINE
8
Layer 1
10
284.893000
20
-1064.820000
11
324.647000
21
-1064.820000
0
LINE
8
Layer 1
10
324.647000
20
-1064.820000
11
324.647000
21
-1067.700000
0
LINE
8
Layer 1
10
324.647000
20
-1067.700000
11
336.221000
21
-1067.700000
0
LINE
8
Layer 1
10
327.963000
20
-1095.260000
11
329.626874
21
-1095.092281
0
LINE
8
Layer 1
10
329.626874
20
-1095.092281
11
331.176616
21
-1094.611232
0
LINE
8
Layer 1
10
331.176616
20
-1094.611232
11
332.579027
21
-1093.850051
0
LINE
8
Layer 1
10
332.579027
20
-1093.850051
11
333.800909
21
-1092.841936
0
LINE
8
Layer 1
10
333.800909
20
-1092.841936
11
334.809061
21
-1091.620085
0
LINE
8
Layer 1
10
334.809061
20
-1091.620085
11
335.570285
21
-1090.217696
0
LINE
8
Layer 1
10
335.570285
20
-1090.217696
11
336.051381
21
-1088.667969
0
LINE
8
Layer 1
10
336.051381
20
-1088.667969
11
336.219150
21
-1087.004100
0
LINE
8
Layer 1
10
327.963000
20
-1095.250000
11
213.521000
21
-1095.250000
0
LINE
8
Layer 1
10
213.521000
20
-1095.250000
11
213.521000
21
-1066.200000
0
LINE
8
Layer 1
10
213.532000
20
-1055.560000
11
256.347000
21
-1055.560000
0
LINE
8
Layer 1
10
260.690000
20
-1058.120000
11
256.346940
21
-1055.562390
0
LINE
8
Layer 1
10
336.221000
20
-1082.400000
11
336.221000
21
-1087.000000
0
LINE
8
Layer 1
10
265.863000
20
-1049.400000
11
327.963600
21
-1055.563730
0
LINE
8
Layer 1
10
213.521000
20
-1066.200000
11
213.521000
21
-1055.560000
0
LINE
8
Layer 1
10
260.690000
20
-1058.120000
11
265.862110
21
-1049.395950
0
LINE
8
Layer 1
10
336.219000
20
-1063.820000
11
336.051226
21
-1062.156136
0
LINE
8
Layer 1
10
336.051226
20
-1062.156136
11
335.570126
21
-1060.606413
0
LINE
8
Layer 1
10
335.570126
20
-1060.606413
11
334.808901
21
-1059.204030
0
LINE
8
Layer 1
10
334.808901
20
-1059.204030
11
333.800748
21
-1057.982184
0
LINE
8
Layer 1
10
333.800748
20
-1057.982184
11
332.578868
21
-1056.974073
0
LINE
8
Layer 1
10
332.578868
20
-1056.974073
11
331.176459
21
-1056.212895
0
LINE
8
Layer 1
10
331.176459
20
-1056.212895
11
329.626720
21
-1055.731848
0
LINE
8
Layer 1
10
329.626720
20
-1055.731848
11
327.962850
21
-1055.564130
 0 
ENDSEC
 0 
EOF