999
"DXF R12 Output" (www.mydxf.blogspot.com)
 0 
SECTION
 2 
HEADER
 9 
$ACADVER
 1 
AC1009
 9 
$EXTMIN
 10 
 0 
 20 
 0 
 9 
$EXTMAX
 10 
 8.5 
 20 
 11 
 0 
ENDSEC
 0 
SECTION
 2 
ENTITIES
0
LINE
8
Layer 1
10
-58.036900
20
-77.284700
11
-51.755200
21
-73.742770
0
LINE
8
Layer 1
10
-69.272700
20
-77.978700
11
-66.586000
21
-77.978700
0
LINE
8
Layer 1
10
-58.036900
20
-77.284700
11
-66.586000
21
-77.284700
0
LINE
8
Layer 1
10
-69.272700
20
-77.027400
11
-69.272700
21
-77.978700
0
LINE
8
Layer 1
10
-52.039800
20
-73.251800
11
-67.087800
21
-74.843190
0
LINE
8
Layer 1
10
-51.755200
20
-73.742800
11
-52.039787
21
-73.251762
0
LINE
8
Layer 1
10
-66.586000
20
-77.284700
11
-66.586000
21
-77.978700
0
LINE
8
Layer 1
10
-67.088500
20
-74.843900
11
-67.938662
21
-75.015600
0
LINE
8
Layer 1
10
-67.938662
20
-75.015600
11
-68.632918
21
-75.483702
0
LINE
8
Layer 1
10
-68.632918
20
-75.483702
11
-69.101020
21
-76.177958
0
LINE
8
Layer 1
10
-69.101020
20
-76.177958
11
-69.272720
21
-77.028120
0
LINE
8
Layer 1
10
-67.697800
20
-39.382300
11
-65.011000
21
-39.382300
0
LINE
8
Layer 1
10
-56.462700
20
-38.687700
11
-65.011000
21
-38.687700
0
LINE
8
Layer 1
10
-67.697800
20
-38.431100
11
-67.697800
21
-39.382300
0
LINE
8
Layer 1
10
-50.464800
20
-34.654800
11
-65.513500
21
-36.246910
0
LINE
8
Layer 1
10
-50.180300
20
-35.145800
11
-50.464887
21
-34.654762
0
LINE
8
Layer 1
10
-65.011000
20
-38.687700
11
-65.011000
21
-39.382300
0
LINE
8
Layer 1
10
-65.513600
20
-36.247000
11
-66.363799
21
-36.418715
0
LINE
8
Layer 1
10
-66.363799
20
-36.418715
11
-67.058071
21
-36.886855
0
LINE
8
Layer 1
10
-67.058071
20
-36.886855
11
-67.526163
21
-37.581160
0
LINE
8
Layer 1
10
-67.526163
20
-37.581160
11
-67.697820
21
-38.431370
0
LINE
8
Layer 1
10
-56.462700
20
-38.687700
11
-50.180280
21
-35.145770
0
LINE
8
Layer 1
10
12.594500
20
-141.140000
11
12.594500
21
-124.585000
0
LINE
8
Layer 1
10
15.648200
20
-124.585000
11
15.648200
21
-141.699000
0
LINE
8
Layer 1
10
13.463400
20
-143.884000
11
14.299468
21
-143.717677
0
LINE
8
Layer 1
10
14.299468
20
-143.717677
11
15.008215
21
-143.244021
0
LINE
8
Layer 1
10
15.008215
20
-143.244021
11
15.481708
21
-142.535166
0
LINE
8
Layer 1
10
15.481708
20
-142.535166
11
15.647840
21
-141.699060
0
LINE
8
Layer 1
10
12.594500
20
-124.585000
11
15.648200
21
-124.585000
0
LINE
8
Layer 1
10
13.464000
20
-143.883000
11
-12.774600
21
-143.883000
0
LINE
8
Layer 1
10
-12.774600
20
-141.140000
11
12.594500
21
-141.140000
0
LINE
8
Layer 1
10
-12.774600
20
-141.140000
11
-12.774600
21
-143.883000
0
LINE
8
Layer 1
10
-38.329400
20
-17.518600
11
-38.329400
21
-20.176700
0
LINE
8
Layer 1
10
-65.854800
20
-17.518600
11
-38.329400
21
-17.518600
0
LINE
8
Layer 1
10
-68.541500
20
3.088510
11
-65.854800
21
3.088510
0
LINE
8
Layer 1
10
-68.541500
20
-17.992400
11
-68.541500
21
3.088510
0
LINE
8
Layer 1
10
-38.329400
20
-20.176700
11
-66.357300
21
-20.176700
0
LINE
8
Layer 1
10
-68.542200
20
-17.992900
11
-68.375857
21
-18.828946
0
LINE
8
Layer 1
10
-68.375857
20
-18.828946
11
-67.902197
21
-19.537670
0
LINE
8
Layer 1
10
-67.902197
20
-19.537670
11
-67.193349
21
-20.011145
0
LINE
8
Layer 1
10
-67.193349
20
-20.011145
11
-66.357260
21
-20.177270
0
LINE
8
Layer 1
10
-65.854800
20
3.088510
11
-65.854800
21
-17.518600
0
LINE
8
Layer 1
10
-64.173100
20
-185.932000
11
-65.023262
21
-186.103700
0
LINE
8
Layer 1
10
-65.023262
20
-186.103700
11
-65.717518
21
-186.571802
0
LINE
8
Layer 1
10
-65.717518
20
-186.571802
11
-66.185620
21
-187.266058
0
LINE
8
Layer 1
10
-66.185620
20
-187.266058
11
-66.357320
21
-188.116220
0
LINE
8
Layer 1
10
-46.646900
20
-185.929000
11
-31.209000
21
-185.931879
0
LINE
8
Layer 1
10
-49.124400
20
-184.340000
11
-64.173100
21
-185.932110
0
LINE
8
Layer 1
10
-48.839800
20
-184.831000
11
-49.124387
21
-184.339962
0
LINE
8
Layer 1
10
-66.357300
20
-194.249000
11
-66.185600
21
-195.099162
0
LINE
8
Layer 1
10
-66.185600
20
-195.099162
11
-65.717498
21
-195.793418
0
LINE
8
Layer 1
10
-65.717498
20
-195.793418
11
-65.023242
21
-196.261520
0
LINE
8
Layer 1
10
-65.023242
20
-196.261520
11
-64.173080
21
-196.433220
0
LINE
8
Layer 1
10
-66.357300
20
-194.249000
11
-66.357300
21
-188.116000
0
LINE
8
Layer 1
10
-31.209000
20
-185.932000
11
-31.209000
21
-188.754000
0
LINE
8
Layer 1
10
-31.209000
20
-196.433000
11
-64.172300
21
-196.433000
0
LINE
8
Layer 1
10
-47.786700
20
-186.580000
11
-46.646920
21
-185.928389
0
LINE
8
Layer 1
10
-31.209000
20
-188.754000
11
-31.209000
21
-196.433000
0
LINE
8
Layer 1
10
-48.839800
20
-184.831000
11
-47.786760
21
-186.580820
0
LINE
8
Layer 1
10
8.352330
20
-196.434000
11
9.188421
21
-196.267680
0
LINE
8
Layer 1
10
9.188421
20
-196.267680
11
9.897186
21
-195.794011
0
LINE
8
Layer 1
10
9.897186
20
-195.794011
11
10.370683
21
-195.085131
0
LINE
8
Layer 1
10
10.370683
20
-195.085131
11
10.536800
21
-194.249000
0
LINE
8
Layer 1
10
8.352910
20
-196.433000
11
-21.926600
21
-196.433000
0
LINE
8
Layer 1
10
-21.926600
20
-196.433000
11
-21.926600
21
-188.745000
0
LINE
8
Layer 1
10
-21.923700
20
-185.932000
11
-10.595400
21
-185.932000
0
LINE
8
Layer 1
10
-9.447040
20
-186.609000
11
-10.595420
21
-185.931583
0
LINE
8
Layer 1
10
10.537100
20
-188.116000
11
10.537100
21
-194.249000
0
LINE
8
Layer 1
10
-8.078590
20
-184.300000
11
8.352910
21
-185.931540
0
LINE
8
Layer 1
10
-21.926600
20
-188.745000
11
-21.926600
21
-185.932000
0
LINE
8
Layer 1
10
-9.447040
20
-186.609000
11
-8.078590
21
-184.300050
0
LINE
8
Layer 1
10
10.536800
20
-188.116000
11
10.365078
21
-187.265785
0
LINE
8
Layer 1
10
10.365078
20
-187.265785
11
9.896920
21
-186.571504
0
LINE
8
Layer 1
10
9.896920
20
-186.571504
11
9.202593
21
-186.103417
0
LINE
8
Layer 1
10
9.202593
20
-186.103417
11
8.352360
21
-185.931780
0
LINE
8
Layer 1
10
-50.950900
20
-154.639000
11
-50.950900
21
-160.018000
0
LINE
8
Layer 1
10
-64.536500
20
-154.376000
11
-64.536500
21
-155.328000
0
LINE
8
Layer 1
10
-61.846900
20
-155.328000
11
-64.536500
21
-155.328000
0
LINE
8
Layer 1
10
-61.846900
20
-154.639000
11
-61.846900
21
-155.328000
0
LINE
8
Layer 1
10
-50.950900
20
-154.639000
11
-61.846900
21
-154.639000
0
LINE
8
Layer 1
10
-61.852600
20
-160.018000
11
-50.950900
21
-160.018000
0
LINE
8
Layer 1
10
-61.852600
20
-159.216000
11
-61.852600
21
-160.018000
0
LINE
8
Layer 1
10
-64.536500
20
-159.216000
11
-61.852600
21
-159.216000
0
LINE
8
Layer 1
10
-64.537200
20
-176.410000
11
-64.365500
21
-177.260162
0
LINE
8
Layer 1
10
-64.365500
20
-177.260162
11
-63.897398
21
-177.954418
0
LINE
8
Layer 1
10
-63.897398
20
-177.954418
11
-63.203142
21
-178.422520
0
LINE
8
Layer 1
10
-63.203142
20
-178.422520
11
-62.352980
21
-178.594220
0
LINE
8
Layer 1
10
-29.388900
20
-171.482000
11
-29.388900
21
-178.593000
0
LINE
8
Layer 1
10
-47.019000
20
-151.091000
11
-47.304304
21
-150.599962
0
LINE
8
Layer 1
10
-45.966700
20
-152.841000
11
-44.826200
21
-152.189389
0
LINE
8
Layer 1
10
-29.388900
20
-155.014000
11
-29.388900
21
-171.482000
0
LINE
8
Layer 1
10
-62.353000
20
-152.192000
11
-63.189000
21
-152.358386
0
LINE
8
Layer 1
10
-63.189000
20
-152.358386
11
-63.897673
21
-152.832056
0
LINE
8
Layer 1
10
-63.897673
20
-152.832056
11
-64.371109
21
-153.540885
0
LINE
8
Layer 1
10
-64.371109
20
-153.540885
11
-64.537220
21
-154.376940
0
LINE
8
Layer 1
10
-64.536500
20
-176.409000
11
-64.536500
21
-159.216000
0
LINE
8
Layer 1
10
-29.388900
20
-152.192000
11
-29.388900
21
-155.014000
0
LINE
8
Layer 1
10
-29.388900
20
-178.593000
11
-62.352300
21
-178.593000
0
LINE
8
Layer 1
10
-44.826200
20
-152.189000
11
-29.389000
21
-152.191879
0
LINE
8
Layer 1
10
-47.304300
20
-150.600000
11
-62.352300
21
-152.192110
0
LINE
8
Layer 1
10
-47.019000
20
-151.091000
11
-45.966670
21
-152.840820
0
LINE
8
Layer 1
10
-6.483610
20
-150.942000
11
-7.626980
21
-152.869590
0
LINE
8
Layer 1
10
12.357200
20
-155.404000
11
12.357200
21
-154.376000
0
LINE
8
Layer 1
10
9.295560
20
-155.404000
11
12.357200
21
-155.404000
0
LINE
8
Layer 1
10
9.295560
20
-154.642000
11
9.295560
21
-155.404000
0
LINE
8
Layer 1
10
-1.223410
20
-154.642000
11
9.295560
21
-154.642000
0
LINE
8
Layer 1
10
-1.223410
20
-160.015000
11
-1.223410
21
-154.642000
0
LINE
8
Layer 1
10
9.303440
20
-160.015000
11
-1.223410
21
-160.015000
0
LINE
8
Layer 1
10
9.303440
20
-159.292000
11
9.303440
21
-160.015000
0
LINE
8
Layer 1
10
12.357200
20
-159.292000
11
9.303440
21
-159.292000
0
LINE
8
Layer 1
10
10.173000
20
-178.593000
11
-20.103600
21
-178.593000
0
LINE
8
Layer 1
10
-20.103600
20
-178.593000
11
-20.103600
21
-171.499000
0
LINE
8
Layer 1
10
-6.483610
20
-150.942000
11
-6.257804
21
-150.560639
0
LINE
8
Layer 1
10
-20.103600
20
-171.499000
11
-20.106500
21
-155.006000
0
LINE
8
Layer 1
10
-20.103600
20
-152.192000
11
-8.775360
21
-152.192000
0
LINE
8
Layer 1
10
-7.626980
20
-152.869000
11
-8.775360
21
-152.191583
0
LINE
8
Layer 1
10
12.357200
20
-159.292000
11
12.357200
21
-176.409000
0
LINE
8
Layer 1
10
-6.257800
20
-150.561000
11
10.173000
21
-152.192000
0
LINE
8
Layer 1
10
-20.106500
20
-155.006000
11
-20.106500
21
-152.192000
0
LINE
8
Layer 1
10
10.172700
20
-178.594000
11
11.022910
21
-178.422343
0
LINE
8
Layer 1
10
11.022910
20
-178.422343
11
11.717215
21
-177.954251
0
LINE
8
Layer 1
10
11.717215
20
-177.954251
11
12.185355
21
-177.259979
0
LINE
8
Layer 1
10
12.185355
20
-177.259979
11
12.357070
21
-176.409780
0
LINE
8
Layer 1
10
12.357100
20
-154.377000
11
12.190989
21
-153.540885
0
LINE
8
Layer 1
10
12.190989
20
-153.540885
11
11.717510
21
-152.832014
0
LINE
8
Layer 1
10
11.717510
20
-152.832014
11
11.008769
21
-152.358340
0
LINE
8
Layer 1
10
11.008769
20
-152.358340
11
10.172700
21
-152.192000
0
LINE
8
Layer 1
10
8.804520
20
63.568600
11
8.804520
21
58.198000
0
LINE
8
Layer 1
10
12.871200
20
63.568600
11
8.804520
21
63.568600
0
LINE
8
Layer 1
10
-14.010500
20
74.321300
11
-14.010500
21
68.947800
0
LINE
8
Layer 1
10
-14.010500
20
68.947800
11
-11.320900
21
68.947800
0
LINE
8
Layer 1
10
-15.353800
20
79.700500
11
-15.353800
21
74.321300
0
LINE
8
Layer 1
10
-12.667100
20
63.568600
11
-12.661365
21
58.198010
0
LINE
8
Layer 1
10
12.871200
20
63.568600
11
12.871200
21
79.700500
0
LINE
8
Layer 1
10
-11.320900
20
68.947800
11
-11.320900
21
63.568600
0
LINE
8
Layer 1
10
-15.353800
20
74.321300
11
-14.010500
21
74.321300
0
LINE
8
Layer 1
10
-4.287920
20
81.470400
11
-5.436300
21
82.147800
0
LINE
8
Layer 1
10
15.696300
20
79.963600
11
15.696300
21
57.929900
0
LINE
8
Layer 1
10
13.511300
20
55.746100
11
14.347252
21
55.912375
0
LINE
8
Layer 1
10
14.347252
20
55.912375
11
15.055938
21
56.385902
0
LINE
8
Layer 1
10
15.055938
20
56.385902
11
15.529465
21
57.094588
0
LINE
8
Layer 1
10
15.529465
20
57.094588
11
15.695740
21
57.930540
0
LINE
8
Layer 1
10
13.512000
20
55.745700
11
-16.765300
21
55.745700
0
LINE
8
Layer 1
10
-11.320900
20
63.568600
11
-12.667100
21
63.568600
0
LINE
8
Layer 1
10
-2.919460
20
83.778600
11
13.512000
21
82.147800
0
LINE
8
Layer 1
10
-12.661400
20
58.198000
11
8.804520
21
58.198000
0
LINE
8
Layer 1
10
-16.765300
20
55.745700
11
-16.768167
21
75.061100
0
LINE
8
Layer 1
10
-15.353800
20
79.700500
11
12.871200
21
79.700500
0
LINE
8
Layer 1
10
-16.765300
20
82.147800
11
-5.436300
21
82.147800
0
LINE
8
Layer 1
10
-4.287920
20
81.470400
11
-2.919470
21
83.778640
0
LINE
8
Layer 1
10
15.695800
20
79.963600
11
15.524066
21
80.813824
0
LINE
8
Layer 1
10
15.524066
20
80.813824
11
15.055892
21
81.508104
0
LINE
8
Layer 1
10
15.055892
20
81.508104
11
14.361547
21
81.976183
0
LINE
8
Layer 1
10
14.361547
20
81.976183
11
13.511300
21
82.147800
0
LINE
8
Layer 1
10
-16.768200
20
75.061100
11
-16.768200
21
82.147800
0
LINE
8
Layer 1
10
-54.334400
20
63.568600
11
-58.367300
21
63.568600
0
LINE
8
Layer 1
10
-54.334400
20
58.192300
11
-54.334400
21
63.568600
0
LINE
8
Layer 1
10
-30.139500
20
74.324100
11
-31.482800
21
74.324100
0
LINE
8
Layer 1
10
-27.452700
20
68.945000
11
-30.139500
21
68.945000
0
LINE
8
Layer 1
10
-41.487800
20
82.150700
11
-26.049900
21
82.147800
0
LINE
8
Layer 1
10
-30.139500
20
68.945000
11
-30.139500
21
74.324100
0
LINE
8
Layer 1
10
-61.198200
20
57.929900
11
-61.198200
21
79.962800
0
LINE
8
Layer 1
10
-26.049900
20
82.147800
11
-26.049900
21
58.590900
0
LINE
8
Layer 1
10
-28.804700
20
58.192300
11
-28.804700
21
63.568600
0
LINE
8
Layer 1
10
-28.804700
20
63.568600
11
-27.452700
21
63.568600
0
LINE
8
Layer 1
10
-54.334400
20
58.192300
11
-28.804700
21
58.192300
0
LINE
8
Layer 1
10
-26.049900
20
55.745700
11
-59.013900
21
55.745700
0
LINE
8
Layer 1
10
-43.965900
20
83.739200
11
-59.013900
21
82.147810
0
LINE
8
Layer 1
10
-58.367300
20
79.703300
11
-31.482800
21
79.703300
0
LINE
8
Layer 1
10
-43.680600
20
83.248100
11
-43.965904
21
83.739138
0
LINE
8
Layer 1
10
-42.627600
20
81.498300
11
-41.487820
21
82.150628
0
LINE
8
Layer 1
10
-59.013900
20
82.147800
11
-59.864062
21
81.976100
0
LINE
8
Layer 1
10
-59.864062
20
81.976100
11
-60.558318
21
81.507998
0
LINE
8
Layer 1
10
-60.558318
20
81.507998
11
-61.026420
21
80.813742
0
LINE
8
Layer 1
10
-61.026420
20
80.813742
11
-61.198120
21
79.963580
0
LINE
8
Layer 1
10
-61.198200
20
57.930500
11
-61.026563
21
57.080267
0
LINE
8
Layer 1
10
-61.026563
20
57.080267
11
-60.558476
21
56.385940
0
LINE
8
Layer 1
10
-60.558476
20
56.385940
11
-59.864195
21
55.917782
0
LINE
8
Layer 1
10
-59.864195
20
55.917782
11
-59.013980
21
55.746060
0
LINE
8
Layer 1
10
-43.680600
20
83.248100
11
-42.627560
21
81.498280
0
LINE
8
Layer 1
10
-31.482800
20
74.324100
11
-31.482800
21
79.703300
0
LINE
8
Layer 1
10
-58.367300
20
79.703300
11
-58.367300
21
63.568600
0
LINE
8
Layer 1
10
-27.452700
20
63.568600
11
-27.452700
21
68.945000
0
LINE
8
Layer 1
10
-26.049900
20
58.590900
11
-26.049900
21
55.745700
0
LINE
8
Layer 1
10
18.503800
20
-74.033900
11
18.337675
21
-73.197811
0
LINE
8
Layer 1
10
18.337675
20
-73.197811
11
17.864200
21
-72.488963
0
LINE
8
Layer 1
10
17.864200
20
-72.488963
11
17.155476
21
-72.015303
0
LINE
8
Layer 1
10
17.155476
20
-72.015303
11
16.319430
21
-71.848960
0
LINE
8
Layer 1
10
18.504100
20
-74.033100
11
18.504100
21
-75.063200
0
LINE
8
Layer 1
10
-0.110868
20
-70.217400
11
-0.333806
21
-70.601628
0
LINE
8
Layer 1
10
15.450400
20
-74.290500
11
6.351480
21
-74.290500
0
LINE
8
Layer 1
10
15.450400
20
-75.063200
11
18.504100
21
-75.063200
0
LINE
8
Layer 1
10
15.450400
20
-74.290500
11
15.450400
21
-75.063200
0
LINE
8
Layer 1
10
-0.110868
20
-70.217400
11
16.319932
21
-71.848940
0
LINE
8
Layer 1
10
6.351480
20
-74.290500
11
-0.333807
21
-70.601600
0
LINE
8
Layer 1
10
1.463320
20
-31.621100
11
1.240382
21
-32.004611
0
LINE
8
Layer 1
10
17.025300
20
-35.693500
11
7.926390
21
-35.693500
0
LINE
8
Layer 1
10
17.025300
20
-36.466900
11
20.079000
21
-36.466900
0
LINE
8
Layer 1
10
17.025300
20
-35.693500
11
17.025300
21
-36.466900
0
LINE
8
Layer 1
10
1.463320
20
-31.621100
11
17.894820
21
-33.251920
0
LINE
8
Layer 1
10
7.926390
20
-35.693500
11
1.240380
21
-32.004600
0
LINE
8
Layer 1
10
20.079000
20
-35.436800
11
20.079000
21
-36.466900
0
LINE
8
Layer 1
10
20.078700
20
-35.437000
11
19.907021
21
-34.586736
0
LINE
8
Layer 1
10
19.907021
20
-34.586736
11
19.438873
21
-33.892407
0
LINE
8
Layer 1
10
19.438873
20
-33.892407
11
18.744529
21
-33.424282
0
LINE
8
Layer 1
10
18.744529
20
-33.424282
11
17.894260
21
-33.252630
0
LINE
8
Layer 1
10
-65.682700
20
-121.131000
11
-62.996000
21
-121.131000
0
LINE
8
Layer 1
10
-54.447600
20
-120.437000
11
-62.996000
21
-120.437000
0
LINE
8
Layer 1
10
-65.682700
20
-120.179000
11
-65.682700
21
-121.131000
0
LINE
8
Layer 1
10
-48.449800
20
-116.404000
11
-63.498500
21
-117.995390
0
LINE
8
Layer 1
10
-48.165200
20
-116.895000
11
-48.449787
21
-116.403962
0
LINE
8
Layer 1
10
-62.996000
20
-120.437000
11
-62.996000
21
-121.131000
0
LINE
8
Layer 1
10
-63.498500
20
-117.996000
11
-64.348662
21
-118.167700
0
LINE
8
Layer 1
10
-64.348662
20
-118.167700
11
-65.042918
21
-118.635802
0
LINE
8
Layer 1
10
-65.042918
20
-118.635802
11
-65.511020
21
-119.330058
0
LINE
8
Layer 1
10
-65.511020
20
-119.330058
11
-65.682720
21
-120.180220
0
LINE
8
Layer 1
10
-54.447600
20
-120.437000
11
-48.165180
21
-116.895070
0
LINE
8
Layer 1
10
8.157930
20
-120.437000
11
-0.940973
21
-120.437000
0
LINE
8
Layer 1
10
8.157930
20
-121.209000
11
11.211700
21
-121.209000
0
LINE
8
Layer 1
10
8.157930
20
-120.437000
11
8.157930
21
-121.209000
0
LINE
8
Layer 1
10
-7.404040
20
-116.363000
11
9.027460
21
-117.994540
0
LINE
8
Layer 1
10
-0.940973
20
-120.437000
11
-7.626980
21
-116.748000
0
LINE
8
Layer 1
10
11.211700
20
-120.179000
11
11.211700
21
-121.209000
0
LINE
8
Layer 1
10
11.211300
20
-120.180000
11
11.045181
21
-119.343864
0
LINE
8
Layer 1
10
11.045181
20
-119.343864
11
10.571679
21
-118.634982
0
LINE
8
Layer 1
10
10.571679
20
-118.634982
11
9.862907
21
-118.161314
0
LINE
8
Layer 1
10
9.862907
20
-118.161314
11
9.026810
21
-117.995000
0
LINE
8
Layer 1
10
-7.404040
20
-116.363000
11
-7.626978
21
-116.747228
0
LINE
8
Layer 1
10
103.851000
20
51.579700
11
109.216000
21
51.579700
0
LINE
8
Layer 1
10
109.216000
20
51.579700
11
109.216000
21
54.277900
0
LINE
8
Layer 1
10
99.067700
20
50.247800
11
103.851000
21
50.247800
0
LINE
8
Layer 1
10
115.428000
20
52.962500
11
123.028000
21
52.962500
0
LINE
8
Layer 1
10
109.216000
20
54.277900
11
115.428000
21
54.277900
0
LINE
8
Layer 1
10
103.851000
20
50.247800
11
103.851000
21
51.579700
0
LINE
8
Layer 1
10
97.303600
20
61.401200
11
96.626183
21
60.252820
0
LINE
8
Layer 1
10
118.066000
20
51.085800
11
115.932670
21
48.952470
0
LINE
8
Layer 1
10
120.200000
20
48.952500
11
118.065960
21
51.085830
0
LINE
8
Layer 1
10
115.428000
20
54.277900
11
115.428000
21
52.962500
0
LINE
8
Layer 1
10
123.028000
20
48.923800
11
120.200000
21
48.923800
0
LINE
8
Layer 1
10
99.053400
20
60.362500
11
97.303580
21
61.401210
0
LINE
8
Layer 1
10
99.067700
20
50.247800
11
99.053363
21
60.362500
0
LINE
8
Layer 1
10
96.626100
20
48.923800
11
96.626100
21
60.252800
0
LINE
8
Layer 1
10
115.933000
20
48.923800
11
115.933000
21
48.952500
0
LINE
8
Layer 1
10
101.574000
20
46.787600
11
103.707330
21
48.921640
0
LINE
8
Layer 1
10
99.439800
20
48.921600
11
101.573840
21
46.787560
0
LINE
8
Layer 1
10
99.439800
20
48.921600
11
96.626100
21
48.921600
0
LINE
8
Layer 1
10
123.028000
20
48.923800
11
123.028000
21
52.962500
0
LINE
8
Layer 1
10
115.933000
20
48.923800
11
103.707000
21
48.923800
0
LINE
8
Layer 1
10
120.200000
20
48.923800
11
120.200000
21
48.952500
0
LINE
8
Layer 1
10
12.594500
20
-141.140000
11
12.594500
21
-124.585000
0
LINE
8
Layer 1
10
15.648200
20
-124.585000
11
15.648200
21
-141.699000
0
LINE
8
Layer 1
10
13.463400
20
-143.884000
11
14.299468
21
-143.717677
0
LINE
8
Layer 1
10
14.299468
20
-143.717677
11
15.008215
21
-143.244021
0
LINE
8
Layer 1
10
15.008215
20
-143.244021
11
15.481708
21
-142.535166
0
LINE
8
Layer 1
10
15.481708
20
-142.535166
11
15.647840
21
-141.699060
0
LINE
8
Layer 1
10
12.594500
20
-124.585000
11
15.648200
21
-124.585000
0
LINE
8
Layer 1
10
13.464000
20
-143.883000
11
-12.774600
21
-143.883000
0
LINE
8
Layer 1
10
-12.774600
20
-141.140000
11
12.594500
21
-141.140000
0
LINE
8
Layer 1
10
-12.774600
20
-141.140000
11
-12.774600
21
-143.883000
0
LINE
8
Layer 1
10
232.646000
20
-337.237000
11
228.612000
21
-337.237000
0
LINE
8
Layer 1
10
249.041000
20
-337.237000
11
233.893100
21
-337.247724
0
LINE
8
Layer 1
10
232.646000
20
-337.238000
11
232.349494
21
-337.716784
0
LINE
8
Layer 1
10
232.349494
20
-337.716784
11
232.377911
21
-338.279228
0
LINE
8
Layer 1
10
232.377911
20
-338.279228
11
232.721163
21
-338.725689
0
LINE
8
Layer 1
10
232.721163
20
-338.725689
11
233.257413
21
-338.897695
0
LINE
8
Layer 1
10
233.257413
20
-338.897695
11
233.796317
21
-338.734192
0
LINE
8
Layer 1
10
233.796317
20
-338.734192
11
234.146588
21
-338.293215
0
LINE
8
Layer 1
10
234.146588
20
-338.293215
11
234.183897
21
-337.731292
0
LINE
8
Layer 1
10
234.183897
20
-337.731292
11
233.895000
21
-337.247878
0
LINE
8
Layer 1
10
226.802000
20
-337.259000
11
226.904373
21
-337.740550
0
LINE
8
Layer 1
10
226.904373
20
-337.740550
11
227.243088
21
-338.097822
0
LINE
8
Layer 1
10
227.243088
20
-338.097822
11
227.718499
21
-338.225710
0
LINE
8
Layer 1
10
227.718499
20
-338.225710
11
228.190746
21
-338.086591
0
LINE
8
Layer 1
10
228.190746
20
-338.086591
11
228.520898
21
-337.721392
0
LINE
8
Layer 1
10
228.520898
20
-337.721392
11
228.611830
21
-337.237551
0
LINE
8
Layer 1
10
291.504000
20
-334.611000
11
291.504000
21
-338.207000
0
LINE
8
Layer 1
10
281.349000
20
-334.611000
11
291.504000
21
-334.611000
0
LINE
8
Layer 1
10
158.660000
20
-246.680000
11
177.317000
21
-246.680000
0
LINE
8
Layer 1
10
281.349000
20
-334.611000
11
281.349000
21
-337.237000
0
LINE
8
Layer 1
10
158.768000
20
-335.795000
11
166.830970
21
-327.732030
0
LINE
8
Layer 1
10
158.768000
20
-335.795000
11
158.660000
21
-335.795000
0
LINE
8
Layer 1
10
249.041000
20
-337.237000
11
281.349000
21
-337.237000
0
LINE
8
Layer 1
10
177.317000
20
-278.412000
11
164.721000
21
-278.412000
0
LINE
8
Layer 1
10
158.768000
20
-319.669000
11
158.660000
21
-319.669000
0
LINE
8
Layer 1
10
158.660000
20
-346.462000
11
158.660000
21
-335.795000
0
LINE
8
Layer 1
10
177.317000
20
-246.680000
11
177.317000
21
-278.412000
0
LINE
8
Layer 1
10
150.597000
20
-265.496000
11
158.659970
21
-273.558970
0
LINE
8
Layer 1
10
174.810000
20
-316.204000
11
179.782000
21
-316.204000
0
LINE
8
Layer 1
10
164.721000
20
-295.928000
11
174.810000
21
-295.928000
0
LINE
8
Layer 1
10
217.008000
20
-346.473000
11
158.659800
21
-346.462276
0
LINE
8
Layer 1
10
174.810000
20
-295.928000
11
174.810000
21
-316.204000
0
LINE
8
Layer 1
10
221.316000
20
-344.010000
11
217.008160
21
-346.472780
0
LINE
8
Layer 1
10
158.660000
20
-319.669000
11
158.660000
21
-273.559000
0
LINE
8
Layer 1
10
283.249000
20
-346.464000
11
284.912780
21
-346.296131
0
LINE
8
Layer 1
10
284.912780
20
-346.296131
11
286.462413
21
-345.814971
0
LINE
8
Layer 1
10
286.462413
20
-345.814971
11
287.864707
21
-345.053714
0
LINE
8
Layer 1
10
287.864707
20
-345.053714
11
289.086467
21
-344.045557
0
LINE
8
Layer 1
10
289.086467
20
-344.045557
11
290.094502
21
-342.823697
0
LINE
8
Layer 1
10
290.094502
20
-342.823697
11
290.855620
21
-341.421328
0
LINE
8
Layer 1
10
290.855620
20
-341.421328
11
291.336627
21
-339.871647
0
LINE
8
Layer 1
10
291.336627
20
-339.871647
11
291.504330
21
-338.207850
0
LINE
8
Layer 1
10
166.831000
20
-327.732000
11
158.768030
21
-319.669030
0
LINE
8
Layer 1
10
164.721000
20
-278.412000
11
164.721000
21
-295.928000
0
LINE
8
Layer 1
10
158.660000
20
-257.431000
11
158.660000
21
-246.680000
0
LINE
8
Layer 1
10
225.296000
20
-350.624000
11
226.374310
21
-352.479890
0
LINE
8
Layer 1
10
158.660000
20
-257.431000
11
150.597030
21
-265.496680
0
LINE
8
Layer 1
10
179.782000
20
-316.204000
11
179.782000
21
-337.237000
0
LINE
8
Layer 1
10
226.800000
20
-337.258000
11
217.499000
21
-337.258000
0
LINE
8
Layer 1
10
225.296000
20
-350.624000
11
221.315990
21
-344.010520
0
LINE
8
Layer 1
10
217.499000
20
-337.258000
11
179.782400
21
-337.236269
0
LINE
8
Layer 1
10
226.374000
20
-352.479000
11
283.248300
21
-346.461580
0
LINE
8
Layer 1
10
566.179000
20
-105.775000
11
576.082000
21
-105.775000
0
LINE
8
Layer 1
10
577.900000
20
-105.828000
11
577.831732
21
-105.324165
0
LINE
8
Layer 1
10
577.831732
20
-105.324165
11
577.505222
21
-104.934421
0
LINE
8
Layer 1
10
577.505222
20
-104.934421
11
577.021141
21
-104.778935
0
LINE
8
Layer 1
10
577.021141
20
-104.778935
11
576.528746
21
-104.905649
0
LINE
8
Layer 1
10
576.528746
20
-104.905649
11
576.179854
21
-105.275493
0
LINE
8
Layer 1
10
576.179854
20
-105.275493
11
576.082040
21
-105.774434
0
LINE
8
Layer 1
10
634.094000
20
-108.752000
11
645.636000
21
-108.752000
0
LINE
8
Layer 1
10
645.636000
20
-108.752000
11
645.636000
21
-104.859000
0
LINE
8
Layer 1
10
634.094000
20
-105.829000
11
634.094000
21
-108.752000
0
LINE
8
Layer 1
10
522.949000
20
-196.386000
11
538.211000
21
-196.386000
0
LINE
8
Layer 1
10
531.118000
20
-177.634000
11
523.055030
21
-169.568320
0
LINE
8
Layer 1
10
523.055000
20
-185.697000
11
531.117970
21
-177.634030
0
LINE
8
Layer 1
10
543.182000
20
-167.661000
11
538.211000
21
-167.661000
0
LINE
8
Layer 1
10
522.949000
20
-196.386000
11
522.949000
21
-185.697000
0
LINE
8
Layer 1
10
634.094000
20
-105.829000
11
599.704000
21
-105.829000
0
LINE
8
Layer 1
10
543.182000
20
-144.182000
11
543.182000
21
-167.661000
0
LINE
8
Layer 1
10
527.950000
20
-123.906000
11
532.984000
21
-123.906000
0
LINE
8
Layer 1
10
570.105000
20
-99.161400
11
565.764650
21
-96.601080
0
LINE
8
Layer 1
10
575.277000
20
-90.437400
11
637.380300
21
-96.601130
0
LINE
8
Layer 1
10
527.950000
20
-105.829000
11
527.950000
21
-123.906000
0
LINE
8
Layer 1
10
538.211000
20
-167.661000
11
538.211000
21
-196.386000
0
LINE
8
Layer 1
10
532.984000
20
-123.906000
11
532.984000
21
-144.182000
0
LINE
8
Layer 1
10
532.984000
20
-144.182000
11
543.182000
21
-144.182000
0
LINE
8
Layer 1
10
522.938000
20
-107.238000
11
522.938000
21
-96.601100
0
LINE
8
Layer 1
10
570.105000
20
-99.161400
11
575.277110
21
-90.437350
0
LINE
8
Layer 1
10
522.938000
20
-107.238000
11
514.872320
21
-115.300970
0
LINE
8
Layer 1
10
522.949000
20
-169.569000
11
522.949000
21
-123.361000
0
LINE
8
Layer 1
10
522.949000
20
-185.697000
11
523.055000
21
-185.697000
0
LINE
8
Layer 1
10
599.704000
20
-105.829000
11
577.902000
21
-105.829000
0
LINE
8
Layer 1
10
522.949000
20
-169.569000
11
523.055000
21
-169.569000
0
LINE
8
Layer 1
10
514.872000
20
-115.301000
11
522.937680
21
-123.361260
0
LINE
8
Layer 1
10
645.633000
20
-104.857000
11
645.465291
21
-103.193208
0
LINE
8
Layer 1
10
645.465291
20
-103.193208
11
644.984281
21
-101.643532
0
LINE
8
Layer 1
10
644.984281
20
-101.643532
11
644.223162
21
-100.241168
0
LINE
8
Layer 1
10
644.223162
20
-100.241168
11
643.215127
21
-99.019312
0
LINE
8
Layer 1
10
643.215127
20
-99.019312
11
641.993367
21
-98.011160
0
LINE
8
Layer 1
10
641.993367
20
-98.011160
11
640.591076
21
-97.249906
0
LINE
8
Layer 1
10
640.591076
20
-97.249906
11
639.041446
21
-96.768748
0
LINE
8
Layer 1
10
639.041446
20
-96.768748
11
637.377670
21
-96.600880
0
LINE
8
Layer 1
10
527.950000
20
-105.829000
11
566.178700
21
-105.774813
0
LINE
8
Layer 1
10
522.949000
20
-96.601100
11
565.764000
21
-96.601100
 0 
ENDSEC
 0 
EOF