G04 #@! TF.GenerationSoftware,KiCad,Pcbnew,(5.1.6-0-10_14)*
G04 #@! TF.CreationDate,2022-02-21T07:55:31+09:00*
G04 #@! TF.ProjectId,cool936,636f6f6c-3933-4362-9e6b-696361645f70,rev?*
G04 #@! TF.SameCoordinates,Original*
G04 #@! TF.FileFunction,Profile,NP*
%FSLAX46Y46*%
G04 Gerber Fmt 4.6, Leading zero omitted, Abs format (unit mm)*
G04 Created by KiCad (PCBNEW (5.1.6-0-10_14)) date 2022-02-21 07:55:31*
%MOMM*%
%LPD*%
G01*
G04 APERTURE LIST*
G04 #@! TA.AperFunction,Profile*
%ADD10C,0.150000*%
G04 #@! TD*
G04 #@! TA.AperFunction,Profile*
%ADD11C,0.120000*%
G04 #@! TD*
G04 APERTURE END LIST*
D10*
X19010000Y9240000D02*
X49190000Y9240000D01*
X70780000Y21390000D02*
X49190000Y9240000D01*
X77970000Y9240000D02*
X70780000Y21390000D01*
X117720000Y-10610000D02*
X113050000Y-10610000D01*
X113050000Y-10610000D02*
X113050000Y9240000D01*
X117720000Y-29870000D02*
X117720000Y-10610000D01*
X127280000Y-29870000D02*
X117720000Y-29870000D01*
X127280000Y-45140000D02*
X127280000Y-29870000D01*
X115550000Y-45140000D02*
X127280000Y-45140000D01*
X115550000Y-65480000D02*
X115550000Y-45140000D01*
X19010000Y-65480000D02*
X115550000Y-65480000D01*
X19010000Y9240000D02*
X19010000Y-65480000D01*
X113050000Y9240000D02*
X77970000Y9240000D01*
D11*
X101720000Y-30090000D02*
X98320000Y-30090000D01*
X101720000Y-27090000D02*
X101720000Y-30090000D01*
X98320000Y-27090000D02*
X101720000Y-27090000D01*
X98320000Y-30090000D02*
X98320000Y-27090000D01*
X73200000Y-30100000D02*
X69800000Y-30100000D01*
X73200000Y-27100000D02*
X73200000Y-30100000D01*
X69800000Y-27100000D02*
X73200000Y-27100000D01*
X69800000Y-30100000D02*
X69800000Y-27100000D01*
X43520000Y-30080000D02*
X43520000Y-27080000D01*
X43520000Y-27080000D02*
X46920000Y-27080000D01*
X46920000Y-27080000D02*
X46920000Y-30080000D01*
X46920000Y-30080000D02*
X43520000Y-30080000D01*
M02*
