G04 #@! TF.GenerationSoftware,KiCad,Pcbnew,(5.1.6-0-10_14)*
G04 #@! TF.CreationDate,2022-02-21T07:55:31+09:00*
G04 #@! TF.ProjectId,cool936,636f6f6c-3933-4362-9e6b-696361645f70,rev?*
G04 #@! TF.SameCoordinates,Original*
G04 #@! TF.FileFunction,Soldermask,Top*
G04 #@! TF.FilePolarity,Negative*
%FSLAX46Y46*%
G04 Gerber Fmt 4.6, Leading zero omitted, Abs format (unit mm)*
G04 Created by KiCad (PCBNEW (5.1.6-0-10_14)) date 2022-02-21 07:55:31*
%MOMM*%
%LPD*%
G01*
G04 APERTURE LIST*
%ADD10C,0.100000*%
G04 APERTURE END LIST*
D10*
G36*
X95849500Y-61239500D02*
G01*
X94350500Y-61239500D01*
X94350500Y-59740500D01*
X95849500Y-59740500D01*
X95849500Y-61239500D01*
G37*
G36*
X92839500Y-61239500D02*
G01*
X91340500Y-61239500D01*
X91340500Y-59740500D01*
X92839500Y-59740500D01*
X92839500Y-61239500D01*
G37*
G36*
X107752974Y-55183684D02*
G01*
X107970974Y-55273983D01*
X108125123Y-55337833D01*
X108460048Y-55561623D01*
X108744877Y-55846452D01*
X108968667Y-56181377D01*
X109001062Y-56259586D01*
X109122816Y-56553526D01*
X109201400Y-56948594D01*
X109201400Y-57351406D01*
X109122816Y-57746474D01*
X109071951Y-57869272D01*
X108968667Y-58118623D01*
X108744877Y-58453548D01*
X108460048Y-58738377D01*
X108125123Y-58962167D01*
X107970974Y-59026017D01*
X107752974Y-59116316D01*
X107357906Y-59194900D01*
X106955094Y-59194900D01*
X106560026Y-59116316D01*
X106342026Y-59026017D01*
X106187877Y-58962167D01*
X105852952Y-58738377D01*
X105568123Y-58453548D01*
X105344333Y-58118623D01*
X105241049Y-57869272D01*
X105190184Y-57746474D01*
X105111600Y-57351406D01*
X105111600Y-56948594D01*
X105190184Y-56553526D01*
X105311938Y-56259586D01*
X105344333Y-56181377D01*
X105568123Y-55846452D01*
X105852952Y-55561623D01*
X106187877Y-55337833D01*
X106342026Y-55273983D01*
X106560026Y-55183684D01*
X106955094Y-55105100D01*
X107357906Y-55105100D01*
X107752974Y-55183684D01*
G37*
G36*
X81558974Y-55183684D02*
G01*
X81776974Y-55273983D01*
X81931123Y-55337833D01*
X82266048Y-55561623D01*
X82550877Y-55846452D01*
X82774667Y-56181377D01*
X82807062Y-56259586D01*
X82928816Y-56553526D01*
X83007400Y-56948594D01*
X83007400Y-57351406D01*
X82928816Y-57746474D01*
X82877951Y-57869272D01*
X82774667Y-58118623D01*
X82550877Y-58453548D01*
X82266048Y-58738377D01*
X81931123Y-58962167D01*
X81776974Y-59026017D01*
X81558974Y-59116316D01*
X81163906Y-59194900D01*
X80761094Y-59194900D01*
X80366026Y-59116316D01*
X80148026Y-59026017D01*
X79993877Y-58962167D01*
X79658952Y-58738377D01*
X79374123Y-58453548D01*
X79150333Y-58118623D01*
X79047049Y-57869272D01*
X78996184Y-57746474D01*
X78917600Y-57351406D01*
X78917600Y-56948594D01*
X78996184Y-56553526D01*
X79117938Y-56259586D01*
X79150333Y-56181377D01*
X79374123Y-55846452D01*
X79658952Y-55561623D01*
X79993877Y-55337833D01*
X80148026Y-55273983D01*
X80366026Y-55183684D01*
X80761094Y-55105100D01*
X81163906Y-55105100D01*
X81558974Y-55183684D01*
G37*
G36*
X62508974Y-55183684D02*
G01*
X62726974Y-55273983D01*
X62881123Y-55337833D01*
X63216048Y-55561623D01*
X63500877Y-55846452D01*
X63724667Y-56181377D01*
X63757062Y-56259586D01*
X63878816Y-56553526D01*
X63957400Y-56948594D01*
X63957400Y-57351406D01*
X63878816Y-57746474D01*
X63827951Y-57869272D01*
X63724667Y-58118623D01*
X63500877Y-58453548D01*
X63216048Y-58738377D01*
X62881123Y-58962167D01*
X62726974Y-59026017D01*
X62508974Y-59116316D01*
X62113906Y-59194900D01*
X61711094Y-59194900D01*
X61316026Y-59116316D01*
X61098026Y-59026017D01*
X60943877Y-58962167D01*
X60608952Y-58738377D01*
X60324123Y-58453548D01*
X60100333Y-58118623D01*
X59997049Y-57869272D01*
X59946184Y-57746474D01*
X59867600Y-57351406D01*
X59867600Y-56948594D01*
X59946184Y-56553526D01*
X60067938Y-56259586D01*
X60100333Y-56181377D01*
X60324123Y-55846452D01*
X60608952Y-55561623D01*
X60943877Y-55337833D01*
X61098026Y-55273983D01*
X61316026Y-55183684D01*
X61711094Y-55105100D01*
X62113906Y-55105100D01*
X62508974Y-55183684D01*
G37*
G36*
X43458974Y-55183684D02*
G01*
X43676974Y-55273983D01*
X43831123Y-55337833D01*
X44166048Y-55561623D01*
X44450877Y-55846452D01*
X44674667Y-56181377D01*
X44707062Y-56259586D01*
X44828816Y-56553526D01*
X44907400Y-56948594D01*
X44907400Y-57351406D01*
X44828816Y-57746474D01*
X44777951Y-57869272D01*
X44674667Y-58118623D01*
X44450877Y-58453548D01*
X44166048Y-58738377D01*
X43831123Y-58962167D01*
X43676974Y-59026017D01*
X43458974Y-59116316D01*
X43063906Y-59194900D01*
X42661094Y-59194900D01*
X42266026Y-59116316D01*
X42048026Y-59026017D01*
X41893877Y-58962167D01*
X41558952Y-58738377D01*
X41274123Y-58453548D01*
X41050333Y-58118623D01*
X40947049Y-57869272D01*
X40896184Y-57746474D01*
X40817600Y-57351406D01*
X40817600Y-56948594D01*
X40896184Y-56553526D01*
X41017938Y-56259586D01*
X41050333Y-56181377D01*
X41274123Y-55846452D01*
X41558952Y-55561623D01*
X41893877Y-55337833D01*
X42048026Y-55273983D01*
X42266026Y-55183684D01*
X42661094Y-55105100D01*
X43063906Y-55105100D01*
X43458974Y-55183684D01*
G37*
G36*
X95626000Y-59156000D02*
G01*
X94574000Y-59156000D01*
X94574000Y-57754000D01*
X95626000Y-57754000D01*
X95626000Y-59156000D01*
G37*
G36*
X92616000Y-59156000D02*
G01*
X91564000Y-59156000D01*
X91564000Y-57754000D01*
X92616000Y-57754000D01*
X92616000Y-59156000D01*
G37*
G36*
X86312604Y-56259585D02*
G01*
X86481126Y-56329389D01*
X86632791Y-56430728D01*
X86761772Y-56559709D01*
X86863111Y-56711374D01*
X86932915Y-56879896D01*
X86968500Y-57058797D01*
X86968500Y-57241203D01*
X86932915Y-57420104D01*
X86863111Y-57588626D01*
X86761772Y-57740291D01*
X86632791Y-57869272D01*
X86481126Y-57970611D01*
X86312604Y-58040415D01*
X86133703Y-58076000D01*
X85951297Y-58076000D01*
X85772396Y-58040415D01*
X85603874Y-57970611D01*
X85452209Y-57869272D01*
X85323228Y-57740291D01*
X85221889Y-57588626D01*
X85152085Y-57420104D01*
X85116500Y-57241203D01*
X85116500Y-57058797D01*
X85152085Y-56879896D01*
X85221889Y-56711374D01*
X85323228Y-56559709D01*
X85452209Y-56430728D01*
X85603874Y-56329389D01*
X85772396Y-56259585D01*
X85951297Y-56224000D01*
X86133703Y-56224000D01*
X86312604Y-56259585D01*
G37*
G36*
X57102604Y-56259585D02*
G01*
X57271126Y-56329389D01*
X57422791Y-56430728D01*
X57551772Y-56559709D01*
X57653111Y-56711374D01*
X57722915Y-56879896D01*
X57758500Y-57058797D01*
X57758500Y-57241203D01*
X57722915Y-57420104D01*
X57653111Y-57588626D01*
X57551772Y-57740291D01*
X57422791Y-57869272D01*
X57271126Y-57970611D01*
X57102604Y-58040415D01*
X56923703Y-58076000D01*
X56741297Y-58076000D01*
X56562396Y-58040415D01*
X56393874Y-57970611D01*
X56242209Y-57869272D01*
X56113228Y-57740291D01*
X56011889Y-57588626D01*
X55942085Y-57420104D01*
X55906500Y-57241203D01*
X55906500Y-57058797D01*
X55942085Y-56879896D01*
X56011889Y-56711374D01*
X56113228Y-56559709D01*
X56242209Y-56430728D01*
X56393874Y-56329389D01*
X56562396Y-56259585D01*
X56741297Y-56224000D01*
X56923703Y-56224000D01*
X57102604Y-56259585D01*
G37*
G36*
X102346604Y-56259585D02*
G01*
X102515126Y-56329389D01*
X102666791Y-56430728D01*
X102795772Y-56559709D01*
X102897111Y-56711374D01*
X102966915Y-56879896D01*
X103002500Y-57058797D01*
X103002500Y-57241203D01*
X102966915Y-57420104D01*
X102897111Y-57588626D01*
X102795772Y-57740291D01*
X102666791Y-57869272D01*
X102515126Y-57970611D01*
X102346604Y-58040415D01*
X102167703Y-58076000D01*
X101985297Y-58076000D01*
X101806396Y-58040415D01*
X101637874Y-57970611D01*
X101486209Y-57869272D01*
X101357228Y-57740291D01*
X101255889Y-57588626D01*
X101186085Y-57420104D01*
X101150500Y-57241203D01*
X101150500Y-57058797D01*
X101186085Y-56879896D01*
X101255889Y-56711374D01*
X101357228Y-56559709D01*
X101486209Y-56430728D01*
X101637874Y-56329389D01*
X101806396Y-56259585D01*
X101985297Y-56224000D01*
X102167703Y-56224000D01*
X102346604Y-56259585D01*
G37*
G36*
X112506604Y-56259585D02*
G01*
X112675126Y-56329389D01*
X112826791Y-56430728D01*
X112955772Y-56559709D01*
X113057111Y-56711374D01*
X113126915Y-56879896D01*
X113162500Y-57058797D01*
X113162500Y-57241203D01*
X113126915Y-57420104D01*
X113057111Y-57588626D01*
X112955772Y-57740291D01*
X112826791Y-57869272D01*
X112675126Y-57970611D01*
X112506604Y-58040415D01*
X112327703Y-58076000D01*
X112145297Y-58076000D01*
X111966396Y-58040415D01*
X111797874Y-57970611D01*
X111646209Y-57869272D01*
X111517228Y-57740291D01*
X111415889Y-57588626D01*
X111346085Y-57420104D01*
X111310500Y-57241203D01*
X111310500Y-57058797D01*
X111346085Y-56879896D01*
X111415889Y-56711374D01*
X111517228Y-56559709D01*
X111646209Y-56430728D01*
X111797874Y-56329389D01*
X111966396Y-56259585D01*
X112145297Y-56224000D01*
X112327703Y-56224000D01*
X112506604Y-56259585D01*
G37*
G36*
X76152604Y-56259585D02*
G01*
X76321126Y-56329389D01*
X76472791Y-56430728D01*
X76601772Y-56559709D01*
X76703111Y-56711374D01*
X76772915Y-56879896D01*
X76808500Y-57058797D01*
X76808500Y-57241203D01*
X76772915Y-57420104D01*
X76703111Y-57588626D01*
X76601772Y-57740291D01*
X76472791Y-57869272D01*
X76321126Y-57970611D01*
X76152604Y-58040415D01*
X75973703Y-58076000D01*
X75791297Y-58076000D01*
X75612396Y-58040415D01*
X75443874Y-57970611D01*
X75292209Y-57869272D01*
X75163228Y-57740291D01*
X75061889Y-57588626D01*
X74992085Y-57420104D01*
X74956500Y-57241203D01*
X74956500Y-57058797D01*
X74992085Y-56879896D01*
X75061889Y-56711374D01*
X75163228Y-56559709D01*
X75292209Y-56430728D01*
X75443874Y-56329389D01*
X75612396Y-56259585D01*
X75791297Y-56224000D01*
X75973703Y-56224000D01*
X76152604Y-56259585D01*
G37*
G36*
X67262604Y-56259585D02*
G01*
X67431126Y-56329389D01*
X67582791Y-56430728D01*
X67711772Y-56559709D01*
X67813111Y-56711374D01*
X67882915Y-56879896D01*
X67918500Y-57058797D01*
X67918500Y-57241203D01*
X67882915Y-57420104D01*
X67813111Y-57588626D01*
X67711772Y-57740291D01*
X67582791Y-57869272D01*
X67431126Y-57970611D01*
X67262604Y-58040415D01*
X67083703Y-58076000D01*
X66901297Y-58076000D01*
X66722396Y-58040415D01*
X66553874Y-57970611D01*
X66402209Y-57869272D01*
X66273228Y-57740291D01*
X66171889Y-57588626D01*
X66102085Y-57420104D01*
X66066500Y-57241203D01*
X66066500Y-57058797D01*
X66102085Y-56879896D01*
X66171889Y-56711374D01*
X66273228Y-56559709D01*
X66402209Y-56430728D01*
X66553874Y-56329389D01*
X66722396Y-56259585D01*
X66901297Y-56224000D01*
X67083703Y-56224000D01*
X67262604Y-56259585D01*
G37*
G36*
X38052604Y-56259585D02*
G01*
X38221126Y-56329389D01*
X38372791Y-56430728D01*
X38501772Y-56559709D01*
X38603111Y-56711374D01*
X38672915Y-56879896D01*
X38708500Y-57058797D01*
X38708500Y-57241203D01*
X38672915Y-57420104D01*
X38603111Y-57588626D01*
X38501772Y-57740291D01*
X38372791Y-57869272D01*
X38221126Y-57970611D01*
X38052604Y-58040415D01*
X37873703Y-58076000D01*
X37691297Y-58076000D01*
X37512396Y-58040415D01*
X37343874Y-57970611D01*
X37192209Y-57869272D01*
X37063228Y-57740291D01*
X36961889Y-57588626D01*
X36892085Y-57420104D01*
X36856500Y-57241203D01*
X36856500Y-57058797D01*
X36892085Y-56879896D01*
X36961889Y-56711374D01*
X37063228Y-56559709D01*
X37192209Y-56430728D01*
X37343874Y-56329389D01*
X37512396Y-56259585D01*
X37691297Y-56224000D01*
X37873703Y-56224000D01*
X38052604Y-56259585D01*
G37*
G36*
X48212604Y-56259585D02*
G01*
X48381126Y-56329389D01*
X48532791Y-56430728D01*
X48661772Y-56559709D01*
X48763111Y-56711374D01*
X48832915Y-56879896D01*
X48868500Y-57058797D01*
X48868500Y-57241203D01*
X48832915Y-57420104D01*
X48763111Y-57588626D01*
X48661772Y-57740291D01*
X48532791Y-57869272D01*
X48381126Y-57970611D01*
X48212604Y-58040415D01*
X48033703Y-58076000D01*
X47851297Y-58076000D01*
X47672396Y-58040415D01*
X47503874Y-57970611D01*
X47352209Y-57869272D01*
X47223228Y-57740291D01*
X47121889Y-57588626D01*
X47052085Y-57420104D01*
X47016500Y-57241203D01*
X47016500Y-57058797D01*
X47052085Y-56879896D01*
X47121889Y-56711374D01*
X47223228Y-56559709D01*
X47352209Y-56430728D01*
X47503874Y-56329389D01*
X47672396Y-56259585D01*
X47851297Y-56224000D01*
X48033703Y-56224000D01*
X48212604Y-56259585D01*
G37*
G36*
X92616000Y-55606000D02*
G01*
X91564000Y-55606000D01*
X91564000Y-54204000D01*
X92616000Y-54204000D01*
X92616000Y-55606000D01*
G37*
G36*
X95626000Y-55606000D02*
G01*
X94574000Y-55606000D01*
X94574000Y-54204000D01*
X95626000Y-54204000D01*
X95626000Y-55606000D01*
G37*
G36*
X92184425Y-52124599D02*
G01*
X92308621Y-52149302D01*
X92445022Y-52205801D01*
X92567779Y-52287825D01*
X92672175Y-52392221D01*
X92754199Y-52514978D01*
X92810698Y-52651379D01*
X92839500Y-52796181D01*
X92839500Y-52943819D01*
X92810698Y-53088621D01*
X92754199Y-53225022D01*
X92672175Y-53347779D01*
X92567779Y-53452175D01*
X92445022Y-53534199D01*
X92308621Y-53590698D01*
X92184425Y-53615401D01*
X92163820Y-53619500D01*
X92016180Y-53619500D01*
X91995575Y-53615401D01*
X91871379Y-53590698D01*
X91734978Y-53534199D01*
X91612221Y-53452175D01*
X91507825Y-53347779D01*
X91425801Y-53225022D01*
X91369302Y-53088621D01*
X91340500Y-52943819D01*
X91340500Y-52796181D01*
X91369302Y-52651379D01*
X91425801Y-52514978D01*
X91507825Y-52392221D01*
X91612221Y-52287825D01*
X91734978Y-52205801D01*
X91871379Y-52149302D01*
X91995575Y-52124599D01*
X92016180Y-52120500D01*
X92163820Y-52120500D01*
X92184425Y-52124599D01*
G37*
G36*
X95194425Y-52124599D02*
G01*
X95318621Y-52149302D01*
X95455022Y-52205801D01*
X95577779Y-52287825D01*
X95682175Y-52392221D01*
X95764199Y-52514978D01*
X95820698Y-52651379D01*
X95849500Y-52796181D01*
X95849500Y-52943819D01*
X95820698Y-53088621D01*
X95764199Y-53225022D01*
X95682175Y-53347779D01*
X95577779Y-53452175D01*
X95455022Y-53534199D01*
X95318621Y-53590698D01*
X95194425Y-53615401D01*
X95173820Y-53619500D01*
X95026180Y-53619500D01*
X95005575Y-53615401D01*
X94881379Y-53590698D01*
X94744978Y-53534199D01*
X94622221Y-53452175D01*
X94517825Y-53347779D01*
X94435801Y-53225022D01*
X94379302Y-53088621D01*
X94350500Y-52943819D01*
X94350500Y-52796181D01*
X94379302Y-52651379D01*
X94435801Y-52514978D01*
X94517825Y-52392221D01*
X94622221Y-52287825D01*
X94744978Y-52205801D01*
X94881379Y-52149302D01*
X95005575Y-52124599D01*
X95026180Y-52120500D01*
X95173820Y-52120500D01*
X95194425Y-52124599D01*
G37*
G36*
X56469500Y-49479500D02*
G01*
X54970500Y-49479500D01*
X54970500Y-47980500D01*
X56469500Y-47980500D01*
X56469500Y-49479500D01*
G37*
G36*
X63434425Y-47984599D02*
G01*
X63558621Y-48009302D01*
X63695022Y-48065801D01*
X63817779Y-48147825D01*
X63922175Y-48252221D01*
X64004199Y-48374978D01*
X64060698Y-48511379D01*
X64089500Y-48656181D01*
X64089500Y-48803819D01*
X64060698Y-48948621D01*
X64004199Y-49085022D01*
X63922175Y-49207779D01*
X63817779Y-49312175D01*
X63695022Y-49394199D01*
X63558621Y-49450698D01*
X63434425Y-49475401D01*
X63413820Y-49479500D01*
X63266180Y-49479500D01*
X63245575Y-49475401D01*
X63121379Y-49450698D01*
X62984978Y-49394199D01*
X62862221Y-49312175D01*
X62757825Y-49207779D01*
X62675801Y-49085022D01*
X62619302Y-48948621D01*
X62590500Y-48803819D01*
X62590500Y-48656181D01*
X62619302Y-48511379D01*
X62675801Y-48374978D01*
X62757825Y-48252221D01*
X62862221Y-48147825D01*
X62984978Y-48065801D01*
X63121379Y-48009302D01*
X63245575Y-47984599D01*
X63266180Y-47980500D01*
X63413820Y-47980500D01*
X63434425Y-47984599D01*
G37*
G36*
X43719500Y-49409500D02*
G01*
X42220500Y-49409500D01*
X42220500Y-47910500D01*
X43719500Y-47910500D01*
X43719500Y-49409500D01*
G37*
G36*
X50684425Y-47914599D02*
G01*
X50808621Y-47939302D01*
X50945022Y-47995801D01*
X51067779Y-48077825D01*
X51172175Y-48182221D01*
X51254199Y-48304978D01*
X51310698Y-48441379D01*
X51339500Y-48586181D01*
X51339500Y-48733819D01*
X51310698Y-48878621D01*
X51254199Y-49015022D01*
X51172175Y-49137779D01*
X51067779Y-49242175D01*
X50945022Y-49324199D01*
X50808621Y-49380698D01*
X50684425Y-49405401D01*
X50663820Y-49409500D01*
X50516180Y-49409500D01*
X50495575Y-49405401D01*
X50371379Y-49380698D01*
X50234978Y-49324199D01*
X50112221Y-49242175D01*
X50007825Y-49137779D01*
X49925801Y-49015022D01*
X49869302Y-48878621D01*
X49840500Y-48733819D01*
X49840500Y-48586181D01*
X49869302Y-48441379D01*
X49925801Y-48304978D01*
X50007825Y-48182221D01*
X50112221Y-48077825D01*
X50234978Y-47995801D01*
X50371379Y-47939302D01*
X50495575Y-47914599D01*
X50516180Y-47910500D01*
X50663820Y-47910500D01*
X50684425Y-47914599D01*
G37*
G36*
X58456000Y-49256000D02*
G01*
X57054000Y-49256000D01*
X57054000Y-48204000D01*
X58456000Y-48204000D01*
X58456000Y-49256000D01*
G37*
G36*
X62006000Y-49256000D02*
G01*
X60604000Y-49256000D01*
X60604000Y-48204000D01*
X62006000Y-48204000D01*
X62006000Y-49256000D01*
G37*
G36*
X45706000Y-49186000D02*
G01*
X44304000Y-49186000D01*
X44304000Y-48134000D01*
X45706000Y-48134000D01*
X45706000Y-49186000D01*
G37*
G36*
X49256000Y-49186000D02*
G01*
X47854000Y-49186000D01*
X47854000Y-48134000D01*
X49256000Y-48134000D01*
X49256000Y-49186000D01*
G37*
G36*
X111499500Y-47159500D02*
G01*
X110000500Y-47159500D01*
X110000500Y-45660500D01*
X111499500Y-45660500D01*
X111499500Y-47159500D01*
G37*
G36*
X108969500Y-47129500D02*
G01*
X107470500Y-47129500D01*
X107470500Y-45630500D01*
X108969500Y-45630500D01*
X108969500Y-47129500D01*
G37*
G36*
X89979500Y-46979500D02*
G01*
X88480500Y-46979500D01*
X88480500Y-45480500D01*
X89979500Y-45480500D01*
X89979500Y-46979500D01*
G37*
G36*
X70909500Y-46939500D02*
G01*
X69410500Y-46939500D01*
X69410500Y-45440500D01*
X70909500Y-45440500D01*
X70909500Y-46939500D01*
G37*
G36*
X111276000Y-45076000D02*
G01*
X110224000Y-45076000D01*
X110224000Y-43674000D01*
X111276000Y-43674000D01*
X111276000Y-45076000D01*
G37*
G36*
X108746000Y-45046000D02*
G01*
X107694000Y-45046000D01*
X107694000Y-43644000D01*
X108746000Y-43644000D01*
X108746000Y-45046000D01*
G37*
G36*
X89756000Y-44896000D02*
G01*
X88704000Y-44896000D01*
X88704000Y-43494000D01*
X89756000Y-43494000D01*
X89756000Y-44896000D01*
G37*
G36*
X70686000Y-44856000D02*
G01*
X69634000Y-44856000D01*
X69634000Y-43454000D01*
X70686000Y-43454000D01*
X70686000Y-44856000D01*
G37*
G36*
X47539500Y-42099500D02*
G01*
X46040500Y-42099500D01*
X46040500Y-40600500D01*
X47539500Y-40600500D01*
X47539500Y-42099500D01*
G37*
G36*
X111276000Y-41526000D02*
G01*
X110224000Y-41526000D01*
X110224000Y-40124000D01*
X111276000Y-40124000D01*
X111276000Y-41526000D01*
G37*
G36*
X108746000Y-41496000D02*
G01*
X107694000Y-41496000D01*
X107694000Y-40094000D01*
X108746000Y-40094000D01*
X108746000Y-41496000D01*
G37*
G36*
X89756000Y-41346000D02*
G01*
X88704000Y-41346000D01*
X88704000Y-39944000D01*
X89756000Y-39944000D01*
X89756000Y-41346000D01*
G37*
G36*
X70686000Y-41306000D02*
G01*
X69634000Y-41306000D01*
X69634000Y-39904000D01*
X70686000Y-39904000D01*
X70686000Y-41306000D01*
G37*
G36*
X100608974Y-36133684D02*
G01*
X100826974Y-36223983D01*
X100981123Y-36287833D01*
X101316048Y-36511623D01*
X101600877Y-36796452D01*
X101824667Y-37131377D01*
X101857062Y-37209586D01*
X101978816Y-37503526D01*
X102057400Y-37898594D01*
X102057400Y-38301406D01*
X101978816Y-38696474D01*
X101927951Y-38819272D01*
X101824667Y-39068623D01*
X101600877Y-39403548D01*
X101316048Y-39688377D01*
X100981123Y-39912167D01*
X100826974Y-39976017D01*
X100608974Y-40066316D01*
X100213906Y-40144900D01*
X99811094Y-40144900D01*
X99416026Y-40066316D01*
X99198026Y-39976017D01*
X99043877Y-39912167D01*
X98708952Y-39688377D01*
X98424123Y-39403548D01*
X98200333Y-39068623D01*
X98097049Y-38819272D01*
X98046184Y-38696474D01*
X97967600Y-38301406D01*
X97967600Y-37898594D01*
X98046184Y-37503526D01*
X98167938Y-37209586D01*
X98200333Y-37131377D01*
X98424123Y-36796452D01*
X98708952Y-36511623D01*
X99043877Y-36287833D01*
X99198026Y-36223983D01*
X99416026Y-36133684D01*
X99811094Y-36055100D01*
X100213906Y-36055100D01*
X100608974Y-36133684D01*
G37*
G36*
X62508974Y-36133684D02*
G01*
X62726974Y-36223983D01*
X62881123Y-36287833D01*
X63216048Y-36511623D01*
X63500877Y-36796452D01*
X63724667Y-37131377D01*
X63757062Y-37209586D01*
X63878816Y-37503526D01*
X63957400Y-37898594D01*
X63957400Y-38301406D01*
X63878816Y-38696474D01*
X63827951Y-38819272D01*
X63724667Y-39068623D01*
X63500877Y-39403548D01*
X63216048Y-39688377D01*
X62881123Y-39912167D01*
X62726974Y-39976017D01*
X62508974Y-40066316D01*
X62113906Y-40144900D01*
X61711094Y-40144900D01*
X61316026Y-40066316D01*
X61098026Y-39976017D01*
X60943877Y-39912167D01*
X60608952Y-39688377D01*
X60324123Y-39403548D01*
X60100333Y-39068623D01*
X59997049Y-38819272D01*
X59946184Y-38696474D01*
X59867600Y-38301406D01*
X59867600Y-37898594D01*
X59946184Y-37503526D01*
X60067938Y-37209586D01*
X60100333Y-37131377D01*
X60324123Y-36796452D01*
X60608952Y-36511623D01*
X60943877Y-36287833D01*
X61098026Y-36223983D01*
X61316026Y-36133684D01*
X61711094Y-36055100D01*
X62113906Y-36055100D01*
X62508974Y-36133684D01*
G37*
G36*
X81558974Y-36133684D02*
G01*
X81776974Y-36223983D01*
X81931123Y-36287833D01*
X82266048Y-36511623D01*
X82550877Y-36796452D01*
X82774667Y-37131377D01*
X82807062Y-37209586D01*
X82928816Y-37503526D01*
X83007400Y-37898594D01*
X83007400Y-38301406D01*
X82928816Y-38696474D01*
X82877951Y-38819272D01*
X82774667Y-39068623D01*
X82550877Y-39403548D01*
X82266048Y-39688377D01*
X81931123Y-39912167D01*
X81776974Y-39976017D01*
X81558974Y-40066316D01*
X81163906Y-40144900D01*
X80761094Y-40144900D01*
X80366026Y-40066316D01*
X80148026Y-39976017D01*
X79993877Y-39912167D01*
X79658952Y-39688377D01*
X79374123Y-39403548D01*
X79150333Y-39068623D01*
X79047049Y-38819272D01*
X78996184Y-38696474D01*
X78917600Y-38301406D01*
X78917600Y-37898594D01*
X78996184Y-37503526D01*
X79117938Y-37209586D01*
X79150333Y-37131377D01*
X79374123Y-36796452D01*
X79658952Y-36511623D01*
X79993877Y-36287833D01*
X80148026Y-36223983D01*
X80366026Y-36133684D01*
X80761094Y-36055100D01*
X81163906Y-36055100D01*
X81558974Y-36133684D01*
G37*
G36*
X119658974Y-36133684D02*
G01*
X119876974Y-36223983D01*
X120031123Y-36287833D01*
X120366048Y-36511623D01*
X120650877Y-36796452D01*
X120874667Y-37131377D01*
X120907062Y-37209586D01*
X121028816Y-37503526D01*
X121107400Y-37898594D01*
X121107400Y-38301406D01*
X121028816Y-38696474D01*
X120977951Y-38819272D01*
X120874667Y-39068623D01*
X120650877Y-39403548D01*
X120366048Y-39688377D01*
X120031123Y-39912167D01*
X119876974Y-39976017D01*
X119658974Y-40066316D01*
X119263906Y-40144900D01*
X118861094Y-40144900D01*
X118466026Y-40066316D01*
X118248026Y-39976017D01*
X118093877Y-39912167D01*
X117758952Y-39688377D01*
X117474123Y-39403548D01*
X117250333Y-39068623D01*
X117147049Y-38819272D01*
X117096184Y-38696474D01*
X117017600Y-38301406D01*
X117017600Y-37898594D01*
X117096184Y-37503526D01*
X117217938Y-37209586D01*
X117250333Y-37131377D01*
X117474123Y-36796452D01*
X117758952Y-36511623D01*
X118093877Y-36287833D01*
X118248026Y-36223983D01*
X118466026Y-36133684D01*
X118861094Y-36055100D01*
X119263906Y-36055100D01*
X119658974Y-36133684D01*
G37*
G36*
X36315474Y-36133684D02*
G01*
X36533474Y-36223983D01*
X36687623Y-36287833D01*
X37022548Y-36511623D01*
X37307377Y-36796452D01*
X37531167Y-37131377D01*
X37563562Y-37209586D01*
X37685316Y-37503526D01*
X37763900Y-37898594D01*
X37763900Y-38301406D01*
X37685316Y-38696474D01*
X37634451Y-38819272D01*
X37531167Y-39068623D01*
X37307377Y-39403548D01*
X37022548Y-39688377D01*
X36687623Y-39912167D01*
X36533474Y-39976017D01*
X36315474Y-40066316D01*
X35920406Y-40144900D01*
X35517594Y-40144900D01*
X35122526Y-40066316D01*
X34904526Y-39976017D01*
X34750377Y-39912167D01*
X34415452Y-39688377D01*
X34130623Y-39403548D01*
X33906833Y-39068623D01*
X33803549Y-38819272D01*
X33752684Y-38696474D01*
X33674100Y-38301406D01*
X33674100Y-37898594D01*
X33752684Y-37503526D01*
X33874438Y-37209586D01*
X33906833Y-37131377D01*
X34130623Y-36796452D01*
X34415452Y-36511623D01*
X34750377Y-36287833D01*
X34904526Y-36223983D01*
X35122526Y-36133684D01*
X35517594Y-36055100D01*
X35920406Y-36055100D01*
X36315474Y-36133684D01*
G37*
G36*
X47316000Y-40016000D02*
G01*
X46264000Y-40016000D01*
X46264000Y-38614000D01*
X47316000Y-38614000D01*
X47316000Y-40016000D01*
G37*
G36*
X110844425Y-38044599D02*
G01*
X110968621Y-38069302D01*
X111105022Y-38125801D01*
X111227779Y-38207825D01*
X111332175Y-38312221D01*
X111414199Y-38434978D01*
X111470698Y-38571379D01*
X111499500Y-38716181D01*
X111499500Y-38863819D01*
X111470698Y-39008621D01*
X111414199Y-39145022D01*
X111332175Y-39267779D01*
X111227779Y-39372175D01*
X111105022Y-39454199D01*
X110968621Y-39510698D01*
X110844425Y-39535401D01*
X110823820Y-39539500D01*
X110676180Y-39539500D01*
X110655575Y-39535401D01*
X110531379Y-39510698D01*
X110394978Y-39454199D01*
X110272221Y-39372175D01*
X110167825Y-39267779D01*
X110085801Y-39145022D01*
X110029302Y-39008621D01*
X110000500Y-38863819D01*
X110000500Y-38716181D01*
X110029302Y-38571379D01*
X110085801Y-38434978D01*
X110167825Y-38312221D01*
X110272221Y-38207825D01*
X110394978Y-38125801D01*
X110531379Y-38069302D01*
X110655575Y-38044599D01*
X110676180Y-38040500D01*
X110823820Y-38040500D01*
X110844425Y-38044599D01*
G37*
G36*
X108314425Y-38014599D02*
G01*
X108438621Y-38039302D01*
X108575022Y-38095801D01*
X108697779Y-38177825D01*
X108802175Y-38282221D01*
X108884199Y-38404978D01*
X108940698Y-38541379D01*
X108961074Y-38643819D01*
X108969031Y-38683820D01*
X108969500Y-38686181D01*
X108969500Y-38833819D01*
X108940698Y-38978621D01*
X108884199Y-39115022D01*
X108802175Y-39237779D01*
X108697779Y-39342175D01*
X108575022Y-39424199D01*
X108438621Y-39480698D01*
X108314425Y-39505401D01*
X108293820Y-39509500D01*
X108146180Y-39509500D01*
X108125575Y-39505401D01*
X108001379Y-39480698D01*
X107864978Y-39424199D01*
X107742221Y-39342175D01*
X107637825Y-39237779D01*
X107555801Y-39115022D01*
X107499302Y-38978621D01*
X107470500Y-38833819D01*
X107470500Y-38686181D01*
X107470970Y-38683820D01*
X107478926Y-38643819D01*
X107499302Y-38541379D01*
X107555801Y-38404978D01*
X107637825Y-38282221D01*
X107742221Y-38177825D01*
X107864978Y-38095801D01*
X108001379Y-38039302D01*
X108125575Y-38014599D01*
X108146180Y-38010500D01*
X108293820Y-38010500D01*
X108314425Y-38014599D01*
G37*
G36*
X89324425Y-37864599D02*
G01*
X89448621Y-37889302D01*
X89585022Y-37945801D01*
X89707779Y-38027825D01*
X89812175Y-38132221D01*
X89894199Y-38254978D01*
X89950698Y-38391379D01*
X89971544Y-38496181D01*
X89979500Y-38536180D01*
X89979500Y-38683820D01*
X89979030Y-38686181D01*
X89950698Y-38828621D01*
X89894199Y-38965022D01*
X89812175Y-39087779D01*
X89707779Y-39192175D01*
X89585022Y-39274199D01*
X89448621Y-39330698D01*
X89324425Y-39355401D01*
X89303820Y-39359500D01*
X89156180Y-39359500D01*
X89135575Y-39355401D01*
X89011379Y-39330698D01*
X88874978Y-39274199D01*
X88752221Y-39192175D01*
X88647825Y-39087779D01*
X88565801Y-38965022D01*
X88509302Y-38828621D01*
X88480970Y-38686181D01*
X88480500Y-38683820D01*
X88480500Y-38536180D01*
X88488456Y-38496181D01*
X88509302Y-38391379D01*
X88565801Y-38254978D01*
X88647825Y-38132221D01*
X88752221Y-38027825D01*
X88874978Y-37945801D01*
X89011379Y-37889302D01*
X89135575Y-37864599D01*
X89156180Y-37860500D01*
X89303820Y-37860500D01*
X89324425Y-37864599D01*
G37*
G36*
X70254425Y-37824599D02*
G01*
X70378621Y-37849302D01*
X70515022Y-37905801D01*
X70637779Y-37987825D01*
X70742175Y-38092221D01*
X70824199Y-38214978D01*
X70880698Y-38351379D01*
X70909500Y-38496181D01*
X70909500Y-38643819D01*
X70880698Y-38788621D01*
X70824199Y-38925022D01*
X70742175Y-39047779D01*
X70637779Y-39152175D01*
X70515022Y-39234199D01*
X70378621Y-39290698D01*
X70254425Y-39315401D01*
X70233820Y-39319500D01*
X70086180Y-39319500D01*
X70065575Y-39315401D01*
X69941379Y-39290698D01*
X69804978Y-39234199D01*
X69682221Y-39152175D01*
X69577825Y-39047779D01*
X69495801Y-38925022D01*
X69439302Y-38788621D01*
X69410500Y-38643819D01*
X69410500Y-38496181D01*
X69439302Y-38351379D01*
X69495801Y-38214978D01*
X69577825Y-38092221D01*
X69682221Y-37987825D01*
X69804978Y-37905801D01*
X69941379Y-37849302D01*
X70065575Y-37824599D01*
X70086180Y-37820500D01*
X70233820Y-37820500D01*
X70254425Y-37824599D01*
G37*
G36*
X57102604Y-37209585D02*
G01*
X57271126Y-37279389D01*
X57422791Y-37380728D01*
X57551772Y-37509709D01*
X57653111Y-37661374D01*
X57722915Y-37829896D01*
X57758500Y-38008797D01*
X57758500Y-38191203D01*
X57722915Y-38370104D01*
X57653111Y-38538626D01*
X57551772Y-38690291D01*
X57422791Y-38819272D01*
X57271126Y-38920611D01*
X57102604Y-38990415D01*
X56923703Y-39026000D01*
X56741297Y-39026000D01*
X56562396Y-38990415D01*
X56393874Y-38920611D01*
X56242209Y-38819272D01*
X56113228Y-38690291D01*
X56011889Y-38538626D01*
X55942085Y-38370104D01*
X55906500Y-38191203D01*
X55906500Y-38008797D01*
X55942085Y-37829896D01*
X56011889Y-37661374D01*
X56113228Y-37509709D01*
X56242209Y-37380728D01*
X56393874Y-37279389D01*
X56562396Y-37209585D01*
X56741297Y-37174000D01*
X56923703Y-37174000D01*
X57102604Y-37209585D01*
G37*
G36*
X76152604Y-37209585D02*
G01*
X76321126Y-37279389D01*
X76472791Y-37380728D01*
X76601772Y-37509709D01*
X76703111Y-37661374D01*
X76772915Y-37829896D01*
X76808500Y-38008797D01*
X76808500Y-38191203D01*
X76772915Y-38370104D01*
X76703111Y-38538626D01*
X76601772Y-38690291D01*
X76472791Y-38819272D01*
X76321126Y-38920611D01*
X76152604Y-38990415D01*
X75973703Y-39026000D01*
X75791297Y-39026000D01*
X75612396Y-38990415D01*
X75443874Y-38920611D01*
X75292209Y-38819272D01*
X75163228Y-38690291D01*
X75061889Y-38538626D01*
X74992085Y-38370104D01*
X74956500Y-38191203D01*
X74956500Y-38008797D01*
X74992085Y-37829896D01*
X75061889Y-37661374D01*
X75163228Y-37509709D01*
X75292209Y-37380728D01*
X75443874Y-37279389D01*
X75612396Y-37209585D01*
X75791297Y-37174000D01*
X75973703Y-37174000D01*
X76152604Y-37209585D01*
G37*
G36*
X30909104Y-37209585D02*
G01*
X31077626Y-37279389D01*
X31229291Y-37380728D01*
X31358272Y-37509709D01*
X31459611Y-37661374D01*
X31529415Y-37829896D01*
X31565000Y-38008797D01*
X31565000Y-38191203D01*
X31529415Y-38370104D01*
X31459611Y-38538626D01*
X31358272Y-38690291D01*
X31229291Y-38819272D01*
X31077626Y-38920611D01*
X30909104Y-38990415D01*
X30730203Y-39026000D01*
X30547797Y-39026000D01*
X30368896Y-38990415D01*
X30200374Y-38920611D01*
X30048709Y-38819272D01*
X29919728Y-38690291D01*
X29818389Y-38538626D01*
X29748585Y-38370104D01*
X29713000Y-38191203D01*
X29713000Y-38008797D01*
X29748585Y-37829896D01*
X29818389Y-37661374D01*
X29919728Y-37509709D01*
X30048709Y-37380728D01*
X30200374Y-37279389D01*
X30368896Y-37209585D01*
X30547797Y-37174000D01*
X30730203Y-37174000D01*
X30909104Y-37209585D01*
G37*
G36*
X41069104Y-37209585D02*
G01*
X41237626Y-37279389D01*
X41389291Y-37380728D01*
X41518272Y-37509709D01*
X41619611Y-37661374D01*
X41689415Y-37829896D01*
X41725000Y-38008797D01*
X41725000Y-38191203D01*
X41689415Y-38370104D01*
X41619611Y-38538626D01*
X41518272Y-38690291D01*
X41389291Y-38819272D01*
X41237626Y-38920611D01*
X41069104Y-38990415D01*
X40890203Y-39026000D01*
X40707797Y-39026000D01*
X40528896Y-38990415D01*
X40360374Y-38920611D01*
X40208709Y-38819272D01*
X40079728Y-38690291D01*
X39978389Y-38538626D01*
X39908585Y-38370104D01*
X39873000Y-38191203D01*
X39873000Y-38008797D01*
X39908585Y-37829896D01*
X39978389Y-37661374D01*
X40079728Y-37509709D01*
X40208709Y-37380728D01*
X40360374Y-37279389D01*
X40528896Y-37209585D01*
X40707797Y-37174000D01*
X40890203Y-37174000D01*
X41069104Y-37209585D01*
G37*
G36*
X86312604Y-37209585D02*
G01*
X86481126Y-37279389D01*
X86632791Y-37380728D01*
X86761772Y-37509709D01*
X86863111Y-37661374D01*
X86932915Y-37829896D01*
X86968500Y-38008797D01*
X86968500Y-38191203D01*
X86932915Y-38370104D01*
X86863111Y-38538626D01*
X86761772Y-38690291D01*
X86632791Y-38819272D01*
X86481126Y-38920611D01*
X86312604Y-38990415D01*
X86133703Y-39026000D01*
X85951297Y-39026000D01*
X85772396Y-38990415D01*
X85603874Y-38920611D01*
X85452209Y-38819272D01*
X85323228Y-38690291D01*
X85221889Y-38538626D01*
X85152085Y-38370104D01*
X85116500Y-38191203D01*
X85116500Y-38008797D01*
X85152085Y-37829896D01*
X85221889Y-37661374D01*
X85323228Y-37509709D01*
X85452209Y-37380728D01*
X85603874Y-37279389D01*
X85772396Y-37209585D01*
X85951297Y-37174000D01*
X86133703Y-37174000D01*
X86312604Y-37209585D01*
G37*
G36*
X95202604Y-37209585D02*
G01*
X95371126Y-37279389D01*
X95522791Y-37380728D01*
X95651772Y-37509709D01*
X95753111Y-37661374D01*
X95822915Y-37829896D01*
X95858500Y-38008797D01*
X95858500Y-38191203D01*
X95822915Y-38370104D01*
X95753111Y-38538626D01*
X95651772Y-38690291D01*
X95522791Y-38819272D01*
X95371126Y-38920611D01*
X95202604Y-38990415D01*
X95023703Y-39026000D01*
X94841297Y-39026000D01*
X94662396Y-38990415D01*
X94493874Y-38920611D01*
X94342209Y-38819272D01*
X94213228Y-38690291D01*
X94111889Y-38538626D01*
X94042085Y-38370104D01*
X94006500Y-38191203D01*
X94006500Y-38008797D01*
X94042085Y-37829896D01*
X94111889Y-37661374D01*
X94213228Y-37509709D01*
X94342209Y-37380728D01*
X94493874Y-37279389D01*
X94662396Y-37209585D01*
X94841297Y-37174000D01*
X95023703Y-37174000D01*
X95202604Y-37209585D01*
G37*
G36*
X105362604Y-37209585D02*
G01*
X105531126Y-37279389D01*
X105682791Y-37380728D01*
X105811772Y-37509709D01*
X105913111Y-37661374D01*
X105982915Y-37829896D01*
X106018500Y-38008797D01*
X106018500Y-38191203D01*
X105982915Y-38370104D01*
X105913111Y-38538626D01*
X105811772Y-38690291D01*
X105682791Y-38819272D01*
X105531126Y-38920611D01*
X105362604Y-38990415D01*
X105183703Y-39026000D01*
X105001297Y-39026000D01*
X104822396Y-38990415D01*
X104653874Y-38920611D01*
X104502209Y-38819272D01*
X104373228Y-38690291D01*
X104271889Y-38538626D01*
X104202085Y-38370104D01*
X104166500Y-38191203D01*
X104166500Y-38008797D01*
X104202085Y-37829896D01*
X104271889Y-37661374D01*
X104373228Y-37509709D01*
X104502209Y-37380728D01*
X104653874Y-37279389D01*
X104822396Y-37209585D01*
X105001297Y-37174000D01*
X105183703Y-37174000D01*
X105362604Y-37209585D01*
G37*
G36*
X124412604Y-37209585D02*
G01*
X124581126Y-37279389D01*
X124732791Y-37380728D01*
X124861772Y-37509709D01*
X124963111Y-37661374D01*
X125032915Y-37829896D01*
X125068500Y-38008797D01*
X125068500Y-38191203D01*
X125032915Y-38370104D01*
X124963111Y-38538626D01*
X124861772Y-38690291D01*
X124732791Y-38819272D01*
X124581126Y-38920611D01*
X124412604Y-38990415D01*
X124233703Y-39026000D01*
X124051297Y-39026000D01*
X123872396Y-38990415D01*
X123703874Y-38920611D01*
X123552209Y-38819272D01*
X123423228Y-38690291D01*
X123321889Y-38538626D01*
X123252085Y-38370104D01*
X123216500Y-38191203D01*
X123216500Y-38008797D01*
X123252085Y-37829896D01*
X123321889Y-37661374D01*
X123423228Y-37509709D01*
X123552209Y-37380728D01*
X123703874Y-37279389D01*
X123872396Y-37209585D01*
X124051297Y-37174000D01*
X124233703Y-37174000D01*
X124412604Y-37209585D01*
G37*
G36*
X114252604Y-37209585D02*
G01*
X114421126Y-37279389D01*
X114572791Y-37380728D01*
X114701772Y-37509709D01*
X114803111Y-37661374D01*
X114872915Y-37829896D01*
X114908500Y-38008797D01*
X114908500Y-38191203D01*
X114872915Y-38370104D01*
X114803111Y-38538626D01*
X114701772Y-38690291D01*
X114572791Y-38819272D01*
X114421126Y-38920611D01*
X114252604Y-38990415D01*
X114073703Y-39026000D01*
X113891297Y-39026000D01*
X113712396Y-38990415D01*
X113543874Y-38920611D01*
X113392209Y-38819272D01*
X113263228Y-38690291D01*
X113161889Y-38538626D01*
X113092085Y-38370104D01*
X113056500Y-38191203D01*
X113056500Y-38008797D01*
X113092085Y-37829896D01*
X113161889Y-37661374D01*
X113263228Y-37509709D01*
X113392209Y-37380728D01*
X113543874Y-37279389D01*
X113712396Y-37209585D01*
X113891297Y-37174000D01*
X114073703Y-37174000D01*
X114252604Y-37209585D01*
G37*
G36*
X67262604Y-37209585D02*
G01*
X67431126Y-37279389D01*
X67582791Y-37380728D01*
X67711772Y-37509709D01*
X67813111Y-37661374D01*
X67882915Y-37829896D01*
X67918500Y-38008797D01*
X67918500Y-38191203D01*
X67882915Y-38370104D01*
X67813111Y-38538626D01*
X67711772Y-38690291D01*
X67582791Y-38819272D01*
X67431126Y-38920611D01*
X67262604Y-38990415D01*
X67083703Y-39026000D01*
X66901297Y-39026000D01*
X66722396Y-38990415D01*
X66553874Y-38920611D01*
X66402209Y-38819272D01*
X66273228Y-38690291D01*
X66171889Y-38538626D01*
X66102085Y-38370104D01*
X66066500Y-38191203D01*
X66066500Y-38008797D01*
X66102085Y-37829896D01*
X66171889Y-37661374D01*
X66273228Y-37509709D01*
X66402209Y-37380728D01*
X66553874Y-37279389D01*
X66722396Y-37209585D01*
X66901297Y-37174000D01*
X67083703Y-37174000D01*
X67262604Y-37209585D01*
G37*
G36*
X47316000Y-36466000D02*
G01*
X46264000Y-36466000D01*
X46264000Y-35064000D01*
X47316000Y-35064000D01*
X47316000Y-36466000D01*
G37*
G36*
X46884425Y-32984599D02*
G01*
X47008621Y-33009302D01*
X47145022Y-33065801D01*
X47267779Y-33147825D01*
X47372175Y-33252221D01*
X47454199Y-33374978D01*
X47510698Y-33511379D01*
X47539500Y-33656181D01*
X47539500Y-33803819D01*
X47510698Y-33948621D01*
X47454199Y-34085022D01*
X47372175Y-34207779D01*
X47267779Y-34312175D01*
X47145022Y-34394199D01*
X47008621Y-34450698D01*
X46884425Y-34475401D01*
X46863820Y-34479500D01*
X46716180Y-34479500D01*
X46695575Y-34475401D01*
X46571379Y-34450698D01*
X46434978Y-34394199D01*
X46312221Y-34312175D01*
X46207825Y-34207779D01*
X46125801Y-34085022D01*
X46069302Y-33948621D01*
X46040500Y-33803819D01*
X46040500Y-33656181D01*
X46069302Y-33511379D01*
X46125801Y-33374978D01*
X46207825Y-33252221D01*
X46312221Y-33147825D01*
X46434978Y-33065801D01*
X46571379Y-33009302D01*
X46695575Y-32984599D01*
X46716180Y-32980500D01*
X46863820Y-32980500D01*
X46884425Y-32984599D01*
G37*
G36*
X61439500Y-26029500D02*
G01*
X59940500Y-26029500D01*
X59940500Y-24530500D01*
X61439500Y-24530500D01*
X61439500Y-26029500D01*
G37*
G36*
X80449500Y-25979500D02*
G01*
X78950500Y-25979500D01*
X78950500Y-24480500D01*
X80449500Y-24480500D01*
X80449500Y-25979500D01*
G37*
G36*
X39969500Y-25949500D02*
G01*
X38470500Y-25949500D01*
X38470500Y-24450500D01*
X39969500Y-24450500D01*
X39969500Y-25949500D01*
G37*
G36*
X61216000Y-23946000D02*
G01*
X60164000Y-23946000D01*
X60164000Y-22544000D01*
X61216000Y-22544000D01*
X61216000Y-23946000D01*
G37*
G36*
X80226000Y-23896000D02*
G01*
X79174000Y-23896000D01*
X79174000Y-22494000D01*
X80226000Y-22494000D01*
X80226000Y-23896000D01*
G37*
G36*
X39746000Y-23866000D02*
G01*
X38694000Y-23866000D01*
X38694000Y-22464000D01*
X39746000Y-22464000D01*
X39746000Y-23866000D01*
G37*
G36*
X72033974Y-17083684D02*
G01*
X72251974Y-17173983D01*
X72406123Y-17237833D01*
X72741048Y-17461623D01*
X73025877Y-17746452D01*
X73249667Y-18081377D01*
X73282062Y-18159586D01*
X73403816Y-18453526D01*
X73482400Y-18848594D01*
X73482400Y-19251406D01*
X73403816Y-19646474D01*
X73352951Y-19769272D01*
X73249667Y-20018623D01*
X73025877Y-20353548D01*
X72741048Y-20638377D01*
X72406123Y-20862167D01*
X72251974Y-20926017D01*
X72033974Y-21016316D01*
X71638906Y-21094900D01*
X71236094Y-21094900D01*
X70841026Y-21016316D01*
X70623026Y-20926017D01*
X70468877Y-20862167D01*
X70133952Y-20638377D01*
X69849123Y-20353548D01*
X69625333Y-20018623D01*
X69522049Y-19769272D01*
X69471184Y-19646474D01*
X69392600Y-19251406D01*
X69392600Y-18848594D01*
X69471184Y-18453526D01*
X69592938Y-18159586D01*
X69625333Y-18081377D01*
X69849123Y-17746452D01*
X70133952Y-17461623D01*
X70468877Y-17237833D01*
X70623026Y-17173983D01*
X70841026Y-17083684D01*
X71236094Y-17005100D01*
X71638906Y-17005100D01*
X72033974Y-17083684D01*
G37*
G36*
X52983974Y-17083684D02*
G01*
X53201974Y-17173983D01*
X53356123Y-17237833D01*
X53691048Y-17461623D01*
X53975877Y-17746452D01*
X54199667Y-18081377D01*
X54232062Y-18159586D01*
X54353816Y-18453526D01*
X54432400Y-18848594D01*
X54432400Y-19251406D01*
X54353816Y-19646474D01*
X54302951Y-19769272D01*
X54199667Y-20018623D01*
X53975877Y-20353548D01*
X53691048Y-20638377D01*
X53356123Y-20862167D01*
X53201974Y-20926017D01*
X52983974Y-21016316D01*
X52588906Y-21094900D01*
X52186094Y-21094900D01*
X51791026Y-21016316D01*
X51573026Y-20926017D01*
X51418877Y-20862167D01*
X51083952Y-20638377D01*
X50799123Y-20353548D01*
X50575333Y-20018623D01*
X50472049Y-19769272D01*
X50421184Y-19646474D01*
X50342600Y-19251406D01*
X50342600Y-18848594D01*
X50421184Y-18453526D01*
X50542938Y-18159586D01*
X50575333Y-18081377D01*
X50799123Y-17746452D01*
X51083952Y-17461623D01*
X51418877Y-17237833D01*
X51573026Y-17173983D01*
X51791026Y-17083684D01*
X52186094Y-17005100D01*
X52588906Y-17005100D01*
X52983974Y-17083684D01*
G37*
G36*
X91083974Y-17083684D02*
G01*
X91301974Y-17173983D01*
X91456123Y-17237833D01*
X91791048Y-17461623D01*
X92075877Y-17746452D01*
X92299667Y-18081377D01*
X92332062Y-18159586D01*
X92453816Y-18453526D01*
X92532400Y-18848594D01*
X92532400Y-19251406D01*
X92453816Y-19646474D01*
X92402951Y-19769272D01*
X92299667Y-20018623D01*
X92075877Y-20353548D01*
X91791048Y-20638377D01*
X91456123Y-20862167D01*
X91301974Y-20926017D01*
X91083974Y-21016316D01*
X90688906Y-21094900D01*
X90286094Y-21094900D01*
X89891026Y-21016316D01*
X89673026Y-20926017D01*
X89518877Y-20862167D01*
X89183952Y-20638377D01*
X88899123Y-20353548D01*
X88675333Y-20018623D01*
X88572049Y-19769272D01*
X88521184Y-19646474D01*
X88442600Y-19251406D01*
X88442600Y-18848594D01*
X88521184Y-18453526D01*
X88642938Y-18159586D01*
X88675333Y-18081377D01*
X88899123Y-17746452D01*
X89183952Y-17461623D01*
X89518877Y-17237833D01*
X89673026Y-17173983D01*
X89891026Y-17083684D01*
X90286094Y-17005100D01*
X90688906Y-17005100D01*
X91083974Y-17083684D01*
G37*
G36*
X31552474Y-17083684D02*
G01*
X31770474Y-17173983D01*
X31924623Y-17237833D01*
X32259548Y-17461623D01*
X32544377Y-17746452D01*
X32768167Y-18081377D01*
X32800562Y-18159586D01*
X32922316Y-18453526D01*
X33000900Y-18848594D01*
X33000900Y-19251406D01*
X32922316Y-19646474D01*
X32871451Y-19769272D01*
X32768167Y-20018623D01*
X32544377Y-20353548D01*
X32259548Y-20638377D01*
X31924623Y-20862167D01*
X31770474Y-20926017D01*
X31552474Y-21016316D01*
X31157406Y-21094900D01*
X30754594Y-21094900D01*
X30359526Y-21016316D01*
X30141526Y-20926017D01*
X29987377Y-20862167D01*
X29652452Y-20638377D01*
X29367623Y-20353548D01*
X29143833Y-20018623D01*
X29040549Y-19769272D01*
X28989684Y-19646474D01*
X28911100Y-19251406D01*
X28911100Y-18848594D01*
X28989684Y-18453526D01*
X29111438Y-18159586D01*
X29143833Y-18081377D01*
X29367623Y-17746452D01*
X29652452Y-17461623D01*
X29987377Y-17237833D01*
X30141526Y-17173983D01*
X30359526Y-17083684D01*
X30754594Y-17005100D01*
X31157406Y-17005100D01*
X31552474Y-17083684D01*
G37*
G36*
X110133974Y-17083684D02*
G01*
X110351974Y-17173983D01*
X110506123Y-17237833D01*
X110841048Y-17461623D01*
X111125877Y-17746452D01*
X111349667Y-18081377D01*
X111382062Y-18159586D01*
X111503816Y-18453526D01*
X111582400Y-18848594D01*
X111582400Y-19251406D01*
X111503816Y-19646474D01*
X111452951Y-19769272D01*
X111349667Y-20018623D01*
X111125877Y-20353548D01*
X110841048Y-20638377D01*
X110506123Y-20862167D01*
X110351974Y-20926017D01*
X110133974Y-21016316D01*
X109738906Y-21094900D01*
X109336094Y-21094900D01*
X108941026Y-21016316D01*
X108723026Y-20926017D01*
X108568877Y-20862167D01*
X108233952Y-20638377D01*
X107949123Y-20353548D01*
X107725333Y-20018623D01*
X107622049Y-19769272D01*
X107571184Y-19646474D01*
X107492600Y-19251406D01*
X107492600Y-18848594D01*
X107571184Y-18453526D01*
X107692938Y-18159586D01*
X107725333Y-18081377D01*
X107949123Y-17746452D01*
X108233952Y-17461623D01*
X108568877Y-17237833D01*
X108723026Y-17173983D01*
X108941026Y-17083684D01*
X109336094Y-17005100D01*
X109738906Y-17005100D01*
X110133974Y-17083684D01*
G37*
G36*
X61216000Y-20396000D02*
G01*
X60164000Y-20396000D01*
X60164000Y-18994000D01*
X61216000Y-18994000D01*
X61216000Y-20396000D01*
G37*
G36*
X80226000Y-20346000D02*
G01*
X79174000Y-20346000D01*
X79174000Y-18944000D01*
X80226000Y-18944000D01*
X80226000Y-20346000D01*
G37*
G36*
X39746000Y-20316000D02*
G01*
X38694000Y-20316000D01*
X38694000Y-18914000D01*
X39746000Y-18914000D01*
X39746000Y-20316000D01*
G37*
G36*
X66627604Y-18159585D02*
G01*
X66796126Y-18229389D01*
X66947791Y-18330728D01*
X67076772Y-18459709D01*
X67178111Y-18611374D01*
X67247915Y-18779896D01*
X67283500Y-18958797D01*
X67283500Y-19141203D01*
X67247915Y-19320104D01*
X67178111Y-19488626D01*
X67076772Y-19640291D01*
X66947791Y-19769272D01*
X66796126Y-19870611D01*
X66627604Y-19940415D01*
X66448703Y-19976000D01*
X66266297Y-19976000D01*
X66087396Y-19940415D01*
X65918874Y-19870611D01*
X65767209Y-19769272D01*
X65638228Y-19640291D01*
X65536889Y-19488626D01*
X65467085Y-19320104D01*
X65431500Y-19141203D01*
X65431500Y-18958797D01*
X65467085Y-18779896D01*
X65536889Y-18611374D01*
X65638228Y-18459709D01*
X65767209Y-18330728D01*
X65918874Y-18229389D01*
X66087396Y-18159585D01*
X66266297Y-18124000D01*
X66448703Y-18124000D01*
X66627604Y-18159585D01*
G37*
G36*
X85677604Y-18159585D02*
G01*
X85846126Y-18229389D01*
X85997791Y-18330728D01*
X86126772Y-18459709D01*
X86228111Y-18611374D01*
X86297915Y-18779896D01*
X86333500Y-18958797D01*
X86333500Y-19141203D01*
X86297915Y-19320104D01*
X86228111Y-19488626D01*
X86126772Y-19640291D01*
X85997791Y-19769272D01*
X85846126Y-19870611D01*
X85677604Y-19940415D01*
X85498703Y-19976000D01*
X85316297Y-19976000D01*
X85137396Y-19940415D01*
X84968874Y-19870611D01*
X84817209Y-19769272D01*
X84688228Y-19640291D01*
X84586889Y-19488626D01*
X84517085Y-19320104D01*
X84481500Y-19141203D01*
X84481500Y-18958797D01*
X84517085Y-18779896D01*
X84586889Y-18611374D01*
X84688228Y-18459709D01*
X84817209Y-18330728D01*
X84968874Y-18229389D01*
X85137396Y-18159585D01*
X85316297Y-18124000D01*
X85498703Y-18124000D01*
X85677604Y-18159585D01*
G37*
G36*
X76787604Y-18159585D02*
G01*
X76956126Y-18229389D01*
X77107791Y-18330728D01*
X77236772Y-18459709D01*
X77338111Y-18611374D01*
X77407915Y-18779896D01*
X77443500Y-18958797D01*
X77443500Y-19141203D01*
X77407915Y-19320104D01*
X77338111Y-19488626D01*
X77236772Y-19640291D01*
X77107791Y-19769272D01*
X76956126Y-19870611D01*
X76787604Y-19940415D01*
X76608703Y-19976000D01*
X76426297Y-19976000D01*
X76247396Y-19940415D01*
X76078874Y-19870611D01*
X75927209Y-19769272D01*
X75798228Y-19640291D01*
X75696889Y-19488626D01*
X75627085Y-19320104D01*
X75591500Y-19141203D01*
X75591500Y-18958797D01*
X75627085Y-18779896D01*
X75696889Y-18611374D01*
X75798228Y-18459709D01*
X75927209Y-18330728D01*
X76078874Y-18229389D01*
X76247396Y-18159585D01*
X76426297Y-18124000D01*
X76608703Y-18124000D01*
X76787604Y-18159585D01*
G37*
G36*
X47577604Y-18159585D02*
G01*
X47746126Y-18229389D01*
X47897791Y-18330728D01*
X48026772Y-18459709D01*
X48128111Y-18611374D01*
X48197915Y-18779896D01*
X48233500Y-18958797D01*
X48233500Y-19141203D01*
X48197915Y-19320104D01*
X48128111Y-19488626D01*
X48026772Y-19640291D01*
X47897791Y-19769272D01*
X47746126Y-19870611D01*
X47577604Y-19940415D01*
X47398703Y-19976000D01*
X47216297Y-19976000D01*
X47037396Y-19940415D01*
X46868874Y-19870611D01*
X46717209Y-19769272D01*
X46588228Y-19640291D01*
X46486889Y-19488626D01*
X46417085Y-19320104D01*
X46381500Y-19141203D01*
X46381500Y-18958797D01*
X46417085Y-18779896D01*
X46486889Y-18611374D01*
X46588228Y-18459709D01*
X46717209Y-18330728D01*
X46868874Y-18229389D01*
X47037396Y-18159585D01*
X47216297Y-18124000D01*
X47398703Y-18124000D01*
X47577604Y-18159585D01*
G37*
G36*
X57737604Y-18159585D02*
G01*
X57906126Y-18229389D01*
X58057791Y-18330728D01*
X58186772Y-18459709D01*
X58288111Y-18611374D01*
X58357915Y-18779896D01*
X58393500Y-18958797D01*
X58393500Y-19141203D01*
X58357915Y-19320104D01*
X58288111Y-19488626D01*
X58186772Y-19640291D01*
X58057791Y-19769272D01*
X57906126Y-19870611D01*
X57737604Y-19940415D01*
X57558703Y-19976000D01*
X57376297Y-19976000D01*
X57197396Y-19940415D01*
X57028874Y-19870611D01*
X56877209Y-19769272D01*
X56748228Y-19640291D01*
X56646889Y-19488626D01*
X56577085Y-19320104D01*
X56541500Y-19141203D01*
X56541500Y-18958797D01*
X56577085Y-18779896D01*
X56646889Y-18611374D01*
X56748228Y-18459709D01*
X56877209Y-18330728D01*
X57028874Y-18229389D01*
X57197396Y-18159585D01*
X57376297Y-18124000D01*
X57558703Y-18124000D01*
X57737604Y-18159585D01*
G37*
G36*
X95837604Y-18159585D02*
G01*
X96006126Y-18229389D01*
X96157791Y-18330728D01*
X96286772Y-18459709D01*
X96388111Y-18611374D01*
X96457915Y-18779896D01*
X96493500Y-18958797D01*
X96493500Y-19141203D01*
X96457915Y-19320104D01*
X96388111Y-19488626D01*
X96286772Y-19640291D01*
X96157791Y-19769272D01*
X96006126Y-19870611D01*
X95837604Y-19940415D01*
X95658703Y-19976000D01*
X95476297Y-19976000D01*
X95297396Y-19940415D01*
X95128874Y-19870611D01*
X94977209Y-19769272D01*
X94848228Y-19640291D01*
X94746889Y-19488626D01*
X94677085Y-19320104D01*
X94641500Y-19141203D01*
X94641500Y-18958797D01*
X94677085Y-18779896D01*
X94746889Y-18611374D01*
X94848228Y-18459709D01*
X94977209Y-18330728D01*
X95128874Y-18229389D01*
X95297396Y-18159585D01*
X95476297Y-18124000D01*
X95658703Y-18124000D01*
X95837604Y-18159585D01*
G37*
G36*
X104727604Y-18159585D02*
G01*
X104896126Y-18229389D01*
X105047791Y-18330728D01*
X105176772Y-18459709D01*
X105278111Y-18611374D01*
X105347915Y-18779896D01*
X105383500Y-18958797D01*
X105383500Y-19141203D01*
X105347915Y-19320104D01*
X105278111Y-19488626D01*
X105176772Y-19640291D01*
X105047791Y-19769272D01*
X104896126Y-19870611D01*
X104727604Y-19940415D01*
X104548703Y-19976000D01*
X104366297Y-19976000D01*
X104187396Y-19940415D01*
X104018874Y-19870611D01*
X103867209Y-19769272D01*
X103738228Y-19640291D01*
X103636889Y-19488626D01*
X103567085Y-19320104D01*
X103531500Y-19141203D01*
X103531500Y-18958797D01*
X103567085Y-18779896D01*
X103636889Y-18611374D01*
X103738228Y-18459709D01*
X103867209Y-18330728D01*
X104018874Y-18229389D01*
X104187396Y-18159585D01*
X104366297Y-18124000D01*
X104548703Y-18124000D01*
X104727604Y-18159585D01*
G37*
G36*
X114887604Y-18159585D02*
G01*
X115056126Y-18229389D01*
X115207791Y-18330728D01*
X115336772Y-18459709D01*
X115438111Y-18611374D01*
X115507915Y-18779896D01*
X115543500Y-18958797D01*
X115543500Y-19141203D01*
X115507915Y-19320104D01*
X115438111Y-19488626D01*
X115336772Y-19640291D01*
X115207791Y-19769272D01*
X115056126Y-19870611D01*
X114887604Y-19940415D01*
X114708703Y-19976000D01*
X114526297Y-19976000D01*
X114347396Y-19940415D01*
X114178874Y-19870611D01*
X114027209Y-19769272D01*
X113898228Y-19640291D01*
X113796889Y-19488626D01*
X113727085Y-19320104D01*
X113691500Y-19141203D01*
X113691500Y-18958797D01*
X113727085Y-18779896D01*
X113796889Y-18611374D01*
X113898228Y-18459709D01*
X114027209Y-18330728D01*
X114178874Y-18229389D01*
X114347396Y-18159585D01*
X114526297Y-18124000D01*
X114708703Y-18124000D01*
X114887604Y-18159585D01*
G37*
G36*
X26146104Y-18159585D02*
G01*
X26314626Y-18229389D01*
X26466291Y-18330728D01*
X26595272Y-18459709D01*
X26696611Y-18611374D01*
X26766415Y-18779896D01*
X26802000Y-18958797D01*
X26802000Y-19141203D01*
X26766415Y-19320104D01*
X26696611Y-19488626D01*
X26595272Y-19640291D01*
X26466291Y-19769272D01*
X26314626Y-19870611D01*
X26146104Y-19940415D01*
X25967203Y-19976000D01*
X25784797Y-19976000D01*
X25605896Y-19940415D01*
X25437374Y-19870611D01*
X25285709Y-19769272D01*
X25156728Y-19640291D01*
X25055389Y-19488626D01*
X24985585Y-19320104D01*
X24950000Y-19141203D01*
X24950000Y-18958797D01*
X24985585Y-18779896D01*
X25055389Y-18611374D01*
X25156728Y-18459709D01*
X25285709Y-18330728D01*
X25437374Y-18229389D01*
X25605896Y-18159585D01*
X25784797Y-18124000D01*
X25967203Y-18124000D01*
X26146104Y-18159585D01*
G37*
G36*
X36306104Y-18159585D02*
G01*
X36474626Y-18229389D01*
X36626291Y-18330728D01*
X36755272Y-18459709D01*
X36856611Y-18611374D01*
X36926415Y-18779896D01*
X36962000Y-18958797D01*
X36962000Y-19141203D01*
X36926415Y-19320104D01*
X36856611Y-19488626D01*
X36755272Y-19640291D01*
X36626291Y-19769272D01*
X36474626Y-19870611D01*
X36306104Y-19940415D01*
X36127203Y-19976000D01*
X35944797Y-19976000D01*
X35765896Y-19940415D01*
X35597374Y-19870611D01*
X35445709Y-19769272D01*
X35316728Y-19640291D01*
X35215389Y-19488626D01*
X35145585Y-19320104D01*
X35110000Y-19141203D01*
X35110000Y-18958797D01*
X35145585Y-18779896D01*
X35215389Y-18611374D01*
X35316728Y-18459709D01*
X35445709Y-18330728D01*
X35597374Y-18229389D01*
X35765896Y-18159585D01*
X35944797Y-18124000D01*
X36127203Y-18124000D01*
X36306104Y-18159585D01*
G37*
G36*
X60784425Y-16914599D02*
G01*
X60908621Y-16939302D01*
X61045022Y-16995801D01*
X61167779Y-17077825D01*
X61272175Y-17182221D01*
X61354199Y-17304978D01*
X61410698Y-17441379D01*
X61439500Y-17586181D01*
X61439500Y-17733819D01*
X61410698Y-17878621D01*
X61354199Y-18015022D01*
X61272175Y-18137779D01*
X61167779Y-18242175D01*
X61045022Y-18324199D01*
X60908621Y-18380698D01*
X60784425Y-18405401D01*
X60763820Y-18409500D01*
X60616180Y-18409500D01*
X60595575Y-18405401D01*
X60471379Y-18380698D01*
X60334978Y-18324199D01*
X60212221Y-18242175D01*
X60107825Y-18137779D01*
X60025801Y-18015022D01*
X59969302Y-17878621D01*
X59940500Y-17733819D01*
X59940500Y-17586181D01*
X59969302Y-17441379D01*
X60025801Y-17304978D01*
X60107825Y-17182221D01*
X60212221Y-17077825D01*
X60334978Y-16995801D01*
X60471379Y-16939302D01*
X60595575Y-16914599D01*
X60616180Y-16910500D01*
X60763820Y-16910500D01*
X60784425Y-16914599D01*
G37*
G36*
X79794425Y-16864599D02*
G01*
X79918621Y-16889302D01*
X80055022Y-16945801D01*
X80177779Y-17027825D01*
X80282175Y-17132221D01*
X80364199Y-17254978D01*
X80420698Y-17391379D01*
X80449500Y-17536181D01*
X80449500Y-17683819D01*
X80420698Y-17828621D01*
X80364199Y-17965022D01*
X80282175Y-18087779D01*
X80177779Y-18192175D01*
X80055022Y-18274199D01*
X79918621Y-18330698D01*
X79794425Y-18355401D01*
X79773820Y-18359500D01*
X79626180Y-18359500D01*
X79605575Y-18355401D01*
X79481379Y-18330698D01*
X79344978Y-18274199D01*
X79222221Y-18192175D01*
X79117825Y-18087779D01*
X79035801Y-17965022D01*
X78979302Y-17828621D01*
X78950500Y-17683819D01*
X78950500Y-17536181D01*
X78979302Y-17391379D01*
X79035801Y-17254978D01*
X79117825Y-17132221D01*
X79222221Y-17027825D01*
X79344978Y-16945801D01*
X79481379Y-16889302D01*
X79605575Y-16864599D01*
X79626180Y-16860500D01*
X79773820Y-16860500D01*
X79794425Y-16864599D01*
G37*
G36*
X39314425Y-16834599D02*
G01*
X39438621Y-16859302D01*
X39575022Y-16915801D01*
X39697779Y-16997825D01*
X39802175Y-17102221D01*
X39884199Y-17224978D01*
X39940698Y-17361379D01*
X39969500Y-17506181D01*
X39969500Y-17653819D01*
X39940698Y-17798621D01*
X39884199Y-17935022D01*
X39802175Y-18057779D01*
X39697779Y-18162175D01*
X39575022Y-18244199D01*
X39438621Y-18300698D01*
X39314425Y-18325401D01*
X39293820Y-18329500D01*
X39146180Y-18329500D01*
X39125575Y-18325401D01*
X39001379Y-18300698D01*
X38864978Y-18244199D01*
X38742221Y-18162175D01*
X38637825Y-18057779D01*
X38555801Y-17935022D01*
X38499302Y-17798621D01*
X38470500Y-17653819D01*
X38470500Y-17506181D01*
X38499302Y-17361379D01*
X38555801Y-17224978D01*
X38637825Y-17102221D01*
X38742221Y-16997825D01*
X38864978Y-16915801D01*
X39001379Y-16859302D01*
X39125575Y-16834599D01*
X39146180Y-16830500D01*
X39293820Y-16830500D01*
X39314425Y-16834599D01*
G37*
G36*
X90054425Y-9874599D02*
G01*
X90178621Y-9899302D01*
X90315022Y-9955801D01*
X90437779Y-10037825D01*
X90542175Y-10142221D01*
X90624199Y-10264978D01*
X90680698Y-10401379D01*
X90709500Y-10546181D01*
X90709500Y-10693819D01*
X90680698Y-10838621D01*
X90624199Y-10975022D01*
X90542175Y-11097779D01*
X90437779Y-11202175D01*
X90315022Y-11284199D01*
X90178621Y-11340698D01*
X90054425Y-11365401D01*
X90033820Y-11369500D01*
X89886180Y-11369500D01*
X89865575Y-11365401D01*
X89741379Y-11340698D01*
X89604978Y-11284199D01*
X89482221Y-11202175D01*
X89377825Y-11097779D01*
X89295801Y-10975022D01*
X89239302Y-10838621D01*
X89210500Y-10693819D01*
X89210500Y-10546181D01*
X89239302Y-10401379D01*
X89295801Y-10264978D01*
X89377825Y-10142221D01*
X89482221Y-10037825D01*
X89604978Y-9955801D01*
X89741379Y-9899302D01*
X89865575Y-9874599D01*
X89886180Y-9870500D01*
X90033820Y-9870500D01*
X90054425Y-9874599D01*
G37*
G36*
X101679500Y-11369500D02*
G01*
X100180500Y-11369500D01*
X100180500Y-9870500D01*
X101679500Y-9870500D01*
X101679500Y-11369500D01*
G37*
G36*
X108644425Y-9874599D02*
G01*
X108768621Y-9899302D01*
X108905022Y-9955801D01*
X109027779Y-10037825D01*
X109132175Y-10142221D01*
X109214199Y-10264978D01*
X109270698Y-10401379D01*
X109299500Y-10546181D01*
X109299500Y-10693819D01*
X109270698Y-10838621D01*
X109214199Y-10975022D01*
X109132175Y-11097779D01*
X109027779Y-11202175D01*
X108905022Y-11284199D01*
X108768621Y-11340698D01*
X108644425Y-11365401D01*
X108623820Y-11369500D01*
X108476180Y-11369500D01*
X108455575Y-11365401D01*
X108331379Y-11340698D01*
X108194978Y-11284199D01*
X108072221Y-11202175D01*
X107967825Y-11097779D01*
X107885801Y-10975022D01*
X107829302Y-10838621D01*
X107800500Y-10693819D01*
X107800500Y-10546181D01*
X107829302Y-10401379D01*
X107885801Y-10264978D01*
X107967825Y-10142221D01*
X108072221Y-10037825D01*
X108194978Y-9955801D01*
X108331379Y-9899302D01*
X108455575Y-9874599D01*
X108476180Y-9870500D01*
X108623820Y-9870500D01*
X108644425Y-9874599D01*
G37*
G36*
X83089500Y-11369500D02*
G01*
X81590500Y-11369500D01*
X81590500Y-9870500D01*
X83089500Y-9870500D01*
X83089500Y-11369500D01*
G37*
G36*
X107216000Y-11146000D02*
G01*
X105814000Y-11146000D01*
X105814000Y-10094000D01*
X107216000Y-10094000D01*
X107216000Y-11146000D01*
G37*
G36*
X103666000Y-11146000D02*
G01*
X102264000Y-11146000D01*
X102264000Y-10094000D01*
X103666000Y-10094000D01*
X103666000Y-11146000D01*
G37*
G36*
X85076000Y-11146000D02*
G01*
X83674000Y-11146000D01*
X83674000Y-10094000D01*
X85076000Y-10094000D01*
X85076000Y-11146000D01*
G37*
G36*
X88626000Y-11146000D02*
G01*
X87224000Y-11146000D01*
X87224000Y-10094000D01*
X88626000Y-10094000D01*
X88626000Y-11146000D01*
G37*
G36*
X58949500Y-9069500D02*
G01*
X57450500Y-9069500D01*
X57450500Y-7570500D01*
X58949500Y-7570500D01*
X58949500Y-9069500D01*
G37*
G36*
X94649500Y-8959500D02*
G01*
X93150500Y-8959500D01*
X93150500Y-7460500D01*
X94649500Y-7460500D01*
X94649500Y-8959500D01*
G37*
G36*
X75789500Y-8929500D02*
G01*
X74290500Y-8929500D01*
X74290500Y-7430500D01*
X75789500Y-7430500D01*
X75789500Y-8929500D01*
G37*
G36*
X97229500Y-8869500D02*
G01*
X95730500Y-8869500D01*
X95730500Y-7370500D01*
X97229500Y-7370500D01*
X97229500Y-8869500D01*
G37*
G36*
X58726000Y-6986000D02*
G01*
X57674000Y-6986000D01*
X57674000Y-5584000D01*
X58726000Y-5584000D01*
X58726000Y-6986000D01*
G37*
G36*
X94426000Y-6876000D02*
G01*
X93374000Y-6876000D01*
X93374000Y-5474000D01*
X94426000Y-5474000D01*
X94426000Y-6876000D01*
G37*
G36*
X75566000Y-6846000D02*
G01*
X74514000Y-6846000D01*
X74514000Y-5444000D01*
X75566000Y-5444000D01*
X75566000Y-6846000D01*
G37*
G36*
X97006000Y-6786000D02*
G01*
X95954000Y-6786000D01*
X95954000Y-5384000D01*
X97006000Y-5384000D01*
X97006000Y-6786000D01*
G37*
G36*
X37629500Y-6139500D02*
G01*
X36130500Y-6139500D01*
X36130500Y-4640500D01*
X37629500Y-4640500D01*
X37629500Y-6139500D01*
G37*
G36*
X37406000Y-4056000D02*
G01*
X36354000Y-4056000D01*
X36354000Y-2654000D01*
X37406000Y-2654000D01*
X37406000Y-4056000D01*
G37*
G36*
X58726000Y-3436000D02*
G01*
X57674000Y-3436000D01*
X57674000Y-2034000D01*
X58726000Y-2034000D01*
X58726000Y-3436000D01*
G37*
G36*
X94426000Y-3326000D02*
G01*
X93374000Y-3326000D01*
X93374000Y-1924000D01*
X94426000Y-1924000D01*
X94426000Y-3326000D01*
G37*
G36*
X75566000Y-3296000D02*
G01*
X74514000Y-3296000D01*
X74514000Y-1894000D01*
X75566000Y-1894000D01*
X75566000Y-3296000D01*
G37*
G36*
X97006000Y-3236000D02*
G01*
X95954000Y-3236000D01*
X95954000Y-1834000D01*
X97006000Y-1834000D01*
X97006000Y-3236000D01*
G37*
G36*
X105371474Y1966316D02*
G01*
X105589474Y1876017D01*
X105743623Y1812167D01*
X106078548Y1588377D01*
X106363377Y1303548D01*
X106587167Y968623D01*
X106619562Y890414D01*
X106741316Y596474D01*
X106819900Y201406D01*
X106819900Y-201406D01*
X106741316Y-596474D01*
X106665868Y-778621D01*
X106587167Y-968623D01*
X106363377Y-1303548D01*
X106078548Y-1588377D01*
X105743623Y-1812167D01*
X105690913Y-1834000D01*
X105371474Y-1966316D01*
X104976406Y-2044900D01*
X104573594Y-2044900D01*
X104178526Y-1966316D01*
X103859087Y-1834000D01*
X103806377Y-1812167D01*
X103471452Y-1588377D01*
X103186623Y-1303548D01*
X102962833Y-968623D01*
X102884132Y-778621D01*
X102808684Y-596474D01*
X102730100Y-201406D01*
X102730100Y201406D01*
X102808684Y596474D01*
X102930438Y890414D01*
X102962833Y968623D01*
X103186623Y1303548D01*
X103471452Y1588377D01*
X103806377Y1812167D01*
X103960526Y1876017D01*
X104178526Y1966316D01*
X104573594Y2044900D01*
X104976406Y2044900D01*
X105371474Y1966316D01*
G37*
G36*
X29171474Y1966316D02*
G01*
X29389474Y1876017D01*
X29543623Y1812167D01*
X29878548Y1588377D01*
X30163377Y1303548D01*
X30387167Y968623D01*
X30419562Y890414D01*
X30541316Y596474D01*
X30619900Y201406D01*
X30619900Y-201406D01*
X30541316Y-596474D01*
X30465868Y-778621D01*
X30387167Y-968623D01*
X30163377Y-1303548D01*
X29878548Y-1588377D01*
X29543623Y-1812167D01*
X29490913Y-1834000D01*
X29171474Y-1966316D01*
X28776406Y-2044900D01*
X28373594Y-2044900D01*
X27978526Y-1966316D01*
X27659087Y-1834000D01*
X27606377Y-1812167D01*
X27271452Y-1588377D01*
X26986623Y-1303548D01*
X26762833Y-968623D01*
X26684132Y-778621D01*
X26608684Y-596474D01*
X26530100Y-201406D01*
X26530100Y201406D01*
X26608684Y596474D01*
X26730438Y890414D01*
X26762833Y968623D01*
X26986623Y1303548D01*
X27271452Y1588377D01*
X27606377Y1812167D01*
X27760526Y1876017D01*
X27978526Y1966316D01*
X28373594Y2044900D01*
X28776406Y2044900D01*
X29171474Y1966316D01*
G37*
G36*
X48221474Y1966316D02*
G01*
X48439474Y1876017D01*
X48593623Y1812167D01*
X48928548Y1588377D01*
X49213377Y1303548D01*
X49437167Y968623D01*
X49469562Y890414D01*
X49591316Y596474D01*
X49669900Y201406D01*
X49669900Y-201406D01*
X49591316Y-596474D01*
X49515868Y-778621D01*
X49437167Y-968623D01*
X49213377Y-1303548D01*
X48928548Y-1588377D01*
X48593623Y-1812167D01*
X48540913Y-1834000D01*
X48221474Y-1966316D01*
X47826406Y-2044900D01*
X47423594Y-2044900D01*
X47028526Y-1966316D01*
X46709087Y-1834000D01*
X46656377Y-1812167D01*
X46321452Y-1588377D01*
X46036623Y-1303548D01*
X45812833Y-968623D01*
X45734132Y-778621D01*
X45658684Y-596474D01*
X45580100Y-201406D01*
X45580100Y201406D01*
X45658684Y596474D01*
X45780438Y890414D01*
X45812833Y968623D01*
X46036623Y1303548D01*
X46321452Y1588377D01*
X46656377Y1812167D01*
X46810526Y1876017D01*
X47028526Y1966316D01*
X47423594Y2044900D01*
X47826406Y2044900D01*
X48221474Y1966316D01*
G37*
G36*
X86321474Y1966316D02*
G01*
X86539474Y1876017D01*
X86693623Y1812167D01*
X87028548Y1588377D01*
X87313377Y1303548D01*
X87537167Y968623D01*
X87569562Y890414D01*
X87691316Y596474D01*
X87769900Y201406D01*
X87769900Y-201406D01*
X87691316Y-596474D01*
X87615868Y-778621D01*
X87537167Y-968623D01*
X87313377Y-1303548D01*
X87028548Y-1588377D01*
X86693623Y-1812167D01*
X86640913Y-1834000D01*
X86321474Y-1966316D01*
X85926406Y-2044900D01*
X85523594Y-2044900D01*
X85128526Y-1966316D01*
X84809087Y-1834000D01*
X84756377Y-1812167D01*
X84421452Y-1588377D01*
X84136623Y-1303548D01*
X83912833Y-968623D01*
X83834132Y-778621D01*
X83758684Y-596474D01*
X83680100Y-201406D01*
X83680100Y201406D01*
X83758684Y596474D01*
X83880438Y890414D01*
X83912833Y968623D01*
X84136623Y1303548D01*
X84421452Y1588377D01*
X84756377Y1812167D01*
X84910526Y1876017D01*
X85128526Y1966316D01*
X85523594Y2044900D01*
X85926406Y2044900D01*
X86321474Y1966316D01*
G37*
G36*
X67271474Y1966316D02*
G01*
X67489474Y1876017D01*
X67643623Y1812167D01*
X67978548Y1588377D01*
X68263377Y1303548D01*
X68487167Y968623D01*
X68519562Y890414D01*
X68641316Y596474D01*
X68719900Y201406D01*
X68719900Y-201406D01*
X68641316Y-596474D01*
X68565868Y-778621D01*
X68487167Y-968623D01*
X68263377Y-1303548D01*
X67978548Y-1588377D01*
X67643623Y-1812167D01*
X67590913Y-1834000D01*
X67271474Y-1966316D01*
X66876406Y-2044900D01*
X66473594Y-2044900D01*
X66078526Y-1966316D01*
X65759087Y-1834000D01*
X65706377Y-1812167D01*
X65371452Y-1588377D01*
X65086623Y-1303548D01*
X64862833Y-968623D01*
X64784132Y-778621D01*
X64708684Y-596474D01*
X64630100Y-201406D01*
X64630100Y201406D01*
X64708684Y596474D01*
X64830438Y890414D01*
X64862833Y968623D01*
X65086623Y1303548D01*
X65371452Y1588377D01*
X65706377Y1812167D01*
X65860526Y1876017D01*
X66078526Y1966316D01*
X66473594Y2044900D01*
X66876406Y2044900D01*
X67271474Y1966316D01*
G37*
G36*
X58294425Y45401D02*
G01*
X58418621Y20698D01*
X58555022Y-35801D01*
X58677779Y-117825D01*
X58782175Y-222221D01*
X58864199Y-344978D01*
X58920698Y-481379D01*
X58949500Y-626181D01*
X58949500Y-773819D01*
X58920698Y-918621D01*
X58864199Y-1055022D01*
X58782175Y-1177779D01*
X58677779Y-1282175D01*
X58555022Y-1364199D01*
X58418621Y-1420698D01*
X58294425Y-1445401D01*
X58273820Y-1449500D01*
X58126180Y-1449500D01*
X58105575Y-1445401D01*
X57981379Y-1420698D01*
X57844978Y-1364199D01*
X57722221Y-1282175D01*
X57617825Y-1177779D01*
X57535801Y-1055022D01*
X57479302Y-918621D01*
X57450500Y-773819D01*
X57450500Y-626181D01*
X57479302Y-481379D01*
X57535801Y-344978D01*
X57617825Y-222221D01*
X57722221Y-117825D01*
X57844978Y-35801D01*
X57981379Y20698D01*
X58105575Y45401D01*
X58126180Y49500D01*
X58273820Y49500D01*
X58294425Y45401D01*
G37*
G36*
X93994425Y155401D02*
G01*
X94118621Y130698D01*
X94255022Y74199D01*
X94377779Y-7825D01*
X94482175Y-112221D01*
X94564199Y-234978D01*
X94620698Y-371379D01*
X94649500Y-516181D01*
X94649500Y-663819D01*
X94620698Y-808621D01*
X94564199Y-945022D01*
X94482175Y-1067779D01*
X94377779Y-1172175D01*
X94255022Y-1254199D01*
X94118621Y-1310698D01*
X93994425Y-1335401D01*
X93973820Y-1339500D01*
X93826180Y-1339500D01*
X93805575Y-1335401D01*
X93681379Y-1310698D01*
X93544978Y-1254199D01*
X93422221Y-1172175D01*
X93317825Y-1067779D01*
X93235801Y-945022D01*
X93179302Y-808621D01*
X93150500Y-663819D01*
X93150500Y-516181D01*
X93179302Y-371379D01*
X93235801Y-234978D01*
X93317825Y-112221D01*
X93422221Y-7825D01*
X93544978Y74199D01*
X93681379Y130698D01*
X93805575Y155401D01*
X93826180Y159500D01*
X93973820Y159500D01*
X93994425Y155401D01*
G37*
G36*
X75134425Y185401D02*
G01*
X75258621Y160698D01*
X75395022Y104199D01*
X75517779Y22175D01*
X75622175Y-82221D01*
X75704199Y-204978D01*
X75760698Y-341379D01*
X75789500Y-486181D01*
X75789500Y-633819D01*
X75760698Y-778621D01*
X75704199Y-915022D01*
X75622175Y-1037779D01*
X75517779Y-1142175D01*
X75395022Y-1224199D01*
X75258621Y-1280698D01*
X75134425Y-1305401D01*
X75113820Y-1309500D01*
X74966180Y-1309500D01*
X74945575Y-1305401D01*
X74821379Y-1280698D01*
X74684978Y-1224199D01*
X74562221Y-1142175D01*
X74457825Y-1037779D01*
X74375801Y-915022D01*
X74319302Y-778621D01*
X74290500Y-633819D01*
X74290500Y-486181D01*
X74319302Y-341379D01*
X74375801Y-204978D01*
X74457825Y-82221D01*
X74562221Y22175D01*
X74684978Y104199D01*
X74821379Y160698D01*
X74945575Y185401D01*
X74966180Y189500D01*
X75113820Y189500D01*
X75134425Y185401D01*
G37*
G36*
X96574425Y245401D02*
G01*
X96698621Y220698D01*
X96835022Y164199D01*
X96957779Y82175D01*
X97062175Y-22221D01*
X97144199Y-144978D01*
X97200698Y-281379D01*
X97229500Y-426181D01*
X97229500Y-573819D01*
X97200698Y-718621D01*
X97144199Y-855022D01*
X97062175Y-977779D01*
X96957779Y-1082175D01*
X96835022Y-1164199D01*
X96698621Y-1220698D01*
X96574425Y-1245401D01*
X96553820Y-1249500D01*
X96406180Y-1249500D01*
X96385575Y-1245401D01*
X96261379Y-1220698D01*
X96124978Y-1164199D01*
X96002221Y-1082175D01*
X95897825Y-977779D01*
X95815801Y-855022D01*
X95759302Y-718621D01*
X95730500Y-573819D01*
X95730500Y-426181D01*
X95759302Y-281379D01*
X95815801Y-144978D01*
X95897825Y-22221D01*
X96002221Y82175D01*
X96124978Y164199D01*
X96261379Y220698D01*
X96385575Y245401D01*
X96406180Y249500D01*
X96553820Y249500D01*
X96574425Y245401D01*
G37*
G36*
X91075104Y890415D02*
G01*
X91243626Y820611D01*
X91395291Y719272D01*
X91524272Y590291D01*
X91625611Y438626D01*
X91695415Y270104D01*
X91731000Y91203D01*
X91731000Y-91203D01*
X91695415Y-270104D01*
X91625611Y-438626D01*
X91524272Y-590291D01*
X91395291Y-719272D01*
X91243626Y-820611D01*
X91075104Y-890415D01*
X90896203Y-926000D01*
X90713797Y-926000D01*
X90534896Y-890415D01*
X90366374Y-820611D01*
X90214709Y-719272D01*
X90085728Y-590291D01*
X89984389Y-438626D01*
X89914585Y-270104D01*
X89879000Y-91203D01*
X89879000Y91203D01*
X89914585Y270104D01*
X89984389Y438626D01*
X90085728Y590291D01*
X90214709Y719272D01*
X90366374Y820611D01*
X90534896Y890415D01*
X90713797Y926000D01*
X90896203Y926000D01*
X91075104Y890415D01*
G37*
G36*
X23765104Y890415D02*
G01*
X23933626Y820611D01*
X24085291Y719272D01*
X24214272Y590291D01*
X24315611Y438626D01*
X24385415Y270104D01*
X24421000Y91203D01*
X24421000Y-91203D01*
X24385415Y-270104D01*
X24315611Y-438626D01*
X24214272Y-590291D01*
X24085291Y-719272D01*
X23933626Y-820611D01*
X23765104Y-890415D01*
X23586203Y-926000D01*
X23403797Y-926000D01*
X23224896Y-890415D01*
X23056374Y-820611D01*
X22904709Y-719272D01*
X22775728Y-590291D01*
X22674389Y-438626D01*
X22604585Y-270104D01*
X22569000Y-91203D01*
X22569000Y91203D01*
X22604585Y270104D01*
X22674389Y438626D01*
X22775728Y590291D01*
X22904709Y719272D01*
X23056374Y820611D01*
X23224896Y890415D01*
X23403797Y926000D01*
X23586203Y926000D01*
X23765104Y890415D01*
G37*
G36*
X99965104Y890415D02*
G01*
X100133626Y820611D01*
X100285291Y719272D01*
X100414272Y590291D01*
X100515611Y438626D01*
X100585415Y270104D01*
X100621000Y91203D01*
X100621000Y-91203D01*
X100585415Y-270104D01*
X100515611Y-438626D01*
X100414272Y-590291D01*
X100285291Y-719272D01*
X100133626Y-820611D01*
X99965104Y-890415D01*
X99786203Y-926000D01*
X99603797Y-926000D01*
X99424896Y-890415D01*
X99256374Y-820611D01*
X99104709Y-719272D01*
X98975728Y-590291D01*
X98874389Y-438626D01*
X98804585Y-270104D01*
X98769000Y-91203D01*
X98769000Y91203D01*
X98804585Y270104D01*
X98874389Y438626D01*
X98975728Y590291D01*
X99104709Y719272D01*
X99256374Y820611D01*
X99424896Y890415D01*
X99603797Y926000D01*
X99786203Y926000D01*
X99965104Y890415D01*
G37*
G36*
X110125104Y890415D02*
G01*
X110293626Y820611D01*
X110445291Y719272D01*
X110574272Y590291D01*
X110675611Y438626D01*
X110745415Y270104D01*
X110781000Y91203D01*
X110781000Y-91203D01*
X110745415Y-270104D01*
X110675611Y-438626D01*
X110574272Y-590291D01*
X110445291Y-719272D01*
X110293626Y-820611D01*
X110125104Y-890415D01*
X109946203Y-926000D01*
X109763797Y-926000D01*
X109584896Y-890415D01*
X109416374Y-820611D01*
X109264709Y-719272D01*
X109135728Y-590291D01*
X109034389Y-438626D01*
X108964585Y-270104D01*
X108929000Y-91203D01*
X108929000Y91203D01*
X108964585Y270104D01*
X109034389Y438626D01*
X109135728Y590291D01*
X109264709Y719272D01*
X109416374Y820611D01*
X109584896Y890415D01*
X109763797Y926000D01*
X109946203Y926000D01*
X110125104Y890415D01*
G37*
G36*
X33925104Y890415D02*
G01*
X34093626Y820611D01*
X34245291Y719272D01*
X34374272Y590291D01*
X34475611Y438626D01*
X34545415Y270104D01*
X34581000Y91203D01*
X34581000Y-91203D01*
X34545415Y-270104D01*
X34475611Y-438626D01*
X34374272Y-590291D01*
X34245291Y-719272D01*
X34093626Y-820611D01*
X33925104Y-890415D01*
X33746203Y-926000D01*
X33563797Y-926000D01*
X33384896Y-890415D01*
X33216374Y-820611D01*
X33064709Y-719272D01*
X32935728Y-590291D01*
X32834389Y-438626D01*
X32764585Y-270104D01*
X32729000Y-91203D01*
X32729000Y91203D01*
X32764585Y270104D01*
X32834389Y438626D01*
X32935728Y590291D01*
X33064709Y719272D01*
X33216374Y820611D01*
X33384896Y890415D01*
X33563797Y926000D01*
X33746203Y926000D01*
X33925104Y890415D01*
G37*
G36*
X42815104Y890415D02*
G01*
X42983626Y820611D01*
X43135291Y719272D01*
X43264272Y590291D01*
X43365611Y438626D01*
X43435415Y270104D01*
X43471000Y91203D01*
X43471000Y-91203D01*
X43435415Y-270104D01*
X43365611Y-438626D01*
X43264272Y-590291D01*
X43135291Y-719272D01*
X42983626Y-820611D01*
X42815104Y-890415D01*
X42636203Y-926000D01*
X42453797Y-926000D01*
X42274896Y-890415D01*
X42106374Y-820611D01*
X41954709Y-719272D01*
X41825728Y-590291D01*
X41724389Y-438626D01*
X41654585Y-270104D01*
X41619000Y-91203D01*
X41619000Y91203D01*
X41654585Y270104D01*
X41724389Y438626D01*
X41825728Y590291D01*
X41954709Y719272D01*
X42106374Y820611D01*
X42274896Y890415D01*
X42453797Y926000D01*
X42636203Y926000D01*
X42815104Y890415D01*
G37*
G36*
X52975104Y890415D02*
G01*
X53143626Y820611D01*
X53295291Y719272D01*
X53424272Y590291D01*
X53525611Y438626D01*
X53595415Y270104D01*
X53631000Y91203D01*
X53631000Y-91203D01*
X53595415Y-270104D01*
X53525611Y-438626D01*
X53424272Y-590291D01*
X53295291Y-719272D01*
X53143626Y-820611D01*
X52975104Y-890415D01*
X52796203Y-926000D01*
X52613797Y-926000D01*
X52434896Y-890415D01*
X52266374Y-820611D01*
X52114709Y-719272D01*
X51985728Y-590291D01*
X51884389Y-438626D01*
X51814585Y-270104D01*
X51779000Y-91203D01*
X51779000Y91203D01*
X51814585Y270104D01*
X51884389Y438626D01*
X51985728Y590291D01*
X52114709Y719272D01*
X52266374Y820611D01*
X52434896Y890415D01*
X52613797Y926000D01*
X52796203Y926000D01*
X52975104Y890415D01*
G37*
G36*
X61865104Y890415D02*
G01*
X62033626Y820611D01*
X62185291Y719272D01*
X62314272Y590291D01*
X62415611Y438626D01*
X62485415Y270104D01*
X62521000Y91203D01*
X62521000Y-91203D01*
X62485415Y-270104D01*
X62415611Y-438626D01*
X62314272Y-590291D01*
X62185291Y-719272D01*
X62033626Y-820611D01*
X61865104Y-890415D01*
X61686203Y-926000D01*
X61503797Y-926000D01*
X61324896Y-890415D01*
X61156374Y-820611D01*
X61004709Y-719272D01*
X60875728Y-590291D01*
X60774389Y-438626D01*
X60704585Y-270104D01*
X60669000Y-91203D01*
X60669000Y91203D01*
X60704585Y270104D01*
X60774389Y438626D01*
X60875728Y590291D01*
X61004709Y719272D01*
X61156374Y820611D01*
X61324896Y890415D01*
X61503797Y926000D01*
X61686203Y926000D01*
X61865104Y890415D01*
G37*
G36*
X72025104Y890415D02*
G01*
X72193626Y820611D01*
X72345291Y719272D01*
X72474272Y590291D01*
X72575611Y438626D01*
X72645415Y270104D01*
X72681000Y91203D01*
X72681000Y-91203D01*
X72645415Y-270104D01*
X72575611Y-438626D01*
X72474272Y-590291D01*
X72345291Y-719272D01*
X72193626Y-820611D01*
X72025104Y-890415D01*
X71846203Y-926000D01*
X71663797Y-926000D01*
X71484896Y-890415D01*
X71316374Y-820611D01*
X71164709Y-719272D01*
X71035728Y-590291D01*
X70934389Y-438626D01*
X70864585Y-270104D01*
X70829000Y-91203D01*
X70829000Y91203D01*
X70864585Y270104D01*
X70934389Y438626D01*
X71035728Y590291D01*
X71164709Y719272D01*
X71316374Y820611D01*
X71484896Y890415D01*
X71663797Y926000D01*
X71846203Y926000D01*
X72025104Y890415D01*
G37*
G36*
X80915104Y890415D02*
G01*
X81083626Y820611D01*
X81235291Y719272D01*
X81364272Y590291D01*
X81465611Y438626D01*
X81535415Y270104D01*
X81571000Y91203D01*
X81571000Y-91203D01*
X81535415Y-270104D01*
X81465611Y-438626D01*
X81364272Y-590291D01*
X81235291Y-719272D01*
X81083626Y-820611D01*
X80915104Y-890415D01*
X80736203Y-926000D01*
X80553797Y-926000D01*
X80374896Y-890415D01*
X80206374Y-820611D01*
X80054709Y-719272D01*
X79925728Y-590291D01*
X79824389Y-438626D01*
X79754585Y-270104D01*
X79719000Y-91203D01*
X79719000Y91203D01*
X79754585Y270104D01*
X79824389Y438626D01*
X79925728Y590291D01*
X80054709Y719272D01*
X80206374Y820611D01*
X80374896Y890415D01*
X80553797Y926000D01*
X80736203Y926000D01*
X80915104Y890415D01*
G37*
G36*
X37406000Y-506000D02*
G01*
X36354000Y-506000D01*
X36354000Y896000D01*
X37406000Y896000D01*
X37406000Y-506000D01*
G37*
G36*
X36974425Y2975401D02*
G01*
X37098621Y2950698D01*
X37235022Y2894199D01*
X37357779Y2812175D01*
X37462175Y2707779D01*
X37544199Y2585022D01*
X37600698Y2448621D01*
X37629500Y2303819D01*
X37629500Y2156181D01*
X37600698Y2011379D01*
X37544199Y1874978D01*
X37462175Y1752221D01*
X37357779Y1647825D01*
X37235022Y1565801D01*
X37098621Y1509302D01*
X36974425Y1484599D01*
X36953820Y1480500D01*
X36806180Y1480500D01*
X36785575Y1484599D01*
X36661379Y1509302D01*
X36524978Y1565801D01*
X36402221Y1647825D01*
X36297825Y1752221D01*
X36215801Y1874978D01*
X36159302Y2011379D01*
X36130500Y2156181D01*
X36130500Y2303819D01*
X36159302Y2448621D01*
X36215801Y2585022D01*
X36297825Y2707779D01*
X36402221Y2812175D01*
X36524978Y2894199D01*
X36661379Y2950698D01*
X36785575Y2975401D01*
X36806180Y2979500D01*
X36953820Y2979500D01*
X36974425Y2975401D01*
G37*
G36*
X69001981Y10445611D02*
G01*
X69193250Y10366385D01*
X69193252Y10366384D01*
X69365390Y10251365D01*
X69511782Y10104973D01*
X69595067Y9980329D01*
X69626802Y9932833D01*
X69706028Y9741564D01*
X69746417Y9538516D01*
X69746417Y9331484D01*
X69706028Y9128436D01*
X69626802Y8937167D01*
X69626801Y8937165D01*
X69511782Y8765027D01*
X69365390Y8618635D01*
X69193252Y8503616D01*
X69193251Y8503615D01*
X69193250Y8503615D01*
X69001981Y8424389D01*
X68798933Y8384000D01*
X68591901Y8384000D01*
X68388853Y8424389D01*
X68197584Y8503615D01*
X68197583Y8503615D01*
X68197582Y8503616D01*
X68025444Y8618635D01*
X67879052Y8765027D01*
X67764033Y8937165D01*
X67764032Y8937167D01*
X67684806Y9128436D01*
X67644417Y9331484D01*
X67644417Y9538516D01*
X67684806Y9741564D01*
X67764032Y9932833D01*
X67795768Y9980329D01*
X67879052Y10104973D01*
X68025444Y10251365D01*
X68197582Y10366384D01*
X68197584Y10366385D01*
X68388853Y10445611D01*
X68591901Y10486000D01*
X68798933Y10486000D01*
X69001981Y10445611D01*
G37*
G36*
X63986587Y11558246D02*
G01*
X64061637Y11545856D01*
X64227739Y11483339D01*
X64378457Y11389617D01*
X64507995Y11268292D01*
X64611374Y11124026D01*
X64684622Y10962365D01*
X64724924Y10789520D01*
X64730730Y10612133D01*
X64713153Y10505670D01*
X64701819Y10437021D01*
X64675233Y10366385D01*
X64639302Y10270918D01*
X64545580Y10120200D01*
X64424255Y9990663D01*
X64424254Y9990662D01*
X64316140Y9913189D01*
X63546657Y9468927D01*
X63425513Y9414038D01*
X63425512Y9414038D01*
X63425508Y9414036D01*
X63298437Y9384407D01*
X63252660Y9373733D01*
X63075277Y9367927D01*
X62900167Y9396837D01*
X62817114Y9428097D01*
X62734061Y9459355D01*
X62641130Y9517143D01*
X62583342Y9553078D01*
X62453807Y9674401D01*
X62350426Y9818668D01*
X62277180Y9980327D01*
X62277179Y9980329D01*
X62236877Y10153174D01*
X62236876Y10153177D01*
X62231070Y10330560D01*
X62259980Y10505670D01*
X62322498Y10671776D01*
X62395716Y10789520D01*
X62416221Y10822495D01*
X62537542Y10952028D01*
X62537543Y10952028D01*
X62537545Y10952031D01*
X62591604Y10990769D01*
X62645665Y11029509D01*
X63415143Y11473767D01*
X63536292Y11528659D01*
X63709134Y11568961D01*
X63886520Y11574767D01*
X63886524Y11574767D01*
X63986587Y11558246D01*
G37*
G36*
X74631147Y13695611D02*
G01*
X74822416Y13616385D01*
X74822418Y13616384D01*
X74959166Y13525012D01*
X74994556Y13501365D01*
X75140948Y13354973D01*
X75255968Y13182833D01*
X75335194Y12991564D01*
X75375583Y12788516D01*
X75375583Y12581484D01*
X75335194Y12378436D01*
X75255968Y12187167D01*
X75255967Y12187165D01*
X75140948Y12015027D01*
X74994556Y11868635D01*
X74822418Y11753616D01*
X74822417Y11753615D01*
X74822416Y11753615D01*
X74631147Y11674389D01*
X74428099Y11634000D01*
X74221067Y11634000D01*
X74018019Y11674389D01*
X73826750Y11753615D01*
X73826749Y11753615D01*
X73826748Y11753616D01*
X73654610Y11868635D01*
X73508218Y12015027D01*
X73393199Y12187165D01*
X73393198Y12187167D01*
X73313972Y12378436D01*
X73273583Y12581484D01*
X73273583Y12788516D01*
X73313972Y12991564D01*
X73393198Y13182833D01*
X73508218Y13354973D01*
X73654610Y13501365D01*
X73690000Y13525012D01*
X73826748Y13616384D01*
X73826750Y13616385D01*
X74018019Y13695611D01*
X74221067Y13736000D01*
X74428099Y13736000D01*
X74631147Y13695611D01*
G37*
G36*
X65478674Y14565983D02*
G01*
X65597148Y14516909D01*
X65703772Y14445665D01*
X65794449Y14354988D01*
X65865694Y14248362D01*
X65914767Y14129890D01*
X65939784Y14004119D01*
X65939784Y13875881D01*
X65921537Y13784144D01*
X65914767Y13750110D01*
X65865693Y13631636D01*
X65794449Y13525012D01*
X65703772Y13434335D01*
X65597148Y13363091D01*
X65597147Y13363090D01*
X65597146Y13363090D01*
X65478674Y13314017D01*
X65352903Y13289000D01*
X65224665Y13289000D01*
X65098894Y13314017D01*
X64980422Y13363090D01*
X64980421Y13363090D01*
X64980420Y13363091D01*
X64873796Y13434335D01*
X64783119Y13525012D01*
X64711875Y13631636D01*
X64662801Y13750110D01*
X64656031Y13784144D01*
X64637784Y13875881D01*
X64637784Y14004119D01*
X64662801Y14129890D01*
X64711874Y14248362D01*
X64783119Y14354988D01*
X64873796Y14445665D01*
X64980420Y14516909D01*
X65098894Y14565983D01*
X65224665Y14591000D01*
X65352903Y14591000D01*
X65478674Y14565983D01*
G37*
G36*
X63185625Y15945552D02*
G01*
X63260675Y15933162D01*
X63426777Y15870645D01*
X63577495Y15776923D01*
X63707033Y15655598D01*
X63810412Y15511332D01*
X63883660Y15349671D01*
X63923962Y15176826D01*
X63929768Y14999439D01*
X63912191Y14892976D01*
X63900857Y14824327D01*
X63874008Y14752992D01*
X63838340Y14658224D01*
X63744618Y14507506D01*
X63686697Y14445665D01*
X63623292Y14377968D01*
X63515178Y14300495D01*
X62745695Y13856233D01*
X62624551Y13801344D01*
X62624550Y13801344D01*
X62624546Y13801342D01*
X62497475Y13771713D01*
X62451698Y13761039D01*
X62274315Y13755233D01*
X62099205Y13784143D01*
X61933099Y13846661D01*
X61840168Y13904449D01*
X61782380Y13940384D01*
X61652845Y14061707D01*
X61549464Y14205974D01*
X61476218Y14367633D01*
X61476217Y14367635D01*
X61435915Y14540480D01*
X61435914Y14540483D01*
X61430108Y14717866D01*
X61459018Y14892976D01*
X61521536Y15059082D01*
X61594754Y15176826D01*
X61615259Y15209801D01*
X61736580Y15339334D01*
X61736581Y15339334D01*
X61736583Y15339337D01*
X61790642Y15378075D01*
X61844703Y15416815D01*
X62614181Y15861073D01*
X62735330Y15915965D01*
X62908172Y15956267D01*
X63085558Y15962073D01*
X63085562Y15962073D01*
X63185625Y15945552D01*
G37*
G36*
X66649045Y17945665D02*
G01*
X66724777Y17933162D01*
X66871422Y17877968D01*
X66890879Y17870645D01*
X67041597Y17776923D01*
X67171135Y17655598D01*
X67274514Y17511332D01*
X67347762Y17349671D01*
X67388064Y17176826D01*
X67393870Y16999439D01*
X67383121Y16934335D01*
X67364959Y16824327D01*
X67338110Y16752992D01*
X67302442Y16658224D01*
X67208720Y16507506D01*
X67087395Y16377969D01*
X67087394Y16377968D01*
X66979280Y16300495D01*
X66209797Y15856233D01*
X66088653Y15801344D01*
X66088652Y15801344D01*
X66088648Y15801342D01*
X65983921Y15776923D01*
X65915800Y15761039D01*
X65738417Y15755233D01*
X65563307Y15784143D01*
X65397201Y15846661D01*
X65304270Y15904449D01*
X65246482Y15940384D01*
X65116947Y16061707D01*
X65013566Y16205974D01*
X64940320Y16367633D01*
X64940319Y16367635D01*
X64900017Y16540480D01*
X64900016Y16540483D01*
X64894210Y16717866D01*
X64923120Y16892976D01*
X64954380Y16976029D01*
X64985638Y17059082D01*
X65058856Y17176826D01*
X65079361Y17209801D01*
X65200682Y17339334D01*
X65200683Y17339334D01*
X65200685Y17339337D01*
X65254744Y17378075D01*
X65308805Y17416815D01*
X66078283Y17861073D01*
X66199432Y17915965D01*
X66372274Y17956267D01*
X66549660Y17962073D01*
X66549664Y17962073D01*
X66649045Y17945665D01*
G37*
G36*
X71540852Y18065983D02*
G01*
X71659326Y18016909D01*
X71741394Y17962073D01*
X71765950Y17945665D01*
X71856627Y17854988D01*
X71927872Y17748362D01*
X71976945Y17629890D01*
X72001962Y17504119D01*
X72001962Y17375881D01*
X71976945Y17250110D01*
X71946590Y17176826D01*
X71927871Y17131636D01*
X71856627Y17025012D01*
X71765950Y16934335D01*
X71659326Y16863091D01*
X71659325Y16863090D01*
X71659324Y16863090D01*
X71540852Y16814017D01*
X71415081Y16789000D01*
X71286843Y16789000D01*
X71161072Y16814017D01*
X71042600Y16863090D01*
X71042599Y16863090D01*
X71042598Y16863091D01*
X70935974Y16934335D01*
X70845297Y17025012D01*
X70774053Y17131636D01*
X70755335Y17176826D01*
X70724979Y17250110D01*
X70699962Y17375881D01*
X70699962Y17504119D01*
X70724979Y17629890D01*
X70774052Y17748362D01*
X70845297Y17854988D01*
X70935974Y17945665D01*
X70960530Y17962073D01*
X71042598Y18016909D01*
X71161072Y18065983D01*
X71286843Y18091000D01*
X71415081Y18091000D01*
X71540852Y18065983D01*
G37*
G36*
X69247803Y19445552D02*
G01*
X69322853Y19433162D01*
X69488955Y19370645D01*
X69639673Y19276923D01*
X69769211Y19155598D01*
X69872590Y19011332D01*
X69945838Y18849671D01*
X69986140Y18676826D01*
X69991946Y18499439D01*
X69974369Y18392976D01*
X69963035Y18324327D01*
X69936186Y18252992D01*
X69900518Y18158224D01*
X69806796Y18007506D01*
X69764243Y17962073D01*
X69685470Y17877968D01*
X69577356Y17800495D01*
X68807873Y17356233D01*
X68686729Y17301344D01*
X68686728Y17301344D01*
X68686724Y17301342D01*
X68559653Y17271713D01*
X68513876Y17261039D01*
X68336493Y17255233D01*
X68161383Y17284143D01*
X68078330Y17315403D01*
X67995277Y17346661D01*
X67902346Y17404449D01*
X67844558Y17440384D01*
X67715023Y17561707D01*
X67611642Y17705974D01*
X67538396Y17867633D01*
X67538395Y17867635D01*
X67498093Y18040480D01*
X67498092Y18040483D01*
X67492286Y18217866D01*
X67521196Y18392976D01*
X67583714Y18559082D01*
X67656932Y18676826D01*
X67677437Y18709801D01*
X67798758Y18839334D01*
X67798759Y18839334D01*
X67798761Y18839337D01*
X67852820Y18878075D01*
X67906881Y18916815D01*
X68676359Y19361073D01*
X68797508Y19415965D01*
X68970350Y19456267D01*
X69147736Y19462073D01*
X69147740Y19462073D01*
X69247803Y19445552D01*
G37*
M02*
