G04 #@! TF.GenerationSoftware,KiCad,Pcbnew,(5.1.6-0-10_14)*
G04 #@! TF.CreationDate,2022-02-21T07:55:31+09:00*
G04 #@! TF.ProjectId,cool936,636f6f6c-3933-4362-9e6b-696361645f70,rev?*
G04 #@! TF.SameCoordinates,Original*
G04 #@! TF.FileFunction,Legend,Top*
G04 #@! TF.FilePolarity,Positive*
%FSLAX46Y46*%
G04 Gerber Fmt 4.6, Leading zero omitted, Abs format (unit mm)*
G04 Created by KiCad (PCBNEW (5.1.6-0-10_14)) date 2022-02-21 07:55:31*
%MOMM*%
%LPD*%
G01*
G04 APERTURE LIST*
%ADD10C,0.300000*%
%ADD11C,0.150000*%
%ADD12C,0.125000*%
G04 APERTURE END LIST*
D10*
X21242857Y-61122142D02*
X21100000Y-61193571D01*
X20814285Y-61193571D01*
X20671428Y-61122142D01*
X20600000Y-61050714D01*
X20528571Y-60907857D01*
X20528571Y-60479285D01*
X20600000Y-60336428D01*
X20671428Y-60265000D01*
X20814285Y-60193571D01*
X21100000Y-60193571D01*
X21242857Y-60265000D01*
X22100000Y-61193571D02*
X21957142Y-61122142D01*
X21885714Y-61050714D01*
X21814285Y-60907857D01*
X21814285Y-60479285D01*
X21885714Y-60336428D01*
X21957142Y-60265000D01*
X22100000Y-60193571D01*
X22314285Y-60193571D01*
X22457142Y-60265000D01*
X22528571Y-60336428D01*
X22600000Y-60479285D01*
X22600000Y-60907857D01*
X22528571Y-61050714D01*
X22457142Y-61122142D01*
X22314285Y-61193571D01*
X22100000Y-61193571D01*
X23457142Y-61193571D02*
X23314285Y-61122142D01*
X23242857Y-61050714D01*
X23171428Y-60907857D01*
X23171428Y-60479285D01*
X23242857Y-60336428D01*
X23314285Y-60265000D01*
X23457142Y-60193571D01*
X23671428Y-60193571D01*
X23814285Y-60265000D01*
X23885714Y-60336428D01*
X23957142Y-60479285D01*
X23957142Y-60907857D01*
X23885714Y-61050714D01*
X23814285Y-61122142D01*
X23671428Y-61193571D01*
X23457142Y-61193571D01*
X24814285Y-61193571D02*
X24671428Y-61122142D01*
X24600000Y-60979285D01*
X24600000Y-59693571D01*
X25457142Y-61193571D02*
X25742857Y-61193571D01*
X25885714Y-61122142D01*
X25957142Y-61050714D01*
X26100000Y-60836428D01*
X26171428Y-60550714D01*
X26171428Y-59979285D01*
X26100000Y-59836428D01*
X26028571Y-59765000D01*
X25885714Y-59693571D01*
X25600000Y-59693571D01*
X25457142Y-59765000D01*
X25385714Y-59836428D01*
X25314285Y-59979285D01*
X25314285Y-60336428D01*
X25385714Y-60479285D01*
X25457142Y-60550714D01*
X25600000Y-60622142D01*
X25885714Y-60622142D01*
X26028571Y-60550714D01*
X26100000Y-60479285D01*
X26171428Y-60336428D01*
X26671428Y-59693571D02*
X27600000Y-59693571D01*
X27100000Y-60265000D01*
X27314285Y-60265000D01*
X27457142Y-60336428D01*
X27528571Y-60407857D01*
X27600000Y-60550714D01*
X27600000Y-60907857D01*
X27528571Y-61050714D01*
X27457142Y-61122142D01*
X27314285Y-61193571D01*
X26885714Y-61193571D01*
X26742857Y-61122142D01*
X26671428Y-61050714D01*
X28885714Y-59693571D02*
X28600000Y-59693571D01*
X28457142Y-59765000D01*
X28385714Y-59836428D01*
X28242857Y-60050714D01*
X28171428Y-60336428D01*
X28171428Y-60907857D01*
X28242857Y-61050714D01*
X28314285Y-61122142D01*
X28457142Y-61193571D01*
X28742857Y-61193571D01*
X28885714Y-61122142D01*
X28957142Y-61050714D01*
X29028571Y-60907857D01*
X29028571Y-60550714D01*
X28957142Y-60407857D01*
X28885714Y-60336428D01*
X28742857Y-60265000D01*
X28457142Y-60265000D01*
X28314285Y-60336428D01*
X28242857Y-60407857D01*
X28171428Y-60550714D01*
X21171428Y-63743571D02*
X21028571Y-63672142D01*
X20957142Y-63529285D01*
X20957142Y-62243571D01*
X22314285Y-63672142D02*
X22171428Y-63743571D01*
X21885714Y-63743571D01*
X21742857Y-63672142D01*
X21671428Y-63529285D01*
X21671428Y-62957857D01*
X21742857Y-62815000D01*
X21885714Y-62743571D01*
X22171428Y-62743571D01*
X22314285Y-62815000D01*
X22385714Y-62957857D01*
X22385714Y-63100714D01*
X21671428Y-63243571D01*
X22814285Y-62743571D02*
X23385714Y-62743571D01*
X23028571Y-63743571D02*
X23028571Y-62457857D01*
X23100000Y-62315000D01*
X23242857Y-62243571D01*
X23385714Y-62243571D01*
X23671428Y-62743571D02*
X24242857Y-62743571D01*
X23885714Y-62243571D02*
X23885714Y-63529285D01*
X23957142Y-63672142D01*
X24100000Y-63743571D01*
X24242857Y-63743571D01*
X24385714Y-63886428D02*
X25528571Y-63886428D01*
X25814285Y-63672142D02*
X25957142Y-63743571D01*
X26242857Y-63743571D01*
X26385714Y-63672142D01*
X26457142Y-63529285D01*
X26457142Y-63457857D01*
X26385714Y-63315000D01*
X26242857Y-63243571D01*
X26028571Y-63243571D01*
X25885714Y-63172142D01*
X25814285Y-63029285D01*
X25814285Y-62957857D01*
X25885714Y-62815000D01*
X26028571Y-62743571D01*
X26242857Y-62743571D01*
X26385714Y-62815000D01*
X27100000Y-63743571D02*
X27100000Y-62743571D01*
X27100000Y-62243571D02*
X27028571Y-62315000D01*
X27100000Y-62386428D01*
X27171428Y-62315000D01*
X27100000Y-62243571D01*
X27100000Y-62386428D01*
X28457142Y-63743571D02*
X28457142Y-62243571D01*
X28457142Y-63672142D02*
X28314285Y-63743571D01*
X28028571Y-63743571D01*
X27885714Y-63672142D01*
X27814285Y-63600714D01*
X27742857Y-63457857D01*
X27742857Y-63029285D01*
X27814285Y-62886428D01*
X27885714Y-62815000D01*
X28028571Y-62743571D01*
X28314285Y-62743571D01*
X28457142Y-62815000D01*
X29742857Y-63672142D02*
X29600000Y-63743571D01*
X29314285Y-63743571D01*
X29171428Y-63672142D01*
X29100000Y-63529285D01*
X29100000Y-62957857D01*
X29171428Y-62815000D01*
X29314285Y-62743571D01*
X29600000Y-62743571D01*
X29742857Y-62815000D01*
X29814285Y-62957857D01*
X29814285Y-63100714D01*
X29100000Y-63243571D01*
D11*
X36880000Y-1980000D02*
X36380000Y-1080000D01*
X36380000Y-1080000D02*
X37380000Y-1080000D01*
X37380000Y-1080000D02*
X36880000Y-1980000D01*
X36380000Y-2080000D02*
X37380000Y-2080000D01*
X36130000Y1120000D02*
X36130000Y-4280000D01*
X36130000Y-4280000D02*
X37630000Y-4280000D01*
X37630000Y-4280000D02*
X37630000Y1120000D01*
X37630000Y1120000D02*
X36130000Y1120000D01*
X58200000Y-4910000D02*
X57700000Y-4010000D01*
X57700000Y-4010000D02*
X58700000Y-4010000D01*
X58700000Y-4010000D02*
X58200000Y-4910000D01*
X57700000Y-5010000D02*
X58700000Y-5010000D01*
X57450000Y-1810000D02*
X57450000Y-7210000D01*
X57450000Y-7210000D02*
X58950000Y-7210000D01*
X58950000Y-7210000D02*
X58950000Y-1810000D01*
X58950000Y-1810000D02*
X57450000Y-1810000D01*
X75040000Y-4770000D02*
X74540000Y-3870000D01*
X74540000Y-3870000D02*
X75540000Y-3870000D01*
X75540000Y-3870000D02*
X75040000Y-4770000D01*
X74540000Y-4870000D02*
X75540000Y-4870000D01*
X74290000Y-1670000D02*
X74290000Y-7070000D01*
X74290000Y-7070000D02*
X75790000Y-7070000D01*
X75790000Y-7070000D02*
X75790000Y-1670000D01*
X75790000Y-1670000D02*
X74290000Y-1670000D01*
X93900000Y-4800000D02*
X93400000Y-3900000D01*
X93400000Y-3900000D02*
X94400000Y-3900000D01*
X94400000Y-3900000D02*
X93900000Y-4800000D01*
X93400000Y-4900000D02*
X94400000Y-4900000D01*
X93150000Y-1700000D02*
X93150000Y-7100000D01*
X93150000Y-7100000D02*
X94650000Y-7100000D01*
X94650000Y-7100000D02*
X94650000Y-1700000D01*
X94650000Y-1700000D02*
X93150000Y-1700000D01*
X96480000Y-4710000D02*
X95980000Y-3810000D01*
X95980000Y-3810000D02*
X96980000Y-3810000D01*
X96980000Y-3810000D02*
X96480000Y-4710000D01*
X95980000Y-4810000D02*
X96980000Y-4810000D01*
X95730000Y-1610000D02*
X95730000Y-7010000D01*
X95730000Y-7010000D02*
X97230000Y-7010000D01*
X97230000Y-7010000D02*
X97230000Y-1610000D01*
X97230000Y-1610000D02*
X95730000Y-1610000D01*
X60690000Y-21870000D02*
X60190000Y-20970000D01*
X60190000Y-20970000D02*
X61190000Y-20970000D01*
X61190000Y-20970000D02*
X60690000Y-21870000D01*
X60190000Y-21970000D02*
X61190000Y-21970000D01*
X59940000Y-18770000D02*
X59940000Y-24170000D01*
X59940000Y-24170000D02*
X61440000Y-24170000D01*
X61440000Y-24170000D02*
X61440000Y-18770000D01*
X61440000Y-18770000D02*
X59940000Y-18770000D01*
X79700000Y-21820000D02*
X79200000Y-20920000D01*
X79200000Y-20920000D02*
X80200000Y-20920000D01*
X80200000Y-20920000D02*
X79700000Y-21820000D01*
X79200000Y-21920000D02*
X80200000Y-21920000D01*
X78950000Y-18720000D02*
X78950000Y-24120000D01*
X78950000Y-24120000D02*
X80450000Y-24120000D01*
X80450000Y-24120000D02*
X80450000Y-18720000D01*
X80450000Y-18720000D02*
X78950000Y-18720000D01*
X85750000Y-10620000D02*
X86650000Y-10120000D01*
X86650000Y-10120000D02*
X86650000Y-11120000D01*
X86650000Y-11120000D02*
X85750000Y-10620000D01*
X85650000Y-10120000D02*
X85650000Y-11120000D01*
X88850000Y-9870000D02*
X83450000Y-9870000D01*
X83450000Y-9870000D02*
X83450000Y-11370000D01*
X83450000Y-11370000D02*
X88850000Y-11370000D01*
X88850000Y-11370000D02*
X88850000Y-9870000D01*
X107440000Y-11370000D02*
X107440000Y-9870000D01*
X102040000Y-11370000D02*
X107440000Y-11370000D01*
X102040000Y-9870000D02*
X102040000Y-11370000D01*
X107440000Y-9870000D02*
X102040000Y-9870000D01*
X104240000Y-10120000D02*
X104240000Y-11120000D01*
X105240000Y-11120000D02*
X104340000Y-10620000D01*
X105240000Y-10120000D02*
X105240000Y-11120000D01*
X104340000Y-10620000D02*
X105240000Y-10120000D01*
X70160000Y-42780000D02*
X69660000Y-41880000D01*
X69660000Y-41880000D02*
X70660000Y-41880000D01*
X70660000Y-41880000D02*
X70160000Y-42780000D01*
X69660000Y-42880000D02*
X70660000Y-42880000D01*
X69410000Y-39680000D02*
X69410000Y-45080000D01*
X69410000Y-45080000D02*
X70910000Y-45080000D01*
X70910000Y-45080000D02*
X70910000Y-39680000D01*
X70910000Y-39680000D02*
X69410000Y-39680000D01*
X89230000Y-42820000D02*
X88730000Y-41920000D01*
X88730000Y-41920000D02*
X89730000Y-41920000D01*
X89730000Y-41920000D02*
X89230000Y-42820000D01*
X88730000Y-42920000D02*
X89730000Y-42920000D01*
X88480000Y-39720000D02*
X88480000Y-45120000D01*
X88480000Y-45120000D02*
X89980000Y-45120000D01*
X89980000Y-45120000D02*
X89980000Y-39720000D01*
X89980000Y-39720000D02*
X88480000Y-39720000D01*
X108220000Y-42970000D02*
X107720000Y-42070000D01*
X107720000Y-42070000D02*
X108720000Y-42070000D01*
X108720000Y-42070000D02*
X108220000Y-42970000D01*
X107720000Y-43070000D02*
X108720000Y-43070000D01*
X107470000Y-39870000D02*
X107470000Y-45270000D01*
X107470000Y-45270000D02*
X108970000Y-45270000D01*
X108970000Y-45270000D02*
X108970000Y-39870000D01*
X108970000Y-39870000D02*
X107470000Y-39870000D01*
X111500000Y-39900000D02*
X110000000Y-39900000D01*
X111500000Y-45300000D02*
X111500000Y-39900000D01*
X110000000Y-45300000D02*
X111500000Y-45300000D01*
X110000000Y-39900000D02*
X110000000Y-45300000D01*
X110250000Y-43100000D02*
X111250000Y-43100000D01*
X111250000Y-42100000D02*
X110750000Y-43000000D01*
X110250000Y-42100000D02*
X111250000Y-42100000D01*
X110750000Y-43000000D02*
X110250000Y-42100000D01*
X46380000Y-48660000D02*
X47280000Y-48160000D01*
X47280000Y-48160000D02*
X47280000Y-49160000D01*
X47280000Y-49160000D02*
X46380000Y-48660000D01*
X46280000Y-48160000D02*
X46280000Y-49160000D01*
X49480000Y-47910000D02*
X44080000Y-47910000D01*
X44080000Y-47910000D02*
X44080000Y-49410000D01*
X44080000Y-49410000D02*
X49480000Y-49410000D01*
X49480000Y-49410000D02*
X49480000Y-47910000D01*
X59130000Y-48730000D02*
X60030000Y-48230000D01*
X60030000Y-48230000D02*
X60030000Y-49230000D01*
X60030000Y-49230000D02*
X59130000Y-48730000D01*
X59030000Y-48230000D02*
X59030000Y-49230000D01*
X62230000Y-47980000D02*
X56830000Y-47980000D01*
X56830000Y-47980000D02*
X56830000Y-49480000D01*
X56830000Y-49480000D02*
X62230000Y-49480000D01*
X62230000Y-49480000D02*
X62230000Y-47980000D01*
X92090000Y-57080000D02*
X91590000Y-56180000D01*
X91590000Y-56180000D02*
X92590000Y-56180000D01*
X92590000Y-56180000D02*
X92090000Y-57080000D01*
X91590000Y-57180000D02*
X92590000Y-57180000D01*
X91340000Y-53980000D02*
X91340000Y-59380000D01*
X91340000Y-59380000D02*
X92840000Y-59380000D01*
X92840000Y-59380000D02*
X92840000Y-53980000D01*
X92840000Y-53980000D02*
X91340000Y-53980000D01*
X39220000Y-21790000D02*
X38720000Y-20890000D01*
X38720000Y-20890000D02*
X39720000Y-20890000D01*
X39720000Y-20890000D02*
X39220000Y-21790000D01*
X38720000Y-21890000D02*
X39720000Y-21890000D01*
X38470000Y-18690000D02*
X38470000Y-24090000D01*
X38470000Y-24090000D02*
X39970000Y-24090000D01*
X39970000Y-24090000D02*
X39970000Y-18690000D01*
X39970000Y-18690000D02*
X38470000Y-18690000D01*
X46790000Y-37940000D02*
X46290000Y-37040000D01*
X46290000Y-37040000D02*
X47290000Y-37040000D01*
X47290000Y-37040000D02*
X46790000Y-37940000D01*
X46290000Y-38040000D02*
X47290000Y-38040000D01*
X46040000Y-34840000D02*
X46040000Y-40240000D01*
X46040000Y-40240000D02*
X47540000Y-40240000D01*
X47540000Y-40240000D02*
X47540000Y-34840000D01*
X47540000Y-34840000D02*
X46040000Y-34840000D01*
X95100000Y-57080000D02*
X94600000Y-56180000D01*
X94600000Y-56180000D02*
X95600000Y-56180000D01*
X95600000Y-56180000D02*
X95100000Y-57080000D01*
X94600000Y-57180000D02*
X95600000Y-57180000D01*
X94350000Y-53980000D02*
X94350000Y-59380000D01*
X94350000Y-59380000D02*
X95850000Y-59380000D01*
X95850000Y-59380000D02*
X95850000Y-53980000D01*
X95850000Y-53980000D02*
X94350000Y-53980000D01*
X95972380Y-30768571D02*
X96115238Y-30816190D01*
X96162857Y-30863809D01*
X96210476Y-30959047D01*
X96210476Y-31101904D01*
X96162857Y-31197142D01*
X96115238Y-31244761D01*
X96020000Y-31292380D01*
X95639047Y-31292380D01*
X95639047Y-30292380D01*
X95972380Y-30292380D01*
X96067619Y-30340000D01*
X96115238Y-30387619D01*
X96162857Y-30482857D01*
X96162857Y-30578095D01*
X96115238Y-30673333D01*
X96067619Y-30720952D01*
X95972380Y-30768571D01*
X95639047Y-30768571D01*
X96781904Y-31292380D02*
X96686666Y-31244761D01*
X96639047Y-31197142D01*
X96591428Y-31101904D01*
X96591428Y-30816190D01*
X96639047Y-30720952D01*
X96686666Y-30673333D01*
X96781904Y-30625714D01*
X96924761Y-30625714D01*
X97020000Y-30673333D01*
X97067619Y-30720952D01*
X97115238Y-30816190D01*
X97115238Y-31101904D01*
X97067619Y-31197142D01*
X97020000Y-31244761D01*
X96924761Y-31292380D01*
X96781904Y-31292380D01*
X97400952Y-30625714D02*
X97781904Y-30625714D01*
X97543809Y-30292380D02*
X97543809Y-31149523D01*
X97591428Y-31244761D01*
X97686666Y-31292380D01*
X97781904Y-31292380D01*
X97972380Y-30625714D02*
X98353333Y-30625714D01*
X98115238Y-30292380D02*
X98115238Y-31149523D01*
X98162857Y-31244761D01*
X98258095Y-31292380D01*
X98353333Y-31292380D01*
X98829523Y-31292380D02*
X98734285Y-31244761D01*
X98686666Y-31197142D01*
X98639047Y-31101904D01*
X98639047Y-30816190D01*
X98686666Y-30720952D01*
X98734285Y-30673333D01*
X98829523Y-30625714D01*
X98972380Y-30625714D01*
X99067619Y-30673333D01*
X99115238Y-30720952D01*
X99162857Y-30816190D01*
X99162857Y-31101904D01*
X99115238Y-31197142D01*
X99067619Y-31244761D01*
X98972380Y-31292380D01*
X98829523Y-31292380D01*
X99591428Y-31292380D02*
X99591428Y-30625714D01*
X99591428Y-30720952D02*
X99639047Y-30673333D01*
X99734285Y-30625714D01*
X99877142Y-30625714D01*
X99972380Y-30673333D01*
X100020000Y-30768571D01*
X100020000Y-31292380D01*
X100020000Y-30768571D02*
X100067619Y-30673333D01*
X100162857Y-30625714D01*
X100305714Y-30625714D01*
X100400952Y-30673333D01*
X100448571Y-30768571D01*
X100448571Y-31292380D01*
X101639047Y-31244761D02*
X101781904Y-31292380D01*
X102020000Y-31292380D01*
X102115238Y-31244761D01*
X102162857Y-31197142D01*
X102210476Y-31101904D01*
X102210476Y-31006666D01*
X102162857Y-30911428D01*
X102115238Y-30863809D01*
X102020000Y-30816190D01*
X101829523Y-30768571D01*
X101734285Y-30720952D01*
X101686666Y-30673333D01*
X101639047Y-30578095D01*
X101639047Y-30482857D01*
X101686666Y-30387619D01*
X101734285Y-30340000D01*
X101829523Y-30292380D01*
X102067619Y-30292380D01*
X102210476Y-30340000D01*
X102639047Y-31292380D02*
X102639047Y-30625714D01*
X102639047Y-30292380D02*
X102591428Y-30340000D01*
X102639047Y-30387619D01*
X102686666Y-30340000D01*
X102639047Y-30292380D01*
X102639047Y-30387619D01*
X103543809Y-31292380D02*
X103543809Y-30292380D01*
X103543809Y-31244761D02*
X103448571Y-31292380D01*
X103258095Y-31292380D01*
X103162857Y-31244761D01*
X103115238Y-31197142D01*
X103067619Y-31101904D01*
X103067619Y-30816190D01*
X103115238Y-30720952D01*
X103162857Y-30673333D01*
X103258095Y-30625714D01*
X103448571Y-30625714D01*
X103543809Y-30673333D01*
X104400952Y-31244761D02*
X104305714Y-31292380D01*
X104115238Y-31292380D01*
X104020000Y-31244761D01*
X103972380Y-31149523D01*
X103972380Y-30768571D01*
X104020000Y-30673333D01*
X104115238Y-30625714D01*
X104305714Y-30625714D01*
X104400952Y-30673333D01*
X104448571Y-30768571D01*
X104448571Y-30863809D01*
X103972380Y-30959047D01*
X67452380Y-30778571D02*
X67595238Y-30826190D01*
X67642857Y-30873809D01*
X67690476Y-30969047D01*
X67690476Y-31111904D01*
X67642857Y-31207142D01*
X67595238Y-31254761D01*
X67500000Y-31302380D01*
X67119047Y-31302380D01*
X67119047Y-30302380D01*
X67452380Y-30302380D01*
X67547619Y-30350000D01*
X67595238Y-30397619D01*
X67642857Y-30492857D01*
X67642857Y-30588095D01*
X67595238Y-30683333D01*
X67547619Y-30730952D01*
X67452380Y-30778571D01*
X67119047Y-30778571D01*
X68261904Y-31302380D02*
X68166666Y-31254761D01*
X68119047Y-31207142D01*
X68071428Y-31111904D01*
X68071428Y-30826190D01*
X68119047Y-30730952D01*
X68166666Y-30683333D01*
X68261904Y-30635714D01*
X68404761Y-30635714D01*
X68500000Y-30683333D01*
X68547619Y-30730952D01*
X68595238Y-30826190D01*
X68595238Y-31111904D01*
X68547619Y-31207142D01*
X68500000Y-31254761D01*
X68404761Y-31302380D01*
X68261904Y-31302380D01*
X68880952Y-30635714D02*
X69261904Y-30635714D01*
X69023809Y-30302380D02*
X69023809Y-31159523D01*
X69071428Y-31254761D01*
X69166666Y-31302380D01*
X69261904Y-31302380D01*
X69452380Y-30635714D02*
X69833333Y-30635714D01*
X69595238Y-30302380D02*
X69595238Y-31159523D01*
X69642857Y-31254761D01*
X69738095Y-31302380D01*
X69833333Y-31302380D01*
X70309523Y-31302380D02*
X70214285Y-31254761D01*
X70166666Y-31207142D01*
X70119047Y-31111904D01*
X70119047Y-30826190D01*
X70166666Y-30730952D01*
X70214285Y-30683333D01*
X70309523Y-30635714D01*
X70452380Y-30635714D01*
X70547619Y-30683333D01*
X70595238Y-30730952D01*
X70642857Y-30826190D01*
X70642857Y-31111904D01*
X70595238Y-31207142D01*
X70547619Y-31254761D01*
X70452380Y-31302380D01*
X70309523Y-31302380D01*
X71071428Y-31302380D02*
X71071428Y-30635714D01*
X71071428Y-30730952D02*
X71119047Y-30683333D01*
X71214285Y-30635714D01*
X71357142Y-30635714D01*
X71452380Y-30683333D01*
X71500000Y-30778571D01*
X71500000Y-31302380D01*
X71500000Y-30778571D02*
X71547619Y-30683333D01*
X71642857Y-30635714D01*
X71785714Y-30635714D01*
X71880952Y-30683333D01*
X71928571Y-30778571D01*
X71928571Y-31302380D01*
X73119047Y-31254761D02*
X73261904Y-31302380D01*
X73500000Y-31302380D01*
X73595238Y-31254761D01*
X73642857Y-31207142D01*
X73690476Y-31111904D01*
X73690476Y-31016666D01*
X73642857Y-30921428D01*
X73595238Y-30873809D01*
X73500000Y-30826190D01*
X73309523Y-30778571D01*
X73214285Y-30730952D01*
X73166666Y-30683333D01*
X73119047Y-30588095D01*
X73119047Y-30492857D01*
X73166666Y-30397619D01*
X73214285Y-30350000D01*
X73309523Y-30302380D01*
X73547619Y-30302380D01*
X73690476Y-30350000D01*
X74119047Y-31302380D02*
X74119047Y-30635714D01*
X74119047Y-30302380D02*
X74071428Y-30350000D01*
X74119047Y-30397619D01*
X74166666Y-30350000D01*
X74119047Y-30302380D01*
X74119047Y-30397619D01*
X75023809Y-31302380D02*
X75023809Y-30302380D01*
X75023809Y-31254761D02*
X74928571Y-31302380D01*
X74738095Y-31302380D01*
X74642857Y-31254761D01*
X74595238Y-31207142D01*
X74547619Y-31111904D01*
X74547619Y-30826190D01*
X74595238Y-30730952D01*
X74642857Y-30683333D01*
X74738095Y-30635714D01*
X74928571Y-30635714D01*
X75023809Y-30683333D01*
X75880952Y-31254761D02*
X75785714Y-31302380D01*
X75595238Y-31302380D01*
X75500000Y-31254761D01*
X75452380Y-31159523D01*
X75452380Y-30778571D01*
X75500000Y-30683333D01*
X75595238Y-30635714D01*
X75785714Y-30635714D01*
X75880952Y-30683333D01*
X75928571Y-30778571D01*
X75928571Y-30873809D01*
X75452380Y-30969047D01*
X41172380Y-30758571D02*
X41315238Y-30806190D01*
X41362857Y-30853809D01*
X41410476Y-30949047D01*
X41410476Y-31091904D01*
X41362857Y-31187142D01*
X41315238Y-31234761D01*
X41220000Y-31282380D01*
X40839047Y-31282380D01*
X40839047Y-30282380D01*
X41172380Y-30282380D01*
X41267619Y-30330000D01*
X41315238Y-30377619D01*
X41362857Y-30472857D01*
X41362857Y-30568095D01*
X41315238Y-30663333D01*
X41267619Y-30710952D01*
X41172380Y-30758571D01*
X40839047Y-30758571D01*
X41981904Y-31282380D02*
X41886666Y-31234761D01*
X41839047Y-31187142D01*
X41791428Y-31091904D01*
X41791428Y-30806190D01*
X41839047Y-30710952D01*
X41886666Y-30663333D01*
X41981904Y-30615714D01*
X42124761Y-30615714D01*
X42220000Y-30663333D01*
X42267619Y-30710952D01*
X42315238Y-30806190D01*
X42315238Y-31091904D01*
X42267619Y-31187142D01*
X42220000Y-31234761D01*
X42124761Y-31282380D01*
X41981904Y-31282380D01*
X42600952Y-30615714D02*
X42981904Y-30615714D01*
X42743809Y-30282380D02*
X42743809Y-31139523D01*
X42791428Y-31234761D01*
X42886666Y-31282380D01*
X42981904Y-31282380D01*
X43172380Y-30615714D02*
X43553333Y-30615714D01*
X43315238Y-30282380D02*
X43315238Y-31139523D01*
X43362857Y-31234761D01*
X43458095Y-31282380D01*
X43553333Y-31282380D01*
X44029523Y-31282380D02*
X43934285Y-31234761D01*
X43886666Y-31187142D01*
X43839047Y-31091904D01*
X43839047Y-30806190D01*
X43886666Y-30710952D01*
X43934285Y-30663333D01*
X44029523Y-30615714D01*
X44172380Y-30615714D01*
X44267619Y-30663333D01*
X44315238Y-30710952D01*
X44362857Y-30806190D01*
X44362857Y-31091904D01*
X44315238Y-31187142D01*
X44267619Y-31234761D01*
X44172380Y-31282380D01*
X44029523Y-31282380D01*
X44791428Y-31282380D02*
X44791428Y-30615714D01*
X44791428Y-30710952D02*
X44839047Y-30663333D01*
X44934285Y-30615714D01*
X45077142Y-30615714D01*
X45172380Y-30663333D01*
X45220000Y-30758571D01*
X45220000Y-31282380D01*
X45220000Y-30758571D02*
X45267619Y-30663333D01*
X45362857Y-30615714D01*
X45505714Y-30615714D01*
X45600952Y-30663333D01*
X45648571Y-30758571D01*
X45648571Y-31282380D01*
X46839047Y-31234761D02*
X46981904Y-31282380D01*
X47220000Y-31282380D01*
X47315238Y-31234761D01*
X47362857Y-31187142D01*
X47410476Y-31091904D01*
X47410476Y-30996666D01*
X47362857Y-30901428D01*
X47315238Y-30853809D01*
X47220000Y-30806190D01*
X47029523Y-30758571D01*
X46934285Y-30710952D01*
X46886666Y-30663333D01*
X46839047Y-30568095D01*
X46839047Y-30472857D01*
X46886666Y-30377619D01*
X46934285Y-30330000D01*
X47029523Y-30282380D01*
X47267619Y-30282380D01*
X47410476Y-30330000D01*
X47839047Y-31282380D02*
X47839047Y-30615714D01*
X47839047Y-30282380D02*
X47791428Y-30330000D01*
X47839047Y-30377619D01*
X47886666Y-30330000D01*
X47839047Y-30282380D01*
X47839047Y-30377619D01*
X48743809Y-31282380D02*
X48743809Y-30282380D01*
X48743809Y-31234761D02*
X48648571Y-31282380D01*
X48458095Y-31282380D01*
X48362857Y-31234761D01*
X48315238Y-31187142D01*
X48267619Y-31091904D01*
X48267619Y-30806190D01*
X48315238Y-30710952D01*
X48362857Y-30663333D01*
X48458095Y-30615714D01*
X48648571Y-30615714D01*
X48743809Y-30663333D01*
X49600952Y-31234761D02*
X49505714Y-31282380D01*
X49315238Y-31282380D01*
X49220000Y-31234761D01*
X49172380Y-31139523D01*
X49172380Y-30758571D01*
X49220000Y-30663333D01*
X49315238Y-30615714D01*
X49505714Y-30615714D01*
X49600952Y-30663333D01*
X49648571Y-30758571D01*
X49648571Y-30853809D01*
X49172380Y-30949047D01*
D12*
X30605000Y4294523D02*
X30569285Y4230714D01*
X30569285Y4135000D01*
X30605000Y4039285D01*
X30676428Y3975476D01*
X30747857Y3943571D01*
X30890714Y3911666D01*
X30997857Y3911666D01*
X31140714Y3943571D01*
X31212142Y3975476D01*
X31283571Y4039285D01*
X31319285Y4135000D01*
X31319285Y4198809D01*
X31283571Y4294523D01*
X31247857Y4326428D01*
X30997857Y4326428D01*
X30997857Y4198809D01*
X31319285Y4613571D02*
X30569285Y4613571D01*
X31319285Y4996428D01*
X30569285Y4996428D01*
X31319285Y5315476D02*
X30569285Y5315476D01*
X30569285Y5475000D01*
X30605000Y5570714D01*
X30676428Y5634523D01*
X30747857Y5666428D01*
X30890714Y5698333D01*
X30997857Y5698333D01*
X31140714Y5666428D01*
X31212142Y5634523D01*
X31283571Y5570714D01*
X31319285Y5475000D01*
X31319285Y5315476D01*
M02*
