M48
; DRILL file {KiCad (5.1.6-0-10_14)} date Saturday, March 05, 2022 at 06:22:07 PM
; FORMAT={-:-/ absolute / metric / decimal}
; #@! TF.CreationDate,2022-03-05T18:22:07+09:00
; #@! TF.GenerationSoftware,Kicad,Pcbnew,(5.1.6-0-10_14)
; #@! TF.FileFunction,NonPlated,1,2,NPTH
FMAT,2
METRIC
T1C1.200
T2C1.750
T3C3.988
%
G90
G05
T1
X65.289Y13.94
X71.351Y17.44
T2
X56.832Y-38.1
X66.992Y-38.1
X113.983Y-38.1
X124.142Y-38.1
X94.932Y-38.1
X105.093Y-38.1
X47.307Y-19.05
X57.467Y-19.05
X85.407Y-19.05
X95.567Y-19.05
X102.076Y-57.15
X112.236Y-57.15
X56.832Y-57.15
X66.992Y-57.15
X42.545Y0.0
X52.705Y0.0
X75.882Y-38.1
X86.042Y-38.1
X80.645Y0.0
X90.805Y0.0
X37.782Y-57.15
X47.942Y-57.15
X99.695Y0.0
X109.855Y0.0
X30.639Y-38.1
X40.799Y-38.1
X104.457Y-19.05
X114.617Y-19.05
X25.876Y-19.05
X36.036Y-19.05
X61.595Y0.0
X71.755Y0.0
X66.358Y-19.05
X76.517Y-19.05
X75.882Y-57.15
X86.042Y-57.15
X23.495Y0.0
X33.655Y0.0
T3
X100.012Y-38.1
X52.387Y-19.05
X90.487Y-19.05
X107.156Y-57.15
X61.912Y-57.15
X47.625Y0.0
X80.962Y-38.1
X85.725Y0.0
X42.862Y-57.15
X104.775Y0.0
X35.719Y-38.1
X109.537Y-19.05
X30.956Y-19.05
X66.675Y0.0
X71.438Y-19.05
X80.962Y-57.15
X28.575Y0.0
X61.912Y-38.1
X119.062Y-38.1
T0
M30
