M48
; DRILL file {KiCad (5.1.6-0-10_14)} date Monday, February 21, 2022 at 07:55:34 AM
; FORMAT={-:-/ absolute / metric / decimal}
; #@! TF.CreationDate,2022-02-21T07:55:34+09:00
; #@! TF.GenerationSoftware,Kicad,Pcbnew,(5.1.6-0-10_14)
; #@! TF.FileFunction,Plated,1,2,PTH
FMAT,2
METRIC
T1C0.400
T2C0.813
T3C1.000
T4C1.300
T5C3.000
%
G90
G05
T1
X40.96Y-26.37
X44.79Y-4.25
X44.84Y-12.78
X51.23Y-23.86
X51.27Y-32.72
X52.79Y-23.8
X52.79Y-32.72
X52.82Y-47.37
X52.87Y-43.48
X54.07Y-51.6
X54.13Y-43.54
X54.22Y-23.8
X54.27Y-32.97
X55.59Y2.54
X59.14Y9.55
X64.22Y-5.29
X64.29Y-13.6
X73.9Y-43.15
X73.96Y-50.91
X75.85Y6.76
X76.87Y-23.19
X76.87Y-32.41
X79.9Y-5.25
X81.04Y6.73
X83.42Y-13.13
X85.96Y-5.34
X85.96Y-12.94
X92.24Y-23.21
X92.3Y-32.49
X98.95Y-2.67
X100.24Y-43.32
X100.24Y-51.19
X102.29Y-13.11
X111.92Y-23.31
X111.94Y-32.41
X19.685Y3.302
X19.685Y1.778
X36.195Y5.842
X36.195Y4.318
X22.066Y-15.748
X22.066Y-17.272
X38.576Y-13.208
X38.576Y-14.732
X33.972Y-53.848
X33.972Y-55.372
X50.482Y-51.308
X50.482Y-52.832
X110.172Y-34.798
X110.172Y-36.322
X126.682Y-32.258
X126.682Y-33.782
X100.647Y-15.748
X100.647Y-17.272
X117.157Y-13.208
X117.157Y-14.732
X91.123Y-34.798
X91.123Y-36.322
X107.632Y-32.258
X107.632Y-33.782
X53.023Y-34.798
X53.023Y-36.322
X69.532Y-32.258
X69.532Y-33.782
X72.072Y-34.798
X72.072Y-36.322
X88.582Y-32.258
X88.582Y-33.782
X62.547Y-15.748
X62.547Y-17.272
X79.057Y-13.208
X79.057Y-14.732
X76.835Y3.302
X76.835Y1.778
X93.345Y5.842
X93.345Y4.318
X38.735Y3.302
X38.735Y1.778
X55.245Y5.842
X55.245Y4.318
X95.885Y3.302
X95.885Y1.778
X112.395Y5.842
X112.395Y4.318
X53.023Y-53.848
X53.023Y-55.372
X69.532Y-51.308
X69.532Y-52.832
X81.597Y-15.748
X81.597Y-17.272
X98.108Y-13.208
X98.108Y-14.732
X43.497Y-15.748
X43.497Y-17.272
X60.008Y-13.208
X60.008Y-14.732
X72.072Y-53.848
X72.072Y-55.372
X88.582Y-51.308
X88.582Y-52.832
X57.785Y3.302
X57.785Y1.778
X74.295Y5.842
X74.295Y4.318
X26.829Y-34.798
X26.829Y-36.322
X43.339Y-32.258
X43.339Y-33.782
X98.266Y-53.848
X98.266Y-55.372
X114.776Y-51.308
X114.776Y-52.832
T2
X46.79Y-33.73
X46.79Y-41.35
X70.16Y-38.57
X70.16Y-46.19
X75.04Y-0.56
X75.04Y-8.18
X110.75Y-38.79
X110.75Y-46.41
X100.93Y-10.62
X108.55Y-10.62
X58.2Y-0.7
X58.2Y-8.32
X55.72Y-48.73
X63.34Y-48.73
X108.22Y-38.76
X108.22Y-46.38
X25.852Y7.461
X25.852Y-7.759
X28.392Y7.461
X28.392Y-7.759
X30.932Y7.461
X30.932Y-7.759
X33.472Y7.461
X33.472Y-7.759
X36.012Y7.461
X36.012Y-7.759
X38.552Y7.461
X38.552Y-7.759
X41.092Y7.461
X41.092Y-7.759
X43.632Y7.461
X43.632Y-7.759
X46.172Y7.461
X46.172Y-7.759
X48.712Y7.461
X48.712Y-7.759
X51.252Y7.461
X51.252Y-7.759
X53.792Y7.461
X53.792Y-7.759
X39.22Y-17.58
X39.22Y-25.2
X96.48Y-0.5
X96.48Y-8.12
X82.34Y-10.62
X89.96Y-10.62
X36.88Y2.23
X36.88Y-5.39
X42.97Y-48.66
X50.59Y-48.66
X89.23Y-38.61
X89.23Y-46.23
X79.7Y-17.61
X79.7Y-25.23
X95.1Y-52.87
X95.1Y-60.49
X60.69Y-17.66
X60.69Y-25.28
X93.9Y-0.59
X93.9Y-8.21
X92.09Y-52.87
X92.09Y-60.49
T4
X68.695Y9.435
X74.325Y12.685
T5
X43.815Y2.54
X50.165Y5.08
X100.965Y2.54
X107.315Y5.08
X58.102Y-54.61
X64.453Y-52.07
X86.677Y-16.51
X93.027Y-13.97
X48.578Y-16.51
X54.927Y-13.97
X77.153Y-54.61
X83.502Y-52.07
X62.865Y2.54
X69.215Y5.08
X31.909Y-35.56
X38.259Y-33.02
X103.346Y-54.61
X109.697Y-52.07
X24.765Y2.54
X31.115Y5.08
X27.146Y-16.51
X33.496Y-13.97
X39.052Y-54.61
X45.402Y-52.07
X115.252Y-35.56
X121.602Y-33.02
X105.727Y-16.51
X112.078Y-13.97
X96.203Y-35.56
X102.552Y-33.02
X58.102Y-35.56
X64.453Y-33.02
X77.153Y-35.56
X83.502Y-33.02
X67.627Y-16.51
X73.977Y-13.97
X81.915Y2.54
X88.265Y5.08
T3
G00X62.463Y14.734
M15
G01X62.896Y14.984
M16
G05
G00X63.264Y10.346
M15
G01X63.697Y10.596
M16
G05
G00X65.928Y16.734
M15
G01X66.361Y16.984
M16
G05
G00X68.526Y18.234
M15
G01X68.959Y18.484
M16
G05
T0
M30
