G04 #@! TF.GenerationSoftware,KiCad,Pcbnew,(5.1.6-0-10_14)*
G04 #@! TF.CreationDate,2022-05-16T21:02:00+09:00*
G04 #@! TF.ProjectId,cool936,636f6f6c-3933-4362-9e6b-696361645f70,rev?*
G04 #@! TF.SameCoordinates,Original*
G04 #@! TF.FileFunction,Legend,Bot*
G04 #@! TF.FilePolarity,Positive*
%FSLAX46Y46*%
G04 Gerber Fmt 4.6, Leading zero omitted, Abs format (unit mm)*
G04 Created by KiCad (PCBNEW (5.1.6-0-10_14)) date 2022-05-16 21:02:00*
%MOMM*%
%LPD*%
G01*
G04 APERTURE LIST*
%ADD10C,0.300000*%
%ADD11C,0.150000*%
%ADD12C,0.120000*%
%ADD13C,0.125000*%
G04 APERTURE END LIST*
D10*
X47221428Y4722857D02*
X47078571Y4651428D01*
X46792857Y4651428D01*
X46650000Y4722857D01*
X46578571Y4865714D01*
X46578571Y4937142D01*
X46650000Y5080000D01*
X46792857Y5151428D01*
X47007142Y5151428D01*
X47150000Y5222857D01*
X47221428Y5365714D01*
X47221428Y5437142D01*
X47150000Y5580000D01*
X47007142Y5651428D01*
X46792857Y5651428D01*
X46650000Y5580000D01*
X45721428Y4651428D02*
X45864285Y4722857D01*
X45935714Y4794285D01*
X46007142Y4937142D01*
X46007142Y5365714D01*
X45935714Y5508571D01*
X45864285Y5580000D01*
X45721428Y5651428D01*
X45507142Y5651428D01*
X45364285Y5580000D01*
X45292857Y5508571D01*
X45221428Y5365714D01*
X45221428Y4937142D01*
X45292857Y4794285D01*
X45364285Y4722857D01*
X45507142Y4651428D01*
X45721428Y4651428D01*
X43935714Y4722857D02*
X44078571Y4651428D01*
X44364285Y4651428D01*
X44507142Y4722857D01*
X44578571Y4794285D01*
X44650000Y4937142D01*
X44650000Y5365714D01*
X44578571Y5508571D01*
X44507142Y5580000D01*
X44364285Y5651428D01*
X44078571Y5651428D01*
X43935714Y5580000D01*
X43292857Y4651428D02*
X43292857Y6151428D01*
X43150000Y5222857D02*
X42721428Y4651428D01*
X42721428Y5651428D02*
X43292857Y5080000D01*
X41507142Y4722857D02*
X41650000Y4651428D01*
X41935714Y4651428D01*
X42078571Y4722857D01*
X42150000Y4865714D01*
X42150000Y5437142D01*
X42078571Y5580000D01*
X41935714Y5651428D01*
X41650000Y5651428D01*
X41507142Y5580000D01*
X41435714Y5437142D01*
X41435714Y5294285D01*
X42150000Y5151428D01*
X41007142Y5651428D02*
X40435714Y5651428D01*
X40792857Y6151428D02*
X40792857Y4865714D01*
X40721428Y4722857D01*
X40578571Y4651428D01*
X40435714Y4651428D01*
X88078571Y-40234285D02*
X86578571Y-40234285D01*
X88007142Y-40234285D02*
X88078571Y-40091428D01*
X88078571Y-39805714D01*
X88007142Y-39662857D01*
X87935714Y-39591428D01*
X87792857Y-39520000D01*
X87364285Y-39520000D01*
X87221428Y-39591428D01*
X87150000Y-39662857D01*
X87078571Y-39805714D01*
X87078571Y-40091428D01*
X87150000Y-40234285D01*
X88078571Y-40948571D02*
X87078571Y-40948571D01*
X86578571Y-40948571D02*
X86650000Y-40877142D01*
X86721428Y-40948571D01*
X86650000Y-41020000D01*
X86578571Y-40948571D01*
X86721428Y-40948571D01*
X88078571Y-41877142D02*
X88007142Y-41734285D01*
X87935714Y-41662857D01*
X87792857Y-41591428D01*
X87364285Y-41591428D01*
X87221428Y-41662857D01*
X87150000Y-41734285D01*
X87078571Y-41877142D01*
X87078571Y-42091428D01*
X87150000Y-42234285D01*
X87221428Y-42305714D01*
X87364285Y-42377142D01*
X87792857Y-42377142D01*
X87935714Y-42305714D01*
X88007142Y-42234285D01*
X88078571Y-42091428D01*
X88078571Y-41877142D01*
X88078571Y-43662857D02*
X86578571Y-43662857D01*
X88007142Y-43662857D02*
X88078571Y-43520000D01*
X88078571Y-43234285D01*
X88007142Y-43091428D01*
X87935714Y-43020000D01*
X87792857Y-42948571D01*
X87364285Y-42948571D01*
X87221428Y-43020000D01*
X87150000Y-43091428D01*
X87078571Y-43234285D01*
X87078571Y-43520000D01*
X87150000Y-43662857D01*
X88007142Y-44948571D02*
X88078571Y-44805714D01*
X88078571Y-44520000D01*
X88007142Y-44377142D01*
X87864285Y-44305714D01*
X87292857Y-44305714D01*
X87150000Y-44377142D01*
X87078571Y-44520000D01*
X87078571Y-44805714D01*
X87150000Y-44948571D01*
X87292857Y-45020000D01*
X87435714Y-45020000D01*
X87578571Y-44305714D01*
X74098571Y-2294285D02*
X72598571Y-2294285D01*
X74027142Y-2294285D02*
X74098571Y-2151428D01*
X74098571Y-1865714D01*
X74027142Y-1722857D01*
X73955714Y-1651428D01*
X73812857Y-1580000D01*
X73384285Y-1580000D01*
X73241428Y-1651428D01*
X73170000Y-1722857D01*
X73098571Y-1865714D01*
X73098571Y-2151428D01*
X73170000Y-2294285D01*
X74098571Y-3008571D02*
X73098571Y-3008571D01*
X72598571Y-3008571D02*
X72670000Y-2937142D01*
X72741428Y-3008571D01*
X72670000Y-3080000D01*
X72598571Y-3008571D01*
X72741428Y-3008571D01*
X74098571Y-3937142D02*
X74027142Y-3794285D01*
X73955714Y-3722857D01*
X73812857Y-3651428D01*
X73384285Y-3651428D01*
X73241428Y-3722857D01*
X73170000Y-3794285D01*
X73098571Y-3937142D01*
X73098571Y-4151428D01*
X73170000Y-4294285D01*
X73241428Y-4365714D01*
X73384285Y-4437142D01*
X73812857Y-4437142D01*
X73955714Y-4365714D01*
X74027142Y-4294285D01*
X74098571Y-4151428D01*
X74098571Y-3937142D01*
X74098571Y-5722857D02*
X72598571Y-5722857D01*
X74027142Y-5722857D02*
X74098571Y-5580000D01*
X74098571Y-5294285D01*
X74027142Y-5151428D01*
X73955714Y-5080000D01*
X73812857Y-5008571D01*
X73384285Y-5008571D01*
X73241428Y-5080000D01*
X73170000Y-5151428D01*
X73098571Y-5294285D01*
X73098571Y-5580000D01*
X73170000Y-5722857D01*
X74027142Y-7008571D02*
X74098571Y-6865714D01*
X74098571Y-6580000D01*
X74027142Y-6437142D01*
X73884285Y-6365714D01*
X73312857Y-6365714D01*
X73170000Y-6437142D01*
X73098571Y-6580000D01*
X73098571Y-6865714D01*
X73170000Y-7008571D01*
X73312857Y-7080000D01*
X73455714Y-7080000D01*
X73598571Y-6365714D01*
X106345714Y-9598571D02*
X106345714Y-8098571D01*
X106345714Y-9527142D02*
X106488571Y-9598571D01*
X106774285Y-9598571D01*
X106917142Y-9527142D01*
X106988571Y-9455714D01*
X107060000Y-9312857D01*
X107060000Y-8884285D01*
X106988571Y-8741428D01*
X106917142Y-8670000D01*
X106774285Y-8598571D01*
X106488571Y-8598571D01*
X106345714Y-8670000D01*
X105631428Y-9598571D02*
X105631428Y-8598571D01*
X105631428Y-8098571D02*
X105702857Y-8170000D01*
X105631428Y-8241428D01*
X105560000Y-8170000D01*
X105631428Y-8098571D01*
X105631428Y-8241428D01*
X104702857Y-9598571D02*
X104845714Y-9527142D01*
X104917142Y-9455714D01*
X104988571Y-9312857D01*
X104988571Y-8884285D01*
X104917142Y-8741428D01*
X104845714Y-8670000D01*
X104702857Y-8598571D01*
X104488571Y-8598571D01*
X104345714Y-8670000D01*
X104274285Y-8741428D01*
X104202857Y-8884285D01*
X104202857Y-9312857D01*
X104274285Y-9455714D01*
X104345714Y-9527142D01*
X104488571Y-9598571D01*
X104702857Y-9598571D01*
X102917142Y-9598571D02*
X102917142Y-8098571D01*
X102917142Y-9527142D02*
X103060000Y-9598571D01*
X103345714Y-9598571D01*
X103488571Y-9527142D01*
X103560000Y-9455714D01*
X103631428Y-9312857D01*
X103631428Y-8884285D01*
X103560000Y-8741428D01*
X103488571Y-8670000D01*
X103345714Y-8598571D01*
X103060000Y-8598571D01*
X102917142Y-8670000D01*
X101631428Y-9527142D02*
X101774285Y-9598571D01*
X102060000Y-9598571D01*
X102202857Y-9527142D01*
X102274285Y-9384285D01*
X102274285Y-8812857D01*
X102202857Y-8670000D01*
X102060000Y-8598571D01*
X101774285Y-8598571D01*
X101631428Y-8670000D01*
X101560000Y-8812857D01*
X101560000Y-8955714D01*
X102274285Y-9098571D01*
X61285714Y-47628571D02*
X61285714Y-46128571D01*
X61285714Y-47557142D02*
X61428571Y-47628571D01*
X61714285Y-47628571D01*
X61857142Y-47557142D01*
X61928571Y-47485714D01*
X62000000Y-47342857D01*
X62000000Y-46914285D01*
X61928571Y-46771428D01*
X61857142Y-46700000D01*
X61714285Y-46628571D01*
X61428571Y-46628571D01*
X61285714Y-46700000D01*
X60571428Y-47628571D02*
X60571428Y-46628571D01*
X60571428Y-46128571D02*
X60642857Y-46200000D01*
X60571428Y-46271428D01*
X60500000Y-46200000D01*
X60571428Y-46128571D01*
X60571428Y-46271428D01*
X59642857Y-47628571D02*
X59785714Y-47557142D01*
X59857142Y-47485714D01*
X59928571Y-47342857D01*
X59928571Y-46914285D01*
X59857142Y-46771428D01*
X59785714Y-46700000D01*
X59642857Y-46628571D01*
X59428571Y-46628571D01*
X59285714Y-46700000D01*
X59214285Y-46771428D01*
X59142857Y-46914285D01*
X59142857Y-47342857D01*
X59214285Y-47485714D01*
X59285714Y-47557142D01*
X59428571Y-47628571D01*
X59642857Y-47628571D01*
X57857142Y-47628571D02*
X57857142Y-46128571D01*
X57857142Y-47557142D02*
X58000000Y-47628571D01*
X58285714Y-47628571D01*
X58428571Y-47557142D01*
X58500000Y-47485714D01*
X58571428Y-47342857D01*
X58571428Y-46914285D01*
X58500000Y-46771428D01*
X58428571Y-46700000D01*
X58285714Y-46628571D01*
X58000000Y-46628571D01*
X57857142Y-46700000D01*
X56571428Y-47557142D02*
X56714285Y-47628571D01*
X57000000Y-47628571D01*
X57142857Y-47557142D01*
X57214285Y-47414285D01*
X57214285Y-46842857D01*
X57142857Y-46700000D01*
X57000000Y-46628571D01*
X56714285Y-46628571D01*
X56571428Y-46700000D01*
X56500000Y-46842857D01*
X56500000Y-46985714D01*
X57214285Y-47128571D01*
X92318571Y-2654285D02*
X90818571Y-2654285D01*
X92247142Y-2654285D02*
X92318571Y-2511428D01*
X92318571Y-2225714D01*
X92247142Y-2082857D01*
X92175714Y-2011428D01*
X92032857Y-1940000D01*
X91604285Y-1940000D01*
X91461428Y-2011428D01*
X91390000Y-2082857D01*
X91318571Y-2225714D01*
X91318571Y-2511428D01*
X91390000Y-2654285D01*
X92318571Y-3368571D02*
X91318571Y-3368571D01*
X90818571Y-3368571D02*
X90890000Y-3297142D01*
X90961428Y-3368571D01*
X90890000Y-3440000D01*
X90818571Y-3368571D01*
X90961428Y-3368571D01*
X92318571Y-4297142D02*
X92247142Y-4154285D01*
X92175714Y-4082857D01*
X92032857Y-4011428D01*
X91604285Y-4011428D01*
X91461428Y-4082857D01*
X91390000Y-4154285D01*
X91318571Y-4297142D01*
X91318571Y-4511428D01*
X91390000Y-4654285D01*
X91461428Y-4725714D01*
X91604285Y-4797142D01*
X92032857Y-4797142D01*
X92175714Y-4725714D01*
X92247142Y-4654285D01*
X92318571Y-4511428D01*
X92318571Y-4297142D01*
X92318571Y-6082857D02*
X90818571Y-6082857D01*
X92247142Y-6082857D02*
X92318571Y-5940000D01*
X92318571Y-5654285D01*
X92247142Y-5511428D01*
X92175714Y-5440000D01*
X92032857Y-5368571D01*
X91604285Y-5368571D01*
X91461428Y-5440000D01*
X91390000Y-5511428D01*
X91318571Y-5654285D01*
X91318571Y-5940000D01*
X91390000Y-6082857D01*
X92247142Y-7368571D02*
X92318571Y-7225714D01*
X92318571Y-6940000D01*
X92247142Y-6797142D01*
X92104285Y-6725714D01*
X91532857Y-6725714D01*
X91390000Y-6797142D01*
X91318571Y-6940000D01*
X91318571Y-7225714D01*
X91390000Y-7368571D01*
X91532857Y-7440000D01*
X91675714Y-7440000D01*
X91818571Y-6725714D01*
X32965714Y-41982142D02*
X33108571Y-42053571D01*
X33394285Y-42053571D01*
X33537142Y-41982142D01*
X33608571Y-41910714D01*
X33680000Y-41767857D01*
X33680000Y-41339285D01*
X33608571Y-41196428D01*
X33537142Y-41125000D01*
X33394285Y-41053571D01*
X33108571Y-41053571D01*
X32965714Y-41125000D01*
X32108571Y-42053571D02*
X32251428Y-41982142D01*
X32322857Y-41910714D01*
X32394285Y-41767857D01*
X32394285Y-41339285D01*
X32322857Y-41196428D01*
X32251428Y-41125000D01*
X32108571Y-41053571D01*
X31894285Y-41053571D01*
X31751428Y-41125000D01*
X31680000Y-41196428D01*
X31608571Y-41339285D01*
X31608571Y-41767857D01*
X31680000Y-41910714D01*
X31751428Y-41982142D01*
X31894285Y-42053571D01*
X32108571Y-42053571D01*
X30751428Y-42053571D02*
X30894285Y-41982142D01*
X30965714Y-41910714D01*
X31037142Y-41767857D01*
X31037142Y-41339285D01*
X30965714Y-41196428D01*
X30894285Y-41125000D01*
X30751428Y-41053571D01*
X30537142Y-41053571D01*
X30394285Y-41125000D01*
X30322857Y-41196428D01*
X30251428Y-41339285D01*
X30251428Y-41767857D01*
X30322857Y-41910714D01*
X30394285Y-41982142D01*
X30537142Y-42053571D01*
X30751428Y-42053571D01*
X29394285Y-42053571D02*
X29537142Y-41982142D01*
X29608571Y-41839285D01*
X29608571Y-40553571D01*
X28751428Y-42053571D02*
X28465714Y-42053571D01*
X28322857Y-41982142D01*
X28251428Y-41910714D01*
X28108571Y-41696428D01*
X28037142Y-41410714D01*
X28037142Y-40839285D01*
X28108571Y-40696428D01*
X28180000Y-40625000D01*
X28322857Y-40553571D01*
X28608571Y-40553571D01*
X28751428Y-40625000D01*
X28822857Y-40696428D01*
X28894285Y-40839285D01*
X28894285Y-41196428D01*
X28822857Y-41339285D01*
X28751428Y-41410714D01*
X28608571Y-41482142D01*
X28322857Y-41482142D01*
X28180000Y-41410714D01*
X28108571Y-41339285D01*
X28037142Y-41196428D01*
X27537142Y-40553571D02*
X26608571Y-40553571D01*
X27108571Y-41125000D01*
X26894285Y-41125000D01*
X26751428Y-41196428D01*
X26680000Y-41267857D01*
X26608571Y-41410714D01*
X26608571Y-41767857D01*
X26680000Y-41910714D01*
X26751428Y-41982142D01*
X26894285Y-42053571D01*
X27322857Y-42053571D01*
X27465714Y-41982142D01*
X27537142Y-41910714D01*
X25322857Y-40553571D02*
X25608571Y-40553571D01*
X25751428Y-40625000D01*
X25822857Y-40696428D01*
X25965714Y-40910714D01*
X26037142Y-41196428D01*
X26037142Y-41767857D01*
X25965714Y-41910714D01*
X25894285Y-41982142D01*
X25751428Y-42053571D01*
X25465714Y-42053571D01*
X25322857Y-41982142D01*
X25251428Y-41910714D01*
X25180000Y-41767857D01*
X25180000Y-41410714D01*
X25251428Y-41267857D01*
X25322857Y-41196428D01*
X25465714Y-41125000D01*
X25751428Y-41125000D01*
X25894285Y-41196428D01*
X25965714Y-41267857D01*
X26037142Y-41410714D01*
X38108571Y-44603571D02*
X38108571Y-43103571D01*
X38108571Y-44532142D02*
X38251428Y-44603571D01*
X38537142Y-44603571D01*
X38680000Y-44532142D01*
X38751428Y-44460714D01*
X38822857Y-44317857D01*
X38822857Y-43889285D01*
X38751428Y-43746428D01*
X38680000Y-43675000D01*
X38537142Y-43603571D01*
X38251428Y-43603571D01*
X38108571Y-43675000D01*
X36822857Y-44532142D02*
X36965714Y-44603571D01*
X37251428Y-44603571D01*
X37394285Y-44532142D01*
X37465714Y-44389285D01*
X37465714Y-43817857D01*
X37394285Y-43675000D01*
X37251428Y-43603571D01*
X36965714Y-43603571D01*
X36822857Y-43675000D01*
X36751428Y-43817857D01*
X36751428Y-43960714D01*
X37465714Y-44103571D01*
X36180000Y-44532142D02*
X36037142Y-44603571D01*
X35751428Y-44603571D01*
X35608571Y-44532142D01*
X35537142Y-44389285D01*
X35537142Y-44317857D01*
X35608571Y-44175000D01*
X35751428Y-44103571D01*
X35965714Y-44103571D01*
X36108571Y-44032142D01*
X36180000Y-43889285D01*
X36180000Y-43817857D01*
X36108571Y-43675000D01*
X35965714Y-43603571D01*
X35751428Y-43603571D01*
X35608571Y-43675000D01*
X34894285Y-44603571D02*
X34894285Y-43603571D01*
X34894285Y-43103571D02*
X34965714Y-43175000D01*
X34894285Y-43246428D01*
X34822857Y-43175000D01*
X34894285Y-43103571D01*
X34894285Y-43246428D01*
X33537142Y-43603571D02*
X33537142Y-44817857D01*
X33608571Y-44960714D01*
X33680000Y-45032142D01*
X33822857Y-45103571D01*
X34037142Y-45103571D01*
X34180000Y-45032142D01*
X33537142Y-44532142D02*
X33680000Y-44603571D01*
X33965714Y-44603571D01*
X34108571Y-44532142D01*
X34180000Y-44460714D01*
X34251428Y-44317857D01*
X34251428Y-43889285D01*
X34180000Y-43746428D01*
X34108571Y-43675000D01*
X33965714Y-43603571D01*
X33680000Y-43603571D01*
X33537142Y-43675000D01*
X32822857Y-43603571D02*
X32822857Y-44603571D01*
X32822857Y-43746428D02*
X32751428Y-43675000D01*
X32608571Y-43603571D01*
X32394285Y-43603571D01*
X32251428Y-43675000D01*
X32180000Y-43817857D01*
X32180000Y-44603571D01*
X30894285Y-44532142D02*
X31037142Y-44603571D01*
X31322857Y-44603571D01*
X31465714Y-44532142D01*
X31537142Y-44389285D01*
X31537142Y-43817857D01*
X31465714Y-43675000D01*
X31322857Y-43603571D01*
X31037142Y-43603571D01*
X30894285Y-43675000D01*
X30822857Y-43817857D01*
X30822857Y-43960714D01*
X31537142Y-44103571D01*
X29537142Y-44603571D02*
X29537142Y-43103571D01*
X29537142Y-44532142D02*
X29680000Y-44603571D01*
X29965714Y-44603571D01*
X30108571Y-44532142D01*
X30180000Y-44460714D01*
X30251428Y-44317857D01*
X30251428Y-43889285D01*
X30180000Y-43746428D01*
X30108571Y-43675000D01*
X29965714Y-43603571D01*
X29680000Y-43603571D01*
X29537142Y-43675000D01*
X27680000Y-44603571D02*
X27680000Y-43103571D01*
X27680000Y-43675000D02*
X27537142Y-43603571D01*
X27251428Y-43603571D01*
X27108571Y-43675000D01*
X27037142Y-43746428D01*
X26965714Y-43889285D01*
X26965714Y-44317857D01*
X27037142Y-44460714D01*
X27108571Y-44532142D01*
X27251428Y-44603571D01*
X27537142Y-44603571D01*
X27680000Y-44532142D01*
X26465714Y-43603571D02*
X26108571Y-44603571D01*
X25751428Y-43603571D02*
X26108571Y-44603571D01*
X26251428Y-44960714D01*
X26322857Y-45032142D01*
X26465714Y-45103571D01*
X24037142Y-44603571D02*
X24037142Y-43603571D01*
X24037142Y-43746428D02*
X23965714Y-43675000D01*
X23822857Y-43603571D01*
X23608571Y-43603571D01*
X23465714Y-43675000D01*
X23394285Y-43817857D01*
X23394285Y-44603571D01*
X23394285Y-43817857D02*
X23322857Y-43675000D01*
X23180000Y-43603571D01*
X22965714Y-43603571D01*
X22822857Y-43675000D01*
X22751428Y-43817857D01*
X22751428Y-44603571D01*
X22037142Y-44460714D02*
X21965714Y-44532142D01*
X22037142Y-44603571D01*
X22108571Y-44532142D01*
X22037142Y-44460714D01*
X22037142Y-44603571D01*
X21322857Y-44603571D02*
X21322857Y-43103571D01*
X21180000Y-44032142D02*
X20751428Y-44603571D01*
X20751428Y-43603571D02*
X21322857Y-44175000D01*
X20108571Y-44603571D02*
X20108571Y-43603571D01*
X20108571Y-43103571D02*
X20180000Y-43175000D01*
X20108571Y-43246428D01*
X20037142Y-43175000D01*
X20108571Y-43103571D01*
X20108571Y-43246428D01*
X37144285Y-47153571D02*
X37144285Y-45653571D01*
X37144285Y-47082142D02*
X37287142Y-47153571D01*
X37572857Y-47153571D01*
X37715714Y-47082142D01*
X37787142Y-47010714D01*
X37858571Y-46867857D01*
X37858571Y-46439285D01*
X37787142Y-46296428D01*
X37715714Y-46225000D01*
X37572857Y-46153571D01*
X37287142Y-46153571D01*
X37144285Y-46225000D01*
X35787142Y-47153571D02*
X35787142Y-46367857D01*
X35858571Y-46225000D01*
X36001428Y-46153571D01*
X36287142Y-46153571D01*
X36430000Y-46225000D01*
X35787142Y-47082142D02*
X35930000Y-47153571D01*
X36287142Y-47153571D01*
X36430000Y-47082142D01*
X36501428Y-46939285D01*
X36501428Y-46796428D01*
X36430000Y-46653571D01*
X36287142Y-46582142D01*
X35930000Y-46582142D01*
X35787142Y-46510714D01*
X35287142Y-46153571D02*
X34715714Y-46153571D01*
X35072857Y-45653571D02*
X35072857Y-46939285D01*
X35001428Y-47082142D01*
X34858571Y-47153571D01*
X34715714Y-47153571D01*
X33644285Y-47082142D02*
X33787142Y-47153571D01*
X34072857Y-47153571D01*
X34215714Y-47082142D01*
X34287142Y-46939285D01*
X34287142Y-46367857D01*
X34215714Y-46225000D01*
X34072857Y-46153571D01*
X33787142Y-46153571D01*
X33644285Y-46225000D01*
X33572857Y-46367857D01*
X33572857Y-46510714D01*
X34287142Y-46653571D01*
X31858571Y-45796428D02*
X31787142Y-45725000D01*
X31644285Y-45653571D01*
X31287142Y-45653571D01*
X31144285Y-45725000D01*
X31072857Y-45796428D01*
X31001428Y-45939285D01*
X31001428Y-46082142D01*
X31072857Y-46296428D01*
X31930000Y-47153571D01*
X31001428Y-47153571D01*
X30072857Y-45653571D02*
X29930000Y-45653571D01*
X29787142Y-45725000D01*
X29715714Y-45796428D01*
X29644285Y-45939285D01*
X29572857Y-46225000D01*
X29572857Y-46582142D01*
X29644285Y-46867857D01*
X29715714Y-47010714D01*
X29787142Y-47082142D01*
X29930000Y-47153571D01*
X30072857Y-47153571D01*
X30215714Y-47082142D01*
X30287142Y-47010714D01*
X30358571Y-46867857D01*
X30430000Y-46582142D01*
X30430000Y-46225000D01*
X30358571Y-45939285D01*
X30287142Y-45796428D01*
X30215714Y-45725000D01*
X30072857Y-45653571D01*
X29001428Y-45796428D02*
X28930000Y-45725000D01*
X28787142Y-45653571D01*
X28430000Y-45653571D01*
X28287142Y-45725000D01*
X28215714Y-45796428D01*
X28144285Y-45939285D01*
X28144285Y-46082142D01*
X28215714Y-46296428D01*
X29072857Y-47153571D01*
X28144285Y-47153571D01*
X27572857Y-45796428D02*
X27501428Y-45725000D01*
X27358571Y-45653571D01*
X27001428Y-45653571D01*
X26858571Y-45725000D01*
X26787142Y-45796428D01*
X26715714Y-45939285D01*
X26715714Y-46082142D01*
X26787142Y-46296428D01*
X27644285Y-47153571D01*
X26715714Y-47153571D01*
X25787142Y-45653571D02*
X25644285Y-45653571D01*
X25501428Y-45725000D01*
X25430000Y-45796428D01*
X25358571Y-45939285D01*
X25287142Y-46225000D01*
X25287142Y-46582142D01*
X25358571Y-46867857D01*
X25430000Y-47010714D01*
X25501428Y-47082142D01*
X25644285Y-47153571D01*
X25787142Y-47153571D01*
X25930000Y-47082142D01*
X26001428Y-47010714D01*
X26072857Y-46867857D01*
X26144285Y-46582142D01*
X26144285Y-46225000D01*
X26072857Y-45939285D01*
X26001428Y-45796428D01*
X25930000Y-45725000D01*
X25787142Y-45653571D01*
X23930000Y-45653571D02*
X24644285Y-45653571D01*
X24715714Y-46367857D01*
X24644285Y-46296428D01*
X24501428Y-46225000D01*
X24144285Y-46225000D01*
X24001428Y-46296428D01*
X23930000Y-46367857D01*
X23858571Y-46510714D01*
X23858571Y-46867857D01*
X23930000Y-47010714D01*
X24001428Y-47082142D01*
X24144285Y-47153571D01*
X24501428Y-47153571D01*
X24644285Y-47082142D01*
X24715714Y-47010714D01*
X22430000Y-47153571D02*
X23287142Y-47153571D01*
X22858571Y-47153571D02*
X22858571Y-45653571D01*
X23001428Y-45867857D01*
X23144285Y-46010714D01*
X23287142Y-46082142D01*
X21144285Y-45653571D02*
X21430000Y-45653571D01*
X21572857Y-45725000D01*
X21644285Y-45796428D01*
X21787142Y-46010714D01*
X21858571Y-46296428D01*
X21858571Y-46867857D01*
X21787142Y-47010714D01*
X21715714Y-47082142D01*
X21572857Y-47153571D01*
X21287142Y-47153571D01*
X21144285Y-47082142D01*
X21072857Y-47010714D01*
X21001428Y-46867857D01*
X21001428Y-46510714D01*
X21072857Y-46367857D01*
X21144285Y-46296428D01*
X21287142Y-46225000D01*
X21572857Y-46225000D01*
X21715714Y-46296428D01*
X21787142Y-46367857D01*
X21858571Y-46510714D01*
X33037142Y-48703571D02*
X32680000Y-49703571D01*
X32322857Y-48703571D01*
X31180000Y-49632142D02*
X31322857Y-49703571D01*
X31608571Y-49703571D01*
X31751428Y-49632142D01*
X31822857Y-49489285D01*
X31822857Y-48917857D01*
X31751428Y-48775000D01*
X31608571Y-48703571D01*
X31322857Y-48703571D01*
X31180000Y-48775000D01*
X31108571Y-48917857D01*
X31108571Y-49060714D01*
X31822857Y-49203571D01*
X30465714Y-49703571D02*
X30465714Y-48703571D01*
X30465714Y-48989285D02*
X30394285Y-48846428D01*
X30322857Y-48775000D01*
X30180000Y-48703571D01*
X30037142Y-48703571D01*
X29537142Y-49560714D02*
X29465714Y-49632142D01*
X29537142Y-49703571D01*
X29608571Y-49632142D01*
X29537142Y-49560714D01*
X29537142Y-49703571D01*
X28037142Y-49703571D02*
X28894285Y-49703571D01*
X28465714Y-49703571D02*
X28465714Y-48203571D01*
X28608571Y-48417857D01*
X28751428Y-48560714D01*
X28894285Y-48632142D01*
X27394285Y-49560714D02*
X27322857Y-49632142D01*
X27394285Y-49703571D01*
X27465714Y-49632142D01*
X27394285Y-49560714D01*
X27394285Y-49703571D01*
X26037142Y-48703571D02*
X26037142Y-49703571D01*
X26394285Y-48132142D02*
X26751428Y-49203571D01*
X25822857Y-49203571D01*
X106898571Y-40684285D02*
X105398571Y-40684285D01*
X106827142Y-40684285D02*
X106898571Y-40541428D01*
X106898571Y-40255714D01*
X106827142Y-40112857D01*
X106755714Y-40041428D01*
X106612857Y-39970000D01*
X106184285Y-39970000D01*
X106041428Y-40041428D01*
X105970000Y-40112857D01*
X105898571Y-40255714D01*
X105898571Y-40541428D01*
X105970000Y-40684285D01*
X106898571Y-41398571D02*
X105898571Y-41398571D01*
X105398571Y-41398571D02*
X105470000Y-41327142D01*
X105541428Y-41398571D01*
X105470000Y-41470000D01*
X105398571Y-41398571D01*
X105541428Y-41398571D01*
X106898571Y-42327142D02*
X106827142Y-42184285D01*
X106755714Y-42112857D01*
X106612857Y-42041428D01*
X106184285Y-42041428D01*
X106041428Y-42112857D01*
X105970000Y-42184285D01*
X105898571Y-42327142D01*
X105898571Y-42541428D01*
X105970000Y-42684285D01*
X106041428Y-42755714D01*
X106184285Y-42827142D01*
X106612857Y-42827142D01*
X106755714Y-42755714D01*
X106827142Y-42684285D01*
X106898571Y-42541428D01*
X106898571Y-42327142D01*
X106898571Y-44112857D02*
X105398571Y-44112857D01*
X106827142Y-44112857D02*
X106898571Y-43970000D01*
X106898571Y-43684285D01*
X106827142Y-43541428D01*
X106755714Y-43470000D01*
X106612857Y-43398571D01*
X106184285Y-43398571D01*
X106041428Y-43470000D01*
X105970000Y-43541428D01*
X105898571Y-43684285D01*
X105898571Y-43970000D01*
X105970000Y-44112857D01*
X106827142Y-45398571D02*
X106898571Y-45255714D01*
X106898571Y-44970000D01*
X106827142Y-44827142D01*
X106684285Y-44755714D01*
X106112857Y-44755714D01*
X105970000Y-44827142D01*
X105898571Y-44970000D01*
X105898571Y-45255714D01*
X105970000Y-45398571D01*
X106112857Y-45470000D01*
X106255714Y-45470000D01*
X106398571Y-44755714D01*
X78758571Y-19494285D02*
X77258571Y-19494285D01*
X78687142Y-19494285D02*
X78758571Y-19351428D01*
X78758571Y-19065714D01*
X78687142Y-18922857D01*
X78615714Y-18851428D01*
X78472857Y-18780000D01*
X78044285Y-18780000D01*
X77901428Y-18851428D01*
X77830000Y-18922857D01*
X77758571Y-19065714D01*
X77758571Y-19351428D01*
X77830000Y-19494285D01*
X78758571Y-20208571D02*
X77758571Y-20208571D01*
X77258571Y-20208571D02*
X77330000Y-20137142D01*
X77401428Y-20208571D01*
X77330000Y-20280000D01*
X77258571Y-20208571D01*
X77401428Y-20208571D01*
X78758571Y-21137142D02*
X78687142Y-20994285D01*
X78615714Y-20922857D01*
X78472857Y-20851428D01*
X78044285Y-20851428D01*
X77901428Y-20922857D01*
X77830000Y-20994285D01*
X77758571Y-21137142D01*
X77758571Y-21351428D01*
X77830000Y-21494285D01*
X77901428Y-21565714D01*
X78044285Y-21637142D01*
X78472857Y-21637142D01*
X78615714Y-21565714D01*
X78687142Y-21494285D01*
X78758571Y-21351428D01*
X78758571Y-21137142D01*
X78758571Y-22922857D02*
X77258571Y-22922857D01*
X78687142Y-22922857D02*
X78758571Y-22780000D01*
X78758571Y-22494285D01*
X78687142Y-22351428D01*
X78615714Y-22280000D01*
X78472857Y-22208571D01*
X78044285Y-22208571D01*
X77901428Y-22280000D01*
X77830000Y-22351428D01*
X77758571Y-22494285D01*
X77758571Y-22780000D01*
X77830000Y-22922857D01*
X78687142Y-24208571D02*
X78758571Y-24065714D01*
X78758571Y-23780000D01*
X78687142Y-23637142D01*
X78544285Y-23565714D01*
X77972857Y-23565714D01*
X77830000Y-23637142D01*
X77758571Y-23780000D01*
X77758571Y-24065714D01*
X77830000Y-24208571D01*
X77972857Y-24280000D01*
X78115714Y-24280000D01*
X78258571Y-23565714D01*
X94028571Y-54804285D02*
X92528571Y-54804285D01*
X93957142Y-54804285D02*
X94028571Y-54661428D01*
X94028571Y-54375714D01*
X93957142Y-54232857D01*
X93885714Y-54161428D01*
X93742857Y-54090000D01*
X93314285Y-54090000D01*
X93171428Y-54161428D01*
X93100000Y-54232857D01*
X93028571Y-54375714D01*
X93028571Y-54661428D01*
X93100000Y-54804285D01*
X94028571Y-55518571D02*
X93028571Y-55518571D01*
X92528571Y-55518571D02*
X92600000Y-55447142D01*
X92671428Y-55518571D01*
X92600000Y-55590000D01*
X92528571Y-55518571D01*
X92671428Y-55518571D01*
X94028571Y-56447142D02*
X93957142Y-56304285D01*
X93885714Y-56232857D01*
X93742857Y-56161428D01*
X93314285Y-56161428D01*
X93171428Y-56232857D01*
X93100000Y-56304285D01*
X93028571Y-56447142D01*
X93028571Y-56661428D01*
X93100000Y-56804285D01*
X93171428Y-56875714D01*
X93314285Y-56947142D01*
X93742857Y-56947142D01*
X93885714Y-56875714D01*
X93957142Y-56804285D01*
X94028571Y-56661428D01*
X94028571Y-56447142D01*
X94028571Y-58232857D02*
X92528571Y-58232857D01*
X93957142Y-58232857D02*
X94028571Y-58090000D01*
X94028571Y-57804285D01*
X93957142Y-57661428D01*
X93885714Y-57590000D01*
X93742857Y-57518571D01*
X93314285Y-57518571D01*
X93171428Y-57590000D01*
X93100000Y-57661428D01*
X93028571Y-57804285D01*
X93028571Y-58090000D01*
X93100000Y-58232857D01*
X93957142Y-59518571D02*
X94028571Y-59375714D01*
X94028571Y-59090000D01*
X93957142Y-58947142D01*
X93814285Y-58875714D01*
X93242857Y-58875714D01*
X93100000Y-58947142D01*
X93028571Y-59090000D01*
X93028571Y-59375714D01*
X93100000Y-59518571D01*
X93242857Y-59590000D01*
X93385714Y-59590000D01*
X93528571Y-58875714D01*
X45478571Y-35734285D02*
X43978571Y-35734285D01*
X45407142Y-35734285D02*
X45478571Y-35591428D01*
X45478571Y-35305714D01*
X45407142Y-35162857D01*
X45335714Y-35091428D01*
X45192857Y-35020000D01*
X44764285Y-35020000D01*
X44621428Y-35091428D01*
X44550000Y-35162857D01*
X44478571Y-35305714D01*
X44478571Y-35591428D01*
X44550000Y-35734285D01*
X45478571Y-36448571D02*
X44478571Y-36448571D01*
X43978571Y-36448571D02*
X44050000Y-36377142D01*
X44121428Y-36448571D01*
X44050000Y-36520000D01*
X43978571Y-36448571D01*
X44121428Y-36448571D01*
X45478571Y-37377142D02*
X45407142Y-37234285D01*
X45335714Y-37162857D01*
X45192857Y-37091428D01*
X44764285Y-37091428D01*
X44621428Y-37162857D01*
X44550000Y-37234285D01*
X44478571Y-37377142D01*
X44478571Y-37591428D01*
X44550000Y-37734285D01*
X44621428Y-37805714D01*
X44764285Y-37877142D01*
X45192857Y-37877142D01*
X45335714Y-37805714D01*
X45407142Y-37734285D01*
X45478571Y-37591428D01*
X45478571Y-37377142D01*
X45478571Y-39162857D02*
X43978571Y-39162857D01*
X45407142Y-39162857D02*
X45478571Y-39020000D01*
X45478571Y-38734285D01*
X45407142Y-38591428D01*
X45335714Y-38520000D01*
X45192857Y-38448571D01*
X44764285Y-38448571D01*
X44621428Y-38520000D01*
X44550000Y-38591428D01*
X44478571Y-38734285D01*
X44478571Y-39020000D01*
X44550000Y-39162857D01*
X45407142Y-40448571D02*
X45478571Y-40305714D01*
X45478571Y-40020000D01*
X45407142Y-39877142D01*
X45264285Y-39805714D01*
X44692857Y-39805714D01*
X44550000Y-39877142D01*
X44478571Y-40020000D01*
X44478571Y-40305714D01*
X44550000Y-40448571D01*
X44692857Y-40520000D01*
X44835714Y-40520000D01*
X44978571Y-39805714D01*
X28261428Y4852857D02*
X28118571Y4781428D01*
X27832857Y4781428D01*
X27689999Y4852857D01*
X27618571Y4995714D01*
X27618571Y5067142D01*
X27689999Y5210000D01*
X27832857Y5281428D01*
X28047142Y5281428D01*
X28189999Y5352857D01*
X28261428Y5495714D01*
X28261428Y5567142D01*
X28189999Y5710000D01*
X28047142Y5781428D01*
X27832857Y5781428D01*
X27689999Y5710000D01*
X26761428Y4781428D02*
X26904285Y4852857D01*
X26975714Y4924285D01*
X27047142Y5067142D01*
X27047142Y5495714D01*
X26975714Y5638571D01*
X26904285Y5710000D01*
X26761428Y5781428D01*
X26547142Y5781428D01*
X26404285Y5710000D01*
X26332857Y5638571D01*
X26261428Y5495714D01*
X26261428Y5067142D01*
X26332857Y4924285D01*
X26404285Y4852857D01*
X26547142Y4781428D01*
X26761428Y4781428D01*
X24975714Y4852857D02*
X25118571Y4781428D01*
X25404285Y4781428D01*
X25547142Y4852857D01*
X25618571Y4924285D01*
X25689999Y5067142D01*
X25689999Y5495714D01*
X25618571Y5638571D01*
X25547142Y5710000D01*
X25404285Y5781428D01*
X25118571Y5781428D01*
X24975714Y5710000D01*
X24332857Y4781428D02*
X24332857Y6281428D01*
X24189999Y5352857D02*
X23761428Y4781428D01*
X23761428Y5781428D02*
X24332857Y5210000D01*
X22547142Y4852857D02*
X22689999Y4781428D01*
X22975714Y4781428D01*
X23118571Y4852857D01*
X23189999Y4995714D01*
X23189999Y5567142D01*
X23118571Y5710000D01*
X22975714Y5781428D01*
X22689999Y5781428D01*
X22547142Y5710000D01*
X22475714Y5567142D01*
X22475714Y5424285D01*
X23189999Y5281428D01*
X22047142Y5781428D02*
X21475714Y5781428D01*
X21832857Y6281428D02*
X21832857Y4995714D01*
X21761428Y4852857D01*
X21618571Y4781428D01*
X21475714Y4781428D01*
X69148571Y-40684285D02*
X67648571Y-40684285D01*
X69077142Y-40684285D02*
X69148571Y-40541428D01*
X69148571Y-40255714D01*
X69077142Y-40112857D01*
X69005714Y-40041428D01*
X68862857Y-39970000D01*
X68434285Y-39970000D01*
X68291428Y-40041428D01*
X68220000Y-40112857D01*
X68148571Y-40255714D01*
X68148571Y-40541428D01*
X68220000Y-40684285D01*
X69148571Y-41398571D02*
X68148571Y-41398571D01*
X67648571Y-41398571D02*
X67720000Y-41327142D01*
X67791428Y-41398571D01*
X67720000Y-41470000D01*
X67648571Y-41398571D01*
X67791428Y-41398571D01*
X69148571Y-42327142D02*
X69077142Y-42184285D01*
X69005714Y-42112857D01*
X68862857Y-42041428D01*
X68434285Y-42041428D01*
X68291428Y-42112857D01*
X68220000Y-42184285D01*
X68148571Y-42327142D01*
X68148571Y-42541428D01*
X68220000Y-42684285D01*
X68291428Y-42755714D01*
X68434285Y-42827142D01*
X68862857Y-42827142D01*
X69005714Y-42755714D01*
X69077142Y-42684285D01*
X69148571Y-42541428D01*
X69148571Y-42327142D01*
X69148571Y-44112857D02*
X67648571Y-44112857D01*
X69077142Y-44112857D02*
X69148571Y-43970000D01*
X69148571Y-43684285D01*
X69077142Y-43541428D01*
X69005714Y-43470000D01*
X68862857Y-43398571D01*
X68434285Y-43398571D01*
X68291428Y-43470000D01*
X68220000Y-43541428D01*
X68148571Y-43684285D01*
X68148571Y-43970000D01*
X68220000Y-44112857D01*
X69077142Y-45398571D02*
X69148571Y-45255714D01*
X69148571Y-44970000D01*
X69077142Y-44827142D01*
X68934285Y-44755714D01*
X68362857Y-44755714D01*
X68220000Y-44827142D01*
X68148571Y-44970000D01*
X68148571Y-45255714D01*
X68220000Y-45398571D01*
X68362857Y-45470000D01*
X68505714Y-45470000D01*
X68648571Y-44755714D01*
X39508571Y235714D02*
X38008571Y235714D01*
X39437142Y235714D02*
X39508571Y378571D01*
X39508571Y664285D01*
X39437142Y807142D01*
X39365714Y878571D01*
X39222857Y950000D01*
X38794285Y950000D01*
X38651428Y878571D01*
X38580000Y807142D01*
X38508571Y664285D01*
X38508571Y378571D01*
X38580000Y235714D01*
X39508571Y-478571D02*
X38508571Y-478571D01*
X38008571Y-478571D02*
X38080000Y-407142D01*
X38151428Y-478571D01*
X38080000Y-550000D01*
X38008571Y-478571D01*
X38151428Y-478571D01*
X39508571Y-1407142D02*
X39437142Y-1264285D01*
X39365714Y-1192857D01*
X39222857Y-1121428D01*
X38794285Y-1121428D01*
X38651428Y-1192857D01*
X38580000Y-1264285D01*
X38508571Y-1407142D01*
X38508571Y-1621428D01*
X38580000Y-1764285D01*
X38651428Y-1835714D01*
X38794285Y-1907142D01*
X39222857Y-1907142D01*
X39365714Y-1835714D01*
X39437142Y-1764285D01*
X39508571Y-1621428D01*
X39508571Y-1407142D01*
X39508571Y-3192857D02*
X38008571Y-3192857D01*
X39437142Y-3192857D02*
X39508571Y-3050000D01*
X39508571Y-2764285D01*
X39437142Y-2621428D01*
X39365714Y-2550000D01*
X39222857Y-2478571D01*
X38794285Y-2478571D01*
X38651428Y-2550000D01*
X38580000Y-2621428D01*
X38508571Y-2764285D01*
X38508571Y-3050000D01*
X38580000Y-3192857D01*
X39437142Y-4478571D02*
X39508571Y-4335714D01*
X39508571Y-4050000D01*
X39437142Y-3907142D01*
X39294285Y-3835714D01*
X38722857Y-3835714D01*
X38580000Y-3907142D01*
X38508571Y-4050000D01*
X38508571Y-4335714D01*
X38580000Y-4478571D01*
X38722857Y-4550000D01*
X38865714Y-4550000D01*
X39008571Y-3835714D01*
X48685714Y-47478571D02*
X48685714Y-45978571D01*
X48685714Y-47407142D02*
X48828571Y-47478571D01*
X49114285Y-47478571D01*
X49257142Y-47407142D01*
X49328571Y-47335714D01*
X49400000Y-47192857D01*
X49400000Y-46764285D01*
X49328571Y-46621428D01*
X49257142Y-46550000D01*
X49114285Y-46478571D01*
X48828571Y-46478571D01*
X48685714Y-46550000D01*
X47971428Y-47478571D02*
X47971428Y-46478571D01*
X47971428Y-45978571D02*
X48042857Y-46050000D01*
X47971428Y-46121428D01*
X47900000Y-46050000D01*
X47971428Y-45978571D01*
X47971428Y-46121428D01*
X47042857Y-47478571D02*
X47185714Y-47407142D01*
X47257142Y-47335714D01*
X47328571Y-47192857D01*
X47328571Y-46764285D01*
X47257142Y-46621428D01*
X47185714Y-46550000D01*
X47042857Y-46478571D01*
X46828571Y-46478571D01*
X46685714Y-46550000D01*
X46614285Y-46621428D01*
X46542857Y-46764285D01*
X46542857Y-47192857D01*
X46614285Y-47335714D01*
X46685714Y-47407142D01*
X46828571Y-47478571D01*
X47042857Y-47478571D01*
X45257142Y-47478571D02*
X45257142Y-45978571D01*
X45257142Y-47407142D02*
X45400000Y-47478571D01*
X45685714Y-47478571D01*
X45828571Y-47407142D01*
X45900000Y-47335714D01*
X45971428Y-47192857D01*
X45971428Y-46764285D01*
X45900000Y-46621428D01*
X45828571Y-46550000D01*
X45685714Y-46478571D01*
X45400000Y-46478571D01*
X45257142Y-46550000D01*
X43971428Y-47407142D02*
X44114285Y-47478571D01*
X44400000Y-47478571D01*
X44542857Y-47407142D01*
X44614285Y-47264285D01*
X44614285Y-46692857D01*
X44542857Y-46550000D01*
X44400000Y-46478571D01*
X44114285Y-46478571D01*
X43971428Y-46550000D01*
X43900000Y-46692857D01*
X43900000Y-46835714D01*
X44614285Y-46978571D01*
X87925714Y-9578571D02*
X87925714Y-8078571D01*
X87925714Y-9507142D02*
X88068571Y-9578571D01*
X88354285Y-9578571D01*
X88497142Y-9507142D01*
X88568571Y-9435714D01*
X88640000Y-9292857D01*
X88640000Y-8864285D01*
X88568571Y-8721428D01*
X88497142Y-8650000D01*
X88354285Y-8578571D01*
X88068571Y-8578571D01*
X87925714Y-8650000D01*
X87211428Y-9578571D02*
X87211428Y-8578571D01*
X87211428Y-8078571D02*
X87282857Y-8150000D01*
X87211428Y-8221428D01*
X87140000Y-8150000D01*
X87211428Y-8078571D01*
X87211428Y-8221428D01*
X86282857Y-9578571D02*
X86425714Y-9507142D01*
X86497142Y-9435714D01*
X86568571Y-9292857D01*
X86568571Y-8864285D01*
X86497142Y-8721428D01*
X86425714Y-8650000D01*
X86282857Y-8578571D01*
X86068571Y-8578571D01*
X85925714Y-8650000D01*
X85854285Y-8721428D01*
X85782857Y-8864285D01*
X85782857Y-9292857D01*
X85854285Y-9435714D01*
X85925714Y-9507142D01*
X86068571Y-9578571D01*
X86282857Y-9578571D01*
X84497142Y-9578571D02*
X84497142Y-8078571D01*
X84497142Y-9507142D02*
X84640000Y-9578571D01*
X84925714Y-9578571D01*
X85068571Y-9507142D01*
X85140000Y-9435714D01*
X85211428Y-9292857D01*
X85211428Y-8864285D01*
X85140000Y-8721428D01*
X85068571Y-8650000D01*
X84925714Y-8578571D01*
X84640000Y-8578571D01*
X84497142Y-8650000D01*
X83211428Y-9507142D02*
X83354285Y-9578571D01*
X83640000Y-9578571D01*
X83782857Y-9507142D01*
X83854285Y-9364285D01*
X83854285Y-8792857D01*
X83782857Y-8650000D01*
X83640000Y-8578571D01*
X83354285Y-8578571D01*
X83211428Y-8650000D01*
X83140000Y-8792857D01*
X83140000Y-8935714D01*
X83854285Y-9078571D01*
X41958571Y-12464285D02*
X40458571Y-12464285D01*
X41887142Y-12464285D02*
X41958571Y-12321428D01*
X41958571Y-12035714D01*
X41887142Y-11892857D01*
X41815714Y-11821428D01*
X41672857Y-11750000D01*
X41244285Y-11750000D01*
X41101428Y-11821428D01*
X41030000Y-11892857D01*
X40958571Y-12035714D01*
X40958571Y-12321428D01*
X41030000Y-12464285D01*
X41958571Y-13178571D02*
X40958571Y-13178571D01*
X40458571Y-13178571D02*
X40530000Y-13107142D01*
X40601428Y-13178571D01*
X40530000Y-13250000D01*
X40458571Y-13178571D01*
X40601428Y-13178571D01*
X41958571Y-14107142D02*
X41887142Y-13964285D01*
X41815714Y-13892857D01*
X41672857Y-13821428D01*
X41244285Y-13821428D01*
X41101428Y-13892857D01*
X41030000Y-13964285D01*
X40958571Y-14107142D01*
X40958571Y-14321428D01*
X41030000Y-14464285D01*
X41101428Y-14535714D01*
X41244285Y-14607142D01*
X41672857Y-14607142D01*
X41815714Y-14535714D01*
X41887142Y-14464285D01*
X41958571Y-14321428D01*
X41958571Y-14107142D01*
X41958571Y-15892857D02*
X40458571Y-15892857D01*
X41887142Y-15892857D02*
X41958571Y-15750000D01*
X41958571Y-15464285D01*
X41887142Y-15321428D01*
X41815714Y-15250000D01*
X41672857Y-15178571D01*
X41244285Y-15178571D01*
X41101428Y-15250000D01*
X41030000Y-15321428D01*
X40958571Y-15464285D01*
X40958571Y-15750000D01*
X41030000Y-15892857D01*
X41887142Y-17178571D02*
X41958571Y-17035714D01*
X41958571Y-16750000D01*
X41887142Y-16607142D01*
X41744285Y-16535714D01*
X41172857Y-16535714D01*
X41030000Y-16607142D01*
X40958571Y-16750000D01*
X40958571Y-17035714D01*
X41030000Y-17178571D01*
X41172857Y-17250000D01*
X41315714Y-17250000D01*
X41458571Y-16535714D01*
X60638571Y-2744285D02*
X59138571Y-2744285D01*
X60567142Y-2744285D02*
X60638571Y-2601428D01*
X60638571Y-2315714D01*
X60567142Y-2172857D01*
X60495714Y-2101428D01*
X60352857Y-2030000D01*
X59924285Y-2030000D01*
X59781428Y-2101428D01*
X59710000Y-2172857D01*
X59638571Y-2315714D01*
X59638571Y-2601428D01*
X59710000Y-2744285D01*
X60638571Y-3458571D02*
X59638571Y-3458571D01*
X59138571Y-3458571D02*
X59210000Y-3387142D01*
X59281428Y-3458571D01*
X59210000Y-3530000D01*
X59138571Y-3458571D01*
X59281428Y-3458571D01*
X60638571Y-4387142D02*
X60567142Y-4244285D01*
X60495714Y-4172857D01*
X60352857Y-4101428D01*
X59924285Y-4101428D01*
X59781428Y-4172857D01*
X59710000Y-4244285D01*
X59638571Y-4387142D01*
X59638571Y-4601428D01*
X59710000Y-4744285D01*
X59781428Y-4815714D01*
X59924285Y-4887142D01*
X60352857Y-4887142D01*
X60495714Y-4815714D01*
X60567142Y-4744285D01*
X60638571Y-4601428D01*
X60638571Y-4387142D01*
X60638571Y-6172857D02*
X59138571Y-6172857D01*
X60567142Y-6172857D02*
X60638571Y-6030000D01*
X60638571Y-5744285D01*
X60567142Y-5601428D01*
X60495714Y-5530000D01*
X60352857Y-5458571D01*
X59924285Y-5458571D01*
X59781428Y-5530000D01*
X59710000Y-5601428D01*
X59638571Y-5744285D01*
X59638571Y-6030000D01*
X59710000Y-6172857D01*
X60567142Y-7458571D02*
X60638571Y-7315714D01*
X60638571Y-7030000D01*
X60567142Y-6887142D01*
X60424285Y-6815714D01*
X59852857Y-6815714D01*
X59710000Y-6887142D01*
X59638571Y-7030000D01*
X59638571Y-7315714D01*
X59710000Y-7458571D01*
X59852857Y-7530000D01*
X59995714Y-7530000D01*
X60138571Y-6815714D01*
X63258571Y-19534285D02*
X61758571Y-19534285D01*
X63187142Y-19534285D02*
X63258571Y-19391428D01*
X63258571Y-19105714D01*
X63187142Y-18962857D01*
X63115714Y-18891428D01*
X62972857Y-18820000D01*
X62544285Y-18820000D01*
X62401428Y-18891428D01*
X62330000Y-18962857D01*
X62258571Y-19105714D01*
X62258571Y-19391428D01*
X62330000Y-19534285D01*
X63258571Y-20248571D02*
X62258571Y-20248571D01*
X61758571Y-20248571D02*
X61830000Y-20177142D01*
X61901428Y-20248571D01*
X61830000Y-20320000D01*
X61758571Y-20248571D01*
X61901428Y-20248571D01*
X63258571Y-21177142D02*
X63187142Y-21034285D01*
X63115714Y-20962857D01*
X62972857Y-20891428D01*
X62544285Y-20891428D01*
X62401428Y-20962857D01*
X62330000Y-21034285D01*
X62258571Y-21177142D01*
X62258571Y-21391428D01*
X62330000Y-21534285D01*
X62401428Y-21605714D01*
X62544285Y-21677142D01*
X62972857Y-21677142D01*
X63115714Y-21605714D01*
X63187142Y-21534285D01*
X63258571Y-21391428D01*
X63258571Y-21177142D01*
X63258571Y-22962857D02*
X61758571Y-22962857D01*
X63187142Y-22962857D02*
X63258571Y-22820000D01*
X63258571Y-22534285D01*
X63187142Y-22391428D01*
X63115714Y-22320000D01*
X62972857Y-22248571D01*
X62544285Y-22248571D01*
X62401428Y-22320000D01*
X62330000Y-22391428D01*
X62258571Y-22534285D01*
X62258571Y-22820000D01*
X62330000Y-22962857D01*
X63187142Y-24248571D02*
X63258571Y-24105714D01*
X63258571Y-23820000D01*
X63187142Y-23677142D01*
X63044285Y-23605714D01*
X62472857Y-23605714D01*
X62330000Y-23677142D01*
X62258571Y-23820000D01*
X62258571Y-24105714D01*
X62330000Y-24248571D01*
X62472857Y-24320000D01*
X62615714Y-24320000D01*
X62758571Y-23605714D01*
D11*
X40100000Y-11820000D02*
X38600000Y-11820000D01*
X40100000Y-17220000D02*
X40100000Y-11820000D01*
X38600000Y-17220000D02*
X40100000Y-17220000D01*
X38600000Y-11820000D02*
X38600000Y-17220000D01*
X38850000Y-15020000D02*
X39850000Y-15020000D01*
X39850000Y-14020000D02*
X39350000Y-14920000D01*
X38850000Y-14020000D02*
X39850000Y-14020000D01*
X39350000Y-14920000D02*
X38850000Y-14020000D01*
X47540000Y-34840000D02*
X46040000Y-34840000D01*
X47540000Y-40240000D02*
X47540000Y-34840000D01*
X46040000Y-40240000D02*
X47540000Y-40240000D01*
X46040000Y-34840000D02*
X46040000Y-40240000D01*
X46290000Y-38040000D02*
X47290000Y-38040000D01*
X47290000Y-37040000D02*
X46790000Y-37940000D01*
X46290000Y-37040000D02*
X47290000Y-37040000D01*
X46790000Y-37940000D02*
X46290000Y-37040000D01*
X95850000Y-53980000D02*
X94350000Y-53980000D01*
X95850000Y-59380000D02*
X95850000Y-53980000D01*
X94350000Y-59380000D02*
X95850000Y-59380000D01*
X94350000Y-53980000D02*
X94350000Y-59380000D01*
X94600000Y-57180000D02*
X95600000Y-57180000D01*
X95600000Y-56180000D02*
X95100000Y-57080000D01*
X94600000Y-56180000D02*
X95600000Y-56180000D01*
X95100000Y-57080000D02*
X94600000Y-56180000D01*
X92840000Y-53980000D02*
X91340000Y-53980000D01*
X92840000Y-59380000D02*
X92840000Y-53980000D01*
X91340000Y-59380000D02*
X92840000Y-59380000D01*
X91340000Y-53980000D02*
X91340000Y-59380000D01*
X91590000Y-57180000D02*
X92590000Y-57180000D01*
X92590000Y-56180000D02*
X92090000Y-57080000D01*
X91590000Y-56180000D02*
X92590000Y-56180000D01*
X92090000Y-57080000D02*
X91590000Y-56180000D01*
X89980000Y-39720000D02*
X88480000Y-39720000D01*
X89980000Y-45120000D02*
X89980000Y-39720000D01*
X88480000Y-45120000D02*
X89980000Y-45120000D01*
X88480000Y-39720000D02*
X88480000Y-45120000D01*
X88730000Y-42920000D02*
X89730000Y-42920000D01*
X89730000Y-41920000D02*
X89230000Y-42820000D01*
X88730000Y-41920000D02*
X89730000Y-41920000D01*
X89230000Y-42820000D02*
X88730000Y-41920000D01*
X108970000Y-39870000D02*
X107470000Y-39870000D01*
X108970000Y-45270000D02*
X108970000Y-39870000D01*
X107470000Y-45270000D02*
X108970000Y-45270000D01*
X107470000Y-39870000D02*
X107470000Y-45270000D01*
X107720000Y-43070000D02*
X108720000Y-43070000D01*
X108720000Y-42070000D02*
X108220000Y-42970000D01*
X107720000Y-42070000D02*
X108720000Y-42070000D01*
X108220000Y-42970000D02*
X107720000Y-42070000D01*
X110750000Y-43000000D02*
X110250000Y-42100000D01*
X110250000Y-42100000D02*
X111250000Y-42100000D01*
X111250000Y-42100000D02*
X110750000Y-43000000D01*
X110250000Y-43100000D02*
X111250000Y-43100000D01*
X110000000Y-39900000D02*
X110000000Y-45300000D01*
X110000000Y-45300000D02*
X111500000Y-45300000D01*
X111500000Y-45300000D02*
X111500000Y-39900000D01*
X111500000Y-39900000D02*
X110000000Y-39900000D01*
X49480000Y-49410000D02*
X49480000Y-47910000D01*
X44080000Y-49410000D02*
X49480000Y-49410000D01*
X44080000Y-47910000D02*
X44080000Y-49410000D01*
X49480000Y-47910000D02*
X44080000Y-47910000D01*
X46280000Y-48160000D02*
X46280000Y-49160000D01*
X47280000Y-49160000D02*
X46380000Y-48660000D01*
X47280000Y-48160000D02*
X47280000Y-49160000D01*
X46380000Y-48660000D02*
X47280000Y-48160000D01*
X62230000Y-49480000D02*
X62230000Y-47980000D01*
X56830000Y-49480000D02*
X62230000Y-49480000D01*
X56830000Y-47980000D02*
X56830000Y-49480000D01*
X62230000Y-47980000D02*
X56830000Y-47980000D01*
X59030000Y-48230000D02*
X59030000Y-49230000D01*
X60030000Y-49230000D02*
X59130000Y-48730000D01*
X60030000Y-48230000D02*
X60030000Y-49230000D01*
X59130000Y-48730000D02*
X60030000Y-48230000D01*
X37630000Y1360000D02*
X36130000Y1360000D01*
X37630000Y-4040000D02*
X37630000Y1360000D01*
X36130000Y-4040000D02*
X37630000Y-4040000D01*
X36130000Y1360000D02*
X36130000Y-4040000D01*
X36380000Y-1840000D02*
X37380000Y-1840000D01*
X37380000Y-840000D02*
X36880000Y-1740000D01*
X36380000Y-840000D02*
X37380000Y-840000D01*
X36880000Y-1740000D02*
X36380000Y-840000D01*
X55000000Y9280000D02*
X55000000Y8270000D01*
X55000000Y-8520000D02*
X55000000Y-7520000D01*
X54000000Y9280000D02*
X55000000Y9280000D01*
X53950000Y-8520000D02*
X55000000Y-8520000D01*
X21950000Y9280000D02*
X21950000Y8330000D01*
X21950000Y-8520000D02*
X21950000Y-7520000D01*
X21950000Y9280000D02*
X22950000Y9280000D01*
X21950000Y-8520000D02*
X22950000Y-8520000D01*
X19050000Y-3370000D02*
X20350000Y-3370000D01*
X20350000Y-3370000D02*
X20350000Y4130000D01*
X20350000Y4130000D02*
X19050000Y4130000D01*
X19050000Y4130000D02*
X19050000Y-3370000D01*
X19400000Y-120000D02*
X19400000Y880000D01*
X19400000Y880000D02*
X20050000Y380000D01*
X20050000Y380000D02*
X19400000Y-120000D01*
X19550000Y30000D02*
X19550000Y730000D01*
X19700000Y130000D02*
X19700000Y630000D01*
X19850000Y230000D02*
X19850000Y530000D01*
X74150000Y15591924D02*
X71150000Y20788076D01*
X71150000Y20788076D02*
X60757695Y14788076D01*
X60757695Y14788076D02*
X63757695Y9591924D01*
X63757695Y9591924D02*
X74150000Y15591924D01*
X80470000Y-12030000D02*
X78970000Y-12030000D01*
X80470000Y-17430000D02*
X80470000Y-12030000D01*
X78970000Y-17430000D02*
X80470000Y-17430000D01*
X78970000Y-12030000D02*
X78970000Y-17430000D01*
X79220000Y-15230000D02*
X80220000Y-15230000D01*
X80220000Y-14230000D02*
X79720000Y-15130000D01*
X79220000Y-14230000D02*
X80220000Y-14230000D01*
X79720000Y-15130000D02*
X79220000Y-14230000D01*
X61560000Y-11880000D02*
X60060000Y-11880000D01*
X61560000Y-17280000D02*
X61560000Y-11880000D01*
X60060000Y-17280000D02*
X61560000Y-17280000D01*
X60060000Y-11880000D02*
X60060000Y-17280000D01*
X60310000Y-15080000D02*
X61310000Y-15080000D01*
X61310000Y-14080000D02*
X60810000Y-14980000D01*
X60310000Y-14080000D02*
X61310000Y-14080000D01*
X60810000Y-14980000D02*
X60310000Y-14080000D01*
X68036924Y11075544D02*
X68161924Y10859038D01*
X73233076Y14075544D02*
X68036924Y11075544D01*
X73233076Y14075544D02*
X73358076Y13859038D01*
X74983076Y11044456D02*
X74858076Y11260962D01*
X69786924Y8044456D02*
X69661924Y8260962D01*
X74983076Y11044456D02*
X69786924Y8044456D01*
X94650000Y-1700000D02*
X93150000Y-1700000D01*
X94650000Y-7100000D02*
X94650000Y-1700000D01*
X93150000Y-7100000D02*
X94650000Y-7100000D01*
X93150000Y-1700000D02*
X93150000Y-7100000D01*
X93400000Y-4900000D02*
X94400000Y-4900000D01*
X94400000Y-3900000D02*
X93900000Y-4800000D01*
X93400000Y-3900000D02*
X94400000Y-3900000D01*
X93900000Y-4800000D02*
X93400000Y-3900000D01*
X88850000Y-11370000D02*
X88850000Y-9870000D01*
X83450000Y-11370000D02*
X88850000Y-11370000D01*
X83450000Y-9870000D02*
X83450000Y-11370000D01*
X88850000Y-9870000D02*
X83450000Y-9870000D01*
X85650000Y-10120000D02*
X85650000Y-11120000D01*
X86650000Y-11120000D02*
X85750000Y-10620000D01*
X86650000Y-10120000D02*
X86650000Y-11120000D01*
X85750000Y-10620000D02*
X86650000Y-10120000D01*
X104340000Y-10620000D02*
X105240000Y-10120000D01*
X105240000Y-10120000D02*
X105240000Y-11120000D01*
X105240000Y-11120000D02*
X104340000Y-10620000D01*
X104240000Y-10120000D02*
X104240000Y-11120000D01*
X107440000Y-9870000D02*
X102040000Y-9870000D01*
X102040000Y-9870000D02*
X102040000Y-11370000D01*
X102040000Y-11370000D02*
X107440000Y-11370000D01*
X107440000Y-11370000D02*
X107440000Y-9870000D01*
X70910000Y-39680000D02*
X69410000Y-39680000D01*
X70910000Y-45080000D02*
X70910000Y-39680000D01*
X69410000Y-45080000D02*
X70910000Y-45080000D01*
X69410000Y-39680000D02*
X69410000Y-45080000D01*
X69660000Y-42880000D02*
X70660000Y-42880000D01*
X70660000Y-41880000D02*
X70160000Y-42780000D01*
X69660000Y-41880000D02*
X70660000Y-41880000D01*
X70160000Y-42780000D02*
X69660000Y-41880000D01*
X58950000Y-1810000D02*
X57450000Y-1810000D01*
X58950000Y-7210000D02*
X58950000Y-1810000D01*
X57450000Y-7210000D02*
X58950000Y-7210000D01*
X57450000Y-1810000D02*
X57450000Y-7210000D01*
X57700000Y-5010000D02*
X58700000Y-5010000D01*
X58700000Y-4010000D02*
X58200000Y-4910000D01*
X57700000Y-4010000D02*
X58700000Y-4010000D01*
X58200000Y-4910000D02*
X57700000Y-4010000D01*
X75790000Y-1670000D02*
X74290000Y-1670000D01*
X75790000Y-7070000D02*
X75790000Y-1670000D01*
X74290000Y-7070000D02*
X75790000Y-7070000D01*
X74290000Y-1670000D02*
X74290000Y-7070000D01*
X74540000Y-4870000D02*
X75540000Y-4870000D01*
X75540000Y-3870000D02*
X75040000Y-4770000D01*
X74540000Y-3870000D02*
X75540000Y-3870000D01*
X75040000Y-4770000D02*
X74540000Y-3870000D01*
X97230000Y-1610000D02*
X95730000Y-1610000D01*
X97230000Y-7010000D02*
X97230000Y-1610000D01*
X95730000Y-7010000D02*
X97230000Y-7010000D01*
X95730000Y-1610000D02*
X95730000Y-7010000D01*
X95980000Y-4810000D02*
X96980000Y-4810000D01*
X96980000Y-3810000D02*
X96480000Y-4710000D01*
X95980000Y-3810000D02*
X96980000Y-3810000D01*
X96480000Y-4710000D02*
X95980000Y-3810000D01*
X31500285Y-14234761D02*
X31405047Y-14282380D01*
X31214571Y-14282380D01*
X31119333Y-14234761D01*
X31071714Y-14139523D01*
X31071714Y-14091904D01*
X31119333Y-13996666D01*
X31214571Y-13949047D01*
X31357428Y-13949047D01*
X31452666Y-13901428D01*
X31500285Y-13806190D01*
X31500285Y-13758571D01*
X31452666Y-13663333D01*
X31357428Y-13615714D01*
X31214571Y-13615714D01*
X31119333Y-13663333D01*
X30500285Y-14282380D02*
X30595523Y-14234761D01*
X30643142Y-14187142D01*
X30690761Y-14091904D01*
X30690761Y-13806190D01*
X30643142Y-13710952D01*
X30595523Y-13663333D01*
X30500285Y-13615714D01*
X30357428Y-13615714D01*
X30262190Y-13663333D01*
X30214571Y-13710952D01*
X30166952Y-13806190D01*
X30166952Y-14091904D01*
X30214571Y-14187142D01*
X30262190Y-14234761D01*
X30357428Y-14282380D01*
X30500285Y-14282380D01*
X29309809Y-14234761D02*
X29405047Y-14282380D01*
X29595523Y-14282380D01*
X29690761Y-14234761D01*
X29738380Y-14187142D01*
X29786000Y-14091904D01*
X29786000Y-13806190D01*
X29738380Y-13710952D01*
X29690761Y-13663333D01*
X29595523Y-13615714D01*
X29405047Y-13615714D01*
X29309809Y-13663333D01*
X28881238Y-14282380D02*
X28881238Y-13282380D01*
X28786000Y-13901428D02*
X28500285Y-14282380D01*
X28500285Y-13615714D02*
X28881238Y-13996666D01*
X27690761Y-14234761D02*
X27786000Y-14282380D01*
X27976476Y-14282380D01*
X28071714Y-14234761D01*
X28119333Y-14139523D01*
X28119333Y-13758571D01*
X28071714Y-13663333D01*
X27976476Y-13615714D01*
X27786000Y-13615714D01*
X27690761Y-13663333D01*
X27643142Y-13758571D01*
X27643142Y-13853809D01*
X28119333Y-13949047D01*
X27357428Y-13615714D02*
X26976476Y-13615714D01*
X27214571Y-13282380D02*
X27214571Y-14139523D01*
X27166952Y-14234761D01*
X27071714Y-14282380D01*
X26976476Y-14282380D01*
X36263285Y-33284761D02*
X36168047Y-33332380D01*
X35977571Y-33332380D01*
X35882333Y-33284761D01*
X35834714Y-33189523D01*
X35834714Y-33141904D01*
X35882333Y-33046666D01*
X35977571Y-32999047D01*
X36120428Y-32999047D01*
X36215666Y-32951428D01*
X36263285Y-32856190D01*
X36263285Y-32808571D01*
X36215666Y-32713333D01*
X36120428Y-32665714D01*
X35977571Y-32665714D01*
X35882333Y-32713333D01*
X35263285Y-33332380D02*
X35358523Y-33284761D01*
X35406142Y-33237142D01*
X35453761Y-33141904D01*
X35453761Y-32856190D01*
X35406142Y-32760952D01*
X35358523Y-32713333D01*
X35263285Y-32665714D01*
X35120428Y-32665714D01*
X35025190Y-32713333D01*
X34977571Y-32760952D01*
X34929952Y-32856190D01*
X34929952Y-33141904D01*
X34977571Y-33237142D01*
X35025190Y-33284761D01*
X35120428Y-33332380D01*
X35263285Y-33332380D01*
X34072809Y-33284761D02*
X34168047Y-33332380D01*
X34358523Y-33332380D01*
X34453761Y-33284761D01*
X34501380Y-33237142D01*
X34549000Y-33141904D01*
X34549000Y-32856190D01*
X34501380Y-32760952D01*
X34453761Y-32713333D01*
X34358523Y-32665714D01*
X34168047Y-32665714D01*
X34072809Y-32713333D01*
X33644238Y-33332380D02*
X33644238Y-32332380D01*
X33549000Y-32951428D02*
X33263285Y-33332380D01*
X33263285Y-32665714D02*
X33644238Y-33046666D01*
X32453761Y-33284761D02*
X32549000Y-33332380D01*
X32739476Y-33332380D01*
X32834714Y-33284761D01*
X32882333Y-33189523D01*
X32882333Y-32808571D01*
X32834714Y-32713333D01*
X32739476Y-32665714D01*
X32549000Y-32665714D01*
X32453761Y-32713333D01*
X32406142Y-32808571D01*
X32406142Y-32903809D01*
X32882333Y-32999047D01*
X32120428Y-32665714D02*
X31739476Y-32665714D01*
X31977571Y-32332380D02*
X31977571Y-33189523D01*
X31929952Y-33284761D01*
X31834714Y-33332380D01*
X31739476Y-33332380D01*
X110081785Y-14234761D02*
X109986547Y-14282380D01*
X109796071Y-14282380D01*
X109700833Y-14234761D01*
X109653214Y-14139523D01*
X109653214Y-14091904D01*
X109700833Y-13996666D01*
X109796071Y-13949047D01*
X109938928Y-13949047D01*
X110034166Y-13901428D01*
X110081785Y-13806190D01*
X110081785Y-13758571D01*
X110034166Y-13663333D01*
X109938928Y-13615714D01*
X109796071Y-13615714D01*
X109700833Y-13663333D01*
X109081785Y-14282380D02*
X109177023Y-14234761D01*
X109224642Y-14187142D01*
X109272261Y-14091904D01*
X109272261Y-13806190D01*
X109224642Y-13710952D01*
X109177023Y-13663333D01*
X109081785Y-13615714D01*
X108938928Y-13615714D01*
X108843690Y-13663333D01*
X108796071Y-13710952D01*
X108748452Y-13806190D01*
X108748452Y-14091904D01*
X108796071Y-14187142D01*
X108843690Y-14234761D01*
X108938928Y-14282380D01*
X109081785Y-14282380D01*
X107891309Y-14234761D02*
X107986547Y-14282380D01*
X108177023Y-14282380D01*
X108272261Y-14234761D01*
X108319880Y-14187142D01*
X108367500Y-14091904D01*
X108367500Y-13806190D01*
X108319880Y-13710952D01*
X108272261Y-13663333D01*
X108177023Y-13615714D01*
X107986547Y-13615714D01*
X107891309Y-13663333D01*
X107462738Y-14282380D02*
X107462738Y-13282380D01*
X107367500Y-13901428D02*
X107081785Y-14282380D01*
X107081785Y-13615714D02*
X107462738Y-13996666D01*
X106272261Y-14234761D02*
X106367500Y-14282380D01*
X106557976Y-14282380D01*
X106653214Y-14234761D01*
X106700833Y-14139523D01*
X106700833Y-13758571D01*
X106653214Y-13663333D01*
X106557976Y-13615714D01*
X106367500Y-13615714D01*
X106272261Y-13663333D01*
X106224642Y-13758571D01*
X106224642Y-13853809D01*
X106700833Y-13949047D01*
X105938928Y-13615714D02*
X105557976Y-13615714D01*
X105796071Y-13282380D02*
X105796071Y-14139523D01*
X105748452Y-14234761D01*
X105653214Y-14282380D01*
X105557976Y-14282380D01*
X107700785Y-52334761D02*
X107605547Y-52382380D01*
X107415071Y-52382380D01*
X107319833Y-52334761D01*
X107272214Y-52239523D01*
X107272214Y-52191904D01*
X107319833Y-52096666D01*
X107415071Y-52049047D01*
X107557928Y-52049047D01*
X107653166Y-52001428D01*
X107700785Y-51906190D01*
X107700785Y-51858571D01*
X107653166Y-51763333D01*
X107557928Y-51715714D01*
X107415071Y-51715714D01*
X107319833Y-51763333D01*
X106700785Y-52382380D02*
X106796023Y-52334761D01*
X106843642Y-52287142D01*
X106891261Y-52191904D01*
X106891261Y-51906190D01*
X106843642Y-51810952D01*
X106796023Y-51763333D01*
X106700785Y-51715714D01*
X106557928Y-51715714D01*
X106462690Y-51763333D01*
X106415071Y-51810952D01*
X106367452Y-51906190D01*
X106367452Y-52191904D01*
X106415071Y-52287142D01*
X106462690Y-52334761D01*
X106557928Y-52382380D01*
X106700785Y-52382380D01*
X105510309Y-52334761D02*
X105605547Y-52382380D01*
X105796023Y-52382380D01*
X105891261Y-52334761D01*
X105938880Y-52287142D01*
X105986500Y-52191904D01*
X105986500Y-51906190D01*
X105938880Y-51810952D01*
X105891261Y-51763333D01*
X105796023Y-51715714D01*
X105605547Y-51715714D01*
X105510309Y-51763333D01*
X105081738Y-52382380D02*
X105081738Y-51382380D01*
X104986500Y-52001428D02*
X104700785Y-52382380D01*
X104700785Y-51715714D02*
X105081738Y-52096666D01*
X103891261Y-52334761D02*
X103986500Y-52382380D01*
X104176976Y-52382380D01*
X104272214Y-52334761D01*
X104319833Y-52239523D01*
X104319833Y-51858571D01*
X104272214Y-51763333D01*
X104176976Y-51715714D01*
X103986500Y-51715714D01*
X103891261Y-51763333D01*
X103843642Y-51858571D01*
X103843642Y-51953809D01*
X104319833Y-52049047D01*
X103557928Y-51715714D02*
X103176976Y-51715714D01*
X103415071Y-51382380D02*
X103415071Y-52239523D01*
X103367452Y-52334761D01*
X103272214Y-52382380D01*
X103176976Y-52382380D01*
X62456785Y-52334761D02*
X62361547Y-52382380D01*
X62171071Y-52382380D01*
X62075833Y-52334761D01*
X62028214Y-52239523D01*
X62028214Y-52191904D01*
X62075833Y-52096666D01*
X62171071Y-52049047D01*
X62313928Y-52049047D01*
X62409166Y-52001428D01*
X62456785Y-51906190D01*
X62456785Y-51858571D01*
X62409166Y-51763333D01*
X62313928Y-51715714D01*
X62171071Y-51715714D01*
X62075833Y-51763333D01*
X61456785Y-52382380D02*
X61552023Y-52334761D01*
X61599642Y-52287142D01*
X61647261Y-52191904D01*
X61647261Y-51906190D01*
X61599642Y-51810952D01*
X61552023Y-51763333D01*
X61456785Y-51715714D01*
X61313928Y-51715714D01*
X61218690Y-51763333D01*
X61171071Y-51810952D01*
X61123452Y-51906190D01*
X61123452Y-52191904D01*
X61171071Y-52287142D01*
X61218690Y-52334761D01*
X61313928Y-52382380D01*
X61456785Y-52382380D01*
X60266309Y-52334761D02*
X60361547Y-52382380D01*
X60552023Y-52382380D01*
X60647261Y-52334761D01*
X60694880Y-52287142D01*
X60742500Y-52191904D01*
X60742500Y-51906190D01*
X60694880Y-51810952D01*
X60647261Y-51763333D01*
X60552023Y-51715714D01*
X60361547Y-51715714D01*
X60266309Y-51763333D01*
X59837738Y-52382380D02*
X59837738Y-51382380D01*
X59742500Y-52001428D02*
X59456785Y-52382380D01*
X59456785Y-51715714D02*
X59837738Y-52096666D01*
X58647261Y-52334761D02*
X58742500Y-52382380D01*
X58932976Y-52382380D01*
X59028214Y-52334761D01*
X59075833Y-52239523D01*
X59075833Y-51858571D01*
X59028214Y-51763333D01*
X58932976Y-51715714D01*
X58742500Y-51715714D01*
X58647261Y-51763333D01*
X58599642Y-51858571D01*
X58599642Y-51953809D01*
X59075833Y-52049047D01*
X58313928Y-51715714D02*
X57932976Y-51715714D01*
X58171071Y-51382380D02*
X58171071Y-52239523D01*
X58123452Y-52334761D01*
X58028214Y-52382380D01*
X57932976Y-52382380D01*
X71981785Y-14234761D02*
X71886547Y-14282380D01*
X71696071Y-14282380D01*
X71600833Y-14234761D01*
X71553214Y-14139523D01*
X71553214Y-14091904D01*
X71600833Y-13996666D01*
X71696071Y-13949047D01*
X71838928Y-13949047D01*
X71934166Y-13901428D01*
X71981785Y-13806190D01*
X71981785Y-13758571D01*
X71934166Y-13663333D01*
X71838928Y-13615714D01*
X71696071Y-13615714D01*
X71600833Y-13663333D01*
X70981785Y-14282380D02*
X71077023Y-14234761D01*
X71124642Y-14187142D01*
X71172261Y-14091904D01*
X71172261Y-13806190D01*
X71124642Y-13710952D01*
X71077023Y-13663333D01*
X70981785Y-13615714D01*
X70838928Y-13615714D01*
X70743690Y-13663333D01*
X70696071Y-13710952D01*
X70648452Y-13806190D01*
X70648452Y-14091904D01*
X70696071Y-14187142D01*
X70743690Y-14234761D01*
X70838928Y-14282380D01*
X70981785Y-14282380D01*
X69791309Y-14234761D02*
X69886547Y-14282380D01*
X70077023Y-14282380D01*
X70172261Y-14234761D01*
X70219880Y-14187142D01*
X70267500Y-14091904D01*
X70267500Y-13806190D01*
X70219880Y-13710952D01*
X70172261Y-13663333D01*
X70077023Y-13615714D01*
X69886547Y-13615714D01*
X69791309Y-13663333D01*
X69362738Y-14282380D02*
X69362738Y-13282380D01*
X69267500Y-13901428D02*
X68981785Y-14282380D01*
X68981785Y-13615714D02*
X69362738Y-13996666D01*
X68172261Y-14234761D02*
X68267500Y-14282380D01*
X68457976Y-14282380D01*
X68553214Y-14234761D01*
X68600833Y-14139523D01*
X68600833Y-13758571D01*
X68553214Y-13663333D01*
X68457976Y-13615714D01*
X68267500Y-13615714D01*
X68172261Y-13663333D01*
X68124642Y-13758571D01*
X68124642Y-13853809D01*
X68600833Y-13949047D01*
X67838928Y-13615714D02*
X67457976Y-13615714D01*
X67696071Y-13282380D02*
X67696071Y-14139523D01*
X67648452Y-14234761D01*
X67553214Y-14282380D01*
X67457976Y-14282380D01*
X91031785Y-14234761D02*
X90936547Y-14282380D01*
X90746071Y-14282380D01*
X90650833Y-14234761D01*
X90603214Y-14139523D01*
X90603214Y-14091904D01*
X90650833Y-13996666D01*
X90746071Y-13949047D01*
X90888928Y-13949047D01*
X90984166Y-13901428D01*
X91031785Y-13806190D01*
X91031785Y-13758571D01*
X90984166Y-13663333D01*
X90888928Y-13615714D01*
X90746071Y-13615714D01*
X90650833Y-13663333D01*
X90031785Y-14282380D02*
X90127023Y-14234761D01*
X90174642Y-14187142D01*
X90222261Y-14091904D01*
X90222261Y-13806190D01*
X90174642Y-13710952D01*
X90127023Y-13663333D01*
X90031785Y-13615714D01*
X89888928Y-13615714D01*
X89793690Y-13663333D01*
X89746071Y-13710952D01*
X89698452Y-13806190D01*
X89698452Y-14091904D01*
X89746071Y-14187142D01*
X89793690Y-14234761D01*
X89888928Y-14282380D01*
X90031785Y-14282380D01*
X88841309Y-14234761D02*
X88936547Y-14282380D01*
X89127023Y-14282380D01*
X89222261Y-14234761D01*
X89269880Y-14187142D01*
X89317500Y-14091904D01*
X89317500Y-13806190D01*
X89269880Y-13710952D01*
X89222261Y-13663333D01*
X89127023Y-13615714D01*
X88936547Y-13615714D01*
X88841309Y-13663333D01*
X88412738Y-14282380D02*
X88412738Y-13282380D01*
X88317500Y-13901428D02*
X88031785Y-14282380D01*
X88031785Y-13615714D02*
X88412738Y-13996666D01*
X87222261Y-14234761D02*
X87317500Y-14282380D01*
X87507976Y-14282380D01*
X87603214Y-14234761D01*
X87650833Y-14139523D01*
X87650833Y-13758571D01*
X87603214Y-13663333D01*
X87507976Y-13615714D01*
X87317500Y-13615714D01*
X87222261Y-13663333D01*
X87174642Y-13758571D01*
X87174642Y-13853809D01*
X87650833Y-13949047D01*
X86888928Y-13615714D02*
X86507976Y-13615714D01*
X86746071Y-13282380D02*
X86746071Y-14139523D01*
X86698452Y-14234761D01*
X86603214Y-14282380D01*
X86507976Y-14282380D01*
X43406785Y-52334761D02*
X43311547Y-52382380D01*
X43121071Y-52382380D01*
X43025833Y-52334761D01*
X42978214Y-52239523D01*
X42978214Y-52191904D01*
X43025833Y-52096666D01*
X43121071Y-52049047D01*
X43263928Y-52049047D01*
X43359166Y-52001428D01*
X43406785Y-51906190D01*
X43406785Y-51858571D01*
X43359166Y-51763333D01*
X43263928Y-51715714D01*
X43121071Y-51715714D01*
X43025833Y-51763333D01*
X42406785Y-52382380D02*
X42502023Y-52334761D01*
X42549642Y-52287142D01*
X42597261Y-52191904D01*
X42597261Y-51906190D01*
X42549642Y-51810952D01*
X42502023Y-51763333D01*
X42406785Y-51715714D01*
X42263928Y-51715714D01*
X42168690Y-51763333D01*
X42121071Y-51810952D01*
X42073452Y-51906190D01*
X42073452Y-52191904D01*
X42121071Y-52287142D01*
X42168690Y-52334761D01*
X42263928Y-52382380D01*
X42406785Y-52382380D01*
X41216309Y-52334761D02*
X41311547Y-52382380D01*
X41502023Y-52382380D01*
X41597261Y-52334761D01*
X41644880Y-52287142D01*
X41692500Y-52191904D01*
X41692500Y-51906190D01*
X41644880Y-51810952D01*
X41597261Y-51763333D01*
X41502023Y-51715714D01*
X41311547Y-51715714D01*
X41216309Y-51763333D01*
X40787738Y-52382380D02*
X40787738Y-51382380D01*
X40692500Y-52001428D02*
X40406785Y-52382380D01*
X40406785Y-51715714D02*
X40787738Y-52096666D01*
X39597261Y-52334761D02*
X39692500Y-52382380D01*
X39882976Y-52382380D01*
X39978214Y-52334761D01*
X40025833Y-52239523D01*
X40025833Y-51858571D01*
X39978214Y-51763333D01*
X39882976Y-51715714D01*
X39692500Y-51715714D01*
X39597261Y-51763333D01*
X39549642Y-51858571D01*
X39549642Y-51953809D01*
X40025833Y-52049047D01*
X39263928Y-51715714D02*
X38882976Y-51715714D01*
X39121071Y-51382380D02*
X39121071Y-52239523D01*
X39073452Y-52334761D01*
X38978214Y-52382380D01*
X38882976Y-52382380D01*
X119606785Y-33284761D02*
X119511547Y-33332380D01*
X119321071Y-33332380D01*
X119225833Y-33284761D01*
X119178214Y-33189523D01*
X119178214Y-33141904D01*
X119225833Y-33046666D01*
X119321071Y-32999047D01*
X119463928Y-32999047D01*
X119559166Y-32951428D01*
X119606785Y-32856190D01*
X119606785Y-32808571D01*
X119559166Y-32713333D01*
X119463928Y-32665714D01*
X119321071Y-32665714D01*
X119225833Y-32713333D01*
X118606785Y-33332380D02*
X118702023Y-33284761D01*
X118749642Y-33237142D01*
X118797261Y-33141904D01*
X118797261Y-32856190D01*
X118749642Y-32760952D01*
X118702023Y-32713333D01*
X118606785Y-32665714D01*
X118463928Y-32665714D01*
X118368690Y-32713333D01*
X118321071Y-32760952D01*
X118273452Y-32856190D01*
X118273452Y-33141904D01*
X118321071Y-33237142D01*
X118368690Y-33284761D01*
X118463928Y-33332380D01*
X118606785Y-33332380D01*
X117416309Y-33284761D02*
X117511547Y-33332380D01*
X117702023Y-33332380D01*
X117797261Y-33284761D01*
X117844880Y-33237142D01*
X117892500Y-33141904D01*
X117892500Y-32856190D01*
X117844880Y-32760952D01*
X117797261Y-32713333D01*
X117702023Y-32665714D01*
X117511547Y-32665714D01*
X117416309Y-32713333D01*
X116987738Y-33332380D02*
X116987738Y-32332380D01*
X116892500Y-32951428D02*
X116606785Y-33332380D01*
X116606785Y-32665714D02*
X116987738Y-33046666D01*
X115797261Y-33284761D02*
X115892500Y-33332380D01*
X116082976Y-33332380D01*
X116178214Y-33284761D01*
X116225833Y-33189523D01*
X116225833Y-32808571D01*
X116178214Y-32713333D01*
X116082976Y-32665714D01*
X115892500Y-32665714D01*
X115797261Y-32713333D01*
X115749642Y-32808571D01*
X115749642Y-32903809D01*
X116225833Y-32999047D01*
X115463928Y-32665714D02*
X115082976Y-32665714D01*
X115321071Y-32332380D02*
X115321071Y-33189523D01*
X115273452Y-33284761D01*
X115178214Y-33332380D01*
X115082976Y-33332380D01*
X62456785Y-33284761D02*
X62361547Y-33332380D01*
X62171071Y-33332380D01*
X62075833Y-33284761D01*
X62028214Y-33189523D01*
X62028214Y-33141904D01*
X62075833Y-33046666D01*
X62171071Y-32999047D01*
X62313928Y-32999047D01*
X62409166Y-32951428D01*
X62456785Y-32856190D01*
X62456785Y-32808571D01*
X62409166Y-32713333D01*
X62313928Y-32665714D01*
X62171071Y-32665714D01*
X62075833Y-32713333D01*
X61456785Y-33332380D02*
X61552023Y-33284761D01*
X61599642Y-33237142D01*
X61647261Y-33141904D01*
X61647261Y-32856190D01*
X61599642Y-32760952D01*
X61552023Y-32713333D01*
X61456785Y-32665714D01*
X61313928Y-32665714D01*
X61218690Y-32713333D01*
X61171071Y-32760952D01*
X61123452Y-32856190D01*
X61123452Y-33141904D01*
X61171071Y-33237142D01*
X61218690Y-33284761D01*
X61313928Y-33332380D01*
X61456785Y-33332380D01*
X60266309Y-33284761D02*
X60361547Y-33332380D01*
X60552023Y-33332380D01*
X60647261Y-33284761D01*
X60694880Y-33237142D01*
X60742500Y-33141904D01*
X60742500Y-32856190D01*
X60694880Y-32760952D01*
X60647261Y-32713333D01*
X60552023Y-32665714D01*
X60361547Y-32665714D01*
X60266309Y-32713333D01*
X59837738Y-33332380D02*
X59837738Y-32332380D01*
X59742500Y-32951428D02*
X59456785Y-33332380D01*
X59456785Y-32665714D02*
X59837738Y-33046666D01*
X58647261Y-33284761D02*
X58742500Y-33332380D01*
X58932976Y-33332380D01*
X59028214Y-33284761D01*
X59075833Y-33189523D01*
X59075833Y-32808571D01*
X59028214Y-32713333D01*
X58932976Y-32665714D01*
X58742500Y-32665714D01*
X58647261Y-32713333D01*
X58599642Y-32808571D01*
X58599642Y-32903809D01*
X59075833Y-32999047D01*
X58313928Y-32665714D02*
X57932976Y-32665714D01*
X58171071Y-32332380D02*
X58171071Y-33189523D01*
X58123452Y-33284761D01*
X58028214Y-33332380D01*
X57932976Y-33332380D01*
X81506785Y-52334761D02*
X81411547Y-52382380D01*
X81221071Y-52382380D01*
X81125833Y-52334761D01*
X81078214Y-52239523D01*
X81078214Y-52191904D01*
X81125833Y-52096666D01*
X81221071Y-52049047D01*
X81363928Y-52049047D01*
X81459166Y-52001428D01*
X81506785Y-51906190D01*
X81506785Y-51858571D01*
X81459166Y-51763333D01*
X81363928Y-51715714D01*
X81221071Y-51715714D01*
X81125833Y-51763333D01*
X80506785Y-52382380D02*
X80602023Y-52334761D01*
X80649642Y-52287142D01*
X80697261Y-52191904D01*
X80697261Y-51906190D01*
X80649642Y-51810952D01*
X80602023Y-51763333D01*
X80506785Y-51715714D01*
X80363928Y-51715714D01*
X80268690Y-51763333D01*
X80221071Y-51810952D01*
X80173452Y-51906190D01*
X80173452Y-52191904D01*
X80221071Y-52287142D01*
X80268690Y-52334761D01*
X80363928Y-52382380D01*
X80506785Y-52382380D01*
X79316309Y-52334761D02*
X79411547Y-52382380D01*
X79602023Y-52382380D01*
X79697261Y-52334761D01*
X79744880Y-52287142D01*
X79792500Y-52191904D01*
X79792500Y-51906190D01*
X79744880Y-51810952D01*
X79697261Y-51763333D01*
X79602023Y-51715714D01*
X79411547Y-51715714D01*
X79316309Y-51763333D01*
X78887738Y-52382380D02*
X78887738Y-51382380D01*
X78792500Y-52001428D02*
X78506785Y-52382380D01*
X78506785Y-51715714D02*
X78887738Y-52096666D01*
X77697261Y-52334761D02*
X77792500Y-52382380D01*
X77982976Y-52382380D01*
X78078214Y-52334761D01*
X78125833Y-52239523D01*
X78125833Y-51858571D01*
X78078214Y-51763333D01*
X77982976Y-51715714D01*
X77792500Y-51715714D01*
X77697261Y-51763333D01*
X77649642Y-51858571D01*
X77649642Y-51953809D01*
X78125833Y-52049047D01*
X77363928Y-51715714D02*
X76982976Y-51715714D01*
X77221071Y-51382380D02*
X77221071Y-52239523D01*
X77173452Y-52334761D01*
X77078214Y-52382380D01*
X76982976Y-52382380D01*
X81506785Y-33284761D02*
X81411547Y-33332380D01*
X81221071Y-33332380D01*
X81125833Y-33284761D01*
X81078214Y-33189523D01*
X81078214Y-33141904D01*
X81125833Y-33046666D01*
X81221071Y-32999047D01*
X81363928Y-32999047D01*
X81459166Y-32951428D01*
X81506785Y-32856190D01*
X81506785Y-32808571D01*
X81459166Y-32713333D01*
X81363928Y-32665714D01*
X81221071Y-32665714D01*
X81125833Y-32713333D01*
X80506785Y-33332380D02*
X80602023Y-33284761D01*
X80649642Y-33237142D01*
X80697261Y-33141904D01*
X80697261Y-32856190D01*
X80649642Y-32760952D01*
X80602023Y-32713333D01*
X80506785Y-32665714D01*
X80363928Y-32665714D01*
X80268690Y-32713333D01*
X80221071Y-32760952D01*
X80173452Y-32856190D01*
X80173452Y-33141904D01*
X80221071Y-33237142D01*
X80268690Y-33284761D01*
X80363928Y-33332380D01*
X80506785Y-33332380D01*
X79316309Y-33284761D02*
X79411547Y-33332380D01*
X79602023Y-33332380D01*
X79697261Y-33284761D01*
X79744880Y-33237142D01*
X79792500Y-33141904D01*
X79792500Y-32856190D01*
X79744880Y-32760952D01*
X79697261Y-32713333D01*
X79602023Y-32665714D01*
X79411547Y-32665714D01*
X79316309Y-32713333D01*
X78887738Y-33332380D02*
X78887738Y-32332380D01*
X78792500Y-32951428D02*
X78506785Y-33332380D01*
X78506785Y-32665714D02*
X78887738Y-33046666D01*
X77697261Y-33284761D02*
X77792500Y-33332380D01*
X77982976Y-33332380D01*
X78078214Y-33284761D01*
X78125833Y-33189523D01*
X78125833Y-32808571D01*
X78078214Y-32713333D01*
X77982976Y-32665714D01*
X77792500Y-32665714D01*
X77697261Y-32713333D01*
X77649642Y-32808571D01*
X77649642Y-32903809D01*
X78125833Y-32999047D01*
X77363928Y-32665714D02*
X76982976Y-32665714D01*
X77221071Y-32332380D02*
X77221071Y-33189523D01*
X77173452Y-33284761D01*
X77078214Y-33332380D01*
X76982976Y-33332380D01*
X100556785Y-33284761D02*
X100461547Y-33332380D01*
X100271071Y-33332380D01*
X100175833Y-33284761D01*
X100128214Y-33189523D01*
X100128214Y-33141904D01*
X100175833Y-33046666D01*
X100271071Y-32999047D01*
X100413928Y-32999047D01*
X100509166Y-32951428D01*
X100556785Y-32856190D01*
X100556785Y-32808571D01*
X100509166Y-32713333D01*
X100413928Y-32665714D01*
X100271071Y-32665714D01*
X100175833Y-32713333D01*
X99556785Y-33332380D02*
X99652023Y-33284761D01*
X99699642Y-33237142D01*
X99747261Y-33141904D01*
X99747261Y-32856190D01*
X99699642Y-32760952D01*
X99652023Y-32713333D01*
X99556785Y-32665714D01*
X99413928Y-32665714D01*
X99318690Y-32713333D01*
X99271071Y-32760952D01*
X99223452Y-32856190D01*
X99223452Y-33141904D01*
X99271071Y-33237142D01*
X99318690Y-33284761D01*
X99413928Y-33332380D01*
X99556785Y-33332380D01*
X98366309Y-33284761D02*
X98461547Y-33332380D01*
X98652023Y-33332380D01*
X98747261Y-33284761D01*
X98794880Y-33237142D01*
X98842500Y-33141904D01*
X98842500Y-32856190D01*
X98794880Y-32760952D01*
X98747261Y-32713333D01*
X98652023Y-32665714D01*
X98461547Y-32665714D01*
X98366309Y-32713333D01*
X97937738Y-33332380D02*
X97937738Y-32332380D01*
X97842500Y-32951428D02*
X97556785Y-33332380D01*
X97556785Y-32665714D02*
X97937738Y-33046666D01*
X96747261Y-33284761D02*
X96842500Y-33332380D01*
X97032976Y-33332380D01*
X97128214Y-33284761D01*
X97175833Y-33189523D01*
X97175833Y-32808571D01*
X97128214Y-32713333D01*
X97032976Y-32665714D01*
X96842500Y-32665714D01*
X96747261Y-32713333D01*
X96699642Y-32808571D01*
X96699642Y-32903809D01*
X97175833Y-32999047D01*
X96413928Y-32665714D02*
X96032976Y-32665714D01*
X96271071Y-32332380D02*
X96271071Y-33189523D01*
X96223452Y-33284761D01*
X96128214Y-33332380D01*
X96032976Y-33332380D01*
X48169285Y4815238D02*
X48074047Y4767619D01*
X47883571Y4767619D01*
X47788333Y4815238D01*
X47740714Y4910476D01*
X47740714Y4958095D01*
X47788333Y5053333D01*
X47883571Y5100952D01*
X48026428Y5100952D01*
X48121666Y5148571D01*
X48169285Y5243809D01*
X48169285Y5291428D01*
X48121666Y5386666D01*
X48026428Y5434285D01*
X47883571Y5434285D01*
X47788333Y5386666D01*
X47169285Y4767619D02*
X47264523Y4815238D01*
X47312142Y4862857D01*
X47359761Y4958095D01*
X47359761Y5243809D01*
X47312142Y5339047D01*
X47264523Y5386666D01*
X47169285Y5434285D01*
X47026428Y5434285D01*
X46931190Y5386666D01*
X46883571Y5339047D01*
X46835952Y5243809D01*
X46835952Y4958095D01*
X46883571Y4862857D01*
X46931190Y4815238D01*
X47026428Y4767619D01*
X47169285Y4767619D01*
X45978809Y4815238D02*
X46074047Y4767619D01*
X46264523Y4767619D01*
X46359761Y4815238D01*
X46407380Y4862857D01*
X46455000Y4958095D01*
X46455000Y5243809D01*
X46407380Y5339047D01*
X46359761Y5386666D01*
X46264523Y5434285D01*
X46074047Y5434285D01*
X45978809Y5386666D01*
X45550238Y4767619D02*
X45550238Y5767619D01*
X45455000Y5148571D02*
X45169285Y4767619D01*
X45169285Y5434285D02*
X45550238Y5053333D01*
X44359761Y4815238D02*
X44455000Y4767619D01*
X44645476Y4767619D01*
X44740714Y4815238D01*
X44788333Y4910476D01*
X44788333Y5291428D01*
X44740714Y5386666D01*
X44645476Y5434285D01*
X44455000Y5434285D01*
X44359761Y5386666D01*
X44312142Y5291428D01*
X44312142Y5196190D01*
X44788333Y5100952D01*
X44026428Y5434285D02*
X43645476Y5434285D01*
X43883571Y5767619D02*
X43883571Y4910476D01*
X43835952Y4815238D01*
X43740714Y4767619D01*
X43645476Y4767619D01*
X67219285Y4815238D02*
X67124047Y4767619D01*
X66933571Y4767619D01*
X66838333Y4815238D01*
X66790714Y4910476D01*
X66790714Y4958095D01*
X66838333Y5053333D01*
X66933571Y5100952D01*
X67076428Y5100952D01*
X67171666Y5148571D01*
X67219285Y5243809D01*
X67219285Y5291428D01*
X67171666Y5386666D01*
X67076428Y5434285D01*
X66933571Y5434285D01*
X66838333Y5386666D01*
X66219285Y4767619D02*
X66314523Y4815238D01*
X66362142Y4862857D01*
X66409761Y4958095D01*
X66409761Y5243809D01*
X66362142Y5339047D01*
X66314523Y5386666D01*
X66219285Y5434285D01*
X66076428Y5434285D01*
X65981190Y5386666D01*
X65933571Y5339047D01*
X65885952Y5243809D01*
X65885952Y4958095D01*
X65933571Y4862857D01*
X65981190Y4815238D01*
X66076428Y4767619D01*
X66219285Y4767619D01*
X65028809Y4815238D02*
X65124047Y4767619D01*
X65314523Y4767619D01*
X65409761Y4815238D01*
X65457380Y4862857D01*
X65505000Y4958095D01*
X65505000Y5243809D01*
X65457380Y5339047D01*
X65409761Y5386666D01*
X65314523Y5434285D01*
X65124047Y5434285D01*
X65028809Y5386666D01*
X64600238Y4767619D02*
X64600238Y5767619D01*
X64505000Y5148571D02*
X64219285Y4767619D01*
X64219285Y5434285D02*
X64600238Y5053333D01*
X63409761Y4815238D02*
X63505000Y4767619D01*
X63695476Y4767619D01*
X63790714Y4815238D01*
X63838333Y4910476D01*
X63838333Y5291428D01*
X63790714Y5386666D01*
X63695476Y5434285D01*
X63505000Y5434285D01*
X63409761Y5386666D01*
X63362142Y5291428D01*
X63362142Y5196190D01*
X63838333Y5100952D01*
X63076428Y5434285D02*
X62695476Y5434285D01*
X62933571Y5767619D02*
X62933571Y4910476D01*
X62885952Y4815238D01*
X62790714Y4767619D01*
X62695476Y4767619D01*
X86269285Y4815238D02*
X86174047Y4767619D01*
X85983571Y4767619D01*
X85888333Y4815238D01*
X85840714Y4910476D01*
X85840714Y4958095D01*
X85888333Y5053333D01*
X85983571Y5100952D01*
X86126428Y5100952D01*
X86221666Y5148571D01*
X86269285Y5243809D01*
X86269285Y5291428D01*
X86221666Y5386666D01*
X86126428Y5434285D01*
X85983571Y5434285D01*
X85888333Y5386666D01*
X85269285Y4767619D02*
X85364523Y4815238D01*
X85412142Y4862857D01*
X85459761Y4958095D01*
X85459761Y5243809D01*
X85412142Y5339047D01*
X85364523Y5386666D01*
X85269285Y5434285D01*
X85126428Y5434285D01*
X85031190Y5386666D01*
X84983571Y5339047D01*
X84935952Y5243809D01*
X84935952Y4958095D01*
X84983571Y4862857D01*
X85031190Y4815238D01*
X85126428Y4767619D01*
X85269285Y4767619D01*
X84078809Y4815238D02*
X84174047Y4767619D01*
X84364523Y4767619D01*
X84459761Y4815238D01*
X84507380Y4862857D01*
X84555000Y4958095D01*
X84555000Y5243809D01*
X84507380Y5339047D01*
X84459761Y5386666D01*
X84364523Y5434285D01*
X84174047Y5434285D01*
X84078809Y5386666D01*
X83650238Y4767619D02*
X83650238Y5767619D01*
X83555000Y5148571D02*
X83269285Y4767619D01*
X83269285Y5434285D02*
X83650238Y5053333D01*
X82459761Y4815238D02*
X82555000Y4767619D01*
X82745476Y4767619D01*
X82840714Y4815238D01*
X82888333Y4910476D01*
X82888333Y5291428D01*
X82840714Y5386666D01*
X82745476Y5434285D01*
X82555000Y5434285D01*
X82459761Y5386666D01*
X82412142Y5291428D01*
X82412142Y5196190D01*
X82888333Y5100952D01*
X82126428Y5434285D02*
X81745476Y5434285D01*
X81983571Y5767619D02*
X81983571Y4910476D01*
X81935952Y4815238D01*
X81840714Y4767619D01*
X81745476Y4767619D01*
X105319285Y4815238D02*
X105224047Y4767619D01*
X105033571Y4767619D01*
X104938333Y4815238D01*
X104890714Y4910476D01*
X104890714Y4958095D01*
X104938333Y5053333D01*
X105033571Y5100952D01*
X105176428Y5100952D01*
X105271666Y5148571D01*
X105319285Y5243809D01*
X105319285Y5291428D01*
X105271666Y5386666D01*
X105176428Y5434285D01*
X105033571Y5434285D01*
X104938333Y5386666D01*
X104319285Y4767619D02*
X104414523Y4815238D01*
X104462142Y4862857D01*
X104509761Y4958095D01*
X104509761Y5243809D01*
X104462142Y5339047D01*
X104414523Y5386666D01*
X104319285Y5434285D01*
X104176428Y5434285D01*
X104081190Y5386666D01*
X104033571Y5339047D01*
X103985952Y5243809D01*
X103985952Y4958095D01*
X104033571Y4862857D01*
X104081190Y4815238D01*
X104176428Y4767619D01*
X104319285Y4767619D01*
X103128809Y4815238D02*
X103224047Y4767619D01*
X103414523Y4767619D01*
X103509761Y4815238D01*
X103557380Y4862857D01*
X103605000Y4958095D01*
X103605000Y5243809D01*
X103557380Y5339047D01*
X103509761Y5386666D01*
X103414523Y5434285D01*
X103224047Y5434285D01*
X103128809Y5386666D01*
X102700238Y4767619D02*
X102700238Y5767619D01*
X102605000Y5148571D02*
X102319285Y4767619D01*
X102319285Y5434285D02*
X102700238Y5053333D01*
X101509761Y4815238D02*
X101605000Y4767619D01*
X101795476Y4767619D01*
X101890714Y4815238D01*
X101938333Y4910476D01*
X101938333Y5291428D01*
X101890714Y5386666D01*
X101795476Y5434285D01*
X101605000Y5434285D01*
X101509761Y5386666D01*
X101462142Y5291428D01*
X101462142Y5196190D01*
X101938333Y5100952D01*
X101176428Y5434285D02*
X100795476Y5434285D01*
X101033571Y5767619D02*
X101033571Y4910476D01*
X100985952Y4815238D01*
X100890714Y4767619D01*
X100795476Y4767619D01*
X52931785Y-14234761D02*
X52836547Y-14282380D01*
X52646071Y-14282380D01*
X52550833Y-14234761D01*
X52503214Y-14139523D01*
X52503214Y-14091904D01*
X52550833Y-13996666D01*
X52646071Y-13949047D01*
X52788928Y-13949047D01*
X52884166Y-13901428D01*
X52931785Y-13806190D01*
X52931785Y-13758571D01*
X52884166Y-13663333D01*
X52788928Y-13615714D01*
X52646071Y-13615714D01*
X52550833Y-13663333D01*
X51931785Y-14282380D02*
X52027023Y-14234761D01*
X52074642Y-14187142D01*
X52122261Y-14091904D01*
X52122261Y-13806190D01*
X52074642Y-13710952D01*
X52027023Y-13663333D01*
X51931785Y-13615714D01*
X51788928Y-13615714D01*
X51693690Y-13663333D01*
X51646071Y-13710952D01*
X51598452Y-13806190D01*
X51598452Y-14091904D01*
X51646071Y-14187142D01*
X51693690Y-14234761D01*
X51788928Y-14282380D01*
X51931785Y-14282380D01*
X50741309Y-14234761D02*
X50836547Y-14282380D01*
X51027023Y-14282380D01*
X51122261Y-14234761D01*
X51169880Y-14187142D01*
X51217500Y-14091904D01*
X51217500Y-13806190D01*
X51169880Y-13710952D01*
X51122261Y-13663333D01*
X51027023Y-13615714D01*
X50836547Y-13615714D01*
X50741309Y-13663333D01*
X50312738Y-14282380D02*
X50312738Y-13282380D01*
X50217500Y-13901428D02*
X49931785Y-14282380D01*
X49931785Y-13615714D02*
X50312738Y-13996666D01*
X49122261Y-14234761D02*
X49217500Y-14282380D01*
X49407976Y-14282380D01*
X49503214Y-14234761D01*
X49550833Y-14139523D01*
X49550833Y-13758571D01*
X49503214Y-13663333D01*
X49407976Y-13615714D01*
X49217500Y-13615714D01*
X49122261Y-13663333D01*
X49074642Y-13758571D01*
X49074642Y-13853809D01*
X49550833Y-13949047D01*
X48788928Y-13615714D02*
X48407976Y-13615714D01*
X48646071Y-13282380D02*
X48646071Y-14139523D01*
X48598452Y-14234761D01*
X48503214Y-14282380D01*
X48407976Y-14282380D01*
X111971904Y-23320000D02*
X112067142Y-23272380D01*
X112210000Y-23272380D01*
X112352857Y-23320000D01*
X112448095Y-23415238D01*
X112495714Y-23510476D01*
X112543333Y-23700952D01*
X112543333Y-23843809D01*
X112495714Y-24034285D01*
X112448095Y-24129523D01*
X112352857Y-24224761D01*
X112210000Y-24272380D01*
X112114761Y-24272380D01*
X111971904Y-24224761D01*
X111924285Y-24177142D01*
X111924285Y-23843809D01*
X112114761Y-23843809D01*
X111495714Y-24272380D02*
X111495714Y-23272380D01*
X110924285Y-24272380D01*
X110924285Y-23272380D01*
X110448095Y-24272380D02*
X110448095Y-23272380D01*
X110210000Y-23272380D01*
X110067142Y-23320000D01*
X109971904Y-23415238D01*
X109924285Y-23510476D01*
X109876666Y-23700952D01*
X109876666Y-23843809D01*
X109924285Y-24034285D01*
X109971904Y-24129523D01*
X110067142Y-24224761D01*
X110210000Y-24272380D01*
X110448095Y-24272380D01*
X111922857Y-26972380D02*
X112399047Y-26972380D01*
X112399047Y-25972380D01*
X111589523Y-26448571D02*
X111256190Y-26448571D01*
X111113333Y-26972380D02*
X111589523Y-26972380D01*
X111589523Y-25972380D01*
X111113333Y-25972380D01*
X110684761Y-26972380D02*
X110684761Y-25972380D01*
X110446666Y-25972380D01*
X110303809Y-26020000D01*
X110208571Y-26115238D01*
X110160952Y-26210476D01*
X110113333Y-26400952D01*
X110113333Y-26543809D01*
X110160952Y-26734285D01*
X110208571Y-26829523D01*
X110303809Y-26924761D01*
X110446666Y-26972380D01*
X110684761Y-26972380D01*
X112683333Y-28472380D02*
X112350000Y-29472380D01*
X112016666Y-28472380D01*
X111111904Y-29377142D02*
X111159523Y-29424761D01*
X111302380Y-29472380D01*
X111397619Y-29472380D01*
X111540476Y-29424761D01*
X111635714Y-29329523D01*
X111683333Y-29234285D01*
X111730952Y-29043809D01*
X111730952Y-28900952D01*
X111683333Y-28710476D01*
X111635714Y-28615238D01*
X111540476Y-28520000D01*
X111397619Y-28472380D01*
X111302380Y-28472380D01*
X111159523Y-28520000D01*
X111111904Y-28567619D01*
X110111904Y-29377142D02*
X110159523Y-29424761D01*
X110302380Y-29472380D01*
X110397619Y-29472380D01*
X110540476Y-29424761D01*
X110635714Y-29329523D01*
X110683333Y-29234285D01*
X110730952Y-29043809D01*
X110730952Y-28900952D01*
X110683333Y-28710476D01*
X110635714Y-28615238D01*
X110540476Y-28520000D01*
X110397619Y-28472380D01*
X110302380Y-28472380D01*
X110159523Y-28520000D01*
X110111904Y-28567619D01*
X36011904Y927619D02*
X36011904Y118095D01*
X35964285Y22857D01*
X35916666Y-24761D01*
X35821428Y-72380D01*
X35630952Y-72380D01*
X35535714Y-24761D01*
X35488095Y22857D01*
X35440476Y118095D01*
X35440476Y927619D01*
X34440476Y-72380D02*
X35011904Y-72380D01*
X34726190Y-72380D02*
X34726190Y927619D01*
X34821428Y784761D01*
X34916666Y689523D01*
X35011904Y641904D01*
D12*
X21639285Y-2116428D02*
X20889285Y-2116428D01*
X21425000Y-1866428D01*
X20889285Y-1616428D01*
X21639285Y-1616428D01*
X21639285Y-1259285D02*
X21139285Y-1259285D01*
X20889285Y-1259285D02*
X20925000Y-1295000D01*
X20960714Y-1259285D01*
X20925000Y-1223571D01*
X20889285Y-1259285D01*
X20960714Y-1259285D01*
X21603571Y-580714D02*
X21639285Y-652142D01*
X21639285Y-795000D01*
X21603571Y-866428D01*
X21567857Y-902142D01*
X21496428Y-937857D01*
X21282142Y-937857D01*
X21210714Y-902142D01*
X21175000Y-866428D01*
X21139285Y-795000D01*
X21139285Y-652142D01*
X21175000Y-580714D01*
X21639285Y-259285D02*
X21139285Y-259285D01*
X21282142Y-259285D02*
X21210714Y-223571D01*
X21175000Y-187857D01*
X21139285Y-116428D01*
X21139285Y-45000D01*
X21639285Y312142D02*
X21603571Y240714D01*
X21567857Y205000D01*
X21496428Y169285D01*
X21282142Y169285D01*
X21210714Y205000D01*
X21175000Y240714D01*
X21139285Y312142D01*
X21139285Y419285D01*
X21175000Y490714D01*
X21210714Y526428D01*
X21282142Y562142D01*
X21496428Y562142D01*
X21567857Y526428D01*
X21603571Y490714D01*
X21639285Y419285D01*
X21639285Y312142D01*
X20889285Y883571D02*
X21496428Y883571D01*
X21567857Y919285D01*
X21603571Y955000D01*
X21639285Y1026428D01*
X21639285Y1169285D01*
X21603571Y1240714D01*
X21567857Y1276428D01*
X21496428Y1312142D01*
X20889285Y1312142D01*
X21603571Y1633571D02*
X21639285Y1740714D01*
X21639285Y1919285D01*
X21603571Y1990714D01*
X21567857Y2026428D01*
X21496428Y2062142D01*
X21425000Y2062142D01*
X21353571Y2026428D01*
X21317857Y1990714D01*
X21282142Y1919285D01*
X21246428Y1776428D01*
X21210714Y1705000D01*
X21175000Y1669285D01*
X21103571Y1633571D01*
X21032142Y1633571D01*
X20960714Y1669285D01*
X20925000Y1705000D01*
X20889285Y1776428D01*
X20889285Y1955000D01*
X20925000Y2062142D01*
X21246428Y2633571D02*
X21282142Y2740714D01*
X21317857Y2776428D01*
X21389285Y2812142D01*
X21496428Y2812142D01*
X21567857Y2776428D01*
X21603571Y2740714D01*
X21639285Y2669285D01*
X21639285Y2383571D01*
X20889285Y2383571D01*
X20889285Y2633571D01*
X20925000Y2705000D01*
X20960714Y2740714D01*
X21032142Y2776428D01*
X21103571Y2776428D01*
X21175000Y2740714D01*
X21210714Y2705000D01*
X21246428Y2633571D01*
X21246428Y2383571D01*
D13*
X51118428Y6401190D02*
X51154142Y6305476D01*
X51189857Y6273571D01*
X51261285Y6241666D01*
X51368428Y6241666D01*
X51439857Y6273571D01*
X51475571Y6305476D01*
X51511285Y6369285D01*
X51511285Y6624523D01*
X50761285Y6624523D01*
X50761285Y6401190D01*
X50797000Y6337380D01*
X50832714Y6305476D01*
X50904142Y6273571D01*
X50975571Y6273571D01*
X51047000Y6305476D01*
X51082714Y6337380D01*
X51118428Y6401190D01*
X51118428Y6624523D01*
X51011285Y5667380D02*
X51511285Y5667380D01*
X50725571Y5826904D02*
X51261285Y5986428D01*
X51261285Y5571666D01*
X50725571Y4837857D02*
X51689857Y5412142D01*
X51082714Y4518809D02*
X51047000Y4582619D01*
X51011285Y4614523D01*
X50939857Y4646428D01*
X50904142Y4646428D01*
X50832714Y4614523D01*
X50797000Y4582619D01*
X50761285Y4518809D01*
X50761285Y4391190D01*
X50797000Y4327380D01*
X50832714Y4295476D01*
X50904142Y4263571D01*
X50939857Y4263571D01*
X51011285Y4295476D01*
X51047000Y4327380D01*
X51082714Y4391190D01*
X51082714Y4518809D01*
X51118428Y4582619D01*
X51154142Y4614523D01*
X51225571Y4646428D01*
X51368428Y4646428D01*
X51439857Y4614523D01*
X51475571Y4582619D01*
X51511285Y4518809D01*
X51511285Y4391190D01*
X51475571Y4327380D01*
X51439857Y4295476D01*
X51368428Y4263571D01*
X51225571Y4263571D01*
X51154142Y4295476D01*
X51118428Y4327380D01*
X51082714Y4391190D01*
X28651285Y6389571D02*
X27901285Y6389571D01*
X27901285Y6230047D01*
X27937000Y6134333D01*
X28008428Y6070523D01*
X28079857Y6038619D01*
X28222714Y6006714D01*
X28329857Y6006714D01*
X28472714Y6038619D01*
X28544142Y6070523D01*
X28615571Y6134333D01*
X28651285Y6230047D01*
X28651285Y6389571D01*
X27972714Y5751476D02*
X27937000Y5719571D01*
X27901285Y5655761D01*
X27901285Y5496238D01*
X27937000Y5432428D01*
X27972714Y5400523D01*
X28044142Y5368619D01*
X28115571Y5368619D01*
X28222714Y5400523D01*
X28651285Y5783380D01*
X28651285Y5368619D01*
X27865571Y4602904D02*
X28829857Y5177190D01*
X28651285Y3996714D02*
X28294142Y4220047D01*
X28651285Y4379571D02*
X27901285Y4379571D01*
X27901285Y4124333D01*
X27937000Y4060523D01*
X27972714Y4028619D01*
X28044142Y3996714D01*
X28151285Y3996714D01*
X28222714Y4028619D01*
X28258428Y4060523D01*
X28294142Y4124333D01*
X28294142Y4379571D01*
X27901285Y3773380D02*
X28651285Y3326714D01*
X27901285Y3326714D02*
X28651285Y3773380D01*
X28651285Y2720523D02*
X28651285Y3103380D01*
X28651285Y2911952D02*
X27901285Y2911952D01*
X28008428Y2975761D01*
X28079857Y3039571D01*
X28115571Y3103380D01*
X53496428Y6026190D02*
X53532142Y5930476D01*
X53567857Y5898571D01*
X53639285Y5866666D01*
X53746428Y5866666D01*
X53817857Y5898571D01*
X53853571Y5930476D01*
X53889285Y5994285D01*
X53889285Y6249523D01*
X53139285Y6249523D01*
X53139285Y6026190D01*
X53175000Y5962380D01*
X53210714Y5930476D01*
X53282142Y5898571D01*
X53353571Y5898571D01*
X53425000Y5930476D01*
X53460714Y5962380D01*
X53496428Y6026190D01*
X53496428Y6249523D01*
X53139285Y5260476D02*
X53139285Y5579523D01*
X53496428Y5611428D01*
X53460714Y5579523D01*
X53425000Y5515714D01*
X53425000Y5356190D01*
X53460714Y5292380D01*
X53496428Y5260476D01*
X53567857Y5228571D01*
X53746428Y5228571D01*
X53817857Y5260476D01*
X53853571Y5292380D01*
X53889285Y5356190D01*
X53889285Y5515714D01*
X53853571Y5579523D01*
X53817857Y5611428D01*
X53103571Y4462857D02*
X54067857Y5037142D01*
X53889285Y4207619D02*
X53889285Y4080000D01*
X53853571Y4016190D01*
X53817857Y3984285D01*
X53710714Y3920476D01*
X53567857Y3888571D01*
X53282142Y3888571D01*
X53210714Y3920476D01*
X53175000Y3952380D01*
X53139285Y4016190D01*
X53139285Y4143809D01*
X53175000Y4207619D01*
X53210714Y4239523D01*
X53282142Y4271428D01*
X53460714Y4271428D01*
X53532142Y4239523D01*
X53567857Y4207619D01*
X53603571Y4143809D01*
X53603571Y4016190D01*
X53567857Y3952380D01*
X53532142Y3920476D01*
X53460714Y3888571D01*
X43947857Y6331666D02*
X43983571Y6363571D01*
X44019285Y6459285D01*
X44019285Y6523095D01*
X43983571Y6618809D01*
X43912142Y6682619D01*
X43840714Y6714523D01*
X43697857Y6746428D01*
X43590714Y6746428D01*
X43447857Y6714523D01*
X43376428Y6682619D01*
X43305000Y6618809D01*
X43269285Y6523095D01*
X43269285Y6459285D01*
X43305000Y6363571D01*
X43340714Y6331666D01*
X43269285Y5757380D02*
X43269285Y5885000D01*
X43305000Y5948809D01*
X43340714Y5980714D01*
X43447857Y6044523D01*
X43590714Y6076428D01*
X43876428Y6076428D01*
X43947857Y6044523D01*
X43983571Y6012619D01*
X44019285Y5948809D01*
X44019285Y5821190D01*
X43983571Y5757380D01*
X43947857Y5725476D01*
X43876428Y5693571D01*
X43697857Y5693571D01*
X43626428Y5725476D01*
X43590714Y5757380D01*
X43555000Y5821190D01*
X43555000Y5948809D01*
X43590714Y6012619D01*
X43626428Y6044523D01*
X43697857Y6076428D01*
X43233571Y4927857D02*
X44197857Y5502142D01*
X43269285Y4385476D02*
X43269285Y4704523D01*
X43626428Y4736428D01*
X43590714Y4704523D01*
X43555000Y4640714D01*
X43555000Y4481190D01*
X43590714Y4417380D01*
X43626428Y4385476D01*
X43697857Y4353571D01*
X43876428Y4353571D01*
X43947857Y4385476D01*
X43983571Y4417380D01*
X44019285Y4481190D01*
X44019285Y4640714D01*
X43983571Y4704523D01*
X43947857Y4736428D01*
X38775571Y6662619D02*
X38811285Y6566904D01*
X38811285Y6407380D01*
X38775571Y6343571D01*
X38739857Y6311666D01*
X38668428Y6279761D01*
X38597000Y6279761D01*
X38525571Y6311666D01*
X38489857Y6343571D01*
X38454142Y6407380D01*
X38418428Y6535000D01*
X38382714Y6598809D01*
X38347000Y6630714D01*
X38275571Y6662619D01*
X38204142Y6662619D01*
X38132714Y6630714D01*
X38097000Y6598809D01*
X38061285Y6535000D01*
X38061285Y6375476D01*
X38097000Y6279761D01*
X38739857Y5609761D02*
X38775571Y5641666D01*
X38811285Y5737380D01*
X38811285Y5801190D01*
X38775571Y5896904D01*
X38704142Y5960714D01*
X38632714Y5992619D01*
X38489857Y6024523D01*
X38382714Y6024523D01*
X38239857Y5992619D01*
X38168428Y5960714D01*
X38097000Y5896904D01*
X38061285Y5801190D01*
X38061285Y5737380D01*
X38097000Y5641666D01*
X38132714Y5609761D01*
X38811285Y5003571D02*
X38811285Y5322619D01*
X38061285Y5322619D01*
X38025571Y4301666D02*
X38989857Y4875952D01*
X38811285Y4078333D02*
X38061285Y4078333D01*
X38061285Y3918809D01*
X38097000Y3823095D01*
X38168428Y3759285D01*
X38239857Y3727380D01*
X38382714Y3695476D01*
X38489857Y3695476D01*
X38632714Y3727380D01*
X38704142Y3759285D01*
X38775571Y3823095D01*
X38811285Y3918809D01*
X38811285Y4078333D01*
X38061285Y3280714D02*
X38061285Y3216904D01*
X38097000Y3153095D01*
X38132714Y3121190D01*
X38204142Y3089285D01*
X38347000Y3057380D01*
X38525571Y3057380D01*
X38668428Y3089285D01*
X38739857Y3121190D01*
X38775571Y3153095D01*
X38811285Y3216904D01*
X38811285Y3280714D01*
X38775571Y3344523D01*
X38739857Y3376428D01*
X38668428Y3408333D01*
X38525571Y3440238D01*
X38347000Y3440238D01*
X38204142Y3408333D01*
X38132714Y3376428D01*
X38097000Y3344523D01*
X38061285Y3280714D01*
X38025571Y2291666D02*
X38989857Y2865952D01*
X38061285Y2132142D02*
X38061285Y1717380D01*
X38347000Y1940714D01*
X38347000Y1845000D01*
X38382714Y1781190D01*
X38418428Y1749285D01*
X38489857Y1717380D01*
X38668428Y1717380D01*
X38739857Y1749285D01*
X38775571Y1781190D01*
X38811285Y1845000D01*
X38811285Y2036428D01*
X38775571Y2100238D01*
X38739857Y2132142D01*
X36153571Y6323571D02*
X36189285Y6227857D01*
X36189285Y6068333D01*
X36153571Y6004523D01*
X36117857Y5972619D01*
X36046428Y5940714D01*
X35975000Y5940714D01*
X35903571Y5972619D01*
X35867857Y6004523D01*
X35832142Y6068333D01*
X35796428Y6195952D01*
X35760714Y6259761D01*
X35725000Y6291666D01*
X35653571Y6323571D01*
X35582142Y6323571D01*
X35510714Y6291666D01*
X35475000Y6259761D01*
X35439285Y6195952D01*
X35439285Y6036428D01*
X35475000Y5940714D01*
X36189285Y5653571D02*
X35439285Y5653571D01*
X35439285Y5494047D01*
X35475000Y5398333D01*
X35546428Y5334523D01*
X35617857Y5302619D01*
X35760714Y5270714D01*
X35867857Y5270714D01*
X36010714Y5302619D01*
X36082142Y5334523D01*
X36153571Y5398333D01*
X36189285Y5494047D01*
X36189285Y5653571D01*
X35975000Y5015476D02*
X35975000Y4696428D01*
X36189285Y5079285D02*
X35439285Y4855952D01*
X36189285Y4632619D01*
X35403571Y3930714D02*
X36367857Y4505000D01*
X36189285Y3707380D02*
X35439285Y3707380D01*
X35439285Y3547857D01*
X35475000Y3452142D01*
X35546428Y3388333D01*
X35617857Y3356428D01*
X35760714Y3324523D01*
X35867857Y3324523D01*
X36010714Y3356428D01*
X36082142Y3388333D01*
X36153571Y3452142D01*
X36189285Y3547857D01*
X36189285Y3707380D01*
X36189285Y2686428D02*
X36189285Y3069285D01*
X36189285Y2877857D02*
X35439285Y2877857D01*
X35546428Y2941666D01*
X35617857Y3005476D01*
X35653571Y3069285D01*
X35403571Y1920714D02*
X36367857Y2495000D01*
X35510714Y1729285D02*
X35475000Y1697380D01*
X35439285Y1633571D01*
X35439285Y1474047D01*
X35475000Y1410238D01*
X35510714Y1378333D01*
X35582142Y1346428D01*
X35653571Y1346428D01*
X35760714Y1378333D01*
X36189285Y1761190D01*
X36189285Y1346428D01*
X41478285Y6370523D02*
X40728285Y6370523D01*
X40728285Y6211000D01*
X40764000Y6115285D01*
X40835428Y6051476D01*
X40906857Y6019571D01*
X41049714Y5987666D01*
X41156857Y5987666D01*
X41299714Y6019571D01*
X41371142Y6051476D01*
X41442571Y6115285D01*
X41478285Y6211000D01*
X41478285Y6370523D01*
X40978285Y5413380D02*
X41478285Y5413380D01*
X40692571Y5572904D02*
X41228285Y5732428D01*
X41228285Y5317666D01*
X40692571Y4583857D02*
X41656857Y5158142D01*
X40978285Y4073380D02*
X41478285Y4073380D01*
X40692571Y4232904D02*
X41228285Y4392428D01*
X41228285Y3977666D01*
X26111285Y6690809D02*
X25361285Y6690809D01*
X25361285Y6531285D01*
X25397000Y6435571D01*
X25468428Y6371761D01*
X25539857Y6339857D01*
X25682714Y6307952D01*
X25789857Y6307952D01*
X25932714Y6339857D01*
X26004142Y6371761D01*
X26075571Y6435571D01*
X26111285Y6531285D01*
X26111285Y6690809D01*
X25361285Y6084619D02*
X25361285Y5669857D01*
X25647000Y5893190D01*
X25647000Y5797476D01*
X25682714Y5733666D01*
X25718428Y5701761D01*
X25789857Y5669857D01*
X25968428Y5669857D01*
X26039857Y5701761D01*
X26075571Y5733666D01*
X26111285Y5797476D01*
X26111285Y5988904D01*
X26075571Y6052714D01*
X26039857Y6084619D01*
X25325571Y4904142D02*
X26289857Y5478428D01*
X25361285Y4776523D02*
X25361285Y4393666D01*
X26111285Y4585095D02*
X25361285Y4585095D01*
X25361285Y4234142D02*
X26111285Y3787476D01*
X25361285Y3787476D02*
X26111285Y4234142D01*
X25361285Y3404619D02*
X25361285Y3340809D01*
X25397000Y3277000D01*
X25432714Y3245095D01*
X25504142Y3213190D01*
X25647000Y3181285D01*
X25825571Y3181285D01*
X25968428Y3213190D01*
X26039857Y3245095D01*
X26075571Y3277000D01*
X26111285Y3340809D01*
X26111285Y3404619D01*
X26075571Y3468428D01*
X26039857Y3500333D01*
X25968428Y3532238D01*
X25825571Y3564142D01*
X25647000Y3564142D01*
X25504142Y3532238D01*
X25432714Y3500333D01*
X25397000Y3468428D01*
X25361285Y3404619D01*
X32975000Y5845476D02*
X32939285Y5909285D01*
X32939285Y6005000D01*
X32975000Y6100714D01*
X33046428Y6164523D01*
X33117857Y6196428D01*
X33260714Y6228333D01*
X33367857Y6228333D01*
X33510714Y6196428D01*
X33582142Y6164523D01*
X33653571Y6100714D01*
X33689285Y6005000D01*
X33689285Y5941190D01*
X33653571Y5845476D01*
X33617857Y5813571D01*
X33367857Y5813571D01*
X33367857Y5941190D01*
X33689285Y5526428D02*
X32939285Y5526428D01*
X33689285Y5143571D01*
X32939285Y5143571D01*
X33689285Y4824523D02*
X32939285Y4824523D01*
X32939285Y4665000D01*
X32975000Y4569285D01*
X33046428Y4505476D01*
X33117857Y4473571D01*
X33260714Y4441666D01*
X33367857Y4441666D01*
X33510714Y4473571D01*
X33582142Y4505476D01*
X33653571Y4569285D01*
X33689285Y4665000D01*
X33689285Y4824523D01*
X30525000Y5845476D02*
X30489285Y5909285D01*
X30489285Y6005000D01*
X30525000Y6100714D01*
X30596428Y6164523D01*
X30667857Y6196428D01*
X30810714Y6228333D01*
X30917857Y6228333D01*
X31060714Y6196428D01*
X31132142Y6164523D01*
X31203571Y6100714D01*
X31239285Y6005000D01*
X31239285Y5941190D01*
X31203571Y5845476D01*
X31167857Y5813571D01*
X30917857Y5813571D01*
X30917857Y5941190D01*
X31239285Y5526428D02*
X30489285Y5526428D01*
X31239285Y5143571D01*
X30489285Y5143571D01*
X31239285Y4824523D02*
X30489285Y4824523D01*
X30489285Y4665000D01*
X30525000Y4569285D01*
X30596428Y4505476D01*
X30667857Y4473571D01*
X30810714Y4441666D01*
X30917857Y4441666D01*
X31060714Y4473571D01*
X31132142Y4505476D01*
X31203571Y4569285D01*
X31239285Y4665000D01*
X31239285Y4824523D01*
X46289285Y6249523D02*
X45539285Y6249523D01*
X45539285Y6090000D01*
X45575000Y5994285D01*
X45646428Y5930476D01*
X45717857Y5898571D01*
X45860714Y5866666D01*
X45967857Y5866666D01*
X46110714Y5898571D01*
X46182142Y5930476D01*
X46253571Y5994285D01*
X46289285Y6090000D01*
X46289285Y6249523D01*
X45539285Y5643333D02*
X45539285Y5196666D01*
X46289285Y5483809D01*
X45503571Y4462857D02*
X46467857Y5037142D01*
X45539285Y3952380D02*
X45539285Y4080000D01*
X45575000Y4143809D01*
X45610714Y4175714D01*
X45717857Y4239523D01*
X45860714Y4271428D01*
X46146428Y4271428D01*
X46217857Y4239523D01*
X46253571Y4207619D01*
X46289285Y4143809D01*
X46289285Y4016190D01*
X46253571Y3952380D01*
X46217857Y3920476D01*
X46146428Y3888571D01*
X45967857Y3888571D01*
X45896428Y3920476D01*
X45860714Y3952380D01*
X45825000Y4016190D01*
X45825000Y4143809D01*
X45860714Y4207619D01*
X45896428Y4239523D01*
X45967857Y4271428D01*
X47956428Y6762619D02*
X47956428Y6539285D01*
X48349285Y6443571D02*
X48349285Y6762619D01*
X47599285Y6762619D01*
X47599285Y6443571D01*
X47599285Y5869285D02*
X47599285Y5996904D01*
X47635000Y6060714D01*
X47670714Y6092619D01*
X47777857Y6156428D01*
X47920714Y6188333D01*
X48206428Y6188333D01*
X48277857Y6156428D01*
X48313571Y6124523D01*
X48349285Y6060714D01*
X48349285Y5933095D01*
X48313571Y5869285D01*
X48277857Y5837380D01*
X48206428Y5805476D01*
X48027857Y5805476D01*
X47956428Y5837380D01*
X47920714Y5869285D01*
X47885000Y5933095D01*
X47885000Y6060714D01*
X47920714Y6124523D01*
X47956428Y6156428D01*
X48027857Y6188333D01*
X47563571Y5039761D02*
X48527857Y5614047D01*
X47599285Y4880238D02*
X47599285Y4433571D01*
X48349285Y4720714D01*
X51539285Y-2882380D02*
X51539285Y-2499523D01*
X51539285Y-2690952D02*
X50789285Y-2690952D01*
X50896428Y-2627142D01*
X50967857Y-2563333D01*
X51003571Y-2499523D01*
X50789285Y-3456666D02*
X50789285Y-3329047D01*
X50825000Y-3265238D01*
X50860714Y-3233333D01*
X50967857Y-3169523D01*
X51110714Y-3137619D01*
X51396428Y-3137619D01*
X51467857Y-3169523D01*
X51503571Y-3201428D01*
X51539285Y-3265238D01*
X51539285Y-3392857D01*
X51503571Y-3456666D01*
X51467857Y-3488571D01*
X51396428Y-3520476D01*
X51217857Y-3520476D01*
X51146428Y-3488571D01*
X51110714Y-3456666D01*
X51075000Y-3392857D01*
X51075000Y-3265238D01*
X51110714Y-3201428D01*
X51146428Y-3169523D01*
X51217857Y-3137619D01*
X50753571Y-4286190D02*
X51717857Y-3711904D01*
X51146428Y-4732857D02*
X51182142Y-4828571D01*
X51217857Y-4860476D01*
X51289285Y-4892380D01*
X51396428Y-4892380D01*
X51467857Y-4860476D01*
X51503571Y-4828571D01*
X51539285Y-4764761D01*
X51539285Y-4509523D01*
X50789285Y-4509523D01*
X50789285Y-4732857D01*
X50825000Y-4796666D01*
X50860714Y-4828571D01*
X50932142Y-4860476D01*
X51003571Y-4860476D01*
X51075000Y-4828571D01*
X51110714Y-4796666D01*
X51146428Y-4732857D01*
X51146428Y-4509523D01*
X50860714Y-5147619D02*
X50825000Y-5179523D01*
X50789285Y-5243333D01*
X50789285Y-5402857D01*
X50825000Y-5466666D01*
X50860714Y-5498571D01*
X50932142Y-5530476D01*
X51003571Y-5530476D01*
X51110714Y-5498571D01*
X51539285Y-5115714D01*
X51539285Y-5530476D01*
X53924285Y-2805380D02*
X53924285Y-2422523D01*
X53924285Y-2613952D02*
X53174285Y-2613952D01*
X53281428Y-2550142D01*
X53352857Y-2486333D01*
X53388571Y-2422523D01*
X53174285Y-3220142D02*
X53174285Y-3283952D01*
X53210000Y-3347761D01*
X53245714Y-3379666D01*
X53317142Y-3411571D01*
X53460000Y-3443476D01*
X53638571Y-3443476D01*
X53781428Y-3411571D01*
X53852857Y-3379666D01*
X53888571Y-3347761D01*
X53924285Y-3283952D01*
X53924285Y-3220142D01*
X53888571Y-3156333D01*
X53852857Y-3124428D01*
X53781428Y-3092523D01*
X53638571Y-3060619D01*
X53460000Y-3060619D01*
X53317142Y-3092523D01*
X53245714Y-3124428D01*
X53210000Y-3156333D01*
X53174285Y-3220142D01*
X53138571Y-4209190D02*
X54102857Y-3634904D01*
X53531428Y-4655857D02*
X53567142Y-4751571D01*
X53602857Y-4783476D01*
X53674285Y-4815380D01*
X53781428Y-4815380D01*
X53852857Y-4783476D01*
X53888571Y-4751571D01*
X53924285Y-4687761D01*
X53924285Y-4432523D01*
X53174285Y-4432523D01*
X53174285Y-4655857D01*
X53210000Y-4719666D01*
X53245714Y-4751571D01*
X53317142Y-4783476D01*
X53388571Y-4783476D01*
X53460000Y-4751571D01*
X53495714Y-4719666D01*
X53531428Y-4655857D01*
X53531428Y-4432523D01*
X53174285Y-5389666D02*
X53174285Y-5262047D01*
X53210000Y-5198238D01*
X53245714Y-5166333D01*
X53352857Y-5102523D01*
X53495714Y-5070619D01*
X53781428Y-5070619D01*
X53852857Y-5102523D01*
X53888571Y-5134428D01*
X53924285Y-5198238D01*
X53924285Y-5325857D01*
X53888571Y-5389666D01*
X53852857Y-5421571D01*
X53781428Y-5453476D01*
X53602857Y-5453476D01*
X53531428Y-5421571D01*
X53495714Y-5389666D01*
X53460000Y-5325857D01*
X53460000Y-5198238D01*
X53495714Y-5134428D01*
X53531428Y-5102523D01*
X53602857Y-5070619D01*
X48989285Y-2882380D02*
X48989285Y-2499523D01*
X48989285Y-2690952D02*
X48239285Y-2690952D01*
X48346428Y-2627142D01*
X48417857Y-2563333D01*
X48453571Y-2499523D01*
X48489285Y-3456666D02*
X48989285Y-3456666D01*
X48203571Y-3297142D02*
X48739285Y-3137619D01*
X48739285Y-3552380D01*
X48203571Y-4286190D02*
X49167857Y-3711904D01*
X48596428Y-4732857D02*
X48632142Y-4828571D01*
X48667857Y-4860476D01*
X48739285Y-4892380D01*
X48846428Y-4892380D01*
X48917857Y-4860476D01*
X48953571Y-4828571D01*
X48989285Y-4764761D01*
X48989285Y-4509523D01*
X48239285Y-4509523D01*
X48239285Y-4732857D01*
X48275000Y-4796666D01*
X48310714Y-4828571D01*
X48382142Y-4860476D01*
X48453571Y-4860476D01*
X48525000Y-4828571D01*
X48560714Y-4796666D01*
X48596428Y-4732857D01*
X48596428Y-4509523D01*
X48239285Y-5115714D02*
X48239285Y-5530476D01*
X48525000Y-5307142D01*
X48525000Y-5402857D01*
X48560714Y-5466666D01*
X48596428Y-5498571D01*
X48667857Y-5530476D01*
X48846428Y-5530476D01*
X48917857Y-5498571D01*
X48953571Y-5466666D01*
X48989285Y-5402857D01*
X48989285Y-5211428D01*
X48953571Y-5147619D01*
X48917857Y-5115714D01*
X46439285Y-2882380D02*
X46439285Y-2499523D01*
X46439285Y-2690952D02*
X45689285Y-2690952D01*
X45796428Y-2627142D01*
X45867857Y-2563333D01*
X45903571Y-2499523D01*
X45689285Y-3488571D02*
X45689285Y-3169523D01*
X46046428Y-3137619D01*
X46010714Y-3169523D01*
X45975000Y-3233333D01*
X45975000Y-3392857D01*
X46010714Y-3456666D01*
X46046428Y-3488571D01*
X46117857Y-3520476D01*
X46296428Y-3520476D01*
X46367857Y-3488571D01*
X46403571Y-3456666D01*
X46439285Y-3392857D01*
X46439285Y-3233333D01*
X46403571Y-3169523D01*
X46367857Y-3137619D01*
X45653571Y-4286190D02*
X46617857Y-3711904D01*
X46046428Y-4732857D02*
X46082142Y-4828571D01*
X46117857Y-4860476D01*
X46189285Y-4892380D01*
X46296428Y-4892380D01*
X46367857Y-4860476D01*
X46403571Y-4828571D01*
X46439285Y-4764761D01*
X46439285Y-4509523D01*
X45689285Y-4509523D01*
X45689285Y-4732857D01*
X45725000Y-4796666D01*
X45760714Y-4828571D01*
X45832142Y-4860476D01*
X45903571Y-4860476D01*
X45975000Y-4828571D01*
X46010714Y-4796666D01*
X46046428Y-4732857D01*
X46046428Y-4509523D01*
X46439285Y-5530476D02*
X46439285Y-5147619D01*
X46439285Y-5339047D02*
X45689285Y-5339047D01*
X45796428Y-5275238D01*
X45867857Y-5211428D01*
X45903571Y-5147619D01*
X43675000Y-2579285D02*
X43675000Y-2898333D01*
X43889285Y-2515476D02*
X43139285Y-2738809D01*
X43889285Y-2962142D01*
X43139285Y-3313095D02*
X43139285Y-3376904D01*
X43175000Y-3440714D01*
X43210714Y-3472619D01*
X43282142Y-3504523D01*
X43425000Y-3536428D01*
X43603571Y-3536428D01*
X43746428Y-3504523D01*
X43817857Y-3472619D01*
X43853571Y-3440714D01*
X43889285Y-3376904D01*
X43889285Y-3313095D01*
X43853571Y-3249285D01*
X43817857Y-3217380D01*
X43746428Y-3185476D01*
X43603571Y-3153571D01*
X43425000Y-3153571D01*
X43282142Y-3185476D01*
X43210714Y-3217380D01*
X43175000Y-3249285D01*
X43139285Y-3313095D01*
X43103571Y-4302142D02*
X44067857Y-3727857D01*
X43496428Y-4748809D02*
X43496428Y-4525476D01*
X43889285Y-4525476D02*
X43139285Y-4525476D01*
X43139285Y-4844523D01*
X43139285Y-5035952D02*
X43139285Y-5482619D01*
X43889285Y-5195476D01*
X41125000Y-2579285D02*
X41125000Y-2898333D01*
X41339285Y-2515476D02*
X40589285Y-2738809D01*
X41339285Y-2962142D01*
X41339285Y-3536428D02*
X41339285Y-3153571D01*
X41339285Y-3345000D02*
X40589285Y-3345000D01*
X40696428Y-3281190D01*
X40767857Y-3217380D01*
X40803571Y-3153571D01*
X40553571Y-4302142D02*
X41517857Y-3727857D01*
X40946428Y-4748809D02*
X40946428Y-4525476D01*
X41339285Y-4525476D02*
X40589285Y-4525476D01*
X40589285Y-4844523D01*
X40589285Y-5386904D02*
X40589285Y-5259285D01*
X40625000Y-5195476D01*
X40660714Y-5163571D01*
X40767857Y-5099761D01*
X40910714Y-5067857D01*
X41196428Y-5067857D01*
X41267857Y-5099761D01*
X41303571Y-5131666D01*
X41339285Y-5195476D01*
X41339285Y-5323095D01*
X41303571Y-5386904D01*
X41267857Y-5418809D01*
X41196428Y-5450714D01*
X41017857Y-5450714D01*
X40946428Y-5418809D01*
X40910714Y-5386904D01*
X40875000Y-5323095D01*
X40875000Y-5195476D01*
X40910714Y-5131666D01*
X40946428Y-5099761D01*
X41017857Y-5067857D01*
X38625000Y-2579285D02*
X38625000Y-2898333D01*
X38839285Y-2515476D02*
X38089285Y-2738809D01*
X38839285Y-2962142D01*
X38160714Y-3153571D02*
X38125000Y-3185476D01*
X38089285Y-3249285D01*
X38089285Y-3408809D01*
X38125000Y-3472619D01*
X38160714Y-3504523D01*
X38232142Y-3536428D01*
X38303571Y-3536428D01*
X38410714Y-3504523D01*
X38839285Y-3121666D01*
X38839285Y-3536428D01*
X38053571Y-4302142D02*
X39017857Y-3727857D01*
X38446428Y-4748809D02*
X38446428Y-4525476D01*
X38839285Y-4525476D02*
X38089285Y-4525476D01*
X38089285Y-4844523D01*
X38089285Y-5418809D02*
X38089285Y-5099761D01*
X38446428Y-5067857D01*
X38410714Y-5099761D01*
X38375000Y-5163571D01*
X38375000Y-5323095D01*
X38410714Y-5386904D01*
X38446428Y-5418809D01*
X38517857Y-5450714D01*
X38696428Y-5450714D01*
X38767857Y-5418809D01*
X38803571Y-5386904D01*
X38839285Y-5323095D01*
X38839285Y-5163571D01*
X38803571Y-5099761D01*
X38767857Y-5067857D01*
X36125000Y-2579285D02*
X36125000Y-2898333D01*
X36339285Y-2515476D02*
X35589285Y-2738809D01*
X36339285Y-2962142D01*
X35589285Y-3121666D02*
X35589285Y-3536428D01*
X35875000Y-3313095D01*
X35875000Y-3408809D01*
X35910714Y-3472619D01*
X35946428Y-3504523D01*
X36017857Y-3536428D01*
X36196428Y-3536428D01*
X36267857Y-3504523D01*
X36303571Y-3472619D01*
X36339285Y-3408809D01*
X36339285Y-3217380D01*
X36303571Y-3153571D01*
X36267857Y-3121666D01*
X35553571Y-4302142D02*
X36517857Y-3727857D01*
X35946428Y-4748809D02*
X35946428Y-4525476D01*
X36339285Y-4525476D02*
X35589285Y-4525476D01*
X35589285Y-4844523D01*
X35839285Y-5386904D02*
X36339285Y-5386904D01*
X35553571Y-5227380D02*
X36089285Y-5067857D01*
X36089285Y-5482619D01*
X32889285Y-3721666D02*
X33639285Y-3945000D01*
X32889285Y-4168333D01*
X33567857Y-4774523D02*
X33603571Y-4742619D01*
X33639285Y-4646904D01*
X33639285Y-4583095D01*
X33603571Y-4487380D01*
X33532142Y-4423571D01*
X33460714Y-4391666D01*
X33317857Y-4359761D01*
X33210714Y-4359761D01*
X33067857Y-4391666D01*
X32996428Y-4423571D01*
X32925000Y-4487380D01*
X32889285Y-4583095D01*
X32889285Y-4646904D01*
X32925000Y-4742619D01*
X32960714Y-4774523D01*
X33567857Y-5444523D02*
X33603571Y-5412619D01*
X33639285Y-5316904D01*
X33639285Y-5253095D01*
X33603571Y-5157380D01*
X33532142Y-5093571D01*
X33460714Y-5061666D01*
X33317857Y-5029761D01*
X33210714Y-5029761D01*
X33067857Y-5061666D01*
X32996428Y-5093571D01*
X32925000Y-5157380D01*
X32889285Y-5253095D01*
X32889285Y-5316904D01*
X32925000Y-5412619D01*
X32960714Y-5444523D01*
X31189285Y-4248095D02*
X30832142Y-4024761D01*
X31189285Y-3865238D02*
X30439285Y-3865238D01*
X30439285Y-4120476D01*
X30475000Y-4184285D01*
X30510714Y-4216190D01*
X30582142Y-4248095D01*
X30689285Y-4248095D01*
X30760714Y-4216190D01*
X30796428Y-4184285D01*
X30832142Y-4120476D01*
X30832142Y-3865238D01*
X31153571Y-4503333D02*
X31189285Y-4599047D01*
X31189285Y-4758571D01*
X31153571Y-4822380D01*
X31117857Y-4854285D01*
X31046428Y-4886190D01*
X30975000Y-4886190D01*
X30903571Y-4854285D01*
X30867857Y-4822380D01*
X30832142Y-4758571D01*
X30796428Y-4630952D01*
X30760714Y-4567142D01*
X30725000Y-4535238D01*
X30653571Y-4503333D01*
X30582142Y-4503333D01*
X30510714Y-4535238D01*
X30475000Y-4567142D01*
X30439285Y-4630952D01*
X30439285Y-4790476D01*
X30475000Y-4886190D01*
X30439285Y-5077619D02*
X30439285Y-5460476D01*
X31189285Y-5269047D02*
X30439285Y-5269047D01*
X27925000Y-4104523D02*
X27889285Y-4040714D01*
X27889285Y-3945000D01*
X27925000Y-3849285D01*
X27996428Y-3785476D01*
X28067857Y-3753571D01*
X28210714Y-3721666D01*
X28317857Y-3721666D01*
X28460714Y-3753571D01*
X28532142Y-3785476D01*
X28603571Y-3849285D01*
X28639285Y-3945000D01*
X28639285Y-4008809D01*
X28603571Y-4104523D01*
X28567857Y-4136428D01*
X28317857Y-4136428D01*
X28317857Y-4008809D01*
X28639285Y-4423571D02*
X27889285Y-4423571D01*
X28639285Y-4806428D01*
X27889285Y-4806428D01*
X28639285Y-5125476D02*
X27889285Y-5125476D01*
X27889285Y-5285000D01*
X27925000Y-5380714D01*
X27996428Y-5444523D01*
X28067857Y-5476428D01*
X28210714Y-5508333D01*
X28317857Y-5508333D01*
X28460714Y-5476428D01*
X28532142Y-5444523D01*
X28603571Y-5380714D01*
X28639285Y-5285000D01*
X28639285Y-5125476D01*
X26089285Y-4152380D02*
X25732142Y-3929047D01*
X26089285Y-3769523D02*
X25339285Y-3769523D01*
X25339285Y-4024761D01*
X25375000Y-4088571D01*
X25410714Y-4120476D01*
X25482142Y-4152380D01*
X25589285Y-4152380D01*
X25660714Y-4120476D01*
X25696428Y-4088571D01*
X25732142Y-4024761D01*
X25732142Y-3769523D01*
X25875000Y-4407619D02*
X25875000Y-4726666D01*
X26089285Y-4343809D02*
X25339285Y-4567142D01*
X26089285Y-4790476D01*
X25339285Y-4950000D02*
X26089285Y-5109523D01*
X25553571Y-5237142D01*
X26089285Y-5364761D01*
X25339285Y-5524285D01*
D11*
X68794340Y13063436D02*
X68508626Y13558307D01*
X67785457Y12810872D02*
X68651483Y13310872D01*
X67190219Y13841854D02*
X67769279Y13791274D01*
X67475934Y13346983D02*
X68341959Y13846983D01*
X68151483Y14176897D01*
X68062624Y14235566D01*
X67997576Y14252996D01*
X67891287Y14246616D01*
X67767570Y14175188D01*
X67708900Y14086329D01*
X67691471Y14021280D01*
X67697850Y13914992D01*
X67888327Y13585078D01*
X66690219Y14707880D02*
X67269279Y14657300D01*
X66975934Y14213008D02*
X67841959Y14713008D01*
X67651483Y15042922D01*
X67562624Y15101591D01*
X67497576Y15119021D01*
X67391287Y15112642D01*
X67267570Y15041213D01*
X67208900Y14952355D01*
X67191471Y14887306D01*
X67197850Y14781018D01*
X67388327Y14451103D01*
X66540982Y15061604D02*
X66428314Y15161512D01*
X66309267Y15367708D01*
X66302887Y15473997D01*
X66320317Y15539045D01*
X66378986Y15627904D01*
X66461465Y15675523D01*
X66567753Y15681903D01*
X66632802Y15664473D01*
X66721660Y15605804D01*
X66858137Y15464656D01*
X66946996Y15405987D01*
X67012044Y15388557D01*
X67118333Y15394937D01*
X67200811Y15442556D01*
X67259480Y15531414D01*
X67276910Y15596463D01*
X67270530Y15702751D01*
X67151483Y15908948D01*
X67038815Y16008856D01*
X29119285Y4815238D02*
X29024047Y4767619D01*
X28833571Y4767619D01*
X28738333Y4815238D01*
X28690714Y4910476D01*
X28690714Y4958095D01*
X28738333Y5053333D01*
X28833571Y5100952D01*
X28976428Y5100952D01*
X29071666Y5148571D01*
X29119285Y5243809D01*
X29119285Y5291428D01*
X29071666Y5386666D01*
X28976428Y5434285D01*
X28833571Y5434285D01*
X28738333Y5386666D01*
X28119285Y4767619D02*
X28214523Y4815238D01*
X28262142Y4862857D01*
X28309761Y4958095D01*
X28309761Y5243809D01*
X28262142Y5339047D01*
X28214523Y5386666D01*
X28119285Y5434285D01*
X27976428Y5434285D01*
X27881190Y5386666D01*
X27833571Y5339047D01*
X27785952Y5243809D01*
X27785952Y4958095D01*
X27833571Y4862857D01*
X27881190Y4815238D01*
X27976428Y4767619D01*
X28119285Y4767619D01*
X26928809Y4815238D02*
X27024047Y4767619D01*
X27214523Y4767619D01*
X27309761Y4815238D01*
X27357380Y4862857D01*
X27405000Y4958095D01*
X27405000Y5243809D01*
X27357380Y5339047D01*
X27309761Y5386666D01*
X27214523Y5434285D01*
X27024047Y5434285D01*
X26928809Y5386666D01*
X26500238Y4767619D02*
X26500238Y5767619D01*
X26405000Y5148571D02*
X26119285Y4767619D01*
X26119285Y5434285D02*
X26500238Y5053333D01*
X25309761Y4815238D02*
X25405000Y4767619D01*
X25595476Y4767619D01*
X25690714Y4815238D01*
X25738333Y4910476D01*
X25738333Y5291428D01*
X25690714Y5386666D01*
X25595476Y5434285D01*
X25405000Y5434285D01*
X25309761Y5386666D01*
X25262142Y5291428D01*
X25262142Y5196190D01*
X25738333Y5100952D01*
X24976428Y5434285D02*
X24595476Y5434285D01*
X24833571Y5767619D02*
X24833571Y4910476D01*
X24785952Y4815238D01*
X24690714Y4767619D01*
X24595476Y4767619D01*
X72993989Y11394417D02*
X73044569Y11973476D01*
X73488860Y11680131D02*
X72988860Y12546156D01*
X72658946Y12355680D01*
X72600277Y12266822D01*
X72582847Y12201773D01*
X72589227Y12095485D01*
X72660655Y11971767D01*
X72749514Y11913098D01*
X72814563Y11895668D01*
X72920851Y11902048D01*
X73250765Y12092524D01*
X72360930Y11633763D02*
X72072255Y11467097D01*
X72210442Y10942036D02*
X72622835Y11180131D01*
X72122835Y12046156D01*
X71710442Y11808061D01*
X71856718Y10792799D02*
X71756810Y10680131D01*
X71550613Y10561083D01*
X71444325Y10554704D01*
X71379276Y10572133D01*
X71290418Y10630802D01*
X71242799Y10713281D01*
X71236419Y10819569D01*
X71253849Y10884618D01*
X71312518Y10973476D01*
X71453666Y11109954D01*
X71512335Y11198812D01*
X71529764Y11263861D01*
X71523385Y11370149D01*
X71475766Y11452628D01*
X71386907Y11511297D01*
X71321858Y11528726D01*
X71215570Y11522347D01*
X71009374Y11403299D01*
X70909465Y11290631D01*
X70752597Y10705192D02*
X70463922Y10538525D01*
X70602109Y10013464D02*
X71014502Y10251559D01*
X70514502Y11117585D01*
X70102109Y10879490D01*
X69854673Y10736632D02*
X69359802Y10450918D01*
X70107237Y9727750D02*
X69607237Y10593775D01*
M02*
