M48
; DRILL file {KiCad (5.1.6-0-10_14)} date Monday, May 16, 2022 at 09:02:02 PM
; FORMAT={-:-/ absolute / metric / decimal}
; #@! TF.CreationDate,2022-05-16T21:02:02+09:00
; #@! TF.GenerationSoftware,Kicad,Pcbnew,(5.1.6-0-10_14)
; #@! TF.FileFunction,NonPlated,1,2,NPTH
FMAT,2
METRIC
T1C1.200
T2C1.900
T3C3.000
T4C4.100
%
G90
G05
T1
X65.289Y13.94
X71.351Y17.44
T2
X102.076Y-57.15
X112.236Y-57.15
X66.358Y-19.05
X76.517Y-19.05
X94.932Y-38.1
X105.093Y-38.1
X99.695Y0.0
X109.855Y0.0
X75.882Y-57.15
X86.042Y-57.15
X75.882Y-38.1
X86.042Y-38.1
X37.782Y-57.15
X47.942Y-57.15
X85.407Y-19.05
X95.567Y-19.05
X42.545Y0.0
X52.705Y0.0
X113.983Y-38.1
X124.142Y-38.1
X56.832Y-57.15
X66.992Y-57.15
X47.307Y-19.05
X57.467Y-19.05
X23.495Y0.0
X33.655Y0.0
X104.457Y-19.05
X114.617Y-19.05
X30.639Y-38.1
X40.799Y-38.1
X25.876Y-19.05
X36.036Y-19.05
X61.595Y0.0
X71.755Y0.0
X80.645Y0.0
X90.805Y0.0
X56.832Y-38.1
X66.992Y-38.1
T3
X86.677Y-16.51
X93.027Y-13.97
X43.815Y2.54
X50.165Y5.08
X115.252Y-35.56
X121.602Y-33.02
X58.102Y-54.61
X64.453Y-52.07
X48.578Y-16.51
X54.927Y-13.97
X24.765Y2.54
X31.115Y5.08
X105.727Y-16.51
X112.078Y-13.97
X31.909Y-35.56
X38.259Y-33.02
X27.146Y-16.51
X33.496Y-13.97
X62.865Y2.54
X69.215Y5.08
X81.915Y2.54
X88.265Y5.08
X58.102Y-35.56
X64.453Y-33.02
X103.346Y-54.61
X109.697Y-52.07
X67.627Y-16.51
X73.977Y-13.97
X96.203Y-35.56
X102.552Y-33.02
X100.965Y2.54
X107.315Y5.08
X77.153Y-54.61
X83.502Y-52.07
X77.153Y-35.56
X83.502Y-33.02
X39.052Y-54.61
X45.402Y-52.07
T4
X90.487Y-19.05
X47.625Y0.0
X119.062Y-38.1
X61.912Y-57.15
X52.387Y-19.05
X28.575Y0.0
X109.537Y-19.05
X35.719Y-38.1
X30.956Y-19.05
X66.675Y0.0
X85.725Y0.0
X61.912Y-38.1
X107.156Y-57.15
X71.438Y-19.05
X100.012Y-38.1
X104.775Y0.0
X80.962Y-57.15
X80.962Y-38.1
X42.862Y-57.15
T0
M30
