G04 #@! TF.GenerationSoftware,KiCad,Pcbnew,(5.1.6-0-10_14)*
G04 #@! TF.CreationDate,2022-05-16T21:02:00+09:00*
G04 #@! TF.ProjectId,cool936,636f6f6c-3933-4362-9e6b-696361645f70,rev?*
G04 #@! TF.SameCoordinates,Original*
G04 #@! TF.FileFunction,Copper,L2,Bot*
G04 #@! TF.FilePolarity,Positive*
%FSLAX46Y46*%
G04 Gerber Fmt 4.6, Leading zero omitted, Abs format (unit mm)*
G04 Created by KiCad (PCBNEW (5.1.6-0-10_14)) date 2022-05-16 21:02:00*
%MOMM*%
%LPD*%
G01*
G04 APERTURE LIST*
G04 #@! TA.AperFunction,SMDPad,CuDef*
%ADD10R,2.550000X2.500000*%
G04 #@! TD*
G04 #@! TA.AperFunction,SMDPad,CuDef*
%ADD11R,1.524000X1.524000*%
G04 #@! TD*
G04 #@! TA.AperFunction,ComponentPad*
%ADD12C,1.397000*%
G04 #@! TD*
G04 #@! TA.AperFunction,ComponentPad*
%ADD13R,1.397000X1.397000*%
G04 #@! TD*
G04 #@! TA.AperFunction,SMDPad,CuDef*
%ADD14R,0.950000X1.300000*%
G04 #@! TD*
G04 #@! TA.AperFunction,SMDPad,CuDef*
%ADD15R,1.300000X0.950000*%
G04 #@! TD*
G04 #@! TA.AperFunction,ComponentPad*
%ADD16C,1.524000*%
G04 #@! TD*
G04 #@! TA.AperFunction,ComponentPad*
%ADD17C,2.000000*%
G04 #@! TD*
G04 #@! TA.AperFunction,ViaPad*
%ADD18C,0.800000*%
G04 #@! TD*
G04 #@! TA.AperFunction,Conductor*
%ADD19C,0.250000*%
G04 #@! TD*
G04 APERTURE END LIST*
D10*
X23871000Y-16510000D03*
X36798000Y-13970000D03*
X28634000Y-35560000D03*
X41561000Y-33020000D03*
X102452500Y-16510000D03*
X115379500Y-13970000D03*
X100071500Y-54610000D03*
X112998500Y-52070000D03*
X54827500Y-54610000D03*
X67754500Y-52070000D03*
X64352500Y-16510000D03*
X77279500Y-13970000D03*
X83402500Y-16510000D03*
X96329500Y-13970000D03*
X35777500Y-54610000D03*
X48704500Y-52070000D03*
X111977500Y-35560000D03*
X124904500Y-33020000D03*
X54827500Y-35560000D03*
X67754500Y-33020000D03*
X73877500Y-54610000D03*
X86804500Y-52070000D03*
X73877500Y-35560000D03*
X86804500Y-33020000D03*
X92927500Y-35560000D03*
X105854500Y-33020000D03*
X40540000Y2540000D03*
X53467000Y5080000D03*
X59590000Y2540000D03*
X72517000Y5080000D03*
X78640000Y2540000D03*
X91567000Y5080000D03*
X97690000Y2540000D03*
X110617000Y5080000D03*
X45302500Y-16510000D03*
X58229500Y-13970000D03*
D11*
X113790000Y-23990000D03*
X113790000Y-26530000D03*
X113790000Y-29070000D03*
D12*
X39350000Y-10710000D03*
D13*
X39350000Y-18330000D03*
D14*
X39350000Y-16295000D03*
X39350000Y-12745000D03*
D12*
X46790000Y-33730000D03*
D13*
X46790000Y-41350000D03*
D14*
X46790000Y-39315000D03*
X46790000Y-35765000D03*
D12*
X95100000Y-52870000D03*
D13*
X95100000Y-60490000D03*
D14*
X95100000Y-58455000D03*
X95100000Y-54905000D03*
D12*
X92090000Y-52870000D03*
D13*
X92090000Y-60490000D03*
D14*
X92090000Y-58455000D03*
X92090000Y-54905000D03*
D12*
X89230000Y-38610000D03*
D13*
X89230000Y-46230000D03*
D14*
X89230000Y-44195000D03*
X89230000Y-40645000D03*
D12*
X108220000Y-38760000D03*
D13*
X108220000Y-46380000D03*
D14*
X108220000Y-44345000D03*
X108220000Y-40795000D03*
X110750000Y-40825000D03*
X110750000Y-44375000D03*
D13*
X110750000Y-46410000D03*
D12*
X110750000Y-38790000D03*
X50590000Y-48660000D03*
D13*
X42970000Y-48660000D03*
D15*
X45005000Y-48660000D03*
X48555000Y-48660000D03*
D12*
X63340000Y-48730000D03*
D13*
X55720000Y-48730000D03*
D15*
X57755000Y-48730000D03*
X61305000Y-48730000D03*
D12*
X36880000Y2470000D03*
D13*
X36880000Y-5150000D03*
D14*
X36880000Y-3115000D03*
X36880000Y435000D03*
D16*
X25772000Y7991400D03*
X28312000Y7991400D03*
X30852000Y7991400D03*
X33392000Y7991400D03*
X35932000Y7991400D03*
X38472000Y7991400D03*
X41012000Y7991400D03*
X43552000Y7991400D03*
X46092000Y7991400D03*
X48632000Y7991400D03*
X51172000Y7991400D03*
X53712000Y7991400D03*
X53712000Y-7228600D03*
X51172000Y-7228600D03*
X48632000Y-7228600D03*
X46092000Y-7228600D03*
X43552000Y-7228600D03*
X41012000Y-7228600D03*
X38472000Y-7228600D03*
X35932000Y-7228600D03*
X33392000Y-7228600D03*
X30852000Y-7228600D03*
X28312000Y-7228600D03*
X25772000Y-7228600D03*
G04 #@! TA.AperFunction,ComponentPad*
G36*
G01*
X69513526Y17822531D02*
X68820706Y17422531D01*
G75*
G02*
X67659584Y17733653I-425000J736122D01*
G01*
X67659584Y17733653D01*
G75*
G02*
X67970706Y18894775I736122J425000D01*
G01*
X68663526Y19294775D01*
G75*
G02*
X69824648Y18983653I425000J-736122D01*
G01*
X69824648Y18983653D01*
G75*
G02*
X69513526Y17822531I-736122J-425000D01*
G01*
G37*
G04 #@! TD.AperFunction*
G04 #@! TA.AperFunction,ComponentPad*
G36*
G01*
X66915450Y16322531D02*
X66222630Y15922531D01*
G75*
G02*
X65061508Y16233653I-425000J736122D01*
G01*
X65061508Y16233653D01*
G75*
G02*
X65372630Y17394775I736122J425000D01*
G01*
X66065450Y17794775D01*
G75*
G02*
X67226572Y17483653I425000J-736122D01*
G01*
X67226572Y17483653D01*
G75*
G02*
X66915450Y16322531I-736122J-425000D01*
G01*
G37*
G04 #@! TD.AperFunction*
G04 #@! TA.AperFunction,ComponentPad*
G36*
G01*
X63451348Y14322531D02*
X62758528Y13922531D01*
G75*
G02*
X61597406Y14233653I-425000J736122D01*
G01*
X61597406Y14233653D01*
G75*
G02*
X61908528Y15394775I736122J425000D01*
G01*
X62601348Y15794775D01*
G75*
G02*
X63762470Y15483653I425000J-736122D01*
G01*
X63762470Y15483653D01*
G75*
G02*
X63451348Y14322531I-736122J-425000D01*
G01*
G37*
G04 #@! TD.AperFunction*
G04 #@! TA.AperFunction,ComponentPad*
G36*
G01*
X64252310Y9935225D02*
X63559490Y9535225D01*
G75*
G02*
X62398368Y9846347I-425000J736122D01*
G01*
X62398368Y9846347D01*
G75*
G02*
X62709490Y11007469I736122J425000D01*
G01*
X63402310Y11407469D01*
G75*
G02*
X64563432Y11096347I425000J-736122D01*
G01*
X64563432Y11096347D01*
G75*
G02*
X64252310Y9935225I-736122J-425000D01*
G01*
G37*
G04 #@! TD.AperFunction*
D10*
X21490000Y2540000D03*
X34417000Y5080000D03*
D12*
X79720000Y-10920000D03*
D13*
X79720000Y-18540000D03*
D14*
X79720000Y-16505000D03*
X79720000Y-12955000D03*
D12*
X60810000Y-10770000D03*
D13*
X60810000Y-18390000D03*
D14*
X60810000Y-16355000D03*
X60810000Y-12805000D03*
D17*
X74324583Y12685000D03*
X68695417Y9435000D03*
D12*
X93900000Y-590000D03*
D13*
X93900000Y-8210000D03*
D14*
X93900000Y-6175000D03*
X93900000Y-2625000D03*
D12*
X89960000Y-10620000D03*
D13*
X82340000Y-10620000D03*
D15*
X84375000Y-10620000D03*
X87925000Y-10620000D03*
X106515000Y-10620000D03*
X102965000Y-10620000D03*
D13*
X100930000Y-10620000D03*
D12*
X108550000Y-10620000D03*
X70160000Y-38570000D03*
D13*
X70160000Y-46190000D03*
D14*
X70160000Y-44155000D03*
X70160000Y-40605000D03*
D12*
X58200000Y-700000D03*
D13*
X58200000Y-8320000D03*
D14*
X58200000Y-6285000D03*
X58200000Y-2735000D03*
D12*
X75040000Y-560000D03*
D13*
X75040000Y-8180000D03*
D14*
X75040000Y-6145000D03*
X75040000Y-2595000D03*
D12*
X96480000Y-500000D03*
D13*
X96480000Y-8120000D03*
D14*
X96480000Y-6085000D03*
X96480000Y-2535000D03*
D18*
X51270000Y-32720000D03*
X51230000Y-23860000D03*
X52870000Y-43480000D03*
X52820000Y-47370000D03*
X52790000Y-23800000D03*
X52790000Y-32720000D03*
X39810000Y-27680000D03*
X94640000Y-28970000D03*
X94640000Y-24170000D03*
X85960000Y-12940000D03*
X85960000Y-5340000D03*
X34320000Y-17200000D03*
X34320000Y-21550000D03*
X59140000Y9550000D03*
X29600000Y-12530000D03*
X23871000Y-12529000D03*
X54130000Y-43540000D03*
X54220000Y-23800000D03*
X54270000Y-32970000D03*
X44790000Y-4250000D03*
X44840000Y-12780000D03*
X54070000Y-51600000D03*
X76800000Y-21700000D03*
X76870000Y-32410000D03*
X64290000Y-13600000D03*
X64220000Y-5290000D03*
X55590000Y2540000D03*
X73960000Y-50910000D03*
X73900000Y-43150000D03*
X100240000Y-51190000D03*
X83420000Y-13130000D03*
X100240000Y-43320000D03*
X92300000Y-32490000D03*
X92240000Y-23210000D03*
X79900000Y-5250000D03*
X81040000Y6730000D03*
X75850000Y6760000D03*
X111920000Y-23310000D03*
X102290000Y-13110000D03*
X98950000Y-2670000D03*
X111940000Y-32410000D03*
D19*
X36880000Y2470000D02*
X36880000Y435000D01*
X36880000Y3633000D02*
X36195000Y4318000D01*
X34417000Y5080000D02*
X31115000Y5080000D01*
X34417000Y5080000D02*
X35433000Y5080000D01*
X34417000Y4693000D02*
X34417000Y5080000D01*
X36880000Y2230000D02*
X36880000Y195000D01*
X35433000Y5080000D02*
X36195000Y4318000D01*
X36880000Y2470000D02*
X36880000Y3633000D01*
X56640000Y-450000D02*
X57950000Y-450000D01*
X58200000Y-700000D02*
X58200000Y-2735000D01*
X56640000Y-450000D02*
X53467000Y2723000D01*
X53467000Y2723000D02*
X53467000Y5080000D01*
X50165000Y5080000D02*
X53467000Y5080000D01*
X58200000Y-700000D02*
X58200000Y-510000D01*
X57950000Y-450000D02*
X58200000Y-700000D01*
X75040000Y3750000D02*
X75040000Y-560000D01*
X75040000Y-560000D02*
X75040000Y-2595000D01*
X72517000Y5080000D02*
X73710000Y5080000D01*
X73710000Y5080000D02*
X75040000Y3750000D01*
X69215000Y5080000D02*
X72517000Y5080000D01*
X91567000Y4843000D02*
X91567000Y5080000D01*
X91567000Y5080000D02*
X88265000Y5080000D01*
X93900000Y-2625000D02*
X93900000Y-590000D01*
X93900000Y2510000D02*
X91567000Y4843000D01*
X93900000Y-590000D02*
X93900000Y2510000D01*
X111055001Y-1274999D02*
X111055001Y4641999D01*
X108850000Y-3480000D02*
X111055001Y-1274999D01*
X111055001Y4641999D02*
X110617000Y5080000D01*
X97200000Y-500000D02*
X98040000Y-1340000D01*
X107315000Y5080000D02*
X110617000Y5080000D01*
X98040000Y-2833002D02*
X98686998Y-3480000D01*
X96480000Y-500000D02*
X96480000Y-2535000D01*
X96480000Y-500000D02*
X97200000Y-500000D01*
X98040000Y-1340000D02*
X98040000Y-2833002D01*
X98686998Y-3480000D02*
X108850000Y-3480000D01*
X60810000Y-10770000D02*
X60810000Y-12805000D01*
X59645000Y-13970000D02*
X60810000Y-12805000D01*
X58229500Y-13970000D02*
X59645000Y-13970000D01*
X79720000Y-10920000D02*
X79720000Y-12955000D01*
X79720000Y-12955000D02*
X78294500Y-12955000D01*
X78294500Y-12955000D02*
X77279500Y-13970000D01*
X87925000Y-10620000D02*
X89960000Y-10620000D01*
X95830000Y-10620000D02*
X96329500Y-11119500D01*
X96329500Y-11119500D02*
X96329500Y-13970000D01*
X93027500Y-13970000D02*
X96329500Y-13970000D01*
X89960000Y-10620000D02*
X95830000Y-10620000D01*
X112077500Y-13970000D02*
X115379500Y-13970000D01*
X115810000Y-12000000D02*
X115810000Y-13539500D01*
X112380000Y-10620000D02*
X113050000Y-11290000D01*
X108550000Y-10620000D02*
X112380000Y-10620000D01*
X115100000Y-11290000D02*
X115810000Y-12000000D01*
X115810000Y-13539500D02*
X115379500Y-13970000D01*
X106515000Y-10620000D02*
X108550000Y-10620000D01*
X113050000Y-11290000D02*
X115100000Y-11290000D01*
X67754500Y-33020000D02*
X69080000Y-33020000D01*
X64452500Y-33020000D02*
X67754500Y-33020000D01*
X69080000Y-33020000D02*
X70160000Y-34100000D01*
X70160000Y-34100000D02*
X70160000Y-38570000D01*
X70160000Y-38570000D02*
X70160000Y-40605000D01*
X89230000Y-40645000D02*
X89230000Y-38610000D01*
X87480000Y-33020000D02*
X86804500Y-33020000D01*
X89230000Y-34770000D02*
X87480000Y-33020000D01*
X89230000Y-38610000D02*
X89230000Y-34770000D01*
X105854500Y-33020000D02*
X106870500Y-33020000D01*
X106870500Y-33020000D02*
X107632500Y-33782000D01*
X108220000Y-40795000D02*
X108220000Y-38760000D01*
X105854500Y-33020000D02*
X106800000Y-33020000D01*
X108220000Y-34440000D02*
X108220000Y-38760000D01*
X106800000Y-33020000D02*
X108220000Y-34440000D01*
X102552500Y-33020000D02*
X105854500Y-33020000D01*
X125342501Y-33458001D02*
X124904500Y-33020000D01*
X123990000Y-40610000D02*
X125342501Y-39257499D01*
X110750000Y-38790000D02*
X110750000Y-40825000D01*
X110750000Y-38790000D02*
X112570000Y-40610000D01*
X125342501Y-39257499D02*
X125342501Y-33458001D01*
X112570000Y-40610000D02*
X123990000Y-40610000D01*
X121602500Y-33020000D02*
X124904500Y-33020000D01*
X45402500Y-52070000D02*
X48704500Y-52070000D01*
X48555000Y-48660000D02*
X50590000Y-48660000D01*
X50590000Y-48660000D02*
X50590000Y-50184500D01*
X50590000Y-50184500D02*
X48704500Y-52070000D01*
X63340000Y-48730000D02*
X66320000Y-48730000D01*
X67754500Y-52070000D02*
X67754500Y-50164500D01*
X67754500Y-50164500D02*
X66320000Y-48730000D01*
X61305000Y-48730000D02*
X63340000Y-48730000D01*
X83502500Y-52070000D02*
X86804500Y-52070000D01*
X87604500Y-52870000D02*
X86804500Y-52070000D01*
X92090000Y-54905000D02*
X92090000Y-52870000D01*
X92090000Y-52870000D02*
X87604500Y-52870000D01*
X39350000Y-10710000D02*
X39350000Y-12745000D01*
X36798000Y-13970000D02*
X38125000Y-13970000D01*
X38125000Y-13970000D02*
X39350000Y-12745000D01*
X36798000Y-13970000D02*
X37790000Y-13970000D01*
X45830000Y-33020000D02*
X46540000Y-33730000D01*
X41561000Y-33020000D02*
X45830000Y-33020000D01*
X38259000Y-33020000D02*
X41561000Y-33020000D01*
X46540000Y-33730000D02*
X46790000Y-33730000D01*
X46790000Y-33730000D02*
X46790000Y-35765000D01*
X95100000Y-51570000D02*
X97480000Y-49190000D01*
X109696500Y-52070000D02*
X112998500Y-52070000D01*
X95100000Y-52870000D02*
X95100000Y-51570000D01*
X97480000Y-49190000D02*
X112240000Y-49190000D01*
X112998500Y-49948500D02*
X112998500Y-52070000D01*
X112240000Y-49190000D02*
X112998500Y-49948500D01*
X95100000Y-54905000D02*
X95100000Y-52870000D01*
X75040000Y-8180000D02*
X93660000Y-8180000D01*
X93900000Y-8210000D02*
X93900000Y-6175000D01*
X43390000Y-5740000D02*
X55940000Y-5740000D01*
X93900000Y-8210000D02*
X93690000Y-8210000D01*
X74900000Y-8320000D02*
X75040000Y-8180000D01*
X55940000Y-5740000D02*
X58200000Y-8000000D01*
X58200000Y-8000000D02*
X58200000Y-8320000D01*
X42500600Y-5740000D02*
X43020000Y-5740000D01*
X41092000Y-7758600D02*
X41092000Y-6852000D01*
X58200000Y-8320000D02*
X74900000Y-8320000D01*
X41012000Y-7228600D02*
X42500600Y-5740000D01*
X41092000Y-6852000D02*
X41108000Y-6852000D01*
X75040000Y-6145000D02*
X75040000Y-8180000D01*
X36880000Y-3355000D02*
X36880000Y-5390000D01*
X93690000Y-8210000D02*
X93660000Y-8180000D01*
X96480000Y-8120000D02*
X96480000Y-6085000D01*
X58200000Y-6285000D02*
X58200000Y-8320000D01*
X96480000Y-8120000D02*
X93990000Y-8120000D01*
X93990000Y-8120000D02*
X93900000Y-8210000D01*
X39741700Y-5958300D02*
X41012000Y-7228600D01*
X38933400Y-5150000D02*
X39741700Y-5958300D01*
X36880000Y-5150000D02*
X38933400Y-5150000D01*
X42870600Y-5740000D02*
X43020000Y-5740000D01*
X43020000Y-5740000D02*
X43390000Y-5740000D01*
X39173400Y-5390000D02*
X39741700Y-5958300D01*
X39350000Y-18330000D02*
X40300000Y-18330000D01*
X40300000Y-18330000D02*
X41160000Y-17470000D01*
X79720000Y-18490000D02*
X80827499Y-17382501D01*
X79720000Y-18540000D02*
X79720000Y-18490000D01*
X80827499Y-12132501D02*
X80827499Y-17382501D01*
X60810000Y-16355000D02*
X60810000Y-18390000D01*
X64086795Y-21323205D02*
X64791795Y-22028205D01*
X70351795Y-22028205D02*
X70748591Y-22425001D01*
X79720000Y-21140000D02*
X79720000Y-18540000D01*
X64791795Y-22028205D02*
X70351795Y-22028205D01*
X78434999Y-22425001D02*
X79720000Y-21140000D01*
X70748591Y-22425001D02*
X78434999Y-22425001D01*
X39350000Y-16295000D02*
X39350000Y-18330000D01*
X41160000Y-17470000D02*
X41160000Y-12134190D01*
X79720000Y-16505000D02*
X79720000Y-18540000D01*
X64086795Y-21326795D02*
X64790000Y-22030000D01*
X64086795Y-21323205D02*
X64086795Y-21326795D01*
X61153590Y-18390000D02*
X64086795Y-21323205D01*
X60810000Y-18390000D02*
X61153590Y-18390000D01*
X82340000Y-10620000D02*
X82340000Y-10410000D01*
X43552000Y-9742190D02*
X41160000Y-12134190D01*
X82340000Y-10410000D02*
X83153501Y-9596499D01*
X99906499Y-9596499D02*
X100930000Y-10620000D01*
X82340000Y-10620000D02*
X84375000Y-10620000D01*
X41160000Y-12134190D02*
X41160000Y-12630000D01*
X43552000Y-7228600D02*
X43552000Y-9742190D01*
X82340000Y-10620000D02*
X80827499Y-12132501D01*
X100930000Y-10620000D02*
X102965000Y-10620000D01*
X83153501Y-9596499D02*
X99906499Y-9596499D01*
X41610010Y-12320590D02*
X42925300Y-11005300D01*
X51230000Y-23860000D02*
X50810000Y-23440000D01*
X41610010Y-17782830D02*
X41610010Y-12320590D01*
X50810000Y-23440000D02*
X50810000Y-23420000D01*
X50810000Y-23420000D02*
X49044271Y-21654271D01*
X49044271Y-21654271D02*
X45481451Y-21654271D01*
X45481451Y-21654271D02*
X41610010Y-17782830D01*
X89230000Y-46230000D02*
X108070000Y-46230000D01*
X46790000Y-41350000D02*
X46790000Y-42320000D01*
X50660000Y-46190000D02*
X70160000Y-46190000D01*
X44537000Y-9393600D02*
X42925300Y-11005300D01*
X46092000Y-7228600D02*
X44537000Y-8783600D01*
X46790000Y-42320000D02*
X50660000Y-46190000D01*
X70160000Y-44155000D02*
X70160000Y-46190000D01*
X48220000Y-41350000D02*
X51270000Y-38300000D01*
X108220000Y-46380000D02*
X108220000Y-44345000D01*
X110750000Y-44375000D02*
X110750000Y-46410000D01*
X89190000Y-46190000D02*
X89230000Y-46230000D01*
X70160000Y-46190000D02*
X89190000Y-46190000D01*
X44537000Y-8783600D02*
X44537000Y-9393600D01*
X51270000Y-38300000D02*
X51270000Y-32720000D01*
X46790000Y-41350000D02*
X48220000Y-41350000D01*
X89230000Y-44195000D02*
X89230000Y-46230000D01*
X43325300Y-10605300D02*
X42925300Y-11005300D01*
X108070000Y-46230000D02*
X108220000Y-46380000D01*
X108250000Y-46410000D02*
X108220000Y-46380000D01*
X110750000Y-46410000D02*
X108250000Y-46410000D01*
X46790000Y-39315000D02*
X46790000Y-41350000D01*
X51540000Y-22550000D02*
X51373590Y-22550000D01*
X51373590Y-22550000D02*
X50027851Y-21204261D01*
X44601795Y-20138205D02*
X42060020Y-17596430D01*
X45071795Y-20608205D02*
X44601795Y-20138205D01*
X51540000Y-22550000D02*
X52790000Y-23800000D01*
X45667851Y-21204261D02*
X44601795Y-20138205D01*
X50027851Y-21204261D02*
X45667851Y-21204261D01*
X55190000Y-47370000D02*
X55720000Y-47900000D01*
X91840000Y-60740000D02*
X92090000Y-60490000D01*
X52190000Y-37320000D02*
X52870000Y-38000000D01*
X57755000Y-49455000D02*
X62970000Y-54670000D01*
X52820000Y-47370000D02*
X55190000Y-47370000D01*
X52870000Y-38000000D02*
X52870000Y-43480000D01*
X44987010Y-9612990D02*
X42060020Y-12539980D01*
X46270000Y-9580000D02*
X44987010Y-9580000D01*
X46430000Y-9580000D02*
X46270000Y-9580000D01*
X92090000Y-58455000D02*
X92090000Y-60490000D01*
X55720000Y-47900000D02*
X55720000Y-48730000D01*
X52190000Y-33320000D02*
X52190000Y-37320000D01*
X44852491Y-20388901D02*
X45071795Y-20608205D01*
X42060020Y-12539980D02*
X42060020Y-17219980D01*
X55720000Y-48730000D02*
X57755000Y-48730000D01*
X43720000Y-47370000D02*
X52820000Y-47370000D01*
X67440000Y-54670000D02*
X73510000Y-60740000D01*
X42970000Y-48660000D02*
X42970000Y-48120000D01*
X44987010Y-9580000D02*
X44987010Y-9612990D01*
X73510000Y-60740000D02*
X91840000Y-60740000D01*
X92090000Y-60490000D02*
X95100000Y-60490000D01*
X62970000Y-54670000D02*
X67440000Y-54670000D01*
X57755000Y-48730000D02*
X57755000Y-49455000D01*
X45005000Y-48660000D02*
X42970000Y-48660000D01*
X48820600Y-9580000D02*
X46270000Y-9580000D01*
X42060020Y-17596430D02*
X42060020Y-17219980D01*
X52790000Y-32720000D02*
X52190000Y-33320000D01*
X51172000Y-7228600D02*
X48820600Y-9580000D01*
X42970000Y-48120000D02*
X43720000Y-47370000D01*
X95100000Y-60490000D02*
X95100000Y-58455000D01*
X46650600Y-9580000D02*
X46430000Y-9580000D01*
X97450000Y-24190000D02*
X94660000Y-24190000D01*
X94660000Y-24190000D02*
X94640000Y-24170000D01*
X93950749Y-19209251D02*
X93950749Y-23480749D01*
X88200749Y-13459251D02*
X93950749Y-19209251D01*
X93950749Y-23480749D02*
X94640000Y-24170000D01*
X28789999Y3959999D02*
X28789999Y6769999D01*
X31810000Y943998D02*
X28793999Y3959999D01*
X31810000Y-2220000D02*
X31810000Y943998D01*
X28690000Y-5340000D02*
X31810000Y-2220000D01*
X28793999Y3959999D02*
X28789999Y3959999D01*
X28789999Y6769999D02*
X30011400Y7991400D01*
X30011400Y7991400D02*
X30852000Y7991400D01*
X30852000Y7991400D02*
X33392000Y7991400D01*
X28392000Y-5638000D02*
X28690000Y-5340000D01*
X28312000Y-5718000D02*
X28690000Y-5340000D01*
X28312000Y-7228600D02*
X28312000Y-5718000D01*
X30295398Y7701400D02*
X30932000Y7701400D01*
X88230000Y-3070000D02*
X85960000Y-5340000D01*
X88230000Y1370000D02*
X88230000Y-3070000D01*
X69832693Y13170000D02*
X73839583Y13170000D01*
X80350000Y4990000D02*
X84610000Y4990000D01*
X66144040Y16858653D02*
X69832693Y13170000D01*
X86479251Y-13459251D02*
X85960000Y-12940000D01*
X88200749Y-13459251D02*
X86479251Y-13459251D01*
X84610000Y4990000D02*
X88230000Y1370000D01*
X73839583Y13170000D02*
X74324583Y12685000D01*
X74324583Y11015417D02*
X80350000Y4990000D01*
X74324583Y12685000D02*
X74324583Y11015417D01*
X97604999Y-24035001D02*
X97450000Y-24190000D01*
X113744999Y-24035001D02*
X97604999Y-24035001D01*
X113790000Y-23990000D02*
X113744999Y-24035001D01*
X67140000Y-28970000D02*
X94640000Y-28970000D01*
X41100000Y-28970000D02*
X67140000Y-28970000D01*
X39810000Y-27680000D02*
X41100000Y-28970000D01*
X34320000Y-17200000D02*
X33174384Y-17200000D01*
X33174384Y-17200000D02*
X32237192Y-16262808D01*
X32237192Y-16262808D02*
X31170999Y-15196615D01*
X31170999Y-15196615D02*
X31170999Y-12259001D01*
X62679938Y13089938D02*
X59140000Y9550000D01*
X33392000Y-10038000D02*
X32790000Y-10640000D01*
X31170999Y-12259001D02*
X32790000Y-10640000D01*
X33392000Y-7228600D02*
X33392000Y-10038000D01*
X62679938Y14858653D02*
X62679938Y13089938D01*
X94083002Y-27340000D02*
X95262992Y-28519990D01*
X110610000Y-29070000D02*
X113790000Y-29070000D01*
X65070000Y-27340000D02*
X94083002Y-27340000D01*
X65060000Y-27330000D02*
X65070000Y-27340000D01*
X52990588Y-27330000D02*
X65060000Y-27330000D01*
X110059990Y-28519990D02*
X110610000Y-29070000D01*
X48214879Y-22554291D02*
X52990588Y-27330000D01*
X95262992Y-28519990D02*
X110059990Y-28519990D01*
X35324291Y-22554291D02*
X48214879Y-22554291D01*
X34320000Y-21550000D02*
X35324291Y-22554291D01*
X109640000Y-26430000D02*
X109590000Y-26480000D01*
X25772000Y7991400D02*
X25772000Y6341588D01*
X25772000Y6341588D02*
X25986794Y6126794D01*
X25852000Y6261588D02*
X25986794Y6126794D01*
X113740000Y-26480000D02*
X113790000Y-26530000D01*
X109590000Y-26480000D02*
X113740000Y-26480000D01*
X108890000Y-25780000D02*
X109590000Y-26480000D01*
X100860000Y-25780000D02*
X100700000Y-25780000D01*
X100700000Y-25780000D02*
X108890000Y-25780000D01*
X67540000Y-26140000D02*
X79210000Y-26140000D01*
X66480000Y-25080000D02*
X67540000Y-26140000D01*
X51376998Y-25080000D02*
X66480000Y-25080000D01*
X49100000Y-22803002D02*
X51376998Y-25080000D01*
X49100000Y-22730000D02*
X49100000Y-22803002D01*
X48474281Y-22104281D02*
X49100000Y-22730000D01*
X37203279Y-22104281D02*
X48474281Y-22104281D01*
X33274901Y-18175903D02*
X37203279Y-22104281D01*
X79570000Y-25780000D02*
X100700000Y-25780000D01*
X79210000Y-26140000D02*
X79570000Y-25780000D01*
X30720990Y-15383016D02*
X33274901Y-17936927D01*
X27020000Y-11670002D02*
X30720990Y-15370992D01*
X33274901Y-17936927D02*
X33274901Y-18175903D01*
X30707588Y1410000D02*
X31359990Y757598D01*
X31359990Y-2033600D02*
X27020000Y-6373590D01*
X30720990Y-15370992D02*
X30720990Y-15383016D01*
X31359990Y757598D02*
X31359990Y-2033600D01*
X27020000Y-6373590D02*
X27020000Y-11670002D01*
X30703588Y1410000D02*
X30707588Y1410000D01*
X25986794Y6126794D02*
X30703588Y1410000D01*
X35777500Y-54610000D02*
X39052500Y-54610000D01*
X35960000Y-860000D02*
X37680000Y-860000D01*
X24765000Y2540000D02*
X21490000Y2540000D01*
X28634000Y-43114000D02*
X35777500Y-50257500D01*
X37964999Y4944399D02*
X37964999Y3915001D01*
X23871000Y-12529000D02*
X23871000Y-16510000D01*
X21490000Y-7690000D02*
X23871000Y-10071000D01*
X21490000Y2540000D02*
X21490000Y-7690000D01*
X37964999Y4574399D02*
X37964999Y3915001D01*
X28634000Y-35560000D02*
X28634000Y-43114000D01*
X37680000Y-860000D02*
X37964999Y-575001D01*
X23871000Y-10071000D02*
X23871000Y-12529000D01*
X37964999Y-575001D02*
X37964999Y3915001D01*
X41012000Y7991400D02*
X37964999Y4944399D01*
X35777500Y-50257500D02*
X35777500Y-54610000D01*
X23871000Y-16510000D02*
X23871000Y-22441000D01*
X31909000Y-35560000D02*
X28634000Y-35560000D01*
X23871000Y-22441000D02*
X28634000Y-27204000D01*
X28634000Y-27204000D02*
X28634000Y-35560000D01*
X29600000Y-12530000D02*
X29600000Y-5903590D01*
X29600000Y-5903590D02*
X33643599Y-1859991D01*
X33643599Y-1859991D02*
X34960009Y-1859991D01*
X34960009Y-1859991D02*
X35960000Y-860000D01*
X52410000Y-21990000D02*
X51450000Y-21990000D01*
X50214251Y-20754251D02*
X47235749Y-20754251D01*
X47235749Y-20754251D02*
X45302500Y-18821002D01*
X51450000Y-21990000D02*
X50214251Y-20754251D01*
X54220000Y-23800000D02*
X52410000Y-21990000D01*
X54827500Y-52357500D02*
X54827500Y-54610000D01*
X42505000Y5365000D02*
X40540000Y3400000D01*
X54827500Y-33527500D02*
X54827500Y-35560000D01*
X54827500Y-42842500D02*
X54130000Y-43540000D01*
X54827500Y-35560000D02*
X54827500Y-42842500D01*
X43552000Y7991400D02*
X43552000Y6412000D01*
X54070000Y-51600000D02*
X54827500Y-52357500D01*
X45302500Y-13242500D02*
X45302500Y-16510000D01*
X40540000Y0D02*
X40540000Y1110000D01*
X44790000Y-4250000D02*
X40540000Y0D01*
X43815000Y2540000D02*
X40540000Y2540000D01*
X45302500Y-16510000D02*
X45302500Y-18752500D01*
X45302500Y-18821002D02*
X45302500Y-18752500D01*
X58102500Y-35560000D02*
X54827500Y-35560000D01*
X40540000Y2540000D02*
X40540000Y1110000D01*
X54827500Y-54610000D02*
X58102500Y-54610000D01*
X44840000Y-12780000D02*
X45302500Y-13242500D01*
X43552000Y6412000D02*
X42505000Y5365000D01*
X40540000Y3400000D02*
X40540000Y2540000D01*
X54270000Y-32970000D02*
X54827500Y-33527500D01*
X64352500Y-20027500D02*
X65805000Y-21480000D01*
X64352500Y-16510000D02*
X64352500Y-20027500D01*
X76580000Y-21480000D02*
X76800000Y-21700000D01*
X65805000Y-21480000D02*
X76580000Y-21480000D01*
X64290000Y-13600000D02*
X64290000Y-16447500D01*
X73960000Y-50910000D02*
X73960000Y-54527500D01*
X59590000Y2540000D02*
X59590000Y-690000D01*
X73877500Y-35402500D02*
X73877500Y-35560000D01*
X59590000Y2540000D02*
X55590000Y2540000D01*
X64352500Y-16510000D02*
X67627500Y-16510000D01*
X76870000Y-32410000D02*
X73877500Y-35402500D01*
X59590000Y-690000D02*
X64190000Y-5290000D01*
X73877500Y-54610000D02*
X77152500Y-54610000D01*
X64190000Y-5290000D02*
X64220000Y-5290000D01*
X73877500Y-43127500D02*
X73900000Y-43150000D01*
X73960000Y-54527500D02*
X73877500Y-54610000D01*
X62865000Y2540000D02*
X59590000Y2540000D01*
X64290000Y-16447500D02*
X64352500Y-16510000D01*
X73877500Y-35560000D02*
X73877500Y-43127500D01*
X95520000Y-43320000D02*
X100240000Y-43320000D01*
X52232591Y9078401D02*
X52367095Y9212905D01*
X49719001Y9078401D02*
X52232591Y9078401D01*
X52367095Y9212905D02*
X52474190Y9320000D01*
X100240000Y-54441500D02*
X100071500Y-54610000D01*
X48632000Y7991400D02*
X49719001Y9078401D01*
X100240000Y-51190000D02*
X100240000Y-54441500D01*
X92927500Y-40727500D02*
X95520000Y-43320000D01*
X83402500Y-20052500D02*
X86560000Y-23210000D01*
X78640000Y-3990000D02*
X79900000Y-5250000D01*
X92927500Y-33117500D02*
X92927500Y-35560000D01*
X52474190Y9320000D02*
X57340000Y9320000D01*
X78640000Y2540000D02*
X78640000Y-3990000D01*
X64928999Y8798999D02*
X67040000Y10910000D01*
X92300000Y-32490000D02*
X92927500Y-33117500D01*
X78640000Y5960000D02*
X78640000Y2540000D01*
X81915000Y2540000D02*
X78640000Y2540000D01*
X76490001Y8109999D02*
X78640000Y5960000D01*
X83402500Y-16510000D02*
X83402500Y-20052500D01*
X92927500Y-35560000D02*
X92927500Y-40727500D01*
X67040000Y10910000D02*
X72840000Y10910000D01*
X72840000Y10910000D02*
X75640001Y8109999D01*
X57861001Y8798999D02*
X64928999Y8798999D01*
X57340000Y9320000D02*
X57861001Y8798999D01*
X83420000Y-16492500D02*
X83402500Y-16510000D01*
X83402500Y-16510000D02*
X86677500Y-16510000D01*
X75640001Y8109999D02*
X76490001Y8109999D01*
X83402500Y-16482500D02*
X83402500Y-16510000D01*
X86560000Y-23210000D02*
X92240000Y-23210000D01*
X83420000Y-13130000D02*
X83420000Y-16492500D01*
X100071500Y-54610000D02*
X103346500Y-54610000D01*
X74060011Y7659989D02*
X74960000Y6760000D01*
X111940000Y-35522500D02*
X111977500Y-35560000D01*
X115252500Y-35560000D02*
X111977500Y-35560000D01*
X102290000Y-13110000D02*
X102290000Y-16347500D01*
X97690000Y840000D02*
X97690000Y2540000D01*
X102452500Y-19832500D02*
X105790000Y-23170000D01*
X81715001Y7405001D02*
X93115001Y7405001D01*
X102452500Y-16510000D02*
X102452500Y-19832500D01*
X57674601Y8348989D02*
X67184016Y8348989D01*
X111940000Y-32410000D02*
X111940000Y-35522500D01*
X97690000Y2540000D02*
X97690000Y5890000D01*
X100965000Y2540000D02*
X97690000Y2540000D01*
X67873016Y7659989D02*
X74060011Y7659989D01*
X96174999Y7405001D02*
X93115001Y7405001D01*
X102290000Y-16347500D02*
X102452500Y-16510000D01*
X97690000Y-120000D02*
X97690000Y840000D01*
X102452500Y-16510000D02*
X105727500Y-16510000D01*
X57317012Y7991400D02*
X57674601Y8348989D01*
X67184016Y8348989D02*
X67873016Y7659989D01*
X97690000Y5890000D02*
X96174999Y7405001D01*
X74960000Y6760000D02*
X75850000Y6760000D01*
X93115001Y7405001D02*
X94684999Y7405001D01*
X53712000Y7991400D02*
X57317012Y7991400D01*
X81040000Y6730000D02*
X81715001Y7405001D01*
X111780000Y-23170000D02*
X111920000Y-23310000D01*
X105790000Y-23170000D02*
X111780000Y-23170000D01*
X98950000Y-1380000D02*
X97690000Y-120000D01*
X98950000Y-2670000D02*
X98950000Y-1380000D01*
X30932000Y-5208000D02*
X31450000Y-4690000D01*
X47710000Y-5230000D02*
X48370000Y-4570000D01*
X73678590Y9435000D02*
X68695417Y9435000D01*
X76575001Y7108001D02*
X76023013Y7659989D01*
X31450000Y-4690000D02*
X33830000Y-2310000D01*
X33830000Y-2310000D02*
X35146410Y-2310000D01*
X76063501Y-3411497D02*
X76063501Y-226499D01*
X61420000Y-4570000D02*
X62970000Y-6120000D01*
X30852000Y-7228600D02*
X30852000Y-5288000D01*
X76064999Y-225001D02*
X76064999Y5901997D01*
X76064999Y5901997D02*
X76575001Y6411999D01*
X76575001Y6411999D02*
X76575001Y7108001D01*
X44450000Y-5230000D02*
X47710000Y-5230000D01*
X48370000Y-4570000D02*
X61420000Y-4570000D01*
X75453600Y7659990D02*
X73678590Y9435000D01*
X73354998Y-6120000D02*
X76063501Y-3411497D01*
X40540000Y-1320000D02*
X44450000Y-5230000D01*
X35146410Y-2310000D02*
X36146400Y-1310010D01*
X30852000Y-5288000D02*
X31450000Y-4690000D01*
X76023013Y7659989D02*
X75453600Y7659990D01*
X76063501Y-226499D02*
X76064999Y-225001D01*
X62970000Y-6120000D02*
X73354998Y-6120000D01*
X38689990Y-1310010D02*
X38699980Y-1320000D01*
X36146400Y-1310010D02*
X38689990Y-1310010D01*
X38699980Y-1320000D02*
X40540000Y-1320000D01*
M02*
