M48
; DRILL file {KiCad (5.1.6-0-10_14)} date Tuesday, May 03, 2022 at 10:30:29 PM
; FORMAT={-:-/ absolute / metric / decimal}
; #@! TF.CreationDate,2022-05-03T22:30:29+09:00
; #@! TF.GenerationSoftware,Kicad,Pcbnew,(5.1.6-0-10_14)
; #@! TF.FileFunction,NonPlated,1,2,NPTH
FMAT,2
METRIC
T1C0.600
%
G90
G05
T1
X134.674Y120.357
X134.674Y119.468
X134.674Y118.579
X134.674Y117.69
X134.674Y116.801
X134.674Y115.912
X134.674Y115.023
X136.706Y120.357
X136.706Y119.468
X136.706Y118.579
X136.706Y117.69
X136.706Y116.801
X136.706Y115.912
X136.706Y115.023
X134.674Y38.697
X134.674Y37.808
X134.674Y36.919
X134.674Y36.03
X134.674Y35.141
X134.674Y34.252
X134.674Y33.363
X136.706Y38.697
X136.706Y37.808
X136.706Y36.919
X136.706Y36.03
X136.706Y35.141
X136.706Y34.252
X136.706Y33.363
T0
M30
