G04 #@! TF.GenerationSoftware,KiCad,Pcbnew,(5.1.6-0-10_14)*
G04 #@! TF.CreationDate,2022-02-21T07:56:40+09:00*
G04 #@! TF.ProjectId,cool936,636f6f6c-3933-4362-9e6b-696361645f70,rev?*
G04 #@! TF.SameCoordinates,Original*
G04 #@! TF.FileFunction,Copper,L1,Top*
G04 #@! TF.FilePolarity,Positive*
%FSLAX46Y46*%
G04 Gerber Fmt 4.6, Leading zero omitted, Abs format (unit mm)*
G04 Created by KiCad (PCBNEW (5.1.6-0-10_14)) date 2022-02-21 07:56:40*
%MOMM*%
%LPD*%
G01*
G04 APERTURE LIST*
G04 #@! TA.AperFunction,SMDPad,CuDef*
%ADD10R,0.950000X1.300000*%
G04 #@! TD*
G04 #@! TA.AperFunction,ComponentPad*
%ADD11R,1.397000X1.397000*%
G04 #@! TD*
G04 #@! TA.AperFunction,ComponentPad*
%ADD12C,1.397000*%
G04 #@! TD*
G04 #@! TA.AperFunction,SMDPad,CuDef*
%ADD13R,1.300000X0.950000*%
G04 #@! TD*
G04 #@! TA.AperFunction,ViaPad*
%ADD14C,0.800000*%
G04 #@! TD*
G04 #@! TA.AperFunction,ViaPad*
%ADD15C,4.000000*%
G04 #@! TD*
G04 #@! TA.AperFunction,ComponentPad*
%ADD16C,2.000000*%
G04 #@! TD*
G04 #@! TA.AperFunction,ComponentPad*
%ADD17C,1.524000*%
G04 #@! TD*
G04 #@! TA.AperFunction,Conductor*
%ADD18C,0.250000*%
G04 #@! TD*
G04 APERTURE END LIST*
D10*
X208240000Y-6065000D03*
D11*
X208240000Y-8100000D03*
D12*
X208240000Y-480000D03*
D10*
X208240000Y-2515000D03*
X227340000Y-6325000D03*
D11*
X227340000Y-8360000D03*
D12*
X227340000Y-740000D03*
D10*
X227340000Y-2775000D03*
X246980000Y-2565000D03*
D11*
X246980000Y-4600000D03*
D12*
X246980000Y3020000D03*
D10*
X246980000Y985000D03*
X189180000Y-6195000D03*
D11*
X189180000Y-8230000D03*
D12*
X189180000Y-610000D03*
D10*
X189180000Y-2645000D03*
X194010000Y-22995000D03*
D11*
X194010000Y-25030000D03*
D12*
X194010000Y-17410000D03*
D10*
X194010000Y-19445000D03*
X212880000Y-23185000D03*
D11*
X212880000Y-25220000D03*
D12*
X212880000Y-17600000D03*
D10*
X212880000Y-19635000D03*
X232080000Y-24715000D03*
D11*
X232080000Y-26750000D03*
D12*
X232080000Y-19130000D03*
D10*
X232080000Y-21165000D03*
X234570000Y-24695000D03*
D11*
X234570000Y-26730000D03*
D12*
X234570000Y-19110000D03*
D10*
X234570000Y-21145000D03*
D13*
X260415000Y-27450000D03*
D11*
X258380000Y-27450000D03*
D12*
X266000000Y-27450000D03*
D13*
X263965000Y-27450000D03*
D10*
X203500000Y-44115000D03*
D11*
X203500000Y-46150000D03*
D12*
X203500000Y-38530000D03*
D10*
X203500000Y-40565000D03*
X222500000Y-44145000D03*
D11*
X222500000Y-46180000D03*
D12*
X222500000Y-38560000D03*
D10*
X222500000Y-40595000D03*
X243780000Y-38825000D03*
D11*
X243780000Y-40860000D03*
D12*
X243780000Y-33240000D03*
D10*
X243780000Y-35275000D03*
X201760000Y-56865000D03*
D11*
X201760000Y-58900000D03*
D12*
X201760000Y-51280000D03*
D10*
X201760000Y-53315000D03*
X267830000Y-4255000D03*
D11*
X267830000Y-6290000D03*
D12*
X267830000Y1330000D03*
D10*
X267830000Y-705000D03*
X256480000Y-56850000D03*
D11*
X256480000Y-58885000D03*
D12*
X256480000Y-51265000D03*
D10*
X256480000Y-53300000D03*
X246430000Y-38825000D03*
D11*
X246430000Y-40860000D03*
D12*
X246430000Y-33240000D03*
D10*
X246430000Y-35275000D03*
D14*
X264795500Y-33782000D03*
X248285500Y-36322000D03*
X264795500Y-32258000D03*
X248285500Y-34798000D03*
D15*
X253365500Y-35560000D03*
X259715500Y-33020000D03*
D14*
X224314000Y-52832000D03*
X207804000Y-55372000D03*
X224314000Y-51308000D03*
X207804000Y-53848000D03*
D15*
X212884000Y-54610000D03*
X219234000Y-52070000D03*
G04 #@! TA.AperFunction,ComponentPad*
G36*
G01*
X224187690Y15604775D02*
X224880510Y15204775D01*
G75*
G02*
X225191632Y14043653I-425000J-736122D01*
G01*
X225191632Y14043653D01*
G75*
G02*
X224030510Y13732531I-736122J425000D01*
G01*
X223337690Y14132531D01*
G75*
G02*
X223026568Y15293653I425000J736122D01*
G01*
X223026568Y15293653D01*
G75*
G02*
X224187690Y15604775I736122J-425000D01*
G01*
G37*
G04 #@! TD.AperFunction*
G04 #@! TA.AperFunction,ComponentPad*
G36*
G01*
X220788652Y12717469D02*
X221481472Y12317469D01*
G75*
G02*
X221792594Y11156347I-425000J-736122D01*
G01*
X221792594Y11156347D01*
G75*
G02*
X220631472Y10845225I-736122J425000D01*
G01*
X219938652Y11245225D01*
G75*
G02*
X219627530Y12406347I425000J736122D01*
G01*
X219627530Y12406347D01*
G75*
G02*
X220788652Y12717469I736122J-425000D01*
G01*
G37*
G04 #@! TD.AperFunction*
G04 #@! TA.AperFunction,ComponentPad*
G36*
G01*
X217324550Y14717469D02*
X218017370Y14317469D01*
G75*
G02*
X218328492Y13156347I-425000J-736122D01*
G01*
X218328492Y13156347D01*
G75*
G02*
X217167370Y12845225I-736122J425000D01*
G01*
X216474550Y13245225D01*
G75*
G02*
X216163428Y14406347I425000J736122D01*
G01*
X216163428Y14406347D01*
G75*
G02*
X217324550Y14717469I736122J-425000D01*
G01*
G37*
G04 #@! TD.AperFunction*
G04 #@! TA.AperFunction,ComponentPad*
G36*
G01*
X214726474Y16217469D02*
X215419294Y15817469D01*
G75*
G02*
X215730416Y14656347I-425000J-736122D01*
G01*
X215730416Y14656347D01*
G75*
G02*
X214569294Y14345225I-736122J425000D01*
G01*
X213876474Y14745225D01*
G75*
G02*
X213565352Y15906347I425000J736122D01*
G01*
X213565352Y15906347D01*
G75*
G02*
X214726474Y16217469I736122J-425000D01*
G01*
G37*
G04 #@! TD.AperFunction*
D16*
X217014583Y9775000D03*
X211385417Y13025000D03*
D17*
X263478000Y-7521400D03*
X260938000Y-7521400D03*
X258398000Y-7521400D03*
X255858000Y-7521400D03*
X253318000Y-7521400D03*
X250778000Y-7521400D03*
X248238000Y-7521400D03*
X245698000Y-7521400D03*
X243158000Y-7521400D03*
X240618000Y-7521400D03*
X238078000Y-7521400D03*
X235538000Y-7521400D03*
X235538000Y7698600D03*
X238078000Y7698600D03*
X240618000Y7698600D03*
X243158000Y7698600D03*
X245698000Y7698600D03*
X248238000Y7698600D03*
X250778000Y7698600D03*
X253318000Y7698600D03*
X255858000Y7698600D03*
X258398000Y7698600D03*
X260938000Y7698600D03*
X263478000Y7698600D03*
D14*
X202882500Y-33782000D03*
X186372500Y-36322000D03*
X202882500Y-32258000D03*
X186372500Y-34798000D03*
D15*
X191452500Y-35560000D03*
X197802500Y-33020000D03*
D14*
X221932500Y-33782000D03*
X205422500Y-36322000D03*
X221932500Y-32258000D03*
X205422500Y-34798000D03*
D15*
X210502500Y-35560000D03*
X216852500Y-33020000D03*
D14*
X240982500Y-33782000D03*
X224472500Y-36322000D03*
X240982500Y-32258000D03*
X224472500Y-34798000D03*
D15*
X229552500Y-35560000D03*
X235902500Y-33020000D03*
D14*
X198120000Y-52832000D03*
X181610000Y-55372000D03*
X198120000Y-51308000D03*
X181610000Y-53848000D03*
D15*
X186690000Y-54610000D03*
X193040000Y-52070000D03*
D14*
X267175999Y4318000D03*
X250665999Y1778000D03*
X267175999Y5842000D03*
X250665999Y3302000D03*
D15*
X255745999Y2540000D03*
X262095999Y5080000D03*
D14*
X252888500Y-52832000D03*
X236378500Y-55372000D03*
X252888500Y-51308000D03*
X236378500Y-53848000D03*
D15*
X241458500Y-54610000D03*
X247808500Y-52070000D03*
D10*
X232390000Y-53365000D03*
D12*
X232390000Y-51330000D03*
D11*
X232390000Y-58950000D03*
D10*
X232390000Y-56915000D03*
D14*
X188595000Y4318000D03*
X172085000Y1778000D03*
X188595000Y5842000D03*
X172085000Y3302000D03*
D15*
X177165000Y2540000D03*
X183515000Y5080000D03*
D14*
X207645000Y4318000D03*
X191135000Y1778000D03*
X207645000Y5842000D03*
X191135000Y3302000D03*
D15*
X196215000Y2540000D03*
X202565000Y5080000D03*
D14*
X226695000Y4318000D03*
X210185000Y1778000D03*
X226695000Y5842000D03*
X210185000Y3302000D03*
D15*
X215265000Y2540000D03*
X221615000Y5080000D03*
D14*
X245745000Y4318000D03*
X229235000Y1778000D03*
X245745000Y5842000D03*
X229235000Y3302000D03*
D15*
X234315000Y2540000D03*
X240665000Y5080000D03*
D14*
X193357500Y-14732000D03*
X176847500Y-17272000D03*
X193357500Y-13208000D03*
X176847500Y-15748000D03*
D15*
X181927500Y-16510000D03*
X188277500Y-13970000D03*
D14*
X212407500Y-14732000D03*
X195897500Y-17272000D03*
X212407500Y-13208000D03*
X195897500Y-15748000D03*
D15*
X200977500Y-16510000D03*
X207327500Y-13970000D03*
D14*
X231457500Y-14732000D03*
X214947500Y-17272000D03*
X231457500Y-13208000D03*
X214947500Y-15748000D03*
D15*
X220027500Y-16510000D03*
X226377500Y-13970000D03*
D14*
X250507500Y-14732000D03*
X233997500Y-17272000D03*
X250507500Y-13208000D03*
X233997500Y-15748000D03*
D15*
X239077500Y-16510000D03*
X245427500Y-13970000D03*
D14*
X269557500Y-14732000D03*
X253047500Y-17272000D03*
X269557500Y-13208000D03*
X253047500Y-15748000D03*
D15*
X258127500Y-16510000D03*
X264477500Y-13970000D03*
D14*
X235760000Y-12140000D03*
X252550000Y-4600000D03*
X264420000Y-4600000D03*
X265490000Y-9820000D03*
X208970000Y-27730000D03*
X208930000Y-23950000D03*
X213860000Y-8840000D03*
X213940000Y-5850000D03*
X252370000Y-26070000D03*
X250640000Y-23020000D03*
X249650000Y-5325000D03*
X249780000Y-11040000D03*
X244910000Y-29230000D03*
X190570000Y-29340000D03*
X218930000Y-29340000D03*
X232200000Y-29210000D03*
X242880000Y-3880000D03*
X240710000Y-4280000D03*
X214490000Y-29490000D03*
X215570000Y-23710000D03*
X228320000Y-29350000D03*
X228330000Y-31150010D03*
X178652500Y-10747500D03*
X218140000Y-10880000D03*
X233740000Y-10220000D03*
X192970000Y-9810000D03*
X218120000Y-9800000D03*
X233700000Y-8970000D03*
X209450000Y-50860000D03*
X209450000Y-42140000D03*
X204410000Y-31760000D03*
X204440000Y-22820000D03*
X192970000Y-5260000D03*
X216650000Y-8960000D03*
X233630000Y-7600000D03*
X237880000Y-50360000D03*
X237890000Y-43210000D03*
X229640000Y-31240000D03*
X228770000Y-22100000D03*
X216650000Y-5880000D03*
X249520000Y-22200000D03*
X255380000Y-32440000D03*
X231980000Y-11210000D03*
X231450000Y-3560000D03*
X254830000Y-12190000D03*
X252230000Y-710000D03*
X238060000Y-10150000D03*
X244640000Y-2380000D03*
X249140000Y-680000D03*
D18*
X189180000Y-610000D02*
X189180000Y-2645000D01*
X208240000Y-480000D02*
X208240000Y-2515000D01*
X227340000Y-740000D02*
X227340000Y-2775000D01*
X246980000Y3020000D02*
X246980000Y985000D01*
X194010000Y-17410000D02*
X194010000Y-19445000D01*
X212880000Y-19635000D02*
X212880000Y-17600000D01*
X232080000Y-19130000D02*
X232080000Y-21165000D01*
X234570000Y-21145000D02*
X234570000Y-19110000D01*
X235760000Y-17920000D02*
X235760000Y-12140000D01*
X234570000Y-19110000D02*
X235760000Y-17920000D01*
X263965000Y-27450000D02*
X266000000Y-27450000D01*
X203500000Y-38530000D02*
X203500000Y-40565000D01*
X222500000Y-40595000D02*
X222500000Y-38560000D01*
X243780000Y-35275000D02*
X243780000Y-33240000D01*
X201760000Y-51280000D02*
X201760000Y-53315000D01*
X267830000Y1330000D02*
X267830000Y-705000D01*
X256480000Y-51265000D02*
X256480000Y-53300000D01*
X246430000Y-33240000D02*
X246430000Y-35275000D01*
X232390000Y-51330000D02*
X232390000Y-53365000D01*
X189180000Y-8230000D02*
X189180000Y-6195000D01*
X208240000Y-6065000D02*
X208240000Y-8100000D01*
X227340000Y-6325000D02*
X227340000Y-8360000D01*
X246980000Y-4600000D02*
X246980000Y-2565000D01*
X267830000Y-4255000D02*
X267830000Y-6290000D01*
X252550000Y-4600000D02*
X264420000Y-4600000D01*
X258380000Y-27450000D02*
X260415000Y-27450000D01*
X234570000Y-26730000D02*
X234570000Y-24695000D01*
X232080000Y-24715000D02*
X232080000Y-26750000D01*
X212880000Y-25220000D02*
X212880000Y-23185000D01*
X194010000Y-22995000D02*
X194010000Y-25030000D01*
X240830000Y-1980000D02*
X240340000Y-2470000D01*
X232705001Y-4354999D02*
X234590000Y-2470000D01*
X234590000Y-2470000D02*
X240340000Y-2470000D01*
X233380000Y-18220000D02*
X232705001Y-17545001D01*
X232705001Y-17545001D02*
X232705001Y-4354999D01*
X233380000Y-23440000D02*
X233380000Y-18220000D01*
X234570000Y-24630000D02*
X233380000Y-23440000D01*
X234570000Y-24695000D02*
X234570000Y-24630000D01*
X240830000Y350000D02*
X240830000Y-1980000D01*
X243590000Y3110000D02*
X240830000Y350000D01*
X243590000Y5590600D02*
X243590000Y3110000D01*
X245698000Y7698600D02*
X243590000Y5590600D01*
X203500000Y-44115000D02*
X203500000Y-46150000D01*
X222500000Y-44145000D02*
X222500000Y-46180000D01*
X243780000Y-40860000D02*
X243780000Y-38825000D01*
X246430000Y-38825000D02*
X246430000Y-40860000D01*
X269410000Y-9080000D02*
X268670000Y-9820000D01*
X268670000Y-9820000D02*
X265490000Y-9820000D01*
X269410000Y6810000D02*
X269410000Y-9080000D01*
X267430000Y8790000D02*
X269410000Y6810000D01*
X254570000Y8790000D02*
X267430000Y8790000D01*
X247780000Y8820000D02*
X254540000Y8820000D01*
X254540000Y8820000D02*
X254570000Y8790000D01*
X244299390Y8839990D02*
X247760010Y8839990D01*
X247760010Y8839990D02*
X247780000Y8820000D01*
X243158000Y7698600D02*
X244299390Y8839990D01*
X256480000Y-56850000D02*
X256480000Y-58885000D01*
X232390000Y-56915000D02*
X232390000Y-58950000D01*
X201760000Y-56865000D02*
X201760000Y-58900000D01*
X208930000Y-27690000D02*
X208970000Y-27730000D01*
X208930000Y-23950000D02*
X208930000Y-27690000D01*
X213940000Y-5850000D02*
X213940000Y-8760000D01*
X213940000Y-8760000D02*
X213860000Y-8840000D01*
X250640000Y-24340000D02*
X252370000Y-26070000D01*
X250640000Y-23020000D02*
X250640000Y-24340000D01*
X255858000Y-7521400D02*
X258398000Y-7521400D01*
X248060000Y-5640000D02*
X248375000Y-5325000D01*
X248375000Y-5325000D02*
X249650000Y-5325000D01*
X245780000Y-5640000D02*
X248060000Y-5640000D01*
X251504999Y3345599D02*
X251504999Y-4755001D01*
X249650000Y-5325000D02*
X250935000Y-5325000D01*
X250935000Y-5325000D02*
X251504999Y-4755001D01*
X249782499Y-11667501D02*
X249780000Y-11665002D01*
X249780000Y-11665002D02*
X249780000Y-11040000D01*
X245410000Y-19500000D02*
X249782499Y-15127501D01*
X249782499Y-15127501D02*
X249782499Y-11667501D01*
X245410000Y-22430000D02*
X245410000Y-19500000D01*
X244910000Y-22930000D02*
X245410000Y-22430000D01*
X244910000Y-29230000D02*
X244910000Y-22930000D01*
X191604999Y-30694999D02*
X190570000Y-29660000D01*
X190570000Y-29660000D02*
X190570000Y-29340000D01*
X201503001Y-32983001D02*
X199214999Y-30694999D01*
X199214999Y-30694999D02*
X191604999Y-30694999D01*
X209595001Y-30215001D02*
X206827001Y-32983001D01*
X206827001Y-32983001D02*
X201503001Y-32983001D01*
X218930000Y-29340000D02*
X218054999Y-30215001D01*
X218054999Y-30215001D02*
X209595001Y-30215001D01*
X219405010Y-30425010D02*
X218930000Y-29950000D01*
X218930000Y-29950000D02*
X218930000Y-29340000D01*
X224863001Y-32983001D02*
X222305010Y-30425010D01*
X222305010Y-30425010D02*
X219405010Y-30425010D01*
X232200000Y-32630000D02*
X231846999Y-32983001D01*
X231846999Y-32983001D02*
X224863001Y-32983001D01*
X232200000Y-29210000D02*
X232200000Y-32630000D01*
X242880000Y-3880000D02*
X244020000Y-3880000D01*
X244020000Y-3880000D02*
X245780000Y-5640000D01*
X255858000Y7698600D02*
X251504999Y3345599D01*
X259940010Y-6090010D02*
X260938000Y-7088000D01*
X260938000Y-7088000D02*
X260938000Y-7521400D01*
X242520010Y-6090010D02*
X259940010Y-6090010D01*
X240710000Y-4280000D02*
X242520010Y-6090010D01*
X215570000Y-23710000D02*
X215570000Y-28410000D01*
X215570000Y-28410000D02*
X214490000Y-29490000D01*
X228330000Y-31150010D02*
X228330000Y-29360000D01*
X228330000Y-29360000D02*
X228320000Y-29350000D01*
X217730000Y-10470000D02*
X217452500Y-10747500D01*
X217452500Y-10747500D02*
X178652500Y-10747500D01*
X218140000Y-10880000D02*
X217730000Y-10470000D01*
X248238000Y-7521400D02*
X246339390Y-9420010D01*
X246339390Y-9420010D02*
X234539990Y-9420010D01*
X234539990Y-9420010D02*
X233740000Y-10220000D01*
X192970000Y-5260000D02*
X192970000Y-9810000D01*
X218120000Y-9800000D02*
X192980000Y-9800000D01*
X192980000Y-9800000D02*
X192970000Y-9810000D01*
X245698000Y-7521400D02*
X244249400Y-8970000D01*
X244249400Y-8970000D02*
X233700000Y-8970000D01*
X209450000Y-42140000D02*
X209450000Y-50860000D01*
X204440000Y-22820000D02*
X204440000Y-31730000D01*
X204440000Y-31730000D02*
X204410000Y-31760000D01*
X216650000Y-5880000D02*
X216650000Y-8960000D01*
X243158000Y-7521400D02*
X242070999Y-6434399D01*
X242070999Y-6434399D02*
X234795601Y-6434399D01*
X234795601Y-6434399D02*
X233630000Y-7600000D01*
X237890000Y-43210000D02*
X237890000Y-50350000D01*
X237890000Y-50350000D02*
X237880000Y-50360000D01*
X228770000Y-22100000D02*
X229640000Y-22970000D01*
X229640000Y-22970000D02*
X229640000Y-31240000D01*
X253220000Y-22180000D02*
X249540000Y-22180000D01*
X249540000Y-22180000D02*
X249520000Y-22200000D01*
X253220000Y-22180000D02*
X255380000Y-24340000D01*
X255380000Y-24340000D02*
X255380000Y-32440000D01*
X255370000Y-32430000D02*
X255380000Y-32440000D01*
X231450000Y-3560000D02*
X231980000Y-4090000D01*
X231980000Y-4090000D02*
X231980000Y-11210000D01*
X264010000Y-2530000D02*
X254050000Y-2530000D01*
X254050000Y-2530000D02*
X252230000Y-710000D01*
X265530000Y-4050000D02*
X264010000Y-2530000D01*
X265530000Y-7840000D02*
X265530000Y-4050000D01*
X261180000Y-12190000D02*
X265530000Y-7840000D01*
X254830000Y-12190000D02*
X261180000Y-12190000D01*
X238060000Y-10150000D02*
X250930000Y-10150000D01*
X250930000Y-10150000D02*
X251310000Y-10150000D01*
X252790000Y-10150000D02*
X250930000Y-10150000D01*
X254830000Y-12190000D02*
X252790000Y-10150000D01*
X249140000Y-680000D02*
X245540000Y-680000D01*
X244640000Y-2380000D02*
X244640000Y-1580000D01*
X244640000Y-1580000D02*
X245540000Y-680000D01*
M02*
