G04 #@! TF.GenerationSoftware,KiCad,Pcbnew,(5.1.6-0-10_14)*
G04 #@! TF.CreationDate,2022-03-06T15:35:19+09:00*
G04 #@! TF.ProjectId,cool936,636f6f6c-3933-4362-9e6b-696361645f70,rev?*
G04 #@! TF.SameCoordinates,Original*
G04 #@! TF.FileFunction,Copper,L1,Top*
G04 #@! TF.FilePolarity,Positive*
%FSLAX46Y46*%
G04 Gerber Fmt 4.6, Leading zero omitted, Abs format (unit mm)*
G04 Created by KiCad (PCBNEW (5.1.6-0-10_14)) date 2022-03-06 15:35:19*
%MOMM*%
%LPD*%
G01*
G04 APERTURE LIST*
G04 #@! TA.AperFunction,SMDPad,CuDef*
%ADD10R,0.950000X1.300000*%
G04 #@! TD*
G04 #@! TA.AperFunction,ComponentPad*
%ADD11C,1.397000*%
G04 #@! TD*
G04 #@! TA.AperFunction,ComponentPad*
%ADD12R,1.397000X1.397000*%
G04 #@! TD*
G04 #@! TA.AperFunction,ViaPad*
%ADD13C,0.800000*%
G04 #@! TD*
G04 #@! TA.AperFunction,ViaPad*
%ADD14C,4.000000*%
G04 #@! TD*
G04 #@! TA.AperFunction,SMDPad,CuDef*
%ADD15R,1.300000X0.950000*%
G04 #@! TD*
G04 #@! TA.AperFunction,ComponentPad*
%ADD16C,1.524000*%
G04 #@! TD*
G04 #@! TA.AperFunction,ComponentPad*
%ADD17C,2.000000*%
G04 #@! TD*
G04 #@! TA.AperFunction,Conductor*
%ADD18C,0.250000*%
G04 #@! TD*
G04 APERTURE END LIST*
D10*
X39220000Y-19615000D03*
D11*
X39220000Y-17580000D03*
D12*
X39220000Y-25200000D03*
D10*
X39220000Y-23165000D03*
X46790000Y-35765000D03*
D11*
X46790000Y-33730000D03*
D12*
X46790000Y-41350000D03*
D10*
X46790000Y-39315000D03*
X95100000Y-54905000D03*
D11*
X95100000Y-52870000D03*
D12*
X95100000Y-60490000D03*
D10*
X95100000Y-58455000D03*
D13*
X36195000Y4318000D03*
X19685000Y1778000D03*
X36195000Y5842000D03*
X19685000Y3302000D03*
D14*
X24765000Y2540000D03*
X31115000Y5080000D03*
D10*
X92090000Y-54905000D03*
D11*
X92090000Y-52870000D03*
D12*
X92090000Y-60490000D03*
D10*
X92090000Y-58455000D03*
D14*
X50165000Y5080000D03*
X43815000Y2540000D03*
D13*
X38735000Y3302000D03*
X55245000Y5842000D03*
X38735000Y1778000D03*
X55245000Y4318000D03*
D14*
X69215000Y5080000D03*
X62865000Y2540000D03*
D13*
X57785000Y3302000D03*
X74295000Y5842000D03*
X57785000Y1778000D03*
X74295000Y4318000D03*
D10*
X89230000Y-40645000D03*
D11*
X89230000Y-38610000D03*
D12*
X89230000Y-46230000D03*
D10*
X89230000Y-44195000D03*
X108220000Y-40795000D03*
D11*
X108220000Y-38760000D03*
D12*
X108220000Y-46380000D03*
D10*
X108220000Y-44345000D03*
X110750000Y-44375000D03*
D12*
X110750000Y-46410000D03*
D11*
X110750000Y-38790000D03*
D10*
X110750000Y-40825000D03*
D15*
X48555000Y-48660000D03*
D11*
X50590000Y-48660000D03*
D12*
X42970000Y-48660000D03*
D15*
X45005000Y-48660000D03*
X61305000Y-48730000D03*
D11*
X63340000Y-48730000D03*
D12*
X55720000Y-48730000D03*
D15*
X57755000Y-48730000D03*
D13*
X114776500Y-52832000D03*
X98266500Y-55372000D03*
X114776500Y-51308000D03*
X98266500Y-53848000D03*
D14*
X103346500Y-54610000D03*
X109696500Y-52070000D03*
D10*
X36880000Y435000D03*
D11*
X36880000Y2470000D03*
D12*
X36880000Y-5150000D03*
D10*
X36880000Y-3115000D03*
D16*
X25772000Y7991400D03*
X28312000Y7991400D03*
X30852000Y7991400D03*
X33392000Y7991400D03*
X35932000Y7991400D03*
X38472000Y7991400D03*
X41012000Y7991400D03*
X43552000Y7991400D03*
X46092000Y7991400D03*
X48632000Y7991400D03*
X51172000Y7991400D03*
X53712000Y7991400D03*
X53712000Y-7228600D03*
X51172000Y-7228600D03*
X48632000Y-7228600D03*
X46092000Y-7228600D03*
X43552000Y-7228600D03*
X41012000Y-7228600D03*
X38472000Y-7228600D03*
X35932000Y-7228600D03*
X33392000Y-7228600D03*
X30852000Y-7228600D03*
X28312000Y-7228600D03*
X25772000Y-7228600D03*
G04 #@! TA.AperFunction,ComponentPad*
G36*
G01*
X69513526Y17822531D02*
X68820706Y17422531D01*
G75*
G02*
X67659584Y17733653I-425000J736122D01*
G01*
X67659584Y17733653D01*
G75*
G02*
X67970706Y18894775I736122J425000D01*
G01*
X68663526Y19294775D01*
G75*
G02*
X69824648Y18983653I425000J-736122D01*
G01*
X69824648Y18983653D01*
G75*
G02*
X69513526Y17822531I-736122J-425000D01*
G01*
G37*
G04 #@! TD.AperFunction*
G04 #@! TA.AperFunction,ComponentPad*
G36*
G01*
X66915450Y16322531D02*
X66222630Y15922531D01*
G75*
G02*
X65061508Y16233653I-425000J736122D01*
G01*
X65061508Y16233653D01*
G75*
G02*
X65372630Y17394775I736122J425000D01*
G01*
X66065450Y17794775D01*
G75*
G02*
X67226572Y17483653I425000J-736122D01*
G01*
X67226572Y17483653D01*
G75*
G02*
X66915450Y16322531I-736122J-425000D01*
G01*
G37*
G04 #@! TD.AperFunction*
G04 #@! TA.AperFunction,ComponentPad*
G36*
G01*
X63451348Y14322531D02*
X62758528Y13922531D01*
G75*
G02*
X61597406Y14233653I-425000J736122D01*
G01*
X61597406Y14233653D01*
G75*
G02*
X61908528Y15394775I736122J425000D01*
G01*
X62601348Y15794775D01*
G75*
G02*
X63762470Y15483653I425000J-736122D01*
G01*
X63762470Y15483653D01*
G75*
G02*
X63451348Y14322531I-736122J-425000D01*
G01*
G37*
G04 #@! TD.AperFunction*
G04 #@! TA.AperFunction,ComponentPad*
G36*
G01*
X64252310Y9935225D02*
X63559490Y9535225D01*
G75*
G02*
X62398368Y9846347I-425000J736122D01*
G01*
X62398368Y9846347D01*
G75*
G02*
X62709490Y11007469I736122J425000D01*
G01*
X63402310Y11407469D01*
G75*
G02*
X64563432Y11096347I425000J-736122D01*
G01*
X64563432Y11096347D01*
G75*
G02*
X64252310Y9935225I-736122J-425000D01*
G01*
G37*
G04 #@! TD.AperFunction*
D14*
X83502500Y-52070000D03*
X77152500Y-54610000D03*
D13*
X72072500Y-53848000D03*
X88582500Y-51308000D03*
X72072500Y-55372000D03*
X88582500Y-52832000D03*
D14*
X54927500Y-13970000D03*
X48577500Y-16510000D03*
D13*
X43497500Y-15748000D03*
X60007500Y-13208000D03*
X43497500Y-17272000D03*
X60007500Y-14732000D03*
D14*
X64452500Y-52070000D03*
X58102500Y-54610000D03*
D13*
X53022500Y-53848000D03*
X69532500Y-51308000D03*
X53022500Y-55372000D03*
X69532500Y-52832000D03*
D14*
X33496000Y-13970000D03*
X27146000Y-16510000D03*
D13*
X22066000Y-15748000D03*
X38576000Y-13208000D03*
X22066000Y-17272000D03*
X38576000Y-14732000D03*
D14*
X88265000Y5080000D03*
X81915000Y2540000D03*
D13*
X76835000Y3302000D03*
X93345000Y5842000D03*
X76835000Y1778000D03*
X93345000Y4318000D03*
D14*
X107315000Y5080000D03*
X100965000Y2540000D03*
D13*
X95885000Y3302000D03*
X112395000Y5842000D03*
X95885000Y1778000D03*
X112395000Y4318000D03*
D14*
X45402500Y-52070000D03*
X39052500Y-54610000D03*
D13*
X33972500Y-53848000D03*
X50482500Y-51308000D03*
X33972500Y-55372000D03*
X50482500Y-52832000D03*
D14*
X93027500Y-13970000D03*
X86677500Y-16510000D03*
D13*
X81597500Y-15748000D03*
X98107500Y-13208000D03*
X81597500Y-17272000D03*
X98107500Y-14732000D03*
D14*
X38259000Y-33020000D03*
X31909000Y-35560000D03*
D13*
X26829000Y-34798000D03*
X43339000Y-32258000D03*
X26829000Y-36322000D03*
X43339000Y-33782000D03*
D14*
X73977500Y-13970000D03*
X67627500Y-16510000D03*
D13*
X62547500Y-15748000D03*
X79057500Y-13208000D03*
X62547500Y-17272000D03*
X79057500Y-14732000D03*
D14*
X112077500Y-13970000D03*
X105727500Y-16510000D03*
D13*
X100647500Y-15748000D03*
X117157500Y-13208000D03*
X100647500Y-17272000D03*
X117157500Y-14732000D03*
D17*
X74324583Y12685000D03*
X68695417Y9435000D03*
D10*
X75040000Y-2595000D03*
D11*
X75040000Y-560000D03*
D12*
X75040000Y-8180000D03*
D10*
X75040000Y-6145000D03*
X58200000Y-2735000D03*
D11*
X58200000Y-700000D03*
D12*
X58200000Y-8320000D03*
D10*
X58200000Y-6285000D03*
X96480000Y-2535000D03*
D11*
X96480000Y-500000D03*
D12*
X96480000Y-8120000D03*
D10*
X96480000Y-6085000D03*
D14*
X121602500Y-33020000D03*
X115252500Y-35560000D03*
D13*
X110172500Y-34798000D03*
X126682500Y-32258000D03*
X110172500Y-36322000D03*
X126682500Y-33782000D03*
D10*
X93900000Y-2625000D03*
D11*
X93900000Y-590000D03*
D12*
X93900000Y-8210000D03*
D10*
X93900000Y-6175000D03*
D15*
X87925000Y-10620000D03*
D11*
X89960000Y-10620000D03*
D12*
X82340000Y-10620000D03*
D15*
X84375000Y-10620000D03*
X102965000Y-10620000D03*
D12*
X100930000Y-10620000D03*
D11*
X108550000Y-10620000D03*
D15*
X106515000Y-10620000D03*
D14*
X83502500Y-33020000D03*
X77152500Y-35560000D03*
D13*
X72072500Y-34798000D03*
X88582500Y-32258000D03*
X72072500Y-36322000D03*
X88582500Y-33782000D03*
D14*
X64452500Y-33020000D03*
X58102500Y-35560000D03*
D13*
X53022500Y-34798000D03*
X69532500Y-32258000D03*
X53022500Y-36322000D03*
X69532500Y-33782000D03*
D10*
X70160000Y-40605000D03*
D11*
X70160000Y-38570000D03*
D12*
X70160000Y-46190000D03*
D10*
X70160000Y-44155000D03*
X79700000Y-19645000D03*
D11*
X79700000Y-17610000D03*
D12*
X79700000Y-25230000D03*
D10*
X79700000Y-23195000D03*
X60690000Y-19695000D03*
D11*
X60690000Y-17660000D03*
D12*
X60690000Y-25280000D03*
D10*
X60690000Y-23245000D03*
D14*
X102552500Y-33020000D03*
X96202500Y-35560000D03*
D13*
X91122500Y-34798000D03*
X107632500Y-32258000D03*
X91122500Y-36322000D03*
X107632500Y-33782000D03*
X51230000Y-23860000D03*
X51270000Y-32720000D03*
X52870000Y-43480000D03*
X52820000Y-47370000D03*
X52790000Y-23800000D03*
X52790000Y-32720000D03*
X40960000Y-26370000D03*
X85960000Y-12940000D03*
X85960000Y-5340000D03*
X59140000Y9550000D03*
X23871000Y-12529000D03*
X29600000Y-12530000D03*
X54270000Y-32970000D03*
X54220000Y-23800000D03*
X44840000Y-12780000D03*
X44790000Y-4250000D03*
X54070000Y-51600000D03*
X54130000Y-43540000D03*
X76870000Y-32410000D03*
X64290000Y-13600000D03*
X64220000Y-5290000D03*
X73900000Y-43150000D03*
X73960000Y-50910000D03*
X55590000Y2540000D03*
X76870000Y-23190000D03*
X79900000Y-5250000D03*
X92240000Y-23210000D03*
X92300000Y-32490000D03*
X100240000Y-43320000D03*
X83420000Y-13130000D03*
X100240000Y-51190000D03*
X111940000Y-32410000D03*
X98950000Y-2670000D03*
X102290000Y-13110000D03*
X111920000Y-23310000D03*
X75850000Y6760000D03*
X81040000Y6730000D03*
D18*
X36880000Y2470000D02*
X36880000Y435000D01*
X36880000Y2230000D02*
X36880000Y195000D01*
X58200000Y-700000D02*
X58200000Y-2735000D01*
X75040000Y-560000D02*
X75040000Y-2595000D01*
X93900000Y-590000D02*
X93900000Y-2625000D01*
X96480000Y-500000D02*
X96480000Y-2535000D01*
X60690000Y-17660000D02*
X60690000Y-19695000D01*
X79700000Y-17610000D02*
X79700000Y-19645000D01*
X89960000Y-10620000D02*
X87925000Y-10620000D01*
X106515000Y-10620000D02*
X108550000Y-10620000D01*
X70160000Y-38570000D02*
X70160000Y-40605000D01*
X89230000Y-38610000D02*
X89230000Y-40645000D01*
X108220000Y-38760000D02*
X108220000Y-40795000D01*
X110750000Y-40825000D02*
X110750000Y-38790000D01*
X50590000Y-48660000D02*
X48555000Y-48660000D01*
X61305000Y-48730000D02*
X63340000Y-48730000D01*
X92090000Y-54905000D02*
X92090000Y-52870000D01*
X39220000Y-17580000D02*
X39220000Y-19615000D01*
X46790000Y-33730000D02*
X46790000Y-35765000D01*
X95100000Y-52870000D02*
X95100000Y-54905000D01*
X96480000Y-6085000D02*
X96480000Y-8120000D01*
X36880000Y-3355000D02*
X36880000Y-5390000D01*
X58200000Y-6285000D02*
X58200000Y-8320000D01*
X75040000Y-6145000D02*
X75040000Y-8180000D01*
X93900000Y-6175000D02*
X93900000Y-8210000D01*
X36880000Y-5150000D02*
X36880000Y-3115000D01*
X39220000Y-23165000D02*
X39220000Y-25200000D01*
X84375000Y-10620000D02*
X82340000Y-10620000D01*
X79700000Y-23195000D02*
X79700000Y-25230000D01*
X60690000Y-23245000D02*
X60690000Y-25280000D01*
X100930000Y-10620000D02*
X102965000Y-10620000D01*
X51270000Y-23900000D02*
X51230000Y-23860000D01*
X89230000Y-44195000D02*
X89230000Y-46230000D01*
X108220000Y-44345000D02*
X108220000Y-46380000D01*
X110750000Y-46410000D02*
X110750000Y-44375000D01*
X46790000Y-39315000D02*
X46790000Y-41350000D01*
X51270000Y-32720000D02*
X51270000Y-23900000D01*
X70160000Y-44155000D02*
X70160000Y-46190000D01*
X45005000Y-48660000D02*
X42970000Y-48660000D01*
X95100000Y-58455000D02*
X95100000Y-60490000D01*
X52790000Y-23800000D02*
X52790000Y-32720000D01*
X55720000Y-48730000D02*
X57755000Y-48730000D01*
X52870000Y-43480000D02*
X52870000Y-47320000D01*
X92090000Y-60490000D02*
X92090000Y-58455000D01*
X52870000Y-47320000D02*
X52820000Y-47370000D01*
X49203599Y2089991D02*
X46428589Y4865001D01*
X68742116Y16024330D02*
X65732785Y13014999D01*
X36728217Y3592999D02*
X35942999Y3592999D01*
X57790000Y9980000D02*
X57790000Y5616410D01*
X56529990Y2406988D02*
X55683002Y1560000D01*
X35942999Y3592999D02*
X34790000Y2440000D01*
X65732785Y13014999D02*
X63524999Y13014999D01*
X46428589Y4865001D02*
X38000219Y4865001D01*
X62220000Y11710000D02*
X59520000Y11710000D01*
X63524999Y13014999D02*
X62220000Y11710000D01*
X68742116Y18358653D02*
X68742116Y16024330D01*
X28312000Y3348000D02*
X28635000Y3025000D01*
X51880010Y2089990D02*
X49203599Y2089991D01*
X28635000Y3025000D02*
X28392000Y3268000D01*
X57790000Y5616410D02*
X56529990Y4356400D01*
X52410000Y1560000D02*
X51880010Y2089990D01*
X38000219Y4865001D02*
X36728217Y3592999D01*
X59520000Y11710000D02*
X57790000Y9980000D01*
X34790000Y2440000D02*
X29220000Y2440000D01*
X55683002Y1560000D02*
X52410000Y1560000D01*
X29220000Y2440000D02*
X28635000Y3025000D01*
X28312000Y7991400D02*
X28312000Y3348000D01*
X56529990Y4356400D02*
X56529990Y2406988D01*
X28392000Y-9542000D02*
X28740000Y-9890000D01*
X28740000Y-9890000D02*
X29200000Y-10350000D01*
X28312000Y-7228600D02*
X28312000Y-9462000D01*
X28312000Y-9462000D02*
X28740000Y-9890000D01*
X40420000Y-12760000D02*
X40420000Y-23250000D01*
X29200000Y-10350000D02*
X38010000Y-10350000D01*
X38010000Y-10350000D02*
X40420000Y-12760000D01*
X40420000Y-23250000D02*
X40960000Y-23790000D01*
X40960000Y-23790000D02*
X40960000Y-26370000D01*
X85960000Y-5340000D02*
X85960000Y-12940000D01*
X33392000Y-7228600D02*
X33392000Y-4228000D01*
X34110000Y-3510000D02*
X33472000Y-4148000D01*
X33392000Y-4228000D02*
X34110000Y-3510000D01*
X56980000Y-1820000D02*
X56481099Y-2318901D01*
X56980000Y4170000D02*
X56980000Y-1820000D01*
X59140000Y6330000D02*
X56980000Y4170000D01*
X59140000Y9550000D02*
X59140000Y6330000D01*
X34820000Y-2800000D02*
X34110000Y-3510000D01*
X36300000Y-1720000D02*
X39800000Y-1720000D01*
X39800000Y-1720000D02*
X40398901Y-2318901D01*
X56481099Y-2318901D02*
X40398901Y-2318901D01*
X35220000Y-2800000D02*
X36300000Y-1720000D01*
X34820000Y-2800000D02*
X35220000Y-2800000D01*
X23872000Y-12530000D02*
X23871000Y-12529000D01*
X29600000Y-12530000D02*
X23872000Y-12530000D01*
X54220000Y-23800000D02*
X54220000Y-32920000D01*
X54220000Y-32920000D02*
X54270000Y-32970000D01*
X44810000Y-9620000D02*
X44810000Y-12750000D01*
X44810000Y-12750000D02*
X44840000Y-12780000D01*
X44810000Y-4990000D02*
X44810000Y-4270000D01*
X44810000Y-4270000D02*
X44790000Y-4250000D01*
X44810000Y-9620000D02*
X44810000Y-4990000D01*
X54130000Y-51540000D02*
X54070000Y-51600000D01*
X54130000Y-43540000D02*
X54130000Y-51540000D01*
X46355000Y5575000D02*
X46172000Y5758000D01*
X46092000Y5838000D02*
X46355000Y5575000D01*
X64220000Y-5290000D02*
X64220000Y-13530000D01*
X73900000Y-50850000D02*
X73960000Y-50910000D01*
X46092000Y7991400D02*
X46092000Y5838000D01*
X55590000Y2540000D02*
X49390000Y2540000D01*
X64220000Y-13530000D02*
X64290000Y-13600000D01*
X49390000Y2540000D02*
X46355000Y5575000D01*
X76870000Y-23190000D02*
X76870000Y-32410000D01*
X73900000Y-43150000D02*
X73900000Y-50850000D01*
X92240000Y-32430000D02*
X92300000Y-32490000D01*
X92240000Y-23210000D02*
X92240000Y-32430000D01*
X80490000Y-11260000D02*
X82360000Y-13130000D01*
X79900000Y-5250000D02*
X80490000Y-5840000D01*
X100240000Y-43320000D02*
X100240000Y-51190000D01*
X82360000Y-13130000D02*
X83420000Y-13130000D01*
X80490000Y-5840000D02*
X80490000Y-11260000D01*
X98950000Y-11660000D02*
X100400000Y-13110000D01*
X81010000Y6760000D02*
X81040000Y6730000D01*
X75850000Y6760000D02*
X81010000Y6760000D01*
X111920000Y-32390000D02*
X111940000Y-32410000D01*
X111920000Y-23310000D02*
X111920000Y-32390000D01*
X98950000Y-5330000D02*
X98950000Y-2670000D01*
X98950000Y-5330000D02*
X98950000Y-11660000D01*
X100400000Y-13110000D02*
X102290000Y-13110000D01*
M02*
