G04 #@! TF.GenerationSoftware,KiCad,Pcbnew,(5.1.6-0-10_14)*
G04 #@! TF.CreationDate,2022-04-19T23:27:22+09:00*
G04 #@! TF.ProjectId,cool936,636f6f6c-3933-4362-9e6b-696361645f70,rev?*
G04 #@! TF.SameCoordinates,Original*
G04 #@! TF.FileFunction,Soldermask,Top*
G04 #@! TF.FilePolarity,Negative*
%FSLAX46Y46*%
G04 Gerber Fmt 4.6, Leading zero omitted, Abs format (unit mm)*
G04 Created by KiCad (PCBNEW (5.1.6-0-10_14)) date 2022-04-19 23:27:22*
%MOMM*%
%LPD*%
G01*
G04 APERTURE LIST*
%ADD10C,0.100000*%
G04 APERTURE END LIST*
D10*
G36*
X233139500Y-59699500D02*
G01*
X231640500Y-59699500D01*
X231640500Y-58200500D01*
X233139500Y-58200500D01*
X233139500Y-59699500D01*
G37*
G36*
X202509500Y-59649500D02*
G01*
X201010500Y-59649500D01*
X201010500Y-58150500D01*
X202509500Y-58150500D01*
X202509500Y-59649500D01*
G37*
G36*
X257229500Y-59634500D02*
G01*
X255730500Y-59634500D01*
X255730500Y-58135500D01*
X257229500Y-58135500D01*
X257229500Y-59634500D01*
G37*
G36*
X191096474Y-55183684D02*
G01*
X191314474Y-55273983D01*
X191468623Y-55337833D01*
X191803548Y-55561623D01*
X192088377Y-55846452D01*
X192312167Y-56181377D01*
X192344562Y-56259586D01*
X192466316Y-56553526D01*
X192544900Y-56948594D01*
X192544900Y-57351406D01*
X192466316Y-57746474D01*
X192415451Y-57869272D01*
X192312167Y-58118623D01*
X192088377Y-58453548D01*
X191803548Y-58738377D01*
X191468623Y-58962167D01*
X191314474Y-59026017D01*
X191096474Y-59116316D01*
X190701406Y-59194900D01*
X190298594Y-59194900D01*
X189903526Y-59116316D01*
X189685526Y-59026017D01*
X189531377Y-58962167D01*
X189196452Y-58738377D01*
X188911623Y-58453548D01*
X188687833Y-58118623D01*
X188584549Y-57869272D01*
X188533684Y-57746474D01*
X188455100Y-57351406D01*
X188455100Y-56948594D01*
X188533684Y-56553526D01*
X188655438Y-56259586D01*
X188687833Y-56181377D01*
X188911623Y-55846452D01*
X189196452Y-55561623D01*
X189531377Y-55337833D01*
X189685526Y-55273983D01*
X189903526Y-55183684D01*
X190298594Y-55105100D01*
X190701406Y-55105100D01*
X191096474Y-55183684D01*
G37*
G36*
X217290474Y-55183684D02*
G01*
X217508474Y-55273983D01*
X217662623Y-55337833D01*
X217997548Y-55561623D01*
X218282377Y-55846452D01*
X218506167Y-56181377D01*
X218538562Y-56259586D01*
X218660316Y-56553526D01*
X218738900Y-56948594D01*
X218738900Y-57351406D01*
X218660316Y-57746474D01*
X218609451Y-57869272D01*
X218506167Y-58118623D01*
X218282377Y-58453548D01*
X217997548Y-58738377D01*
X217662623Y-58962167D01*
X217508474Y-59026017D01*
X217290474Y-59116316D01*
X216895406Y-59194900D01*
X216492594Y-59194900D01*
X216097526Y-59116316D01*
X215879526Y-59026017D01*
X215725377Y-58962167D01*
X215390452Y-58738377D01*
X215105623Y-58453548D01*
X214881833Y-58118623D01*
X214778549Y-57869272D01*
X214727684Y-57746474D01*
X214649100Y-57351406D01*
X214649100Y-56948594D01*
X214727684Y-56553526D01*
X214849438Y-56259586D01*
X214881833Y-56181377D01*
X215105623Y-55846452D01*
X215390452Y-55561623D01*
X215725377Y-55337833D01*
X215879526Y-55273983D01*
X216097526Y-55183684D01*
X216492594Y-55105100D01*
X216895406Y-55105100D01*
X217290474Y-55183684D01*
G37*
G36*
X245864974Y-55183684D02*
G01*
X246082974Y-55273983D01*
X246237123Y-55337833D01*
X246572048Y-55561623D01*
X246856877Y-55846452D01*
X247080667Y-56181377D01*
X247113062Y-56259586D01*
X247234816Y-56553526D01*
X247313400Y-56948594D01*
X247313400Y-57351406D01*
X247234816Y-57746474D01*
X247183951Y-57869272D01*
X247080667Y-58118623D01*
X246856877Y-58453548D01*
X246572048Y-58738377D01*
X246237123Y-58962167D01*
X246082974Y-59026017D01*
X245864974Y-59116316D01*
X245469906Y-59194900D01*
X245067094Y-59194900D01*
X244672026Y-59116316D01*
X244454026Y-59026017D01*
X244299877Y-58962167D01*
X243964952Y-58738377D01*
X243680123Y-58453548D01*
X243456333Y-58118623D01*
X243353049Y-57869272D01*
X243302184Y-57746474D01*
X243223600Y-57351406D01*
X243223600Y-56948594D01*
X243302184Y-56553526D01*
X243423938Y-56259586D01*
X243456333Y-56181377D01*
X243680123Y-55846452D01*
X243964952Y-55561623D01*
X244299877Y-55337833D01*
X244454026Y-55273983D01*
X244672026Y-55183684D01*
X245067094Y-55105100D01*
X245469906Y-55105100D01*
X245864974Y-55183684D01*
G37*
G36*
X250618604Y-56259585D02*
G01*
X250787126Y-56329389D01*
X250938791Y-56430728D01*
X251067772Y-56559709D01*
X251169111Y-56711374D01*
X251238915Y-56879896D01*
X251274500Y-57058797D01*
X251274500Y-57241203D01*
X251238915Y-57420104D01*
X251169111Y-57588626D01*
X251067772Y-57740291D01*
X250938791Y-57869272D01*
X250787126Y-57970611D01*
X250618604Y-58040415D01*
X250439703Y-58076000D01*
X250257297Y-58076000D01*
X250078396Y-58040415D01*
X249909874Y-57970611D01*
X249758209Y-57869272D01*
X249629228Y-57740291D01*
X249527889Y-57588626D01*
X249458085Y-57420104D01*
X249422500Y-57241203D01*
X249422500Y-57058797D01*
X249458085Y-56879896D01*
X249527889Y-56711374D01*
X249629228Y-56559709D01*
X249758209Y-56430728D01*
X249909874Y-56329389D01*
X250078396Y-56259585D01*
X250257297Y-56224000D01*
X250439703Y-56224000D01*
X250618604Y-56259585D01*
G37*
G36*
X240458604Y-56259585D02*
G01*
X240627126Y-56329389D01*
X240778791Y-56430728D01*
X240907772Y-56559709D01*
X241009111Y-56711374D01*
X241078915Y-56879896D01*
X241114500Y-57058797D01*
X241114500Y-57241203D01*
X241078915Y-57420104D01*
X241009111Y-57588626D01*
X240907772Y-57740291D01*
X240778791Y-57869272D01*
X240627126Y-57970611D01*
X240458604Y-58040415D01*
X240279703Y-58076000D01*
X240097297Y-58076000D01*
X239918396Y-58040415D01*
X239749874Y-57970611D01*
X239598209Y-57869272D01*
X239469228Y-57740291D01*
X239367889Y-57588626D01*
X239298085Y-57420104D01*
X239262500Y-57241203D01*
X239262500Y-57058797D01*
X239298085Y-56879896D01*
X239367889Y-56711374D01*
X239469228Y-56559709D01*
X239598209Y-56430728D01*
X239749874Y-56329389D01*
X239918396Y-56259585D01*
X240097297Y-56224000D01*
X240279703Y-56224000D01*
X240458604Y-56259585D01*
G37*
G36*
X222044104Y-56259585D02*
G01*
X222212626Y-56329389D01*
X222364291Y-56430728D01*
X222493272Y-56559709D01*
X222594611Y-56711374D01*
X222664415Y-56879896D01*
X222700000Y-57058797D01*
X222700000Y-57241203D01*
X222664415Y-57420104D01*
X222594611Y-57588626D01*
X222493272Y-57740291D01*
X222364291Y-57869272D01*
X222212626Y-57970611D01*
X222044104Y-58040415D01*
X221865203Y-58076000D01*
X221682797Y-58076000D01*
X221503896Y-58040415D01*
X221335374Y-57970611D01*
X221183709Y-57869272D01*
X221054728Y-57740291D01*
X220953389Y-57588626D01*
X220883585Y-57420104D01*
X220848000Y-57241203D01*
X220848000Y-57058797D01*
X220883585Y-56879896D01*
X220953389Y-56711374D01*
X221054728Y-56559709D01*
X221183709Y-56430728D01*
X221335374Y-56329389D01*
X221503896Y-56259585D01*
X221682797Y-56224000D01*
X221865203Y-56224000D01*
X222044104Y-56259585D01*
G37*
G36*
X211884104Y-56259585D02*
G01*
X212052626Y-56329389D01*
X212204291Y-56430728D01*
X212333272Y-56559709D01*
X212434611Y-56711374D01*
X212504415Y-56879896D01*
X212540000Y-57058797D01*
X212540000Y-57241203D01*
X212504415Y-57420104D01*
X212434611Y-57588626D01*
X212333272Y-57740291D01*
X212204291Y-57869272D01*
X212052626Y-57970611D01*
X211884104Y-58040415D01*
X211705203Y-58076000D01*
X211522797Y-58076000D01*
X211343896Y-58040415D01*
X211175374Y-57970611D01*
X211023709Y-57869272D01*
X210894728Y-57740291D01*
X210793389Y-57588626D01*
X210723585Y-57420104D01*
X210688000Y-57241203D01*
X210688000Y-57058797D01*
X210723585Y-56879896D01*
X210793389Y-56711374D01*
X210894728Y-56559709D01*
X211023709Y-56430728D01*
X211175374Y-56329389D01*
X211343896Y-56259585D01*
X211522797Y-56224000D01*
X211705203Y-56224000D01*
X211884104Y-56259585D01*
G37*
G36*
X195850104Y-56259585D02*
G01*
X196018626Y-56329389D01*
X196170291Y-56430728D01*
X196299272Y-56559709D01*
X196400611Y-56711374D01*
X196470415Y-56879896D01*
X196506000Y-57058797D01*
X196506000Y-57241203D01*
X196470415Y-57420104D01*
X196400611Y-57588626D01*
X196299272Y-57740291D01*
X196170291Y-57869272D01*
X196018626Y-57970611D01*
X195850104Y-58040415D01*
X195671203Y-58076000D01*
X195488797Y-58076000D01*
X195309896Y-58040415D01*
X195141374Y-57970611D01*
X194989709Y-57869272D01*
X194860728Y-57740291D01*
X194759389Y-57588626D01*
X194689585Y-57420104D01*
X194654000Y-57241203D01*
X194654000Y-57058797D01*
X194689585Y-56879896D01*
X194759389Y-56711374D01*
X194860728Y-56559709D01*
X194989709Y-56430728D01*
X195141374Y-56329389D01*
X195309896Y-56259585D01*
X195488797Y-56224000D01*
X195671203Y-56224000D01*
X195850104Y-56259585D01*
G37*
G36*
X185690104Y-56259585D02*
G01*
X185858626Y-56329389D01*
X186010291Y-56430728D01*
X186139272Y-56559709D01*
X186240611Y-56711374D01*
X186310415Y-56879896D01*
X186346000Y-57058797D01*
X186346000Y-57241203D01*
X186310415Y-57420104D01*
X186240611Y-57588626D01*
X186139272Y-57740291D01*
X186010291Y-57869272D01*
X185858626Y-57970611D01*
X185690104Y-58040415D01*
X185511203Y-58076000D01*
X185328797Y-58076000D01*
X185149896Y-58040415D01*
X184981374Y-57970611D01*
X184829709Y-57869272D01*
X184700728Y-57740291D01*
X184599389Y-57588626D01*
X184529585Y-57420104D01*
X184494000Y-57241203D01*
X184494000Y-57058797D01*
X184529585Y-56879896D01*
X184599389Y-56711374D01*
X184700728Y-56559709D01*
X184829709Y-56430728D01*
X184981374Y-56329389D01*
X185149896Y-56259585D01*
X185328797Y-56224000D01*
X185511203Y-56224000D01*
X185690104Y-56259585D01*
G37*
G36*
X232916000Y-57616000D02*
G01*
X231864000Y-57616000D01*
X231864000Y-56214000D01*
X232916000Y-56214000D01*
X232916000Y-57616000D01*
G37*
G36*
X202286000Y-57566000D02*
G01*
X201234000Y-57566000D01*
X201234000Y-56164000D01*
X202286000Y-56164000D01*
X202286000Y-57566000D01*
G37*
G36*
X257006000Y-57551000D02*
G01*
X255954000Y-57551000D01*
X255954000Y-56149000D01*
X257006000Y-56149000D01*
X257006000Y-57551000D01*
G37*
G36*
X232916000Y-54066000D02*
G01*
X231864000Y-54066000D01*
X231864000Y-52664000D01*
X232916000Y-52664000D01*
X232916000Y-54066000D01*
G37*
G36*
X202286000Y-54016000D02*
G01*
X201234000Y-54016000D01*
X201234000Y-52614000D01*
X202286000Y-52614000D01*
X202286000Y-54016000D01*
G37*
G36*
X257006000Y-54001000D02*
G01*
X255954000Y-54001000D01*
X255954000Y-52599000D01*
X257006000Y-52599000D01*
X257006000Y-54001000D01*
G37*
G36*
X232484425Y-50584599D02*
G01*
X232608621Y-50609302D01*
X232745022Y-50665801D01*
X232867779Y-50747825D01*
X232972175Y-50852221D01*
X233054199Y-50974978D01*
X233110698Y-51111379D01*
X233139500Y-51256181D01*
X233139500Y-51403819D01*
X233110698Y-51548621D01*
X233054199Y-51685022D01*
X232972175Y-51807779D01*
X232867779Y-51912175D01*
X232745022Y-51994199D01*
X232608621Y-52050698D01*
X232484425Y-52075401D01*
X232463820Y-52079500D01*
X232316180Y-52079500D01*
X232295575Y-52075401D01*
X232171379Y-52050698D01*
X232034978Y-51994199D01*
X231912221Y-51912175D01*
X231807825Y-51807779D01*
X231725801Y-51685022D01*
X231669302Y-51548621D01*
X231640500Y-51403819D01*
X231640500Y-51256181D01*
X231669302Y-51111379D01*
X231725801Y-50974978D01*
X231807825Y-50852221D01*
X231912221Y-50747825D01*
X232034978Y-50665801D01*
X232171379Y-50609302D01*
X232295575Y-50584599D01*
X232316180Y-50580500D01*
X232463820Y-50580500D01*
X232484425Y-50584599D01*
G37*
G36*
X201854425Y-50534599D02*
G01*
X201978621Y-50559302D01*
X202115022Y-50615801D01*
X202237779Y-50697825D01*
X202342175Y-50802221D01*
X202424199Y-50924978D01*
X202480698Y-51061379D01*
X202509500Y-51206181D01*
X202509500Y-51353819D01*
X202480698Y-51498621D01*
X202424199Y-51635022D01*
X202342175Y-51757779D01*
X202237779Y-51862175D01*
X202115022Y-51944199D01*
X201978621Y-52000698D01*
X201854425Y-52025401D01*
X201833820Y-52029500D01*
X201686180Y-52029500D01*
X201665575Y-52025401D01*
X201541379Y-52000698D01*
X201404978Y-51944199D01*
X201282221Y-51862175D01*
X201177825Y-51757779D01*
X201095801Y-51635022D01*
X201039302Y-51498621D01*
X201010500Y-51353819D01*
X201010500Y-51206181D01*
X201039302Y-51061379D01*
X201095801Y-50924978D01*
X201177825Y-50802221D01*
X201282221Y-50697825D01*
X201404978Y-50615801D01*
X201541379Y-50559302D01*
X201665575Y-50534599D01*
X201686180Y-50530500D01*
X201833820Y-50530500D01*
X201854425Y-50534599D01*
G37*
G36*
X256574425Y-50519599D02*
G01*
X256698621Y-50544302D01*
X256835022Y-50600801D01*
X256957779Y-50682825D01*
X257062175Y-50787221D01*
X257144199Y-50909978D01*
X257200698Y-51046379D01*
X257229500Y-51191181D01*
X257229500Y-51338819D01*
X257200698Y-51483621D01*
X257144199Y-51620022D01*
X257062175Y-51742779D01*
X256957779Y-51847175D01*
X256835022Y-51929199D01*
X256698621Y-51985698D01*
X256574425Y-52010401D01*
X256553820Y-52014500D01*
X256406180Y-52014500D01*
X256385575Y-52010401D01*
X256261379Y-51985698D01*
X256124978Y-51929199D01*
X256002221Y-51847175D01*
X255897825Y-51742779D01*
X255815801Y-51620022D01*
X255759302Y-51483621D01*
X255730500Y-51338819D01*
X255730500Y-51191181D01*
X255759302Y-51046379D01*
X255815801Y-50909978D01*
X255897825Y-50787221D01*
X256002221Y-50682825D01*
X256124978Y-50600801D01*
X256261379Y-50544302D01*
X256385575Y-50519599D01*
X256406180Y-50515500D01*
X256553820Y-50515500D01*
X256574425Y-50519599D01*
G37*
G36*
X223249500Y-46929500D02*
G01*
X221750500Y-46929500D01*
X221750500Y-45430500D01*
X223249500Y-45430500D01*
X223249500Y-46929500D01*
G37*
G36*
X204249500Y-46899500D02*
G01*
X202750500Y-46899500D01*
X202750500Y-45400500D01*
X204249500Y-45400500D01*
X204249500Y-46899500D01*
G37*
G36*
X223026000Y-44846000D02*
G01*
X221974000Y-44846000D01*
X221974000Y-43444000D01*
X223026000Y-43444000D01*
X223026000Y-44846000D01*
G37*
G36*
X204026000Y-44816000D02*
G01*
X202974000Y-44816000D01*
X202974000Y-43414000D01*
X204026000Y-43414000D01*
X204026000Y-44816000D01*
G37*
G36*
X244529500Y-41609500D02*
G01*
X243030500Y-41609500D01*
X243030500Y-40110500D01*
X244529500Y-40110500D01*
X244529500Y-41609500D01*
G37*
G36*
X247179500Y-41609500D02*
G01*
X245680500Y-41609500D01*
X245680500Y-40110500D01*
X247179500Y-40110500D01*
X247179500Y-41609500D01*
G37*
G36*
X223026000Y-41296000D02*
G01*
X221974000Y-41296000D01*
X221974000Y-39894000D01*
X223026000Y-39894000D01*
X223026000Y-41296000D01*
G37*
G36*
X204026000Y-41266000D02*
G01*
X202974000Y-41266000D01*
X202974000Y-39864000D01*
X204026000Y-39864000D01*
X204026000Y-41266000D01*
G37*
G36*
X214908974Y-36133684D02*
G01*
X215126974Y-36223983D01*
X215281123Y-36287833D01*
X215616048Y-36511623D01*
X215900877Y-36796452D01*
X216124667Y-37131377D01*
X216157062Y-37209586D01*
X216278816Y-37503526D01*
X216357400Y-37898594D01*
X216357400Y-38301406D01*
X216278816Y-38696474D01*
X216227951Y-38819272D01*
X216124667Y-39068623D01*
X215900877Y-39403548D01*
X215616048Y-39688377D01*
X215281123Y-39912167D01*
X215126974Y-39976017D01*
X214908974Y-40066316D01*
X214513906Y-40144900D01*
X214111094Y-40144900D01*
X213716026Y-40066316D01*
X213498026Y-39976017D01*
X213343877Y-39912167D01*
X213008952Y-39688377D01*
X212724123Y-39403548D01*
X212500333Y-39068623D01*
X212397049Y-38819272D01*
X212346184Y-38696474D01*
X212267600Y-38301406D01*
X212267600Y-37898594D01*
X212346184Y-37503526D01*
X212467938Y-37209586D01*
X212500333Y-37131377D01*
X212724123Y-36796452D01*
X213008952Y-36511623D01*
X213343877Y-36287833D01*
X213498026Y-36223983D01*
X213716026Y-36133684D01*
X214111094Y-36055100D01*
X214513906Y-36055100D01*
X214908974Y-36133684D01*
G37*
G36*
X195858974Y-36133684D02*
G01*
X196076974Y-36223983D01*
X196231123Y-36287833D01*
X196566048Y-36511623D01*
X196850877Y-36796452D01*
X197074667Y-37131377D01*
X197107062Y-37209586D01*
X197228816Y-37503526D01*
X197307400Y-37898594D01*
X197307400Y-38301406D01*
X197228816Y-38696474D01*
X197177951Y-38819272D01*
X197074667Y-39068623D01*
X196850877Y-39403548D01*
X196566048Y-39688377D01*
X196231123Y-39912167D01*
X196076974Y-39976017D01*
X195858974Y-40066316D01*
X195463906Y-40144900D01*
X195061094Y-40144900D01*
X194666026Y-40066316D01*
X194448026Y-39976017D01*
X194293877Y-39912167D01*
X193958952Y-39688377D01*
X193674123Y-39403548D01*
X193450333Y-39068623D01*
X193347049Y-38819272D01*
X193296184Y-38696474D01*
X193217600Y-38301406D01*
X193217600Y-37898594D01*
X193296184Y-37503526D01*
X193417938Y-37209586D01*
X193450333Y-37131377D01*
X193674123Y-36796452D01*
X193958952Y-36511623D01*
X194293877Y-36287833D01*
X194448026Y-36223983D01*
X194666026Y-36133684D01*
X195061094Y-36055100D01*
X195463906Y-36055100D01*
X195858974Y-36133684D01*
G37*
G36*
X233958974Y-36133684D02*
G01*
X234176974Y-36223983D01*
X234331123Y-36287833D01*
X234666048Y-36511623D01*
X234950877Y-36796452D01*
X235174667Y-37131377D01*
X235207062Y-37209586D01*
X235328816Y-37503526D01*
X235407400Y-37898594D01*
X235407400Y-38301406D01*
X235328816Y-38696474D01*
X235277951Y-38819272D01*
X235174667Y-39068623D01*
X234950877Y-39403548D01*
X234666048Y-39688377D01*
X234331123Y-39912167D01*
X234176974Y-39976017D01*
X233958974Y-40066316D01*
X233563906Y-40144900D01*
X233161094Y-40144900D01*
X232766026Y-40066316D01*
X232548026Y-39976017D01*
X232393877Y-39912167D01*
X232058952Y-39688377D01*
X231774123Y-39403548D01*
X231550333Y-39068623D01*
X231447049Y-38819272D01*
X231396184Y-38696474D01*
X231317600Y-38301406D01*
X231317600Y-37898594D01*
X231396184Y-37503526D01*
X231517938Y-37209586D01*
X231550333Y-37131377D01*
X231774123Y-36796452D01*
X232058952Y-36511623D01*
X232393877Y-36287833D01*
X232548026Y-36223983D01*
X232766026Y-36133684D01*
X233161094Y-36055100D01*
X233563906Y-36055100D01*
X233958974Y-36133684D01*
G37*
G36*
X257771974Y-36133684D02*
G01*
X257989974Y-36223983D01*
X258144123Y-36287833D01*
X258479048Y-36511623D01*
X258763877Y-36796452D01*
X258987667Y-37131377D01*
X259020062Y-37209586D01*
X259141816Y-37503526D01*
X259220400Y-37898594D01*
X259220400Y-38301406D01*
X259141816Y-38696474D01*
X259090951Y-38819272D01*
X258987667Y-39068623D01*
X258763877Y-39403548D01*
X258479048Y-39688377D01*
X258144123Y-39912167D01*
X257989974Y-39976017D01*
X257771974Y-40066316D01*
X257376906Y-40144900D01*
X256974094Y-40144900D01*
X256579026Y-40066316D01*
X256361026Y-39976017D01*
X256206877Y-39912167D01*
X255871952Y-39688377D01*
X255587123Y-39403548D01*
X255363333Y-39068623D01*
X255260049Y-38819272D01*
X255209184Y-38696474D01*
X255130600Y-38301406D01*
X255130600Y-37898594D01*
X255209184Y-37503526D01*
X255330938Y-37209586D01*
X255363333Y-37131377D01*
X255587123Y-36796452D01*
X255871952Y-36511623D01*
X256206877Y-36287833D01*
X256361026Y-36223983D01*
X256579026Y-36133684D01*
X256974094Y-36055100D01*
X257376906Y-36055100D01*
X257771974Y-36133684D01*
G37*
G36*
X244306000Y-39526000D02*
G01*
X243254000Y-39526000D01*
X243254000Y-38124000D01*
X244306000Y-38124000D01*
X244306000Y-39526000D01*
G37*
G36*
X246956000Y-39526000D02*
G01*
X245904000Y-39526000D01*
X245904000Y-38124000D01*
X246956000Y-38124000D01*
X246956000Y-39526000D01*
G37*
G36*
X222594425Y-37814599D02*
G01*
X222718621Y-37839302D01*
X222855022Y-37895801D01*
X222977779Y-37977825D01*
X223082175Y-38082221D01*
X223164199Y-38204978D01*
X223220698Y-38341379D01*
X223249500Y-38486181D01*
X223249500Y-38633819D01*
X223220698Y-38778621D01*
X223164199Y-38915022D01*
X223082175Y-39037779D01*
X222977779Y-39142175D01*
X222855022Y-39224199D01*
X222718621Y-39280698D01*
X222594425Y-39305401D01*
X222573820Y-39309500D01*
X222426180Y-39309500D01*
X222405575Y-39305401D01*
X222281379Y-39280698D01*
X222144978Y-39224199D01*
X222022221Y-39142175D01*
X221917825Y-39037779D01*
X221835801Y-38915022D01*
X221779302Y-38778621D01*
X221750500Y-38633819D01*
X221750500Y-38486181D01*
X221779302Y-38341379D01*
X221835801Y-38204978D01*
X221917825Y-38082221D01*
X222022221Y-37977825D01*
X222144978Y-37895801D01*
X222281379Y-37839302D01*
X222405575Y-37814599D01*
X222426180Y-37810500D01*
X222573820Y-37810500D01*
X222594425Y-37814599D01*
G37*
G36*
X203594425Y-37784599D02*
G01*
X203718621Y-37809302D01*
X203855022Y-37865801D01*
X203977779Y-37947825D01*
X204082175Y-38052221D01*
X204164199Y-38174978D01*
X204220698Y-38311379D01*
X204249500Y-38456181D01*
X204249500Y-38603819D01*
X204220698Y-38748621D01*
X204164199Y-38885022D01*
X204082175Y-39007779D01*
X203977779Y-39112175D01*
X203855022Y-39194199D01*
X203718621Y-39250698D01*
X203594425Y-39275401D01*
X203573820Y-39279500D01*
X203426180Y-39279500D01*
X203405575Y-39275401D01*
X203281379Y-39250698D01*
X203144978Y-39194199D01*
X203022221Y-39112175D01*
X202917825Y-39007779D01*
X202835801Y-38885022D01*
X202779302Y-38748621D01*
X202750500Y-38603819D01*
X202750500Y-38456181D01*
X202779302Y-38311379D01*
X202835801Y-38174978D01*
X202917825Y-38052221D01*
X203022221Y-37947825D01*
X203144978Y-37865801D01*
X203281379Y-37809302D01*
X203405575Y-37784599D01*
X203426180Y-37780500D01*
X203573820Y-37780500D01*
X203594425Y-37784599D01*
G37*
G36*
X219662604Y-37209585D02*
G01*
X219831126Y-37279389D01*
X219982791Y-37380728D01*
X220111772Y-37509709D01*
X220213111Y-37661374D01*
X220282915Y-37829896D01*
X220318500Y-38008797D01*
X220318500Y-38191203D01*
X220282915Y-38370104D01*
X220213111Y-38538626D01*
X220111772Y-38690291D01*
X219982791Y-38819272D01*
X219831126Y-38920611D01*
X219662604Y-38990415D01*
X219483703Y-39026000D01*
X219301297Y-39026000D01*
X219122396Y-38990415D01*
X218953874Y-38920611D01*
X218802209Y-38819272D01*
X218673228Y-38690291D01*
X218571889Y-38538626D01*
X218502085Y-38370104D01*
X218466500Y-38191203D01*
X218466500Y-38008797D01*
X218502085Y-37829896D01*
X218571889Y-37661374D01*
X218673228Y-37509709D01*
X218802209Y-37380728D01*
X218953874Y-37279389D01*
X219122396Y-37209585D01*
X219301297Y-37174000D01*
X219483703Y-37174000D01*
X219662604Y-37209585D01*
G37*
G36*
X262525604Y-37209585D02*
G01*
X262694126Y-37279389D01*
X262845791Y-37380728D01*
X262974772Y-37509709D01*
X263076111Y-37661374D01*
X263145915Y-37829896D01*
X263181500Y-38008797D01*
X263181500Y-38191203D01*
X263145915Y-38370104D01*
X263076111Y-38538626D01*
X262974772Y-38690291D01*
X262845791Y-38819272D01*
X262694126Y-38920611D01*
X262525604Y-38990415D01*
X262346703Y-39026000D01*
X262164297Y-39026000D01*
X261985396Y-38990415D01*
X261816874Y-38920611D01*
X261665209Y-38819272D01*
X261536228Y-38690291D01*
X261434889Y-38538626D01*
X261365085Y-38370104D01*
X261329500Y-38191203D01*
X261329500Y-38008797D01*
X261365085Y-37829896D01*
X261434889Y-37661374D01*
X261536228Y-37509709D01*
X261665209Y-37380728D01*
X261816874Y-37279389D01*
X261985396Y-37209585D01*
X262164297Y-37174000D01*
X262346703Y-37174000D01*
X262525604Y-37209585D01*
G37*
G36*
X252365604Y-37209585D02*
G01*
X252534126Y-37279389D01*
X252685791Y-37380728D01*
X252814772Y-37509709D01*
X252916111Y-37661374D01*
X252985915Y-37829896D01*
X253021500Y-38008797D01*
X253021500Y-38191203D01*
X252985915Y-38370104D01*
X252916111Y-38538626D01*
X252814772Y-38690291D01*
X252685791Y-38819272D01*
X252534126Y-38920611D01*
X252365604Y-38990415D01*
X252186703Y-39026000D01*
X252004297Y-39026000D01*
X251825396Y-38990415D01*
X251656874Y-38920611D01*
X251505209Y-38819272D01*
X251376228Y-38690291D01*
X251274889Y-38538626D01*
X251205085Y-38370104D01*
X251169500Y-38191203D01*
X251169500Y-38008797D01*
X251205085Y-37829896D01*
X251274889Y-37661374D01*
X251376228Y-37509709D01*
X251505209Y-37380728D01*
X251656874Y-37279389D01*
X251825396Y-37209585D01*
X252004297Y-37174000D01*
X252186703Y-37174000D01*
X252365604Y-37209585D01*
G37*
G36*
X238712604Y-37209585D02*
G01*
X238881126Y-37279389D01*
X239032791Y-37380728D01*
X239161772Y-37509709D01*
X239263111Y-37661374D01*
X239332915Y-37829896D01*
X239368500Y-38008797D01*
X239368500Y-38191203D01*
X239332915Y-38370104D01*
X239263111Y-38538626D01*
X239161772Y-38690291D01*
X239032791Y-38819272D01*
X238881126Y-38920611D01*
X238712604Y-38990415D01*
X238533703Y-39026000D01*
X238351297Y-39026000D01*
X238172396Y-38990415D01*
X238003874Y-38920611D01*
X237852209Y-38819272D01*
X237723228Y-38690291D01*
X237621889Y-38538626D01*
X237552085Y-38370104D01*
X237516500Y-38191203D01*
X237516500Y-38008797D01*
X237552085Y-37829896D01*
X237621889Y-37661374D01*
X237723228Y-37509709D01*
X237852209Y-37380728D01*
X238003874Y-37279389D01*
X238172396Y-37209585D01*
X238351297Y-37174000D01*
X238533703Y-37174000D01*
X238712604Y-37209585D01*
G37*
G36*
X228552604Y-37209585D02*
G01*
X228721126Y-37279389D01*
X228872791Y-37380728D01*
X229001772Y-37509709D01*
X229103111Y-37661374D01*
X229172915Y-37829896D01*
X229208500Y-38008797D01*
X229208500Y-38191203D01*
X229172915Y-38370104D01*
X229103111Y-38538626D01*
X229001772Y-38690291D01*
X228872791Y-38819272D01*
X228721126Y-38920611D01*
X228552604Y-38990415D01*
X228373703Y-39026000D01*
X228191297Y-39026000D01*
X228012396Y-38990415D01*
X227843874Y-38920611D01*
X227692209Y-38819272D01*
X227563228Y-38690291D01*
X227461889Y-38538626D01*
X227392085Y-38370104D01*
X227356500Y-38191203D01*
X227356500Y-38008797D01*
X227392085Y-37829896D01*
X227461889Y-37661374D01*
X227563228Y-37509709D01*
X227692209Y-37380728D01*
X227843874Y-37279389D01*
X228012396Y-37209585D01*
X228191297Y-37174000D01*
X228373703Y-37174000D01*
X228552604Y-37209585D01*
G37*
G36*
X209502604Y-37209585D02*
G01*
X209671126Y-37279389D01*
X209822791Y-37380728D01*
X209951772Y-37509709D01*
X210053111Y-37661374D01*
X210122915Y-37829896D01*
X210158500Y-38008797D01*
X210158500Y-38191203D01*
X210122915Y-38370104D01*
X210053111Y-38538626D01*
X209951772Y-38690291D01*
X209822791Y-38819272D01*
X209671126Y-38920611D01*
X209502604Y-38990415D01*
X209323703Y-39026000D01*
X209141297Y-39026000D01*
X208962396Y-38990415D01*
X208793874Y-38920611D01*
X208642209Y-38819272D01*
X208513228Y-38690291D01*
X208411889Y-38538626D01*
X208342085Y-38370104D01*
X208306500Y-38191203D01*
X208306500Y-38008797D01*
X208342085Y-37829896D01*
X208411889Y-37661374D01*
X208513228Y-37509709D01*
X208642209Y-37380728D01*
X208793874Y-37279389D01*
X208962396Y-37209585D01*
X209141297Y-37174000D01*
X209323703Y-37174000D01*
X209502604Y-37209585D01*
G37*
G36*
X200612604Y-37209585D02*
G01*
X200781126Y-37279389D01*
X200932791Y-37380728D01*
X201061772Y-37509709D01*
X201163111Y-37661374D01*
X201232915Y-37829896D01*
X201268500Y-38008797D01*
X201268500Y-38191203D01*
X201232915Y-38370104D01*
X201163111Y-38538626D01*
X201061772Y-38690291D01*
X200932791Y-38819272D01*
X200781126Y-38920611D01*
X200612604Y-38990415D01*
X200433703Y-39026000D01*
X200251297Y-39026000D01*
X200072396Y-38990415D01*
X199903874Y-38920611D01*
X199752209Y-38819272D01*
X199623228Y-38690291D01*
X199521889Y-38538626D01*
X199452085Y-38370104D01*
X199416500Y-38191203D01*
X199416500Y-38008797D01*
X199452085Y-37829896D01*
X199521889Y-37661374D01*
X199623228Y-37509709D01*
X199752209Y-37380728D01*
X199903874Y-37279389D01*
X200072396Y-37209585D01*
X200251297Y-37174000D01*
X200433703Y-37174000D01*
X200612604Y-37209585D01*
G37*
G36*
X190452604Y-37209585D02*
G01*
X190621126Y-37279389D01*
X190772791Y-37380728D01*
X190901772Y-37509709D01*
X191003111Y-37661374D01*
X191072915Y-37829896D01*
X191108500Y-38008797D01*
X191108500Y-38191203D01*
X191072915Y-38370104D01*
X191003111Y-38538626D01*
X190901772Y-38690291D01*
X190772791Y-38819272D01*
X190621126Y-38920611D01*
X190452604Y-38990415D01*
X190273703Y-39026000D01*
X190091297Y-39026000D01*
X189912396Y-38990415D01*
X189743874Y-38920611D01*
X189592209Y-38819272D01*
X189463228Y-38690291D01*
X189361889Y-38538626D01*
X189292085Y-38370104D01*
X189256500Y-38191203D01*
X189256500Y-38008797D01*
X189292085Y-37829896D01*
X189361889Y-37661374D01*
X189463228Y-37509709D01*
X189592209Y-37380728D01*
X189743874Y-37279389D01*
X189912396Y-37209585D01*
X190091297Y-37174000D01*
X190273703Y-37174000D01*
X190452604Y-37209585D01*
G37*
G36*
X246956000Y-35976000D02*
G01*
X245904000Y-35976000D01*
X245904000Y-34574000D01*
X246956000Y-34574000D01*
X246956000Y-35976000D01*
G37*
G36*
X244306000Y-35976000D02*
G01*
X243254000Y-35976000D01*
X243254000Y-34574000D01*
X244306000Y-34574000D01*
X244306000Y-35976000D01*
G37*
G36*
X243874425Y-32494599D02*
G01*
X243998621Y-32519302D01*
X244135022Y-32575801D01*
X244257779Y-32657825D01*
X244362175Y-32762221D01*
X244444199Y-32884978D01*
X244500698Y-33021379D01*
X244529500Y-33166181D01*
X244529500Y-33313819D01*
X244500698Y-33458621D01*
X244444199Y-33595022D01*
X244362175Y-33717779D01*
X244257779Y-33822175D01*
X244135022Y-33904199D01*
X243998621Y-33960698D01*
X243874425Y-33985401D01*
X243853820Y-33989500D01*
X243706180Y-33989500D01*
X243685575Y-33985401D01*
X243561379Y-33960698D01*
X243424978Y-33904199D01*
X243302221Y-33822175D01*
X243197825Y-33717779D01*
X243115801Y-33595022D01*
X243059302Y-33458621D01*
X243030500Y-33313819D01*
X243030500Y-33166181D01*
X243059302Y-33021379D01*
X243115801Y-32884978D01*
X243197825Y-32762221D01*
X243302221Y-32657825D01*
X243424978Y-32575801D01*
X243561379Y-32519302D01*
X243685575Y-32494599D01*
X243706180Y-32490500D01*
X243853820Y-32490500D01*
X243874425Y-32494599D01*
G37*
G36*
X246524425Y-32494599D02*
G01*
X246648621Y-32519302D01*
X246785022Y-32575801D01*
X246907779Y-32657825D01*
X247012175Y-32762221D01*
X247094199Y-32884978D01*
X247150698Y-33021379D01*
X247179500Y-33166181D01*
X247179500Y-33313819D01*
X247150698Y-33458621D01*
X247094199Y-33595022D01*
X247012175Y-33717779D01*
X246907779Y-33822175D01*
X246785022Y-33904199D01*
X246648621Y-33960698D01*
X246524425Y-33985401D01*
X246503820Y-33989500D01*
X246356180Y-33989500D01*
X246335575Y-33985401D01*
X246211379Y-33960698D01*
X246074978Y-33904199D01*
X245952221Y-33822175D01*
X245847825Y-33717779D01*
X245765801Y-33595022D01*
X245709302Y-33458621D01*
X245680500Y-33313819D01*
X245680500Y-33166181D01*
X245709302Y-33021379D01*
X245765801Y-32884978D01*
X245847825Y-32762221D01*
X245952221Y-32657825D01*
X246074978Y-32575801D01*
X246211379Y-32519302D01*
X246335575Y-32494599D01*
X246356180Y-32490500D01*
X246503820Y-32490500D01*
X246524425Y-32494599D01*
G37*
G36*
X266094425Y-26704599D02*
G01*
X266218621Y-26729302D01*
X266355022Y-26785801D01*
X266477779Y-26867825D01*
X266582175Y-26972221D01*
X266664199Y-27094978D01*
X266720698Y-27231379D01*
X266749500Y-27376181D01*
X266749500Y-27523819D01*
X266720698Y-27668621D01*
X266664199Y-27805022D01*
X266582175Y-27927779D01*
X266477779Y-28032175D01*
X266355022Y-28114199D01*
X266218621Y-28170698D01*
X266094425Y-28195401D01*
X266073820Y-28199500D01*
X265926180Y-28199500D01*
X265905575Y-28195401D01*
X265781379Y-28170698D01*
X265644978Y-28114199D01*
X265522221Y-28032175D01*
X265417825Y-27927779D01*
X265335801Y-27805022D01*
X265279302Y-27668621D01*
X265250500Y-27523819D01*
X265250500Y-27376181D01*
X265279302Y-27231379D01*
X265335801Y-27094978D01*
X265417825Y-26972221D01*
X265522221Y-26867825D01*
X265644978Y-26785801D01*
X265781379Y-26729302D01*
X265905575Y-26704599D01*
X265926180Y-26700500D01*
X266073820Y-26700500D01*
X266094425Y-26704599D01*
G37*
G36*
X259129500Y-28199500D02*
G01*
X257630500Y-28199500D01*
X257630500Y-26700500D01*
X259129500Y-26700500D01*
X259129500Y-28199500D01*
G37*
G36*
X261116000Y-27976000D02*
G01*
X259714000Y-27976000D01*
X259714000Y-26924000D01*
X261116000Y-26924000D01*
X261116000Y-27976000D01*
G37*
G36*
X264666000Y-27976000D02*
G01*
X263264000Y-27976000D01*
X263264000Y-26924000D01*
X264666000Y-26924000D01*
X264666000Y-27976000D01*
G37*
G36*
X232829500Y-27499500D02*
G01*
X231330500Y-27499500D01*
X231330500Y-26000500D01*
X232829500Y-26000500D01*
X232829500Y-27499500D01*
G37*
G36*
X235319500Y-27479500D02*
G01*
X233820500Y-27479500D01*
X233820500Y-25980500D01*
X235319500Y-25980500D01*
X235319500Y-27479500D01*
G37*
G36*
X213629500Y-25969500D02*
G01*
X212130500Y-25969500D01*
X212130500Y-24470500D01*
X213629500Y-24470500D01*
X213629500Y-25969500D01*
G37*
G36*
X194759500Y-25779500D02*
G01*
X193260500Y-25779500D01*
X193260500Y-24280500D01*
X194759500Y-24280500D01*
X194759500Y-25779500D01*
G37*
G36*
X232606000Y-25416000D02*
G01*
X231554000Y-25416000D01*
X231554000Y-24014000D01*
X232606000Y-24014000D01*
X232606000Y-25416000D01*
G37*
G36*
X235096000Y-25396000D02*
G01*
X234044000Y-25396000D01*
X234044000Y-23994000D01*
X235096000Y-23994000D01*
X235096000Y-25396000D01*
G37*
G36*
X213406000Y-23886000D02*
G01*
X212354000Y-23886000D01*
X212354000Y-22484000D01*
X213406000Y-22484000D01*
X213406000Y-23886000D01*
G37*
G36*
X194536000Y-23696000D02*
G01*
X193484000Y-23696000D01*
X193484000Y-22294000D01*
X194536000Y-22294000D01*
X194536000Y-23696000D01*
G37*
G36*
X232606000Y-21866000D02*
G01*
X231554000Y-21866000D01*
X231554000Y-20464000D01*
X232606000Y-20464000D01*
X232606000Y-21866000D01*
G37*
G36*
X235096000Y-21846000D02*
G01*
X234044000Y-21846000D01*
X234044000Y-20444000D01*
X235096000Y-20444000D01*
X235096000Y-21846000D01*
G37*
G36*
X186333974Y-17083684D02*
G01*
X186551974Y-17173983D01*
X186706123Y-17237833D01*
X187041048Y-17461623D01*
X187325877Y-17746452D01*
X187549667Y-18081377D01*
X187582062Y-18159586D01*
X187703816Y-18453526D01*
X187782400Y-18848594D01*
X187782400Y-19251406D01*
X187703816Y-19646474D01*
X187615578Y-19859500D01*
X187549667Y-20018623D01*
X187325877Y-20353548D01*
X187041048Y-20638377D01*
X186706123Y-20862167D01*
X186551974Y-20926017D01*
X186333974Y-21016316D01*
X185938906Y-21094900D01*
X185536094Y-21094900D01*
X185141026Y-21016316D01*
X184923026Y-20926017D01*
X184768877Y-20862167D01*
X184433952Y-20638377D01*
X184149123Y-20353548D01*
X183925333Y-20018623D01*
X183859422Y-19859500D01*
X183771184Y-19646474D01*
X183692600Y-19251406D01*
X183692600Y-18848594D01*
X183771184Y-18453526D01*
X183892938Y-18159586D01*
X183925333Y-18081377D01*
X184149123Y-17746452D01*
X184433952Y-17461623D01*
X184768877Y-17237833D01*
X184923026Y-17173983D01*
X185141026Y-17083684D01*
X185536094Y-17005100D01*
X185938906Y-17005100D01*
X186333974Y-17083684D01*
G37*
G36*
X243483974Y-17083684D02*
G01*
X243701974Y-17173983D01*
X243856123Y-17237833D01*
X244191048Y-17461623D01*
X244475877Y-17746452D01*
X244699667Y-18081377D01*
X244732062Y-18159586D01*
X244853816Y-18453526D01*
X244932400Y-18848594D01*
X244932400Y-19251406D01*
X244853816Y-19646474D01*
X244765578Y-19859500D01*
X244699667Y-20018623D01*
X244475877Y-20353548D01*
X244191048Y-20638377D01*
X243856123Y-20862167D01*
X243701974Y-20926017D01*
X243483974Y-21016316D01*
X243088906Y-21094900D01*
X242686094Y-21094900D01*
X242291026Y-21016316D01*
X242073026Y-20926017D01*
X241918877Y-20862167D01*
X241583952Y-20638377D01*
X241299123Y-20353548D01*
X241075333Y-20018623D01*
X241009422Y-19859500D01*
X240921184Y-19646474D01*
X240842600Y-19251406D01*
X240842600Y-18848594D01*
X240921184Y-18453526D01*
X241042938Y-18159586D01*
X241075333Y-18081377D01*
X241299123Y-17746452D01*
X241583952Y-17461623D01*
X241918877Y-17237833D01*
X242073026Y-17173983D01*
X242291026Y-17083684D01*
X242686094Y-17005100D01*
X243088906Y-17005100D01*
X243483974Y-17083684D01*
G37*
G36*
X262533974Y-17083684D02*
G01*
X262751974Y-17173983D01*
X262906123Y-17237833D01*
X263241048Y-17461623D01*
X263525877Y-17746452D01*
X263749667Y-18081377D01*
X263782062Y-18159586D01*
X263903816Y-18453526D01*
X263982400Y-18848594D01*
X263982400Y-19251406D01*
X263903816Y-19646474D01*
X263815578Y-19859500D01*
X263749667Y-20018623D01*
X263525877Y-20353548D01*
X263241048Y-20638377D01*
X262906123Y-20862167D01*
X262751974Y-20926017D01*
X262533974Y-21016316D01*
X262138906Y-21094900D01*
X261736094Y-21094900D01*
X261341026Y-21016316D01*
X261123026Y-20926017D01*
X260968877Y-20862167D01*
X260633952Y-20638377D01*
X260349123Y-20353548D01*
X260125333Y-20018623D01*
X260059422Y-19859500D01*
X259971184Y-19646474D01*
X259892600Y-19251406D01*
X259892600Y-18848594D01*
X259971184Y-18453526D01*
X260092938Y-18159586D01*
X260125333Y-18081377D01*
X260349123Y-17746452D01*
X260633952Y-17461623D01*
X260968877Y-17237833D01*
X261123026Y-17173983D01*
X261341026Y-17083684D01*
X261736094Y-17005100D01*
X262138906Y-17005100D01*
X262533974Y-17083684D01*
G37*
G36*
X205383974Y-17083684D02*
G01*
X205601974Y-17173983D01*
X205756123Y-17237833D01*
X206091048Y-17461623D01*
X206375877Y-17746452D01*
X206599667Y-18081377D01*
X206632062Y-18159586D01*
X206753816Y-18453526D01*
X206832400Y-18848594D01*
X206832400Y-19251406D01*
X206753816Y-19646474D01*
X206665578Y-19859500D01*
X206599667Y-20018623D01*
X206375877Y-20353548D01*
X206091048Y-20638377D01*
X205756123Y-20862167D01*
X205601974Y-20926017D01*
X205383974Y-21016316D01*
X204988906Y-21094900D01*
X204586094Y-21094900D01*
X204191026Y-21016316D01*
X203973026Y-20926017D01*
X203818877Y-20862167D01*
X203483952Y-20638377D01*
X203199123Y-20353548D01*
X202975333Y-20018623D01*
X202909422Y-19859500D01*
X202821184Y-19646474D01*
X202742600Y-19251406D01*
X202742600Y-18848594D01*
X202821184Y-18453526D01*
X202942938Y-18159586D01*
X202975333Y-18081377D01*
X203199123Y-17746452D01*
X203483952Y-17461623D01*
X203818877Y-17237833D01*
X203973026Y-17173983D01*
X204191026Y-17083684D01*
X204586094Y-17005100D01*
X204988906Y-17005100D01*
X205383974Y-17083684D01*
G37*
G36*
X224433974Y-17083684D02*
G01*
X224651974Y-17173983D01*
X224806123Y-17237833D01*
X225141048Y-17461623D01*
X225425877Y-17746452D01*
X225649667Y-18081377D01*
X225682062Y-18159586D01*
X225803816Y-18453526D01*
X225882400Y-18848594D01*
X225882400Y-19251406D01*
X225803816Y-19646474D01*
X225715578Y-19859500D01*
X225649667Y-20018623D01*
X225425877Y-20353548D01*
X225141048Y-20638377D01*
X224806123Y-20862167D01*
X224651974Y-20926017D01*
X224433974Y-21016316D01*
X224038906Y-21094900D01*
X223636094Y-21094900D01*
X223241026Y-21016316D01*
X223023026Y-20926017D01*
X222868877Y-20862167D01*
X222533952Y-20638377D01*
X222249123Y-20353548D01*
X222025333Y-20018623D01*
X221959422Y-19859500D01*
X221871184Y-19646474D01*
X221792600Y-19251406D01*
X221792600Y-18848594D01*
X221871184Y-18453526D01*
X221992938Y-18159586D01*
X222025333Y-18081377D01*
X222249123Y-17746452D01*
X222533952Y-17461623D01*
X222868877Y-17237833D01*
X223023026Y-17173983D01*
X223241026Y-17083684D01*
X223636094Y-17005100D01*
X224038906Y-17005100D01*
X224433974Y-17083684D01*
G37*
G36*
X213406000Y-20336000D02*
G01*
X212354000Y-20336000D01*
X212354000Y-18934000D01*
X213406000Y-18934000D01*
X213406000Y-20336000D01*
G37*
G36*
X194536000Y-20146000D02*
G01*
X193484000Y-20146000D01*
X193484000Y-18744000D01*
X194536000Y-18744000D01*
X194536000Y-20146000D01*
G37*
G36*
X219027604Y-18159585D02*
G01*
X219196126Y-18229389D01*
X219347791Y-18330728D01*
X219476772Y-18459709D01*
X219578111Y-18611374D01*
X219647915Y-18779896D01*
X219683500Y-18958797D01*
X219683500Y-19141203D01*
X219647915Y-19320104D01*
X219578111Y-19488626D01*
X219476772Y-19640291D01*
X219347791Y-19769272D01*
X219196126Y-19870611D01*
X219027604Y-19940415D01*
X218848703Y-19976000D01*
X218666297Y-19976000D01*
X218487396Y-19940415D01*
X218318874Y-19870611D01*
X218167209Y-19769272D01*
X218038228Y-19640291D01*
X217936889Y-19488626D01*
X217867085Y-19320104D01*
X217831500Y-19141203D01*
X217831500Y-18958797D01*
X217867085Y-18779896D01*
X217936889Y-18611374D01*
X218038228Y-18459709D01*
X218167209Y-18330728D01*
X218318874Y-18229389D01*
X218487396Y-18159585D01*
X218666297Y-18124000D01*
X218848703Y-18124000D01*
X219027604Y-18159585D01*
G37*
G36*
X257127604Y-18159585D02*
G01*
X257296126Y-18229389D01*
X257447791Y-18330728D01*
X257576772Y-18459709D01*
X257678111Y-18611374D01*
X257747915Y-18779896D01*
X257783500Y-18958797D01*
X257783500Y-19141203D01*
X257747915Y-19320104D01*
X257678111Y-19488626D01*
X257576772Y-19640291D01*
X257447791Y-19769272D01*
X257296126Y-19870611D01*
X257127604Y-19940415D01*
X256948703Y-19976000D01*
X256766297Y-19976000D01*
X256587396Y-19940415D01*
X256418874Y-19870611D01*
X256267209Y-19769272D01*
X256138228Y-19640291D01*
X256036889Y-19488626D01*
X255967085Y-19320104D01*
X255931500Y-19141203D01*
X255931500Y-18958797D01*
X255967085Y-18779896D01*
X256036889Y-18611374D01*
X256138228Y-18459709D01*
X256267209Y-18330728D01*
X256418874Y-18229389D01*
X256587396Y-18159585D01*
X256766297Y-18124000D01*
X256948703Y-18124000D01*
X257127604Y-18159585D01*
G37*
G36*
X229187604Y-18159585D02*
G01*
X229356126Y-18229389D01*
X229507791Y-18330728D01*
X229636772Y-18459709D01*
X229738111Y-18611374D01*
X229807915Y-18779896D01*
X229843500Y-18958797D01*
X229843500Y-19141203D01*
X229807915Y-19320104D01*
X229738111Y-19488626D01*
X229636772Y-19640291D01*
X229507791Y-19769272D01*
X229356126Y-19870611D01*
X229187604Y-19940415D01*
X229008703Y-19976000D01*
X228826297Y-19976000D01*
X228647396Y-19940415D01*
X228478874Y-19870611D01*
X228327209Y-19769272D01*
X228198228Y-19640291D01*
X228096889Y-19488626D01*
X228027085Y-19320104D01*
X227991500Y-19141203D01*
X227991500Y-18958797D01*
X228027085Y-18779896D01*
X228096889Y-18611374D01*
X228198228Y-18459709D01*
X228327209Y-18330728D01*
X228478874Y-18229389D01*
X228647396Y-18159585D01*
X228826297Y-18124000D01*
X229008703Y-18124000D01*
X229187604Y-18159585D01*
G37*
G36*
X267287604Y-18159585D02*
G01*
X267456126Y-18229389D01*
X267607791Y-18330728D01*
X267736772Y-18459709D01*
X267838111Y-18611374D01*
X267907915Y-18779896D01*
X267943500Y-18958797D01*
X267943500Y-19141203D01*
X267907915Y-19320104D01*
X267838111Y-19488626D01*
X267736772Y-19640291D01*
X267607791Y-19769272D01*
X267456126Y-19870611D01*
X267287604Y-19940415D01*
X267108703Y-19976000D01*
X266926297Y-19976000D01*
X266747396Y-19940415D01*
X266578874Y-19870611D01*
X266427209Y-19769272D01*
X266298228Y-19640291D01*
X266196889Y-19488626D01*
X266127085Y-19320104D01*
X266091500Y-19141203D01*
X266091500Y-18958797D01*
X266127085Y-18779896D01*
X266196889Y-18611374D01*
X266298228Y-18459709D01*
X266427209Y-18330728D01*
X266578874Y-18229389D01*
X266747396Y-18159585D01*
X266926297Y-18124000D01*
X267108703Y-18124000D01*
X267287604Y-18159585D01*
G37*
G36*
X248237604Y-18159585D02*
G01*
X248406126Y-18229389D01*
X248557791Y-18330728D01*
X248686772Y-18459709D01*
X248788111Y-18611374D01*
X248857915Y-18779896D01*
X248893500Y-18958797D01*
X248893500Y-19141203D01*
X248857915Y-19320104D01*
X248788111Y-19488626D01*
X248686772Y-19640291D01*
X248557791Y-19769272D01*
X248406126Y-19870611D01*
X248237604Y-19940415D01*
X248058703Y-19976000D01*
X247876297Y-19976000D01*
X247697396Y-19940415D01*
X247528874Y-19870611D01*
X247377209Y-19769272D01*
X247248228Y-19640291D01*
X247146889Y-19488626D01*
X247077085Y-19320104D01*
X247041500Y-19141203D01*
X247041500Y-18958797D01*
X247077085Y-18779896D01*
X247146889Y-18611374D01*
X247248228Y-18459709D01*
X247377209Y-18330728D01*
X247528874Y-18229389D01*
X247697396Y-18159585D01*
X247876297Y-18124000D01*
X248058703Y-18124000D01*
X248237604Y-18159585D01*
G37*
G36*
X238077604Y-18159585D02*
G01*
X238246126Y-18229389D01*
X238397791Y-18330728D01*
X238526772Y-18459709D01*
X238628111Y-18611374D01*
X238697915Y-18779896D01*
X238733500Y-18958797D01*
X238733500Y-19141203D01*
X238697915Y-19320104D01*
X238628111Y-19488626D01*
X238526772Y-19640291D01*
X238397791Y-19769272D01*
X238246126Y-19870611D01*
X238077604Y-19940415D01*
X237898703Y-19976000D01*
X237716297Y-19976000D01*
X237537396Y-19940415D01*
X237368874Y-19870611D01*
X237217209Y-19769272D01*
X237088228Y-19640291D01*
X236986889Y-19488626D01*
X236917085Y-19320104D01*
X236881500Y-19141203D01*
X236881500Y-18958797D01*
X236917085Y-18779896D01*
X236986889Y-18611374D01*
X237088228Y-18459709D01*
X237217209Y-18330728D01*
X237368874Y-18229389D01*
X237537396Y-18159585D01*
X237716297Y-18124000D01*
X237898703Y-18124000D01*
X238077604Y-18159585D01*
G37*
G36*
X210137604Y-18159585D02*
G01*
X210306126Y-18229389D01*
X210457791Y-18330728D01*
X210586772Y-18459709D01*
X210688111Y-18611374D01*
X210757915Y-18779896D01*
X210793500Y-18958797D01*
X210793500Y-19141203D01*
X210757915Y-19320104D01*
X210688111Y-19488626D01*
X210586772Y-19640291D01*
X210457791Y-19769272D01*
X210306126Y-19870611D01*
X210137604Y-19940415D01*
X209958703Y-19976000D01*
X209776297Y-19976000D01*
X209597396Y-19940415D01*
X209428874Y-19870611D01*
X209277209Y-19769272D01*
X209148228Y-19640291D01*
X209046889Y-19488626D01*
X208977085Y-19320104D01*
X208941500Y-19141203D01*
X208941500Y-18958797D01*
X208977085Y-18779896D01*
X209046889Y-18611374D01*
X209148228Y-18459709D01*
X209277209Y-18330728D01*
X209428874Y-18229389D01*
X209597396Y-18159585D01*
X209776297Y-18124000D01*
X209958703Y-18124000D01*
X210137604Y-18159585D01*
G37*
G36*
X199977604Y-18159585D02*
G01*
X200146126Y-18229389D01*
X200297791Y-18330728D01*
X200426772Y-18459709D01*
X200528111Y-18611374D01*
X200597915Y-18779896D01*
X200633500Y-18958797D01*
X200633500Y-19141203D01*
X200597915Y-19320104D01*
X200528111Y-19488626D01*
X200426772Y-19640291D01*
X200297791Y-19769272D01*
X200146126Y-19870611D01*
X199977604Y-19940415D01*
X199798703Y-19976000D01*
X199616297Y-19976000D01*
X199437396Y-19940415D01*
X199268874Y-19870611D01*
X199117209Y-19769272D01*
X198988228Y-19640291D01*
X198886889Y-19488626D01*
X198817085Y-19320104D01*
X198781500Y-19141203D01*
X198781500Y-18958797D01*
X198817085Y-18779896D01*
X198886889Y-18611374D01*
X198988228Y-18459709D01*
X199117209Y-18330728D01*
X199268874Y-18229389D01*
X199437396Y-18159585D01*
X199616297Y-18124000D01*
X199798703Y-18124000D01*
X199977604Y-18159585D01*
G37*
G36*
X191087604Y-18159585D02*
G01*
X191256126Y-18229389D01*
X191407791Y-18330728D01*
X191536772Y-18459709D01*
X191638111Y-18611374D01*
X191707915Y-18779896D01*
X191743500Y-18958797D01*
X191743500Y-19141203D01*
X191707915Y-19320104D01*
X191638111Y-19488626D01*
X191536772Y-19640291D01*
X191407791Y-19769272D01*
X191256126Y-19870611D01*
X191087604Y-19940415D01*
X190908703Y-19976000D01*
X190726297Y-19976000D01*
X190547396Y-19940415D01*
X190378874Y-19870611D01*
X190227209Y-19769272D01*
X190098228Y-19640291D01*
X189996889Y-19488626D01*
X189927085Y-19320104D01*
X189891500Y-19141203D01*
X189891500Y-18958797D01*
X189927085Y-18779896D01*
X189996889Y-18611374D01*
X190098228Y-18459709D01*
X190227209Y-18330728D01*
X190378874Y-18229389D01*
X190547396Y-18159585D01*
X190726297Y-18124000D01*
X190908703Y-18124000D01*
X191087604Y-18159585D01*
G37*
G36*
X180927604Y-18159585D02*
G01*
X181096126Y-18229389D01*
X181247791Y-18330728D01*
X181376772Y-18459709D01*
X181478111Y-18611374D01*
X181547915Y-18779896D01*
X181583500Y-18958797D01*
X181583500Y-19141203D01*
X181547915Y-19320104D01*
X181478111Y-19488626D01*
X181376772Y-19640291D01*
X181247791Y-19769272D01*
X181096126Y-19870611D01*
X180927604Y-19940415D01*
X180748703Y-19976000D01*
X180566297Y-19976000D01*
X180387396Y-19940415D01*
X180218874Y-19870611D01*
X180067209Y-19769272D01*
X179938228Y-19640291D01*
X179836889Y-19488626D01*
X179767085Y-19320104D01*
X179731500Y-19141203D01*
X179731500Y-18958797D01*
X179767085Y-18779896D01*
X179836889Y-18611374D01*
X179938228Y-18459709D01*
X180067209Y-18330728D01*
X180218874Y-18229389D01*
X180387396Y-18159585D01*
X180566297Y-18124000D01*
X180748703Y-18124000D01*
X180927604Y-18159585D01*
G37*
G36*
X232174425Y-18384599D02*
G01*
X232298621Y-18409302D01*
X232435022Y-18465801D01*
X232557779Y-18547825D01*
X232662175Y-18652221D01*
X232744199Y-18774978D01*
X232800698Y-18911379D01*
X232829500Y-19056181D01*
X232829500Y-19203819D01*
X232800698Y-19348621D01*
X232744199Y-19485022D01*
X232662175Y-19607779D01*
X232557779Y-19712175D01*
X232435022Y-19794199D01*
X232298621Y-19850698D01*
X232174425Y-19875401D01*
X232153820Y-19879500D01*
X232006180Y-19879500D01*
X231985575Y-19875401D01*
X231861379Y-19850698D01*
X231724978Y-19794199D01*
X231602221Y-19712175D01*
X231497825Y-19607779D01*
X231415801Y-19485022D01*
X231359302Y-19348621D01*
X231330500Y-19203819D01*
X231330500Y-19056181D01*
X231359302Y-18911379D01*
X231415801Y-18774978D01*
X231497825Y-18652221D01*
X231602221Y-18547825D01*
X231724978Y-18465801D01*
X231861379Y-18409302D01*
X231985575Y-18384599D01*
X232006180Y-18380500D01*
X232153820Y-18380500D01*
X232174425Y-18384599D01*
G37*
G36*
X234664425Y-18364599D02*
G01*
X234788621Y-18389302D01*
X234925022Y-18445801D01*
X235047779Y-18527825D01*
X235152175Y-18632221D01*
X235234199Y-18754978D01*
X235290698Y-18891379D01*
X235319500Y-19036181D01*
X235319500Y-19183819D01*
X235290698Y-19328621D01*
X235234199Y-19465022D01*
X235152175Y-19587779D01*
X235047779Y-19692175D01*
X234925022Y-19774199D01*
X234788621Y-19830698D01*
X234664425Y-19855401D01*
X234643820Y-19859500D01*
X234496180Y-19859500D01*
X234475575Y-19855401D01*
X234351379Y-19830698D01*
X234214978Y-19774199D01*
X234092221Y-19692175D01*
X233987825Y-19587779D01*
X233905801Y-19465022D01*
X233849302Y-19328621D01*
X233820500Y-19183819D01*
X233820500Y-19036181D01*
X233849302Y-18891379D01*
X233905801Y-18754978D01*
X233987825Y-18632221D01*
X234092221Y-18527825D01*
X234214978Y-18445801D01*
X234351379Y-18389302D01*
X234475575Y-18364599D01*
X234496180Y-18360500D01*
X234643820Y-18360500D01*
X234664425Y-18364599D01*
G37*
G36*
X212974425Y-16854599D02*
G01*
X213098621Y-16879302D01*
X213235022Y-16935801D01*
X213357779Y-17017825D01*
X213462175Y-17122221D01*
X213544199Y-17244978D01*
X213600698Y-17381379D01*
X213629500Y-17526181D01*
X213629500Y-17673819D01*
X213600698Y-17818621D01*
X213544199Y-17955022D01*
X213462175Y-18077779D01*
X213357779Y-18182175D01*
X213235022Y-18264199D01*
X213098621Y-18320698D01*
X212974425Y-18345401D01*
X212953820Y-18349500D01*
X212806180Y-18349500D01*
X212785575Y-18345401D01*
X212661379Y-18320698D01*
X212524978Y-18264199D01*
X212402221Y-18182175D01*
X212297825Y-18077779D01*
X212215801Y-17955022D01*
X212159302Y-17818621D01*
X212130500Y-17673819D01*
X212130500Y-17526181D01*
X212159302Y-17381379D01*
X212215801Y-17244978D01*
X212297825Y-17122221D01*
X212402221Y-17017825D01*
X212524978Y-16935801D01*
X212661379Y-16879302D01*
X212785575Y-16854599D01*
X212806180Y-16850500D01*
X212953820Y-16850500D01*
X212974425Y-16854599D01*
G37*
G36*
X194104425Y-16664599D02*
G01*
X194228621Y-16689302D01*
X194365022Y-16745801D01*
X194487779Y-16827825D01*
X194592175Y-16932221D01*
X194674199Y-17054978D01*
X194730698Y-17191379D01*
X194759500Y-17336181D01*
X194759500Y-17483819D01*
X194730698Y-17628621D01*
X194674199Y-17765022D01*
X194592175Y-17887779D01*
X194487779Y-17992175D01*
X194365022Y-18074199D01*
X194228621Y-18130698D01*
X194104425Y-18155401D01*
X194083820Y-18159500D01*
X193936180Y-18159500D01*
X193915575Y-18155401D01*
X193791379Y-18130698D01*
X193654978Y-18074199D01*
X193532221Y-17992175D01*
X193427825Y-17887779D01*
X193345801Y-17765022D01*
X193289302Y-17628621D01*
X193260500Y-17483819D01*
X193260500Y-17336181D01*
X193289302Y-17191379D01*
X193345801Y-17054978D01*
X193427825Y-16932221D01*
X193532221Y-16827825D01*
X193654978Y-16745801D01*
X193791379Y-16689302D01*
X193915575Y-16664599D01*
X193936180Y-16660500D01*
X194083820Y-16660500D01*
X194104425Y-16664599D01*
G37*
G36*
X228089500Y-9109500D02*
G01*
X226590500Y-9109500D01*
X226590500Y-7610500D01*
X228089500Y-7610500D01*
X228089500Y-9109500D01*
G37*
G36*
X189929500Y-8979500D02*
G01*
X188430500Y-8979500D01*
X188430500Y-7480500D01*
X189929500Y-7480500D01*
X189929500Y-8979500D01*
G37*
G36*
X208989500Y-8849500D02*
G01*
X207490500Y-8849500D01*
X207490500Y-7350500D01*
X208989500Y-7350500D01*
X208989500Y-8849500D01*
G37*
G36*
X268579500Y-7039500D02*
G01*
X267080500Y-7039500D01*
X267080500Y-5540500D01*
X268579500Y-5540500D01*
X268579500Y-7039500D01*
G37*
G36*
X227866000Y-7026000D02*
G01*
X226814000Y-7026000D01*
X226814000Y-5624000D01*
X227866000Y-5624000D01*
X227866000Y-7026000D01*
G37*
G36*
X189706000Y-6896000D02*
G01*
X188654000Y-6896000D01*
X188654000Y-5494000D01*
X189706000Y-5494000D01*
X189706000Y-6896000D01*
G37*
G36*
X208766000Y-6766000D02*
G01*
X207714000Y-6766000D01*
X207714000Y-5364000D01*
X208766000Y-5364000D01*
X208766000Y-6766000D01*
G37*
G36*
X247729500Y-5349500D02*
G01*
X246230500Y-5349500D01*
X246230500Y-3850500D01*
X247729500Y-3850500D01*
X247729500Y-5349500D01*
G37*
G36*
X268356000Y-4956000D02*
G01*
X267304000Y-4956000D01*
X267304000Y-3554000D01*
X268356000Y-3554000D01*
X268356000Y-4956000D01*
G37*
G36*
X227866000Y-3476000D02*
G01*
X226814000Y-3476000D01*
X226814000Y-2074000D01*
X227866000Y-2074000D01*
X227866000Y-3476000D01*
G37*
G36*
X189706000Y-3346000D02*
G01*
X188654000Y-3346000D01*
X188654000Y-1944000D01*
X189706000Y-1944000D01*
X189706000Y-3346000D01*
G37*
G36*
X247506000Y-3266000D02*
G01*
X246454000Y-3266000D01*
X246454000Y-1864000D01*
X247506000Y-1864000D01*
X247506000Y-3266000D01*
G37*
G36*
X208766000Y-3216000D02*
G01*
X207714000Y-3216000D01*
X207714000Y-1814000D01*
X208766000Y-1814000D01*
X208766000Y-3216000D01*
G37*
G36*
X238721474Y1966316D02*
G01*
X238939474Y1876017D01*
X239093623Y1812167D01*
X239428548Y1588377D01*
X239713377Y1303548D01*
X239937167Y968623D01*
X239969562Y890414D01*
X240091316Y596474D01*
X240169900Y201406D01*
X240169900Y-201406D01*
X240091316Y-596474D01*
X240040451Y-719272D01*
X239937167Y-968623D01*
X239713377Y-1303548D01*
X239428548Y-1588377D01*
X239093623Y-1812167D01*
X238968486Y-1864000D01*
X238721474Y-1966316D01*
X238326406Y-2044900D01*
X237923594Y-2044900D01*
X237528526Y-1966316D01*
X237281514Y-1864000D01*
X237156377Y-1812167D01*
X236821452Y-1588377D01*
X236536623Y-1303548D01*
X236312833Y-968623D01*
X236209549Y-719272D01*
X236158684Y-596474D01*
X236080100Y-201406D01*
X236080100Y201406D01*
X236158684Y596474D01*
X236280438Y890414D01*
X236312833Y968623D01*
X236536623Y1303548D01*
X236821452Y1588377D01*
X237156377Y1812167D01*
X237310526Y1876017D01*
X237528526Y1966316D01*
X237923594Y2044900D01*
X238326406Y2044900D01*
X238721474Y1966316D01*
G37*
G36*
X181571474Y1966316D02*
G01*
X181789474Y1876017D01*
X181943623Y1812167D01*
X182278548Y1588377D01*
X182563377Y1303548D01*
X182787167Y968623D01*
X182819562Y890414D01*
X182941316Y596474D01*
X183019900Y201406D01*
X183019900Y-201406D01*
X182941316Y-596474D01*
X182890451Y-719272D01*
X182787167Y-968623D01*
X182563377Y-1303548D01*
X182278548Y-1588377D01*
X181943623Y-1812167D01*
X181818486Y-1864000D01*
X181571474Y-1966316D01*
X181176406Y-2044900D01*
X180773594Y-2044900D01*
X180378526Y-1966316D01*
X180131514Y-1864000D01*
X180006377Y-1812167D01*
X179671452Y-1588377D01*
X179386623Y-1303548D01*
X179162833Y-968623D01*
X179059549Y-719272D01*
X179008684Y-596474D01*
X178930100Y-201406D01*
X178930100Y201406D01*
X179008684Y596474D01*
X179130438Y890414D01*
X179162833Y968623D01*
X179386623Y1303548D01*
X179671452Y1588377D01*
X180006377Y1812167D01*
X180160526Y1876017D01*
X180378526Y1966316D01*
X180773594Y2044900D01*
X181176406Y2044900D01*
X181571474Y1966316D01*
G37*
G36*
X219671474Y1966316D02*
G01*
X219889474Y1876017D01*
X220043623Y1812167D01*
X220378548Y1588377D01*
X220663377Y1303548D01*
X220887167Y968623D01*
X220919562Y890414D01*
X221041316Y596474D01*
X221119900Y201406D01*
X221119900Y-201406D01*
X221041316Y-596474D01*
X220990451Y-719272D01*
X220887167Y-968623D01*
X220663377Y-1303548D01*
X220378548Y-1588377D01*
X220043623Y-1812167D01*
X219918486Y-1864000D01*
X219671474Y-1966316D01*
X219276406Y-2044900D01*
X218873594Y-2044900D01*
X218478526Y-1966316D01*
X218231514Y-1864000D01*
X218106377Y-1812167D01*
X217771452Y-1588377D01*
X217486623Y-1303548D01*
X217262833Y-968623D01*
X217159549Y-719272D01*
X217108684Y-596474D01*
X217030100Y-201406D01*
X217030100Y201406D01*
X217108684Y596474D01*
X217230438Y890414D01*
X217262833Y968623D01*
X217486623Y1303548D01*
X217771452Y1588377D01*
X218106377Y1812167D01*
X218260526Y1876017D01*
X218478526Y1966316D01*
X218873594Y2044900D01*
X219276406Y2044900D01*
X219671474Y1966316D01*
G37*
G36*
X200621474Y1966316D02*
G01*
X200839474Y1876017D01*
X200993623Y1812167D01*
X201328548Y1588377D01*
X201613377Y1303548D01*
X201837167Y968623D01*
X201869562Y890414D01*
X201991316Y596474D01*
X202069900Y201406D01*
X202069900Y-201406D01*
X201991316Y-596474D01*
X201940451Y-719272D01*
X201837167Y-968623D01*
X201613377Y-1303548D01*
X201328548Y-1588377D01*
X200993623Y-1812167D01*
X200868486Y-1864000D01*
X200621474Y-1966316D01*
X200226406Y-2044900D01*
X199823594Y-2044900D01*
X199428526Y-1966316D01*
X199181514Y-1864000D01*
X199056377Y-1812167D01*
X198721452Y-1588377D01*
X198436623Y-1303548D01*
X198212833Y-968623D01*
X198109549Y-719272D01*
X198058684Y-596474D01*
X197980100Y-201406D01*
X197980100Y201406D01*
X198058684Y596474D01*
X198180438Y890414D01*
X198212833Y968623D01*
X198436623Y1303548D01*
X198721452Y1588377D01*
X199056377Y1812167D01*
X199210526Y1876017D01*
X199428526Y1966316D01*
X199823594Y2044900D01*
X200226406Y2044900D01*
X200621474Y1966316D01*
G37*
G36*
X260152473Y1966316D02*
G01*
X260370473Y1876017D01*
X260524622Y1812167D01*
X260859547Y1588377D01*
X261144376Y1303548D01*
X261368166Y968623D01*
X261400561Y890414D01*
X261522315Y596474D01*
X261600899Y201406D01*
X261600899Y-201406D01*
X261522315Y-596474D01*
X261471450Y-719272D01*
X261368166Y-968623D01*
X261144376Y-1303548D01*
X260859547Y-1588377D01*
X260524622Y-1812167D01*
X260399485Y-1864000D01*
X260152473Y-1966316D01*
X259757405Y-2044900D01*
X259354593Y-2044900D01*
X258959525Y-1966316D01*
X258712513Y-1864000D01*
X258587376Y-1812167D01*
X258252451Y-1588377D01*
X257967622Y-1303548D01*
X257743832Y-968623D01*
X257640548Y-719272D01*
X257589683Y-596474D01*
X257511099Y-201406D01*
X257511099Y201406D01*
X257589683Y596474D01*
X257711437Y890414D01*
X257743832Y968623D01*
X257967622Y1303548D01*
X258252451Y1588377D01*
X258587376Y1812167D01*
X258741525Y1876017D01*
X258959525Y1966316D01*
X259354593Y2044900D01*
X259757405Y2044900D01*
X260152473Y1966316D01*
G37*
G36*
X227434425Y5401D02*
G01*
X227558621Y-19302D01*
X227695022Y-75801D01*
X227817779Y-157825D01*
X227922175Y-262221D01*
X228004199Y-384978D01*
X228060698Y-521379D01*
X228089500Y-666181D01*
X228089500Y-813819D01*
X228060698Y-958621D01*
X228004199Y-1095022D01*
X227922175Y-1217779D01*
X227817779Y-1322175D01*
X227695022Y-1404199D01*
X227558621Y-1460698D01*
X227434425Y-1485401D01*
X227413820Y-1489500D01*
X227266180Y-1489500D01*
X227245575Y-1485401D01*
X227121379Y-1460698D01*
X226984978Y-1404199D01*
X226862221Y-1322175D01*
X226757825Y-1217779D01*
X226675801Y-1095022D01*
X226619302Y-958621D01*
X226590500Y-813819D01*
X226590500Y-666181D01*
X226619302Y-521379D01*
X226675801Y-384978D01*
X226757825Y-262221D01*
X226862221Y-157825D01*
X226984978Y-75801D01*
X227121379Y-19302D01*
X227245575Y5401D01*
X227266180Y9500D01*
X227413820Y9500D01*
X227434425Y5401D01*
G37*
G36*
X268356000Y-1406000D02*
G01*
X267304000Y-1406000D01*
X267304000Y-4000D01*
X268356000Y-4000D01*
X268356000Y-1406000D01*
G37*
G36*
X189274425Y135401D02*
G01*
X189398621Y110698D01*
X189535022Y54199D01*
X189657779Y-27825D01*
X189762175Y-132221D01*
X189844199Y-254978D01*
X189900698Y-391379D01*
X189929500Y-536181D01*
X189929500Y-683819D01*
X189900698Y-828621D01*
X189844199Y-965022D01*
X189762175Y-1087779D01*
X189657779Y-1192175D01*
X189535022Y-1274199D01*
X189398621Y-1330698D01*
X189274425Y-1355401D01*
X189253820Y-1359500D01*
X189106180Y-1359500D01*
X189085575Y-1355401D01*
X188961379Y-1330698D01*
X188824978Y-1274199D01*
X188702221Y-1192175D01*
X188597825Y-1087779D01*
X188515801Y-965022D01*
X188459302Y-828621D01*
X188430500Y-683819D01*
X188430500Y-536181D01*
X188459302Y-391379D01*
X188515801Y-254978D01*
X188597825Y-132221D01*
X188702221Y-27825D01*
X188824978Y54199D01*
X188961379Y110698D01*
X189085575Y135401D01*
X189106180Y139500D01*
X189253820Y139500D01*
X189274425Y135401D01*
G37*
G36*
X208334425Y265401D02*
G01*
X208458621Y240698D01*
X208595022Y184199D01*
X208717779Y102175D01*
X208822175Y-2221D01*
X208904199Y-124978D01*
X208960698Y-261379D01*
X208989500Y-406181D01*
X208989500Y-553819D01*
X208960698Y-698621D01*
X208904199Y-835022D01*
X208822175Y-957779D01*
X208717779Y-1062175D01*
X208595022Y-1144199D01*
X208458621Y-1200698D01*
X208334425Y-1225401D01*
X208313820Y-1229500D01*
X208166180Y-1229500D01*
X208145575Y-1225401D01*
X208021379Y-1200698D01*
X207884978Y-1144199D01*
X207762221Y-1062175D01*
X207657825Y-957779D01*
X207575801Y-835022D01*
X207519302Y-698621D01*
X207490500Y-553819D01*
X207490500Y-406181D01*
X207519302Y-261379D01*
X207575801Y-124978D01*
X207657825Y-2221D01*
X207762221Y102175D01*
X207884978Y184199D01*
X208021379Y240698D01*
X208145575Y265401D01*
X208166180Y269500D01*
X208313820Y269500D01*
X208334425Y265401D01*
G37*
G36*
X176165104Y890415D02*
G01*
X176333626Y820611D01*
X176485291Y719272D01*
X176614272Y590291D01*
X176715611Y438626D01*
X176785415Y270104D01*
X176821000Y91203D01*
X176821000Y-91203D01*
X176785415Y-270104D01*
X176715611Y-438626D01*
X176614272Y-590291D01*
X176485291Y-719272D01*
X176333626Y-820611D01*
X176165104Y-890415D01*
X175986203Y-926000D01*
X175803797Y-926000D01*
X175624896Y-890415D01*
X175456374Y-820611D01*
X175304709Y-719272D01*
X175175728Y-590291D01*
X175074389Y-438626D01*
X175004585Y-270104D01*
X174969000Y-91203D01*
X174969000Y91203D01*
X175004585Y270104D01*
X175074389Y438626D01*
X175175728Y590291D01*
X175304709Y719272D01*
X175456374Y820611D01*
X175624896Y890415D01*
X175803797Y926000D01*
X175986203Y926000D01*
X176165104Y890415D01*
G37*
G36*
X264906103Y890415D02*
G01*
X265074625Y820611D01*
X265226290Y719272D01*
X265355271Y590291D01*
X265456610Y438626D01*
X265526414Y270104D01*
X265561999Y91203D01*
X265561999Y-91203D01*
X265526414Y-270104D01*
X265456610Y-438626D01*
X265355271Y-590291D01*
X265226290Y-719272D01*
X265074625Y-820611D01*
X264906103Y-890415D01*
X264727202Y-926000D01*
X264544796Y-926000D01*
X264365895Y-890415D01*
X264197373Y-820611D01*
X264045708Y-719272D01*
X263916727Y-590291D01*
X263815388Y-438626D01*
X263745584Y-270104D01*
X263709999Y-91203D01*
X263709999Y91203D01*
X263745584Y270104D01*
X263815388Y438626D01*
X263916727Y590291D01*
X264045708Y719272D01*
X264197373Y820611D01*
X264365895Y890415D01*
X264544796Y926000D01*
X264727202Y926000D01*
X264906103Y890415D01*
G37*
G36*
X254746103Y890415D02*
G01*
X254914625Y820611D01*
X255066290Y719272D01*
X255195271Y590291D01*
X255296610Y438626D01*
X255366414Y270104D01*
X255401999Y91203D01*
X255401999Y-91203D01*
X255366414Y-270104D01*
X255296610Y-438626D01*
X255195271Y-590291D01*
X255066290Y-719272D01*
X254914625Y-820611D01*
X254746103Y-890415D01*
X254567202Y-926000D01*
X254384796Y-926000D01*
X254205895Y-890415D01*
X254037373Y-820611D01*
X253885708Y-719272D01*
X253756727Y-590291D01*
X253655388Y-438626D01*
X253585584Y-270104D01*
X253549999Y-91203D01*
X253549999Y91203D01*
X253585584Y270104D01*
X253655388Y438626D01*
X253756727Y590291D01*
X253885708Y719272D01*
X254037373Y820611D01*
X254205895Y890415D01*
X254384796Y926000D01*
X254567202Y926000D01*
X254746103Y890415D01*
G37*
G36*
X243475104Y890415D02*
G01*
X243643626Y820611D01*
X243795291Y719272D01*
X243924272Y590291D01*
X244025611Y438626D01*
X244095415Y270104D01*
X244131000Y91203D01*
X244131000Y-91203D01*
X244095415Y-270104D01*
X244025611Y-438626D01*
X243924272Y-590291D01*
X243795291Y-719272D01*
X243643626Y-820611D01*
X243475104Y-890415D01*
X243296203Y-926000D01*
X243113797Y-926000D01*
X242934896Y-890415D01*
X242766374Y-820611D01*
X242614709Y-719272D01*
X242485728Y-590291D01*
X242384389Y-438626D01*
X242314585Y-270104D01*
X242279000Y-91203D01*
X242279000Y91203D01*
X242314585Y270104D01*
X242384389Y438626D01*
X242485728Y590291D01*
X242614709Y719272D01*
X242766374Y820611D01*
X242934896Y890415D01*
X243113797Y926000D01*
X243296203Y926000D01*
X243475104Y890415D01*
G37*
G36*
X233315104Y890415D02*
G01*
X233483626Y820611D01*
X233635291Y719272D01*
X233764272Y590291D01*
X233865611Y438626D01*
X233935415Y270104D01*
X233971000Y91203D01*
X233971000Y-91203D01*
X233935415Y-270104D01*
X233865611Y-438626D01*
X233764272Y-590291D01*
X233635291Y-719272D01*
X233483626Y-820611D01*
X233315104Y-890415D01*
X233136203Y-926000D01*
X232953797Y-926000D01*
X232774896Y-890415D01*
X232606374Y-820611D01*
X232454709Y-719272D01*
X232325728Y-590291D01*
X232224389Y-438626D01*
X232154585Y-270104D01*
X232119000Y-91203D01*
X232119000Y91203D01*
X232154585Y270104D01*
X232224389Y438626D01*
X232325728Y590291D01*
X232454709Y719272D01*
X232606374Y820611D01*
X232774896Y890415D01*
X232953797Y926000D01*
X233136203Y926000D01*
X233315104Y890415D01*
G37*
G36*
X224425104Y890415D02*
G01*
X224593626Y820611D01*
X224745291Y719272D01*
X224874272Y590291D01*
X224975611Y438626D01*
X225045415Y270104D01*
X225081000Y91203D01*
X225081000Y-91203D01*
X225045415Y-270104D01*
X224975611Y-438626D01*
X224874272Y-590291D01*
X224745291Y-719272D01*
X224593626Y-820611D01*
X224425104Y-890415D01*
X224246203Y-926000D01*
X224063797Y-926000D01*
X223884896Y-890415D01*
X223716374Y-820611D01*
X223564709Y-719272D01*
X223435728Y-590291D01*
X223334389Y-438626D01*
X223264585Y-270104D01*
X223229000Y-91203D01*
X223229000Y91203D01*
X223264585Y270104D01*
X223334389Y438626D01*
X223435728Y590291D01*
X223564709Y719272D01*
X223716374Y820611D01*
X223884896Y890415D01*
X224063797Y926000D01*
X224246203Y926000D01*
X224425104Y890415D01*
G37*
G36*
X214265104Y890415D02*
G01*
X214433626Y820611D01*
X214585291Y719272D01*
X214714272Y590291D01*
X214815611Y438626D01*
X214885415Y270104D01*
X214921000Y91203D01*
X214921000Y-91203D01*
X214885415Y-270104D01*
X214815611Y-438626D01*
X214714272Y-590291D01*
X214585291Y-719272D01*
X214433626Y-820611D01*
X214265104Y-890415D01*
X214086203Y-926000D01*
X213903797Y-926000D01*
X213724896Y-890415D01*
X213556374Y-820611D01*
X213404709Y-719272D01*
X213275728Y-590291D01*
X213174389Y-438626D01*
X213104585Y-270104D01*
X213069000Y-91203D01*
X213069000Y91203D01*
X213104585Y270104D01*
X213174389Y438626D01*
X213275728Y590291D01*
X213404709Y719272D01*
X213556374Y820611D01*
X213724896Y890415D01*
X213903797Y926000D01*
X214086203Y926000D01*
X214265104Y890415D01*
G37*
G36*
X205375104Y890415D02*
G01*
X205543626Y820611D01*
X205695291Y719272D01*
X205824272Y590291D01*
X205925611Y438626D01*
X205995415Y270104D01*
X206031000Y91203D01*
X206031000Y-91203D01*
X205995415Y-270104D01*
X205925611Y-438626D01*
X205824272Y-590291D01*
X205695291Y-719272D01*
X205543626Y-820611D01*
X205375104Y-890415D01*
X205196203Y-926000D01*
X205013797Y-926000D01*
X204834896Y-890415D01*
X204666374Y-820611D01*
X204514709Y-719272D01*
X204385728Y-590291D01*
X204284389Y-438626D01*
X204214585Y-270104D01*
X204179000Y-91203D01*
X204179000Y91203D01*
X204214585Y270104D01*
X204284389Y438626D01*
X204385728Y590291D01*
X204514709Y719272D01*
X204666374Y820611D01*
X204834896Y890415D01*
X205013797Y926000D01*
X205196203Y926000D01*
X205375104Y890415D01*
G37*
G36*
X186325104Y890415D02*
G01*
X186493626Y820611D01*
X186645291Y719272D01*
X186774272Y590291D01*
X186875611Y438626D01*
X186945415Y270104D01*
X186981000Y91203D01*
X186981000Y-91203D01*
X186945415Y-270104D01*
X186875611Y-438626D01*
X186774272Y-590291D01*
X186645291Y-719272D01*
X186493626Y-820611D01*
X186325104Y-890415D01*
X186146203Y-926000D01*
X185963797Y-926000D01*
X185784896Y-890415D01*
X185616374Y-820611D01*
X185464709Y-719272D01*
X185335728Y-590291D01*
X185234389Y-438626D01*
X185164585Y-270104D01*
X185129000Y-91203D01*
X185129000Y91203D01*
X185164585Y270104D01*
X185234389Y438626D01*
X185335728Y590291D01*
X185464709Y719272D01*
X185616374Y820611D01*
X185784896Y890415D01*
X185963797Y926000D01*
X186146203Y926000D01*
X186325104Y890415D01*
G37*
G36*
X195215104Y890415D02*
G01*
X195383626Y820611D01*
X195535291Y719272D01*
X195664272Y590291D01*
X195765611Y438626D01*
X195835415Y270104D01*
X195871000Y91203D01*
X195871000Y-91203D01*
X195835415Y-270104D01*
X195765611Y-438626D01*
X195664272Y-590291D01*
X195535291Y-719272D01*
X195383626Y-820611D01*
X195215104Y-890415D01*
X195036203Y-926000D01*
X194853797Y-926000D01*
X194674896Y-890415D01*
X194506374Y-820611D01*
X194354709Y-719272D01*
X194225728Y-590291D01*
X194124389Y-438626D01*
X194054585Y-270104D01*
X194019000Y-91203D01*
X194019000Y91203D01*
X194054585Y270104D01*
X194124389Y438626D01*
X194225728Y590291D01*
X194354709Y719272D01*
X194506374Y820611D01*
X194674896Y890415D01*
X194853797Y926000D01*
X195036203Y926000D01*
X195215104Y890415D01*
G37*
G36*
X247506000Y284000D02*
G01*
X246454000Y284000D01*
X246454000Y1686000D01*
X247506000Y1686000D01*
X247506000Y284000D01*
G37*
G36*
X267924425Y2075401D02*
G01*
X268048621Y2050698D01*
X268185022Y1994199D01*
X268307779Y1912175D01*
X268412175Y1807779D01*
X268494199Y1685022D01*
X268550698Y1548621D01*
X268579500Y1403819D01*
X268579500Y1256181D01*
X268550698Y1111379D01*
X268494199Y974978D01*
X268412175Y852221D01*
X268307779Y747825D01*
X268185022Y665801D01*
X268048621Y609302D01*
X267924425Y584599D01*
X267903820Y580500D01*
X267756180Y580500D01*
X267735575Y584599D01*
X267611379Y609302D01*
X267474978Y665801D01*
X267352221Y747825D01*
X267247825Y852221D01*
X267165801Y974978D01*
X267109302Y1111379D01*
X267080500Y1256181D01*
X267080500Y1403819D01*
X267109302Y1548621D01*
X267165801Y1685022D01*
X267247825Y1807779D01*
X267352221Y1912175D01*
X267474978Y1994199D01*
X267611379Y2050698D01*
X267735575Y2075401D01*
X267756180Y2079500D01*
X267903820Y2079500D01*
X267924425Y2075401D01*
G37*
G36*
X247074425Y3765401D02*
G01*
X247198621Y3740698D01*
X247335022Y3684199D01*
X247457779Y3602175D01*
X247562175Y3497779D01*
X247644199Y3375022D01*
X247700698Y3238621D01*
X247729500Y3093819D01*
X247729500Y2946181D01*
X247700698Y2801379D01*
X247644199Y2664978D01*
X247562175Y2542221D01*
X247457779Y2437825D01*
X247335022Y2355801D01*
X247198621Y2299302D01*
X247074425Y2274599D01*
X247053820Y2270500D01*
X246906180Y2270500D01*
X246885575Y2274599D01*
X246761379Y2299302D01*
X246624978Y2355801D01*
X246502221Y2437825D01*
X246397825Y2542221D01*
X246315801Y2664978D01*
X246259302Y2801379D01*
X246230500Y2946181D01*
X246230500Y3093819D01*
X246259302Y3238621D01*
X246315801Y3375022D01*
X246397825Y3497779D01*
X246502221Y3602175D01*
X246624978Y3684199D01*
X246761379Y3740698D01*
X246885575Y3765401D01*
X246906180Y3769500D01*
X247053820Y3769500D01*
X247074425Y3765401D01*
G37*
G36*
X217321147Y10785611D02*
G01*
X217511322Y10706838D01*
X217512418Y10706384D01*
X217555007Y10677927D01*
X217684556Y10591365D01*
X217830948Y10444973D01*
X217945968Y10272833D01*
X218025194Y10081564D01*
X218065583Y9878516D01*
X218065583Y9671484D01*
X218025194Y9468436D01*
X217945968Y9277167D01*
X217945967Y9277165D01*
X217830948Y9105027D01*
X217684556Y8958635D01*
X217512418Y8843616D01*
X217512417Y8843615D01*
X217512416Y8843615D01*
X217321147Y8764389D01*
X217118099Y8724000D01*
X216911067Y8724000D01*
X216708019Y8764389D01*
X216516750Y8843615D01*
X216516749Y8843615D01*
X216516748Y8843616D01*
X216344610Y8958635D01*
X216198218Y9105027D01*
X216083199Y9277165D01*
X216083198Y9277167D01*
X216003972Y9468436D01*
X215963583Y9671484D01*
X215963583Y9878516D01*
X216003972Y10081564D01*
X216083198Y10272833D01*
X216198218Y10444973D01*
X216344610Y10591365D01*
X216474159Y10677927D01*
X216516748Y10706384D01*
X216517844Y10706838D01*
X216708019Y10785611D01*
X216911067Y10826000D01*
X217118099Y10826000D01*
X217321147Y10785611D01*
G37*
G36*
X220481822Y12878961D02*
G01*
X220527599Y12868287D01*
X220654670Y12838658D01*
X220654674Y12838656D01*
X220654675Y12838656D01*
X220775819Y12783767D01*
X221545302Y12339505D01*
X221638993Y12272367D01*
X221653417Y12262031D01*
X221774742Y12132494D01*
X221868464Y11981776D01*
X221890911Y11922134D01*
X221930981Y11815673D01*
X221930981Y11815671D01*
X221959892Y11640561D01*
X221954086Y11463174D01*
X221913784Y11290329D01*
X221840536Y11128668D01*
X221737157Y10984402D01*
X221607619Y10863077D01*
X221456901Y10769355D01*
X221290799Y10706838D01*
X221215749Y10694448D01*
X221115686Y10677927D01*
X221115682Y10677927D01*
X220938296Y10683733D01*
X220765454Y10724035D01*
X220644305Y10778927D01*
X219874827Y11223185D01*
X219820766Y11261925D01*
X219766707Y11300663D01*
X219766704Y11300666D01*
X219645383Y11430199D01*
X219609448Y11487987D01*
X219551660Y11580918D01*
X219489142Y11747024D01*
X219460232Y11922134D01*
X219466038Y12099517D01*
X219491481Y12208635D01*
X219506341Y12272365D01*
X219536762Y12339506D01*
X219579588Y12434026D01*
X219682969Y12578293D01*
X219812504Y12699616D01*
X219870292Y12735551D01*
X219963223Y12793339D01*
X220046276Y12824597D01*
X220129329Y12855857D01*
X220304439Y12884767D01*
X220481822Y12878961D01*
G37*
G36*
X211691981Y14035611D02*
G01*
X211883250Y13956385D01*
X211883252Y13956384D01*
X212055390Y13841365D01*
X212201782Y13694973D01*
X212288472Y13565233D01*
X212316802Y13522833D01*
X212396028Y13331564D01*
X212436417Y13128516D01*
X212436417Y12921484D01*
X212396028Y12718436D01*
X212316802Y12527167D01*
X212316801Y12527165D01*
X212201782Y12355027D01*
X212055390Y12208635D01*
X211883252Y12093616D01*
X211883251Y12093615D01*
X211883250Y12093615D01*
X211691981Y12014389D01*
X211488933Y11974000D01*
X211281901Y11974000D01*
X211078853Y12014389D01*
X210887584Y12093615D01*
X210887583Y12093615D01*
X210887582Y12093616D01*
X210715444Y12208635D01*
X210569052Y12355027D01*
X210454033Y12527165D01*
X210454032Y12527167D01*
X210374806Y12718436D01*
X210334417Y12921484D01*
X210334417Y13128516D01*
X210374806Y13331564D01*
X210454032Y13522833D01*
X210482363Y13565233D01*
X210569052Y13694973D01*
X210715444Y13841365D01*
X210887582Y13956384D01*
X210887584Y13956385D01*
X211078853Y14035611D01*
X211281901Y14076000D01*
X211488933Y14076000D01*
X211691981Y14035611D01*
G37*
G36*
X217017720Y14878961D02*
G01*
X217060087Y14869082D01*
X217190568Y14838658D01*
X217190572Y14838656D01*
X217190573Y14838656D01*
X217311717Y14783767D01*
X218081200Y14339505D01*
X218189314Y14262032D01*
X218189315Y14262031D01*
X218310640Y14132494D01*
X218404362Y13981776D01*
X218426809Y13922134D01*
X218466879Y13815673D01*
X218466879Y13815671D01*
X218495790Y13640561D01*
X218495790Y13640557D01*
X218493324Y13565233D01*
X218489984Y13463174D01*
X218449682Y13290329D01*
X218376434Y13128668D01*
X218273055Y12984402D01*
X218166675Y12884767D01*
X218143517Y12863077D01*
X217992799Y12769355D01*
X217826697Y12706838D01*
X217751647Y12694448D01*
X217651584Y12677927D01*
X217651580Y12677927D01*
X217474194Y12683733D01*
X217301352Y12724035D01*
X217180203Y12778927D01*
X216410725Y13223185D01*
X216356664Y13261925D01*
X216302605Y13300663D01*
X216273662Y13331565D01*
X216181281Y13430199D01*
X216097312Y13565233D01*
X216087558Y13580918D01*
X216044631Y13694973D01*
X216025040Y13747024D01*
X215996130Y13922134D01*
X216001936Y14099517D01*
X216016455Y14161784D01*
X216042239Y14272365D01*
X216072660Y14339506D01*
X216115486Y14434026D01*
X216218867Y14578293D01*
X216348402Y14699616D01*
X216406190Y14735551D01*
X216499121Y14793339D01*
X216582174Y14824597D01*
X216665227Y14855857D01*
X216840337Y14884767D01*
X217017720Y14878961D01*
G37*
G36*
X223880860Y15766267D02*
G01*
X223926637Y15755593D01*
X224053708Y15725964D01*
X224053712Y15725962D01*
X224053713Y15725962D01*
X224174857Y15671073D01*
X224944340Y15226811D01*
X225052454Y15149338D01*
X225052455Y15149337D01*
X225173780Y15019800D01*
X225267502Y14869082D01*
X225293253Y14800663D01*
X225330019Y14702979D01*
X225330019Y14702977D01*
X225358930Y14527867D01*
X225353124Y14350480D01*
X225312822Y14177635D01*
X225239574Y14015974D01*
X225136195Y13871708D01*
X225006657Y13750383D01*
X224855939Y13656661D01*
X224689837Y13594144D01*
X224614787Y13581754D01*
X224514724Y13565233D01*
X224514720Y13565233D01*
X224337334Y13571039D01*
X224164492Y13611341D01*
X224043343Y13666233D01*
X223273865Y14110491D01*
X223219804Y14149231D01*
X223165745Y14187969D01*
X223162310Y14191636D01*
X223044421Y14317505D01*
X222971964Y14434026D01*
X222950698Y14468224D01*
X222919440Y14551277D01*
X222888180Y14634330D01*
X222859270Y14809440D01*
X222865076Y14986823D01*
X222897524Y15125983D01*
X222905379Y15159671D01*
X222944958Y15247024D01*
X222978626Y15321332D01*
X223082007Y15465599D01*
X223211542Y15586922D01*
X223284827Y15632493D01*
X223362261Y15680645D01*
X223528367Y15743163D01*
X223703477Y15772073D01*
X223880860Y15766267D01*
G37*
G36*
X220317816Y15140561D02*
G01*
X220391106Y15125983D01*
X220509580Y15076909D01*
X220616204Y15005665D01*
X220706881Y14914988D01*
X220730954Y14878961D01*
X220778126Y14808362D01*
X220827199Y14689890D01*
X220852216Y14564119D01*
X220852216Y14435881D01*
X220827199Y14310110D01*
X220814283Y14278927D01*
X220778125Y14191636D01*
X220706881Y14085012D01*
X220616204Y13994335D01*
X220509580Y13923091D01*
X220509579Y13923090D01*
X220509578Y13923090D01*
X220391106Y13874017D01*
X220265335Y13849000D01*
X220137097Y13849000D01*
X220011326Y13874017D01*
X219892854Y13923090D01*
X219892853Y13923090D01*
X219892852Y13923091D01*
X219786228Y13994335D01*
X219695551Y14085012D01*
X219624307Y14191636D01*
X219588150Y14278927D01*
X219575233Y14310110D01*
X219550216Y14435881D01*
X219550216Y14564119D01*
X219575233Y14689890D01*
X219624306Y14808362D01*
X219671479Y14878961D01*
X219695551Y14914988D01*
X219786228Y15005665D01*
X219892852Y15076909D01*
X220011326Y15125983D01*
X220084616Y15140561D01*
X220137097Y15151000D01*
X220265335Y15151000D01*
X220317816Y15140561D01*
G37*
G36*
X214419644Y16378961D02*
G01*
X214465421Y16368287D01*
X214592492Y16338658D01*
X214592496Y16338656D01*
X214592497Y16338656D01*
X214713641Y16283767D01*
X215483124Y15839505D01*
X215585328Y15766267D01*
X215591239Y15762031D01*
X215712564Y15632494D01*
X215806286Y15481776D01*
X215828733Y15422134D01*
X215868803Y15315673D01*
X215868803Y15315671D01*
X215897714Y15140561D01*
X215891908Y14963174D01*
X215851606Y14790329D01*
X215778358Y14628668D01*
X215674979Y14484402D01*
X215545441Y14363077D01*
X215394723Y14269355D01*
X215228621Y14206838D01*
X215153571Y14194448D01*
X215053508Y14177927D01*
X215053504Y14177927D01*
X214876118Y14183733D01*
X214703276Y14224035D01*
X214582127Y14278927D01*
X213812649Y14723185D01*
X213728108Y14783767D01*
X213704529Y14800663D01*
X213696308Y14809440D01*
X213583205Y14930199D01*
X213536278Y15005665D01*
X213489482Y15080918D01*
X213426964Y15247024D01*
X213398054Y15422134D01*
X213403860Y15599517D01*
X213422777Y15680645D01*
X213444163Y15772365D01*
X213474584Y15839506D01*
X213517410Y15934026D01*
X213620791Y16078293D01*
X213750326Y16199616D01*
X213808114Y16235551D01*
X213901045Y16293339D01*
X214067151Y16355857D01*
X214242261Y16384767D01*
X214419644Y16378961D01*
G37*
G36*
X214328928Y18625983D02*
G01*
X214447402Y18576909D01*
X214554026Y18505665D01*
X214644703Y18414988D01*
X214715947Y18308364D01*
X214765021Y18189890D01*
X214790038Y18064118D01*
X214790038Y17935882D01*
X214765021Y17810110D01*
X214715947Y17691636D01*
X214644703Y17585012D01*
X214554026Y17494335D01*
X214447402Y17423091D01*
X214447401Y17423090D01*
X214447400Y17423090D01*
X214328928Y17374017D01*
X214203157Y17349000D01*
X214074919Y17349000D01*
X213949148Y17374017D01*
X213830676Y17423090D01*
X213830675Y17423090D01*
X213830674Y17423091D01*
X213724050Y17494335D01*
X213633373Y17585012D01*
X213562129Y17691636D01*
X213513055Y17810110D01*
X213488038Y17935882D01*
X213488038Y18064118D01*
X213513055Y18189890D01*
X213562129Y18308364D01*
X213633373Y18414988D01*
X213724050Y18505665D01*
X213830674Y18576909D01*
X213949148Y18625983D01*
X214074919Y18651000D01*
X214203157Y18651000D01*
X214328928Y18625983D01*
G37*
M02*
