G04 #@! TF.GenerationSoftware,KiCad,Pcbnew,(5.1.6-0-10_14)*
G04 #@! TF.CreationDate,2022-04-19T23:27:22+09:00*
G04 #@! TF.ProjectId,cool936,636f6f6c-3933-4362-9e6b-696361645f70,rev?*
G04 #@! TF.SameCoordinates,Original*
G04 #@! TF.FileFunction,Profile,NP*
%FSLAX46Y46*%
G04 Gerber Fmt 4.6, Leading zero omitted, Abs format (unit mm)*
G04 Created by KiCad (PCBNEW (5.1.6-0-10_14)) date 2022-04-19 23:27:22*
%MOMM*%
%LPD*%
G01*
G04 APERTURE LIST*
G04 #@! TA.AperFunction,Profile*
%ADD10C,0.150000*%
G04 #@! TD*
G04 #@! TA.AperFunction,Profile*
%ADD11C,0.120000*%
G04 #@! TD*
G04 APERTURE END LIST*
D10*
X171450000Y9240000D02*
X207290000Y9240000D01*
X214770000Y22070000D02*
X207290000Y9240000D01*
X238150000Y9240000D02*
X214770000Y22070000D01*
X270320000Y3870000D02*
X270320000Y9240000D01*
X270320000Y-65360000D02*
X180980000Y-65360000D01*
X270320000Y3870000D02*
X270320000Y-65360000D01*
X238150000Y9240000D02*
X270320000Y9240000D01*
X171450000Y-6990000D02*
X171450000Y9240000D01*
X176210000Y-6990000D02*
X171450000Y-6990000D01*
X176210000Y-26130000D02*
X176210000Y-6990000D01*
X185740000Y-26130000D02*
X176210000Y-26130000D01*
X185740000Y-48850000D02*
X185740000Y-26130000D01*
X180980000Y-48850000D02*
X185740000Y-48850000D01*
X180980000Y-65360000D02*
X180980000Y-48850000D01*
D11*
X196970000Y-29980000D02*
X193570000Y-29980000D01*
X196970000Y-26980000D02*
X196970000Y-29980000D01*
X193570000Y-26980000D02*
X196970000Y-26980000D01*
X193570000Y-29980000D02*
X193570000Y-26980000D01*
X222120000Y-30040000D02*
X222120000Y-27040000D01*
X222120000Y-27040000D02*
X225520000Y-27040000D01*
X225520000Y-27040000D02*
X225520000Y-30040000D01*
X225520000Y-30040000D02*
X222120000Y-30040000D01*
X251470000Y-29980000D02*
X248070000Y-29980000D01*
X251470000Y-26980000D02*
X251470000Y-29980000D01*
X248070000Y-26980000D02*
X251470000Y-26980000D01*
X248070000Y-29980000D02*
X248070000Y-26980000D01*
M02*
