M48
; DRILL file {KiCad (5.1.6-0-10_14)} date Tuesday, April 19, 2022 at 11:27:26 PM
; FORMAT={-:-/ absolute / metric / decimal}
; #@! TF.CreationDate,2022-04-19T23:27:26+09:00
; #@! TF.GenerationSoftware,Kicad,Pcbnew,(5.1.6-0-10_14)
; #@! TF.FileFunction,Plated,1,2,PTH
FMAT,2
METRIC
T1C0.400
T2C0.813
T3C1.000
T4C1.300
T5C3.000
%
G90
G05
T1
X178.653Y-10.747
X190.57Y-29.34
X192.97Y-5.26
X192.97Y-9.81
X204.31Y-8.955
X204.41Y-31.76
X204.44Y-22.82
X207.08Y-23.96
X207.08Y-31.42
X208.93Y-23.95
X208.97Y-27.73
X209.45Y-50.86
X209.46Y-44.95
X210.46Y-31.95
X213.86Y-8.84
X213.94Y-5.85
X214.49Y-29.49
X215.57Y-23.71
X216.65Y-5.88
X216.65Y-8.96
X218.12Y-9.8
X218.14Y-10.88
X218.93Y-29.34
X226.89Y9.06
X228.32Y-29.35
X228.33Y-31.15
X228.77Y-22.1
X229.64Y-31.24
X231.45Y-3.56
X231.98Y-11.21
X232.2Y-29.21
X233.63Y-7.6
X233.7Y-8.97
X233.74Y-10.22
X235.76Y-12.14
X237.88Y-50.36
X237.89Y-43.21
X238.06Y-10.15
X240.71Y-4.28
X242.88Y-3.88
X244.91Y-29.23
X249.52Y-22.2
X249.65Y-5.325
X249.78Y6.02
X249.78Y-11.04
X249.792Y-0.768
X250.64Y-23.02
X252.23Y-0.71
X252.37Y-26.07
X252.55Y-4.6
X254.57Y-8.84
X254.83Y-12.19
X255.38Y-32.44
X257.35Y-13.21
X264.42Y-4.6
X265.53Y-7.84
X210.185Y3.302
X210.185Y1.778
X226.695Y5.842
X226.695Y4.318
X195.897Y-15.748
X195.897Y-17.272
X212.407Y-13.208
X212.407Y-14.732
X181.61Y-53.848
X181.61Y-55.372
X198.12Y-51.308
X198.12Y-52.832
X207.804Y-53.848
X207.804Y-55.372
X224.314Y-51.308
X224.314Y-52.832
X229.235Y3.302
X229.235Y1.778
X245.745Y5.842
X245.745Y4.318
X253.047Y-15.748
X253.047Y-17.272
X269.558Y-13.208
X269.558Y-14.732
X186.373Y-34.798
X186.373Y-36.322
X202.882Y-32.258
X202.882Y-33.782
X191.135Y3.302
X191.135Y1.778
X207.645Y5.842
X207.645Y4.318
X172.085Y3.302
X172.085Y1.778
X188.595Y5.842
X188.595Y4.318
X205.422Y-34.798
X205.422Y-36.322
X221.932Y-32.258
X221.932Y-33.782
X176.847Y-15.748
X176.847Y-17.272
X193.357Y-13.208
X193.357Y-14.732
X248.285Y-34.798
X248.285Y-36.322
X264.796Y-32.258
X264.796Y-33.782
X214.947Y-15.748
X214.947Y-17.272
X231.457Y-13.208
X231.457Y-14.732
X224.472Y-34.798
X224.472Y-36.322
X240.982Y-32.258
X240.982Y-33.782
X233.998Y-15.748
X233.998Y-17.272
X250.507Y-13.208
X250.507Y-14.732
X250.666Y3.302
X250.666Y1.778
X267.176Y5.842
X267.176Y4.318
X236.379Y-53.848
X236.379Y-55.372
X252.888Y-51.308
X252.888Y-52.832
T2
X243.78Y-33.24
X243.78Y-40.86
X203.5Y-38.53
X203.5Y-46.15
X267.83Y1.33
X267.83Y-6.29
X234.57Y-19.11
X234.57Y-26.73
X258.38Y-27.45
X266.0Y-27.45
X246.43Y-33.24
X246.43Y-40.86
X232.08Y-19.13
X232.08Y-26.75
X256.48Y-51.265
X256.48Y-58.885
X222.5Y-38.56
X222.5Y-46.18
X227.34Y-0.74
X227.34Y-8.36
X235.498Y8.019
X235.498Y-7.201
X238.038Y8.019
X238.038Y-7.201
X240.578Y8.019
X240.578Y-7.201
X243.118Y8.019
X243.118Y-7.201
X245.658Y8.019
X245.658Y-7.201
X248.198Y8.019
X248.198Y-7.201
X250.738Y8.019
X250.738Y-7.201
X253.278Y8.019
X253.278Y-7.201
X255.818Y8.019
X255.818Y-7.201
X258.358Y8.019
X258.358Y-7.201
X260.898Y8.019
X260.898Y-7.201
X263.438Y8.019
X263.438Y-7.201
X189.18Y-0.61
X189.18Y-8.23
X194.01Y-17.41
X194.01Y-25.03
X246.98Y3.02
X246.98Y-4.6
X232.39Y-51.33
X232.39Y-58.95
X208.24Y-0.48
X208.24Y-8.1
X212.88Y-17.6
X212.88Y-25.22
X201.76Y-51.28
X201.76Y-58.9
T4
X211.385Y13.025
X217.015Y9.775
T5
X229.552Y-35.56
X235.903Y-33.02
X239.077Y-16.51
X245.427Y-13.97
X255.746Y2.54
X262.096Y5.08
X241.458Y-54.61
X247.808Y-52.07
X215.265Y2.54
X221.615Y5.08
X200.977Y-16.51
X207.327Y-13.97
X186.69Y-54.61
X193.04Y-52.07
X212.884Y-54.61
X219.234Y-52.07
X234.315Y2.54
X240.665Y5.08
X258.127Y-16.51
X264.477Y-13.97
X191.452Y-35.56
X197.802Y-33.02
X196.215Y2.54
X202.565Y5.08
X177.165Y2.54
X183.515Y5.08
X210.502Y-35.56
X216.852Y-33.02
X181.927Y-16.51
X188.278Y-13.97
X253.365Y-35.56
X259.715Y-33.02
X220.028Y-16.51
X226.377Y-13.97
T3
G00X214.864Y15.156
M15
G01X214.431Y15.406
M16
G05
G00X217.462Y13.656
M15
G01X217.029Y13.906
M16
G05
G00X220.927Y11.656
M15
G01X220.494Y11.906
M16
G05
G00X224.326Y14.544
M15
G01X223.893Y14.794
M16
G05
T0
M30
