M48
; DRILL file {KiCad (5.1.6-0-10_14)} date Wednesday, May 18, 2022 at 07:33:56 PM
; FORMAT={-:-/ absolute / metric / decimal}
; #@! TF.CreationDate,2022-05-18T19:33:56+09:00
; #@! TF.GenerationSoftware,Kicad,Pcbnew,(5.1.6-0-10_14)
; #@! TF.FileFunction,NonPlated,1,2,NPTH
FMAT,2
METRIC
T1C1.200
T2C1.900
T3C3.000
T4C4.100
%
G90
G05
T1
X214.139Y18.0
X220.201Y14.5
T2
X252.095Y-38.1
X262.255Y-38.1
X211.614Y-57.15
X221.774Y-57.15
X194.945Y0.0
X205.105Y0.0
X199.707Y-19.05
X209.867Y-19.05
X209.232Y-38.1
X219.392Y-38.1
X213.995Y0.0
X224.155Y0.0
X180.657Y-19.05
X190.817Y-19.05
X237.807Y-19.05
X247.968Y-19.05
X256.858Y-19.05
X267.017Y-19.05
X218.757Y-19.05
X228.917Y-19.05
X240.188Y-57.15
X250.349Y-57.15
X185.42Y-57.15
X195.58Y-57.15
X175.895Y0.0
X186.055Y0.0
X233.045Y0.0
X243.205Y0.0
X228.282Y-38.1
X238.442Y-38.1
X254.476Y0.0
X264.636Y0.0
X190.183Y-38.1
X200.343Y-38.1
T3
X186.69Y-54.61
X193.04Y-52.07
X177.165Y2.54
X183.515Y5.08
X234.315Y2.54
X240.665Y5.08
X229.552Y-35.56
X235.903Y-33.02
X255.746Y2.54
X262.096Y5.08
X191.452Y-35.56
X197.802Y-33.02
X253.365Y-35.56
X259.715Y-33.02
X212.884Y-54.61
X219.234Y-52.07
X196.215Y2.54
X202.565Y5.08
X200.977Y-16.51
X207.327Y-13.97
X210.502Y-35.56
X216.852Y-33.02
X215.265Y2.54
X221.615Y5.08
X181.927Y-16.51
X188.278Y-13.97
X239.077Y-16.51
X245.427Y-13.97
X258.127Y-16.51
X264.477Y-13.97
X220.028Y-16.51
X226.377Y-13.97
X241.458Y-54.61
X247.808Y-52.07
T4
X200.025Y0.0
X204.787Y-19.05
X214.312Y-38.1
X219.075Y0.0
X185.737Y-19.05
X242.887Y-19.05
X261.938Y-19.05
X223.837Y-19.05
X245.268Y-57.15
X190.5Y-57.15
X180.975Y0.0
X238.125Y0.0
X233.362Y-38.1
X259.556Y0.0
X195.262Y-38.1
X257.175Y-38.1
X216.694Y-57.15
T0
M30
