G04 #@! TF.GenerationSoftware,KiCad,Pcbnew,(5.1.6-0-10_14)*
G04 #@! TF.CreationDate,2022-05-18T19:33:53+09:00*
G04 #@! TF.ProjectId,cool936,636f6f6c-3933-4362-9e6b-696361645f70,rev?*
G04 #@! TF.SameCoordinates,Original*
G04 #@! TF.FileFunction,Legend,Bot*
G04 #@! TF.FilePolarity,Positive*
%FSLAX46Y46*%
G04 Gerber Fmt 4.6, Leading zero omitted, Abs format (unit mm)*
G04 Created by KiCad (PCBNEW (5.1.6-0-10_14)) date 2022-05-18 19:33:53*
%MOMM*%
%LPD*%
G01*
G04 APERTURE LIST*
%ADD10C,0.300000*%
%ADD11C,0.150000*%
%ADD12C,0.120000*%
%ADD13C,0.125000*%
G04 APERTURE END LIST*
D10*
X193308571Y-16284285D02*
X191808571Y-16284285D01*
X193237142Y-16284285D02*
X193308571Y-16141428D01*
X193308571Y-15855714D01*
X193237142Y-15712857D01*
X193165714Y-15641428D01*
X193022857Y-15570000D01*
X192594285Y-15570000D01*
X192451428Y-15641428D01*
X192380000Y-15712857D01*
X192308571Y-15855714D01*
X192308571Y-16141428D01*
X192380000Y-16284285D01*
X193308571Y-16998571D02*
X192308571Y-16998571D01*
X191808571Y-16998571D02*
X191880000Y-16927142D01*
X191951428Y-16998571D01*
X191880000Y-17070000D01*
X191808571Y-16998571D01*
X191951428Y-16998571D01*
X193308571Y-17927142D02*
X193237142Y-17784285D01*
X193165714Y-17712857D01*
X193022857Y-17641428D01*
X192594285Y-17641428D01*
X192451428Y-17712857D01*
X192380000Y-17784285D01*
X192308571Y-17927142D01*
X192308571Y-18141428D01*
X192380000Y-18284285D01*
X192451428Y-18355714D01*
X192594285Y-18427142D01*
X193022857Y-18427142D01*
X193165714Y-18355714D01*
X193237142Y-18284285D01*
X193308571Y-18141428D01*
X193308571Y-17927142D01*
X193308571Y-19712857D02*
X191808571Y-19712857D01*
X193237142Y-19712857D02*
X193308571Y-19570000D01*
X193308571Y-19284285D01*
X193237142Y-19141428D01*
X193165714Y-19070000D01*
X193022857Y-18998571D01*
X192594285Y-18998571D01*
X192451428Y-19070000D01*
X192380000Y-19141428D01*
X192308571Y-19284285D01*
X192308571Y-19570000D01*
X192380000Y-19712857D01*
X193237142Y-20998571D02*
X193308571Y-20855714D01*
X193308571Y-20570000D01*
X193237142Y-20427142D01*
X193094285Y-20355714D01*
X192522857Y-20355714D01*
X192380000Y-20427142D01*
X192308571Y-20570000D01*
X192308571Y-20855714D01*
X192380000Y-20998571D01*
X192522857Y-21070000D01*
X192665714Y-21070000D01*
X192808571Y-20355714D01*
X266958571Y-604285D02*
X265458571Y-604285D01*
X266887142Y-604285D02*
X266958571Y-461428D01*
X266958571Y-175714D01*
X266887142Y-32857D01*
X266815714Y38571D01*
X266672857Y110000D01*
X266244285Y110000D01*
X266101428Y38571D01*
X266030000Y-32857D01*
X265958571Y-175714D01*
X265958571Y-461428D01*
X266030000Y-604285D01*
X266958571Y-1318571D02*
X265958571Y-1318571D01*
X265458571Y-1318571D02*
X265530000Y-1247142D01*
X265601428Y-1318571D01*
X265530000Y-1390000D01*
X265458571Y-1318571D01*
X265601428Y-1318571D01*
X266958571Y-2247142D02*
X266887142Y-2104285D01*
X266815714Y-2032857D01*
X266672857Y-1961428D01*
X266244285Y-1961428D01*
X266101428Y-2032857D01*
X266030000Y-2104285D01*
X265958571Y-2247142D01*
X265958571Y-2461428D01*
X266030000Y-2604285D01*
X266101428Y-2675714D01*
X266244285Y-2747142D01*
X266672857Y-2747142D01*
X266815714Y-2675714D01*
X266887142Y-2604285D01*
X266958571Y-2461428D01*
X266958571Y-2247142D01*
X266958571Y-4032857D02*
X265458571Y-4032857D01*
X266887142Y-4032857D02*
X266958571Y-3890000D01*
X266958571Y-3604285D01*
X266887142Y-3461428D01*
X266815714Y-3390000D01*
X266672857Y-3318571D01*
X266244285Y-3318571D01*
X266101428Y-3390000D01*
X266030000Y-3461428D01*
X265958571Y-3604285D01*
X265958571Y-3890000D01*
X266030000Y-4032857D01*
X266887142Y-5318571D02*
X266958571Y-5175714D01*
X266958571Y-4890000D01*
X266887142Y-4747142D01*
X266744285Y-4675714D01*
X266172857Y-4675714D01*
X266030000Y-4747142D01*
X265958571Y-4890000D01*
X265958571Y-5175714D01*
X266030000Y-5318571D01*
X266172857Y-5390000D01*
X266315714Y-5390000D01*
X266458571Y-4675714D01*
X200698571Y-53084285D02*
X199198571Y-53084285D01*
X200627142Y-53084285D02*
X200698571Y-52941428D01*
X200698571Y-52655714D01*
X200627142Y-52512857D01*
X200555714Y-52441428D01*
X200412857Y-52370000D01*
X199984285Y-52370000D01*
X199841428Y-52441428D01*
X199770000Y-52512857D01*
X199698571Y-52655714D01*
X199698571Y-52941428D01*
X199770000Y-53084285D01*
X200698571Y-53798571D02*
X199698571Y-53798571D01*
X199198571Y-53798571D02*
X199270000Y-53727142D01*
X199341428Y-53798571D01*
X199270000Y-53870000D01*
X199198571Y-53798571D01*
X199341428Y-53798571D01*
X200698571Y-54727142D02*
X200627142Y-54584285D01*
X200555714Y-54512857D01*
X200412857Y-54441428D01*
X199984285Y-54441428D01*
X199841428Y-54512857D01*
X199770000Y-54584285D01*
X199698571Y-54727142D01*
X199698571Y-54941428D01*
X199770000Y-55084285D01*
X199841428Y-55155714D01*
X199984285Y-55227142D01*
X200412857Y-55227142D01*
X200555714Y-55155714D01*
X200627142Y-55084285D01*
X200698571Y-54941428D01*
X200698571Y-54727142D01*
X200698571Y-56512857D02*
X199198571Y-56512857D01*
X200627142Y-56512857D02*
X200698571Y-56370000D01*
X200698571Y-56084285D01*
X200627142Y-55941428D01*
X200555714Y-55870000D01*
X200412857Y-55798571D01*
X199984285Y-55798571D01*
X199841428Y-55870000D01*
X199770000Y-55941428D01*
X199698571Y-56084285D01*
X199698571Y-56370000D01*
X199770000Y-56512857D01*
X200627142Y-57798571D02*
X200698571Y-57655714D01*
X200698571Y-57370000D01*
X200627142Y-57227142D01*
X200484285Y-57155714D01*
X199912857Y-57155714D01*
X199770000Y-57227142D01*
X199698571Y-57370000D01*
X199698571Y-57655714D01*
X199770000Y-57798571D01*
X199912857Y-57870000D01*
X200055714Y-57870000D01*
X200198571Y-57155714D01*
X202378571Y-40534285D02*
X200878571Y-40534285D01*
X202307142Y-40534285D02*
X202378571Y-40391428D01*
X202378571Y-40105714D01*
X202307142Y-39962857D01*
X202235714Y-39891428D01*
X202092857Y-39820000D01*
X201664285Y-39820000D01*
X201521428Y-39891428D01*
X201450000Y-39962857D01*
X201378571Y-40105714D01*
X201378571Y-40391428D01*
X201450000Y-40534285D01*
X202378571Y-41248571D02*
X201378571Y-41248571D01*
X200878571Y-41248571D02*
X200950000Y-41177142D01*
X201021428Y-41248571D01*
X200950000Y-41320000D01*
X200878571Y-41248571D01*
X201021428Y-41248571D01*
X202378571Y-42177142D02*
X202307142Y-42034285D01*
X202235714Y-41962857D01*
X202092857Y-41891428D01*
X201664285Y-41891428D01*
X201521428Y-41962857D01*
X201450000Y-42034285D01*
X201378571Y-42177142D01*
X201378571Y-42391428D01*
X201450000Y-42534285D01*
X201521428Y-42605714D01*
X201664285Y-42677142D01*
X202092857Y-42677142D01*
X202235714Y-42605714D01*
X202307142Y-42534285D01*
X202378571Y-42391428D01*
X202378571Y-42177142D01*
X202378571Y-43962857D02*
X200878571Y-43962857D01*
X202307142Y-43962857D02*
X202378571Y-43820000D01*
X202378571Y-43534285D01*
X202307142Y-43391428D01*
X202235714Y-43320000D01*
X202092857Y-43248571D01*
X201664285Y-43248571D01*
X201521428Y-43320000D01*
X201450000Y-43391428D01*
X201378571Y-43534285D01*
X201378571Y-43820000D01*
X201450000Y-43962857D01*
X202307142Y-45248571D02*
X202378571Y-45105714D01*
X202378571Y-44820000D01*
X202307142Y-44677142D01*
X202164285Y-44605714D01*
X201592857Y-44605714D01*
X201450000Y-44677142D01*
X201378571Y-44820000D01*
X201378571Y-45105714D01*
X201450000Y-45248571D01*
X201592857Y-45320000D01*
X201735714Y-45320000D01*
X201878571Y-44605714D01*
X245968571Y995714D02*
X244468571Y995714D01*
X245897142Y995714D02*
X245968571Y1138571D01*
X245968571Y1424285D01*
X245897142Y1567142D01*
X245825714Y1638571D01*
X245682857Y1710000D01*
X245254285Y1710000D01*
X245111428Y1638571D01*
X245040000Y1567142D01*
X244968571Y1424285D01*
X244968571Y1138571D01*
X245040000Y995714D01*
X245968571Y281428D02*
X244968571Y281428D01*
X244468571Y281428D02*
X244540000Y352857D01*
X244611428Y281428D01*
X244540000Y210000D01*
X244468571Y281428D01*
X244611428Y281428D01*
X245968571Y-647142D02*
X245897142Y-504285D01*
X245825714Y-432857D01*
X245682857Y-361428D01*
X245254285Y-361428D01*
X245111428Y-432857D01*
X245040000Y-504285D01*
X244968571Y-647142D01*
X244968571Y-861428D01*
X245040000Y-1004285D01*
X245111428Y-1075714D01*
X245254285Y-1147142D01*
X245682857Y-1147142D01*
X245825714Y-1075714D01*
X245897142Y-1004285D01*
X245968571Y-861428D01*
X245968571Y-647142D01*
X245968571Y-2432857D02*
X244468571Y-2432857D01*
X245897142Y-2432857D02*
X245968571Y-2290000D01*
X245968571Y-2004285D01*
X245897142Y-1861428D01*
X245825714Y-1790000D01*
X245682857Y-1718571D01*
X245254285Y-1718571D01*
X245111428Y-1790000D01*
X245040000Y-1861428D01*
X244968571Y-2004285D01*
X244968571Y-2290000D01*
X245040000Y-2432857D01*
X245897142Y-3718571D02*
X245968571Y-3575714D01*
X245968571Y-3290000D01*
X245897142Y-3147142D01*
X245754285Y-3075714D01*
X245182857Y-3075714D01*
X245040000Y-3147142D01*
X244968571Y-3290000D01*
X244968571Y-3575714D01*
X245040000Y-3718571D01*
X245182857Y-3790000D01*
X245325714Y-3790000D01*
X245468571Y-3075714D01*
X236928571Y-20744285D02*
X235428571Y-20744285D01*
X236857142Y-20744285D02*
X236928571Y-20601428D01*
X236928571Y-20315714D01*
X236857142Y-20172857D01*
X236785714Y-20101428D01*
X236642857Y-20030000D01*
X236214285Y-20030000D01*
X236071428Y-20101428D01*
X236000000Y-20172857D01*
X235928571Y-20315714D01*
X235928571Y-20601428D01*
X236000000Y-20744285D01*
X236928571Y-21458571D02*
X235928571Y-21458571D01*
X235428571Y-21458571D02*
X235500000Y-21387142D01*
X235571428Y-21458571D01*
X235500000Y-21530000D01*
X235428571Y-21458571D01*
X235571428Y-21458571D01*
X236928571Y-22387142D02*
X236857142Y-22244285D01*
X236785714Y-22172857D01*
X236642857Y-22101428D01*
X236214285Y-22101428D01*
X236071428Y-22172857D01*
X236000000Y-22244285D01*
X235928571Y-22387142D01*
X235928571Y-22601428D01*
X236000000Y-22744285D01*
X236071428Y-22815714D01*
X236214285Y-22887142D01*
X236642857Y-22887142D01*
X236785714Y-22815714D01*
X236857142Y-22744285D01*
X236928571Y-22601428D01*
X236928571Y-22387142D01*
X236928571Y-24172857D02*
X235428571Y-24172857D01*
X236857142Y-24172857D02*
X236928571Y-24030000D01*
X236928571Y-23744285D01*
X236857142Y-23601428D01*
X236785714Y-23530000D01*
X236642857Y-23458571D01*
X236214285Y-23458571D01*
X236071428Y-23530000D01*
X236000000Y-23601428D01*
X235928571Y-23744285D01*
X235928571Y-24030000D01*
X236000000Y-24172857D01*
X236857142Y-25458571D02*
X236928571Y-25315714D01*
X236928571Y-25030000D01*
X236857142Y-24887142D01*
X236714285Y-24815714D01*
X236142857Y-24815714D01*
X236000000Y-24887142D01*
X235928571Y-25030000D01*
X235928571Y-25315714D01*
X236000000Y-25458571D01*
X236142857Y-25530000D01*
X236285714Y-25530000D01*
X236428571Y-24815714D01*
X188028571Y-2764285D02*
X186528571Y-2764285D01*
X187957142Y-2764285D02*
X188028571Y-2621428D01*
X188028571Y-2335714D01*
X187957142Y-2192857D01*
X187885714Y-2121428D01*
X187742857Y-2050000D01*
X187314285Y-2050000D01*
X187171428Y-2121428D01*
X187100000Y-2192857D01*
X187028571Y-2335714D01*
X187028571Y-2621428D01*
X187100000Y-2764285D01*
X188028571Y-3478571D02*
X187028571Y-3478571D01*
X186528571Y-3478571D02*
X186600000Y-3407142D01*
X186671428Y-3478571D01*
X186600000Y-3550000D01*
X186528571Y-3478571D01*
X186671428Y-3478571D01*
X188028571Y-4407142D02*
X187957142Y-4264285D01*
X187885714Y-4192857D01*
X187742857Y-4121428D01*
X187314285Y-4121428D01*
X187171428Y-4192857D01*
X187100000Y-4264285D01*
X187028571Y-4407142D01*
X187028571Y-4621428D01*
X187100000Y-4764285D01*
X187171428Y-4835714D01*
X187314285Y-4907142D01*
X187742857Y-4907142D01*
X187885714Y-4835714D01*
X187957142Y-4764285D01*
X188028571Y-4621428D01*
X188028571Y-4407142D01*
X188028571Y-6192857D02*
X186528571Y-6192857D01*
X187957142Y-6192857D02*
X188028571Y-6050000D01*
X188028571Y-5764285D01*
X187957142Y-5621428D01*
X187885714Y-5550000D01*
X187742857Y-5478571D01*
X187314285Y-5478571D01*
X187171428Y-5550000D01*
X187100000Y-5621428D01*
X187028571Y-5764285D01*
X187028571Y-6050000D01*
X187100000Y-6192857D01*
X187957142Y-7478571D02*
X188028571Y-7335714D01*
X188028571Y-7050000D01*
X187957142Y-6907142D01*
X187814285Y-6835714D01*
X187242857Y-6835714D01*
X187100000Y-6907142D01*
X187028571Y-7050000D01*
X187028571Y-7335714D01*
X187100000Y-7478571D01*
X187242857Y-7550000D01*
X187385714Y-7550000D01*
X187528571Y-6835714D01*
X242478571Y-35014285D02*
X240978571Y-35014285D01*
X242407142Y-35014285D02*
X242478571Y-34871428D01*
X242478571Y-34585714D01*
X242407142Y-34442857D01*
X242335714Y-34371428D01*
X242192857Y-34300000D01*
X241764285Y-34300000D01*
X241621428Y-34371428D01*
X241550000Y-34442857D01*
X241478571Y-34585714D01*
X241478571Y-34871428D01*
X241550000Y-35014285D01*
X242478571Y-35728571D02*
X241478571Y-35728571D01*
X240978571Y-35728571D02*
X241050000Y-35657142D01*
X241121428Y-35728571D01*
X241050000Y-35800000D01*
X240978571Y-35728571D01*
X241121428Y-35728571D01*
X242478571Y-36657142D02*
X242407142Y-36514285D01*
X242335714Y-36442857D01*
X242192857Y-36371428D01*
X241764285Y-36371428D01*
X241621428Y-36442857D01*
X241550000Y-36514285D01*
X241478571Y-36657142D01*
X241478571Y-36871428D01*
X241550000Y-37014285D01*
X241621428Y-37085714D01*
X241764285Y-37157142D01*
X242192857Y-37157142D01*
X242335714Y-37085714D01*
X242407142Y-37014285D01*
X242478571Y-36871428D01*
X242478571Y-36657142D01*
X242478571Y-38442857D02*
X240978571Y-38442857D01*
X242407142Y-38442857D02*
X242478571Y-38300000D01*
X242478571Y-38014285D01*
X242407142Y-37871428D01*
X242335714Y-37800000D01*
X242192857Y-37728571D01*
X241764285Y-37728571D01*
X241621428Y-37800000D01*
X241550000Y-37871428D01*
X241478571Y-38014285D01*
X241478571Y-38300000D01*
X241550000Y-38442857D01*
X242407142Y-39728571D02*
X242478571Y-39585714D01*
X242478571Y-39300000D01*
X242407142Y-39157142D01*
X242264285Y-39085714D01*
X241692857Y-39085714D01*
X241550000Y-39157142D01*
X241478571Y-39300000D01*
X241478571Y-39585714D01*
X241550000Y-39728571D01*
X241692857Y-39800000D01*
X241835714Y-39800000D01*
X241978571Y-39085714D01*
X206928571Y-2394285D02*
X205428571Y-2394285D01*
X206857142Y-2394285D02*
X206928571Y-2251428D01*
X206928571Y-1965714D01*
X206857142Y-1822857D01*
X206785714Y-1751428D01*
X206642857Y-1680000D01*
X206214285Y-1680000D01*
X206071428Y-1751428D01*
X206000000Y-1822857D01*
X205928571Y-1965714D01*
X205928571Y-2251428D01*
X206000000Y-2394285D01*
X206928571Y-3108571D02*
X205928571Y-3108571D01*
X205428571Y-3108571D02*
X205500000Y-3037142D01*
X205571428Y-3108571D01*
X205500000Y-3180000D01*
X205428571Y-3108571D01*
X205571428Y-3108571D01*
X206928571Y-4037142D02*
X206857142Y-3894285D01*
X206785714Y-3822857D01*
X206642857Y-3751428D01*
X206214285Y-3751428D01*
X206071428Y-3822857D01*
X206000000Y-3894285D01*
X205928571Y-4037142D01*
X205928571Y-4251428D01*
X206000000Y-4394285D01*
X206071428Y-4465714D01*
X206214285Y-4537142D01*
X206642857Y-4537142D01*
X206785714Y-4465714D01*
X206857142Y-4394285D01*
X206928571Y-4251428D01*
X206928571Y-4037142D01*
X206928571Y-5822857D02*
X205428571Y-5822857D01*
X206857142Y-5822857D02*
X206928571Y-5680000D01*
X206928571Y-5394285D01*
X206857142Y-5251428D01*
X206785714Y-5180000D01*
X206642857Y-5108571D01*
X206214285Y-5108571D01*
X206071428Y-5180000D01*
X206000000Y-5251428D01*
X205928571Y-5394285D01*
X205928571Y-5680000D01*
X206000000Y-5822857D01*
X206857142Y-7108571D02*
X206928571Y-6965714D01*
X206928571Y-6680000D01*
X206857142Y-6537142D01*
X206714285Y-6465714D01*
X206142857Y-6465714D01*
X206000000Y-6537142D01*
X205928571Y-6680000D01*
X205928571Y-6965714D01*
X206000000Y-7108571D01*
X206142857Y-7180000D01*
X206285714Y-7180000D01*
X206428571Y-6465714D01*
X266468571Y-34014285D02*
X264968571Y-34014285D01*
X266397142Y-34014285D02*
X266468571Y-33871428D01*
X266468571Y-33585714D01*
X266397142Y-33442857D01*
X266325714Y-33371428D01*
X266182857Y-33300000D01*
X265754285Y-33300000D01*
X265611428Y-33371428D01*
X265540000Y-33442857D01*
X265468571Y-33585714D01*
X265468571Y-33871428D01*
X265540000Y-34014285D01*
X266468571Y-34728571D02*
X265468571Y-34728571D01*
X264968571Y-34728571D02*
X265040000Y-34657142D01*
X265111428Y-34728571D01*
X265040000Y-34800000D01*
X264968571Y-34728571D01*
X265111428Y-34728571D01*
X266468571Y-35657142D02*
X266397142Y-35514285D01*
X266325714Y-35442857D01*
X266182857Y-35371428D01*
X265754285Y-35371428D01*
X265611428Y-35442857D01*
X265540000Y-35514285D01*
X265468571Y-35657142D01*
X265468571Y-35871428D01*
X265540000Y-36014285D01*
X265611428Y-36085714D01*
X265754285Y-36157142D01*
X266182857Y-36157142D01*
X266325714Y-36085714D01*
X266397142Y-36014285D01*
X266468571Y-35871428D01*
X266468571Y-35657142D01*
X266468571Y-37442857D02*
X264968571Y-37442857D01*
X266397142Y-37442857D02*
X266468571Y-37300000D01*
X266468571Y-37014285D01*
X266397142Y-36871428D01*
X266325714Y-36800000D01*
X266182857Y-36728571D01*
X265754285Y-36728571D01*
X265611428Y-36800000D01*
X265540000Y-36871428D01*
X265468571Y-37014285D01*
X265468571Y-37300000D01*
X265540000Y-37442857D01*
X266397142Y-38728571D02*
X266468571Y-38585714D01*
X266468571Y-38300000D01*
X266397142Y-38157142D01*
X266254285Y-38085714D01*
X265682857Y-38085714D01*
X265540000Y-38157142D01*
X265468571Y-38300000D01*
X265468571Y-38585714D01*
X265540000Y-38728571D01*
X265682857Y-38800000D01*
X265825714Y-38800000D01*
X265968571Y-38085714D01*
X221448571Y-40454285D02*
X219948571Y-40454285D01*
X221377142Y-40454285D02*
X221448571Y-40311428D01*
X221448571Y-40025714D01*
X221377142Y-39882857D01*
X221305714Y-39811428D01*
X221162857Y-39740000D01*
X220734285Y-39740000D01*
X220591428Y-39811428D01*
X220520000Y-39882857D01*
X220448571Y-40025714D01*
X220448571Y-40311428D01*
X220520000Y-40454285D01*
X221448571Y-41168571D02*
X220448571Y-41168571D01*
X219948571Y-41168571D02*
X220020000Y-41097142D01*
X220091428Y-41168571D01*
X220020000Y-41240000D01*
X219948571Y-41168571D01*
X220091428Y-41168571D01*
X221448571Y-42097142D02*
X221377142Y-41954285D01*
X221305714Y-41882857D01*
X221162857Y-41811428D01*
X220734285Y-41811428D01*
X220591428Y-41882857D01*
X220520000Y-41954285D01*
X220448571Y-42097142D01*
X220448571Y-42311428D01*
X220520000Y-42454285D01*
X220591428Y-42525714D01*
X220734285Y-42597142D01*
X221162857Y-42597142D01*
X221305714Y-42525714D01*
X221377142Y-42454285D01*
X221448571Y-42311428D01*
X221448571Y-42097142D01*
X221448571Y-43882857D02*
X219948571Y-43882857D01*
X221377142Y-43882857D02*
X221448571Y-43740000D01*
X221448571Y-43454285D01*
X221377142Y-43311428D01*
X221305714Y-43240000D01*
X221162857Y-43168571D01*
X220734285Y-43168571D01*
X220591428Y-43240000D01*
X220520000Y-43311428D01*
X220448571Y-43454285D01*
X220448571Y-43740000D01*
X220520000Y-43882857D01*
X221377142Y-45168571D02*
X221448571Y-45025714D01*
X221448571Y-44740000D01*
X221377142Y-44597142D01*
X221234285Y-44525714D01*
X220662857Y-44525714D01*
X220520000Y-44597142D01*
X220448571Y-44740000D01*
X220448571Y-45025714D01*
X220520000Y-45168571D01*
X220662857Y-45240000D01*
X220805714Y-45240000D01*
X220948571Y-44525714D01*
X212328571Y-16424285D02*
X210828571Y-16424285D01*
X212257142Y-16424285D02*
X212328571Y-16281428D01*
X212328571Y-15995714D01*
X212257142Y-15852857D01*
X212185714Y-15781428D01*
X212042857Y-15710000D01*
X211614285Y-15710000D01*
X211471428Y-15781428D01*
X211400000Y-15852857D01*
X211328571Y-15995714D01*
X211328571Y-16281428D01*
X211400000Y-16424285D01*
X212328571Y-17138571D02*
X211328571Y-17138571D01*
X210828571Y-17138571D02*
X210900000Y-17067142D01*
X210971428Y-17138571D01*
X210900000Y-17210000D01*
X210828571Y-17138571D01*
X210971428Y-17138571D01*
X212328571Y-18067142D02*
X212257142Y-17924285D01*
X212185714Y-17852857D01*
X212042857Y-17781428D01*
X211614285Y-17781428D01*
X211471428Y-17852857D01*
X211400000Y-17924285D01*
X211328571Y-18067142D01*
X211328571Y-18281428D01*
X211400000Y-18424285D01*
X211471428Y-18495714D01*
X211614285Y-18567142D01*
X212042857Y-18567142D01*
X212185714Y-18495714D01*
X212257142Y-18424285D01*
X212328571Y-18281428D01*
X212328571Y-18067142D01*
X212328571Y-19852857D02*
X210828571Y-19852857D01*
X212257142Y-19852857D02*
X212328571Y-19710000D01*
X212328571Y-19424285D01*
X212257142Y-19281428D01*
X212185714Y-19210000D01*
X212042857Y-19138571D01*
X211614285Y-19138571D01*
X211471428Y-19210000D01*
X211400000Y-19281428D01*
X211328571Y-19424285D01*
X211328571Y-19710000D01*
X211400000Y-19852857D01*
X212257142Y-21138571D02*
X212328571Y-20995714D01*
X212328571Y-20710000D01*
X212257142Y-20567142D01*
X212114285Y-20495714D01*
X211542857Y-20495714D01*
X211400000Y-20567142D01*
X211328571Y-20710000D01*
X211328571Y-20995714D01*
X211400000Y-21138571D01*
X211542857Y-21210000D01*
X211685714Y-21210000D01*
X211828571Y-20495714D01*
X255288571Y-53374285D02*
X253788571Y-53374285D01*
X255217142Y-53374285D02*
X255288571Y-53231428D01*
X255288571Y-52945714D01*
X255217142Y-52802857D01*
X255145714Y-52731428D01*
X255002857Y-52660000D01*
X254574285Y-52660000D01*
X254431428Y-52731428D01*
X254360000Y-52802857D01*
X254288571Y-52945714D01*
X254288571Y-53231428D01*
X254360000Y-53374285D01*
X255288571Y-54088571D02*
X254288571Y-54088571D01*
X253788571Y-54088571D02*
X253860000Y-54017142D01*
X253931428Y-54088571D01*
X253860000Y-54160000D01*
X253788571Y-54088571D01*
X253931428Y-54088571D01*
X255288571Y-55017142D02*
X255217142Y-54874285D01*
X255145714Y-54802857D01*
X255002857Y-54731428D01*
X254574285Y-54731428D01*
X254431428Y-54802857D01*
X254360000Y-54874285D01*
X254288571Y-55017142D01*
X254288571Y-55231428D01*
X254360000Y-55374285D01*
X254431428Y-55445714D01*
X254574285Y-55517142D01*
X255002857Y-55517142D01*
X255145714Y-55445714D01*
X255217142Y-55374285D01*
X255288571Y-55231428D01*
X255288571Y-55017142D01*
X255288571Y-56802857D02*
X253788571Y-56802857D01*
X255217142Y-56802857D02*
X255288571Y-56660000D01*
X255288571Y-56374285D01*
X255217142Y-56231428D01*
X255145714Y-56160000D01*
X255002857Y-56088571D01*
X254574285Y-56088571D01*
X254431428Y-56160000D01*
X254360000Y-56231428D01*
X254288571Y-56374285D01*
X254288571Y-56660000D01*
X254360000Y-56802857D01*
X255217142Y-58088571D02*
X255288571Y-57945714D01*
X255288571Y-57660000D01*
X255217142Y-57517142D01*
X255074285Y-57445714D01*
X254502857Y-57445714D01*
X254360000Y-57517142D01*
X254288571Y-57660000D01*
X254288571Y-57945714D01*
X254360000Y-58088571D01*
X254502857Y-58160000D01*
X254645714Y-58160000D01*
X254788571Y-57445714D01*
X263715714Y-42812142D02*
X263858571Y-42883571D01*
X264144285Y-42883571D01*
X264287142Y-42812142D01*
X264358571Y-42740714D01*
X264430000Y-42597857D01*
X264430000Y-42169285D01*
X264358571Y-42026428D01*
X264287142Y-41955000D01*
X264144285Y-41883571D01*
X263858571Y-41883571D01*
X263715714Y-41955000D01*
X262858571Y-42883571D02*
X263001428Y-42812142D01*
X263072857Y-42740714D01*
X263144285Y-42597857D01*
X263144285Y-42169285D01*
X263072857Y-42026428D01*
X263001428Y-41955000D01*
X262858571Y-41883571D01*
X262644285Y-41883571D01*
X262501428Y-41955000D01*
X262430000Y-42026428D01*
X262358571Y-42169285D01*
X262358571Y-42597857D01*
X262430000Y-42740714D01*
X262501428Y-42812142D01*
X262644285Y-42883571D01*
X262858571Y-42883571D01*
X261501428Y-42883571D02*
X261644285Y-42812142D01*
X261715714Y-42740714D01*
X261787142Y-42597857D01*
X261787142Y-42169285D01*
X261715714Y-42026428D01*
X261644285Y-41955000D01*
X261501428Y-41883571D01*
X261287142Y-41883571D01*
X261144285Y-41955000D01*
X261072857Y-42026428D01*
X261001428Y-42169285D01*
X261001428Y-42597857D01*
X261072857Y-42740714D01*
X261144285Y-42812142D01*
X261287142Y-42883571D01*
X261501428Y-42883571D01*
X260144285Y-42883571D02*
X260287142Y-42812142D01*
X260358571Y-42669285D01*
X260358571Y-41383571D01*
X259501428Y-42883571D02*
X259215714Y-42883571D01*
X259072857Y-42812142D01*
X259001428Y-42740714D01*
X258858571Y-42526428D01*
X258787142Y-42240714D01*
X258787142Y-41669285D01*
X258858571Y-41526428D01*
X258930000Y-41455000D01*
X259072857Y-41383571D01*
X259358571Y-41383571D01*
X259501428Y-41455000D01*
X259572857Y-41526428D01*
X259644285Y-41669285D01*
X259644285Y-42026428D01*
X259572857Y-42169285D01*
X259501428Y-42240714D01*
X259358571Y-42312142D01*
X259072857Y-42312142D01*
X258930000Y-42240714D01*
X258858571Y-42169285D01*
X258787142Y-42026428D01*
X258287142Y-41383571D02*
X257358571Y-41383571D01*
X257858571Y-41955000D01*
X257644285Y-41955000D01*
X257501428Y-42026428D01*
X257430000Y-42097857D01*
X257358571Y-42240714D01*
X257358571Y-42597857D01*
X257430000Y-42740714D01*
X257501428Y-42812142D01*
X257644285Y-42883571D01*
X258072857Y-42883571D01*
X258215714Y-42812142D01*
X258287142Y-42740714D01*
X256072857Y-41383571D02*
X256358571Y-41383571D01*
X256501428Y-41455000D01*
X256572857Y-41526428D01*
X256715714Y-41740714D01*
X256787142Y-42026428D01*
X256787142Y-42597857D01*
X256715714Y-42740714D01*
X256644285Y-42812142D01*
X256501428Y-42883571D01*
X256215714Y-42883571D01*
X256072857Y-42812142D01*
X256001428Y-42740714D01*
X255930000Y-42597857D01*
X255930000Y-42240714D01*
X256001428Y-42097857D01*
X256072857Y-42026428D01*
X256215714Y-41955000D01*
X256501428Y-41955000D01*
X256644285Y-42026428D01*
X256715714Y-42097857D01*
X256787142Y-42240714D01*
X268858571Y-45433571D02*
X268858571Y-43933571D01*
X268858571Y-45362142D02*
X269001428Y-45433571D01*
X269287142Y-45433571D01*
X269430000Y-45362142D01*
X269501428Y-45290714D01*
X269572857Y-45147857D01*
X269572857Y-44719285D01*
X269501428Y-44576428D01*
X269430000Y-44505000D01*
X269287142Y-44433571D01*
X269001428Y-44433571D01*
X268858571Y-44505000D01*
X267572857Y-45362142D02*
X267715714Y-45433571D01*
X268001428Y-45433571D01*
X268144285Y-45362142D01*
X268215714Y-45219285D01*
X268215714Y-44647857D01*
X268144285Y-44505000D01*
X268001428Y-44433571D01*
X267715714Y-44433571D01*
X267572857Y-44505000D01*
X267501428Y-44647857D01*
X267501428Y-44790714D01*
X268215714Y-44933571D01*
X266930000Y-45362142D02*
X266787142Y-45433571D01*
X266501428Y-45433571D01*
X266358571Y-45362142D01*
X266287142Y-45219285D01*
X266287142Y-45147857D01*
X266358571Y-45005000D01*
X266501428Y-44933571D01*
X266715714Y-44933571D01*
X266858571Y-44862142D01*
X266930000Y-44719285D01*
X266930000Y-44647857D01*
X266858571Y-44505000D01*
X266715714Y-44433571D01*
X266501428Y-44433571D01*
X266358571Y-44505000D01*
X265644285Y-45433571D02*
X265644285Y-44433571D01*
X265644285Y-43933571D02*
X265715714Y-44005000D01*
X265644285Y-44076428D01*
X265572857Y-44005000D01*
X265644285Y-43933571D01*
X265644285Y-44076428D01*
X264287142Y-44433571D02*
X264287142Y-45647857D01*
X264358571Y-45790714D01*
X264430000Y-45862142D01*
X264572857Y-45933571D01*
X264787142Y-45933571D01*
X264930000Y-45862142D01*
X264287142Y-45362142D02*
X264430000Y-45433571D01*
X264715714Y-45433571D01*
X264858571Y-45362142D01*
X264930000Y-45290714D01*
X265001428Y-45147857D01*
X265001428Y-44719285D01*
X264930000Y-44576428D01*
X264858571Y-44505000D01*
X264715714Y-44433571D01*
X264430000Y-44433571D01*
X264287142Y-44505000D01*
X263572857Y-44433571D02*
X263572857Y-45433571D01*
X263572857Y-44576428D02*
X263501428Y-44505000D01*
X263358571Y-44433571D01*
X263144285Y-44433571D01*
X263001428Y-44505000D01*
X262930000Y-44647857D01*
X262930000Y-45433571D01*
X261644285Y-45362142D02*
X261787142Y-45433571D01*
X262072857Y-45433571D01*
X262215714Y-45362142D01*
X262287142Y-45219285D01*
X262287142Y-44647857D01*
X262215714Y-44505000D01*
X262072857Y-44433571D01*
X261787142Y-44433571D01*
X261644285Y-44505000D01*
X261572857Y-44647857D01*
X261572857Y-44790714D01*
X262287142Y-44933571D01*
X260287142Y-45433571D02*
X260287142Y-43933571D01*
X260287142Y-45362142D02*
X260430000Y-45433571D01*
X260715714Y-45433571D01*
X260858571Y-45362142D01*
X260930000Y-45290714D01*
X261001428Y-45147857D01*
X261001428Y-44719285D01*
X260930000Y-44576428D01*
X260858571Y-44505000D01*
X260715714Y-44433571D01*
X260430000Y-44433571D01*
X260287142Y-44505000D01*
X258430000Y-45433571D02*
X258430000Y-43933571D01*
X258430000Y-44505000D02*
X258287142Y-44433571D01*
X258001428Y-44433571D01*
X257858571Y-44505000D01*
X257787142Y-44576428D01*
X257715714Y-44719285D01*
X257715714Y-45147857D01*
X257787142Y-45290714D01*
X257858571Y-45362142D01*
X258001428Y-45433571D01*
X258287142Y-45433571D01*
X258430000Y-45362142D01*
X257215714Y-44433571D02*
X256858571Y-45433571D01*
X256501428Y-44433571D02*
X256858571Y-45433571D01*
X257001428Y-45790714D01*
X257072857Y-45862142D01*
X257215714Y-45933571D01*
X254787142Y-45433571D02*
X254787142Y-44433571D01*
X254787142Y-44576428D02*
X254715714Y-44505000D01*
X254572857Y-44433571D01*
X254358571Y-44433571D01*
X254215714Y-44505000D01*
X254144285Y-44647857D01*
X254144285Y-45433571D01*
X254144285Y-44647857D02*
X254072857Y-44505000D01*
X253930000Y-44433571D01*
X253715714Y-44433571D01*
X253572857Y-44505000D01*
X253501428Y-44647857D01*
X253501428Y-45433571D01*
X252787142Y-45290714D02*
X252715714Y-45362142D01*
X252787142Y-45433571D01*
X252858571Y-45362142D01*
X252787142Y-45290714D01*
X252787142Y-45433571D01*
X252072857Y-45433571D02*
X252072857Y-43933571D01*
X251930000Y-44862142D02*
X251501428Y-45433571D01*
X251501428Y-44433571D02*
X252072857Y-45005000D01*
X250858571Y-45433571D02*
X250858571Y-44433571D01*
X250858571Y-43933571D02*
X250930000Y-44005000D01*
X250858571Y-44076428D01*
X250787142Y-44005000D01*
X250858571Y-43933571D01*
X250858571Y-44076428D01*
X267894285Y-47983571D02*
X267894285Y-46483571D01*
X267894285Y-47912142D02*
X268037142Y-47983571D01*
X268322857Y-47983571D01*
X268465714Y-47912142D01*
X268537142Y-47840714D01*
X268608571Y-47697857D01*
X268608571Y-47269285D01*
X268537142Y-47126428D01*
X268465714Y-47055000D01*
X268322857Y-46983571D01*
X268037142Y-46983571D01*
X267894285Y-47055000D01*
X266537142Y-47983571D02*
X266537142Y-47197857D01*
X266608571Y-47055000D01*
X266751428Y-46983571D01*
X267037142Y-46983571D01*
X267180000Y-47055000D01*
X266537142Y-47912142D02*
X266680000Y-47983571D01*
X267037142Y-47983571D01*
X267180000Y-47912142D01*
X267251428Y-47769285D01*
X267251428Y-47626428D01*
X267180000Y-47483571D01*
X267037142Y-47412142D01*
X266680000Y-47412142D01*
X266537142Y-47340714D01*
X266037142Y-46983571D02*
X265465714Y-46983571D01*
X265822857Y-46483571D02*
X265822857Y-47769285D01*
X265751428Y-47912142D01*
X265608571Y-47983571D01*
X265465714Y-47983571D01*
X264394285Y-47912142D02*
X264537142Y-47983571D01*
X264822857Y-47983571D01*
X264965714Y-47912142D01*
X265037142Y-47769285D01*
X265037142Y-47197857D01*
X264965714Y-47055000D01*
X264822857Y-46983571D01*
X264537142Y-46983571D01*
X264394285Y-47055000D01*
X264322857Y-47197857D01*
X264322857Y-47340714D01*
X265037142Y-47483571D01*
X262608571Y-46626428D02*
X262537142Y-46555000D01*
X262394285Y-46483571D01*
X262037142Y-46483571D01*
X261894285Y-46555000D01*
X261822857Y-46626428D01*
X261751428Y-46769285D01*
X261751428Y-46912142D01*
X261822857Y-47126428D01*
X262680000Y-47983571D01*
X261751428Y-47983571D01*
X260822857Y-46483571D02*
X260680000Y-46483571D01*
X260537142Y-46555000D01*
X260465714Y-46626428D01*
X260394285Y-46769285D01*
X260322857Y-47055000D01*
X260322857Y-47412142D01*
X260394285Y-47697857D01*
X260465714Y-47840714D01*
X260537142Y-47912142D01*
X260680000Y-47983571D01*
X260822857Y-47983571D01*
X260965714Y-47912142D01*
X261037142Y-47840714D01*
X261108571Y-47697857D01*
X261180000Y-47412142D01*
X261180000Y-47055000D01*
X261108571Y-46769285D01*
X261037142Y-46626428D01*
X260965714Y-46555000D01*
X260822857Y-46483571D01*
X259751428Y-46626428D02*
X259680000Y-46555000D01*
X259537142Y-46483571D01*
X259180000Y-46483571D01*
X259037142Y-46555000D01*
X258965714Y-46626428D01*
X258894285Y-46769285D01*
X258894285Y-46912142D01*
X258965714Y-47126428D01*
X259822857Y-47983571D01*
X258894285Y-47983571D01*
X258322857Y-46626428D02*
X258251428Y-46555000D01*
X258108571Y-46483571D01*
X257751428Y-46483571D01*
X257608571Y-46555000D01*
X257537142Y-46626428D01*
X257465714Y-46769285D01*
X257465714Y-46912142D01*
X257537142Y-47126428D01*
X258394285Y-47983571D01*
X257465714Y-47983571D01*
X256537142Y-46483571D02*
X256394285Y-46483571D01*
X256251428Y-46555000D01*
X256180000Y-46626428D01*
X256108571Y-46769285D01*
X256037142Y-47055000D01*
X256037142Y-47412142D01*
X256108571Y-47697857D01*
X256180000Y-47840714D01*
X256251428Y-47912142D01*
X256394285Y-47983571D01*
X256537142Y-47983571D01*
X256680000Y-47912142D01*
X256751428Y-47840714D01*
X256822857Y-47697857D01*
X256894285Y-47412142D01*
X256894285Y-47055000D01*
X256822857Y-46769285D01*
X256751428Y-46626428D01*
X256680000Y-46555000D01*
X256537142Y-46483571D01*
X254680000Y-46483571D02*
X255394285Y-46483571D01*
X255465714Y-47197857D01*
X255394285Y-47126428D01*
X255251428Y-47055000D01*
X254894285Y-47055000D01*
X254751428Y-47126428D01*
X254680000Y-47197857D01*
X254608571Y-47340714D01*
X254608571Y-47697857D01*
X254680000Y-47840714D01*
X254751428Y-47912142D01*
X254894285Y-47983571D01*
X255251428Y-47983571D01*
X255394285Y-47912142D01*
X255465714Y-47840714D01*
X253180000Y-47983571D02*
X254037142Y-47983571D01*
X253608571Y-47983571D02*
X253608571Y-46483571D01*
X253751428Y-46697857D01*
X253894285Y-46840714D01*
X254037142Y-46912142D01*
X251894285Y-46483571D02*
X252180000Y-46483571D01*
X252322857Y-46555000D01*
X252394285Y-46626428D01*
X252537142Y-46840714D01*
X252608571Y-47126428D01*
X252608571Y-47697857D01*
X252537142Y-47840714D01*
X252465714Y-47912142D01*
X252322857Y-47983571D01*
X252037142Y-47983571D01*
X251894285Y-47912142D01*
X251822857Y-47840714D01*
X251751428Y-47697857D01*
X251751428Y-47340714D01*
X251822857Y-47197857D01*
X251894285Y-47126428D01*
X252037142Y-47055000D01*
X252322857Y-47055000D01*
X252465714Y-47126428D01*
X252537142Y-47197857D01*
X252608571Y-47340714D01*
X263787142Y-49533571D02*
X263430000Y-50533571D01*
X263072857Y-49533571D01*
X261930000Y-50462142D02*
X262072857Y-50533571D01*
X262358571Y-50533571D01*
X262501428Y-50462142D01*
X262572857Y-50319285D01*
X262572857Y-49747857D01*
X262501428Y-49605000D01*
X262358571Y-49533571D01*
X262072857Y-49533571D01*
X261930000Y-49605000D01*
X261858571Y-49747857D01*
X261858571Y-49890714D01*
X262572857Y-50033571D01*
X261215714Y-50533571D02*
X261215714Y-49533571D01*
X261215714Y-49819285D02*
X261144285Y-49676428D01*
X261072857Y-49605000D01*
X260930000Y-49533571D01*
X260787142Y-49533571D01*
X260287142Y-50390714D02*
X260215714Y-50462142D01*
X260287142Y-50533571D01*
X260358571Y-50462142D01*
X260287142Y-50390714D01*
X260287142Y-50533571D01*
X258787142Y-50533571D02*
X259644285Y-50533571D01*
X259215714Y-50533571D02*
X259215714Y-49033571D01*
X259358571Y-49247857D01*
X259501428Y-49390714D01*
X259644285Y-49462142D01*
X258144285Y-50390714D02*
X258072857Y-50462142D01*
X258144285Y-50533571D01*
X258215714Y-50462142D01*
X258144285Y-50390714D01*
X258144285Y-50533571D01*
X256787142Y-49533571D02*
X256787142Y-50533571D01*
X257144285Y-48962142D02*
X257501428Y-50033571D01*
X256572857Y-50033571D01*
X231158571Y-53424285D02*
X229658571Y-53424285D01*
X231087142Y-53424285D02*
X231158571Y-53281428D01*
X231158571Y-52995714D01*
X231087142Y-52852857D01*
X231015714Y-52781428D01*
X230872857Y-52710000D01*
X230444285Y-52710000D01*
X230301428Y-52781428D01*
X230230000Y-52852857D01*
X230158571Y-52995714D01*
X230158571Y-53281428D01*
X230230000Y-53424285D01*
X231158571Y-54138571D02*
X230158571Y-54138571D01*
X229658571Y-54138571D02*
X229730000Y-54067142D01*
X229801428Y-54138571D01*
X229730000Y-54210000D01*
X229658571Y-54138571D01*
X229801428Y-54138571D01*
X231158571Y-55067142D02*
X231087142Y-54924285D01*
X231015714Y-54852857D01*
X230872857Y-54781428D01*
X230444285Y-54781428D01*
X230301428Y-54852857D01*
X230230000Y-54924285D01*
X230158571Y-55067142D01*
X230158571Y-55281428D01*
X230230000Y-55424285D01*
X230301428Y-55495714D01*
X230444285Y-55567142D01*
X230872857Y-55567142D01*
X231015714Y-55495714D01*
X231087142Y-55424285D01*
X231158571Y-55281428D01*
X231158571Y-55067142D01*
X231158571Y-56852857D02*
X229658571Y-56852857D01*
X231087142Y-56852857D02*
X231158571Y-56710000D01*
X231158571Y-56424285D01*
X231087142Y-56281428D01*
X231015714Y-56210000D01*
X230872857Y-56138571D01*
X230444285Y-56138571D01*
X230301428Y-56210000D01*
X230230000Y-56281428D01*
X230158571Y-56424285D01*
X230158571Y-56710000D01*
X230230000Y-56852857D01*
X231087142Y-58138571D02*
X231158571Y-57995714D01*
X231158571Y-57710000D01*
X231087142Y-57567142D01*
X230944285Y-57495714D01*
X230372857Y-57495714D01*
X230230000Y-57567142D01*
X230158571Y-57710000D01*
X230158571Y-57995714D01*
X230230000Y-58138571D01*
X230372857Y-58210000D01*
X230515714Y-58210000D01*
X230658571Y-57495714D01*
X226028571Y-2584285D02*
X224528571Y-2584285D01*
X225957142Y-2584285D02*
X226028571Y-2441428D01*
X226028571Y-2155714D01*
X225957142Y-2012857D01*
X225885714Y-1941428D01*
X225742857Y-1870000D01*
X225314285Y-1870000D01*
X225171428Y-1941428D01*
X225100000Y-2012857D01*
X225028571Y-2155714D01*
X225028571Y-2441428D01*
X225100000Y-2584285D01*
X226028571Y-3298571D02*
X225028571Y-3298571D01*
X224528571Y-3298571D02*
X224600000Y-3227142D01*
X224671428Y-3298571D01*
X224600000Y-3370000D01*
X224528571Y-3298571D01*
X224671428Y-3298571D01*
X226028571Y-4227142D02*
X225957142Y-4084285D01*
X225885714Y-4012857D01*
X225742857Y-3941428D01*
X225314285Y-3941428D01*
X225171428Y-4012857D01*
X225100000Y-4084285D01*
X225028571Y-4227142D01*
X225028571Y-4441428D01*
X225100000Y-4584285D01*
X225171428Y-4655714D01*
X225314285Y-4727142D01*
X225742857Y-4727142D01*
X225885714Y-4655714D01*
X225957142Y-4584285D01*
X226028571Y-4441428D01*
X226028571Y-4227142D01*
X226028571Y-6012857D02*
X224528571Y-6012857D01*
X225957142Y-6012857D02*
X226028571Y-5870000D01*
X226028571Y-5584285D01*
X225957142Y-5441428D01*
X225885714Y-5370000D01*
X225742857Y-5298571D01*
X225314285Y-5298571D01*
X225171428Y-5370000D01*
X225100000Y-5441428D01*
X225028571Y-5584285D01*
X225028571Y-5870000D01*
X225100000Y-6012857D01*
X225957142Y-7298571D02*
X226028571Y-7155714D01*
X226028571Y-6870000D01*
X225957142Y-6727142D01*
X225814285Y-6655714D01*
X225242857Y-6655714D01*
X225100000Y-6727142D01*
X225028571Y-6870000D01*
X225028571Y-7155714D01*
X225100000Y-7298571D01*
X225242857Y-7370000D01*
X225385714Y-7370000D01*
X225528571Y-6655714D01*
D11*
X189930000Y-1720000D02*
X188430000Y-1720000D01*
X189930000Y-7120000D02*
X189930000Y-1720000D01*
X188430000Y-7120000D02*
X189930000Y-7120000D01*
X188430000Y-1720000D02*
X188430000Y-7120000D01*
X188680000Y-4920000D02*
X189680000Y-4920000D01*
X189680000Y-3920000D02*
X189180000Y-4820000D01*
X188680000Y-3920000D02*
X189680000Y-3920000D01*
X189180000Y-4820000D02*
X188680000Y-3920000D01*
X252190000Y-12810000D02*
X250690000Y-12810000D01*
X252190000Y-18210000D02*
X252190000Y-12810000D01*
X250690000Y-18210000D02*
X252190000Y-18210000D01*
X250690000Y-12810000D02*
X250690000Y-18210000D01*
X250940000Y-16010000D02*
X251940000Y-16010000D01*
X251940000Y-15010000D02*
X251440000Y-15910000D01*
X250940000Y-15010000D02*
X251940000Y-15010000D01*
X251440000Y-15910000D02*
X250940000Y-15010000D01*
X268500000Y-33120000D02*
X267000000Y-33120000D01*
X268500000Y-38520000D02*
X268500000Y-33120000D01*
X267000000Y-38520000D02*
X268500000Y-38520000D01*
X267000000Y-33120000D02*
X267000000Y-38520000D01*
X267250000Y-36320000D02*
X268250000Y-36320000D01*
X268250000Y-35320000D02*
X267750000Y-36220000D01*
X267250000Y-35320000D02*
X268250000Y-35320000D01*
X267750000Y-36220000D02*
X267250000Y-35320000D01*
X257230000Y-52375000D02*
X255730000Y-52375000D01*
X257230000Y-57775000D02*
X257230000Y-52375000D01*
X255730000Y-57775000D02*
X257230000Y-57775000D01*
X255730000Y-52375000D02*
X255730000Y-57775000D01*
X255980000Y-55575000D02*
X256980000Y-55575000D01*
X256980000Y-54575000D02*
X256480000Y-55475000D01*
X255980000Y-54575000D02*
X256980000Y-54575000D01*
X256480000Y-55475000D02*
X255980000Y-54575000D01*
X232390000Y-55540000D02*
X231890000Y-54640000D01*
X231890000Y-54640000D02*
X232890000Y-54640000D01*
X232890000Y-54640000D02*
X232390000Y-55540000D01*
X231890000Y-55640000D02*
X232890000Y-55640000D01*
X231640000Y-52440000D02*
X231640000Y-57840000D01*
X231640000Y-57840000D02*
X233140000Y-57840000D01*
X233140000Y-57840000D02*
X233140000Y-52440000D01*
X233140000Y-52440000D02*
X231640000Y-52440000D01*
X208990000Y-1590000D02*
X207490000Y-1590000D01*
X208990000Y-6990000D02*
X208990000Y-1590000D01*
X207490000Y-6990000D02*
X208990000Y-6990000D01*
X207490000Y-1590000D02*
X207490000Y-6990000D01*
X207740000Y-4790000D02*
X208740000Y-4790000D01*
X208740000Y-3790000D02*
X208240000Y-4690000D01*
X207740000Y-3790000D02*
X208740000Y-3790000D01*
X208240000Y-4690000D02*
X207740000Y-3790000D01*
X215923076Y8384456D02*
X216048076Y8600962D01*
X210726924Y11384456D02*
X215923076Y8384456D01*
X210726924Y11384456D02*
X210851924Y11600962D01*
X212476924Y14415544D02*
X212351924Y14199038D01*
X217673076Y11415544D02*
X217548076Y11199038D01*
X212476924Y14415544D02*
X217673076Y11415544D01*
X269360000Y560000D02*
X269360000Y260000D01*
X269510000Y660000D02*
X269510000Y160000D01*
X269660000Y760000D02*
X269660000Y60000D01*
X269160000Y410000D02*
X269810000Y910000D01*
X269810000Y-90000D02*
X269160000Y410000D01*
X269810000Y910000D02*
X269810000Y-90000D01*
X270160000Y-3340000D02*
X270160000Y4160000D01*
X268860000Y-3340000D02*
X270160000Y-3340000D01*
X268860000Y4160000D02*
X268860000Y-3340000D01*
X270160000Y4160000D02*
X268860000Y4160000D01*
X267260000Y9310000D02*
X266260000Y9310000D01*
X267260000Y-8490000D02*
X266260000Y-8490000D01*
X267260000Y9310000D02*
X267260000Y8310000D01*
X267260000Y-8490000D02*
X267260000Y-7540000D01*
X235260000Y9310000D02*
X234210000Y9310000D01*
X235210000Y-8490000D02*
X234210000Y-8490000D01*
X234210000Y9310000D02*
X234210000Y8310000D01*
X234210000Y-8490000D02*
X234210000Y-7480000D01*
X247730000Y1910000D02*
X246230000Y1910000D01*
X247730000Y-3490000D02*
X247730000Y1910000D01*
X246230000Y-3490000D02*
X247730000Y-3490000D01*
X246230000Y1910000D02*
X246230000Y-3490000D01*
X246480000Y-1290000D02*
X247480000Y-1290000D01*
X247480000Y-290000D02*
X246980000Y-1190000D01*
X246480000Y-290000D02*
X247480000Y-290000D01*
X246980000Y-1190000D02*
X246480000Y-290000D01*
X244530000Y-34350000D02*
X243030000Y-34350000D01*
X244530000Y-39750000D02*
X244530000Y-34350000D01*
X243030000Y-39750000D02*
X244530000Y-39750000D01*
X243030000Y-34350000D02*
X243030000Y-39750000D01*
X243280000Y-37550000D02*
X244280000Y-37550000D01*
X244280000Y-36550000D02*
X243780000Y-37450000D01*
X243280000Y-36550000D02*
X244280000Y-36550000D01*
X243780000Y-37450000D02*
X243280000Y-36550000D01*
X202510000Y-52390000D02*
X201010000Y-52390000D01*
X202510000Y-57790000D02*
X202510000Y-52390000D01*
X201010000Y-57790000D02*
X202510000Y-57790000D01*
X201010000Y-52390000D02*
X201010000Y-57790000D01*
X201260000Y-55590000D02*
X202260000Y-55590000D01*
X202260000Y-54590000D02*
X201760000Y-55490000D01*
X201260000Y-54590000D02*
X202260000Y-54590000D01*
X201760000Y-55490000D02*
X201260000Y-54590000D01*
X233320000Y-13910000D02*
X231820000Y-13910000D01*
X233320000Y-19310000D02*
X233320000Y-13910000D01*
X231820000Y-19310000D02*
X233320000Y-19310000D01*
X231820000Y-13910000D02*
X231820000Y-19310000D01*
X232070000Y-17110000D02*
X233070000Y-17110000D01*
X233070000Y-16110000D02*
X232570000Y-17010000D01*
X232070000Y-16110000D02*
X233070000Y-16110000D01*
X232570000Y-17010000D02*
X232070000Y-16110000D01*
X195090000Y-14010000D02*
X193590000Y-14010000D01*
X195090000Y-19410000D02*
X195090000Y-14010000D01*
X193590000Y-19410000D02*
X195090000Y-19410000D01*
X193590000Y-14010000D02*
X193590000Y-19410000D01*
X193840000Y-17210000D02*
X194840000Y-17210000D01*
X194840000Y-16210000D02*
X194340000Y-17110000D01*
X193840000Y-16210000D02*
X194840000Y-16210000D01*
X194340000Y-17110000D02*
X193840000Y-16210000D01*
X223250000Y-39670000D02*
X221750000Y-39670000D01*
X223250000Y-45070000D02*
X223250000Y-39670000D01*
X221750000Y-45070000D02*
X223250000Y-45070000D01*
X221750000Y-39670000D02*
X221750000Y-45070000D01*
X222000000Y-42870000D02*
X223000000Y-42870000D01*
X223000000Y-41870000D02*
X222500000Y-42770000D01*
X222000000Y-41870000D02*
X223000000Y-41870000D01*
X222500000Y-42770000D02*
X222000000Y-41870000D01*
X247180000Y-34350000D02*
X245680000Y-34350000D01*
X247180000Y-39750000D02*
X247180000Y-34350000D01*
X245680000Y-39750000D02*
X247180000Y-39750000D01*
X245680000Y-34350000D02*
X245680000Y-39750000D01*
X245930000Y-37550000D02*
X246930000Y-37550000D01*
X246930000Y-36550000D02*
X246430000Y-37450000D01*
X245930000Y-36550000D02*
X246930000Y-36550000D01*
X246430000Y-37450000D02*
X245930000Y-36550000D01*
X204250000Y-39640000D02*
X202750000Y-39640000D01*
X204250000Y-45040000D02*
X204250000Y-39640000D01*
X202750000Y-45040000D02*
X204250000Y-45040000D01*
X202750000Y-39640000D02*
X202750000Y-45040000D01*
X203000000Y-42840000D02*
X204000000Y-42840000D01*
X204000000Y-41840000D02*
X203500000Y-42740000D01*
X203000000Y-41840000D02*
X204000000Y-41840000D01*
X203500000Y-42740000D02*
X203000000Y-41840000D01*
X214340000Y21348076D02*
X211340000Y16151924D01*
X211340000Y16151924D02*
X221732305Y10151924D01*
X221732305Y10151924D02*
X224732305Y15348076D01*
X224732305Y15348076D02*
X214340000Y21348076D01*
X214270000Y-13780000D02*
X212770000Y-13780000D01*
X214270000Y-19180000D02*
X214270000Y-13780000D01*
X212770000Y-19180000D02*
X214270000Y-19180000D01*
X212770000Y-13780000D02*
X212770000Y-19180000D01*
X213020000Y-16980000D02*
X214020000Y-16980000D01*
X214020000Y-15980000D02*
X213520000Y-16880000D01*
X213020000Y-15980000D02*
X214020000Y-15980000D01*
X213520000Y-16880000D02*
X213020000Y-15980000D01*
X228090000Y-1850000D02*
X226590000Y-1850000D01*
X228090000Y-7250000D02*
X228090000Y-1850000D01*
X226590000Y-7250000D02*
X228090000Y-7250000D01*
X226590000Y-1850000D02*
X226590000Y-7250000D01*
X226840000Y-5050000D02*
X227840000Y-5050000D01*
X227840000Y-4050000D02*
X227340000Y-4950000D01*
X226840000Y-4050000D02*
X227840000Y-4050000D01*
X227340000Y-4950000D02*
X226840000Y-4050000D01*
X268580000Y220000D02*
X267080000Y220000D01*
X268580000Y-5180000D02*
X268580000Y220000D01*
X267080000Y-5180000D02*
X268580000Y-5180000D01*
X267080000Y220000D02*
X267080000Y-5180000D01*
X267330000Y-2980000D02*
X268330000Y-2980000D01*
X268330000Y-1980000D02*
X267830000Y-2880000D01*
X267330000Y-1980000D02*
X268330000Y-1980000D01*
X267830000Y-2880000D02*
X267330000Y-1980000D01*
X214856785Y-33284761D02*
X214761547Y-33332380D01*
X214571071Y-33332380D01*
X214475833Y-33284761D01*
X214428214Y-33189523D01*
X214428214Y-33141904D01*
X214475833Y-33046666D01*
X214571071Y-32999047D01*
X214713928Y-32999047D01*
X214809166Y-32951428D01*
X214856785Y-32856190D01*
X214856785Y-32808571D01*
X214809166Y-32713333D01*
X214713928Y-32665714D01*
X214571071Y-32665714D01*
X214475833Y-32713333D01*
X213856785Y-33332380D02*
X213952023Y-33284761D01*
X213999642Y-33237142D01*
X214047261Y-33141904D01*
X214047261Y-32856190D01*
X213999642Y-32760952D01*
X213952023Y-32713333D01*
X213856785Y-32665714D01*
X213713928Y-32665714D01*
X213618690Y-32713333D01*
X213571071Y-32760952D01*
X213523452Y-32856190D01*
X213523452Y-33141904D01*
X213571071Y-33237142D01*
X213618690Y-33284761D01*
X213713928Y-33332380D01*
X213856785Y-33332380D01*
X212666309Y-33284761D02*
X212761547Y-33332380D01*
X212952023Y-33332380D01*
X213047261Y-33284761D01*
X213094880Y-33237142D01*
X213142500Y-33141904D01*
X213142500Y-32856190D01*
X213094880Y-32760952D01*
X213047261Y-32713333D01*
X212952023Y-32665714D01*
X212761547Y-32665714D01*
X212666309Y-32713333D01*
X212237738Y-33332380D02*
X212237738Y-32332380D01*
X212142500Y-32951428D02*
X211856785Y-33332380D01*
X211856785Y-32665714D02*
X212237738Y-33046666D01*
X211047261Y-33284761D02*
X211142500Y-33332380D01*
X211332976Y-33332380D01*
X211428214Y-33284761D01*
X211475833Y-33189523D01*
X211475833Y-32808571D01*
X211428214Y-32713333D01*
X211332976Y-32665714D01*
X211142500Y-32665714D01*
X211047261Y-32713333D01*
X210999642Y-32808571D01*
X210999642Y-32903809D01*
X211475833Y-32999047D01*
X210713928Y-32665714D02*
X210332976Y-32665714D01*
X210571071Y-32332380D02*
X210571071Y-33189523D01*
X210523452Y-33284761D01*
X210428214Y-33332380D01*
X210332976Y-33332380D01*
X245812785Y-52334761D02*
X245717547Y-52382380D01*
X245527071Y-52382380D01*
X245431833Y-52334761D01*
X245384214Y-52239523D01*
X245384214Y-52191904D01*
X245431833Y-52096666D01*
X245527071Y-52049047D01*
X245669928Y-52049047D01*
X245765166Y-52001428D01*
X245812785Y-51906190D01*
X245812785Y-51858571D01*
X245765166Y-51763333D01*
X245669928Y-51715714D01*
X245527071Y-51715714D01*
X245431833Y-51763333D01*
X244812785Y-52382380D02*
X244908023Y-52334761D01*
X244955642Y-52287142D01*
X245003261Y-52191904D01*
X245003261Y-51906190D01*
X244955642Y-51810952D01*
X244908023Y-51763333D01*
X244812785Y-51715714D01*
X244669928Y-51715714D01*
X244574690Y-51763333D01*
X244527071Y-51810952D01*
X244479452Y-51906190D01*
X244479452Y-52191904D01*
X244527071Y-52287142D01*
X244574690Y-52334761D01*
X244669928Y-52382380D01*
X244812785Y-52382380D01*
X243622309Y-52334761D02*
X243717547Y-52382380D01*
X243908023Y-52382380D01*
X244003261Y-52334761D01*
X244050880Y-52287142D01*
X244098500Y-52191904D01*
X244098500Y-51906190D01*
X244050880Y-51810952D01*
X244003261Y-51763333D01*
X243908023Y-51715714D01*
X243717547Y-51715714D01*
X243622309Y-51763333D01*
X243193738Y-52382380D02*
X243193738Y-51382380D01*
X243098500Y-52001428D02*
X242812785Y-52382380D01*
X242812785Y-51715714D02*
X243193738Y-52096666D01*
X242003261Y-52334761D02*
X242098500Y-52382380D01*
X242288976Y-52382380D01*
X242384214Y-52334761D01*
X242431833Y-52239523D01*
X242431833Y-51858571D01*
X242384214Y-51763333D01*
X242288976Y-51715714D01*
X242098500Y-51715714D01*
X242003261Y-51763333D01*
X241955642Y-51858571D01*
X241955642Y-51953809D01*
X242431833Y-52049047D01*
X241669928Y-51715714D02*
X241288976Y-51715714D01*
X241527071Y-51382380D02*
X241527071Y-52239523D01*
X241479452Y-52334761D01*
X241384214Y-52382380D01*
X241288976Y-52382380D01*
X257719785Y-33284761D02*
X257624547Y-33332380D01*
X257434071Y-33332380D01*
X257338833Y-33284761D01*
X257291214Y-33189523D01*
X257291214Y-33141904D01*
X257338833Y-33046666D01*
X257434071Y-32999047D01*
X257576928Y-32999047D01*
X257672166Y-32951428D01*
X257719785Y-32856190D01*
X257719785Y-32808571D01*
X257672166Y-32713333D01*
X257576928Y-32665714D01*
X257434071Y-32665714D01*
X257338833Y-32713333D01*
X256719785Y-33332380D02*
X256815023Y-33284761D01*
X256862642Y-33237142D01*
X256910261Y-33141904D01*
X256910261Y-32856190D01*
X256862642Y-32760952D01*
X256815023Y-32713333D01*
X256719785Y-32665714D01*
X256576928Y-32665714D01*
X256481690Y-32713333D01*
X256434071Y-32760952D01*
X256386452Y-32856190D01*
X256386452Y-33141904D01*
X256434071Y-33237142D01*
X256481690Y-33284761D01*
X256576928Y-33332380D01*
X256719785Y-33332380D01*
X255529309Y-33284761D02*
X255624547Y-33332380D01*
X255815023Y-33332380D01*
X255910261Y-33284761D01*
X255957880Y-33237142D01*
X256005500Y-33141904D01*
X256005500Y-32856190D01*
X255957880Y-32760952D01*
X255910261Y-32713333D01*
X255815023Y-32665714D01*
X255624547Y-32665714D01*
X255529309Y-32713333D01*
X255100738Y-33332380D02*
X255100738Y-32332380D01*
X255005500Y-32951428D02*
X254719785Y-33332380D01*
X254719785Y-32665714D02*
X255100738Y-33046666D01*
X253910261Y-33284761D02*
X254005500Y-33332380D01*
X254195976Y-33332380D01*
X254291214Y-33284761D01*
X254338833Y-33189523D01*
X254338833Y-32808571D01*
X254291214Y-32713333D01*
X254195976Y-32665714D01*
X254005500Y-32665714D01*
X253910261Y-32713333D01*
X253862642Y-32808571D01*
X253862642Y-32903809D01*
X254338833Y-32999047D01*
X253576928Y-32665714D02*
X253195976Y-32665714D01*
X253434071Y-32332380D02*
X253434071Y-33189523D01*
X253386452Y-33284761D01*
X253291214Y-33332380D01*
X253195976Y-33332380D01*
X217238285Y-52334761D02*
X217143047Y-52382380D01*
X216952571Y-52382380D01*
X216857333Y-52334761D01*
X216809714Y-52239523D01*
X216809714Y-52191904D01*
X216857333Y-52096666D01*
X216952571Y-52049047D01*
X217095428Y-52049047D01*
X217190666Y-52001428D01*
X217238285Y-51906190D01*
X217238285Y-51858571D01*
X217190666Y-51763333D01*
X217095428Y-51715714D01*
X216952571Y-51715714D01*
X216857333Y-51763333D01*
X216238285Y-52382380D02*
X216333523Y-52334761D01*
X216381142Y-52287142D01*
X216428761Y-52191904D01*
X216428761Y-51906190D01*
X216381142Y-51810952D01*
X216333523Y-51763333D01*
X216238285Y-51715714D01*
X216095428Y-51715714D01*
X216000190Y-51763333D01*
X215952571Y-51810952D01*
X215904952Y-51906190D01*
X215904952Y-52191904D01*
X215952571Y-52287142D01*
X216000190Y-52334761D01*
X216095428Y-52382380D01*
X216238285Y-52382380D01*
X215047809Y-52334761D02*
X215143047Y-52382380D01*
X215333523Y-52382380D01*
X215428761Y-52334761D01*
X215476380Y-52287142D01*
X215524000Y-52191904D01*
X215524000Y-51906190D01*
X215476380Y-51810952D01*
X215428761Y-51763333D01*
X215333523Y-51715714D01*
X215143047Y-51715714D01*
X215047809Y-51763333D01*
X214619238Y-52382380D02*
X214619238Y-51382380D01*
X214524000Y-52001428D02*
X214238285Y-52382380D01*
X214238285Y-51715714D02*
X214619238Y-52096666D01*
X213428761Y-52334761D02*
X213524000Y-52382380D01*
X213714476Y-52382380D01*
X213809714Y-52334761D01*
X213857333Y-52239523D01*
X213857333Y-51858571D01*
X213809714Y-51763333D01*
X213714476Y-51715714D01*
X213524000Y-51715714D01*
X213428761Y-51763333D01*
X213381142Y-51858571D01*
X213381142Y-51953809D01*
X213857333Y-52049047D01*
X213095428Y-51715714D02*
X212714476Y-51715714D01*
X212952571Y-51382380D02*
X212952571Y-52239523D01*
X212904952Y-52334761D01*
X212809714Y-52382380D01*
X212714476Y-52382380D01*
X262481785Y-14234761D02*
X262386547Y-14282380D01*
X262196071Y-14282380D01*
X262100833Y-14234761D01*
X262053214Y-14139523D01*
X262053214Y-14091904D01*
X262100833Y-13996666D01*
X262196071Y-13949047D01*
X262338928Y-13949047D01*
X262434166Y-13901428D01*
X262481785Y-13806190D01*
X262481785Y-13758571D01*
X262434166Y-13663333D01*
X262338928Y-13615714D01*
X262196071Y-13615714D01*
X262100833Y-13663333D01*
X261481785Y-14282380D02*
X261577023Y-14234761D01*
X261624642Y-14187142D01*
X261672261Y-14091904D01*
X261672261Y-13806190D01*
X261624642Y-13710952D01*
X261577023Y-13663333D01*
X261481785Y-13615714D01*
X261338928Y-13615714D01*
X261243690Y-13663333D01*
X261196071Y-13710952D01*
X261148452Y-13806190D01*
X261148452Y-14091904D01*
X261196071Y-14187142D01*
X261243690Y-14234761D01*
X261338928Y-14282380D01*
X261481785Y-14282380D01*
X260291309Y-14234761D02*
X260386547Y-14282380D01*
X260577023Y-14282380D01*
X260672261Y-14234761D01*
X260719880Y-14187142D01*
X260767500Y-14091904D01*
X260767500Y-13806190D01*
X260719880Y-13710952D01*
X260672261Y-13663333D01*
X260577023Y-13615714D01*
X260386547Y-13615714D01*
X260291309Y-13663333D01*
X259862738Y-14282380D02*
X259862738Y-13282380D01*
X259767500Y-13901428D02*
X259481785Y-14282380D01*
X259481785Y-13615714D02*
X259862738Y-13996666D01*
X258672261Y-14234761D02*
X258767500Y-14282380D01*
X258957976Y-14282380D01*
X259053214Y-14234761D01*
X259100833Y-14139523D01*
X259100833Y-13758571D01*
X259053214Y-13663333D01*
X258957976Y-13615714D01*
X258767500Y-13615714D01*
X258672261Y-13663333D01*
X258624642Y-13758571D01*
X258624642Y-13853809D01*
X259100833Y-13949047D01*
X258338928Y-13615714D02*
X257957976Y-13615714D01*
X258196071Y-13282380D02*
X258196071Y-14139523D01*
X258148452Y-14234761D01*
X258053214Y-14282380D01*
X257957976Y-14282380D01*
X219619285Y4815238D02*
X219524047Y4767619D01*
X219333571Y4767619D01*
X219238333Y4815238D01*
X219190714Y4910476D01*
X219190714Y4958095D01*
X219238333Y5053333D01*
X219333571Y5100952D01*
X219476428Y5100952D01*
X219571666Y5148571D01*
X219619285Y5243809D01*
X219619285Y5291428D01*
X219571666Y5386666D01*
X219476428Y5434285D01*
X219333571Y5434285D01*
X219238333Y5386666D01*
X218619285Y4767619D02*
X218714523Y4815238D01*
X218762142Y4862857D01*
X218809761Y4958095D01*
X218809761Y5243809D01*
X218762142Y5339047D01*
X218714523Y5386666D01*
X218619285Y5434285D01*
X218476428Y5434285D01*
X218381190Y5386666D01*
X218333571Y5339047D01*
X218285952Y5243809D01*
X218285952Y4958095D01*
X218333571Y4862857D01*
X218381190Y4815238D01*
X218476428Y4767619D01*
X218619285Y4767619D01*
X217428809Y4815238D02*
X217524047Y4767619D01*
X217714523Y4767619D01*
X217809761Y4815238D01*
X217857380Y4862857D01*
X217905000Y4958095D01*
X217905000Y5243809D01*
X217857380Y5339047D01*
X217809761Y5386666D01*
X217714523Y5434285D01*
X217524047Y5434285D01*
X217428809Y5386666D01*
X217000238Y4767619D02*
X217000238Y5767619D01*
X216905000Y5148571D02*
X216619285Y4767619D01*
X216619285Y5434285D02*
X217000238Y5053333D01*
X215809761Y4815238D02*
X215905000Y4767619D01*
X216095476Y4767619D01*
X216190714Y4815238D01*
X216238333Y4910476D01*
X216238333Y5291428D01*
X216190714Y5386666D01*
X216095476Y5434285D01*
X215905000Y5434285D01*
X215809761Y5386666D01*
X215762142Y5291428D01*
X215762142Y5196190D01*
X216238333Y5100952D01*
X215476428Y5434285D02*
X215095476Y5434285D01*
X215333571Y5767619D02*
X215333571Y4910476D01*
X215285952Y4815238D01*
X215190714Y4767619D01*
X215095476Y4767619D01*
X186281785Y-14234761D02*
X186186547Y-14282380D01*
X185996071Y-14282380D01*
X185900833Y-14234761D01*
X185853214Y-14139523D01*
X185853214Y-14091904D01*
X185900833Y-13996666D01*
X185996071Y-13949047D01*
X186138928Y-13949047D01*
X186234166Y-13901428D01*
X186281785Y-13806190D01*
X186281785Y-13758571D01*
X186234166Y-13663333D01*
X186138928Y-13615714D01*
X185996071Y-13615714D01*
X185900833Y-13663333D01*
X185281785Y-14282380D02*
X185377023Y-14234761D01*
X185424642Y-14187142D01*
X185472261Y-14091904D01*
X185472261Y-13806190D01*
X185424642Y-13710952D01*
X185377023Y-13663333D01*
X185281785Y-13615714D01*
X185138928Y-13615714D01*
X185043690Y-13663333D01*
X184996071Y-13710952D01*
X184948452Y-13806190D01*
X184948452Y-14091904D01*
X184996071Y-14187142D01*
X185043690Y-14234761D01*
X185138928Y-14282380D01*
X185281785Y-14282380D01*
X184091309Y-14234761D02*
X184186547Y-14282380D01*
X184377023Y-14282380D01*
X184472261Y-14234761D01*
X184519880Y-14187142D01*
X184567500Y-14091904D01*
X184567500Y-13806190D01*
X184519880Y-13710952D01*
X184472261Y-13663333D01*
X184377023Y-13615714D01*
X184186547Y-13615714D01*
X184091309Y-13663333D01*
X183662738Y-14282380D02*
X183662738Y-13282380D01*
X183567500Y-13901428D02*
X183281785Y-14282380D01*
X183281785Y-13615714D02*
X183662738Y-13996666D01*
X182472261Y-14234761D02*
X182567500Y-14282380D01*
X182757976Y-14282380D01*
X182853214Y-14234761D01*
X182900833Y-14139523D01*
X182900833Y-13758571D01*
X182853214Y-13663333D01*
X182757976Y-13615714D01*
X182567500Y-13615714D01*
X182472261Y-13663333D01*
X182424642Y-13758571D01*
X182424642Y-13853809D01*
X182900833Y-13949047D01*
X182138928Y-13615714D02*
X181757976Y-13615714D01*
X181996071Y-13282380D02*
X181996071Y-14139523D01*
X181948452Y-14234761D01*
X181853214Y-14282380D01*
X181757976Y-14282380D01*
X205331785Y-14234761D02*
X205236547Y-14282380D01*
X205046071Y-14282380D01*
X204950833Y-14234761D01*
X204903214Y-14139523D01*
X204903214Y-14091904D01*
X204950833Y-13996666D01*
X205046071Y-13949047D01*
X205188928Y-13949047D01*
X205284166Y-13901428D01*
X205331785Y-13806190D01*
X205331785Y-13758571D01*
X205284166Y-13663333D01*
X205188928Y-13615714D01*
X205046071Y-13615714D01*
X204950833Y-13663333D01*
X204331785Y-14282380D02*
X204427023Y-14234761D01*
X204474642Y-14187142D01*
X204522261Y-14091904D01*
X204522261Y-13806190D01*
X204474642Y-13710952D01*
X204427023Y-13663333D01*
X204331785Y-13615714D01*
X204188928Y-13615714D01*
X204093690Y-13663333D01*
X204046071Y-13710952D01*
X203998452Y-13806190D01*
X203998452Y-14091904D01*
X204046071Y-14187142D01*
X204093690Y-14234761D01*
X204188928Y-14282380D01*
X204331785Y-14282380D01*
X203141309Y-14234761D02*
X203236547Y-14282380D01*
X203427023Y-14282380D01*
X203522261Y-14234761D01*
X203569880Y-14187142D01*
X203617500Y-14091904D01*
X203617500Y-13806190D01*
X203569880Y-13710952D01*
X203522261Y-13663333D01*
X203427023Y-13615714D01*
X203236547Y-13615714D01*
X203141309Y-13663333D01*
X202712738Y-14282380D02*
X202712738Y-13282380D01*
X202617500Y-13901428D02*
X202331785Y-14282380D01*
X202331785Y-13615714D02*
X202712738Y-13996666D01*
X201522261Y-14234761D02*
X201617500Y-14282380D01*
X201807976Y-14282380D01*
X201903214Y-14234761D01*
X201950833Y-14139523D01*
X201950833Y-13758571D01*
X201903214Y-13663333D01*
X201807976Y-13615714D01*
X201617500Y-13615714D01*
X201522261Y-13663333D01*
X201474642Y-13758571D01*
X201474642Y-13853809D01*
X201950833Y-13949047D01*
X201188928Y-13615714D02*
X200807976Y-13615714D01*
X201046071Y-13282380D02*
X201046071Y-14139523D01*
X200998452Y-14234761D01*
X200903214Y-14282380D01*
X200807976Y-14282380D01*
X200569285Y4815238D02*
X200474047Y4767619D01*
X200283571Y4767619D01*
X200188333Y4815238D01*
X200140714Y4910476D01*
X200140714Y4958095D01*
X200188333Y5053333D01*
X200283571Y5100952D01*
X200426428Y5100952D01*
X200521666Y5148571D01*
X200569285Y5243809D01*
X200569285Y5291428D01*
X200521666Y5386666D01*
X200426428Y5434285D01*
X200283571Y5434285D01*
X200188333Y5386666D01*
X199569285Y4767619D02*
X199664523Y4815238D01*
X199712142Y4862857D01*
X199759761Y4958095D01*
X199759761Y5243809D01*
X199712142Y5339047D01*
X199664523Y5386666D01*
X199569285Y5434285D01*
X199426428Y5434285D01*
X199331190Y5386666D01*
X199283571Y5339047D01*
X199235952Y5243809D01*
X199235952Y4958095D01*
X199283571Y4862857D01*
X199331190Y4815238D01*
X199426428Y4767619D01*
X199569285Y4767619D01*
X198378809Y4815238D02*
X198474047Y4767619D01*
X198664523Y4767619D01*
X198759761Y4815238D01*
X198807380Y4862857D01*
X198855000Y4958095D01*
X198855000Y5243809D01*
X198807380Y5339047D01*
X198759761Y5386666D01*
X198664523Y5434285D01*
X198474047Y5434285D01*
X198378809Y5386666D01*
X197950238Y4767619D02*
X197950238Y5767619D01*
X197855000Y5148571D02*
X197569285Y4767619D01*
X197569285Y5434285D02*
X197950238Y5053333D01*
X196759761Y4815238D02*
X196855000Y4767619D01*
X197045476Y4767619D01*
X197140714Y4815238D01*
X197188333Y4910476D01*
X197188333Y5291428D01*
X197140714Y5386666D01*
X197045476Y5434285D01*
X196855000Y5434285D01*
X196759761Y5386666D01*
X196712142Y5291428D01*
X196712142Y5196190D01*
X197188333Y5100952D01*
X196426428Y5434285D02*
X196045476Y5434285D01*
X196283571Y5767619D02*
X196283571Y4910476D01*
X196235952Y4815238D01*
X196140714Y4767619D01*
X196045476Y4767619D01*
X233906785Y-33284761D02*
X233811547Y-33332380D01*
X233621071Y-33332380D01*
X233525833Y-33284761D01*
X233478214Y-33189523D01*
X233478214Y-33141904D01*
X233525833Y-33046666D01*
X233621071Y-32999047D01*
X233763928Y-32999047D01*
X233859166Y-32951428D01*
X233906785Y-32856190D01*
X233906785Y-32808571D01*
X233859166Y-32713333D01*
X233763928Y-32665714D01*
X233621071Y-32665714D01*
X233525833Y-32713333D01*
X232906785Y-33332380D02*
X233002023Y-33284761D01*
X233049642Y-33237142D01*
X233097261Y-33141904D01*
X233097261Y-32856190D01*
X233049642Y-32760952D01*
X233002023Y-32713333D01*
X232906785Y-32665714D01*
X232763928Y-32665714D01*
X232668690Y-32713333D01*
X232621071Y-32760952D01*
X232573452Y-32856190D01*
X232573452Y-33141904D01*
X232621071Y-33237142D01*
X232668690Y-33284761D01*
X232763928Y-33332380D01*
X232906785Y-33332380D01*
X231716309Y-33284761D02*
X231811547Y-33332380D01*
X232002023Y-33332380D01*
X232097261Y-33284761D01*
X232144880Y-33237142D01*
X232192500Y-33141904D01*
X232192500Y-32856190D01*
X232144880Y-32760952D01*
X232097261Y-32713333D01*
X232002023Y-32665714D01*
X231811547Y-32665714D01*
X231716309Y-32713333D01*
X231287738Y-33332380D02*
X231287738Y-32332380D01*
X231192500Y-32951428D02*
X230906785Y-33332380D01*
X230906785Y-32665714D02*
X231287738Y-33046666D01*
X230097261Y-33284761D02*
X230192500Y-33332380D01*
X230382976Y-33332380D01*
X230478214Y-33284761D01*
X230525833Y-33189523D01*
X230525833Y-32808571D01*
X230478214Y-32713333D01*
X230382976Y-32665714D01*
X230192500Y-32665714D01*
X230097261Y-32713333D01*
X230049642Y-32808571D01*
X230049642Y-32903809D01*
X230525833Y-32999047D01*
X229763928Y-32665714D02*
X229382976Y-32665714D01*
X229621071Y-32332380D02*
X229621071Y-33189523D01*
X229573452Y-33284761D01*
X229478214Y-33332380D01*
X229382976Y-33332380D01*
X191044285Y-52334761D02*
X190949047Y-52382380D01*
X190758571Y-52382380D01*
X190663333Y-52334761D01*
X190615714Y-52239523D01*
X190615714Y-52191904D01*
X190663333Y-52096666D01*
X190758571Y-52049047D01*
X190901428Y-52049047D01*
X190996666Y-52001428D01*
X191044285Y-51906190D01*
X191044285Y-51858571D01*
X190996666Y-51763333D01*
X190901428Y-51715714D01*
X190758571Y-51715714D01*
X190663333Y-51763333D01*
X190044285Y-52382380D02*
X190139523Y-52334761D01*
X190187142Y-52287142D01*
X190234761Y-52191904D01*
X190234761Y-51906190D01*
X190187142Y-51810952D01*
X190139523Y-51763333D01*
X190044285Y-51715714D01*
X189901428Y-51715714D01*
X189806190Y-51763333D01*
X189758571Y-51810952D01*
X189710952Y-51906190D01*
X189710952Y-52191904D01*
X189758571Y-52287142D01*
X189806190Y-52334761D01*
X189901428Y-52382380D01*
X190044285Y-52382380D01*
X188853809Y-52334761D02*
X188949047Y-52382380D01*
X189139523Y-52382380D01*
X189234761Y-52334761D01*
X189282380Y-52287142D01*
X189330000Y-52191904D01*
X189330000Y-51906190D01*
X189282380Y-51810952D01*
X189234761Y-51763333D01*
X189139523Y-51715714D01*
X188949047Y-51715714D01*
X188853809Y-51763333D01*
X188425238Y-52382380D02*
X188425238Y-51382380D01*
X188330000Y-52001428D02*
X188044285Y-52382380D01*
X188044285Y-51715714D02*
X188425238Y-52096666D01*
X187234761Y-52334761D02*
X187330000Y-52382380D01*
X187520476Y-52382380D01*
X187615714Y-52334761D01*
X187663333Y-52239523D01*
X187663333Y-51858571D01*
X187615714Y-51763333D01*
X187520476Y-51715714D01*
X187330000Y-51715714D01*
X187234761Y-51763333D01*
X187187142Y-51858571D01*
X187187142Y-51953809D01*
X187663333Y-52049047D01*
X186901428Y-51715714D02*
X186520476Y-51715714D01*
X186758571Y-51382380D02*
X186758571Y-52239523D01*
X186710952Y-52334761D01*
X186615714Y-52382380D01*
X186520476Y-52382380D01*
X260100284Y4815238D02*
X260005046Y4767619D01*
X259814570Y4767619D01*
X259719332Y4815238D01*
X259671713Y4910476D01*
X259671713Y4958095D01*
X259719332Y5053333D01*
X259814570Y5100952D01*
X259957427Y5100952D01*
X260052665Y5148571D01*
X260100284Y5243809D01*
X260100284Y5291428D01*
X260052665Y5386666D01*
X259957427Y5434285D01*
X259814570Y5434285D01*
X259719332Y5386666D01*
X259100284Y4767619D02*
X259195522Y4815238D01*
X259243141Y4862857D01*
X259290760Y4958095D01*
X259290760Y5243809D01*
X259243141Y5339047D01*
X259195522Y5386666D01*
X259100284Y5434285D01*
X258957427Y5434285D01*
X258862189Y5386666D01*
X258814570Y5339047D01*
X258766951Y5243809D01*
X258766951Y4958095D01*
X258814570Y4862857D01*
X258862189Y4815238D01*
X258957427Y4767619D01*
X259100284Y4767619D01*
X257909808Y4815238D02*
X258005046Y4767619D01*
X258195522Y4767619D01*
X258290760Y4815238D01*
X258338379Y4862857D01*
X258385999Y4958095D01*
X258385999Y5243809D01*
X258338379Y5339047D01*
X258290760Y5386666D01*
X258195522Y5434285D01*
X258005046Y5434285D01*
X257909808Y5386666D01*
X257481237Y4767619D02*
X257481237Y5767619D01*
X257385999Y5148571D02*
X257100284Y4767619D01*
X257100284Y5434285D02*
X257481237Y5053333D01*
X256290760Y4815238D02*
X256385999Y4767619D01*
X256576475Y4767619D01*
X256671713Y4815238D01*
X256719332Y4910476D01*
X256719332Y5291428D01*
X256671713Y5386666D01*
X256576475Y5434285D01*
X256385999Y5434285D01*
X256290760Y5386666D01*
X256243141Y5291428D01*
X256243141Y5196190D01*
X256719332Y5100952D01*
X255957427Y5434285D02*
X255576475Y5434285D01*
X255814570Y5767619D02*
X255814570Y4910476D01*
X255766951Y4815238D01*
X255671713Y4767619D01*
X255576475Y4767619D01*
X195806785Y-33284761D02*
X195711547Y-33332380D01*
X195521071Y-33332380D01*
X195425833Y-33284761D01*
X195378214Y-33189523D01*
X195378214Y-33141904D01*
X195425833Y-33046666D01*
X195521071Y-32999047D01*
X195663928Y-32999047D01*
X195759166Y-32951428D01*
X195806785Y-32856190D01*
X195806785Y-32808571D01*
X195759166Y-32713333D01*
X195663928Y-32665714D01*
X195521071Y-32665714D01*
X195425833Y-32713333D01*
X194806785Y-33332380D02*
X194902023Y-33284761D01*
X194949642Y-33237142D01*
X194997261Y-33141904D01*
X194997261Y-32856190D01*
X194949642Y-32760952D01*
X194902023Y-32713333D01*
X194806785Y-32665714D01*
X194663928Y-32665714D01*
X194568690Y-32713333D01*
X194521071Y-32760952D01*
X194473452Y-32856190D01*
X194473452Y-33141904D01*
X194521071Y-33237142D01*
X194568690Y-33284761D01*
X194663928Y-33332380D01*
X194806785Y-33332380D01*
X193616309Y-33284761D02*
X193711547Y-33332380D01*
X193902023Y-33332380D01*
X193997261Y-33284761D01*
X194044880Y-33237142D01*
X194092500Y-33141904D01*
X194092500Y-32856190D01*
X194044880Y-32760952D01*
X193997261Y-32713333D01*
X193902023Y-32665714D01*
X193711547Y-32665714D01*
X193616309Y-32713333D01*
X193187738Y-33332380D02*
X193187738Y-32332380D01*
X193092500Y-32951428D02*
X192806785Y-33332380D01*
X192806785Y-32665714D02*
X193187738Y-33046666D01*
X191997261Y-33284761D02*
X192092500Y-33332380D01*
X192282976Y-33332380D01*
X192378214Y-33284761D01*
X192425833Y-33189523D01*
X192425833Y-32808571D01*
X192378214Y-32713333D01*
X192282976Y-32665714D01*
X192092500Y-32665714D01*
X191997261Y-32713333D01*
X191949642Y-32808571D01*
X191949642Y-32903809D01*
X192425833Y-32999047D01*
X191663928Y-32665714D02*
X191282976Y-32665714D01*
X191521071Y-32332380D02*
X191521071Y-33189523D01*
X191473452Y-33284761D01*
X191378214Y-33332380D01*
X191282976Y-33332380D01*
X243431785Y-14234761D02*
X243336547Y-14282380D01*
X243146071Y-14282380D01*
X243050833Y-14234761D01*
X243003214Y-14139523D01*
X243003214Y-14091904D01*
X243050833Y-13996666D01*
X243146071Y-13949047D01*
X243288928Y-13949047D01*
X243384166Y-13901428D01*
X243431785Y-13806190D01*
X243431785Y-13758571D01*
X243384166Y-13663333D01*
X243288928Y-13615714D01*
X243146071Y-13615714D01*
X243050833Y-13663333D01*
X242431785Y-14282380D02*
X242527023Y-14234761D01*
X242574642Y-14187142D01*
X242622261Y-14091904D01*
X242622261Y-13806190D01*
X242574642Y-13710952D01*
X242527023Y-13663333D01*
X242431785Y-13615714D01*
X242288928Y-13615714D01*
X242193690Y-13663333D01*
X242146071Y-13710952D01*
X242098452Y-13806190D01*
X242098452Y-14091904D01*
X242146071Y-14187142D01*
X242193690Y-14234761D01*
X242288928Y-14282380D01*
X242431785Y-14282380D01*
X241241309Y-14234761D02*
X241336547Y-14282380D01*
X241527023Y-14282380D01*
X241622261Y-14234761D01*
X241669880Y-14187142D01*
X241717500Y-14091904D01*
X241717500Y-13806190D01*
X241669880Y-13710952D01*
X241622261Y-13663333D01*
X241527023Y-13615714D01*
X241336547Y-13615714D01*
X241241309Y-13663333D01*
X240812738Y-14282380D02*
X240812738Y-13282380D01*
X240717500Y-13901428D02*
X240431785Y-14282380D01*
X240431785Y-13615714D02*
X240812738Y-13996666D01*
X239622261Y-14234761D02*
X239717500Y-14282380D01*
X239907976Y-14282380D01*
X240003214Y-14234761D01*
X240050833Y-14139523D01*
X240050833Y-13758571D01*
X240003214Y-13663333D01*
X239907976Y-13615714D01*
X239717500Y-13615714D01*
X239622261Y-13663333D01*
X239574642Y-13758571D01*
X239574642Y-13853809D01*
X240050833Y-13949047D01*
X239288928Y-13615714D02*
X238907976Y-13615714D01*
X239146071Y-13282380D02*
X239146071Y-14139523D01*
X239098452Y-14234761D01*
X239003214Y-14282380D01*
X238907976Y-14282380D01*
X224381785Y-14234761D02*
X224286547Y-14282380D01*
X224096071Y-14282380D01*
X224000833Y-14234761D01*
X223953214Y-14139523D01*
X223953214Y-14091904D01*
X224000833Y-13996666D01*
X224096071Y-13949047D01*
X224238928Y-13949047D01*
X224334166Y-13901428D01*
X224381785Y-13806190D01*
X224381785Y-13758571D01*
X224334166Y-13663333D01*
X224238928Y-13615714D01*
X224096071Y-13615714D01*
X224000833Y-13663333D01*
X223381785Y-14282380D02*
X223477023Y-14234761D01*
X223524642Y-14187142D01*
X223572261Y-14091904D01*
X223572261Y-13806190D01*
X223524642Y-13710952D01*
X223477023Y-13663333D01*
X223381785Y-13615714D01*
X223238928Y-13615714D01*
X223143690Y-13663333D01*
X223096071Y-13710952D01*
X223048452Y-13806190D01*
X223048452Y-14091904D01*
X223096071Y-14187142D01*
X223143690Y-14234761D01*
X223238928Y-14282380D01*
X223381785Y-14282380D01*
X222191309Y-14234761D02*
X222286547Y-14282380D01*
X222477023Y-14282380D01*
X222572261Y-14234761D01*
X222619880Y-14187142D01*
X222667500Y-14091904D01*
X222667500Y-13806190D01*
X222619880Y-13710952D01*
X222572261Y-13663333D01*
X222477023Y-13615714D01*
X222286547Y-13615714D01*
X222191309Y-13663333D01*
X221762738Y-14282380D02*
X221762738Y-13282380D01*
X221667500Y-13901428D02*
X221381785Y-14282380D01*
X221381785Y-13615714D02*
X221762738Y-13996666D01*
X220572261Y-14234761D02*
X220667500Y-14282380D01*
X220857976Y-14282380D01*
X220953214Y-14234761D01*
X221000833Y-14139523D01*
X221000833Y-13758571D01*
X220953214Y-13663333D01*
X220857976Y-13615714D01*
X220667500Y-13615714D01*
X220572261Y-13663333D01*
X220524642Y-13758571D01*
X220524642Y-13853809D01*
X221000833Y-13949047D01*
X220238928Y-13615714D02*
X219857976Y-13615714D01*
X220096071Y-13282380D02*
X220096071Y-14139523D01*
X220048452Y-14234761D01*
X219953214Y-14282380D01*
X219857976Y-14282380D01*
X181519285Y4815238D02*
X181424047Y4767619D01*
X181233571Y4767619D01*
X181138333Y4815238D01*
X181090714Y4910476D01*
X181090714Y4958095D01*
X181138333Y5053333D01*
X181233571Y5100952D01*
X181376428Y5100952D01*
X181471666Y5148571D01*
X181519285Y5243809D01*
X181519285Y5291428D01*
X181471666Y5386666D01*
X181376428Y5434285D01*
X181233571Y5434285D01*
X181138333Y5386666D01*
X180519285Y4767619D02*
X180614523Y4815238D01*
X180662142Y4862857D01*
X180709761Y4958095D01*
X180709761Y5243809D01*
X180662142Y5339047D01*
X180614523Y5386666D01*
X180519285Y5434285D01*
X180376428Y5434285D01*
X180281190Y5386666D01*
X180233571Y5339047D01*
X180185952Y5243809D01*
X180185952Y4958095D01*
X180233571Y4862857D01*
X180281190Y4815238D01*
X180376428Y4767619D01*
X180519285Y4767619D01*
X179328809Y4815238D02*
X179424047Y4767619D01*
X179614523Y4767619D01*
X179709761Y4815238D01*
X179757380Y4862857D01*
X179805000Y4958095D01*
X179805000Y5243809D01*
X179757380Y5339047D01*
X179709761Y5386666D01*
X179614523Y5434285D01*
X179424047Y5434285D01*
X179328809Y5386666D01*
X178900238Y4767619D02*
X178900238Y5767619D01*
X178805000Y5148571D02*
X178519285Y4767619D01*
X178519285Y5434285D02*
X178900238Y5053333D01*
X177709761Y4815238D02*
X177805000Y4767619D01*
X177995476Y4767619D01*
X178090714Y4815238D01*
X178138333Y4910476D01*
X178138333Y5291428D01*
X178090714Y5386666D01*
X177995476Y5434285D01*
X177805000Y5434285D01*
X177709761Y5386666D01*
X177662142Y5291428D01*
X177662142Y5196190D01*
X178138333Y5100952D01*
X177376428Y5434285D02*
X176995476Y5434285D01*
X177233571Y5767619D02*
X177233571Y4910476D01*
X177185952Y4815238D01*
X177090714Y4767619D01*
X176995476Y4767619D01*
X238669285Y4815238D02*
X238574047Y4767619D01*
X238383571Y4767619D01*
X238288333Y4815238D01*
X238240714Y4910476D01*
X238240714Y4958095D01*
X238288333Y5053333D01*
X238383571Y5100952D01*
X238526428Y5100952D01*
X238621666Y5148571D01*
X238669285Y5243809D01*
X238669285Y5291428D01*
X238621666Y5386666D01*
X238526428Y5434285D01*
X238383571Y5434285D01*
X238288333Y5386666D01*
X237669285Y4767619D02*
X237764523Y4815238D01*
X237812142Y4862857D01*
X237859761Y4958095D01*
X237859761Y5243809D01*
X237812142Y5339047D01*
X237764523Y5386666D01*
X237669285Y5434285D01*
X237526428Y5434285D01*
X237431190Y5386666D01*
X237383571Y5339047D01*
X237335952Y5243809D01*
X237335952Y4958095D01*
X237383571Y4862857D01*
X237431190Y4815238D01*
X237526428Y4767619D01*
X237669285Y4767619D01*
X236478809Y4815238D02*
X236574047Y4767619D01*
X236764523Y4767619D01*
X236859761Y4815238D01*
X236907380Y4862857D01*
X236955000Y4958095D01*
X236955000Y5243809D01*
X236907380Y5339047D01*
X236859761Y5386666D01*
X236764523Y5434285D01*
X236574047Y5434285D01*
X236478809Y5386666D01*
X236050238Y4767619D02*
X236050238Y5767619D01*
X235955000Y5148571D02*
X235669285Y4767619D01*
X235669285Y5434285D02*
X236050238Y5053333D01*
X234859761Y4815238D02*
X234955000Y4767619D01*
X235145476Y4767619D01*
X235240714Y4815238D01*
X235288333Y4910476D01*
X235288333Y5291428D01*
X235240714Y5386666D01*
X235145476Y5434285D01*
X234955000Y5434285D01*
X234859761Y5386666D01*
X234812142Y5291428D01*
X234812142Y5196190D01*
X235288333Y5100952D01*
X234526428Y5434285D02*
X234145476Y5434285D01*
X234383571Y5767619D02*
X234383571Y4910476D01*
X234335952Y4815238D01*
X234240714Y4767619D01*
X234145476Y4767619D01*
X193261904Y-28010000D02*
X193357142Y-27962380D01*
X193500000Y-27962380D01*
X193642857Y-28010000D01*
X193738095Y-28105238D01*
X193785714Y-28200476D01*
X193833333Y-28390952D01*
X193833333Y-28533809D01*
X193785714Y-28724285D01*
X193738095Y-28819523D01*
X193642857Y-28914761D01*
X193500000Y-28962380D01*
X193404761Y-28962380D01*
X193261904Y-28914761D01*
X193214285Y-28867142D01*
X193214285Y-28533809D01*
X193404761Y-28533809D01*
X192785714Y-28962380D02*
X192785714Y-27962380D01*
X192214285Y-28962380D01*
X192214285Y-27962380D01*
X191738095Y-28962380D02*
X191738095Y-27962380D01*
X191500000Y-27962380D01*
X191357142Y-28010000D01*
X191261904Y-28105238D01*
X191214285Y-28200476D01*
X191166666Y-28390952D01*
X191166666Y-28533809D01*
X191214285Y-28724285D01*
X191261904Y-28819523D01*
X191357142Y-28914761D01*
X191500000Y-28962380D01*
X191738095Y-28962380D01*
X193042857Y-26272380D02*
X193519047Y-26272380D01*
X193519047Y-25272380D01*
X192709523Y-25748571D02*
X192376190Y-25748571D01*
X192233333Y-26272380D02*
X192709523Y-26272380D01*
X192709523Y-25272380D01*
X192233333Y-25272380D01*
X191804761Y-26272380D02*
X191804761Y-25272380D01*
X191566666Y-25272380D01*
X191423809Y-25320000D01*
X191328571Y-25415238D01*
X191280952Y-25510476D01*
X191233333Y-25700952D01*
X191233333Y-25843809D01*
X191280952Y-26034285D01*
X191328571Y-26129523D01*
X191423809Y-26224761D01*
X191566666Y-26272380D01*
X191804761Y-26272380D01*
X193983333Y-22762380D02*
X193650000Y-23762380D01*
X193316666Y-22762380D01*
X192411904Y-23667142D02*
X192459523Y-23714761D01*
X192602380Y-23762380D01*
X192697619Y-23762380D01*
X192840476Y-23714761D01*
X192935714Y-23619523D01*
X192983333Y-23524285D01*
X193030952Y-23333809D01*
X193030952Y-23190952D01*
X192983333Y-23000476D01*
X192935714Y-22905238D01*
X192840476Y-22810000D01*
X192697619Y-22762380D01*
X192602380Y-22762380D01*
X192459523Y-22810000D01*
X192411904Y-22857619D01*
X191411904Y-23667142D02*
X191459523Y-23714761D01*
X191602380Y-23762380D01*
X191697619Y-23762380D01*
X191840476Y-23714761D01*
X191935714Y-23619523D01*
X191983333Y-23524285D01*
X192030952Y-23333809D01*
X192030952Y-23190952D01*
X191983333Y-23000476D01*
X191935714Y-22905238D01*
X191840476Y-22810000D01*
X191697619Y-22762380D01*
X191602380Y-22762380D01*
X191459523Y-22810000D01*
X191411904Y-22857619D01*
X215231608Y10282036D02*
X215758378Y10527762D01*
X215726479Y9996321D02*
X216226479Y10862347D01*
X215896565Y11052823D01*
X215790277Y11059203D01*
X215725228Y11041773D01*
X215636370Y10983104D01*
X215564941Y10859386D01*
X215558561Y10753098D01*
X215575991Y10688049D01*
X215634660Y10599191D01*
X215964575Y10408714D01*
X215122359Y10949954D02*
X214833684Y11116620D01*
X214448061Y10734417D02*
X214860454Y10496321D01*
X215360454Y11362347D01*
X214948061Y11600442D01*
X214141956Y10966132D02*
X213994429Y10996321D01*
X213788232Y11115369D01*
X213729563Y11204227D01*
X213712133Y11269276D01*
X213718513Y11375564D01*
X213766132Y11458043D01*
X213854990Y11516712D01*
X213920039Y11534142D01*
X214026327Y11527762D01*
X214215094Y11473763D01*
X214321382Y11467383D01*
X214386431Y11484813D01*
X214475289Y11543482D01*
X214522908Y11625961D01*
X214529288Y11732249D01*
X214511858Y11797298D01*
X214453189Y11886156D01*
X214246993Y12005204D01*
X214099465Y12035393D01*
X213514026Y11878525D02*
X213225351Y12045192D01*
X212839728Y11662988D02*
X213252121Y11424893D01*
X213752121Y12290918D01*
X213339728Y12529013D01*
X213092292Y12671871D02*
X212597421Y12957585D01*
X212344856Y11948702D02*
X212844856Y12814728D01*
X254721904Y957619D02*
X254721904Y148095D01*
X254674285Y52857D01*
X254626666Y5238D01*
X254531428Y-42380D01*
X254340952Y-42380D01*
X254245714Y5238D01*
X254198095Y52857D01*
X254150476Y148095D01*
X254150476Y957619D01*
X253721904Y862380D02*
X253674285Y910000D01*
X253579047Y957619D01*
X253340952Y957619D01*
X253245714Y910000D01*
X253198095Y862380D01*
X253150476Y767142D01*
X253150476Y671904D01*
X253198095Y529047D01*
X253769523Y-42380D01*
X253150476Y-42380D01*
D12*
X268249285Y-1986428D02*
X267499285Y-1986428D01*
X268035000Y-1736428D01*
X267499285Y-1486428D01*
X268249285Y-1486428D01*
X268249285Y-1129285D02*
X267749285Y-1129285D01*
X267499285Y-1129285D02*
X267535000Y-1165000D01*
X267570714Y-1129285D01*
X267535000Y-1093571D01*
X267499285Y-1129285D01*
X267570714Y-1129285D01*
X268213571Y-450714D02*
X268249285Y-522142D01*
X268249285Y-665000D01*
X268213571Y-736428D01*
X268177857Y-772142D01*
X268106428Y-807857D01*
X267892142Y-807857D01*
X267820714Y-772142D01*
X267785000Y-736428D01*
X267749285Y-665000D01*
X267749285Y-522142D01*
X267785000Y-450714D01*
X268249285Y-129285D02*
X267749285Y-129285D01*
X267892142Y-129285D02*
X267820714Y-93571D01*
X267785000Y-57857D01*
X267749285Y13571D01*
X267749285Y85000D01*
X268249285Y442142D02*
X268213571Y370714D01*
X268177857Y335000D01*
X268106428Y299285D01*
X267892142Y299285D01*
X267820714Y335000D01*
X267785000Y370714D01*
X267749285Y442142D01*
X267749285Y549285D01*
X267785000Y620714D01*
X267820714Y656428D01*
X267892142Y692142D01*
X268106428Y692142D01*
X268177857Y656428D01*
X268213571Y620714D01*
X268249285Y549285D01*
X268249285Y442142D01*
X267499285Y1013571D02*
X268106428Y1013571D01*
X268177857Y1049285D01*
X268213571Y1085000D01*
X268249285Y1156428D01*
X268249285Y1299285D01*
X268213571Y1370714D01*
X268177857Y1406428D01*
X268106428Y1442142D01*
X267499285Y1442142D01*
X268213571Y1763571D02*
X268249285Y1870714D01*
X268249285Y2049285D01*
X268213571Y2120714D01*
X268177857Y2156428D01*
X268106428Y2192142D01*
X268035000Y2192142D01*
X267963571Y2156428D01*
X267927857Y2120714D01*
X267892142Y2049285D01*
X267856428Y1906428D01*
X267820714Y1835000D01*
X267785000Y1799285D01*
X267713571Y1763571D01*
X267642142Y1763571D01*
X267570714Y1799285D01*
X267535000Y1835000D01*
X267499285Y1906428D01*
X267499285Y2085000D01*
X267535000Y2192142D01*
X267856428Y2763571D02*
X267892142Y2870714D01*
X267927857Y2906428D01*
X267999285Y2942142D01*
X268106428Y2942142D01*
X268177857Y2906428D01*
X268213571Y2870714D01*
X268249285Y2799285D01*
X268249285Y2513571D01*
X267499285Y2513571D01*
X267499285Y2763571D01*
X267535000Y2835000D01*
X267570714Y2870714D01*
X267642142Y2906428D01*
X267713571Y2906428D01*
X267785000Y2870714D01*
X267820714Y2835000D01*
X267856428Y2763571D01*
X267856428Y2513571D01*
D13*
X238091571Y-5611190D02*
X238055857Y-5515476D01*
X238020142Y-5483571D01*
X237948714Y-5451666D01*
X237841571Y-5451666D01*
X237770142Y-5483571D01*
X237734428Y-5515476D01*
X237698714Y-5579285D01*
X237698714Y-5834523D01*
X238448714Y-5834523D01*
X238448714Y-5611190D01*
X238413000Y-5547380D01*
X238377285Y-5515476D01*
X238305857Y-5483571D01*
X238234428Y-5483571D01*
X238163000Y-5515476D01*
X238127285Y-5547380D01*
X238091571Y-5611190D01*
X238091571Y-5834523D01*
X238198714Y-4877380D02*
X237698714Y-4877380D01*
X238484428Y-5036904D02*
X237948714Y-5196428D01*
X237948714Y-4781666D01*
X238484428Y-4047857D02*
X237520142Y-4622142D01*
X238127285Y-3728809D02*
X238163000Y-3792619D01*
X238198714Y-3824523D01*
X238270142Y-3856428D01*
X238305857Y-3856428D01*
X238377285Y-3824523D01*
X238413000Y-3792619D01*
X238448714Y-3728809D01*
X238448714Y-3601190D01*
X238413000Y-3537380D01*
X238377285Y-3505476D01*
X238305857Y-3473571D01*
X238270142Y-3473571D01*
X238198714Y-3505476D01*
X238163000Y-3537380D01*
X238127285Y-3601190D01*
X238127285Y-3728809D01*
X238091571Y-3792619D01*
X238055857Y-3824523D01*
X237984428Y-3856428D01*
X237841571Y-3856428D01*
X237770142Y-3824523D01*
X237734428Y-3792619D01*
X237698714Y-3728809D01*
X237698714Y-3601190D01*
X237734428Y-3537380D01*
X237770142Y-3505476D01*
X237841571Y-3473571D01*
X237984428Y-3473571D01*
X238055857Y-3505476D01*
X238091571Y-3537380D01*
X238127285Y-3601190D01*
X260558714Y-5599571D02*
X261308714Y-5599571D01*
X261308714Y-5440047D01*
X261273000Y-5344333D01*
X261201571Y-5280523D01*
X261130142Y-5248619D01*
X260987285Y-5216714D01*
X260880142Y-5216714D01*
X260737285Y-5248619D01*
X260665857Y-5280523D01*
X260594428Y-5344333D01*
X260558714Y-5440047D01*
X260558714Y-5599571D01*
X261237285Y-4961476D02*
X261273000Y-4929571D01*
X261308714Y-4865761D01*
X261308714Y-4706238D01*
X261273000Y-4642428D01*
X261237285Y-4610523D01*
X261165857Y-4578619D01*
X261094428Y-4578619D01*
X260987285Y-4610523D01*
X260558714Y-4993380D01*
X260558714Y-4578619D01*
X261344428Y-3812904D02*
X260380142Y-4387190D01*
X260558714Y-3206714D02*
X260915857Y-3430047D01*
X260558714Y-3589571D02*
X261308714Y-3589571D01*
X261308714Y-3334333D01*
X261273000Y-3270523D01*
X261237285Y-3238619D01*
X261165857Y-3206714D01*
X261058714Y-3206714D01*
X260987285Y-3238619D01*
X260951571Y-3270523D01*
X260915857Y-3334333D01*
X260915857Y-3589571D01*
X261308714Y-2983380D02*
X260558714Y-2536714D01*
X261308714Y-2536714D02*
X260558714Y-2983380D01*
X260558714Y-1930523D02*
X260558714Y-2313380D01*
X260558714Y-2121952D02*
X261308714Y-2121952D01*
X261201571Y-2185761D01*
X261130142Y-2249571D01*
X261094428Y-2313380D01*
X235713571Y-5236190D02*
X235677857Y-5140476D01*
X235642142Y-5108571D01*
X235570714Y-5076666D01*
X235463571Y-5076666D01*
X235392142Y-5108571D01*
X235356428Y-5140476D01*
X235320714Y-5204285D01*
X235320714Y-5459523D01*
X236070714Y-5459523D01*
X236070714Y-5236190D01*
X236035000Y-5172380D01*
X235999285Y-5140476D01*
X235927857Y-5108571D01*
X235856428Y-5108571D01*
X235785000Y-5140476D01*
X235749285Y-5172380D01*
X235713571Y-5236190D01*
X235713571Y-5459523D01*
X236070714Y-4470476D02*
X236070714Y-4789523D01*
X235713571Y-4821428D01*
X235749285Y-4789523D01*
X235785000Y-4725714D01*
X235785000Y-4566190D01*
X235749285Y-4502380D01*
X235713571Y-4470476D01*
X235642142Y-4438571D01*
X235463571Y-4438571D01*
X235392142Y-4470476D01*
X235356428Y-4502380D01*
X235320714Y-4566190D01*
X235320714Y-4725714D01*
X235356428Y-4789523D01*
X235392142Y-4821428D01*
X236106428Y-3672857D02*
X235142142Y-4247142D01*
X235320714Y-3417619D02*
X235320714Y-3290000D01*
X235356428Y-3226190D01*
X235392142Y-3194285D01*
X235499285Y-3130476D01*
X235642142Y-3098571D01*
X235927857Y-3098571D01*
X235999285Y-3130476D01*
X236035000Y-3162380D01*
X236070714Y-3226190D01*
X236070714Y-3353809D01*
X236035000Y-3417619D01*
X235999285Y-3449523D01*
X235927857Y-3481428D01*
X235749285Y-3481428D01*
X235677857Y-3449523D01*
X235642142Y-3417619D01*
X235606428Y-3353809D01*
X235606428Y-3226190D01*
X235642142Y-3162380D01*
X235677857Y-3130476D01*
X235749285Y-3098571D01*
X245262142Y-5541666D02*
X245226428Y-5573571D01*
X245190714Y-5669285D01*
X245190714Y-5733095D01*
X245226428Y-5828809D01*
X245297857Y-5892619D01*
X245369285Y-5924523D01*
X245512142Y-5956428D01*
X245619285Y-5956428D01*
X245762142Y-5924523D01*
X245833571Y-5892619D01*
X245905000Y-5828809D01*
X245940714Y-5733095D01*
X245940714Y-5669285D01*
X245905000Y-5573571D01*
X245869285Y-5541666D01*
X245940714Y-4967380D02*
X245940714Y-5095000D01*
X245905000Y-5158809D01*
X245869285Y-5190714D01*
X245762142Y-5254523D01*
X245619285Y-5286428D01*
X245333571Y-5286428D01*
X245262142Y-5254523D01*
X245226428Y-5222619D01*
X245190714Y-5158809D01*
X245190714Y-5031190D01*
X245226428Y-4967380D01*
X245262142Y-4935476D01*
X245333571Y-4903571D01*
X245512142Y-4903571D01*
X245583571Y-4935476D01*
X245619285Y-4967380D01*
X245655000Y-5031190D01*
X245655000Y-5158809D01*
X245619285Y-5222619D01*
X245583571Y-5254523D01*
X245512142Y-5286428D01*
X245976428Y-4137857D02*
X245012142Y-4712142D01*
X245940714Y-3595476D02*
X245940714Y-3914523D01*
X245583571Y-3946428D01*
X245619285Y-3914523D01*
X245655000Y-3850714D01*
X245655000Y-3691190D01*
X245619285Y-3627380D01*
X245583571Y-3595476D01*
X245512142Y-3563571D01*
X245333571Y-3563571D01*
X245262142Y-3595476D01*
X245226428Y-3627380D01*
X245190714Y-3691190D01*
X245190714Y-3850714D01*
X245226428Y-3914523D01*
X245262142Y-3946428D01*
X250434428Y-5872619D02*
X250398714Y-5776904D01*
X250398714Y-5617380D01*
X250434428Y-5553571D01*
X250470142Y-5521666D01*
X250541571Y-5489761D01*
X250613000Y-5489761D01*
X250684428Y-5521666D01*
X250720142Y-5553571D01*
X250755857Y-5617380D01*
X250791571Y-5745000D01*
X250827285Y-5808809D01*
X250863000Y-5840714D01*
X250934428Y-5872619D01*
X251005857Y-5872619D01*
X251077285Y-5840714D01*
X251113000Y-5808809D01*
X251148714Y-5745000D01*
X251148714Y-5585476D01*
X251113000Y-5489761D01*
X250470142Y-4819761D02*
X250434428Y-4851666D01*
X250398714Y-4947380D01*
X250398714Y-5011190D01*
X250434428Y-5106904D01*
X250505857Y-5170714D01*
X250577285Y-5202619D01*
X250720142Y-5234523D01*
X250827285Y-5234523D01*
X250970142Y-5202619D01*
X251041571Y-5170714D01*
X251113000Y-5106904D01*
X251148714Y-5011190D01*
X251148714Y-4947380D01*
X251113000Y-4851666D01*
X251077285Y-4819761D01*
X250398714Y-4213571D02*
X250398714Y-4532619D01*
X251148714Y-4532619D01*
X251184428Y-3511666D02*
X250220142Y-4085952D01*
X250398714Y-3288333D02*
X251148714Y-3288333D01*
X251148714Y-3128809D01*
X251113000Y-3033095D01*
X251041571Y-2969285D01*
X250970142Y-2937380D01*
X250827285Y-2905476D01*
X250720142Y-2905476D01*
X250577285Y-2937380D01*
X250505857Y-2969285D01*
X250434428Y-3033095D01*
X250398714Y-3128809D01*
X250398714Y-3288333D01*
X251148714Y-2490714D02*
X251148714Y-2426904D01*
X251113000Y-2363095D01*
X251077285Y-2331190D01*
X251005857Y-2299285D01*
X250863000Y-2267380D01*
X250684428Y-2267380D01*
X250541571Y-2299285D01*
X250470142Y-2331190D01*
X250434428Y-2363095D01*
X250398714Y-2426904D01*
X250398714Y-2490714D01*
X250434428Y-2554523D01*
X250470142Y-2586428D01*
X250541571Y-2618333D01*
X250684428Y-2650238D01*
X250863000Y-2650238D01*
X251005857Y-2618333D01*
X251077285Y-2586428D01*
X251113000Y-2554523D01*
X251148714Y-2490714D01*
X251184428Y-1501666D02*
X250220142Y-2075952D01*
X251148714Y-1342142D02*
X251148714Y-927380D01*
X250863000Y-1150714D01*
X250863000Y-1055000D01*
X250827285Y-991190D01*
X250791571Y-959285D01*
X250720142Y-927380D01*
X250541571Y-927380D01*
X250470142Y-959285D01*
X250434428Y-991190D01*
X250398714Y-1055000D01*
X250398714Y-1246428D01*
X250434428Y-1310238D01*
X250470142Y-1342142D01*
X253056428Y-5533571D02*
X253020714Y-5437857D01*
X253020714Y-5278333D01*
X253056428Y-5214523D01*
X253092142Y-5182619D01*
X253163571Y-5150714D01*
X253235000Y-5150714D01*
X253306428Y-5182619D01*
X253342142Y-5214523D01*
X253377857Y-5278333D01*
X253413571Y-5405952D01*
X253449285Y-5469761D01*
X253485000Y-5501666D01*
X253556428Y-5533571D01*
X253627857Y-5533571D01*
X253699285Y-5501666D01*
X253735000Y-5469761D01*
X253770714Y-5405952D01*
X253770714Y-5246428D01*
X253735000Y-5150714D01*
X253020714Y-4863571D02*
X253770714Y-4863571D01*
X253770714Y-4704047D01*
X253735000Y-4608333D01*
X253663571Y-4544523D01*
X253592142Y-4512619D01*
X253449285Y-4480714D01*
X253342142Y-4480714D01*
X253199285Y-4512619D01*
X253127857Y-4544523D01*
X253056428Y-4608333D01*
X253020714Y-4704047D01*
X253020714Y-4863571D01*
X253235000Y-4225476D02*
X253235000Y-3906428D01*
X253020714Y-4289285D02*
X253770714Y-4065952D01*
X253020714Y-3842619D01*
X253806428Y-3140714D02*
X252842142Y-3715000D01*
X253020714Y-2917380D02*
X253770714Y-2917380D01*
X253770714Y-2757857D01*
X253735000Y-2662142D01*
X253663571Y-2598333D01*
X253592142Y-2566428D01*
X253449285Y-2534523D01*
X253342142Y-2534523D01*
X253199285Y-2566428D01*
X253127857Y-2598333D01*
X253056428Y-2662142D01*
X253020714Y-2757857D01*
X253020714Y-2917380D01*
X253020714Y-1896428D02*
X253020714Y-2279285D01*
X253020714Y-2087857D02*
X253770714Y-2087857D01*
X253663571Y-2151666D01*
X253592142Y-2215476D01*
X253556428Y-2279285D01*
X253806428Y-1130714D02*
X252842142Y-1705000D01*
X253699285Y-939285D02*
X253735000Y-907380D01*
X253770714Y-843571D01*
X253770714Y-684047D01*
X253735000Y-620238D01*
X253699285Y-588333D01*
X253627857Y-556428D01*
X253556428Y-556428D01*
X253449285Y-588333D01*
X253020714Y-971190D01*
X253020714Y-556428D01*
X247731714Y-5580523D02*
X248481714Y-5580523D01*
X248481714Y-5421000D01*
X248446000Y-5325285D01*
X248374571Y-5261476D01*
X248303142Y-5229571D01*
X248160285Y-5197666D01*
X248053142Y-5197666D01*
X247910285Y-5229571D01*
X247838857Y-5261476D01*
X247767428Y-5325285D01*
X247731714Y-5421000D01*
X247731714Y-5580523D01*
X248231714Y-4623380D02*
X247731714Y-4623380D01*
X248517428Y-4782904D02*
X247981714Y-4942428D01*
X247981714Y-4527666D01*
X248517428Y-3793857D02*
X247553142Y-4368142D01*
X248231714Y-3283380D02*
X247731714Y-3283380D01*
X248517428Y-3442904D02*
X247981714Y-3602428D01*
X247981714Y-3187666D01*
X263098714Y-5900809D02*
X263848714Y-5900809D01*
X263848714Y-5741285D01*
X263813000Y-5645571D01*
X263741571Y-5581761D01*
X263670142Y-5549857D01*
X263527285Y-5517952D01*
X263420142Y-5517952D01*
X263277285Y-5549857D01*
X263205857Y-5581761D01*
X263134428Y-5645571D01*
X263098714Y-5741285D01*
X263098714Y-5900809D01*
X263848714Y-5294619D02*
X263848714Y-4879857D01*
X263563000Y-5103190D01*
X263563000Y-5007476D01*
X263527285Y-4943666D01*
X263491571Y-4911761D01*
X263420142Y-4879857D01*
X263241571Y-4879857D01*
X263170142Y-4911761D01*
X263134428Y-4943666D01*
X263098714Y-5007476D01*
X263098714Y-5198904D01*
X263134428Y-5262714D01*
X263170142Y-5294619D01*
X263884428Y-4114142D02*
X262920142Y-4688428D01*
X263848714Y-3986523D02*
X263848714Y-3603666D01*
X263098714Y-3795095D02*
X263848714Y-3795095D01*
X263848714Y-3444142D02*
X263098714Y-2997476D01*
X263848714Y-2997476D02*
X263098714Y-3444142D01*
X263848714Y-2614619D02*
X263848714Y-2550809D01*
X263813000Y-2487000D01*
X263777285Y-2455095D01*
X263705857Y-2423190D01*
X263563000Y-2391285D01*
X263384428Y-2391285D01*
X263241571Y-2423190D01*
X263170142Y-2455095D01*
X263134428Y-2487000D01*
X263098714Y-2550809D01*
X263098714Y-2614619D01*
X263134428Y-2678428D01*
X263170142Y-2710333D01*
X263241571Y-2742238D01*
X263384428Y-2774142D01*
X263563000Y-2774142D01*
X263705857Y-2742238D01*
X263777285Y-2710333D01*
X263813000Y-2678428D01*
X263848714Y-2614619D01*
X256235000Y-5055476D02*
X256270714Y-5119285D01*
X256270714Y-5215000D01*
X256235000Y-5310714D01*
X256163571Y-5374523D01*
X256092142Y-5406428D01*
X255949285Y-5438333D01*
X255842142Y-5438333D01*
X255699285Y-5406428D01*
X255627857Y-5374523D01*
X255556428Y-5310714D01*
X255520714Y-5215000D01*
X255520714Y-5151190D01*
X255556428Y-5055476D01*
X255592142Y-5023571D01*
X255842142Y-5023571D01*
X255842142Y-5151190D01*
X255520714Y-4736428D02*
X256270714Y-4736428D01*
X255520714Y-4353571D01*
X256270714Y-4353571D01*
X255520714Y-4034523D02*
X256270714Y-4034523D01*
X256270714Y-3875000D01*
X256235000Y-3779285D01*
X256163571Y-3715476D01*
X256092142Y-3683571D01*
X255949285Y-3651666D01*
X255842142Y-3651666D01*
X255699285Y-3683571D01*
X255627857Y-3715476D01*
X255556428Y-3779285D01*
X255520714Y-3875000D01*
X255520714Y-4034523D01*
X258685000Y-5055476D02*
X258720714Y-5119285D01*
X258720714Y-5215000D01*
X258685000Y-5310714D01*
X258613571Y-5374523D01*
X258542142Y-5406428D01*
X258399285Y-5438333D01*
X258292142Y-5438333D01*
X258149285Y-5406428D01*
X258077857Y-5374523D01*
X258006428Y-5310714D01*
X257970714Y-5215000D01*
X257970714Y-5151190D01*
X258006428Y-5055476D01*
X258042142Y-5023571D01*
X258292142Y-5023571D01*
X258292142Y-5151190D01*
X257970714Y-4736428D02*
X258720714Y-4736428D01*
X257970714Y-4353571D01*
X258720714Y-4353571D01*
X257970714Y-4034523D02*
X258720714Y-4034523D01*
X258720714Y-3875000D01*
X258685000Y-3779285D01*
X258613571Y-3715476D01*
X258542142Y-3683571D01*
X258399285Y-3651666D01*
X258292142Y-3651666D01*
X258149285Y-3683571D01*
X258077857Y-3715476D01*
X258006428Y-3779285D01*
X257970714Y-3875000D01*
X257970714Y-4034523D01*
X242920714Y-5459523D02*
X243670714Y-5459523D01*
X243670714Y-5300000D01*
X243635000Y-5204285D01*
X243563571Y-5140476D01*
X243492142Y-5108571D01*
X243349285Y-5076666D01*
X243242142Y-5076666D01*
X243099285Y-5108571D01*
X243027857Y-5140476D01*
X242956428Y-5204285D01*
X242920714Y-5300000D01*
X242920714Y-5459523D01*
X243670714Y-4853333D02*
X243670714Y-4406666D01*
X242920714Y-4693809D01*
X243706428Y-3672857D02*
X242742142Y-4247142D01*
X243670714Y-3162380D02*
X243670714Y-3290000D01*
X243635000Y-3353809D01*
X243599285Y-3385714D01*
X243492142Y-3449523D01*
X243349285Y-3481428D01*
X243063571Y-3481428D01*
X242992142Y-3449523D01*
X242956428Y-3417619D01*
X242920714Y-3353809D01*
X242920714Y-3226190D01*
X242956428Y-3162380D01*
X242992142Y-3130476D01*
X243063571Y-3098571D01*
X243242142Y-3098571D01*
X243313571Y-3130476D01*
X243349285Y-3162380D01*
X243385000Y-3226190D01*
X243385000Y-3353809D01*
X243349285Y-3417619D01*
X243313571Y-3449523D01*
X243242142Y-3481428D01*
X241253571Y-5972619D02*
X241253571Y-5749285D01*
X240860714Y-5653571D02*
X240860714Y-5972619D01*
X241610714Y-5972619D01*
X241610714Y-5653571D01*
X241610714Y-5079285D02*
X241610714Y-5206904D01*
X241575000Y-5270714D01*
X241539285Y-5302619D01*
X241432142Y-5366428D01*
X241289285Y-5398333D01*
X241003571Y-5398333D01*
X240932142Y-5366428D01*
X240896428Y-5334523D01*
X240860714Y-5270714D01*
X240860714Y-5143095D01*
X240896428Y-5079285D01*
X240932142Y-5047380D01*
X241003571Y-5015476D01*
X241182142Y-5015476D01*
X241253571Y-5047380D01*
X241289285Y-5079285D01*
X241325000Y-5143095D01*
X241325000Y-5270714D01*
X241289285Y-5334523D01*
X241253571Y-5366428D01*
X241182142Y-5398333D01*
X241646428Y-4249761D02*
X240682142Y-4824047D01*
X241610714Y-4090238D02*
X241610714Y-3643571D01*
X240860714Y-3930714D01*
X237670714Y3672380D02*
X237670714Y3289523D01*
X237670714Y3480952D02*
X238420714Y3480952D01*
X238313571Y3417142D01*
X238242142Y3353333D01*
X238206428Y3289523D01*
X238420714Y4246666D02*
X238420714Y4119047D01*
X238385000Y4055238D01*
X238349285Y4023333D01*
X238242142Y3959523D01*
X238099285Y3927619D01*
X237813571Y3927619D01*
X237742142Y3959523D01*
X237706428Y3991428D01*
X237670714Y4055238D01*
X237670714Y4182857D01*
X237706428Y4246666D01*
X237742142Y4278571D01*
X237813571Y4310476D01*
X237992142Y4310476D01*
X238063571Y4278571D01*
X238099285Y4246666D01*
X238135000Y4182857D01*
X238135000Y4055238D01*
X238099285Y3991428D01*
X238063571Y3959523D01*
X237992142Y3927619D01*
X238456428Y5076190D02*
X237492142Y4501904D01*
X238063571Y5522857D02*
X238027857Y5618571D01*
X237992142Y5650476D01*
X237920714Y5682380D01*
X237813571Y5682380D01*
X237742142Y5650476D01*
X237706428Y5618571D01*
X237670714Y5554761D01*
X237670714Y5299523D01*
X238420714Y5299523D01*
X238420714Y5522857D01*
X238385000Y5586666D01*
X238349285Y5618571D01*
X238277857Y5650476D01*
X238206428Y5650476D01*
X238135000Y5618571D01*
X238099285Y5586666D01*
X238063571Y5522857D01*
X238063571Y5299523D01*
X238349285Y5937619D02*
X238385000Y5969523D01*
X238420714Y6033333D01*
X238420714Y6192857D01*
X238385000Y6256666D01*
X238349285Y6288571D01*
X238277857Y6320476D01*
X238206428Y6320476D01*
X238099285Y6288571D01*
X237670714Y5905714D01*
X237670714Y6320476D01*
X235285714Y3595380D02*
X235285714Y3212523D01*
X235285714Y3403952D02*
X236035714Y3403952D01*
X235928571Y3340142D01*
X235857142Y3276333D01*
X235821428Y3212523D01*
X236035714Y4010142D02*
X236035714Y4073952D01*
X236000000Y4137761D01*
X235964285Y4169666D01*
X235892857Y4201571D01*
X235750000Y4233476D01*
X235571428Y4233476D01*
X235428571Y4201571D01*
X235357142Y4169666D01*
X235321428Y4137761D01*
X235285714Y4073952D01*
X235285714Y4010142D01*
X235321428Y3946333D01*
X235357142Y3914428D01*
X235428571Y3882523D01*
X235571428Y3850619D01*
X235750000Y3850619D01*
X235892857Y3882523D01*
X235964285Y3914428D01*
X236000000Y3946333D01*
X236035714Y4010142D01*
X236071428Y4999190D02*
X235107142Y4424904D01*
X235678571Y5445857D02*
X235642857Y5541571D01*
X235607142Y5573476D01*
X235535714Y5605380D01*
X235428571Y5605380D01*
X235357142Y5573476D01*
X235321428Y5541571D01*
X235285714Y5477761D01*
X235285714Y5222523D01*
X236035714Y5222523D01*
X236035714Y5445857D01*
X236000000Y5509666D01*
X235964285Y5541571D01*
X235892857Y5573476D01*
X235821428Y5573476D01*
X235750000Y5541571D01*
X235714285Y5509666D01*
X235678571Y5445857D01*
X235678571Y5222523D01*
X236035714Y6179666D02*
X236035714Y6052047D01*
X236000000Y5988238D01*
X235964285Y5956333D01*
X235857142Y5892523D01*
X235714285Y5860619D01*
X235428571Y5860619D01*
X235357142Y5892523D01*
X235321428Y5924428D01*
X235285714Y5988238D01*
X235285714Y6115857D01*
X235321428Y6179666D01*
X235357142Y6211571D01*
X235428571Y6243476D01*
X235607142Y6243476D01*
X235678571Y6211571D01*
X235714285Y6179666D01*
X235750000Y6115857D01*
X235750000Y5988238D01*
X235714285Y5924428D01*
X235678571Y5892523D01*
X235607142Y5860619D01*
X240220714Y3672380D02*
X240220714Y3289523D01*
X240220714Y3480952D02*
X240970714Y3480952D01*
X240863571Y3417142D01*
X240792142Y3353333D01*
X240756428Y3289523D01*
X240720714Y4246666D02*
X240220714Y4246666D01*
X241006428Y4087142D02*
X240470714Y3927619D01*
X240470714Y4342380D01*
X241006428Y5076190D02*
X240042142Y4501904D01*
X240613571Y5522857D02*
X240577857Y5618571D01*
X240542142Y5650476D01*
X240470714Y5682380D01*
X240363571Y5682380D01*
X240292142Y5650476D01*
X240256428Y5618571D01*
X240220714Y5554761D01*
X240220714Y5299523D01*
X240970714Y5299523D01*
X240970714Y5522857D01*
X240935000Y5586666D01*
X240899285Y5618571D01*
X240827857Y5650476D01*
X240756428Y5650476D01*
X240685000Y5618571D01*
X240649285Y5586666D01*
X240613571Y5522857D01*
X240613571Y5299523D01*
X240970714Y5905714D02*
X240970714Y6320476D01*
X240685000Y6097142D01*
X240685000Y6192857D01*
X240649285Y6256666D01*
X240613571Y6288571D01*
X240542142Y6320476D01*
X240363571Y6320476D01*
X240292142Y6288571D01*
X240256428Y6256666D01*
X240220714Y6192857D01*
X240220714Y6001428D01*
X240256428Y5937619D01*
X240292142Y5905714D01*
X242770714Y3672380D02*
X242770714Y3289523D01*
X242770714Y3480952D02*
X243520714Y3480952D01*
X243413571Y3417142D01*
X243342142Y3353333D01*
X243306428Y3289523D01*
X243520714Y4278571D02*
X243520714Y3959523D01*
X243163571Y3927619D01*
X243199285Y3959523D01*
X243235000Y4023333D01*
X243235000Y4182857D01*
X243199285Y4246666D01*
X243163571Y4278571D01*
X243092142Y4310476D01*
X242913571Y4310476D01*
X242842142Y4278571D01*
X242806428Y4246666D01*
X242770714Y4182857D01*
X242770714Y4023333D01*
X242806428Y3959523D01*
X242842142Y3927619D01*
X243556428Y5076190D02*
X242592142Y4501904D01*
X243163571Y5522857D02*
X243127857Y5618571D01*
X243092142Y5650476D01*
X243020714Y5682380D01*
X242913571Y5682380D01*
X242842142Y5650476D01*
X242806428Y5618571D01*
X242770714Y5554761D01*
X242770714Y5299523D01*
X243520714Y5299523D01*
X243520714Y5522857D01*
X243485000Y5586666D01*
X243449285Y5618571D01*
X243377857Y5650476D01*
X243306428Y5650476D01*
X243235000Y5618571D01*
X243199285Y5586666D01*
X243163571Y5522857D01*
X243163571Y5299523D01*
X242770714Y6320476D02*
X242770714Y5937619D01*
X242770714Y6129047D02*
X243520714Y6129047D01*
X243413571Y6065238D01*
X243342142Y6001428D01*
X243306428Y5937619D01*
X245535000Y3369285D02*
X245535000Y3688333D01*
X245320714Y3305476D02*
X246070714Y3528809D01*
X245320714Y3752142D01*
X246070714Y4103095D02*
X246070714Y4166904D01*
X246035000Y4230714D01*
X245999285Y4262619D01*
X245927857Y4294523D01*
X245785000Y4326428D01*
X245606428Y4326428D01*
X245463571Y4294523D01*
X245392142Y4262619D01*
X245356428Y4230714D01*
X245320714Y4166904D01*
X245320714Y4103095D01*
X245356428Y4039285D01*
X245392142Y4007380D01*
X245463571Y3975476D01*
X245606428Y3943571D01*
X245785000Y3943571D01*
X245927857Y3975476D01*
X245999285Y4007380D01*
X246035000Y4039285D01*
X246070714Y4103095D01*
X246106428Y5092142D02*
X245142142Y4517857D01*
X245713571Y5538809D02*
X245713571Y5315476D01*
X245320714Y5315476D02*
X246070714Y5315476D01*
X246070714Y5634523D01*
X246070714Y5825952D02*
X246070714Y6272619D01*
X245320714Y5985476D01*
X248085000Y3369285D02*
X248085000Y3688333D01*
X247870714Y3305476D02*
X248620714Y3528809D01*
X247870714Y3752142D01*
X247870714Y4326428D02*
X247870714Y3943571D01*
X247870714Y4135000D02*
X248620714Y4135000D01*
X248513571Y4071190D01*
X248442142Y4007380D01*
X248406428Y3943571D01*
X248656428Y5092142D02*
X247692142Y4517857D01*
X248263571Y5538809D02*
X248263571Y5315476D01*
X247870714Y5315476D02*
X248620714Y5315476D01*
X248620714Y5634523D01*
X248620714Y6176904D02*
X248620714Y6049285D01*
X248585000Y5985476D01*
X248549285Y5953571D01*
X248442142Y5889761D01*
X248299285Y5857857D01*
X248013571Y5857857D01*
X247942142Y5889761D01*
X247906428Y5921666D01*
X247870714Y5985476D01*
X247870714Y6113095D01*
X247906428Y6176904D01*
X247942142Y6208809D01*
X248013571Y6240714D01*
X248192142Y6240714D01*
X248263571Y6208809D01*
X248299285Y6176904D01*
X248335000Y6113095D01*
X248335000Y5985476D01*
X248299285Y5921666D01*
X248263571Y5889761D01*
X248192142Y5857857D01*
X250585000Y3369285D02*
X250585000Y3688333D01*
X250370714Y3305476D02*
X251120714Y3528809D01*
X250370714Y3752142D01*
X251049285Y3943571D02*
X251085000Y3975476D01*
X251120714Y4039285D01*
X251120714Y4198809D01*
X251085000Y4262619D01*
X251049285Y4294523D01*
X250977857Y4326428D01*
X250906428Y4326428D01*
X250799285Y4294523D01*
X250370714Y3911666D01*
X250370714Y4326428D01*
X251156428Y5092142D02*
X250192142Y4517857D01*
X250763571Y5538809D02*
X250763571Y5315476D01*
X250370714Y5315476D02*
X251120714Y5315476D01*
X251120714Y5634523D01*
X251120714Y6208809D02*
X251120714Y5889761D01*
X250763571Y5857857D01*
X250799285Y5889761D01*
X250835000Y5953571D01*
X250835000Y6113095D01*
X250799285Y6176904D01*
X250763571Y6208809D01*
X250692142Y6240714D01*
X250513571Y6240714D01*
X250442142Y6208809D01*
X250406428Y6176904D01*
X250370714Y6113095D01*
X250370714Y5953571D01*
X250406428Y5889761D01*
X250442142Y5857857D01*
X253085000Y3369285D02*
X253085000Y3688333D01*
X252870714Y3305476D02*
X253620714Y3528809D01*
X252870714Y3752142D01*
X253620714Y3911666D02*
X253620714Y4326428D01*
X253335000Y4103095D01*
X253335000Y4198809D01*
X253299285Y4262619D01*
X253263571Y4294523D01*
X253192142Y4326428D01*
X253013571Y4326428D01*
X252942142Y4294523D01*
X252906428Y4262619D01*
X252870714Y4198809D01*
X252870714Y4007380D01*
X252906428Y3943571D01*
X252942142Y3911666D01*
X253656428Y5092142D02*
X252692142Y4517857D01*
X253263571Y5538809D02*
X253263571Y5315476D01*
X252870714Y5315476D02*
X253620714Y5315476D01*
X253620714Y5634523D01*
X253370714Y6176904D02*
X252870714Y6176904D01*
X253656428Y6017380D02*
X253120714Y5857857D01*
X253120714Y6272619D01*
X256320714Y4511666D02*
X255570714Y4735000D01*
X256320714Y4958333D01*
X255642142Y5564523D02*
X255606428Y5532619D01*
X255570714Y5436904D01*
X255570714Y5373095D01*
X255606428Y5277380D01*
X255677857Y5213571D01*
X255749285Y5181666D01*
X255892142Y5149761D01*
X255999285Y5149761D01*
X256142142Y5181666D01*
X256213571Y5213571D01*
X256285000Y5277380D01*
X256320714Y5373095D01*
X256320714Y5436904D01*
X256285000Y5532619D01*
X256249285Y5564523D01*
X255642142Y6234523D02*
X255606428Y6202619D01*
X255570714Y6106904D01*
X255570714Y6043095D01*
X255606428Y5947380D01*
X255677857Y5883571D01*
X255749285Y5851666D01*
X255892142Y5819761D01*
X255999285Y5819761D01*
X256142142Y5851666D01*
X256213571Y5883571D01*
X256285000Y5947380D01*
X256320714Y6043095D01*
X256320714Y6106904D01*
X256285000Y6202619D01*
X256249285Y6234523D01*
X258020714Y5038095D02*
X258377857Y4814761D01*
X258020714Y4655238D02*
X258770714Y4655238D01*
X258770714Y4910476D01*
X258735000Y4974285D01*
X258699285Y5006190D01*
X258627857Y5038095D01*
X258520714Y5038095D01*
X258449285Y5006190D01*
X258413571Y4974285D01*
X258377857Y4910476D01*
X258377857Y4655238D01*
X258056428Y5293333D02*
X258020714Y5389047D01*
X258020714Y5548571D01*
X258056428Y5612380D01*
X258092142Y5644285D01*
X258163571Y5676190D01*
X258235000Y5676190D01*
X258306428Y5644285D01*
X258342142Y5612380D01*
X258377857Y5548571D01*
X258413571Y5420952D01*
X258449285Y5357142D01*
X258485000Y5325238D01*
X258556428Y5293333D01*
X258627857Y5293333D01*
X258699285Y5325238D01*
X258735000Y5357142D01*
X258770714Y5420952D01*
X258770714Y5580476D01*
X258735000Y5676190D01*
X258770714Y5867619D02*
X258770714Y6250476D01*
X258020714Y6059047D02*
X258770714Y6059047D01*
X261285000Y4894523D02*
X261320714Y4830714D01*
X261320714Y4735000D01*
X261285000Y4639285D01*
X261213571Y4575476D01*
X261142142Y4543571D01*
X260999285Y4511666D01*
X260892142Y4511666D01*
X260749285Y4543571D01*
X260677857Y4575476D01*
X260606428Y4639285D01*
X260570714Y4735000D01*
X260570714Y4798809D01*
X260606428Y4894523D01*
X260642142Y4926428D01*
X260892142Y4926428D01*
X260892142Y4798809D01*
X260570714Y5213571D02*
X261320714Y5213571D01*
X260570714Y5596428D01*
X261320714Y5596428D01*
X260570714Y5915476D02*
X261320714Y5915476D01*
X261320714Y6075000D01*
X261285000Y6170714D01*
X261213571Y6234523D01*
X261142142Y6266428D01*
X260999285Y6298333D01*
X260892142Y6298333D01*
X260749285Y6266428D01*
X260677857Y6234523D01*
X260606428Y6170714D01*
X260570714Y6075000D01*
X260570714Y5915476D01*
X263120714Y4942380D02*
X263477857Y4719047D01*
X263120714Y4559523D02*
X263870714Y4559523D01*
X263870714Y4814761D01*
X263835000Y4878571D01*
X263799285Y4910476D01*
X263727857Y4942380D01*
X263620714Y4942380D01*
X263549285Y4910476D01*
X263513571Y4878571D01*
X263477857Y4814761D01*
X263477857Y4559523D01*
X263335000Y5197619D02*
X263335000Y5516666D01*
X263120714Y5133809D02*
X263870714Y5357142D01*
X263120714Y5580476D01*
X263870714Y5740000D02*
X263120714Y5899523D01*
X263656428Y6027142D01*
X263120714Y6154761D01*
X263870714Y6314285D01*
D11*
X219207564Y17974182D02*
X218921850Y17479311D01*
X219930732Y17226746D02*
X219064707Y17726746D01*
X219335494Y16195764D02*
X219089768Y16722534D01*
X219621208Y16690636D02*
X218755183Y17190636D01*
X218564707Y16860721D01*
X218558327Y16754433D01*
X218575757Y16689384D01*
X218634426Y16600526D01*
X218758144Y16529097D01*
X218864432Y16522717D01*
X218929481Y16540147D01*
X219018339Y16598816D01*
X219208815Y16928731D01*
X218835494Y15329738D02*
X218589768Y15856509D01*
X219121208Y15824610D02*
X218255183Y16324610D01*
X218064707Y15994696D01*
X218058327Y15888408D01*
X218075757Y15823359D01*
X218134426Y15734500D01*
X218258144Y15663072D01*
X218364432Y15656692D01*
X218429481Y15674122D01*
X218518339Y15732791D01*
X218708815Y16062705D01*
X218603779Y15023634D02*
X218573589Y14876106D01*
X218454542Y14669910D01*
X218365683Y14611240D01*
X218300634Y14593811D01*
X218194346Y14600190D01*
X218111868Y14647809D01*
X218053199Y14736668D01*
X218035769Y14801717D01*
X218042149Y14908005D01*
X218096147Y15096772D01*
X218102527Y15203060D01*
X218085097Y15268109D01*
X218026428Y15356967D01*
X217943950Y15404586D01*
X217837662Y15410966D01*
X217772613Y15393536D01*
X217683754Y15334867D01*
X217564707Y15128670D01*
X217534517Y14981143D01*
M02*
