G04 #@! TF.GenerationSoftware,KiCad,Pcbnew,(5.1.6-0-10_14)*
G04 #@! TF.CreationDate,2022-05-03T22:18:58+09:00*
G04 #@! TF.ProjectId,cool936,636f6f6c-3933-4362-9e6b-696361645f70,rev?*
G04 #@! TF.SameCoordinates,Original*
G04 #@! TF.FileFunction,Legend,Top*
G04 #@! TF.FilePolarity,Positive*
%FSLAX46Y46*%
G04 Gerber Fmt 4.6, Leading zero omitted, Abs format (unit mm)*
G04 Created by KiCad (PCBNEW (5.1.6-0-10_14)) date 2022-05-03 22:18:58*
%MOMM*%
%LPD*%
G01*
G04 APERTURE LIST*
%ADD10C,0.150000*%
G04 APERTURE END LIST*
D10*
X136232380Y33861904D02*
X135232380Y33861904D01*
X135851428Y33957142D02*
X136232380Y34242857D01*
X135565714Y34242857D02*
X135946666Y33861904D01*
X136232380Y34671428D02*
X135565714Y34671428D01*
X135232380Y34671428D02*
X135280000Y34623809D01*
X135327619Y34671428D01*
X135280000Y34719047D01*
X135232380Y34671428D01*
X135327619Y34671428D01*
X136232380Y35147619D02*
X135565714Y35147619D01*
X135756190Y35147619D02*
X135660952Y35195238D01*
X135613333Y35242857D01*
X135565714Y35338095D01*
X135565714Y35433333D01*
X136232380Y35766666D02*
X135565714Y35766666D01*
X135232380Y35766666D02*
X135280000Y35719047D01*
X135327619Y35766666D01*
X135280000Y35814285D01*
X135232380Y35766666D01*
X135327619Y35766666D01*
X135565714Y36100000D02*
X135565714Y36480952D01*
X135232380Y36242857D02*
X136089523Y36242857D01*
X136184761Y36290476D01*
X136232380Y36385714D01*
X136232380Y36480952D01*
X136232380Y36957142D02*
X136184761Y36861904D01*
X136137142Y36814285D01*
X136041904Y36766666D01*
X135756190Y36766666D01*
X135660952Y36814285D01*
X135613333Y36861904D01*
X135565714Y36957142D01*
X135565714Y37100000D01*
X135613333Y37195238D01*
X135660952Y37242857D01*
X135756190Y37290476D01*
X136041904Y37290476D01*
X136137142Y37242857D01*
X136184761Y37195238D01*
X136232380Y37100000D01*
X136232380Y36957142D01*
X136232380Y37719047D02*
X135565714Y37719047D01*
X135756190Y37719047D02*
X135660952Y37766666D01*
X135613333Y37814285D01*
X135565714Y37909523D01*
X135565714Y38004761D01*
X136232380Y38338095D02*
X135565714Y38338095D01*
X135232380Y38338095D02*
X135280000Y38290476D01*
X135327619Y38338095D01*
X135280000Y38385714D01*
X135232380Y38338095D01*
X135327619Y38338095D01*
X136262380Y115621904D02*
X135262380Y115621904D01*
X135881428Y115717142D02*
X136262380Y116002857D01*
X135595714Y116002857D02*
X135976666Y115621904D01*
X136262380Y116431428D02*
X135595714Y116431428D01*
X135262380Y116431428D02*
X135310000Y116383809D01*
X135357619Y116431428D01*
X135310000Y116479047D01*
X135262380Y116431428D01*
X135357619Y116431428D01*
X136262380Y116907619D02*
X135595714Y116907619D01*
X135786190Y116907619D02*
X135690952Y116955238D01*
X135643333Y117002857D01*
X135595714Y117098095D01*
X135595714Y117193333D01*
X136262380Y117526666D02*
X135595714Y117526666D01*
X135262380Y117526666D02*
X135310000Y117479047D01*
X135357619Y117526666D01*
X135310000Y117574285D01*
X135262380Y117526666D01*
X135357619Y117526666D01*
X135595714Y117860000D02*
X135595714Y118240952D01*
X135262380Y118002857D02*
X136119523Y118002857D01*
X136214761Y118050476D01*
X136262380Y118145714D01*
X136262380Y118240952D01*
X136262380Y118717142D02*
X136214761Y118621904D01*
X136167142Y118574285D01*
X136071904Y118526666D01*
X135786190Y118526666D01*
X135690952Y118574285D01*
X135643333Y118621904D01*
X135595714Y118717142D01*
X135595714Y118860000D01*
X135643333Y118955238D01*
X135690952Y119002857D01*
X135786190Y119050476D01*
X136071904Y119050476D01*
X136167142Y119002857D01*
X136214761Y118955238D01*
X136262380Y118860000D01*
X136262380Y118717142D01*
X136262380Y119479047D02*
X135595714Y119479047D01*
X135786190Y119479047D02*
X135690952Y119526666D01*
X135643333Y119574285D01*
X135595714Y119669523D01*
X135595714Y119764761D01*
X136262380Y120098095D02*
X135595714Y120098095D01*
X135262380Y120098095D02*
X135310000Y120050476D01*
X135357619Y120098095D01*
X135310000Y120145714D01*
X135262380Y120098095D01*
X135357619Y120098095D01*
M02*
