M48
; DRILL file {KiCad (5.1.6-0-10_14)} date Tuesday, May 03, 2022 at 07:20:52 AM
; FORMAT={-:-/ absolute / metric / decimal}
; #@! TF.CreationDate,2022-05-03T07:20:52+09:00
; #@! TF.GenerationSoftware,Kicad,Pcbnew,(5.1.6-0-10_14)
; #@! TF.FileFunction,Plated,1,2,PTH
FMAT,2
METRIC
T1C0.400
T2C0.813
T3C1.000
T4C1.300
%
G90
G05
T1
X178.653Y-10.747
X192.97Y-5.26
X192.97Y-9.81
X204.31Y-8.955
X204.41Y-31.76
X204.44Y-22.82
X207.08Y-23.96
X207.08Y-31.42
X209.45Y-50.86
X209.46Y-44.95
X210.46Y-31.95
X213.86Y-8.84
X213.94Y-5.85
X216.65Y-5.88
X216.65Y-8.96
X218.12Y-9.8
X218.14Y-10.88
X226.89Y9.06
X228.77Y-22.1
X229.64Y-31.24
X231.45Y-3.56
X231.98Y-11.21
X233.63Y-7.6
X233.7Y-8.97
X233.74Y-10.22
X235.76Y-12.14
X237.88Y-50.36
X237.89Y-43.21
X238.06Y-10.15
X240.71Y-4.28
X241.06Y-22.31
X241.06Y-30.59
X242.49Y-22.3
X242.5Y-29.68
X242.88Y-3.88
X249.65Y-5.325
X249.78Y6.02
X249.792Y-0.768
X252.23Y-0.71
X252.55Y-4.6
X254.57Y-8.84
X254.83Y-12.19
X256.47Y-22.32
X264.42Y-4.6
X265.53Y-7.84
X265.61Y-10.32
T2
X222.5Y-38.56
X222.5Y-46.18
X227.34Y-0.74
X227.34Y-8.36
X243.78Y-33.24
X243.78Y-40.86
X201.76Y-51.28
X201.76Y-58.9
X213.52Y-12.67
X213.52Y-20.29
X189.18Y-0.61
X189.18Y-8.23
X251.44Y-11.7
X251.44Y-19.32
X267.75Y-32.01
X267.75Y-39.63
X232.39Y-51.33
X232.39Y-58.95
X208.24Y-0.48
X208.24Y-8.1
X194.34Y-12.9
X194.34Y-20.52
X246.98Y3.02
X246.98Y-4.6
X203.5Y-38.53
X203.5Y-46.15
X267.83Y1.33
X267.83Y-6.29
X232.57Y-12.8
X232.57Y-20.42
X235.498Y8.019
X235.498Y-7.201
X238.038Y8.019
X238.038Y-7.201
X240.578Y8.019
X240.578Y-7.201
X243.118Y8.019
X243.118Y-7.201
X245.658Y8.019
X245.658Y-7.201
X248.198Y8.019
X248.198Y-7.201
X250.738Y8.019
X250.738Y-7.201
X253.278Y8.019
X253.278Y-7.201
X255.818Y8.019
X255.818Y-7.201
X258.358Y8.019
X258.358Y-7.201
X260.898Y8.019
X260.898Y-7.201
X263.438Y8.019
X263.438Y-7.201
X246.43Y-33.24
X246.43Y-40.86
X256.48Y-51.265
X256.48Y-58.885
T4
X211.385Y13.025
X217.015Y9.775
T3
G00X214.864Y15.156
M15
G01X214.431Y15.406
M16
G05
G00X217.462Y13.656
M15
G01X217.029Y13.906
M16
G05
G00X220.927Y11.656
M15
G01X220.494Y11.906
M16
G05
G00X224.326Y14.544
M15
G01X223.893Y14.794
M16
G05
T0
M30
