<?xml version="1.0" encoding="UTF-8" standalone="no"?>
<!-- Created with Inkscape (http://www.inkscape.org/) -->

<svg
   width="297mm"
   height="210mm"
   viewBox="0 0 297 210"
   version="1.1"
   id="svg5"
   inkscape:version="1.1.1 (c3084ef, 2021-09-22)"
   sodipodi:docname="cool936plate.svg"
   xmlns:inkscape="http://www.inkscape.org/namespaces/inkscape"
   xmlns:sodipodi="http://sodipodi.sourceforge.net/DTD/sodipodi-0.dtd"
   xmlns="http://www.w3.org/2000/svg"
   xmlns:svg="http://www.w3.org/2000/svg">
  <sodipodi:namedview
     id="namedview7"
     pagecolor="#ffffff"
     bordercolor="#666666"
     borderopacity="1.0"
     inkscape:pageshadow="2"
     inkscape:pageopacity="0.0"
     inkscape:pagecheckerboard="0"
     inkscape:document-units="mm"
     showgrid="false"
     inkscape:zoom="0.26882268"
     inkscape:cx="708.64557"
     inkscape:cy="814.66341"
     inkscape:window-width="1280"
     inkscape:window-height="800"
     inkscape:window-x="0"
     inkscape:window-y="0"
     inkscape:window-maximized="0"
     inkscape:current-layer="layer1" />
  <defs
     id="defs2" />
  <g
     inkscape:label="Layer 1"
     inkscape:groupmode="layer"
     id="layer1">
    <g
       style="fill:#000000;fill-opacity:1;stroke:#000000;stroke-linecap:round;stroke-linejoin:round;stroke-opacity:1"
       id="g1061"
       transform="matrix(0.00254,0,0,0.00254,144.14263,73.258884)" />
    <g
       style="fill:#000000;fill-opacity:0;stroke:#000000;stroke-width:-0.000393701;stroke-linecap:round;stroke-linejoin:round;stroke-opacity:1"
       id="g1063"
       transform="matrix(0.00254,0,0,0.00254,144.14263,73.258884)" />
    <g
       style="fill:#000000;fill-opacity:0;stroke:#000000;stroke-width:39.3701;stroke-linecap:round;stroke-linejoin:round;stroke-opacity:1"
       id="g1065"
       transform="matrix(0.00254,0,0,0.00254,144.14263,73.258884)" />
    <g
       style="fill:#000000;fill-opacity:0;stroke:#000000;stroke-width:39.3701;stroke-linecap:round;stroke-linejoin:round;stroke-opacity:1"
       id="g1071"
       transform="matrix(0.00254,0,0,0.00254,144.14263,73.258884)" />
    <g
       style="fill:#000000;fill-opacity:0;stroke:#000000;stroke-width:39.3701;stroke-linecap:round;stroke-linejoin:round;stroke-opacity:1"
       id="g1077"
       transform="matrix(0.00254,0,0,0.00254,144.14263,73.258884)" />
    <g
       style="fill:#000000;fill-opacity:0;stroke:#000000;stroke-width:39.3701;stroke-linecap:round;stroke-linejoin:round;stroke-opacity:1"
       id="g1083"
       transform="matrix(0.00254,0,0,0.00254,144.14263,73.258884)" />
    <g
       style="fill:#000000;fill-opacity:0;stroke:#000000;stroke-width:39.3701;stroke-linecap:round;stroke-linejoin:round;stroke-opacity:1"
       id="g1089"
       transform="matrix(0.00254,0,0,0.00254,144.14263,73.258884)" />
    <g
       style="fill:#000000;fill-opacity:0;stroke:#000000;stroke-width:39.3701;stroke-linecap:round;stroke-linejoin:round;stroke-opacity:1"
       id="g1095"
       transform="matrix(0.00254,0,0,0.00254,144.14263,73.258884)" />
    <g
       style="fill:#000000;fill-opacity:0;stroke:#000000;stroke-width:39.3701;stroke-linecap:round;stroke-linejoin:round;stroke-opacity:1"
       id="g1101"
       transform="matrix(0.00254,0,0,0.00254,144.14263,73.258884)" />
    <g
       style="fill:#000000;fill-opacity:0;stroke:#000000;stroke-width:39.3701;stroke-linecap:round;stroke-linejoin:round;stroke-opacity:1"
       id="g1107"
       transform="matrix(0.00254,0,0,0.00254,144.14263,73.258884)" />
    <g
       style="fill:#000000;fill-opacity:0;stroke:#000000;stroke-width:39.3701;stroke-linecap:round;stroke-linejoin:round;stroke-opacity:1"
       id="g1113"
       transform="matrix(0.00254,0,0,0.00254,144.14263,73.258884)" />
    <g
       style="fill:#000000;fill-opacity:0;stroke:#000000;stroke-width:39.3701;stroke-linecap:round;stroke-linejoin:round;stroke-opacity:1"
       id="g1119"
       transform="matrix(0.00254,0,0,0.00254,144.14263,73.258884)" />
    <g
       style="fill:#000000;fill-opacity:0;stroke:#000000;stroke-width:39.3701;stroke-linecap:round;stroke-linejoin:round;stroke-opacity:1"
       id="g1125"
       transform="matrix(0.00254,0,0,0.00254,144.14263,73.258884)" />
    <g
       style="fill:#000000;fill-opacity:0;stroke:#000000;stroke-width:39.3701;stroke-linecap:round;stroke-linejoin:round;stroke-opacity:1"
       id="g1135"
       transform="matrix(0.00254,0,0,0.00254,144.14263,73.258884)" />
    <g
       style="fill:#000000;fill-opacity:0;stroke:#000000;stroke-width:39.3701;stroke-linecap:round;stroke-linejoin:round;stroke-opacity:1"
       id="g1143"
       transform="matrix(0.00254,0,0,0.00254,144.14263,73.258884)" />
    <g
       style="fill:#000000;fill-opacity:0;stroke:#000000;stroke-width:39.3701;stroke-linecap:round;stroke-linejoin:round;stroke-opacity:1"
       id="g1151"
       transform="matrix(0.00254,0,0,0.00254,144.14263,73.258884)" />
    <g
       style="fill:#000000;fill-opacity:0;stroke:#000000;stroke-width:39.3701;stroke-linecap:round;stroke-linejoin:round;stroke-opacity:1"
       id="g1161"
       transform="matrix(0.00254,0,0,0.00254,144.14263,73.258884)" />
    <g
       style="fill:#000000;fill-opacity:0;stroke:#000000;stroke-width:39.3701;stroke-linecap:round;stroke-linejoin:round;stroke-opacity:1"
       id="g1169"
       transform="matrix(0.00254,0,0,0.00254,144.14263,73.258884)" />
    <g
       style="fill:#000000;fill-opacity:0;stroke:#000000;stroke-width:39.3701;stroke-linecap:round;stroke-linejoin:round;stroke-opacity:1"
       id="g1177"
       transform="matrix(0.00254,0,0,0.00254,144.14263,73.258884)" />
    <g
       style="fill:#000000;fill-opacity:0;stroke:#000000;stroke-width:39.3701;stroke-linecap:round;stroke-linejoin:round;stroke-opacity:1"
       id="g1185"
       transform="matrix(0.00254,0,0,0.00254,144.14263,73.258884)" />
    <g
       style="fill:#000000;fill-opacity:0;stroke:#000000;stroke-width:39.3701;stroke-linecap:round;stroke-linejoin:round;stroke-opacity:1"
       id="g1193"
       transform="matrix(0.00254,0,0,0.00254,144.14263,73.258884)" />
    <g
       style="fill:#000000;fill-opacity:0;stroke:#000000;stroke-width:39.3701;stroke-linecap:round;stroke-linejoin:round;stroke-opacity:1"
       id="g1199"
       transform="matrix(0.00254,0,0,0.00254,144.14263,73.258884)" />
    <g
       style="fill:#000000;fill-opacity:0;stroke:#000000;stroke-width:39.3701;stroke-linecap:round;stroke-linejoin:round;stroke-opacity:1"
       id="g1205"
       transform="matrix(0.00254,0,0,0.00254,144.14263,73.258884)" />
    <g
       style="fill:#000000;fill-opacity:0;stroke:#000000;stroke-width:39.3701;stroke-linecap:round;stroke-linejoin:round;stroke-opacity:1"
       id="g1211"
       transform="matrix(0.00254,0,0,0.00254,144.14263,73.258884)" />
    <g
       style="fill:#000000;fill-opacity:0;stroke:#000000;stroke-width:39.3701;stroke-linecap:round;stroke-linejoin:round;stroke-opacity:1"
       id="g1217"
       transform="matrix(0.00254,0,0,0.00254,144.14263,73.258884)" />
    <g
       style="fill:#000000;fill-opacity:0;stroke:#000000;stroke-width:39.3701;stroke-linecap:round;stroke-linejoin:round;stroke-opacity:1"
       id="g1223"
       transform="matrix(0.00254,0,0,0.00254,144.14263,73.258884)" />
    <g
       style="fill:#000000;fill-opacity:0;stroke:#000000;stroke-width:39.3701;stroke-linecap:round;stroke-linejoin:round;stroke-opacity:1"
       id="g1229"
       transform="matrix(0.00254,0,0,0.00254,144.14263,73.258884)" />
    <g
       style="fill:#000000;fill-opacity:0;stroke:#000000;stroke-width:39.3701;stroke-linecap:round;stroke-linejoin:round;stroke-opacity:1"
       id="g1235"
       transform="matrix(0.00254,0,0,0.00254,144.14263,73.258884)" />
    <g
       style="fill:#000000;fill-opacity:0;stroke:#000000;stroke-width:39.3701;stroke-linecap:round;stroke-linejoin:round;stroke-opacity:1"
       id="g1245"
       transform="matrix(0.00254,0,0,0.00254,144.14263,73.258884)" />
    <g
       style="fill:#000000;fill-opacity:0;stroke:#000000;stroke-width:39.3701;stroke-linecap:round;stroke-linejoin:round;stroke-opacity:1"
       id="g1253"
       transform="matrix(0.00254,0,0,0.00254,144.14263,73.258884)" />
    <g
       style="fill:#000000;fill-opacity:0;stroke:#000000;stroke-width:39.3701;stroke-linecap:round;stroke-linejoin:round;stroke-opacity:1"
       id="g1261"
       transform="matrix(0.00254,0,0,0.00254,144.14263,73.258884)" />
    <g
       style="fill:#000000;fill-opacity:0;stroke:#000000;stroke-width:39.3701;stroke-linecap:round;stroke-linejoin:round;stroke-opacity:1"
       id="g1271"
       transform="matrix(0.00254,0,0,0.00254,144.14263,73.258884)" />
    <g
       style="fill:#000000;fill-opacity:0;stroke:#000000;stroke-width:39.3701;stroke-linecap:round;stroke-linejoin:round;stroke-opacity:1"
       id="g1279"
       transform="matrix(0.00254,0,0,0.00254,144.14263,73.258884)" />
    <g
       style="fill:#000000;fill-opacity:0;stroke:#000000;stroke-width:39.3701;stroke-linecap:round;stroke-linejoin:round;stroke-opacity:1"
       id="g1287"
       transform="matrix(0.00254,0,0,0.00254,144.14263,73.258884)" />
    <g
       style="fill:#000000;fill-opacity:0;stroke:#000000;stroke-width:39.3701;stroke-linecap:round;stroke-linejoin:round;stroke-opacity:1"
       id="g1295"
       transform="matrix(0.00254,0,0,0.00254,144.14263,73.258884)" />
    <g
       style="fill:#000000;fill-opacity:0;stroke:#000000;stroke-width:39.3701;stroke-linecap:round;stroke-linejoin:round;stroke-opacity:1"
       id="g1303"
       transform="matrix(0.00254,0,0,0.00254,144.14263,73.258884)" />
    <g
       style="fill:#000000;fill-opacity:0;stroke:#000000;stroke-width:39.3701;stroke-linecap:round;stroke-linejoin:round;stroke-opacity:1"
       id="g1309"
       transform="matrix(0.00254,0,0,0.00254,144.14263,73.258884)" />
    <g
       style="fill:#000000;fill-opacity:0;stroke:#000000;stroke-width:39.3701;stroke-linecap:round;stroke-linejoin:round;stroke-opacity:1"
       id="g1315"
       transform="matrix(0.00254,0,0,0.00254,144.14263,73.258884)" />
    <g
       style="fill:#000000;fill-opacity:0;stroke:#000000;stroke-width:39.3701;stroke-linecap:round;stroke-linejoin:round;stroke-opacity:1"
       id="g1321"
       transform="matrix(0.00254,0,0,0.00254,144.14263,73.258884)" />
    <g
       style="fill:#000000;fill-opacity:0;stroke:#000000;stroke-width:39.3701;stroke-linecap:round;stroke-linejoin:round;stroke-opacity:1"
       id="g1327"
       transform="matrix(0.00254,0,0,0.00254,144.14263,73.258884)" />
    <g
       style="fill:#000000;fill-opacity:0;stroke:#000000;stroke-width:39.3701;stroke-linecap:round;stroke-linejoin:round;stroke-opacity:1"
       id="g1333"
       transform="matrix(0.00254,0,0,0.00254,144.14263,73.258884)" />
    <g
       style="fill:#000000;fill-opacity:0;stroke:#000000;stroke-width:39.3701;stroke-linecap:round;stroke-linejoin:round;stroke-opacity:1"
       id="g1343"
       transform="matrix(0.00254,0,0,0.00254,144.14263,73.258884)" />
    <g
       style="fill:#000000;fill-opacity:0;stroke:#000000;stroke-width:39.3701;stroke-linecap:round;stroke-linejoin:round;stroke-opacity:1"
       id="g1351"
       transform="matrix(0.00254,0,0,0.00254,144.14263,73.258884)" />
    <g
       style="fill:#000000;fill-opacity:0;stroke:#000000;stroke-width:39.3701;stroke-linecap:round;stroke-linejoin:round;stroke-opacity:1"
       id="g1359"
       transform="matrix(0.00254,0,0,0.00254,144.14263,73.258884)" />
    <g
       style="fill:#000000;fill-opacity:0;stroke:#000000;stroke-width:39.3701;stroke-linecap:round;stroke-linejoin:round;stroke-opacity:1"
       id="g1367"
       transform="matrix(0.00254,0,0,0.00254,144.14263,73.258884)" />
    <g
       style="fill:#000000;fill-opacity:0;stroke:#000000;stroke-width:39.3701;stroke-linecap:round;stroke-linejoin:round;stroke-opacity:1"
       id="g1377"
       transform="matrix(0.00254,0,0,0.00254,144.14263,73.258884)" />
    <g
       style="fill:#000000;fill-opacity:0;stroke:#000000;stroke-width:39.3701;stroke-linecap:round;stroke-linejoin:round;stroke-opacity:1"
       id="g1387"
       transform="matrix(0.00254,0,0,0.00254,144.14263,73.258884)" />
    <g
       style="fill:#000000;fill-opacity:0;stroke:#000000;stroke-width:39.3701;stroke-linecap:round;stroke-linejoin:round;stroke-opacity:1"
       id="g1393"
       transform="matrix(0.00254,0,0,0.00254,144.14263,73.258884)" />
    <g
       style="fill:#000000;fill-opacity:0;stroke:#000000;stroke-width:39.3701;stroke-linecap:round;stroke-linejoin:round;stroke-opacity:1"
       id="g1399"
       transform="matrix(0.00254,0,0,0.00254,144.14263,73.258884)" />
    <g
       style="fill:#000000;fill-opacity:0;stroke:#000000;stroke-width:39.3701;stroke-linecap:round;stroke-linejoin:round;stroke-opacity:1"
       id="g1405"
       transform="matrix(0.00254,0,0,0.00254,144.14263,73.258884)" />
    <g
       style="fill:#000000;fill-opacity:0;stroke:#000000;stroke-width:39.3701;stroke-linecap:round;stroke-linejoin:round;stroke-opacity:1"
       id="g1411"
       transform="matrix(0.00254,0,0,0.00254,144.14263,73.258884)" />
    <g
       style="fill:#000000;fill-opacity:0;stroke:#000000;stroke-width:39.3701;stroke-linecap:round;stroke-linejoin:round;stroke-opacity:1"
       id="g1417"
       transform="matrix(0.00254,0,0,0.00254,144.14263,73.258884)" />
    <g
       style="fill:#000000;fill-opacity:0;stroke:#000000;stroke-width:39.3701;stroke-linecap:round;stroke-linejoin:round;stroke-opacity:1"
       id="g1427"
       transform="matrix(0.00254,0,0,0.00254,144.14263,73.258884)" />
    <g
       style="fill:#000000;fill-opacity:0;stroke:#000000;stroke-width:39.3701;stroke-linecap:round;stroke-linejoin:round;stroke-opacity:1"
       id="g1435"
       transform="matrix(0.00254,0,0,0.00254,144.14263,73.258884)" />
    <g
       style="fill:#000000;fill-opacity:0;stroke:#000000;stroke-width:39.3701;stroke-linecap:round;stroke-linejoin:round;stroke-opacity:1"
       id="g1443"
       transform="matrix(0.00254,0,0,0.00254,144.14263,73.258884)" />
    <g
       style="fill:#000000;fill-opacity:0;stroke:#000000;stroke-width:39.3701;stroke-linecap:round;stroke-linejoin:round;stroke-opacity:1"
       id="g1451"
       transform="matrix(0.00254,0,0,0.00254,144.14263,73.258884)" />
    <g
       style="fill:#000000;fill-opacity:0;stroke:#000000;stroke-width:39.3701;stroke-linecap:round;stroke-linejoin:round;stroke-opacity:1"
       id="g1461"
       transform="matrix(0.00254,0,0,0.00254,144.14263,73.258884)" />
    <g
       style="fill:#000000;fill-opacity:0;stroke:#000000;stroke-width:39.3701;stroke-linecap:round;stroke-linejoin:round;stroke-opacity:1"
       id="g1471"
       transform="matrix(0.00254,0,0,0.00254,144.14263,73.258884)" />
    <g
       style="fill:#000000;fill-opacity:0;stroke:#000000;stroke-width:39.3701;stroke-linecap:round;stroke-linejoin:round;stroke-opacity:1"
       id="g1493"
       transform="matrix(0.00254,0,0,0.00254,144.14263,73.258884)" />
    <g
       style="fill:#000000;fill-opacity:0;stroke:#000000;stroke-width:39.3701;stroke-linecap:round;stroke-linejoin:round;stroke-opacity:1"
       id="g1499"
       transform="matrix(0.00254,0,0,0.00254,144.14263,73.258884)" />
    <g
       style="fill:#000000;fill-opacity:0;stroke:#000000;stroke-width:39.3701;stroke-linecap:round;stroke-linejoin:round;stroke-opacity:1"
       id="g1599"
       transform="matrix(0.00254,0,0,0.00254,144.14263,73.258884)" />
    <g
       style="fill:#000000;fill-opacity:0;stroke:#000000;stroke-width:39.3701;stroke-linecap:round;stroke-linejoin:round;stroke-opacity:1"
       id="g1605"
       transform="matrix(0.00254,0,0,0.00254,144.14263,73.258884)" />
    <g
       style="fill:#000000;fill-opacity:0;stroke:#000000;stroke-width:39.3701;stroke-linecap:round;stroke-linejoin:round;stroke-opacity:1"
       id="g1623"
       transform="matrix(0.00254,0,0,0.00254,144.14263,73.258884)" />
    <g
       style="fill:#000000;fill-opacity:0;stroke:#000000;stroke-width:39.3701;stroke-linecap:round;stroke-linejoin:round;stroke-opacity:1"
       id="g1649"
       transform="matrix(0.00254,0,0,0.00254,144.14263,73.258884)" />
    <g
       style="fill:#000000;fill-opacity:0;stroke:#000000;stroke-width:39.3701;stroke-linecap:round;stroke-linejoin:round;stroke-opacity:1"
       id="g1675"
       transform="matrix(0.00254,0,0,0.00254,144.14263,73.258884)" />
    <g
       style="fill:#000000;fill-opacity:0;stroke:#000000;stroke-width:39.3701;stroke-linecap:round;stroke-linejoin:round;stroke-opacity:1"
       id="g1681"
       transform="matrix(0.00254,0,0,0.00254,144.14263,73.258884)" />
    <g
       style="fill:#000000;fill-opacity:0;stroke:#000000;stroke-width:39.3701;stroke-linecap:round;stroke-linejoin:round;stroke-opacity:1"
       id="g1707"
       transform="matrix(0.00254,0,0,0.00254,144.14263,73.258884)" />
    <g
       style="fill:#000000;fill-opacity:0;stroke:#000000;stroke-width:39.3701;stroke-linecap:round;stroke-linejoin:round;stroke-opacity:1"
       id="g1777"
       transform="matrix(0.00254,0,0,0.00254,144.14263,73.258884)" />
    <g
       style="fill:#000000;fill-opacity:0;stroke:#000000;stroke-width:39.3701;stroke-linecap:round;stroke-linejoin:round;stroke-opacity:1"
       id="g1783"
       transform="matrix(0.00254,0,0,0.00254,144.14263,73.258884)" />
    <g
       style="fill:#000000;fill-opacity:0;stroke:#000000;stroke-width:39.3701;stroke-linecap:round;stroke-linejoin:round;stroke-opacity:1"
       id="g1807"
       transform="matrix(0.00254,0,0,0.00254,144.14263,73.258884)" />
    <g
       style="fill:#000000;fill-opacity:0;stroke:#000000;stroke-width:39.3701;stroke-linecap:round;stroke-linejoin:round;stroke-opacity:1"
       id="g1813"
       transform="matrix(0.00254,0,0,0.00254,144.14263,73.258884)" />
    <g
       style="fill:#c23e04;fill-opacity:0;stroke:#c23e04;stroke-width:59.0551;stroke-linecap:round;stroke-linejoin:round;stroke-opacity:1"
       id="g2019"
       transform="matrix(0.00254,0,0,0.00254,-30.663084,-47.803973)">
      <path
         d="M 41964,30649 H 36456"
         id="path1819" />
      <path
         d="m 53334,38149 v 5512"
         id="path1821" />
      <path
         d="m 42409,27145 1591,-909"
         id="path1823" />
      <path
         d="M 65535,30177 V 53149"
         id="path1825" />
      <path
         d="m 57082,45649 v 5512"
         id="path1827" />
      <path
         d="M 56968,36161 V 30649"
         id="path1829" />
      <path
         d="m 19551.2,26240.2 a 3047.28,3047.28 0 0 0 -3047.3,3047.2"
         id="path1831" />
      <circle
         cx="35181.102"
         cy="61007.898"
         r="433.07101"
         id="circle1833" />
      <path
         d="m 34582,51161 h 5508"
         id="path1835" />
      <path
         d="m 49582,51161 h 5508"
         id="path1837" />
      <path
         d="m 36456,30649 v 5512"
         id="path1839" />
      <path
         d="m 36456,36161 h 5508"
         id="path1841" />
      <path
         d="M 55090,45649 H 49582"
         id="path1843" />
      <path
         d="M 55090,51161 V 45649"
         id="path1845" />
      <path
         d="M 57905,53149 H 52397"
         id="path1847" />
      <path
         d="M 62590,45649 H 57082"
         id="path1849" />
      <path
         d="M 26964,30649 H 21456"
         id="path1851" />
      <path
         d="M 62590,51161 V 45649"
         id="path1853" />
      <path
         d="m 43960,36161 h 5508"
         id="path1855" />
      <path
         d="M 58842,38149 H 53334"
         id="path1857" />
      <path
         d="M 51342,38149 H 45834"
         id="path1859" />
      <path
         d="M 49468,30649 H 43960"
         id="path1861" />
      <path
         d="M 40090,51161 V 45649"
         id="path1863" />
      <path
         d="M 32590,58661 V 53149"
         id="path1865" />
      <path
         d="m 40940,24704 1469,2441"
         id="path1867" />
      <path
         d="m 42082,45649 v 5512"
         id="path1869" />
      <path
         d="m 38334,43661 h 5508"
         id="path1871" />
      <path
         d="M 40090,53149 H 34582"
         id="path1873" />
      <path
         d="m 21456,36161 h 5508"
         id="path1875" />
      <path
         d="M 27905,43661 V 38149"
         id="path1877" />
      <path
         d="m 22397,38149 v 5512"
         id="path1879" />
      <path
         d="M 29779,45649 H 24271"
         id="path1881" />
      <path
         d="m 16503.9,60023.6 a 3047.28,3047.28 0 0 0 3047.3,3047.3"
         id="path1883" />
      <path
         d="M 36342,43661 V 38149"
         id="path1885" />
      <path
         d="m 27082,58661 h 5508"
         id="path1887" />
      <path
         d="m 42082,53149 v 5512"
         id="path1889" />
      <path
         d="M 47590,58661 V 53149"
         id="path1891" />
      <path
         d="m 40940,24704 -397,-685"
         id="path1893" />
      <path
         d="m 42082,58661 h 5508"
         id="path1895" />
      <circle
         cx="45712.602"
         cy="61007.898"
         r="433.07101"
         id="circle1897" />
      <path
         d="M 65535,63070 V 58397"
         id="path1899" />
      <circle
         cx="18724.4"
         cy="38342.5"
         r="433.07101"
         id="circle1901" />
      <path
         d="m 52397,58661 h 5508"
         id="path1903" />
      <path
         d="M 34468,30649 H 28960"
         id="path1905" />
      <path
         d="M 49468,36161 V 30649"
         id="path1907" />
      <path
         d="M 56968,30649 H 51460"
         id="path1909" />
      <path
         d="m 43960,30649 v 5512"
         id="path1911" />
      <path
         d="m 51460,36161 h 5508"
         id="path1913" />
      <path
         d="m 51460,30649 v 5512"
         id="path1915" />
      <path
         d="m 30834,43661 h 5508"
         id="path1917" />
      <circle
         cx="18724.4"
         cy="61007.898"
         r="433.07101"
         id="circle1919" />
      <circle
         cx="18724.4"
         cy="28110.199"
         r="433.07101"
         id="circle1921" />
      <path
         d="m 52397,53149 v 5512"
         id="path1923" />
      <path
         d="M 29779,51161 V 45649"
         id="path1925" />
      <path
         d="m 24271,51161 h 5508"
         id="path1927" />
      <path
         d="m 34582,53149 v 5512"
         id="path1929" />
      <path
         d="M 40090,58661 V 53149"
         id="path1931" />
      <path
         d="M 36342,38149 H 30834"
         id="path1933" />
      <path
         d="M 27905,38149 H 22397"
         id="path1935" />
      <path
         d="m 30834,38149 v 5512"
         id="path1937" />
      <path
         d="M 26964,36161 V 30649"
         id="path1939" />
      <path
         d="m 21456,30649 v 5512"
         id="path1941" />
      <path
         d="m 65535,53149 v 5248"
         id="path1943" />
      <circle
         cx="63590.602"
         cy="61007.898"
         r="433.07101"
         id="circle1945" />
      <circle
         cx="45712.602"
         cy="28110.199"
         r="433.07101"
         id="circle1947" />
      <path
         d="m 57082,51161 h 5508"
         id="path1949" />
      <path
         d="M 32590,53149 H 27082"
         id="path1951" />
      <path
         d="m 42082,51161 h 5508"
         id="path1953" />
      <path
         d="m 34582,58661 h 5508"
         id="path1955" />
      <path
         d="M 57905,58661 V 53149"
         id="path1957" />
      <path
         d="m 22397,43661 h 5508"
         id="path1959" />
      <path
         d="M 41964,36161 V 30649"
         id="path1961" />
      <path
         d="M 47590,45649 H 42082"
         id="path1963" />
      <path
         d="M 47590,51161 V 45649"
         id="path1965" />
      <path
         d="m 34582,45649 v 5512"
         id="path1967" />
      <path
         d="m 24271,45649 v 5512"
         id="path1969" />
      <path
         d="m 27082,53149 v 5512"
         id="path1971" />
      <circle
         cx="35181.102"
         cy="26267.699"
         r="433.07101"
         id="circle1973" />
      <path
         d="M 65535,63070 H 19551"
         id="path1975" />
      <path
         d="m 49582,45649 v 5512"
         id="path1977" />
      <path
         d="M 58842,43661 V 38149"
         id="path1979" />
      <path
         d="m 53334,43661 h 5508"
         id="path1981" />
      <path
         d="M 40090,45649 H 34582"
         id="path1983" />
      <path
         d="m 65535,26236 v 3941"
         id="path1985" />
      <path
         d="m 45834,43661 h 5508"
         id="path1987" />
      <path
         d="M 43842,38149 H 38334"
         id="path1989" />
      <path
         d="m 38334,38149 v 5512"
         id="path1991" />
      <circle
         cx="63590.602"
         cy="28110.199"
         r="433.07101"
         id="circle1993" />
      <path
         d="M 43842,43661 V 38149"
         id="path1995" />
      <circle
         cx="63590.602"
         cy="38342.5"
         r="433.07101"
         id="circle1997" />
      <path
         d="M 44000,26236 H 65535"
         id="path1999" />
      <path
         d="m 45834,38149 v 5512"
         id="path2001" />
      <path
         d="M 47590,53149 H 42082"
         id="path2003" />
      <path
         d="M 40543,24019 19551,26240"
         id="path2005" />
      <path
         d="M 51342,43661 V 38149"
         id="path2007" />
      <path
         d="M 34468,36161 V 30649"
         id="path2009" />
      <path
         d="m 28960,30649 v 5512"
         id="path2011" />
      <path
         d="m 28960,36161 h 5508"
         id="path2013" />
      <path
         d="M 16503,60023 V 29287"
         id="path2015" />
      <g
         id="g2017" />
    </g>
    <g
       style="fill:#000000;fill-opacity:1;stroke:#000000;stroke-linecap:round;stroke-linejoin:round;stroke-opacity:1"
       id="g5107"
       transform="matrix(0.00254,0,0,0.00254,315.58429,153.65749)" />
    <g
       style="fill:#000000;fill-opacity:0;stroke:#000000;stroke-width:-0.000393701;stroke-linecap:round;stroke-linejoin:round;stroke-opacity:1"
       id="g5109"
       transform="matrix(0.00254,0,0,0.00254,315.58429,153.65749)" />
    <g
       style="fill:#000000;fill-opacity:0;stroke:#000000;stroke-width:39.3701;stroke-linecap:round;stroke-linejoin:round;stroke-opacity:1"
       id="g5111"
       transform="matrix(0.00254,0,0,0.00254,315.58429,153.65749)" />
    <g
       style="fill:#000000;fill-opacity:0;stroke:#000000;stroke-width:39.3701;stroke-linecap:round;stroke-linejoin:round;stroke-opacity:1"
       id="g5117"
       transform="matrix(0.00254,0,0,0.00254,315.58429,153.65749)" />
    <g
       style="fill:#000000;fill-opacity:0;stroke:#000000;stroke-width:39.3701;stroke-linecap:round;stroke-linejoin:round;stroke-opacity:1"
       id="g5123"
       transform="matrix(0.00254,0,0,0.00254,315.58429,153.65749)" />
    <g
       style="fill:#000000;fill-opacity:0;stroke:#000000;stroke-width:39.3701;stroke-linecap:round;stroke-linejoin:round;stroke-opacity:1"
       id="g5129"
       transform="matrix(0.00254,0,0,0.00254,315.58429,153.65749)" />
    <g
       style="fill:#000000;fill-opacity:0;stroke:#000000;stroke-width:39.3701;stroke-linecap:round;stroke-linejoin:round;stroke-opacity:1"
       id="g5135"
       transform="matrix(0.00254,0,0,0.00254,315.58429,153.65749)" />
    <g
       style="fill:#000000;fill-opacity:0;stroke:#000000;stroke-width:39.3701;stroke-linecap:round;stroke-linejoin:round;stroke-opacity:1"
       id="g5141"
       transform="matrix(0.00254,0,0,0.00254,315.58429,153.65749)" />
    <g
       style="fill:#000000;fill-opacity:0;stroke:#000000;stroke-width:39.3701;stroke-linecap:round;stroke-linejoin:round;stroke-opacity:1"
       id="g5147"
       transform="matrix(0.00254,0,0,0.00254,315.58429,153.65749)" />
    <g
       style="fill:#000000;fill-opacity:0;stroke:#000000;stroke-width:39.3701;stroke-linecap:round;stroke-linejoin:round;stroke-opacity:1"
       id="g5153"
       transform="matrix(0.00254,0,0,0.00254,315.58429,153.65749)" />
    <g
       style="fill:#000000;fill-opacity:0;stroke:#000000;stroke-width:39.3701;stroke-linecap:round;stroke-linejoin:round;stroke-opacity:1"
       id="g5159"
       transform="matrix(0.00254,0,0,0.00254,315.58429,153.65749)" />
    <g
       style="fill:#000000;fill-opacity:0;stroke:#000000;stroke-width:39.3701;stroke-linecap:round;stroke-linejoin:round;stroke-opacity:1"
       id="g5165"
       transform="matrix(0.00254,0,0,0.00254,315.58429,153.65749)" />
    <g
       style="fill:#000000;fill-opacity:0;stroke:#000000;stroke-width:39.3701;stroke-linecap:round;stroke-linejoin:round;stroke-opacity:1"
       id="g5171"
       transform="matrix(0.00254,0,0,0.00254,315.58429,153.65749)" />
    <g
       style="fill:#000000;fill-opacity:0;stroke:#000000;stroke-width:39.3701;stroke-linecap:round;stroke-linejoin:round;stroke-opacity:1"
       id="g5181"
       transform="matrix(0.00254,0,0,0.00254,315.58429,153.65749)" />
    <g
       style="fill:#000000;fill-opacity:0;stroke:#000000;stroke-width:39.3701;stroke-linecap:round;stroke-linejoin:round;stroke-opacity:1"
       id="g5189"
       transform="matrix(0.00254,0,0,0.00254,315.58429,153.65749)" />
    <g
       style="fill:#000000;fill-opacity:0;stroke:#000000;stroke-width:39.3701;stroke-linecap:round;stroke-linejoin:round;stroke-opacity:1"
       id="g5197"
       transform="matrix(0.00254,0,0,0.00254,315.58429,153.65749)" />
    <g
       style="fill:#000000;fill-opacity:0;stroke:#000000;stroke-width:39.3701;stroke-linecap:round;stroke-linejoin:round;stroke-opacity:1"
       id="g5207"
       transform="matrix(0.00254,0,0,0.00254,315.58429,153.65749)" />
    <g
       style="fill:#000000;fill-opacity:0;stroke:#000000;stroke-width:39.3701;stroke-linecap:round;stroke-linejoin:round;stroke-opacity:1"
       id="g5215"
       transform="matrix(0.00254,0,0,0.00254,315.58429,153.65749)" />
    <g
       style="fill:#000000;fill-opacity:0;stroke:#000000;stroke-width:39.3701;stroke-linecap:round;stroke-linejoin:round;stroke-opacity:1"
       id="g5223"
       transform="matrix(0.00254,0,0,0.00254,315.58429,153.65749)" />
    <g
       style="fill:#000000;fill-opacity:0;stroke:#000000;stroke-width:39.3701;stroke-linecap:round;stroke-linejoin:round;stroke-opacity:1"
       id="g5231"
       transform="matrix(0.00254,0,0,0.00254,315.58429,153.65749)" />
    <g
       style="fill:#000000;fill-opacity:0;stroke:#000000;stroke-width:39.3701;stroke-linecap:round;stroke-linejoin:round;stroke-opacity:1"
       id="g5239"
       transform="matrix(0.00254,0,0,0.00254,315.58429,153.65749)" />
    <g
       style="fill:#000000;fill-opacity:0;stroke:#000000;stroke-width:39.3701;stroke-linecap:round;stroke-linejoin:round;stroke-opacity:1"
       id="g5245"
       transform="matrix(0.00254,0,0,0.00254,315.58429,153.65749)" />
    <g
       style="fill:#000000;fill-opacity:0;stroke:#000000;stroke-width:39.3701;stroke-linecap:round;stroke-linejoin:round;stroke-opacity:1"
       id="g5251"
       transform="matrix(0.00254,0,0,0.00254,315.58429,153.65749)" />
    <g
       style="fill:#000000;fill-opacity:0;stroke:#000000;stroke-width:39.3701;stroke-linecap:round;stroke-linejoin:round;stroke-opacity:1"
       id="g5257"
       transform="matrix(0.00254,0,0,0.00254,315.58429,153.65749)" />
    <g
       style="fill:#000000;fill-opacity:0;stroke:#000000;stroke-width:39.3701;stroke-linecap:round;stroke-linejoin:round;stroke-opacity:1"
       id="g5263"
       transform="matrix(0.00254,0,0,0.00254,315.58429,153.65749)" />
    <g
       style="fill:#000000;fill-opacity:0;stroke:#000000;stroke-width:39.3701;stroke-linecap:round;stroke-linejoin:round;stroke-opacity:1"
       id="g5269"
       transform="matrix(0.00254,0,0,0.00254,315.58429,153.65749)" />
    <g
       style="fill:#000000;fill-opacity:0;stroke:#000000;stroke-width:39.3701;stroke-linecap:round;stroke-linejoin:round;stroke-opacity:1"
       id="g5275"
       transform="matrix(0.00254,0,0,0.00254,315.58429,153.65749)" />
    <g
       style="fill:#000000;fill-opacity:0;stroke:#000000;stroke-width:39.3701;stroke-linecap:round;stroke-linejoin:round;stroke-opacity:1"
       id="g5281"
       transform="matrix(0.00254,0,0,0.00254,315.58429,153.65749)" />
    <g
       style="fill:#000000;fill-opacity:0;stroke:#000000;stroke-width:39.3701;stroke-linecap:round;stroke-linejoin:round;stroke-opacity:1"
       id="g5291"
       transform="matrix(0.00254,0,0,0.00254,315.58429,153.65749)" />
    <g
       style="fill:#000000;fill-opacity:0;stroke:#000000;stroke-width:39.3701;stroke-linecap:round;stroke-linejoin:round;stroke-opacity:1"
       id="g5299"
       transform="matrix(0.00254,0,0,0.00254,315.58429,153.65749)" />
    <g
       style="fill:#000000;fill-opacity:0;stroke:#000000;stroke-width:39.3701;stroke-linecap:round;stroke-linejoin:round;stroke-opacity:1"
       id="g5307"
       transform="matrix(0.00254,0,0,0.00254,315.58429,153.65749)" />
    <g
       style="fill:#000000;fill-opacity:0;stroke:#000000;stroke-width:39.3701;stroke-linecap:round;stroke-linejoin:round;stroke-opacity:1"
       id="g5317"
       transform="matrix(0.00254,0,0,0.00254,315.58429,153.65749)" />
    <g
       style="fill:#000000;fill-opacity:0;stroke:#000000;stroke-width:39.3701;stroke-linecap:round;stroke-linejoin:round;stroke-opacity:1"
       id="g5325"
       transform="matrix(0.00254,0,0,0.00254,315.58429,153.65749)" />
    <g
       style="fill:#000000;fill-opacity:0;stroke:#000000;stroke-width:39.3701;stroke-linecap:round;stroke-linejoin:round;stroke-opacity:1"
       id="g5333"
       transform="matrix(0.00254,0,0,0.00254,315.58429,153.65749)" />
    <g
       style="fill:#000000;fill-opacity:0;stroke:#000000;stroke-width:39.3701;stroke-linecap:round;stroke-linejoin:round;stroke-opacity:1"
       id="g5341"
       transform="matrix(0.00254,0,0,0.00254,315.58429,153.65749)" />
    <g
       style="fill:#000000;fill-opacity:0;stroke:#000000;stroke-width:39.3701;stroke-linecap:round;stroke-linejoin:round;stroke-opacity:1"
       id="g5349"
       transform="matrix(0.00254,0,0,0.00254,315.58429,153.65749)" />
    <g
       style="fill:#000000;fill-opacity:0;stroke:#000000;stroke-width:39.3701;stroke-linecap:round;stroke-linejoin:round;stroke-opacity:1"
       id="g5355"
       transform="matrix(0.00254,0,0,0.00254,315.58429,153.65749)" />
    <g
       style="fill:#000000;fill-opacity:0;stroke:#000000;stroke-width:39.3701;stroke-linecap:round;stroke-linejoin:round;stroke-opacity:1"
       id="g5361"
       transform="matrix(0.00254,0,0,0.00254,315.58429,153.65749)" />
    <g
       style="fill:#000000;fill-opacity:0;stroke:#000000;stroke-width:39.3701;stroke-linecap:round;stroke-linejoin:round;stroke-opacity:1"
       id="g5367"
       transform="matrix(0.00254,0,0,0.00254,315.58429,153.65749)" />
    <g
       style="fill:#000000;fill-opacity:0;stroke:#000000;stroke-width:39.3701;stroke-linecap:round;stroke-linejoin:round;stroke-opacity:1"
       id="g5373"
       transform="matrix(0.00254,0,0,0.00254,315.58429,153.65749)" />
    <g
       style="fill:#000000;fill-opacity:0;stroke:#000000;stroke-width:39.3701;stroke-linecap:round;stroke-linejoin:round;stroke-opacity:1"
       id="g5379"
       transform="matrix(0.00254,0,0,0.00254,315.58429,153.65749)" />
    <g
       style="fill:#000000;fill-opacity:0;stroke:#000000;stroke-width:39.3701;stroke-linecap:round;stroke-linejoin:round;stroke-opacity:1"
       id="g5389"
       transform="matrix(0.00254,0,0,0.00254,315.58429,153.65749)" />
    <g
       style="fill:#000000;fill-opacity:0;stroke:#000000;stroke-width:39.3701;stroke-linecap:round;stroke-linejoin:round;stroke-opacity:1"
       id="g5397"
       transform="matrix(0.00254,0,0,0.00254,315.58429,153.65749)" />
    <g
       style="fill:#000000;fill-opacity:0;stroke:#000000;stroke-width:39.3701;stroke-linecap:round;stroke-linejoin:round;stroke-opacity:1"
       id="g5405"
       transform="matrix(0.00254,0,0,0.00254,315.58429,153.65749)" />
    <g
       style="fill:#000000;fill-opacity:0;stroke:#000000;stroke-width:39.3701;stroke-linecap:round;stroke-linejoin:round;stroke-opacity:1"
       id="g5413"
       transform="matrix(0.00254,0,0,0.00254,315.58429,153.65749)" />
    <g
       style="fill:#000000;fill-opacity:0;stroke:#000000;stroke-width:39.3701;stroke-linecap:round;stroke-linejoin:round;stroke-opacity:1"
       id="g5423"
       transform="matrix(0.00254,0,0,0.00254,315.58429,153.65749)" />
    <g
       style="fill:#000000;fill-opacity:0;stroke:#000000;stroke-width:39.3701;stroke-linecap:round;stroke-linejoin:round;stroke-opacity:1"
       id="g5433"
       transform="matrix(0.00254,0,0,0.00254,315.58429,153.65749)" />
    <g
       style="fill:#000000;fill-opacity:0;stroke:#000000;stroke-width:39.3701;stroke-linecap:round;stroke-linejoin:round;stroke-opacity:1"
       id="g5439"
       transform="matrix(0.00254,0,0,0.00254,315.58429,153.65749)" />
    <g
       style="fill:#000000;fill-opacity:0;stroke:#000000;stroke-width:39.3701;stroke-linecap:round;stroke-linejoin:round;stroke-opacity:1"
       id="g5445"
       transform="matrix(0.00254,0,0,0.00254,315.58429,153.65749)" />
    <g
       style="fill:#000000;fill-opacity:0;stroke:#000000;stroke-width:39.3701;stroke-linecap:round;stroke-linejoin:round;stroke-opacity:1"
       id="g5451"
       transform="matrix(0.00254,0,0,0.00254,315.58429,153.65749)" />
    <g
       style="fill:#000000;fill-opacity:0;stroke:#000000;stroke-width:39.3701;stroke-linecap:round;stroke-linejoin:round;stroke-opacity:1"
       id="g5457"
       transform="matrix(0.00254,0,0,0.00254,315.58429,153.65749)" />
    <g
       style="fill:#000000;fill-opacity:0;stroke:#000000;stroke-width:39.3701;stroke-linecap:round;stroke-linejoin:round;stroke-opacity:1"
       id="g5463"
       transform="matrix(0.00254,0,0,0.00254,315.58429,153.65749)" />
    <g
       style="fill:#000000;fill-opacity:0;stroke:#000000;stroke-width:39.3701;stroke-linecap:round;stroke-linejoin:round;stroke-opacity:1"
       id="g5473"
       transform="matrix(0.00254,0,0,0.00254,315.58429,153.65749)" />
    <g
       style="fill:#000000;fill-opacity:0;stroke:#000000;stroke-width:39.3701;stroke-linecap:round;stroke-linejoin:round;stroke-opacity:1"
       id="g5481"
       transform="matrix(0.00254,0,0,0.00254,315.58429,153.65749)" />
    <g
       style="fill:#000000;fill-opacity:0;stroke:#000000;stroke-width:39.3701;stroke-linecap:round;stroke-linejoin:round;stroke-opacity:1"
       id="g5489"
       transform="matrix(0.00254,0,0,0.00254,315.58429,153.65749)" />
    <g
       style="fill:#000000;fill-opacity:0;stroke:#000000;stroke-width:39.3701;stroke-linecap:round;stroke-linejoin:round;stroke-opacity:1"
       id="g5497"
       transform="matrix(0.00254,0,0,0.00254,315.58429,153.65749)" />
    <g
       style="fill:#000000;fill-opacity:0;stroke:#000000;stroke-width:39.3701;stroke-linecap:round;stroke-linejoin:round;stroke-opacity:1"
       id="g5507"
       transform="matrix(0.00254,0,0,0.00254,315.58429,153.65749)" />
    <g
       style="fill:#000000;fill-opacity:0;stroke:#000000;stroke-width:39.3701;stroke-linecap:round;stroke-linejoin:round;stroke-opacity:1"
       id="g5517"
       transform="matrix(0.00254,0,0,0.00254,315.58429,153.65749)" />
    <g
       style="fill:#000000;fill-opacity:0;stroke:#000000;stroke-width:39.3701;stroke-linecap:round;stroke-linejoin:round;stroke-opacity:1"
       id="g5539"
       transform="matrix(0.00254,0,0,0.00254,315.58429,153.65749)" />
    <g
       style="fill:#000000;fill-opacity:0;stroke:#000000;stroke-width:39.3701;stroke-linecap:round;stroke-linejoin:round;stroke-opacity:1"
       id="g5545"
       transform="matrix(0.00254,0,0,0.00254,315.58429,153.65749)" />
    <g
       style="fill:#000000;fill-opacity:0;stroke:#000000;stroke-width:39.3701;stroke-linecap:round;stroke-linejoin:round;stroke-opacity:1"
       id="g5645"
       transform="matrix(0.00254,0,0,0.00254,315.58429,153.65749)" />
    <g
       style="fill:#000000;fill-opacity:0;stroke:#000000;stroke-width:39.3701;stroke-linecap:round;stroke-linejoin:round;stroke-opacity:1"
       id="g5651"
       transform="matrix(0.00254,0,0,0.00254,315.58429,153.65749)" />
    <g
       style="fill:#000000;fill-opacity:0;stroke:#000000;stroke-width:39.3701;stroke-linecap:round;stroke-linejoin:round;stroke-opacity:1"
       id="g5669"
       transform="matrix(0.00254,0,0,0.00254,315.58429,153.65749)" />
    <g
       style="fill:#000000;fill-opacity:0;stroke:#000000;stroke-width:39.3701;stroke-linecap:round;stroke-linejoin:round;stroke-opacity:1"
       id="g5695"
       transform="matrix(0.00254,0,0,0.00254,315.58429,153.65749)" />
    <g
       style="fill:#000000;fill-opacity:0;stroke:#000000;stroke-width:39.3701;stroke-linecap:round;stroke-linejoin:round;stroke-opacity:1"
       id="g5721"
       transform="matrix(0.00254,0,0,0.00254,315.58429,153.65749)" />
    <g
       style="fill:#000000;fill-opacity:0;stroke:#000000;stroke-width:39.3701;stroke-linecap:round;stroke-linejoin:round;stroke-opacity:1"
       id="g5727"
       transform="matrix(0.00254,0,0,0.00254,315.58429,153.65749)" />
    <g
       style="fill:#000000;fill-opacity:0;stroke:#000000;stroke-width:39.3701;stroke-linecap:round;stroke-linejoin:round;stroke-opacity:1"
       id="g5753"
       transform="matrix(0.00254,0,0,0.00254,315.58429,153.65749)" />
    <g
       style="fill:#000000;fill-opacity:0;stroke:#000000;stroke-width:39.3701;stroke-linecap:round;stroke-linejoin:round;stroke-opacity:1"
       id="g5823"
       transform="matrix(0.00254,0,0,0.00254,315.58429,153.65749)" />
    <g
       style="fill:#000000;fill-opacity:0;stroke:#000000;stroke-width:39.3701;stroke-linecap:round;stroke-linejoin:round;stroke-opacity:1"
       id="g5829"
       transform="matrix(0.00254,0,0,0.00254,315.58429,153.65749)" />
    <g
       style="fill:#000000;fill-opacity:0;stroke:#000000;stroke-width:39.3701;stroke-linecap:round;stroke-linejoin:round;stroke-opacity:1"
       id="g5853"
       transform="matrix(0.00254,0,0,0.00254,315.58429,153.65749)" />
    <g
       style="fill:#000000;fill-opacity:0;stroke:#000000;stroke-width:39.3701;stroke-linecap:round;stroke-linejoin:round;stroke-opacity:1"
       id="g5859"
       transform="matrix(0.00254,0,0,0.00254,315.58429,153.65749)" />
    <g
       style="fill:#c23e04;fill-opacity:0;stroke:#c23e04;stroke-width:59.0551;stroke-linecap:round;stroke-linejoin:round;stroke-opacity:1"
       id="g6047"
       transform="matrix(0.00254,0,0,0.00254,-14.132748,-46.437609)">
      <path
         d="m 108898,63078.7 a 3047.28,3047.28 0 0 0 3047,-3047.2"
         id="path5865" />
      <path
         d="m 100566,36169 h 5508"
         id="path5867" />
      <path
         d="m 100566,30657 v 5512"
         id="path5869" />
      <circle
         cx="109291"
         cy="38185"
         r="433.07101"
         id="circle5871" />
      <path
         d="M 80763,45657 H 75255"
         id="path5873" />
      <path
         d="M 80763,51169 V 45657"
         id="path5875" />
      <path
         d="m 71507,38157 v 5512"
         id="path5877" />
      <path
         d="M 77015,43669 V 38157"
         id="path5879" />
      <path
         d="M 100452,53157 H 94944"
         id="path5881" />
      <path
         d="m 99633,51169 h 5508"
         id="path5883" />
      <path
         d="m 101503,43669 h 5508"
         id="path5885" />
      <path
         d="m 101503,38157 v 5512"
         id="path5887" />
      <path
         d="m 71507,43669 h 5508"
         id="path5889" />
      <path
         d="M 75137,36169 V 30657"
         id="path5891" />
      <path
         d="m 69629,36169 h 5508"
         id="path5893" />
      <path
         d="M 97637,30657 H 92129"
         id="path5895" />
      <path
         d="M 99515,43669 V 38157"
         id="path5897" />
      <path
         d="M 99515,38157 H 94007"
         id="path5899" />
      <path
         d="m 92129,36169 h 5508"
         id="path5901" />
      <path
         d="M 84515,43669 V 38157"
         id="path5903" />
      <path
         d="M 66657,30173 V 26248"
         id="path5905" />
      <circle
         cx="92980.297"
         cy="26275.6"
         r="433.07101"
         id="circle5907" />
      <path
         d="M 111945,29295.3 A 3047.28,3047.28 0 0 0 108898,26248"
         id="path5909" />
      <path
         d="M 90137,30657 H 84629"
         id="path5911" />
      <path
         d="m 84629,36169 h 5508"
         id="path5913" />
      <circle
         cx="81255.898"
         cy="28118.1"
         r="433.07101"
         id="circle5915" />
      <path
         d="m 92129,30657 v 5512"
         id="path5917" />
      <path
         d="m 94007,43669 h 5508"
         id="path5919" />
      <path
         d="m 94007,38157 v 5512"
         id="path5921" />
      <path
         d="M 77015,38157 H 71507"
         id="path5923" />
      <path
         d="M 100452,58669 V 53157"
         id="path5925" />
      <path
         d="m 94944,53157 v 5512"
         id="path5927" />
      <path
         d="M 95763,51169 V 45657"
         id="path5929" />
      <path
         d="M 95763,45657 H 90255"
         id="path5931" />
      <path
         d="M 84515,38157 H 79007"
         id="path5933" />
      <path
         d="m 69629,30657 v 5512"
         id="path5935" />
      <path
         d="m 79007,43669 h 5508"
         id="path5937" />
      <circle
         cx="68437"
         cy="38350.398"
         r="433.07101"
         id="circle5939" />
      <path
         d="m 73381,53157 v 5512"
         id="path5941" />
      <path
         d="M 75137,30657 H 69629"
         id="path5943" />
      <path
         d="m 86507,43669 h 5508"
         id="path5945" />
      <path
         d="M 66661,63078 V 58397"
         id="path5947" />
      <circle
         cx="109291"
         cy="28118.1"
         r="433.07101"
         id="circle5949" />
      <path
         d="m 84066,27192 1910,-3220"
         id="path5951" />
      <path
         d="m 82755,45657 v 5512"
         id="path5953" />
      <circle
         cx="68437"
         cy="61015.699"
         r="433.07101"
         id="circle5955" />
      <path
         d="M 66661,58397 V 53181"
         id="path5957" />
      <path
         d="m 90255,51169 h 5508"
         id="path5959" />
      <path
         d="m 94944,58669 h 5508"
         id="path5961" />
      <path
         d="M 92015,43669 V 38157"
         id="path5963" />
      <path
         d="m 75255,45657 v 5512"
         id="path5965" />
      <path
         d="m 86507,38157 v 5512"
         id="path5967" />
      <path
         d="m 66661,53181 -4,-23008"
         id="path5969" />
      <circle
         cx="68437"
         cy="28118.1"
         r="433.07101"
         id="circle5971" />
      <path
         d="M 108897,63078 H 66661"
         id="path5973" />
      <path
         d="M 105141,45657 H 99633"
         id="path5975" />
      <path
         d="m 73381,58669 h 5508"
         id="path5977" />
      <path
         d="M 89200,53157 H 83692"
         id="path5979" />
      <path
         d="M 89200,58669 V 53157"
         id="path5981" />
      <path
         d="m 83692,53157 v 5512"
         id="path5983" />
      <circle
         cx="92980.297"
         cy="61015.699"
         r="433.07101"
         id="circle5985" />
      <path
         d="m 85976,23972 22921,2275"
         id="path5987" />
      <circle
         cx="109291"
         cy="61015.699"
         r="433.07101"
         id="circle5989" />
      <circle
         cx="81255.898"
         cy="61015.699"
         r="433.07101"
         id="circle5991" />
      <path
         d="m 99633,45657 v 5512"
         id="path5993" />
      <path
         d="m 79007,38157 v 5512"
         id="path5995" />
      <path
         d="M 106074,36169 V 30657"
         id="path5997" />
      <path
         d="M 66657,26248 H 82464"
         id="path5999" />
      <path
         d="m 83692,58669 h 5508"
         id="path6001" />
      <path
         d="m 90255,45657 v 5512"
         id="path6003" />
      <path
         d="M 88263,51169 V 45657"
         id="path6005" />
      <path
         d="M 88263,45657 H 82755"
         id="path6007" />
      <path
         d="m 84066,27192 -1602,-944"
         id="path6009" />
      <path
         d="m 82755,51169 h 5508"
         id="path6011" />
      <path
         d="M 82641,36169 V 30657"
         id="path6013" />
      <path
         d="m 106074,30657 h -5508"
         id="path6015" />
      <path
         d="M 82641,30657 H 77133"
         id="path6017" />
      <path
         d="M 97637,36169 V 30657"
         id="path6019" />
      <path
         d="M 90137,36169 V 30657"
         id="path6021" />
      <path
         d="m 84629,30657 v 5512"
         id="path6023" />
      <path
         d="M 78889,53157 H 73381"
         id="path6025" />
      <path
         d="M 78889,58669 V 53157"
         id="path6027" />
      <path
         d="m 75255,51169 h 5508"
         id="path6029" />
      <path
         d="M 92015,38157 H 86507"
         id="path6031" />
      <path
         d="M 105141,51169 V 45657"
         id="path6033" />
      <path
         d="m 107011,38157 h -5508"
         id="path6035" />
      <path
         d="M 107011,43669 V 38157"
         id="path6037" />
      <path
         d="M 111944,29295 V 60031"
         id="path6039" />
      <path
         d="m 77133,36169 h 5508"
         id="path6041" />
      <path
         d="m 77133,30657 v 5512"
         id="path6043" />
      <g
         id="g6045" />
    </g>
  </g>
</svg>
