999
"DXF R12 Output" (www.mydxf.blogspot.com)
 0 
SECTION
 2 
HEADER
 9 
$ACADVER
 1 
AC1009
 9 
$EXTMIN
 10 
 0 
 20 
 0 
 9 
$EXTMAX
 10 
 8.5 
 20 
 11 
 0 
ENDSEC
 0 
SECTION
 2 
ENTITIES
0
LINE
8
Layer 1
10
11843.200000
20
-8590.560000
11
10288.700000
21
-8590.560000
0
LINE
8
Layer 1
10
15052.000000
20
-10707.200000
11
15052.000000
21
-12262.800000
0
LINE
8
Layer 1
10
11968.800000
20
-7601.650000
11
12417.815000
21
-7345.110000
0
LINE
8
Layer 1
10
18495.400000
20
-8457.350000
11
18495.400000
21
-14940.600000
0
LINE
8
Layer 1
10
16109.800000
20
-12823.900000
11
16109.800000
21
-14379.500000
0
LINE
8
Layer 1
10
16077.600000
20
-10146.200000
11
16077.600000
21
-8590.560000
0
LINE
8
Layer 1
10
5517.780000
20
-7346.300000
11
5495.583069
21
-7346.580723
0
LINE
8
Layer 1
10
5495.583069
20
-7346.580723
11
5473.524618
21
-7347.418701
0
LINE
8
Layer 1
10
5473.524618
20
-7347.418701
11
5451.611401
21
-7348.807180
0
LINE
8
Layer 1
10
5451.611401
20
-7348.807180
11
5429.850171
21
-7350.739405
0
LINE
8
Layer 1
10
5429.850171
20
-7350.739405
11
5408.247685
21
-7353.208622
0
LINE
8
Layer 1
10
5408.247685
20
-7353.208622
11
5386.810695
21
-7356.208077
0
LINE
8
Layer 1
10
5386.810695
20
-7356.208077
11
5365.545957
21
-7359.731017
0
LINE
8
Layer 1
10
5365.545957
20
-7359.731017
11
5344.460224
21
-7363.770686
0
LINE
8
Layer 1
10
5344.460224
20
-7363.770686
11
5323.560252
21
-7368.320330
0
LINE
8
Layer 1
10
5323.560252
20
-7368.320330
11
5302.852794
21
-7373.373197
0
LINE
8
Layer 1
10
5302.852794
20
-7373.373197
11
5282.344605
21
-7378.922530
0
LINE
8
Layer 1
10
5282.344605
20
-7378.922530
11
5262.042439
21
-7384.961577
0
LINE
8
Layer 1
10
5262.042439
20
-7384.961577
11
5241.953050
21
-7391.483583
0
LINE
8
Layer 1
10
5241.953050
20
-7391.483583
11
5222.083193
21
-7398.481794
0
LINE
8
Layer 1
10
5222.083193
20
-7398.481794
11
5202.439623
21
-7405.949455
0
LINE
8
Layer 1
10
5202.439623
20
-7405.949455
11
5183.029093
21
-7413.879813
0
LINE
8
Layer 1
10
5183.029093
20
-7413.879813
11
5163.858358
21
-7422.266114
0
LINE
8
Layer 1
10
5163.858358
20
-7422.266114
11
5144.934173
21
-7431.101603
0
LINE
8
Layer 1
10
5144.934173
20
-7431.101603
11
5126.263291
21
-7440.379526
0
LINE
8
Layer 1
10
5126.263291
20
-7440.379526
11
5107.852467
21
-7450.093130
0
LINE
8
Layer 1
10
5107.852467
20
-7450.093130
11
5089.708456
21
-7460.235659
0
LINE
8
Layer 1
10
5089.708456
20
-7460.235659
11
5071.838012
21
-7470.800360
0
LINE
8
Layer 1
10
5071.838012
20
-7470.800360
11
5054.247889
21
-7481.780479
0
LINE
8
Layer 1
10
5054.247889
20
-7481.780479
11
5036.944841
21
-7493.169261
0
LINE
8
Layer 1
10
5036.944841
20
-7493.169261
11
5019.935623
21
-7504.959952
0
LINE
8
Layer 1
10
5019.935623
20
-7504.959952
11
5003.226990
21
-7517.145799
0
LINE
8
Layer 1
10
5003.226990
20
-7517.145799
11
4986.825695
21
-7529.720046
0
LINE
8
Layer 1
10
4986.825695
20
-7529.720046
11
4970.738493
21
-7542.675941
0
LINE
8
Layer 1
10
4970.738493
20
-7542.675941
11
4954.972139
21
-7556.006728
0
LINE
8
Layer 1
10
4954.972139
20
-7556.006728
11
4939.533386
21
-7569.705654
0
LINE
8
Layer 1
10
4939.533386
20
-7569.705654
11
4924.428990
21
-7583.765964
0
LINE
8
Layer 1
10
4924.428990
20
-7583.765964
11
4909.665704
21
-7598.180905
0
LINE
8
Layer 1
10
4909.665704
20
-7598.180905
11
4895.250282
21
-7612.943721
0
LINE
8
Layer 1
10
4895.250282
20
-7612.943721
11
4881.189480
21
-7628.047660
0
LINE
8
Layer 1
10
4881.189480
20
-7628.047660
11
4867.490052
21
-7643.485967
0
LINE
8
Layer 1
10
4867.490052
20
-7643.485967
11
4854.158751
21
-7659.251887
0
LINE
8
Layer 1
10
4854.158751
20
-7659.251887
11
4841.202333
21
-7675.338667
0
LINE
8
Layer 1
10
4841.202333
20
-7675.338667
11
4828.627551
21
-7691.739553
0
LINE
8
Layer 1
10
4828.627551
20
-7691.739553
11
4816.441161
21
-7708.447789
0
LINE
8
Layer 1
10
4816.441161
20
-7708.447789
11
4804.649916
21
-7725.456623
0
LINE
8
Layer 1
10
4804.649916
20
-7725.456623
11
4793.260570
21
-7742.759300
0
LINE
8
Layer 1
10
4793.260570
20
-7742.759300
11
4782.279879
21
-7760.349066
0
LINE
8
Layer 1
10
4782.279879
20
-7760.349066
11
4771.714596
21
-7778.219166
0
LINE
8
Layer 1
10
4771.714596
20
-7778.219166
11
4761.571476
21
-7796.362847
0
LINE
8
Layer 1
10
4761.571476
20
-7796.362847
11
4751.857273
21
-7814.773354
0
LINE
8
Layer 1
10
4751.857273
20
-7814.773354
11
4742.578742
21
-7833.443934
0
LINE
8
Layer 1
10
4742.578742
20
-7833.443934
11
4733.742637
21
-7852.367832
0
LINE
8
Layer 1
10
4733.742637
20
-7852.367832
11
4725.355712
21
-7871.538294
0
LINE
8
Layer 1
10
4725.355712
20
-7871.538294
11
4717.424722
21
-7890.948565
0
LINE
8
Layer 1
10
4717.424722
20
-7890.948565
11
4709.956421
21
-7910.591892
0
LINE
8
Layer 1
10
4709.956421
20
-7910.591892
11
4702.957563
21
-7930.461521
0
LINE
8
Layer 1
10
4702.957563
20
-7930.461521
11
4696.434903
21
-7950.550697
0
LINE
8
Layer 1
10
4696.434903
20
-7950.550697
11
4690.395196
21
-7970.852667
0
LINE
8
Layer 1
10
4690.395196
20
-7970.852667
11
4684.845194
21
-7991.360675
0
LINE
8
Layer 1
10
4684.845194
20
-7991.360675
11
4679.791654
21
-8012.067969
0
LINE
8
Layer 1
10
4679.791654
20
-8012.067969
11
4675.241329
21
-8032.967793
0
LINE
8
Layer 1
10
4675.241329
20
-8032.967793
11
4671.200973
21
-8054.053394
0
LINE
8
Layer 1
10
4671.200973
20
-8054.053394
11
4667.677342
21
-8075.318018
0
LINE
8
Layer 1
10
4667.677342
20
-8075.318018
11
4664.677188
21
-8096.754910
0
LINE
8
Layer 1
10
4664.677188
20
-8096.754910
11
4662.207268
21
-8118.357316
0
LINE
8
Layer 1
10
4662.207268
20
-8118.357316
11
4660.274334
21
-8140.118482
0
LINE
8
Layer 1
10
4660.274334
20
-8140.118482
11
4658.885142
21
-8162.031654
0
LINE
8
Layer 1
10
4658.885142
20
-8162.031654
11
4658.046446
21
-8184.090078
0
LINE
8
Layer 1
10
4658.046446
20
-8184.090078
11
4657.765000
21
-8206.287000
0
LINE
8
Layer 1
10
9759.800000
20
-14379.500000
11
11314.300000
21
-14379.500000
0
LINE
8
Layer 1
10
13993.100000
20
-14379.500000
11
15547.600000
21
-14379.500000
0
LINE
8
Layer 1
10
10288.700000
20
-8590.560000
11
10288.700000
21
-10146.200000
0
LINE
8
Layer 1
10
10288.700000
20
-10146.200000
11
11843.200000
21
-10146.200000
0
LINE
8
Layer 1
10
15547.600000
20
-12823.900000
11
13993.100000
21
-12823.900000
0
LINE
8
Layer 1
10
15547.600000
20
-14379.500000
11
15547.600000
21
-12823.900000
0
LINE
8
Layer 1
10
16342.100000
20
-14940.600000
11
14787.600000
21
-14940.600000
0
LINE
8
Layer 1
10
17664.300000
20
-12823.900000
11
16109.800000
21
-12823.900000
0
LINE
8
Layer 1
10
7609.830000
20
-8590.560000
11
6055.360000
21
-8590.560000
0
LINE
8
Layer 1
10
17664.300000
20
-14379.500000
11
17664.300000
21
-12823.900000
0
LINE
8
Layer 1
10
12406.500000
20
-10146.200000
11
13961.000000
21
-10146.200000
0
LINE
8
Layer 1
10
16606.500000
20
-10707.200000
11
15052.000000
21
-10707.200000
0
LINE
8
Layer 1
10
14489.800000
20
-10707.200000
11
12935.400000
21
-10707.200000
0
LINE
8
Layer 1
10
13961.000000
20
-8590.560000
11
12406.500000
21
-8590.560000
0
LINE
8
Layer 1
10
11314.300000
20
-14379.500000
11
11314.300000
21
-12823.900000
0
LINE
8
Layer 1
10
9197.610000
20
-16496.200000
11
9197.610000
21
-14940.600000
0
LINE
8
Layer 1
10
11554.200000
20
-6912.750000
11
11968.784000
21
-7601.654000
0
LINE
8
Layer 1
10
11876.500000
20
-12823.900000
11
11876.500000
21
-14379.500000
0
LINE
8
Layer 1
10
10818.700000
20
-12262.800000
11
12373.200000
21
-12262.800000
0
LINE
8
Layer 1
10
11314.300000
20
-14940.600000
11
9759.800000
21
-14940.600000
0
LINE
8
Layer 1
10
6055.360000
20
-10146.200000
11
7609.830000
21
-10146.200000
0
LINE
8
Layer 1
10
7875.400000
20
-12262.800000
11
7875.400000
21
-10707.200000
0
LINE
8
Layer 1
10
6320.930000
20
-10707.200000
11
6320.930000
21
-12262.800000
0
LINE
8
Layer 1
10
8404.290000
20
-12823.900000
11
6849.810000
21
-12823.900000
0
LINE
8
Layer 1
10
4657.760000
20
-16880.700000
11
4658.024700
21
-16902.054662
0
LINE
8
Layer 1
10
4658.024700
20
-16902.054662
11
4658.816666
21
-16923.345776
0
LINE
8
Layer 1
10
4658.816666
20
-16923.345776
11
4660.132247
21
-16944.564532
0
LINE
8
Layer 1
10
4660.132247
20
-16944.564532
11
4661.967794
21
-16965.702117
0
LINE
8
Layer 1
10
4661.967794
20
-16965.702117
11
4664.319657
21
-16986.749721
0
LINE
8
Layer 1
10
4664.319657
20
-16986.749721
11
4667.184186
21
-17007.698531
0
LINE
8
Layer 1
10
4667.184186
20
-17007.698531
11
4670.557731
21
-17028.539735
0
LINE
8
Layer 1
10
4670.557731
20
-17028.539735
11
4674.436642
21
-17049.264523
0
LINE
8
Layer 1
10
4674.436642
20
-17049.264523
11
4678.817270
21
-17069.864082
0
LINE
8
Layer 1
10
4678.817270
20
-17069.864082
11
4683.695964
21
-17090.329601
0
LINE
8
Layer 1
10
4683.695964
20
-17090.329601
11
4689.069076
21
-17110.652268
0
LINE
8
Layer 1
10
4689.069076
20
-17110.652268
11
4694.932954
21
-17130.823272
0
LINE
8
Layer 1
10
4694.932954
20
-17130.823272
11
4701.283949
21
-17150.833802
0
LINE
8
Layer 1
10
4701.283949
20
-17150.833802
11
4708.118412
21
-17170.675045
0
LINE
8
Layer 1
10
4708.118412
20
-17170.675045
11
4715.432692
21
-17190.338189
0
LINE
8
Layer 1
10
4715.432692
20
-17190.338189
11
4723.223139
21
-17209.814424
0
LINE
8
Layer 1
10
4723.223139
20
-17209.814424
11
4731.486104
21
-17229.094938
0
LINE
8
Layer 1
10
4731.486104
20
-17229.094938
11
4740.217937
21
-17248.170919
0
LINE
8
Layer 1
10
4740.217937
20
-17248.170919
11
4749.414988
21
-17267.033555
0
LINE
8
Layer 1
10
4749.414988
20
-17267.033555
11
4759.073607
21
-17285.674035
0
LINE
8
Layer 1
10
4759.073607
20
-17285.674035
11
4769.190145
21
-17304.083548
0
LINE
8
Layer 1
10
4769.190145
20
-17304.083548
11
4779.760950
21
-17322.253281
0
LINE
8
Layer 1
10
4779.760950
20
-17322.253281
11
4790.782375
21
-17340.174423
0
LINE
8
Layer 1
10
4790.782375
20
-17340.174423
11
4802.250768
21
-17357.838163
0
LINE
8
Layer 1
10
4802.250768
20
-17357.838163
11
4814.162480
21
-17375.235688
0
LINE
8
Layer 1
10
4814.162480
20
-17375.235688
11
4826.513861
21
-17392.358188
0
LINE
8
Layer 1
10
4826.513861
20
-17392.358188
11
4839.301261
21
-17409.196851
0
LINE
8
Layer 1
10
4839.301261
20
-17409.196851
11
4852.521030
21
-17425.742864
0
LINE
8
Layer 1
10
4852.521030
20
-17425.742864
11
4866.169519
21
-17441.987417
0
LINE
8
Layer 1
10
4866.169519
20
-17441.987417
11
4880.243078
21
-17457.921697
0
LINE
8
Layer 1
10
4880.243078
20
-17457.921697
11
4894.738056
21
-17473.536894
0
LINE
8
Layer 1
10
4894.738056
20
-17473.536894
11
4909.650804
21
-17488.824196
0
LINE
8
Layer 1
10
4909.650804
20
-17488.824196
11
4924.938106
21
-17503.736944
0
LINE
8
Layer 1
10
4924.938106
20
-17503.736944
11
4940.553303
21
-17518.231922
0
LINE
8
Layer 1
10
4940.553303
20
-17518.231922
11
4956.487583
21
-17532.305481
0
LINE
8
Layer 1
10
4956.487583
20
-17532.305481
11
4972.732136
21
-17545.953970
0
LINE
8
Layer 1
10
4972.732136
20
-17545.953970
11
4989.278149
21
-17559.173739
0
LINE
8
Layer 1
10
4989.278149
20
-17559.173739
11
5006.116812
21
-17571.961139
0
LINE
8
Layer 1
10
5006.116812
20
-17571.961139
11
5023.239312
21
-17584.312520
0
LINE
8
Layer 1
10
5023.239312
20
-17584.312520
11
5040.636837
21
-17596.224232
0
LINE
8
Layer 1
10
5040.636837
20
-17596.224232
11
5058.300577
21
-17607.692625
0
LINE
8
Layer 1
10
5058.300577
20
-17607.692625
11
5076.221719
21
-17618.714050
0
LINE
8
Layer 1
10
5076.221719
20
-17618.714050
11
5094.391452
21
-17629.284856
0
LINE
8
Layer 1
10
5094.391452
20
-17629.284856
11
5112.800965
21
-17639.401393
0
LINE
8
Layer 1
10
5112.800965
20
-17639.401393
11
5131.441445
21
-17649.060012
0
LINE
8
Layer 1
10
5131.441445
20
-17649.060012
11
5150.304081
21
-17658.257063
0
LINE
8
Layer 1
10
5150.304081
20
-17658.257063
11
5169.380062
21
-17666.988896
0
LINE
8
Layer 1
10
5169.380062
20
-17666.988896
11
5188.660576
21
-17675.251861
0
LINE
8
Layer 1
10
5188.660576
20
-17675.251861
11
5208.136811
21
-17683.042308
0
LINE
8
Layer 1
10
5208.136811
20
-17683.042308
11
5227.799955
21
-17690.356588
0
LINE
8
Layer 1
10
5227.799955
20
-17690.356588
11
5247.641198
21
-17697.191051
0
LINE
8
Layer 1
10
5247.641198
20
-17697.191051
11
5267.651728
21
-17703.542046
0
LINE
8
Layer 1
10
5267.651728
20
-17703.542046
11
5287.822732
21
-17709.405924
0
LINE
8
Layer 1
10
5287.822732
20
-17709.405924
11
5308.145399
21
-17714.779036
0
LINE
8
Layer 1
10
5308.145399
20
-17714.779036
11
5328.610918
21
-17719.657730
0
LINE
8
Layer 1
10
5328.610918
20
-17719.657730
11
5349.210477
21
-17724.038358
0
LINE
8
Layer 1
10
5349.210477
20
-17724.038358
11
5369.935265
21
-17727.917269
0
LINE
8
Layer 1
10
5369.935265
20
-17727.917269
11
5390.776469
21
-17731.290814
0
LINE
8
Layer 1
10
5390.776469
20
-17731.290814
11
5411.725279
21
-17734.155343
0
LINE
8
Layer 1
10
5411.725279
20
-17734.155343
11
5432.772883
21
-17736.507206
0
LINE
8
Layer 1
10
5432.772883
20
-17736.507206
11
5453.910468
21
-17738.342753
0
LINE
8
Layer 1
10
5453.910468
20
-17738.342753
11
5475.129224
21
-17739.658334
0
LINE
8
Layer 1
10
5475.129224
20
-17739.658334
11
5496.420338
21
-17740.450300
0
LINE
8
Layer 1
10
5496.420338
20
-17740.450300
11
5517.775000
21
-17740.715000
0
LINE
8
Layer 1
10
10256.500000
20
-12262.800000
11
10256.500000
21
-10707.200000
0
LINE
8
Layer 1
10
7643.140000
20
-16496.200000
11
9197.610000
21
-16496.200000
0
LINE
8
Layer 1
10
11876.500000
20
-14940.600000
11
11876.500000
21
-16496.200000
0
LINE
8
Layer 1
10
13430.900000
20
-16496.200000
11
13430.900000
21
-14940.600000
0
LINE
8
Layer 1
10
11554.200000
20
-6912.750000
11
11442.158000
21
-6719.428000
0
LINE
8
Layer 1
10
11876.500000
20
-16496.200000
11
13430.900000
21
-16496.200000
0
LINE
8
Layer 1
10
18495.400000
20
-17740.500000
11
18495.400000
21
-16421.700000
0
LINE
8
Layer 1
10
14787.600000
20
-16496.200000
11
16342.100000
21
-16496.200000
0
LINE
8
Layer 1
10
9727.630000
20
-8590.560000
11
8173.150000
21
-8590.560000
0
LINE
8
Layer 1
10
13961.000000
20
-10146.200000
11
13961.000000
21
-8590.560000
0
LINE
8
Layer 1
10
16077.600000
20
-8590.560000
11
14523.100000
21
-8590.560000
0
LINE
8
Layer 1
10
12406.500000
20
-8590.560000
11
12406.500000
21
-10146.200000
0
LINE
8
Layer 1
10
14523.100000
20
-10146.200000
11
16077.600000
21
-10146.200000
0
LINE
8
Layer 1
10
14523.100000
20
-8590.560000
11
14523.100000
21
-10146.200000
0
LINE
8
Layer 1
10
8702.030000
20
-12262.800000
11
10256.500000
21
-12262.800000
0
LINE
8
Layer 1
10
14787.600000
20
-14940.600000
11
14787.600000
21
-16496.200000
0
LINE
8
Layer 1
10
8404.290000
20
-14379.500000
11
8404.290000
21
-12823.900000
0
LINE
8
Layer 1
10
6849.810000
20
-14379.500000
11
8404.290000
21
-14379.500000
0
LINE
8
Layer 1
10
9759.800000
20
-14940.600000
11
9759.800000
21
-16496.200000
0
LINE
8
Layer 1
10
11314.300000
20
-16496.200000
11
11314.300000
21
-14940.600000
0
LINE
8
Layer 1
10
10256.500000
20
-10707.200000
11
8702.030000
21
-10707.200000
0
LINE
8
Layer 1
10
7875.400000
20
-10707.200000
11
6320.930000
21
-10707.200000
0
LINE
8
Layer 1
10
8702.030000
20
-10707.200000
11
8702.030000
21
-12262.800000
0
LINE
8
Layer 1
10
7609.830000
20
-10146.200000
11
7609.830000
21
-8590.560000
0
LINE
8
Layer 1
10
6055.360000
20
-8590.560000
11
6055.360000
21
-10146.200000
0
LINE
8
Layer 1
10
18495.400000
20
-14940.600000
11
18495.400000
21
-16421.700000
0
LINE
8
Layer 1
10
16109.800000
20
-14379.500000
11
17664.300000
21
-14379.500000
0
LINE
8
Layer 1
10
9197.610000
20
-14940.600000
11
7643.140000
21
-14940.600000
0
LINE
8
Layer 1
10
11876.500000
20
-14379.500000
11
13430.900000
21
-14379.500000
0
LINE
8
Layer 1
10
9759.800000
20
-16496.200000
11
11314.300000
21
-16496.200000
0
LINE
8
Layer 1
10
16342.100000
20
-16496.200000
11
16342.100000
21
-14940.600000
0
LINE
8
Layer 1
10
6320.930000
20
-12262.800000
11
7875.400000
21
-12262.800000
0
LINE
8
Layer 1
10
11843.200000
20
-10146.200000
11
11843.200000
21
-8590.560000
0
LINE
8
Layer 1
10
13430.900000
20
-12823.900000
11
11876.500000
21
-12823.900000
0
LINE
8
Layer 1
10
13430.900000
20
-14379.500000
11
13430.900000
21
-12823.900000
0
LINE
8
Layer 1
10
9759.800000
20
-12823.900000
11
9759.800000
21
-14379.500000
0
LINE
8
Layer 1
10
6849.810000
20
-12823.900000
11
6849.810000
21
-14379.500000
0
LINE
8
Layer 1
10
7643.140000
20
-14940.600000
11
7643.140000
21
-16496.200000
0
LINE
8
Layer 1
10
18495.400000
20
-17740.500000
11
5517.720000
21
-17740.500000
0
LINE
8
Layer 1
10
13993.100000
20
-12823.900000
11
13993.100000
21
-14379.500000
0
LINE
8
Layer 1
10
16606.500000
20
-12262.800000
11
16606.500000
21
-10707.200000
0
LINE
8
Layer 1
10
15052.000000
20
-12262.800000
11
16606.500000
21
-12262.800000
0
LINE
8
Layer 1
10
11314.300000
20
-12823.900000
11
9759.800000
21
-12823.900000
0
LINE
8
Layer 1
10
18495.400000
20
-7345.110000
11
18495.400000
21
-8457.350000
0
LINE
8
Layer 1
10
12935.400000
20
-12262.800000
11
14489.800000
21
-12262.800000
0
LINE
8
Layer 1
10
12373.200000
20
-10707.200000
11
10818.700000
21
-10707.200000
0
LINE
8
Layer 1
10
10818.700000
20
-10707.200000
11
10818.700000
21
-12262.800000
0
LINE
8
Layer 1
10
12373.200000
20
-12262.800000
11
12373.200000
21
-10707.200000
0
LINE
8
Layer 1
10
12417.800000
20
-7345.110000
11
18495.400000
21
-7345.110000
0
LINE
8
Layer 1
10
12935.400000
20
-10707.200000
11
12935.400000
21
-12262.800000
0
LINE
8
Layer 1
10
13430.900000
20
-14940.600000
11
11876.500000
21
-14940.600000
0
LINE
8
Layer 1
10
11442.100000
20
-6719.420000
11
5517.720000
21
-7346.240000
0
LINE
8
Layer 1
10
14489.800000
20
-12262.800000
11
14489.800000
21
-10707.200000
0
LINE
8
Layer 1
10
9727.630000
20
-10146.200000
11
9727.630000
21
-8590.560000
0
LINE
8
Layer 1
10
8173.150000
20
-8590.560000
11
8173.150000
21
-10146.200000
0
LINE
8
Layer 1
10
8173.150000
20
-10146.200000
11
9727.630000
21
-10146.200000
0
LINE
8
Layer 1
10
4657.510000
20
-16880.500000
11
4657.510000
21
-8206.170000
0
LINE
8
Layer 1
10
30733.400000
20
-17742.900000
11
30755.595361
21
-17742.617121
0
LINE
8
Layer 1
10
30755.595361
20
-17742.617121
11
30777.652218
21
-17741.777074
0
LINE
8
Layer 1
10
30777.652218
20
-17741.777074
11
30799.563816
21
-17740.386615
0
LINE
8
Layer 1
10
30799.563816
20
-17740.386615
11
30821.323404
21
-17738.452495
0
LINE
8
Layer 1
10
30821.323404
20
-17738.452495
11
30842.924228
21
-17735.981468
0
LINE
8
Layer 1
10
30842.924228
20
-17735.981468
11
30864.359536
21
-17732.980287
0
LINE
8
Layer 1
10
30864.359536
20
-17732.980287
11
30885.622575
21
-17729.455705
0
LINE
8
Layer 1
10
30885.622575
20
-17729.455705
11
30906.706593
21
-17725.414476
0
LINE
8
Layer 1
10
30906.706593
20
-17725.414476
11
30927.604836
21
-17720.863352
0
LINE
8
Layer 1
10
30927.604836
20
-17720.863352
11
30948.310552
21
-17715.809088
0
LINE
8
Layer 1
10
30948.310552
20
-17715.809088
11
30968.816988
21
-17710.258435
0
LINE
8
Layer 1
10
30968.816988
20
-17710.258435
11
30989.117391
21
-17704.218148
0
LINE
8
Layer 1
10
30989.117391
20
-17704.218148
11
31009.205009
21
-17697.694979
0
LINE
8
Layer 1
10
31009.205009
20
-17697.694979
11
31029.073088
21
-17690.695682
0
LINE
8
Layer 1
10
31029.073088
20
-17690.695682
11
31048.714877
21
-17683.227010
0
LINE
8
Layer 1
10
31048.714877
20
-17683.227010
11
31068.123622
21
-17675.295716
0
LINE
8
Layer 1
10
31068.123622
20
-17675.295716
11
31087.292571
21
-17666.908553
0
LINE
8
Layer 1
10
31087.292571
20
-17666.908553
11
31106.214970
21
-17658.072275
0
LINE
8
Layer 1
10
31106.214970
20
-17658.072275
11
31124.884067
21
-17648.793634
0
LINE
8
Layer 1
10
31124.884067
20
-17648.793634
11
31143.293110
21
-17639.079385
0
LINE
8
Layer 1
10
31143.293110
20
-17639.079385
11
31161.435345
21
-17628.936279
0
LINE
8
Layer 1
10
31161.435345
20
-17628.936279
11
31179.304020
21
-17618.371071
0
LINE
8
Layer 1
10
31179.304020
20
-17618.371071
11
31196.892381
21
-17607.390513
0
LINE
8
Layer 1
10
31196.892381
20
-17607.390513
11
31214.193678
21
-17596.001359
0
LINE
8
Layer 1
10
31214.193678
20
-17596.001359
11
31231.201155
21
-17584.210362
0
LINE
8
Layer 1
10
31231.201155
20
-17584.210362
11
31247.908062
21
-17572.024275
0
LINE
8
Layer 1
10
31247.908062
20
-17572.024275
11
31264.307644
21
-17559.449852
0
LINE
8
Layer 1
10
31264.307644
20
-17559.449852
11
31280.393150
21
-17546.493845
0
LINE
8
Layer 1
10
31280.393150
20
-17546.493845
11
31296.157826
21
-17533.163007
0
LINE
8
Layer 1
10
31296.157826
20
-17533.163007
11
31311.594920
21
-17519.464093
0
LINE
8
Layer 1
10
31311.594920
20
-17519.464093
11
31326.697678
21
-17505.403854
0
LINE
8
Layer 1
10
31326.697678
20
-17505.403854
11
31341.459349
21
-17490.989045
0
LINE
8
Layer 1
10
31341.459349
20
-17490.989045
11
31355.873180
21
-17476.226419
0
LINE
8
Layer 1
10
31355.873180
20
-17476.226419
11
31369.932417
21
-17461.122728
0
LINE
8
Layer 1
10
31369.932417
20
-17461.122728
11
31383.630308
21
-17445.684726
0
LINE
8
Layer 1
10
31383.630308
20
-17445.684726
11
31396.960101
21
-17429.919167
0
LINE
8
Layer 1
10
31396.960101
20
-17429.919167
11
31409.915042
21
-17413.832802
0
LINE
8
Layer 1
10
31409.915042
20
-17413.832802
11
31422.488378
21
-17397.432387
0
LINE
8
Layer 1
10
31422.488378
20
-17397.432387
11
31434.673358
21
-17380.724672
0
LINE
8
Layer 1
10
31434.673358
20
-17380.724672
11
31446.463228
21
-17363.716413
0
LINE
8
Layer 1
10
31446.463228
20
-17363.716413
11
31457.851235
21
-17346.414362
0
LINE
8
Layer 1
10
31457.851235
20
-17346.414362
11
31468.830627
21
-17328.825273
0
LINE
8
Layer 1
10
31468.830627
20
-17328.825273
11
31479.394650
21
-17310.955898
0
LINE
8
Layer 1
10
31479.394650
20
-17310.955898
11
31489.536553
21
-17292.812990
0
LINE
8
Layer 1
10
31489.536553
20
-17292.812990
11
31499.249583
21
-17274.403304
0
LINE
8
Layer 1
10
31499.249583
20
-17274.403304
11
31508.526986
21
-17255.733592
0
LINE
8
Layer 1
10
31508.526986
20
-17255.733592
11
31517.362010
21
-17236.810607
0
LINE
8
Layer 1
10
31517.362010
20
-17236.810607
11
31525.747902
21
-17217.641102
0
LINE
8
Layer 1
10
31525.747902
20
-17217.641102
11
31533.677910
21
-17198.231832
0
LINE
8
Layer 1
10
31533.677910
20
-17198.231832
11
31541.145280
21
-17178.589548
0
LINE
8
Layer 1
10
31541.145280
20
-17178.589548
11
31548.143260
21
-17158.721005
0
LINE
8
Layer 1
10
31548.143260
20
-17158.721005
11
31554.665097
21
-17138.632954
0
LINE
8
Layer 1
10
31554.665097
20
-17138.632954
11
31560.704039
21
-17118.332151
0
LINE
8
Layer 1
10
31560.704039
20
-17118.332151
11
31566.253332
21
-17097.825347
0
LINE
8
Layer 1
10
31566.253332
20
-17097.825347
11
31571.306225
21
-17077.119296
0
LINE
8
Layer 1
10
31571.306225
20
-17077.119296
11
31575.855963
21
-17056.220751
0
LINE
8
Layer 1
10
31575.855963
20
-17056.220751
11
31579.895795
21
-17035.136466
0
LINE
8
Layer 1
10
31579.895795
20
-17035.136466
11
31583.418967
21
-17013.873193
0
LINE
8
Layer 1
10
31583.418967
20
-17013.873193
11
31586.418727
21
-16992.437686
0
LINE
8
Layer 1
10
31586.418727
20
-16992.437686
11
31588.888323
21
-16970.836698
0
LINE
8
Layer 1
10
31588.888323
20
-16970.836698
11
31590.821000
21
-16949.076983
0
LINE
8
Layer 1
10
31590.821000
20
-16949.076983
11
31592.210008
21
-16927.165292
0
LINE
8
Layer 1
10
31592.210008
20
-16927.165292
11
31593.048592
21
-16905.108380
0
LINE
8
Layer 1
10
31593.048592
20
-16905.108380
11
31593.330000
21
-16882.913000
0
LINE
8
Layer 1
10
28381.900000
20
-10148.400000
11
29936.400000
21
-10148.400000
0
LINE
8
Layer 1
10
28381.900000
20
-8592.810000
11
28381.900000
21
-10148.400000
0
LINE
8
Layer 1
10
22793.100000
20
-12826.100000
11
21238.600000
21
-12826.100000
0
LINE
8
Layer 1
10
22793.100000
20
-14381.800000
11
22793.100000
21
-12826.100000
0
LINE
8
Layer 1
10
20180.800000
20
-10709.500000
11
20180.800000
21
-12265.100000
0
LINE
8
Layer 1
10
21735.300000
20
-12265.100000
11
21735.300000
21
-10709.500000
0
LINE
8
Layer 1
10
28349.800000
20
-14942.800000
11
26795.300000
21
-14942.800000
0
LINE
8
Layer 1
10
28118.600000
20
-14381.800000
11
29673.100000
21
-14381.800000
0
LINE
8
Layer 1
10
28646.400000
20
-12265.100000
11
30200.900000
21
-12265.100000
0
LINE
8
Layer 1
10
28646.400000
20
-10709.500000
11
28646.400000
21
-12265.100000
0
LINE
8
Layer 1
10
20180.800000
20
-12265.100000
11
21735.300000
21
-12265.100000
0
LINE
8
Layer 1
10
21205.300000
20
-10148.400000
11
21205.300000
21
-8592.810000
0
LINE
8
Layer 1
10
19650.800000
20
-10148.400000
11
21205.300000
21
-10148.400000
0
LINE
8
Layer 1
10
27555.300000
20
-8592.810000
11
26000.800000
21
-8592.810000
0
LINE
8
Layer 1
10
28085.300000
20
-12265.100000
11
28085.300000
21
-10709.500000
0
LINE
8
Layer 1
10
28085.300000
20
-10709.500000
11
26530.800000
21
-10709.500000
0
LINE
8
Layer 1
10
26000.800000
20
-10148.400000
11
27555.300000
21
-10148.400000
0
LINE
8
Layer 1
10
23852.000000
20
-12265.100000
11
23852.000000
21
-10709.500000
0
LINE
8
Layer 1
10
18812.100000
20
-8456.220000
11
18812.100000
21
-7348.500000
0
LINE
8
Layer 1
10
31593.300000
20
-8208.510000
11
31593.019189
21
-8186.314739
0
LINE
8
Layer 1
10
31593.019189
20
-8186.314739
11
31592.181204
21
-8164.257929
0
LINE
8
Layer 1
10
31592.181204
20
-8164.257929
11
31590.792798
21
-8142.346324
0
LINE
8
Layer 1
10
31590.792798
20
-8142.346324
11
31588.860723
21
-8120.586676
0
LINE
8
Layer 1
10
31588.860723
20
-8120.586676
11
31586.391732
21
-8098.985738
0
LINE
8
Layer 1
10
31586.391732
20
-8098.985738
11
31583.392578
21
-8077.550265
0
LINE
8
Layer 1
10
31583.392578
20
-8077.550265
11
31579.870012
21
-8056.287009
0
LINE
8
Layer 1
10
31579.870012
20
-8056.287009
11
31575.830787
21
-8035.202724
0
LINE
8
Layer 1
10
31575.830787
20
-8035.202724
11
31571.281656
21
-8014.304163
0
LINE
8
Layer 1
10
31571.281656
20
-8014.304163
11
31566.229371
21
-7993.598080
0
LINE
8
Layer 1
10
31566.229371
20
-7993.598080
11
31560.680684
21
-7973.091226
0
LINE
8
Layer 1
10
31560.680684
20
-7973.091226
11
31554.642349
21
-7952.790357
0
LINE
8
Layer 1
10
31554.642349
20
-7952.790357
11
31548.121117
21
-7932.702225
0
LINE
8
Layer 1
10
31548.121117
20
-7932.702225
11
31541.123740
21
-7912.833584
0
LINE
8
Layer 1
10
31541.123740
20
-7912.833584
11
31533.656972
21
-7893.191187
0
LINE
8
Layer 1
10
31533.656972
20
-7893.191187
11
31525.727564
21
-7873.781786
0
LINE
8
Layer 1
10
31525.727564
20
-7873.781786
11
31517.342270
21
-7854.612137
0
LINE
8
Layer 1
10
31517.342270
20
-7854.612137
11
31508.507841
21
-7835.688990
0
LINE
8
Layer 1
10
31508.507841
20
-7835.688990
11
31499.231030
21
-7817.019101
0
LINE
8
Layer 1
10
31499.231030
20
-7817.019101
11
31489.518590
21
-7798.609223
0
LINE
8
Layer 1
10
31489.518590
20
-7798.609223
11
31479.377272
21
-7780.466108
0
LINE
8
Layer 1
10
31479.377272
20
-7780.466108
11
31468.813830
21
-7762.596510
0
LINE
8
Layer 1
10
31468.813830
20
-7762.596510
11
31457.835016
21
-7745.007182
0
LINE
8
Layer 1
10
31457.835016
20
-7745.007182
11
31446.447581
21
-7727.704878
0
LINE
8
Layer 1
10
31446.447581
20
-7727.704878
11
31434.658280
21
-7710.696351
0
LINE
8
Layer 1
10
31434.658280
20
-7710.696351
11
31422.473863
21
-7693.988354
0
LINE
8
Layer 1
10
31422.473863
20
-7693.988354
11
31409.901084
21
-7677.587641
0
LINE
8
Layer 1
10
31409.901084
20
-7677.587641
11
31396.946695
21
-7661.500964
0
LINE
8
Layer 1
10
31396.946695
20
-7661.500964
11
31383.617449
21
-7645.735078
0
LINE
8
Layer 1
10
31383.617449
20
-7645.735078
11
31369.920097
21
-7630.296735
0
LINE
8
Layer 1
10
31369.920097
20
-7630.296735
11
31355.861393
21
-7615.192688
0
LINE
8
Layer 1
10
31355.861393
20
-7615.192688
11
31341.448088
21
-7600.429692
0
LINE
8
Layer 1
10
31341.448088
20
-7600.429692
11
31326.686935
21
-7586.014499
0
LINE
8
Layer 1
10
31326.686935
20
-7586.014499
11
31311.584687
21
-7571.953863
0
LINE
8
Layer 1
10
31311.584687
20
-7571.953863
11
31296.148097
21
-7558.254536
0
LINE
8
Layer 1
10
31296.148097
20
-7558.254536
11
31280.383915
21
-7544.923273
0
LINE
8
Layer 1
10
31280.383915
20
-7544.923273
11
31264.298896
21
-7531.966826
0
LINE
8
Layer 1
10
31264.298896
20
-7531.966826
11
31247.899791
21
-7519.391950
0
LINE
8
Layer 1
10
31247.899791
20
-7519.391950
11
31231.193352
21
-7507.205396
0
LINE
8
Layer 1
10
31231.193352
20
-7507.205396
11
31214.186333
21
-7495.413919
0
LINE
8
Layer 1
10
31214.186333
20
-7495.413919
11
31196.885486
21
-7484.024272
0
LINE
8
Layer 1
10
31196.885486
20
-7484.024272
11
31179.297563
21
-7473.043207
0
LINE
8
Layer 1
10
31179.297563
20
-7473.043207
11
31161.429316
21
-7462.477479
0
LINE
8
Layer 1
10
31161.429316
20
-7462.477479
11
31143.287499
21
-7452.333841
0
LINE
8
Layer 1
10
31143.287499
20
-7452.333841
11
31124.878863
21
-7442.619046
0
LINE
8
Layer 1
10
31124.878863
20
-7442.619046
11
31106.210160
21
-7433.339847
0
LINE
8
Layer 1
10
31106.210160
20
-7433.339847
11
31087.288145
21
-7424.502998
0
LINE
8
Layer 1
10
31087.288145
20
-7424.502998
11
31068.119567
21
-7416.115251
0
LINE
8
Layer 1
10
31068.119567
20
-7416.115251
11
31048.711182
21
-7408.183361
0
LINE
8
Layer 1
10
31048.711182
20
-7408.183361
11
31029.069739
21
-7400.714081
0
LINE
8
Layer 1
10
31029.069739
20
-7400.714081
11
31009.201993
21
-7393.714163
0
LINE
8
Layer 1
10
31009.201993
20
-7393.714163
11
30989.114696
21
-7387.190361
0
LINE
8
Layer 1
10
30989.114696
20
-7387.190361
11
30968.814599
21
-7381.149429
0
LINE
8
Layer 1
10
30968.814599
20
-7381.149429
11
30948.308456
21
-7375.598119
0
LINE
8
Layer 1
10
30948.308456
20
-7375.598119
11
30927.603019
21
-7370.543185
0
LINE
8
Layer 1
10
30927.603019
20
-7370.543185
11
30906.705040
21
-7365.991381
0
LINE
8
Layer 1
10
30906.705040
20
-7365.991381
11
30885.621272
21
-7361.949460
0
LINE
8
Layer 1
10
30885.621272
20
-7361.949460
11
30864.358467
21
-7358.424174
0
LINE
8
Layer 1
10
30864.358467
20
-7358.424174
11
30842.923377
21
-7355.422278
0
LINE
8
Layer 1
10
30842.923377
20
-7355.422278
11
30821.322756
21
-7352.950524
0
LINE
8
Layer 1
10
30821.322756
20
-7352.950524
11
30799.563355
21
-7351.015666
0
LINE
8
Layer 1
10
30799.563355
20
-7351.015666
11
30777.651927
21
-7349.624457
0
LINE
8
Layer 1
10
30777.651927
20
-7349.624457
11
30755.595225
21
-7348.783651
0
LINE
8
Layer 1
10
30755.595225
20
-7348.783651
11
30733.400000
21
-7348.500000
0
LINE
8
Layer 1
10
25438.600000
20
-8592.810000
11
23884.200000
21
-8592.810000
0
LINE
8
Layer 1
10
23884.200000
20
-10148.400000
11
25438.600000
21
-10148.400000
0
LINE
8
Layer 1
10
26000.800000
20
-8592.810000
11
26000.800000
21
-10148.400000
0
LINE
8
Layer 1
10
26530.800000
20
-12265.100000
11
28085.300000
21
-12265.100000
0
LINE
8
Layer 1
10
26530.800000
20
-10709.500000
11
26530.800000
21
-12265.100000
0
LINE
8
Layer 1
10
21735.300000
20
-10709.500000
11
20180.800000
21
-10709.500000
0
LINE
8
Layer 1
10
28349.800000
20
-16498.400000
11
28349.800000
21
-14942.800000
0
LINE
8
Layer 1
10
26795.300000
20
-14942.800000
11
26795.300000
21
-16498.400000
0
LINE
8
Layer 1
10
27026.400000
20
-14381.800000
11
27026.400000
21
-12826.100000
0
LINE
8
Layer 1
10
27026.400000
20
-12826.100000
11
25471.900000
21
-12826.100000
0
LINE
8
Layer 1
10
23852.000000
20
-10709.500000
11
22297.500000
21
-10709.500000
0
LINE
8
Layer 1
10
19650.800000
20
-8592.810000
11
19650.800000
21
-10148.400000
0
LINE
8
Layer 1
10
22297.500000
20
-12265.100000
11
23852.000000
21
-12265.100000
0
LINE
8
Layer 1
10
20709.700000
20
-14942.800000
11
20709.700000
21
-16498.400000
0
LINE
8
Layer 1
10
21205.300000
20
-8592.810000
11
19650.800000
21
-8592.810000
0
LINE
8
Layer 1
10
24414.200000
20
-12265.100000
11
25968.700000
21
-12265.100000
0
LINE
8
Layer 1
10
18813.200000
20
-17742.700000
11
18813.200000
21
-16421.700000
0
LINE
8
Layer 1
10
23725.300000
20
-7614.910000
11
24264.344000
21
-6706.155000
0
LINE
8
Layer 1
10
23355.300000
20
-12826.100000
11
23355.300000
21
-14381.800000
0
LINE
8
Layer 1
10
18813.200000
20
-16421.700000
11
18813.200000
21
-14949.600000
0
LINE
8
Layer 1
10
25471.900000
20
-14381.800000
11
27026.400000
21
-14381.800000
0
LINE
8
Layer 1
10
26795.300000
20
-16498.400000
11
28349.800000
21
-16498.400000
0
LINE
8
Layer 1
10
25968.700000
20
-12265.100000
11
25968.700000
21
-10709.500000
0
LINE
8
Layer 1
10
21238.600000
20
-12826.100000
11
21238.600000
21
-14381.800000
0
LINE
8
Layer 1
10
24414.200000
20
-10709.500000
11
24414.200000
21
-12265.100000
0
LINE
8
Layer 1
10
18813.200000
20
-14949.600000
11
18812.071110
21
-8456.240000
0
LINE
8
Layer 1
10
30733.100000
20
-17742.700000
11
18813.200000
21
-17742.700000
0
LINE
8
Layer 1
10
29673.100000
20
-12826.100000
11
28118.600000
21
-12826.100000
0
LINE
8
Layer 1
10
20709.700000
20
-16498.400000
11
22264.200000
21
-16498.400000
0
LINE
8
Layer 1
10
25174.200000
20
-14942.800000
11
23619.700000
21
-14942.800000
0
LINE
8
Layer 1
10
25174.200000
20
-16498.400000
11
25174.200000
21
-14942.800000
0
LINE
8
Layer 1
10
23619.700000
20
-14942.800000
11
23619.700000
21
-16498.400000
0
LINE
8
Layer 1
10
24264.300000
20
-6706.160000
11
30733.110000
21
-7348.215000
0
LINE
8
Layer 1
10
28118.600000
20
-12826.100000
11
28118.600000
21
-14381.800000
0
LINE
8
Layer 1
10
22297.500000
20
-10709.500000
11
22297.500000
21
-12265.100000
0
LINE
8
Layer 1
10
29936.400000
20
-10148.400000
11
29936.400000
21
-8592.810000
0
LINE
8
Layer 1
10
18812.100000
20
-7348.500000
11
23273.200000
21
-7348.500000
0
LINE
8
Layer 1
10
23619.700000
20
-16498.400000
11
25174.200000
21
-16498.400000
0
LINE
8
Layer 1
10
25471.900000
20
-12826.100000
11
25471.900000
21
-14381.800000
0
LINE
8
Layer 1
10
24909.800000
20
-14381.800000
11
24909.800000
21
-12826.100000
0
LINE
8
Layer 1
10
24909.800000
20
-12826.100000
11
23355.300000
21
-12826.100000
0
LINE
8
Layer 1
10
23725.300000
20
-7614.910000
11
23273.180000
21
-7348.492000
0
LINE
8
Layer 1
10
23355.300000
20
-14381.800000
11
24909.800000
21
-14381.800000
0
LINE
8
Layer 1
10
23323.100000
20
-10148.400000
11
23323.100000
21
-8592.810000
0
LINE
8
Layer 1
10
29936.400000
20
-8592.810000
11
28381.900000
21
-8592.810000
0
LINE
8
Layer 1
10
23323.100000
20
-8592.810000
11
21768.600000
21
-8592.810000
0
LINE
8
Layer 1
10
27555.300000
20
-10148.400000
11
27555.300000
21
-8592.810000
0
LINE
8
Layer 1
10
25438.600000
20
-10148.400000
11
25438.600000
21
-8592.810000
0
LINE
8
Layer 1
10
23884.200000
20
-8592.810000
11
23884.200000
21
-10148.400000
0
LINE
8
Layer 1
10
22264.200000
20
-14942.800000
11
20709.700000
21
-14942.800000
0
LINE
8
Layer 1
10
22264.200000
20
-16498.400000
11
22264.200000
21
-14942.800000
0
LINE
8
Layer 1
10
21238.600000
20
-14381.800000
11
22793.100000
21
-14381.800000
0
LINE
8
Layer 1
10
25968.700000
20
-10709.500000
11
24414.200000
21
-10709.500000
0
LINE
8
Layer 1
10
29673.100000
20
-14381.800000
11
29673.100000
21
-12826.100000
0
LINE
8
Layer 1
10
30200.900000
20
-10709.500000
11
28646.400000
21
-10709.500000
0
LINE
8
Layer 1
10
30200.900000
20
-12265.100000
11
30200.900000
21
-10709.500000
0
LINE
8
Layer 1
10
31593.100000
20
-8208.430000
11
31593.100000
21
-16882.800000
0
LINE
8
Layer 1
10
21768.600000
20
-10148.400000
11
23323.100000
21
-10148.400000
0
LINE
8
Layer 1
10
21768.600000
20
-8592.810000
11
21768.600000
21
-10148.400000
 0 
ENDSEC
 0 
EOF