G04 #@! TF.GenerationSoftware,KiCad,Pcbnew,(5.1.6-0-10_14)*
G04 #@! TF.CreationDate,2022-03-06T15:34:28+09:00*
G04 #@! TF.ProjectId,cool936,636f6f6c-3933-4362-9e6b-696361645f70,rev?*
G04 #@! TF.SameCoordinates,Original*
G04 #@! TF.FileFunction,Copper,L2,Bot*
G04 #@! TF.FilePolarity,Positive*
%FSLAX46Y46*%
G04 Gerber Fmt 4.6, Leading zero omitted, Abs format (unit mm)*
G04 Created by KiCad (PCBNEW (5.1.6-0-10_14)) date 2022-03-06 15:34:28*
%MOMM*%
%LPD*%
G01*
G04 APERTURE LIST*
G04 #@! TA.AperFunction,ComponentPad*
%ADD10C,1.524000*%
G04 #@! TD*
G04 #@! TA.AperFunction,Conductor*
%ADD11R,4.500000X2.500000*%
G04 #@! TD*
G04 #@! TA.AperFunction,ViaPad*
%ADD12C,0.800000*%
G04 #@! TD*
G04 #@! TA.AperFunction,ViaPad*
%ADD13C,4.000000*%
G04 #@! TD*
G04 #@! TA.AperFunction,SMDPad,CuDef*
%ADD14R,0.950000X1.300000*%
G04 #@! TD*
G04 #@! TA.AperFunction,ComponentPad*
%ADD15R,1.397000X1.397000*%
G04 #@! TD*
G04 #@! TA.AperFunction,ComponentPad*
%ADD16C,1.397000*%
G04 #@! TD*
G04 #@! TA.AperFunction,SMDPad,CuDef*
%ADD17R,1.300000X0.950000*%
G04 #@! TD*
G04 #@! TA.AperFunction,SMDPad,CuDef*
%ADD18R,1.800000X0.820000*%
G04 #@! TD*
G04 #@! TA.AperFunction,ComponentPad*
%ADD19C,2.000000*%
G04 #@! TD*
G04 #@! TA.AperFunction,Conductor*
%ADD20C,0.250000*%
G04 #@! TD*
G04 APERTURE END LIST*
D10*
X263438000Y-7201400D03*
X260898000Y-7201400D03*
X258358000Y-7201400D03*
X255818000Y-7201400D03*
X253278000Y-7201400D03*
X250738000Y-7201400D03*
X248198000Y-7201400D03*
X245658000Y-7201400D03*
X243118000Y-7201400D03*
X240578000Y-7201400D03*
X238038000Y-7201400D03*
X235498000Y-7201400D03*
X235498000Y8018600D03*
X238038000Y8018600D03*
X240578000Y8018600D03*
X243118000Y8018600D03*
X245658000Y8018600D03*
X248198000Y8018600D03*
X250738000Y8018600D03*
X253278000Y8018600D03*
X255818000Y8018600D03*
X258358000Y8018600D03*
X260898000Y8018600D03*
X263438000Y8018600D03*
D11*
X248729500Y-13970000D03*
X235802500Y-16510000D03*
D12*
X250507500Y-14732000D03*
X233997500Y-17272000D03*
X250507500Y-13208000D03*
X233997500Y-15748000D03*
D13*
X239077500Y-16510000D03*
X245427500Y-13970000D03*
D11*
X267779500Y-13970000D03*
X254852500Y-16510000D03*
D12*
X269557500Y-14732000D03*
X253047500Y-17272000D03*
X269557500Y-13208000D03*
X253047500Y-15748000D03*
D13*
X258127500Y-16510000D03*
X264477500Y-13970000D03*
D14*
X208240000Y-2515000D03*
X208240000Y-6065000D03*
D15*
X208240000Y-8100000D03*
D16*
X208240000Y-480000D03*
D14*
X227340000Y-2775000D03*
X227340000Y-6325000D03*
D15*
X227340000Y-8360000D03*
D16*
X227340000Y-740000D03*
D14*
X246980000Y985000D03*
X246980000Y-2565000D03*
D15*
X246980000Y-4600000D03*
D16*
X246980000Y3020000D03*
D14*
X189180000Y-2645000D03*
X189180000Y-6195000D03*
D15*
X189180000Y-8230000D03*
D16*
X189180000Y-610000D03*
D14*
X194010000Y-19445000D03*
X194010000Y-22995000D03*
D15*
X194010000Y-25030000D03*
D16*
X194010000Y-17410000D03*
D14*
X212880000Y-19635000D03*
X212880000Y-23185000D03*
D15*
X212880000Y-25220000D03*
D16*
X212880000Y-17600000D03*
D14*
X232080000Y-21165000D03*
X232080000Y-24715000D03*
D15*
X232080000Y-26750000D03*
D16*
X232080000Y-19130000D03*
D14*
X234570000Y-21145000D03*
X234570000Y-24695000D03*
D15*
X234570000Y-26730000D03*
D16*
X234570000Y-19110000D03*
D17*
X263965000Y-27450000D03*
X260415000Y-27450000D03*
D15*
X258380000Y-27450000D03*
D16*
X266000000Y-27450000D03*
D14*
X203500000Y-40565000D03*
X203500000Y-44115000D03*
D15*
X203500000Y-46150000D03*
D16*
X203500000Y-38530000D03*
D14*
X222500000Y-40595000D03*
X222500000Y-44145000D03*
D15*
X222500000Y-46180000D03*
D16*
X222500000Y-38560000D03*
D14*
X243780000Y-35275000D03*
X243780000Y-38825000D03*
D15*
X243780000Y-40860000D03*
D16*
X243780000Y-33240000D03*
D14*
X201760000Y-53315000D03*
X201760000Y-56865000D03*
D15*
X201760000Y-58900000D03*
D16*
X201760000Y-51280000D03*
D14*
X267830000Y-705000D03*
X267830000Y-4255000D03*
D15*
X267830000Y-6290000D03*
D16*
X267830000Y1330000D03*
D14*
X256480000Y-53300000D03*
X256480000Y-56850000D03*
D15*
X256480000Y-58885000D03*
D16*
X256480000Y-51265000D03*
D14*
X246430000Y-35275000D03*
X246430000Y-38825000D03*
D15*
X246430000Y-40860000D03*
D16*
X246430000Y-33240000D03*
D11*
X263017500Y-33020000D03*
X250090500Y-35560000D03*
D12*
X264795500Y-33782000D03*
X248285500Y-36322000D03*
X264795500Y-32258000D03*
X248285500Y-34798000D03*
D13*
X253365500Y-35560000D03*
X259715500Y-33020000D03*
D11*
X222536000Y-52070000D03*
X209609000Y-54610000D03*
D12*
X224314000Y-52832000D03*
X207804000Y-55372000D03*
X224314000Y-51308000D03*
X207804000Y-53848000D03*
D13*
X212884000Y-54610000D03*
X219234000Y-52070000D03*
G04 #@! TA.AperFunction,ComponentPad*
G36*
G01*
X224187690Y15604775D02*
X224880510Y15204775D01*
G75*
G02*
X225191632Y14043653I-425000J-736122D01*
G01*
X225191632Y14043653D01*
G75*
G02*
X224030510Y13732531I-736122J425000D01*
G01*
X223337690Y14132531D01*
G75*
G02*
X223026568Y15293653I425000J736122D01*
G01*
X223026568Y15293653D01*
G75*
G02*
X224187690Y15604775I736122J-425000D01*
G01*
G37*
G04 #@! TD.AperFunction*
G04 #@! TA.AperFunction,ComponentPad*
G36*
G01*
X220788652Y12717469D02*
X221481472Y12317469D01*
G75*
G02*
X221792594Y11156347I-425000J-736122D01*
G01*
X221792594Y11156347D01*
G75*
G02*
X220631472Y10845225I-736122J425000D01*
G01*
X219938652Y11245225D01*
G75*
G02*
X219627530Y12406347I425000J736122D01*
G01*
X219627530Y12406347D01*
G75*
G02*
X220788652Y12717469I736122J-425000D01*
G01*
G37*
G04 #@! TD.AperFunction*
G04 #@! TA.AperFunction,ComponentPad*
G36*
G01*
X217324550Y14717469D02*
X218017370Y14317469D01*
G75*
G02*
X218328492Y13156347I-425000J-736122D01*
G01*
X218328492Y13156347D01*
G75*
G02*
X217167370Y12845225I-736122J425000D01*
G01*
X216474550Y13245225D01*
G75*
G02*
X216163428Y14406347I425000J736122D01*
G01*
X216163428Y14406347D01*
G75*
G02*
X217324550Y14717469I736122J-425000D01*
G01*
G37*
G04 #@! TD.AperFunction*
G04 #@! TA.AperFunction,ComponentPad*
G36*
G01*
X214726474Y16217469D02*
X215419294Y15817469D01*
G75*
G02*
X215730416Y14656347I-425000J-736122D01*
G01*
X215730416Y14656347D01*
G75*
G02*
X214569294Y14345225I-736122J425000D01*
G01*
X213876474Y14745225D01*
G75*
G02*
X213565352Y15906347I425000J736122D01*
G01*
X213565352Y15906347D01*
G75*
G02*
X214726474Y16217469I736122J-425000D01*
G01*
G37*
G04 #@! TD.AperFunction*
D18*
X197770000Y-29230000D03*
X197770000Y-27730000D03*
X192770000Y-27730000D03*
X192770000Y-29230000D03*
X221320000Y-29290000D03*
X221320000Y-27790000D03*
X226320000Y-27790000D03*
X226320000Y-29290000D03*
X252270000Y-29230000D03*
X252270000Y-27730000D03*
X247270000Y-27730000D03*
X247270000Y-29230000D03*
D19*
X217014583Y9775000D03*
X211385417Y13025000D03*
D11*
X201104500Y-33020000D03*
X188177500Y-35560000D03*
D12*
X202882500Y-33782000D03*
X186372500Y-36322000D03*
X202882500Y-32258000D03*
X186372500Y-34798000D03*
D13*
X191452500Y-35560000D03*
X197802500Y-33020000D03*
D11*
X220154500Y-33020000D03*
X207227500Y-35560000D03*
D12*
X221932500Y-33782000D03*
X205422500Y-36322000D03*
X221932500Y-32258000D03*
X205422500Y-34798000D03*
D13*
X210502500Y-35560000D03*
X216852500Y-33020000D03*
D11*
X239204500Y-33020000D03*
X226277500Y-35560000D03*
D12*
X240982500Y-33782000D03*
X224472500Y-36322000D03*
X240982500Y-32258000D03*
X224472500Y-34798000D03*
D13*
X229552500Y-35560000D03*
X235902500Y-33020000D03*
D11*
X196342000Y-52070000D03*
X183415000Y-54610000D03*
D12*
X198120000Y-52832000D03*
X181610000Y-55372000D03*
X198120000Y-51308000D03*
X181610000Y-53848000D03*
D13*
X186690000Y-54610000D03*
X193040000Y-52070000D03*
D11*
X265397999Y5080000D03*
X252470999Y2540000D03*
D12*
X267175999Y4318000D03*
X250665999Y1778000D03*
X267175999Y5842000D03*
X250665999Y3302000D03*
D13*
X255745999Y2540000D03*
X262095999Y5080000D03*
D11*
X251110500Y-52070000D03*
X238183500Y-54610000D03*
D12*
X252888500Y-52832000D03*
X236378500Y-55372000D03*
X252888500Y-51308000D03*
X236378500Y-53848000D03*
D13*
X241458500Y-54610000D03*
X247808500Y-52070000D03*
D16*
X232390000Y-51330000D03*
D15*
X232390000Y-58950000D03*
D14*
X232390000Y-56915000D03*
X232390000Y-53365000D03*
D11*
X186817000Y5080000D03*
X173890000Y2540000D03*
D12*
X188595000Y4318000D03*
X172085000Y1778000D03*
X188595000Y5842000D03*
X172085000Y3302000D03*
D13*
X177165000Y2540000D03*
X183515000Y5080000D03*
D11*
X205867000Y5080000D03*
X192940000Y2540000D03*
D12*
X207645000Y4318000D03*
X191135000Y1778000D03*
X207645000Y5842000D03*
X191135000Y3302000D03*
D13*
X196215000Y2540000D03*
X202565000Y5080000D03*
D11*
X224917000Y5080000D03*
X211990000Y2540000D03*
D12*
X226695000Y4318000D03*
X210185000Y1778000D03*
X226695000Y5842000D03*
X210185000Y3302000D03*
D13*
X215265000Y2540000D03*
X221615000Y5080000D03*
D11*
X243967000Y5080000D03*
X231040000Y2540000D03*
D12*
X245745000Y4318000D03*
X229235000Y1778000D03*
X245745000Y5842000D03*
X229235000Y3302000D03*
D13*
X234315000Y2540000D03*
X240665000Y5080000D03*
D11*
X191579500Y-13970000D03*
X178652500Y-16510000D03*
D12*
X193357500Y-14732000D03*
X176847500Y-17272000D03*
X193357500Y-13208000D03*
X176847500Y-15748000D03*
D13*
X181927500Y-16510000D03*
X188277500Y-13970000D03*
D11*
X210629500Y-13970000D03*
X197702500Y-16510000D03*
D12*
X212407500Y-14732000D03*
X195897500Y-17272000D03*
X212407500Y-13208000D03*
X195897500Y-15748000D03*
D13*
X200977500Y-16510000D03*
X207327500Y-13970000D03*
D11*
X229679500Y-13970000D03*
X216752500Y-16510000D03*
D12*
X231457500Y-14732000D03*
X214947500Y-17272000D03*
X231457500Y-13208000D03*
X214947500Y-15748000D03*
D13*
X220027500Y-16510000D03*
X226377500Y-13970000D03*
D12*
X235760000Y-12140000D03*
X264420000Y-4600000D03*
X252550000Y-4600000D03*
X257350000Y-13210000D03*
X254570000Y-8840000D03*
X249780000Y6020000D03*
X249791501Y-768499D03*
X226890000Y9060000D03*
X204310000Y-8955000D03*
X207080000Y-23960000D03*
X210460000Y-31950000D03*
X207080000Y-31419999D03*
X250640000Y-23020000D03*
X252370000Y-26070000D03*
X213940000Y-5850000D03*
X213860000Y-8840000D03*
X208930000Y-23950000D03*
X208970000Y-27730000D03*
X242880000Y-3880000D03*
X232200000Y-29210000D03*
X218930000Y-29340000D03*
X190570000Y-29340000D03*
X244910000Y-29230000D03*
X249780000Y-11040000D03*
X249650000Y-5325000D03*
X240710000Y-4280000D03*
X215570000Y-23710000D03*
X214490000Y-29490000D03*
X228330000Y-31150010D03*
X228320000Y-29350000D03*
X233740000Y-10220000D03*
X218140000Y-10880000D03*
X178652500Y-10747500D03*
X192970000Y-9810000D03*
X192970000Y-5260000D03*
X204440000Y-22820000D03*
X204410000Y-31760000D03*
X209450000Y-50860000D03*
X233700000Y-8970000D03*
X218120000Y-9800000D03*
X209460000Y-44950000D03*
X216650000Y-5880000D03*
X228770000Y-22100000D03*
X229640000Y-31240000D03*
X237890000Y-43210000D03*
X237880000Y-50360000D03*
X216650000Y-8960000D03*
X233630000Y-7600000D03*
X231450000Y-3560000D03*
X231980000Y-11210000D03*
X255380000Y-32440000D03*
X249520000Y-22200000D03*
X238060000Y-10150000D03*
X252230000Y-710000D03*
X254830000Y-12190000D03*
X265530000Y-7840000D03*
D20*
X189180000Y-2645000D02*
X189180000Y-610000D01*
X186817000Y5080000D02*
X183515000Y5080000D01*
X189180000Y2520000D02*
X186817000Y4883000D01*
X186817000Y4883000D02*
X186817000Y5080000D01*
X189180000Y-610000D02*
X189180000Y2520000D01*
X208240000Y2960000D02*
X206120000Y5080000D01*
X208240000Y-2515000D02*
X208240000Y-480000D01*
X202565000Y5080000D02*
X205867000Y5080000D01*
X208240000Y-480000D02*
X208240000Y2960000D01*
X206120000Y5080000D02*
X205867000Y5080000D01*
X224917000Y5080000D02*
X226140000Y5080000D01*
X227340000Y-740000D02*
X227340000Y-2775000D01*
X227340000Y3880000D02*
X227340000Y-740000D01*
X226140000Y5080000D02*
X227340000Y3880000D01*
X221615000Y5080000D02*
X224917000Y5080000D01*
X243967000Y5080000D02*
X240665000Y5080000D01*
X246980000Y3020000D02*
X246027000Y3020000D01*
X246027000Y3020000D02*
X245773500Y3273500D01*
X245773500Y3273500D02*
X243967000Y5080000D01*
X245907000Y3140000D02*
X245773500Y3273500D01*
X246980000Y3020000D02*
X246980000Y985000D01*
X194010000Y-17410000D02*
X194010000Y-16400500D01*
X194010000Y-16400500D02*
X191579500Y-13970000D01*
X188277500Y-13970000D02*
X191579500Y-13970000D01*
X194010000Y-17410000D02*
X194010000Y-19445000D01*
X212880000Y-16220500D02*
X210629500Y-13970000D01*
X212880000Y-17600000D02*
X212880000Y-16220500D01*
X212880000Y-17600000D02*
X212880000Y-19635000D01*
X207327500Y-13970000D02*
X210629500Y-13970000D01*
X232080000Y-16370500D02*
X229679500Y-13970000D01*
X226377500Y-13970000D02*
X229679500Y-13970000D01*
X232080000Y-19130000D02*
X232080000Y-21165000D01*
X232080000Y-19130000D02*
X232080000Y-16370500D01*
X234570000Y-21145000D02*
X234570000Y-19110000D01*
X245427500Y-13970000D02*
X248729500Y-13970000D01*
X235760000Y-12140000D02*
X242740000Y-12140000D01*
X242740000Y-12140000D02*
X243720000Y-11160000D01*
X243720000Y-11160000D02*
X247600000Y-11160000D01*
X248729500Y-12289500D02*
X248729500Y-13970000D01*
X247600000Y-11160000D02*
X248729500Y-12289500D01*
X264477500Y-13970000D02*
X267779500Y-13970000D01*
X263965000Y-27450000D02*
X266000000Y-27450000D01*
X267779500Y-13970000D02*
X268310000Y-14500500D01*
X268310000Y-25140000D02*
X266000000Y-27450000D01*
X268310000Y-14500500D02*
X268310000Y-25140000D01*
X203500000Y-38530000D02*
X203500000Y-40565000D01*
X203500000Y-35415500D02*
X201104500Y-33020000D01*
X203500000Y-38530000D02*
X203500000Y-35415500D01*
X201104500Y-33020000D02*
X197802500Y-33020000D01*
X222500000Y-40595000D02*
X222500000Y-38560000D01*
X221170500Y-33020000D02*
X221932500Y-33782000D01*
X220154500Y-33020000D02*
X221170500Y-33020000D01*
X222500000Y-35365500D02*
X220154500Y-33020000D01*
X222500000Y-38560000D02*
X222500000Y-35365500D01*
X220154500Y-33020000D02*
X216852500Y-33020000D01*
X236122500Y-33240000D02*
X235902500Y-33020000D01*
X243780000Y-33240000D02*
X236122500Y-33240000D01*
X240220500Y-33020000D02*
X240982500Y-33782000D01*
X239204500Y-33020000D02*
X240220500Y-33020000D01*
X241524500Y-33240000D02*
X240982500Y-33782000D01*
X243780000Y-33240000D02*
X241524500Y-33240000D01*
X243780000Y-33240000D02*
X243780000Y-35275000D01*
X193040000Y-52070000D02*
X196342000Y-52070000D01*
X201732000Y-51308000D02*
X201760000Y-51280000D01*
X198120000Y-51308000D02*
X201732000Y-51308000D01*
X201760000Y-51280000D02*
X201760000Y-53315000D01*
X267830000Y-705000D02*
X267830000Y1330000D01*
X267830000Y2647999D02*
X265397999Y5080000D01*
X267830000Y1330000D02*
X267830000Y2647999D01*
X265397999Y5080000D02*
X262095999Y5080000D01*
X247808500Y-52070000D02*
X251110500Y-52070000D01*
X251872500Y-51308000D02*
X251110500Y-52070000D01*
X252888500Y-51308000D02*
X251872500Y-51308000D01*
X252931500Y-51265000D02*
X252888500Y-51308000D01*
X256480000Y-51265000D02*
X252931500Y-51265000D01*
X256480000Y-51265000D02*
X256480000Y-53300000D01*
X246430000Y-35275000D02*
X246430000Y-33240000D01*
X246430000Y-33240000D02*
X246435001Y-33234999D01*
X259715500Y-33020000D02*
X263017500Y-33020000D01*
X246430000Y-33240000D02*
X248480000Y-31190000D01*
X248480000Y-31190000D02*
X257250000Y-31190000D01*
X257250000Y-31190000D02*
X257910000Y-30530000D01*
X257910000Y-30530000D02*
X262040000Y-30530000D01*
X263017500Y-31507500D02*
X263017500Y-33020000D01*
X262040000Y-30530000D02*
X263017500Y-31507500D01*
X219234000Y-52070000D02*
X222536000Y-52070000D01*
X223552000Y-52070000D02*
X224314000Y-51308000D01*
X222536000Y-52070000D02*
X223552000Y-52070000D01*
X224336000Y-51330000D02*
X224314000Y-51308000D01*
X232390000Y-51330000D02*
X224336000Y-51330000D01*
X232390000Y-51330000D02*
X232390000Y-53365000D01*
X267830000Y-4255000D02*
X267830000Y-6290000D01*
X227340000Y-6325000D02*
X227340000Y-8360000D01*
X208240000Y-6065000D02*
X208240000Y-8100000D01*
X189180000Y-8230000D02*
X189180000Y-6195000D01*
X208110000Y-8230000D02*
X208240000Y-8100000D01*
X189180000Y-8230000D02*
X208110000Y-8230000D01*
X227080000Y-8100000D02*
X227340000Y-8360000D01*
X208240000Y-8100000D02*
X227080000Y-8100000D01*
X267810000Y-6290000D02*
X267830000Y-6290000D01*
X246980000Y-2565000D02*
X246980000Y-4600000D01*
X246980000Y-4600000D02*
X249070000Y-4600000D01*
X266140000Y-4600000D02*
X267830000Y-6290000D01*
X246980000Y-4600000D02*
X252550000Y-4600000D01*
X264420000Y-4600000D02*
X266140000Y-4600000D01*
X246524989Y-5055011D02*
X246980000Y-4600000D01*
X242127801Y-5905019D02*
X242977809Y-5055011D01*
X239989200Y-5905020D02*
X242127801Y-5905019D01*
X227340000Y-8360000D02*
X228110000Y-8360000D01*
X239719209Y-5635031D02*
X239989200Y-5905020D01*
X230820000Y-5650000D02*
X230820000Y-5635031D01*
X242977809Y-5055011D02*
X246524989Y-5055011D01*
X228110000Y-8360000D02*
X230820000Y-5650000D01*
X230820000Y-5635031D02*
X239719209Y-5635031D01*
X194010000Y-22995000D02*
X194010000Y-25030000D01*
X212880000Y-23185000D02*
X212880000Y-25220000D01*
X232080000Y-24715000D02*
X232080000Y-26750000D01*
X234570000Y-26730000D02*
X234570000Y-24695000D01*
X258380000Y-27450000D02*
X260415000Y-27450000D01*
X212690000Y-25030000D02*
X212880000Y-25220000D01*
X194010000Y-25030000D02*
X212690000Y-25030000D01*
X212880000Y-25220000D02*
X229920000Y-25220000D01*
X231450000Y-26750000D02*
X232080000Y-26750000D01*
X229920000Y-25220000D02*
X231450000Y-26750000D01*
X234550000Y-26750000D02*
X234570000Y-26730000D01*
X232080000Y-26750000D02*
X234550000Y-26750000D01*
X234570000Y-26730000D02*
X242510000Y-26730000D01*
X242510000Y-26730000D02*
X244070000Y-25170000D01*
X244070000Y-25170000D02*
X257090000Y-25170000D01*
X258380000Y-26460000D02*
X258380000Y-27450000D01*
X257090000Y-25170000D02*
X258380000Y-26460000D01*
X246430000Y-38825000D02*
X246430000Y-40860000D01*
X246430000Y-40860000D02*
X243780000Y-40860000D01*
X243780000Y-40860000D02*
X243780000Y-38825000D01*
X222500000Y-44145000D02*
X222500000Y-46180000D01*
X203500000Y-44115000D02*
X203500000Y-46150000D01*
X222470000Y-46150000D02*
X222500000Y-46180000D01*
X203500000Y-46150000D02*
X222470000Y-46150000D01*
X222500000Y-46180000D02*
X240720000Y-46180000D01*
X243780000Y-43120000D02*
X243780000Y-40860000D01*
X240720000Y-46180000D02*
X243780000Y-43120000D01*
X266039990Y-38760000D02*
X263939990Y-40860000D01*
X264933600Y-29770010D02*
X266039990Y-30876400D01*
X262539989Y-28836399D02*
X263473599Y-29770009D01*
X261702489Y-15272401D02*
X263175099Y-16745011D01*
X262539990Y-26528598D02*
X262539989Y-28836399D01*
X265129990Y-17446400D02*
X265129990Y-23938598D01*
X265129990Y-23938598D02*
X262539990Y-26528598D01*
X264428601Y-16745011D02*
X265129990Y-17446400D01*
X263939990Y-40860000D02*
X246430000Y-40860000D01*
X263473599Y-29770009D02*
X264933600Y-29770010D01*
X263175099Y-16745011D02*
X264428601Y-16745011D01*
X266039990Y-30876400D02*
X266039990Y-38760000D01*
X261702489Y-15272401D02*
X260922401Y-15272401D01*
X258860000Y-13210000D02*
X257350000Y-13210000D01*
X260922401Y-15272401D02*
X258860000Y-13210000D01*
X254570000Y-8840000D02*
X254570000Y-5546998D01*
X243118000Y8018600D02*
X244316600Y6820000D01*
X244316600Y6820000D02*
X248980000Y6820000D01*
X248980000Y6820000D02*
X249780000Y6020000D01*
X254570000Y-5546998D02*
X249791501Y-768499D01*
X263361499Y-16295001D02*
X264615001Y-16295001D01*
X265120000Y-29320000D02*
X266490000Y-30690000D01*
X266490000Y-30690000D02*
X266490000Y-48875000D01*
X201760000Y-56865000D02*
X201760000Y-58900000D01*
X232390000Y-56915000D02*
X232390000Y-58950000D01*
X256480000Y-56850000D02*
X256480000Y-58885000D01*
X201760000Y-58900000D02*
X201760000Y-59360000D01*
X201760000Y-59360000D02*
X203170000Y-60770000D01*
X230570000Y-60770000D02*
X232390000Y-58950000D01*
X203170000Y-60770000D02*
X230570000Y-60770000D01*
X232390000Y-58950000D02*
X232390000Y-59080000D01*
X232390000Y-59080000D02*
X233970000Y-60660000D01*
X254705000Y-60660000D02*
X256480000Y-58885000D01*
X233970000Y-60660000D02*
X254705000Y-60660000D01*
X266490000Y-48875000D02*
X256480000Y-58885000D01*
X262989999Y-28649999D02*
X263660000Y-29320000D01*
X262989999Y-26714999D02*
X262989999Y-28649999D01*
X265580000Y-24124998D02*
X262989999Y-26714999D01*
X265580000Y-17260000D02*
X265580000Y-24124998D01*
X263660000Y-29320000D02*
X265120000Y-29320000D01*
X264615001Y-16295001D02*
X265580000Y-17260000D01*
X262152499Y-15086001D02*
X263361499Y-16295001D01*
X262152499Y-12853999D02*
X262152499Y-15086001D01*
X226935601Y9105601D02*
X226890000Y9060000D01*
X236950999Y9105601D02*
X226935601Y9105601D01*
X238038000Y8018600D02*
X236950999Y9105601D01*
X204310000Y-8955000D02*
X204310000Y-14720000D01*
X207106401Y-23933599D02*
X207080000Y-23960000D01*
X207106401Y-17516401D02*
X207106401Y-23933599D01*
X204310000Y-14720000D02*
X207106401Y-17516401D01*
X207610001Y-31950000D02*
X207080000Y-31419999D01*
X210460000Y-31950000D02*
X207610001Y-31950000D01*
X216489613Y13025000D02*
X217245960Y13781347D01*
X211385417Y13025000D02*
X216489613Y13025000D01*
X261874900Y1295100D02*
X261874900Y-1565100D01*
X259770998Y3399002D02*
X261874900Y1295100D01*
X251799990Y-12853600D02*
X251799990Y-21860010D01*
X251799990Y-21860010D02*
X250640000Y-23020000D01*
X250640000Y-23020000D02*
X250640000Y-23020000D01*
X252370000Y-27630000D02*
X252270000Y-27730000D01*
X252370000Y-26070000D02*
X252370000Y-27630000D01*
X251104486Y-26070000D02*
X250654496Y-25620010D01*
X252370000Y-26070000D02*
X251104486Y-26070000D01*
X209414999Y-1324999D02*
X213940000Y-5850000D01*
X209414999Y11054582D02*
X209414999Y-1324999D01*
X211385417Y13025000D02*
X209414999Y11054582D01*
X213903501Y-20321501D02*
X211985002Y-22240000D01*
X213903501Y-8883501D02*
X213903501Y-20321501D01*
X213860000Y-8840000D02*
X213903501Y-8883501D01*
X210640000Y-22240000D02*
X208930000Y-23950000D01*
X211985002Y-22240000D02*
X210640000Y-22240000D01*
X208970000Y-27730000D02*
X215800000Y-27730000D01*
X197770000Y-27730000D02*
X208970000Y-27730000D01*
X215800000Y-27730000D02*
X217500000Y-26030000D01*
X226320000Y-27295514D02*
X226320000Y-27790000D01*
X225054486Y-26030000D02*
X226320000Y-27295514D01*
X217500000Y-26030000D02*
X225054486Y-26030000D01*
X236101992Y-27180010D02*
X242696401Y-27180009D01*
X235492002Y-27790000D02*
X236101992Y-27180010D01*
X226320000Y-27790000D02*
X235492002Y-27790000D01*
X242696401Y-27180009D02*
X244256400Y-25620010D01*
X252270000Y-27235514D02*
X252270000Y-27730000D01*
X244256400Y-25620010D02*
X250654496Y-25620010D01*
X258358000Y-5082000D02*
X258730000Y-4710000D01*
X258358000Y-7201400D02*
X258358000Y-5082000D01*
X258730000Y-4710000D02*
X258398000Y-5042000D01*
X261874900Y-1565100D02*
X258730000Y-4710000D01*
X255818000Y-7201400D02*
X258358000Y-7201400D01*
X255818000Y-7201400D02*
X255818000Y-8835590D01*
X255581795Y-9071795D02*
X251799990Y-12853600D01*
X255818000Y-8835590D02*
X255581795Y-9071795D01*
X259770998Y6891598D02*
X259770998Y6300998D01*
X260898000Y8018600D02*
X259770998Y6891598D01*
X259770998Y6300998D02*
X259770998Y3399002D01*
X259770998Y6531598D02*
X259770998Y6300998D01*
X232220000Y-29230000D02*
X232200000Y-29210000D01*
X247270000Y-29230000D02*
X244910000Y-29230000D01*
X221270000Y-29340000D02*
X221320000Y-29290000D01*
X218930000Y-29340000D02*
X221270000Y-29340000D01*
X192660000Y-29340000D02*
X192770000Y-29230000D01*
X190570000Y-29340000D02*
X192660000Y-29340000D01*
X244910000Y-29230000D02*
X232220000Y-29230000D01*
X249650000Y-10910000D02*
X249650000Y-5325000D01*
X249780000Y-11040000D02*
X249650000Y-10910000D01*
X228639990Y93640D02*
X228639991Y-2659991D01*
X240361999Y-5005001D02*
X241754999Y-5005001D01*
X230715011Y-4735011D02*
X240092009Y-4735011D01*
X220710062Y11781347D02*
X223981409Y8510000D01*
X227790011Y943619D02*
X228639990Y93640D01*
X241754999Y-5005001D02*
X242880000Y-3880000D01*
X225572002Y8510000D02*
X227790010Y6291992D01*
X240092009Y-4735011D02*
X240361999Y-5005001D01*
X223981409Y8510000D02*
X225572002Y8510000D01*
X228639991Y-2659991D02*
X230715011Y-4735011D01*
X227790010Y6291992D02*
X227790011Y943619D01*
X229090000Y280040D02*
X229090000Y-2473590D01*
X228240020Y1130020D02*
X229090000Y280040D01*
X229090000Y-2473590D02*
X230901411Y-4285001D01*
X228240020Y6478392D02*
X228240020Y1130020D01*
X221562055Y13156357D02*
X228240020Y6478392D01*
X220175857Y13156357D02*
X221562055Y13156357D01*
X218050867Y15281347D02*
X220175857Y13156357D01*
X240704999Y-4285001D02*
X240710000Y-4280000D01*
X230901411Y-4285001D02*
X240704999Y-4285001D01*
X214647884Y15281347D02*
X218050867Y15281347D01*
X252250000Y-20740000D02*
X252250000Y-20890000D01*
X214490000Y-29490000D02*
X197515010Y-29490000D01*
X197770000Y-29235010D02*
X197770000Y-29230000D01*
X197515010Y-29490000D02*
X197770000Y-29235010D01*
X252250000Y-22100000D02*
X252250000Y-20740000D01*
X243720000Y-23710000D02*
X244729990Y-24719990D01*
X251430010Y-24719990D02*
X252250000Y-23900000D01*
X215570000Y-23710000D02*
X243720000Y-23710000D01*
X252250000Y-23900000D02*
X252250000Y-22100000D01*
X244729990Y-24719990D02*
X251430010Y-24719990D01*
X261125001Y-11464999D02*
X263438000Y-9152000D01*
X253825001Y-11464999D02*
X261125001Y-11464999D01*
X263438000Y-9152000D02*
X263438000Y-7201400D01*
X252250000Y-13040000D02*
X253825001Y-11464999D01*
X252250000Y-20740000D02*
X252250000Y-13040000D01*
X192770000Y-27730000D02*
X190110000Y-27730000D01*
X190110000Y-27730000D02*
X189540000Y-28300000D01*
X189540000Y-28300000D02*
X189540000Y-30020000D01*
X190214999Y-30694999D02*
X217968501Y-30694999D01*
X218423512Y-31150010D02*
X228330000Y-31150010D01*
X217968501Y-30694999D02*
X218423512Y-31150010D01*
X189540000Y-30020000D02*
X190214999Y-30694999D01*
X226380000Y-29350000D02*
X226320000Y-29290000D01*
X228320000Y-29350000D02*
X226380000Y-29350000D01*
X217920000Y-28130000D02*
X218260000Y-27790000D01*
X251794990Y-30365010D02*
X245535010Y-30365010D01*
X252270000Y-29890000D02*
X251794990Y-30365010D01*
X252270000Y-29230000D02*
X252270000Y-29890000D01*
X245475010Y-30425010D02*
X218365010Y-30425010D01*
X245535010Y-30365010D02*
X245475010Y-30425010D01*
X218365010Y-30425010D02*
X217920000Y-29980000D01*
X217920000Y-29980000D02*
X217920000Y-28130000D01*
X218260000Y-27790000D02*
X221320000Y-27790000D01*
X183415000Y-54610000D02*
X186690000Y-54610000D01*
X182372000Y-54610000D02*
X181610000Y-53848000D01*
X183415000Y-54610000D02*
X182372000Y-54610000D01*
X191452500Y-35560000D02*
X188177500Y-35560000D01*
X181927500Y-16510000D02*
X178652500Y-16510000D01*
X177165000Y2540000D02*
X172250010Y2540000D01*
X172250010Y2540000D02*
X173890000Y2540000D01*
X173890000Y2540000D02*
X173890000Y-2080000D01*
X173890000Y-2080000D02*
X178652500Y-6842500D01*
X178652500Y-16510000D02*
X178652500Y-20662500D01*
X178652500Y-20662500D02*
X181620000Y-23630000D01*
X183805699Y-23630000D02*
X184675699Y-24500000D01*
X181620000Y-23630000D02*
X183805699Y-23630000D01*
X184675699Y-24500000D02*
X186010000Y-24500000D01*
X188177500Y-26667500D02*
X188177500Y-35560000D01*
X186010000Y-24500000D02*
X188177500Y-26667500D01*
X188177500Y-35560000D02*
X188177500Y-48272500D01*
X183415000Y-53035000D02*
X183415000Y-54610000D01*
X188177500Y-48272500D02*
X183415000Y-53035000D01*
X218535001Y-10484999D02*
X218140000Y-10880000D01*
X233475001Y-10484999D02*
X218535001Y-10484999D01*
X233740000Y-10220000D02*
X233475001Y-10484999D01*
X178652500Y-10747500D02*
X178652500Y-16510000D01*
X178652500Y-6842500D02*
X178652500Y-10747500D01*
X192970000Y-9810000D02*
X194200000Y-11040000D01*
X195690000Y-11340000D02*
X197702500Y-13352500D01*
X195390000Y-11040000D02*
X195690000Y-11340000D01*
X194200000Y-11040000D02*
X195390000Y-11040000D01*
X195510000Y-11160000D02*
X195690000Y-11340000D01*
X209609000Y-54610000D02*
X212884000Y-54610000D01*
X210502500Y-35560000D02*
X207227500Y-35560000D01*
X197702500Y-16510000D02*
X200977500Y-16510000D01*
X196215000Y2540000D02*
X192940000Y2540000D01*
X192940000Y-5230000D02*
X192970000Y-5260000D01*
X192940000Y2540000D02*
X192940000Y-5230000D01*
X197702500Y-13352500D02*
X197702500Y-16510000D01*
X197702500Y-16510000D02*
X197702500Y-20602500D01*
X197702500Y-20602500D02*
X199160000Y-22060000D01*
X203680000Y-22060000D02*
X204440000Y-22820000D01*
X199160000Y-22060000D02*
X203680000Y-22060000D01*
X207227500Y-34577500D02*
X207227500Y-35560000D01*
X204410000Y-31760000D02*
X207227500Y-34577500D01*
X207227500Y-35560000D02*
X207227500Y-38627500D01*
X207227500Y-38627500D02*
X209450000Y-40850000D01*
X209450000Y-54451000D02*
X209609000Y-54610000D01*
X209450000Y-50860000D02*
X209450000Y-54451000D01*
X233700000Y-8970000D02*
X232836489Y-9833511D01*
X218153511Y-9833511D02*
X218120000Y-9800000D01*
X232836489Y-9833511D02*
X218153511Y-9833511D01*
X209450000Y-41840000D02*
X209450000Y-42140000D01*
X209460000Y-41850000D02*
X209450000Y-41840000D01*
X209460000Y-44950000D02*
X209460000Y-41850000D01*
X209450000Y-40850000D02*
X209450000Y-41840000D01*
X238183500Y-54610000D02*
X241458500Y-54610000D01*
X229552500Y-35560000D02*
X226277500Y-35560000D01*
X216752500Y-16510000D02*
X220027500Y-16510000D01*
X215265000Y2540000D02*
X211990000Y2540000D01*
X211990000Y2540000D02*
X211990000Y-1050000D01*
X216650000Y-5710000D02*
X216650000Y-5880000D01*
X211990000Y-1050000D02*
X216650000Y-5710000D01*
X216752500Y-16510000D02*
X216752500Y-19132500D01*
X216752500Y-19132500D02*
X219640000Y-22020000D01*
X228690000Y-22020000D02*
X228770000Y-22100000D01*
X219640000Y-22020000D02*
X228690000Y-22020000D01*
X229640000Y-31240000D02*
X228800000Y-32080000D01*
X228800000Y-32080000D02*
X227200000Y-32080000D01*
X226277500Y-33002500D02*
X226277500Y-35560000D01*
X227200000Y-32080000D02*
X226277500Y-33002500D01*
X226277500Y-35560000D02*
X226277500Y-38687500D01*
X226277500Y-38687500D02*
X229430000Y-41840000D01*
X236520000Y-41840000D02*
X237890000Y-43210000D01*
X229430000Y-41840000D02*
X236520000Y-41840000D01*
X237880000Y-54306500D02*
X238183500Y-54610000D01*
X237880000Y-50360000D02*
X237880000Y-54306500D01*
X231846499Y-9383501D02*
X219196499Y-9383501D01*
X233630000Y-7600000D02*
X231846499Y-9383501D01*
X218772998Y-8960000D02*
X216650000Y-8960000D01*
X219196499Y-9383501D02*
X218772998Y-8960000D01*
X216640000Y-8970000D02*
X216650000Y-8960000D01*
X216640000Y-16397500D02*
X216640000Y-8970000D01*
X216752500Y-16510000D02*
X216640000Y-16397500D01*
X253365500Y-35560000D02*
X250090500Y-35560000D01*
X235802500Y-16510000D02*
X239077500Y-16510000D01*
X234315000Y2540000D02*
X231040000Y2540000D01*
X231040000Y-3150000D02*
X231450000Y-3560000D01*
X231040000Y2540000D02*
X231040000Y-3150000D01*
X235802500Y-13542500D02*
X235802500Y-16510000D01*
X233470000Y-11210000D02*
X235802500Y-13542500D01*
X233110000Y-11210000D02*
X233470000Y-11210000D01*
X239030000Y-11210000D02*
X233110000Y-11210000D01*
X231980000Y-11210000D02*
X233110000Y-11210000D01*
X235802500Y-18821002D02*
X237521498Y-20540000D01*
X235802500Y-16510000D02*
X235802500Y-18821002D01*
X250090500Y-35560000D02*
X250090500Y-33639500D01*
X251290000Y-32440000D02*
X255380000Y-32440000D01*
X250090500Y-33639500D02*
X251290000Y-32440000D01*
X239161498Y-22180000D02*
X239161498Y-22180000D01*
X249520000Y-22200000D02*
X239181498Y-22200000D01*
X239181498Y-22200000D02*
X238875749Y-21894251D01*
X238875749Y-21894251D02*
X239161498Y-22180000D01*
X237521498Y-20540000D02*
X238875749Y-21894251D01*
X240578000Y-9662000D02*
X240350000Y-9890000D01*
X240578000Y-7201400D02*
X240578000Y-9662000D01*
X240350000Y-9890000D02*
X239030000Y-11210000D01*
X254852500Y-16510000D02*
X258127500Y-16510000D01*
X255745999Y2540000D02*
X252470999Y2540000D01*
X238078000Y-10132000D02*
X238060000Y-10150000D01*
X252230000Y2299001D02*
X252470999Y2540000D01*
X252230000Y-710000D02*
X252230000Y2299001D01*
X254852500Y-12212500D02*
X254830000Y-12190000D01*
X254852500Y-16510000D02*
X254852500Y-12212500D01*
X235498000Y-7201400D02*
X235498000Y-9468000D01*
X236180000Y-10150000D02*
X238060000Y-10150000D01*
X235498000Y-9468000D02*
X236180000Y-10150000D01*
X254830000Y-12190000D02*
X261120000Y-12190000D01*
X265470000Y-7840000D02*
X265530000Y-7840000D01*
X261120000Y-12190000D02*
X265470000Y-7840000D01*
X250290000Y5140000D02*
X249140000Y3990000D01*
X243228001Y-4605001D02*
X244660000Y-3173002D01*
X241941400Y-5455010D02*
X242791409Y-4605001D01*
X217014583Y9775000D02*
X217014583Y6239415D01*
X240175599Y-5455011D02*
X241941400Y-5455010D01*
X239905609Y-5185021D02*
X240175599Y-5455011D01*
X228040019Y-5185021D02*
X239905609Y-5185021D01*
X242791409Y-4605001D02*
X243228001Y-4605001D01*
X226316499Y-3461501D02*
X228040019Y-5185021D01*
X224418492Y2754999D02*
X226316499Y856992D01*
X220498999Y2754999D02*
X224418492Y2754999D01*
X217014583Y6239415D02*
X220498999Y2754999D01*
X226316499Y856992D02*
X226316499Y-3461501D01*
X249140000Y1130000D02*
X249140000Y800000D01*
X249140000Y3990000D02*
X249140000Y1130000D01*
X249140000Y800000D02*
X248380000Y40000D01*
X248380000Y40000D02*
X248380000Y-560000D01*
X248380000Y-560000D02*
X247770000Y-1170000D01*
X247770000Y-1170000D02*
X245900000Y-1170000D01*
X245900000Y-1170000D02*
X244660000Y-2410000D01*
X244660000Y-2410000D02*
X244660000Y-2930000D01*
X244660000Y-2930000D02*
X244660000Y-2400000D01*
X244660000Y-3173002D02*
X244660000Y-2930000D01*
X255479400Y5140000D02*
X255260000Y5140000D01*
X258358000Y8018600D02*
X255479400Y5140000D01*
X255260000Y5140000D02*
X250290000Y5140000D01*
M02*
