G04 #@! TF.GenerationSoftware,KiCad,Pcbnew,(5.1.6-0-10_14)*
G04 #@! TF.CreationDate,2022-03-06T15:34:28+09:00*
G04 #@! TF.ProjectId,cool936,636f6f6c-3933-4362-9e6b-696361645f70,rev?*
G04 #@! TF.SameCoordinates,Original*
G04 #@! TF.FileFunction,Legend,Top*
G04 #@! TF.FilePolarity,Positive*
%FSLAX46Y46*%
G04 Gerber Fmt 4.6, Leading zero omitted, Abs format (unit mm)*
G04 Created by KiCad (PCBNEW (5.1.6-0-10_14)) date 2022-03-06 15:34:28*
%MOMM*%
%LPD*%
G01*
G04 APERTURE LIST*
%ADD10C,0.300000*%
%ADD11C,0.150000*%
G04 APERTURE END LIST*
D10*
X259652857Y-61002142D02*
X259510000Y-61073571D01*
X259224285Y-61073571D01*
X259081428Y-61002142D01*
X259010000Y-60930714D01*
X258938571Y-60787857D01*
X258938571Y-60359285D01*
X259010000Y-60216428D01*
X259081428Y-60145000D01*
X259224285Y-60073571D01*
X259510000Y-60073571D01*
X259652857Y-60145000D01*
X260510000Y-61073571D02*
X260367142Y-61002142D01*
X260295714Y-60930714D01*
X260224285Y-60787857D01*
X260224285Y-60359285D01*
X260295714Y-60216428D01*
X260367142Y-60145000D01*
X260510000Y-60073571D01*
X260724285Y-60073571D01*
X260867142Y-60145000D01*
X260938571Y-60216428D01*
X261010000Y-60359285D01*
X261010000Y-60787857D01*
X260938571Y-60930714D01*
X260867142Y-61002142D01*
X260724285Y-61073571D01*
X260510000Y-61073571D01*
X261867142Y-61073571D02*
X261724285Y-61002142D01*
X261652857Y-60930714D01*
X261581428Y-60787857D01*
X261581428Y-60359285D01*
X261652857Y-60216428D01*
X261724285Y-60145000D01*
X261867142Y-60073571D01*
X262081428Y-60073571D01*
X262224285Y-60145000D01*
X262295714Y-60216428D01*
X262367142Y-60359285D01*
X262367142Y-60787857D01*
X262295714Y-60930714D01*
X262224285Y-61002142D01*
X262081428Y-61073571D01*
X261867142Y-61073571D01*
X263224285Y-61073571D02*
X263081428Y-61002142D01*
X263010000Y-60859285D01*
X263010000Y-59573571D01*
X263867142Y-61073571D02*
X264152857Y-61073571D01*
X264295714Y-61002142D01*
X264367142Y-60930714D01*
X264510000Y-60716428D01*
X264581428Y-60430714D01*
X264581428Y-59859285D01*
X264510000Y-59716428D01*
X264438571Y-59645000D01*
X264295714Y-59573571D01*
X264010000Y-59573571D01*
X263867142Y-59645000D01*
X263795714Y-59716428D01*
X263724285Y-59859285D01*
X263724285Y-60216428D01*
X263795714Y-60359285D01*
X263867142Y-60430714D01*
X264010000Y-60502142D01*
X264295714Y-60502142D01*
X264438571Y-60430714D01*
X264510000Y-60359285D01*
X264581428Y-60216428D01*
X265081428Y-59573571D02*
X266010000Y-59573571D01*
X265510000Y-60145000D01*
X265724285Y-60145000D01*
X265867142Y-60216428D01*
X265938571Y-60287857D01*
X266010000Y-60430714D01*
X266010000Y-60787857D01*
X265938571Y-60930714D01*
X265867142Y-61002142D01*
X265724285Y-61073571D01*
X265295714Y-61073571D01*
X265152857Y-61002142D01*
X265081428Y-60930714D01*
X267295714Y-59573571D02*
X267010000Y-59573571D01*
X266867142Y-59645000D01*
X266795714Y-59716428D01*
X266652857Y-59930714D01*
X266581428Y-60216428D01*
X266581428Y-60787857D01*
X266652857Y-60930714D01*
X266724285Y-61002142D01*
X266867142Y-61073571D01*
X267152857Y-61073571D01*
X267295714Y-61002142D01*
X267367142Y-60930714D01*
X267438571Y-60787857D01*
X267438571Y-60430714D01*
X267367142Y-60287857D01*
X267295714Y-60216428D01*
X267152857Y-60145000D01*
X266867142Y-60145000D01*
X266724285Y-60216428D01*
X266652857Y-60287857D01*
X266581428Y-60430714D01*
X258652857Y-63623571D02*
X258652857Y-62623571D01*
X258652857Y-62909285D02*
X258724285Y-62766428D01*
X258795714Y-62695000D01*
X258938571Y-62623571D01*
X259081428Y-62623571D01*
X259581428Y-63623571D02*
X259581428Y-62623571D01*
X259581428Y-62123571D02*
X259510000Y-62195000D01*
X259581428Y-62266428D01*
X259652857Y-62195000D01*
X259581428Y-62123571D01*
X259581428Y-62266428D01*
X260938571Y-62623571D02*
X260938571Y-63837857D01*
X260867142Y-63980714D01*
X260795714Y-64052142D01*
X260652857Y-64123571D01*
X260438571Y-64123571D01*
X260295714Y-64052142D01*
X260938571Y-63552142D02*
X260795714Y-63623571D01*
X260510000Y-63623571D01*
X260367142Y-63552142D01*
X260295714Y-63480714D01*
X260224285Y-63337857D01*
X260224285Y-62909285D01*
X260295714Y-62766428D01*
X260367142Y-62695000D01*
X260510000Y-62623571D01*
X260795714Y-62623571D01*
X260938571Y-62695000D01*
X261652857Y-63623571D02*
X261652857Y-62123571D01*
X262295714Y-63623571D02*
X262295714Y-62837857D01*
X262224285Y-62695000D01*
X262081428Y-62623571D01*
X261867142Y-62623571D01*
X261724285Y-62695000D01*
X261652857Y-62766428D01*
X262795714Y-62623571D02*
X263367142Y-62623571D01*
X263010000Y-62123571D02*
X263010000Y-63409285D01*
X263081428Y-63552142D01*
X263224285Y-63623571D01*
X263367142Y-63623571D01*
X263510000Y-63766428D02*
X264652857Y-63766428D01*
X264938571Y-63552142D02*
X265081428Y-63623571D01*
X265367142Y-63623571D01*
X265510000Y-63552142D01*
X265581428Y-63409285D01*
X265581428Y-63337857D01*
X265510000Y-63195000D01*
X265367142Y-63123571D01*
X265152857Y-63123571D01*
X265010000Y-63052142D01*
X264938571Y-62909285D01*
X264938571Y-62837857D01*
X265010000Y-62695000D01*
X265152857Y-62623571D01*
X265367142Y-62623571D01*
X265510000Y-62695000D01*
X266224285Y-63623571D02*
X266224285Y-62623571D01*
X266224285Y-62123571D02*
X266152857Y-62195000D01*
X266224285Y-62266428D01*
X266295714Y-62195000D01*
X266224285Y-62123571D01*
X266224285Y-62266428D01*
X267581428Y-63623571D02*
X267581428Y-62123571D01*
X267581428Y-63552142D02*
X267438571Y-63623571D01*
X267152857Y-63623571D01*
X267010000Y-63552142D01*
X266938571Y-63480714D01*
X266867142Y-63337857D01*
X266867142Y-62909285D01*
X266938571Y-62766428D01*
X267010000Y-62695000D01*
X267152857Y-62623571D01*
X267438571Y-62623571D01*
X267581428Y-62695000D01*
X268867142Y-63552142D02*
X268724285Y-63623571D01*
X268438571Y-63623571D01*
X268295714Y-63552142D01*
X268224285Y-63409285D01*
X268224285Y-62837857D01*
X268295714Y-62695000D01*
X268438571Y-62623571D01*
X268724285Y-62623571D01*
X268867142Y-62695000D01*
X268938571Y-62837857D01*
X268938571Y-62980714D01*
X268224285Y-63123571D01*
D11*
X208990000Y-1590000D02*
X207490000Y-1590000D01*
X208990000Y-6990000D02*
X208990000Y-1590000D01*
X207490000Y-6990000D02*
X208990000Y-6990000D01*
X207490000Y-1590000D02*
X207490000Y-6990000D01*
X207740000Y-4790000D02*
X208740000Y-4790000D01*
X208740000Y-3790000D02*
X208240000Y-4690000D01*
X207740000Y-3790000D02*
X208740000Y-3790000D01*
X208240000Y-4690000D02*
X207740000Y-3790000D01*
X228090000Y-1850000D02*
X226590000Y-1850000D01*
X228090000Y-7250000D02*
X228090000Y-1850000D01*
X226590000Y-7250000D02*
X228090000Y-7250000D01*
X226590000Y-1850000D02*
X226590000Y-7250000D01*
X226840000Y-5050000D02*
X227840000Y-5050000D01*
X227840000Y-4050000D02*
X227340000Y-4950000D01*
X226840000Y-4050000D02*
X227840000Y-4050000D01*
X227340000Y-4950000D02*
X226840000Y-4050000D01*
X247730000Y1910000D02*
X246230000Y1910000D01*
X247730000Y-3490000D02*
X247730000Y1910000D01*
X246230000Y-3490000D02*
X247730000Y-3490000D01*
X246230000Y1910000D02*
X246230000Y-3490000D01*
X246480000Y-1290000D02*
X247480000Y-1290000D01*
X247480000Y-290000D02*
X246980000Y-1190000D01*
X246480000Y-290000D02*
X247480000Y-290000D01*
X246980000Y-1190000D02*
X246480000Y-290000D01*
X189930000Y-1720000D02*
X188430000Y-1720000D01*
X189930000Y-7120000D02*
X189930000Y-1720000D01*
X188430000Y-7120000D02*
X189930000Y-7120000D01*
X188430000Y-1720000D02*
X188430000Y-7120000D01*
X188680000Y-4920000D02*
X189680000Y-4920000D01*
X189680000Y-3920000D02*
X189180000Y-4820000D01*
X188680000Y-3920000D02*
X189680000Y-3920000D01*
X189180000Y-4820000D02*
X188680000Y-3920000D01*
X194760000Y-18520000D02*
X193260000Y-18520000D01*
X194760000Y-23920000D02*
X194760000Y-18520000D01*
X193260000Y-23920000D02*
X194760000Y-23920000D01*
X193260000Y-18520000D02*
X193260000Y-23920000D01*
X193510000Y-21720000D02*
X194510000Y-21720000D01*
X194510000Y-20720000D02*
X194010000Y-21620000D01*
X193510000Y-20720000D02*
X194510000Y-20720000D01*
X194010000Y-21620000D02*
X193510000Y-20720000D01*
X213630000Y-18710000D02*
X212130000Y-18710000D01*
X213630000Y-24110000D02*
X213630000Y-18710000D01*
X212130000Y-24110000D02*
X213630000Y-24110000D01*
X212130000Y-18710000D02*
X212130000Y-24110000D01*
X212380000Y-21910000D02*
X213380000Y-21910000D01*
X213380000Y-20910000D02*
X212880000Y-21810000D01*
X212380000Y-20910000D02*
X213380000Y-20910000D01*
X212880000Y-21810000D02*
X212380000Y-20910000D01*
X232830000Y-20240000D02*
X231330000Y-20240000D01*
X232830000Y-25640000D02*
X232830000Y-20240000D01*
X231330000Y-25640000D02*
X232830000Y-25640000D01*
X231330000Y-20240000D02*
X231330000Y-25640000D01*
X231580000Y-23440000D02*
X232580000Y-23440000D01*
X232580000Y-22440000D02*
X232080000Y-23340000D01*
X231580000Y-22440000D02*
X232580000Y-22440000D01*
X232080000Y-23340000D02*
X231580000Y-22440000D01*
X235320000Y-20220000D02*
X233820000Y-20220000D01*
X235320000Y-25620000D02*
X235320000Y-20220000D01*
X233820000Y-25620000D02*
X235320000Y-25620000D01*
X233820000Y-20220000D02*
X233820000Y-25620000D01*
X234070000Y-23420000D02*
X235070000Y-23420000D01*
X235070000Y-22420000D02*
X234570000Y-23320000D01*
X234070000Y-22420000D02*
X235070000Y-22420000D01*
X234570000Y-23320000D02*
X234070000Y-22420000D01*
X264890000Y-28200000D02*
X264890000Y-26700000D01*
X259490000Y-28200000D02*
X264890000Y-28200000D01*
X259490000Y-26700000D02*
X259490000Y-28200000D01*
X264890000Y-26700000D02*
X259490000Y-26700000D01*
X261690000Y-26950000D02*
X261690000Y-27950000D01*
X262690000Y-27950000D02*
X261790000Y-27450000D01*
X262690000Y-26950000D02*
X262690000Y-27950000D01*
X261790000Y-27450000D02*
X262690000Y-26950000D01*
X204250000Y-39640000D02*
X202750000Y-39640000D01*
X204250000Y-45040000D02*
X204250000Y-39640000D01*
X202750000Y-45040000D02*
X204250000Y-45040000D01*
X202750000Y-39640000D02*
X202750000Y-45040000D01*
X203000000Y-42840000D02*
X204000000Y-42840000D01*
X204000000Y-41840000D02*
X203500000Y-42740000D01*
X203000000Y-41840000D02*
X204000000Y-41840000D01*
X203500000Y-42740000D02*
X203000000Y-41840000D01*
X223250000Y-39670000D02*
X221750000Y-39670000D01*
X223250000Y-45070000D02*
X223250000Y-39670000D01*
X221750000Y-45070000D02*
X223250000Y-45070000D01*
X221750000Y-39670000D02*
X221750000Y-45070000D01*
X222000000Y-42870000D02*
X223000000Y-42870000D01*
X223000000Y-41870000D02*
X222500000Y-42770000D01*
X222000000Y-41870000D02*
X223000000Y-41870000D01*
X222500000Y-42770000D02*
X222000000Y-41870000D01*
X244530000Y-34350000D02*
X243030000Y-34350000D01*
X244530000Y-39750000D02*
X244530000Y-34350000D01*
X243030000Y-39750000D02*
X244530000Y-39750000D01*
X243030000Y-34350000D02*
X243030000Y-39750000D01*
X243280000Y-37550000D02*
X244280000Y-37550000D01*
X244280000Y-36550000D02*
X243780000Y-37450000D01*
X243280000Y-36550000D02*
X244280000Y-36550000D01*
X243780000Y-37450000D02*
X243280000Y-36550000D01*
X202510000Y-52390000D02*
X201010000Y-52390000D01*
X202510000Y-57790000D02*
X202510000Y-52390000D01*
X201010000Y-57790000D02*
X202510000Y-57790000D01*
X201010000Y-52390000D02*
X201010000Y-57790000D01*
X201260000Y-55590000D02*
X202260000Y-55590000D01*
X202260000Y-54590000D02*
X201760000Y-55490000D01*
X201260000Y-54590000D02*
X202260000Y-54590000D01*
X201760000Y-55490000D02*
X201260000Y-54590000D01*
X268580000Y220000D02*
X267080000Y220000D01*
X268580000Y-5180000D02*
X268580000Y220000D01*
X267080000Y-5180000D02*
X268580000Y-5180000D01*
X267080000Y220000D02*
X267080000Y-5180000D01*
X267330000Y-2980000D02*
X268330000Y-2980000D01*
X268330000Y-1980000D02*
X267830000Y-2880000D01*
X267330000Y-1980000D02*
X268330000Y-1980000D01*
X267830000Y-2880000D02*
X267330000Y-1980000D01*
X257230000Y-52375000D02*
X255730000Y-52375000D01*
X257230000Y-57775000D02*
X257230000Y-52375000D01*
X255730000Y-57775000D02*
X257230000Y-57775000D01*
X255730000Y-52375000D02*
X255730000Y-57775000D01*
X255980000Y-55575000D02*
X256980000Y-55575000D01*
X256980000Y-54575000D02*
X256480000Y-55475000D01*
X255980000Y-54575000D02*
X256980000Y-54575000D01*
X256480000Y-55475000D02*
X255980000Y-54575000D01*
X247180000Y-34350000D02*
X245680000Y-34350000D01*
X247180000Y-39750000D02*
X247180000Y-34350000D01*
X245680000Y-39750000D02*
X247180000Y-39750000D01*
X245680000Y-34350000D02*
X245680000Y-39750000D01*
X245930000Y-37550000D02*
X246930000Y-37550000D01*
X246930000Y-36550000D02*
X246430000Y-37450000D01*
X245930000Y-36550000D02*
X246930000Y-36550000D01*
X246430000Y-37450000D02*
X245930000Y-36550000D01*
X232390000Y-55540000D02*
X231890000Y-54640000D01*
X231890000Y-54640000D02*
X232890000Y-54640000D01*
X232890000Y-54640000D02*
X232390000Y-55540000D01*
X231890000Y-55640000D02*
X232890000Y-55640000D01*
X231640000Y-52440000D02*
X231640000Y-57840000D01*
X231640000Y-57840000D02*
X233140000Y-57840000D01*
X233140000Y-57840000D02*
X233140000Y-52440000D01*
X233140000Y-52440000D02*
X231640000Y-52440000D01*
X191222380Y-30658571D02*
X191365238Y-30706190D01*
X191412857Y-30753809D01*
X191460476Y-30849047D01*
X191460476Y-30991904D01*
X191412857Y-31087142D01*
X191365238Y-31134761D01*
X191270000Y-31182380D01*
X190889047Y-31182380D01*
X190889047Y-30182380D01*
X191222380Y-30182380D01*
X191317619Y-30230000D01*
X191365238Y-30277619D01*
X191412857Y-30372857D01*
X191412857Y-30468095D01*
X191365238Y-30563333D01*
X191317619Y-30610952D01*
X191222380Y-30658571D01*
X190889047Y-30658571D01*
X192031904Y-31182380D02*
X191936666Y-31134761D01*
X191889047Y-31087142D01*
X191841428Y-30991904D01*
X191841428Y-30706190D01*
X191889047Y-30610952D01*
X191936666Y-30563333D01*
X192031904Y-30515714D01*
X192174761Y-30515714D01*
X192270000Y-30563333D01*
X192317619Y-30610952D01*
X192365238Y-30706190D01*
X192365238Y-30991904D01*
X192317619Y-31087142D01*
X192270000Y-31134761D01*
X192174761Y-31182380D01*
X192031904Y-31182380D01*
X192650952Y-30515714D02*
X193031904Y-30515714D01*
X192793809Y-30182380D02*
X192793809Y-31039523D01*
X192841428Y-31134761D01*
X192936666Y-31182380D01*
X193031904Y-31182380D01*
X193222380Y-30515714D02*
X193603333Y-30515714D01*
X193365238Y-30182380D02*
X193365238Y-31039523D01*
X193412857Y-31134761D01*
X193508095Y-31182380D01*
X193603333Y-31182380D01*
X194079523Y-31182380D02*
X193984285Y-31134761D01*
X193936666Y-31087142D01*
X193889047Y-30991904D01*
X193889047Y-30706190D01*
X193936666Y-30610952D01*
X193984285Y-30563333D01*
X194079523Y-30515714D01*
X194222380Y-30515714D01*
X194317619Y-30563333D01*
X194365238Y-30610952D01*
X194412857Y-30706190D01*
X194412857Y-30991904D01*
X194365238Y-31087142D01*
X194317619Y-31134761D01*
X194222380Y-31182380D01*
X194079523Y-31182380D01*
X194841428Y-31182380D02*
X194841428Y-30515714D01*
X194841428Y-30610952D02*
X194889047Y-30563333D01*
X194984285Y-30515714D01*
X195127142Y-30515714D01*
X195222380Y-30563333D01*
X195270000Y-30658571D01*
X195270000Y-31182380D01*
X195270000Y-30658571D02*
X195317619Y-30563333D01*
X195412857Y-30515714D01*
X195555714Y-30515714D01*
X195650952Y-30563333D01*
X195698571Y-30658571D01*
X195698571Y-31182380D01*
X196889047Y-31134761D02*
X197031904Y-31182380D01*
X197270000Y-31182380D01*
X197365238Y-31134761D01*
X197412857Y-31087142D01*
X197460476Y-30991904D01*
X197460476Y-30896666D01*
X197412857Y-30801428D01*
X197365238Y-30753809D01*
X197270000Y-30706190D01*
X197079523Y-30658571D01*
X196984285Y-30610952D01*
X196936666Y-30563333D01*
X196889047Y-30468095D01*
X196889047Y-30372857D01*
X196936666Y-30277619D01*
X196984285Y-30230000D01*
X197079523Y-30182380D01*
X197317619Y-30182380D01*
X197460476Y-30230000D01*
X197889047Y-31182380D02*
X197889047Y-30515714D01*
X197889047Y-30182380D02*
X197841428Y-30230000D01*
X197889047Y-30277619D01*
X197936666Y-30230000D01*
X197889047Y-30182380D01*
X197889047Y-30277619D01*
X198793809Y-31182380D02*
X198793809Y-30182380D01*
X198793809Y-31134761D02*
X198698571Y-31182380D01*
X198508095Y-31182380D01*
X198412857Y-31134761D01*
X198365238Y-31087142D01*
X198317619Y-30991904D01*
X198317619Y-30706190D01*
X198365238Y-30610952D01*
X198412857Y-30563333D01*
X198508095Y-30515714D01*
X198698571Y-30515714D01*
X198793809Y-30563333D01*
X199650952Y-31134761D02*
X199555714Y-31182380D01*
X199365238Y-31182380D01*
X199270000Y-31134761D01*
X199222380Y-31039523D01*
X199222380Y-30658571D01*
X199270000Y-30563333D01*
X199365238Y-30515714D01*
X199555714Y-30515714D01*
X199650952Y-30563333D01*
X199698571Y-30658571D01*
X199698571Y-30753809D01*
X199222380Y-30849047D01*
X219772380Y-30718571D02*
X219915238Y-30766190D01*
X219962857Y-30813809D01*
X220010476Y-30909047D01*
X220010476Y-31051904D01*
X219962857Y-31147142D01*
X219915238Y-31194761D01*
X219820000Y-31242380D01*
X219439047Y-31242380D01*
X219439047Y-30242380D01*
X219772380Y-30242380D01*
X219867619Y-30290000D01*
X219915238Y-30337619D01*
X219962857Y-30432857D01*
X219962857Y-30528095D01*
X219915238Y-30623333D01*
X219867619Y-30670952D01*
X219772380Y-30718571D01*
X219439047Y-30718571D01*
X220581904Y-31242380D02*
X220486666Y-31194761D01*
X220439047Y-31147142D01*
X220391428Y-31051904D01*
X220391428Y-30766190D01*
X220439047Y-30670952D01*
X220486666Y-30623333D01*
X220581904Y-30575714D01*
X220724761Y-30575714D01*
X220820000Y-30623333D01*
X220867619Y-30670952D01*
X220915238Y-30766190D01*
X220915238Y-31051904D01*
X220867619Y-31147142D01*
X220820000Y-31194761D01*
X220724761Y-31242380D01*
X220581904Y-31242380D01*
X221200952Y-30575714D02*
X221581904Y-30575714D01*
X221343809Y-30242380D02*
X221343809Y-31099523D01*
X221391428Y-31194761D01*
X221486666Y-31242380D01*
X221581904Y-31242380D01*
X221772380Y-30575714D02*
X222153333Y-30575714D01*
X221915238Y-30242380D02*
X221915238Y-31099523D01*
X221962857Y-31194761D01*
X222058095Y-31242380D01*
X222153333Y-31242380D01*
X222629523Y-31242380D02*
X222534285Y-31194761D01*
X222486666Y-31147142D01*
X222439047Y-31051904D01*
X222439047Y-30766190D01*
X222486666Y-30670952D01*
X222534285Y-30623333D01*
X222629523Y-30575714D01*
X222772380Y-30575714D01*
X222867619Y-30623333D01*
X222915238Y-30670952D01*
X222962857Y-30766190D01*
X222962857Y-31051904D01*
X222915238Y-31147142D01*
X222867619Y-31194761D01*
X222772380Y-31242380D01*
X222629523Y-31242380D01*
X223391428Y-31242380D02*
X223391428Y-30575714D01*
X223391428Y-30670952D02*
X223439047Y-30623333D01*
X223534285Y-30575714D01*
X223677142Y-30575714D01*
X223772380Y-30623333D01*
X223820000Y-30718571D01*
X223820000Y-31242380D01*
X223820000Y-30718571D02*
X223867619Y-30623333D01*
X223962857Y-30575714D01*
X224105714Y-30575714D01*
X224200952Y-30623333D01*
X224248571Y-30718571D01*
X224248571Y-31242380D01*
X225439047Y-31194761D02*
X225581904Y-31242380D01*
X225820000Y-31242380D01*
X225915238Y-31194761D01*
X225962857Y-31147142D01*
X226010476Y-31051904D01*
X226010476Y-30956666D01*
X225962857Y-30861428D01*
X225915238Y-30813809D01*
X225820000Y-30766190D01*
X225629523Y-30718571D01*
X225534285Y-30670952D01*
X225486666Y-30623333D01*
X225439047Y-30528095D01*
X225439047Y-30432857D01*
X225486666Y-30337619D01*
X225534285Y-30290000D01*
X225629523Y-30242380D01*
X225867619Y-30242380D01*
X226010476Y-30290000D01*
X226439047Y-31242380D02*
X226439047Y-30575714D01*
X226439047Y-30242380D02*
X226391428Y-30290000D01*
X226439047Y-30337619D01*
X226486666Y-30290000D01*
X226439047Y-30242380D01*
X226439047Y-30337619D01*
X227343809Y-31242380D02*
X227343809Y-30242380D01*
X227343809Y-31194761D02*
X227248571Y-31242380D01*
X227058095Y-31242380D01*
X226962857Y-31194761D01*
X226915238Y-31147142D01*
X226867619Y-31051904D01*
X226867619Y-30766190D01*
X226915238Y-30670952D01*
X226962857Y-30623333D01*
X227058095Y-30575714D01*
X227248571Y-30575714D01*
X227343809Y-30623333D01*
X228200952Y-31194761D02*
X228105714Y-31242380D01*
X227915238Y-31242380D01*
X227820000Y-31194761D01*
X227772380Y-31099523D01*
X227772380Y-30718571D01*
X227820000Y-30623333D01*
X227915238Y-30575714D01*
X228105714Y-30575714D01*
X228200952Y-30623333D01*
X228248571Y-30718571D01*
X228248571Y-30813809D01*
X227772380Y-30909047D01*
X245722380Y-30658571D02*
X245865238Y-30706190D01*
X245912857Y-30753809D01*
X245960476Y-30849047D01*
X245960476Y-30991904D01*
X245912857Y-31087142D01*
X245865238Y-31134761D01*
X245770000Y-31182380D01*
X245389047Y-31182380D01*
X245389047Y-30182380D01*
X245722380Y-30182380D01*
X245817619Y-30230000D01*
X245865238Y-30277619D01*
X245912857Y-30372857D01*
X245912857Y-30468095D01*
X245865238Y-30563333D01*
X245817619Y-30610952D01*
X245722380Y-30658571D01*
X245389047Y-30658571D01*
X246531904Y-31182380D02*
X246436666Y-31134761D01*
X246389047Y-31087142D01*
X246341428Y-30991904D01*
X246341428Y-30706190D01*
X246389047Y-30610952D01*
X246436666Y-30563333D01*
X246531904Y-30515714D01*
X246674761Y-30515714D01*
X246770000Y-30563333D01*
X246817619Y-30610952D01*
X246865238Y-30706190D01*
X246865238Y-30991904D01*
X246817619Y-31087142D01*
X246770000Y-31134761D01*
X246674761Y-31182380D01*
X246531904Y-31182380D01*
X247150952Y-30515714D02*
X247531904Y-30515714D01*
X247293809Y-30182380D02*
X247293809Y-31039523D01*
X247341428Y-31134761D01*
X247436666Y-31182380D01*
X247531904Y-31182380D01*
X247722380Y-30515714D02*
X248103333Y-30515714D01*
X247865238Y-30182380D02*
X247865238Y-31039523D01*
X247912857Y-31134761D01*
X248008095Y-31182380D01*
X248103333Y-31182380D01*
X248579523Y-31182380D02*
X248484285Y-31134761D01*
X248436666Y-31087142D01*
X248389047Y-30991904D01*
X248389047Y-30706190D01*
X248436666Y-30610952D01*
X248484285Y-30563333D01*
X248579523Y-30515714D01*
X248722380Y-30515714D01*
X248817619Y-30563333D01*
X248865238Y-30610952D01*
X248912857Y-30706190D01*
X248912857Y-30991904D01*
X248865238Y-31087142D01*
X248817619Y-31134761D01*
X248722380Y-31182380D01*
X248579523Y-31182380D01*
X249341428Y-31182380D02*
X249341428Y-30515714D01*
X249341428Y-30610952D02*
X249389047Y-30563333D01*
X249484285Y-30515714D01*
X249627142Y-30515714D01*
X249722380Y-30563333D01*
X249770000Y-30658571D01*
X249770000Y-31182380D01*
X249770000Y-30658571D02*
X249817619Y-30563333D01*
X249912857Y-30515714D01*
X250055714Y-30515714D01*
X250150952Y-30563333D01*
X250198571Y-30658571D01*
X250198571Y-31182380D01*
X251389047Y-31134761D02*
X251531904Y-31182380D01*
X251770000Y-31182380D01*
X251865238Y-31134761D01*
X251912857Y-31087142D01*
X251960476Y-30991904D01*
X251960476Y-30896666D01*
X251912857Y-30801428D01*
X251865238Y-30753809D01*
X251770000Y-30706190D01*
X251579523Y-30658571D01*
X251484285Y-30610952D01*
X251436666Y-30563333D01*
X251389047Y-30468095D01*
X251389047Y-30372857D01*
X251436666Y-30277619D01*
X251484285Y-30230000D01*
X251579523Y-30182380D01*
X251817619Y-30182380D01*
X251960476Y-30230000D01*
X252389047Y-31182380D02*
X252389047Y-30515714D01*
X252389047Y-30182380D02*
X252341428Y-30230000D01*
X252389047Y-30277619D01*
X252436666Y-30230000D01*
X252389047Y-30182380D01*
X252389047Y-30277619D01*
X253293809Y-31182380D02*
X253293809Y-30182380D01*
X253293809Y-31134761D02*
X253198571Y-31182380D01*
X253008095Y-31182380D01*
X252912857Y-31134761D01*
X252865238Y-31087142D01*
X252817619Y-30991904D01*
X252817619Y-30706190D01*
X252865238Y-30610952D01*
X252912857Y-30563333D01*
X253008095Y-30515714D01*
X253198571Y-30515714D01*
X253293809Y-30563333D01*
X254150952Y-31134761D02*
X254055714Y-31182380D01*
X253865238Y-31182380D01*
X253770000Y-31134761D01*
X253722380Y-31039523D01*
X253722380Y-30658571D01*
X253770000Y-30563333D01*
X253865238Y-30515714D01*
X254055714Y-30515714D01*
X254150952Y-30563333D01*
X254198571Y-30658571D01*
X254198571Y-30753809D01*
X253722380Y-30849047D01*
M02*
