G04 #@! TF.GenerationSoftware,KiCad,Pcbnew,(5.1.6-0-10_14)*
G04 #@! TF.CreationDate,2022-03-08T14:53:14+09:00*
G04 #@! TF.ProjectId,cool936,636f6f6c-3933-4362-9e6b-696361645f70,rev?*
G04 #@! TF.SameCoordinates,Original*
G04 #@! TF.FileFunction,Profile,NP*
%FSLAX46Y46*%
G04 Gerber Fmt 4.6, Leading zero omitted, Abs format (unit mm)*
G04 Created by KiCad (PCBNEW (5.1.6-0-10_14)) date 2022-03-08 14:53:14*
%MOMM*%
%LPD*%
G01*
G04 APERTURE LIST*
G04 #@! TA.AperFunction,Profile*
%ADD10C,0.150000*%
G04 #@! TD*
G04 APERTURE END LIST*
D10*
X84250000Y77620000D02*
X98240000Y77620000D01*
X79190000Y91620000D02*
X65200000Y91620000D01*
X65200000Y91620000D02*
X65200000Y77620000D01*
X130450000Y117120000D02*
G75*
G03*
X130450000Y117120000I-1100000J0D01*
G01*
X79190000Y77620000D02*
X79190000Y91620000D01*
X130450000Y91130000D02*
G75*
G03*
X130450000Y91130000I-1100000J0D01*
G01*
X79590000Y121880000D02*
X134280000Y121870000D01*
X84250000Y91620000D02*
X84250000Y77620000D01*
X88710000Y53520000D02*
X74720000Y53520000D01*
X70810000Y127510000D02*
X17490000Y121870000D01*
X98240000Y77620000D02*
X98240000Y91620000D01*
X55380000Y96670000D02*
X55380000Y110670000D01*
X41390000Y110670000D02*
X41390000Y96670000D01*
X41390000Y96670000D02*
X55380000Y96670000D01*
X9749897Y36060103D02*
X9749897Y114129897D01*
X134280000Y121870000D02*
X134290000Y111870000D01*
X58290000Y121800000D02*
G75*
G03*
X58290000Y121800000I-1100000J0D01*
G01*
X134290000Y28320000D02*
X17490000Y28320000D01*
X93770000Y72570000D02*
X93770000Y58570000D01*
X117290000Y77620000D02*
X117290000Y91620000D01*
X103300000Y77620000D02*
X117290000Y77620000D01*
X69660000Y72570000D02*
X55670000Y72570000D01*
X55670000Y72570000D02*
X55670000Y58570000D01*
X29480000Y72570000D02*
X29480000Y58570000D01*
X36620000Y53520000D02*
X36620000Y39520000D01*
X24720000Y77620000D02*
X38710000Y77620000D01*
X74420000Y96670000D02*
X74420000Y110670000D01*
X88710000Y72570000D02*
X74720000Y72570000D01*
X88710000Y58570000D02*
X88710000Y72570000D01*
X74720000Y58570000D02*
X88710000Y58570000D01*
X55670000Y39520000D02*
X69660000Y39520000D01*
X114910000Y39520000D02*
X114910000Y53520000D01*
X112820000Y58570000D02*
X126810000Y58570000D01*
X50610000Y53520000D02*
X36620000Y53520000D01*
X60140000Y91620000D02*
X46150000Y91620000D01*
X38710000Y91620000D02*
X24720000Y91620000D01*
X46150000Y91620000D02*
X46150000Y77620000D01*
X36320000Y96670000D02*
X36320000Y110670000D01*
X22330000Y110670000D02*
X22330000Y96670000D01*
X134290000Y53520000D02*
X134290654Y32039952D01*
X130450000Y33560000D02*
G75*
G03*
X130450000Y33560000I-1100000J0D01*
G01*
X85040000Y117120000D02*
G75*
G03*
X85040000Y117120000I-1100000J0D01*
G01*
X55670000Y53520000D02*
X55670000Y39520000D01*
X69660000Y39520000D02*
X69660000Y53520000D01*
X16490000Y91130000D02*
G75*
G03*
X16490000Y91130000I-1100000J0D01*
G01*
X100920000Y39520000D02*
X114910000Y39520000D01*
X55380000Y110670000D02*
X41390000Y110670000D01*
X93480000Y96670000D02*
X93480000Y110670000D01*
X112530000Y110670000D02*
X98540000Y110670000D01*
X79490000Y110670000D02*
X79490000Y96670000D01*
X98540000Y96670000D02*
X112530000Y96670000D01*
X98540000Y110670000D02*
X98540000Y96670000D01*
X46150000Y77620000D02*
X60140000Y77620000D01*
X16490000Y33560000D02*
G75*
G03*
X16490000Y33560000I-1100000J0D01*
G01*
X16490000Y117120000D02*
G75*
G03*
X16490000Y117120000I-1100000J0D01*
G01*
X100920000Y53520000D02*
X100920000Y39520000D01*
X43470000Y58570000D02*
X43470000Y72570000D01*
X29480000Y58570000D02*
X43470000Y58570000D01*
X43470000Y72570000D02*
X29480000Y72570000D01*
X17490000Y28320000D02*
G75*
G02*
X9749897Y36060103I0J7740103D01*
G01*
X60140000Y77620000D02*
X60140000Y91620000D01*
X36620000Y39520000D02*
X50610000Y39520000D01*
X74720000Y53520000D02*
X74720000Y39520000D01*
X88710000Y39520000D02*
X88710000Y53520000D01*
X71820000Y125770000D02*
X70810000Y127510000D01*
X74720000Y39520000D02*
X88710000Y39520000D01*
X85040000Y33560000D02*
G75*
G03*
X85040000Y33560000I-1100000J0D01*
G01*
X134290000Y28320000D02*
X134290654Y32039952D01*
X71820000Y125770000D02*
X75550000Y119570000D01*
X74720000Y72570000D02*
X74720000Y58570000D01*
X65200000Y77620000D02*
X79190000Y77620000D01*
X69660000Y53520000D02*
X55670000Y53520000D01*
X22330000Y96670000D02*
X36320000Y96670000D01*
X38710000Y77620000D02*
X38710000Y91620000D01*
X24720000Y91620000D02*
X24720000Y77620000D01*
X126810000Y72570000D02*
X112820000Y72570000D01*
X36320000Y110670000D02*
X22330000Y110670000D01*
X126810000Y58570000D02*
X126810000Y72570000D01*
X79490000Y96670000D02*
X93480000Y96670000D01*
X117290000Y91620000D02*
X103300000Y91620000D01*
X98240000Y91620000D02*
X84250000Y91620000D01*
X93480000Y110670000D02*
X79490000Y110670000D01*
X69660000Y58570000D02*
X69660000Y72570000D01*
X50610000Y39520000D02*
X50610000Y53520000D01*
X107760000Y72570000D02*
X93770000Y72570000D01*
X107760000Y58570000D02*
X107760000Y72570000D01*
X114910000Y53520000D02*
X100920000Y53520000D01*
X60430000Y110670000D02*
X60430000Y96670000D01*
X60430000Y96670000D02*
X74420000Y96670000D01*
X74420000Y110670000D02*
X60430000Y110670000D01*
X103300000Y91620000D02*
X103300000Y77620000D01*
X75550000Y119570000D02*
X79590000Y121880000D01*
X134290000Y111870000D02*
X134290000Y53520000D01*
X112820000Y72570000D02*
X112820000Y58570000D01*
X112530000Y96670000D02*
X112530000Y110670000D01*
X9749897Y114129897D02*
G75*
G02*
X17490000Y121870000I7740103J0D01*
G01*
X58290000Y33560000D02*
G75*
G03*
X58290000Y33560000I-1100000J0D01*
G01*
X55670000Y58570000D02*
X69660000Y58570000D01*
X93770000Y58570000D02*
X107760000Y58570000D01*
M02*
