G04 #@! TF.GenerationSoftware,KiCad,Pcbnew,(5.1.6-0-10_14)*
G04 #@! TF.CreationDate,2022-05-03T07:19:32+09:00*
G04 #@! TF.ProjectId,cool936,636f6f6c-3933-4362-9e6b-696361645f70,rev?*
G04 #@! TF.SameCoordinates,Original*
G04 #@! TF.FileFunction,Soldermask,Bot*
G04 #@! TF.FilePolarity,Negative*
%FSLAX46Y46*%
G04 Gerber Fmt 4.6, Leading zero omitted, Abs format (unit mm)*
G04 Created by KiCad (PCBNEW (5.1.6-0-10_14)) date 2022-05-03 07:19:32*
%MOMM*%
%LPD*%
G01*
G04 APERTURE LIST*
%ADD10C,0.100000*%
G04 APERTURE END LIST*
D10*
G36*
X95849500Y-61239500D02*
G01*
X94350500Y-61239500D01*
X94350500Y-59740500D01*
X95849500Y-59740500D01*
X95849500Y-61239500D01*
G37*
G36*
X92839500Y-61239500D02*
G01*
X91340500Y-61239500D01*
X91340500Y-59740500D01*
X92839500Y-59740500D01*
X92839500Y-61239500D01*
G37*
G36*
X62390036Y-55102827D02*
G01*
X62525339Y-55129740D01*
X62907697Y-55288118D01*
X63251810Y-55518047D01*
X63544453Y-55810690D01*
X63774382Y-56154803D01*
X63922297Y-56511900D01*
X63932760Y-56537162D01*
X64013500Y-56943068D01*
X64013500Y-57356932D01*
X63960347Y-57624149D01*
X63932760Y-57762839D01*
X63774382Y-58145197D01*
X63544453Y-58489310D01*
X63251810Y-58781953D01*
X62907697Y-59011882D01*
X62525339Y-59170260D01*
X62390036Y-59197173D01*
X62119432Y-59251000D01*
X61705568Y-59251000D01*
X61434964Y-59197173D01*
X61299661Y-59170260D01*
X60917303Y-59011882D01*
X60573190Y-58781953D01*
X60280547Y-58489310D01*
X60050618Y-58145197D01*
X59892240Y-57762839D01*
X59864653Y-57624149D01*
X59811500Y-57356932D01*
X59811500Y-56943068D01*
X59892240Y-56537162D01*
X59902704Y-56511900D01*
X60050618Y-56154803D01*
X60280547Y-55810690D01*
X60573190Y-55518047D01*
X60917303Y-55288118D01*
X61299661Y-55129740D01*
X61434964Y-55102827D01*
X61705568Y-55049000D01*
X62119432Y-55049000D01*
X62390036Y-55102827D01*
G37*
G36*
X43340036Y-55102827D02*
G01*
X43475339Y-55129740D01*
X43857697Y-55288118D01*
X44201810Y-55518047D01*
X44494453Y-55810690D01*
X44724382Y-56154803D01*
X44872297Y-56511900D01*
X44882760Y-56537162D01*
X44963500Y-56943068D01*
X44963500Y-57356932D01*
X44910347Y-57624149D01*
X44882760Y-57762839D01*
X44724382Y-58145197D01*
X44494453Y-58489310D01*
X44201810Y-58781953D01*
X43857697Y-59011882D01*
X43475339Y-59170260D01*
X43340036Y-59197173D01*
X43069432Y-59251000D01*
X42655568Y-59251000D01*
X42384964Y-59197173D01*
X42249661Y-59170260D01*
X41867303Y-59011882D01*
X41523190Y-58781953D01*
X41230547Y-58489310D01*
X41000618Y-58145197D01*
X40842240Y-57762839D01*
X40814653Y-57624149D01*
X40761500Y-57356932D01*
X40761500Y-56943068D01*
X40842240Y-56537162D01*
X40852704Y-56511900D01*
X41000618Y-56154803D01*
X41230547Y-55810690D01*
X41523190Y-55518047D01*
X41867303Y-55288118D01*
X42249661Y-55129740D01*
X42384964Y-55102827D01*
X42655568Y-55049000D01*
X43069432Y-55049000D01*
X43340036Y-55102827D01*
G37*
G36*
X107634036Y-55102827D02*
G01*
X107769339Y-55129740D01*
X108151697Y-55288118D01*
X108495810Y-55518047D01*
X108788453Y-55810690D01*
X109018382Y-56154803D01*
X109166297Y-56511900D01*
X109176760Y-56537162D01*
X109257500Y-56943068D01*
X109257500Y-57356932D01*
X109204347Y-57624149D01*
X109176760Y-57762839D01*
X109018382Y-58145197D01*
X108788453Y-58489310D01*
X108495810Y-58781953D01*
X108151697Y-59011882D01*
X107769339Y-59170260D01*
X107634036Y-59197173D01*
X107363432Y-59251000D01*
X106949568Y-59251000D01*
X106678964Y-59197173D01*
X106543661Y-59170260D01*
X106161303Y-59011882D01*
X105817190Y-58781953D01*
X105524547Y-58489310D01*
X105294618Y-58145197D01*
X105136240Y-57762839D01*
X105108653Y-57624149D01*
X105055500Y-57356932D01*
X105055500Y-56943068D01*
X105136240Y-56537162D01*
X105146704Y-56511900D01*
X105294618Y-56154803D01*
X105524547Y-55810690D01*
X105817190Y-55518047D01*
X106161303Y-55288118D01*
X106543661Y-55129740D01*
X106678964Y-55102827D01*
X106949568Y-55049000D01*
X107363432Y-55049000D01*
X107634036Y-55102827D01*
G37*
G36*
X81440036Y-55102827D02*
G01*
X81575339Y-55129740D01*
X81957697Y-55288118D01*
X82301810Y-55518047D01*
X82594453Y-55810690D01*
X82824382Y-56154803D01*
X82972297Y-56511900D01*
X82982760Y-56537162D01*
X83063500Y-56943068D01*
X83063500Y-57356932D01*
X83010347Y-57624149D01*
X82982760Y-57762839D01*
X82824382Y-58145197D01*
X82594453Y-58489310D01*
X82301810Y-58781953D01*
X81957697Y-59011882D01*
X81575339Y-59170260D01*
X81440036Y-59197173D01*
X81169432Y-59251000D01*
X80755568Y-59251000D01*
X80484964Y-59197173D01*
X80349661Y-59170260D01*
X79967303Y-59011882D01*
X79623190Y-58781953D01*
X79330547Y-58489310D01*
X79100618Y-58145197D01*
X78942240Y-57762839D01*
X78914653Y-57624149D01*
X78861500Y-57356932D01*
X78861500Y-56943068D01*
X78942240Y-56537162D01*
X78952704Y-56511900D01*
X79100618Y-56154803D01*
X79330547Y-55810690D01*
X79623190Y-55518047D01*
X79967303Y-55288118D01*
X80349661Y-55129740D01*
X80484964Y-55102827D01*
X80755568Y-55049000D01*
X81169432Y-55049000D01*
X81440036Y-55102827D01*
G37*
G36*
X92616000Y-59156000D02*
G01*
X91564000Y-59156000D01*
X91564000Y-57754000D01*
X92616000Y-57754000D01*
X92616000Y-59156000D01*
G37*
G36*
X95626000Y-59156000D02*
G01*
X94574000Y-59156000D01*
X94574000Y-57754000D01*
X95626000Y-57754000D01*
X95626000Y-59156000D01*
G37*
G36*
X56960264Y-56154803D02*
G01*
X57124481Y-56187468D01*
X57306651Y-56262926D01*
X57470600Y-56372473D01*
X57610027Y-56511900D01*
X57719574Y-56675849D01*
X57795032Y-56858019D01*
X57833500Y-57051410D01*
X57833500Y-57248590D01*
X57795032Y-57441981D01*
X57719574Y-57624151D01*
X57610027Y-57788100D01*
X57470600Y-57927527D01*
X57306651Y-58037074D01*
X57124481Y-58112532D01*
X57027785Y-58131766D01*
X56931091Y-58151000D01*
X56733909Y-58151000D01*
X56637215Y-58131766D01*
X56540519Y-58112532D01*
X56358349Y-58037074D01*
X56194400Y-57927527D01*
X56054973Y-57788100D01*
X55945426Y-57624151D01*
X55869968Y-57441981D01*
X55831500Y-57248590D01*
X55831500Y-57051410D01*
X55869968Y-56858019D01*
X55945426Y-56675849D01*
X56054973Y-56511900D01*
X56194400Y-56372473D01*
X56358349Y-56262926D01*
X56540519Y-56187468D01*
X56704736Y-56154803D01*
X56733909Y-56149000D01*
X56931091Y-56149000D01*
X56960264Y-56154803D01*
G37*
G36*
X48070264Y-56154803D02*
G01*
X48234481Y-56187468D01*
X48416651Y-56262926D01*
X48580600Y-56372473D01*
X48720027Y-56511900D01*
X48829574Y-56675849D01*
X48905032Y-56858019D01*
X48943500Y-57051410D01*
X48943500Y-57248590D01*
X48905032Y-57441981D01*
X48829574Y-57624151D01*
X48720027Y-57788100D01*
X48580600Y-57927527D01*
X48416651Y-58037074D01*
X48234481Y-58112532D01*
X48137785Y-58131766D01*
X48041091Y-58151000D01*
X47843909Y-58151000D01*
X47747215Y-58131766D01*
X47650519Y-58112532D01*
X47468349Y-58037074D01*
X47304400Y-57927527D01*
X47164973Y-57788100D01*
X47055426Y-57624151D01*
X46979968Y-57441981D01*
X46941500Y-57248590D01*
X46941500Y-57051410D01*
X46979968Y-56858019D01*
X47055426Y-56675849D01*
X47164973Y-56511900D01*
X47304400Y-56372473D01*
X47468349Y-56262926D01*
X47650519Y-56187468D01*
X47814736Y-56154803D01*
X47843909Y-56149000D01*
X48041091Y-56149000D01*
X48070264Y-56154803D01*
G37*
G36*
X37910264Y-56154803D02*
G01*
X38074481Y-56187468D01*
X38256651Y-56262926D01*
X38420600Y-56372473D01*
X38560027Y-56511900D01*
X38669574Y-56675849D01*
X38745032Y-56858019D01*
X38783500Y-57051410D01*
X38783500Y-57248590D01*
X38745032Y-57441981D01*
X38669574Y-57624151D01*
X38560027Y-57788100D01*
X38420600Y-57927527D01*
X38256651Y-58037074D01*
X38074481Y-58112532D01*
X37977785Y-58131766D01*
X37881091Y-58151000D01*
X37683909Y-58151000D01*
X37587215Y-58131766D01*
X37490519Y-58112532D01*
X37308349Y-58037074D01*
X37144400Y-57927527D01*
X37004973Y-57788100D01*
X36895426Y-57624151D01*
X36819968Y-57441981D01*
X36781500Y-57248590D01*
X36781500Y-57051410D01*
X36819968Y-56858019D01*
X36895426Y-56675849D01*
X37004973Y-56511900D01*
X37144400Y-56372473D01*
X37308349Y-56262926D01*
X37490519Y-56187468D01*
X37654736Y-56154803D01*
X37683909Y-56149000D01*
X37881091Y-56149000D01*
X37910264Y-56154803D01*
G37*
G36*
X76010264Y-56154803D02*
G01*
X76174481Y-56187468D01*
X76356651Y-56262926D01*
X76520600Y-56372473D01*
X76660027Y-56511900D01*
X76769574Y-56675849D01*
X76845032Y-56858019D01*
X76883500Y-57051410D01*
X76883500Y-57248590D01*
X76845032Y-57441981D01*
X76769574Y-57624151D01*
X76660027Y-57788100D01*
X76520600Y-57927527D01*
X76356651Y-58037074D01*
X76174481Y-58112532D01*
X76077785Y-58131766D01*
X75981091Y-58151000D01*
X75783909Y-58151000D01*
X75687215Y-58131766D01*
X75590519Y-58112532D01*
X75408349Y-58037074D01*
X75244400Y-57927527D01*
X75104973Y-57788100D01*
X74995426Y-57624151D01*
X74919968Y-57441981D01*
X74881500Y-57248590D01*
X74881500Y-57051410D01*
X74919968Y-56858019D01*
X74995426Y-56675849D01*
X75104973Y-56511900D01*
X75244400Y-56372473D01*
X75408349Y-56262926D01*
X75590519Y-56187468D01*
X75754736Y-56154803D01*
X75783909Y-56149000D01*
X75981091Y-56149000D01*
X76010264Y-56154803D01*
G37*
G36*
X112364264Y-56154803D02*
G01*
X112528481Y-56187468D01*
X112710651Y-56262926D01*
X112874600Y-56372473D01*
X113014027Y-56511900D01*
X113123574Y-56675849D01*
X113199032Y-56858019D01*
X113237500Y-57051410D01*
X113237500Y-57248590D01*
X113199032Y-57441981D01*
X113123574Y-57624151D01*
X113014027Y-57788100D01*
X112874600Y-57927527D01*
X112710651Y-58037074D01*
X112528481Y-58112532D01*
X112431785Y-58131766D01*
X112335091Y-58151000D01*
X112137909Y-58151000D01*
X112041215Y-58131766D01*
X111944519Y-58112532D01*
X111762349Y-58037074D01*
X111598400Y-57927527D01*
X111458973Y-57788100D01*
X111349426Y-57624151D01*
X111273968Y-57441981D01*
X111235500Y-57248590D01*
X111235500Y-57051410D01*
X111273968Y-56858019D01*
X111349426Y-56675849D01*
X111458973Y-56511900D01*
X111598400Y-56372473D01*
X111762349Y-56262926D01*
X111944519Y-56187468D01*
X112108736Y-56154803D01*
X112137909Y-56149000D01*
X112335091Y-56149000D01*
X112364264Y-56154803D01*
G37*
G36*
X67120264Y-56154803D02*
G01*
X67284481Y-56187468D01*
X67466651Y-56262926D01*
X67630600Y-56372473D01*
X67770027Y-56511900D01*
X67879574Y-56675849D01*
X67955032Y-56858019D01*
X67993500Y-57051410D01*
X67993500Y-57248590D01*
X67955032Y-57441981D01*
X67879574Y-57624151D01*
X67770027Y-57788100D01*
X67630600Y-57927527D01*
X67466651Y-58037074D01*
X67284481Y-58112532D01*
X67187785Y-58131766D01*
X67091091Y-58151000D01*
X66893909Y-58151000D01*
X66797215Y-58131766D01*
X66700519Y-58112532D01*
X66518349Y-58037074D01*
X66354400Y-57927527D01*
X66214973Y-57788100D01*
X66105426Y-57624151D01*
X66029968Y-57441981D01*
X65991500Y-57248590D01*
X65991500Y-57051410D01*
X66029968Y-56858019D01*
X66105426Y-56675849D01*
X66214973Y-56511900D01*
X66354400Y-56372473D01*
X66518349Y-56262926D01*
X66700519Y-56187468D01*
X66864736Y-56154803D01*
X66893909Y-56149000D01*
X67091091Y-56149000D01*
X67120264Y-56154803D01*
G37*
G36*
X86170264Y-56154803D02*
G01*
X86334481Y-56187468D01*
X86516651Y-56262926D01*
X86680600Y-56372473D01*
X86820027Y-56511900D01*
X86929574Y-56675849D01*
X87005032Y-56858019D01*
X87043500Y-57051410D01*
X87043500Y-57248590D01*
X87005032Y-57441981D01*
X86929574Y-57624151D01*
X86820027Y-57788100D01*
X86680600Y-57927527D01*
X86516651Y-58037074D01*
X86334481Y-58112532D01*
X86237785Y-58131766D01*
X86141091Y-58151000D01*
X85943909Y-58151000D01*
X85847215Y-58131766D01*
X85750519Y-58112532D01*
X85568349Y-58037074D01*
X85404400Y-57927527D01*
X85264973Y-57788100D01*
X85155426Y-57624151D01*
X85079968Y-57441981D01*
X85041500Y-57248590D01*
X85041500Y-57051410D01*
X85079968Y-56858019D01*
X85155426Y-56675849D01*
X85264973Y-56511900D01*
X85404400Y-56372473D01*
X85568349Y-56262926D01*
X85750519Y-56187468D01*
X85914736Y-56154803D01*
X85943909Y-56149000D01*
X86141091Y-56149000D01*
X86170264Y-56154803D01*
G37*
G36*
X102204264Y-56154803D02*
G01*
X102368481Y-56187468D01*
X102550651Y-56262926D01*
X102714600Y-56372473D01*
X102854027Y-56511900D01*
X102963574Y-56675849D01*
X103039032Y-56858019D01*
X103077500Y-57051410D01*
X103077500Y-57248590D01*
X103039032Y-57441981D01*
X102963574Y-57624151D01*
X102854027Y-57788100D01*
X102714600Y-57927527D01*
X102550651Y-58037074D01*
X102368481Y-58112532D01*
X102271785Y-58131766D01*
X102175091Y-58151000D01*
X101977909Y-58151000D01*
X101881215Y-58131766D01*
X101784519Y-58112532D01*
X101602349Y-58037074D01*
X101438400Y-57927527D01*
X101298973Y-57788100D01*
X101189426Y-57624151D01*
X101113968Y-57441981D01*
X101075500Y-57248590D01*
X101075500Y-57051410D01*
X101113968Y-56858019D01*
X101189426Y-56675849D01*
X101298973Y-56511900D01*
X101438400Y-56372473D01*
X101602349Y-56262926D01*
X101784519Y-56187468D01*
X101948736Y-56154803D01*
X101977909Y-56149000D01*
X102175091Y-56149000D01*
X102204264Y-56154803D01*
G37*
G36*
X103648170Y-53088620D02*
G01*
X103798910Y-53118604D01*
X104081174Y-53235521D01*
X104335205Y-53405259D01*
X104551241Y-53621295D01*
X104720979Y-53875326D01*
X104837896Y-54157590D01*
X104897500Y-54457240D01*
X104897500Y-54762760D01*
X104837896Y-55062410D01*
X104720979Y-55344674D01*
X104551241Y-55598705D01*
X104335205Y-55814741D01*
X104081174Y-55984479D01*
X103798910Y-56101396D01*
X103649085Y-56131198D01*
X103499261Y-56161000D01*
X103193739Y-56161000D01*
X103043915Y-56131198D01*
X102894090Y-56101396D01*
X102611826Y-55984479D01*
X102357795Y-55814741D01*
X102141759Y-55598705D01*
X101972021Y-55344674D01*
X101855104Y-55062410D01*
X101795500Y-54762760D01*
X101795500Y-54457240D01*
X101855104Y-54157590D01*
X101972021Y-53875326D01*
X102141759Y-53621295D01*
X102357795Y-53405259D01*
X102611826Y-53235521D01*
X102894090Y-53118604D01*
X103044830Y-53088620D01*
X103193739Y-53059000D01*
X103499261Y-53059000D01*
X103648170Y-53088620D01*
G37*
G36*
X77454170Y-53088620D02*
G01*
X77604910Y-53118604D01*
X77887174Y-53235521D01*
X78141205Y-53405259D01*
X78357241Y-53621295D01*
X78526979Y-53875326D01*
X78643896Y-54157590D01*
X78703500Y-54457240D01*
X78703500Y-54762760D01*
X78643896Y-55062410D01*
X78526979Y-55344674D01*
X78357241Y-55598705D01*
X78141205Y-55814741D01*
X77887174Y-55984479D01*
X77604910Y-56101396D01*
X77455085Y-56131198D01*
X77305261Y-56161000D01*
X76999739Y-56161000D01*
X76849915Y-56131198D01*
X76700090Y-56101396D01*
X76417826Y-55984479D01*
X76163795Y-55814741D01*
X75947759Y-55598705D01*
X75778021Y-55344674D01*
X75661104Y-55062410D01*
X75601500Y-54762760D01*
X75601500Y-54457240D01*
X75661104Y-54157590D01*
X75778021Y-53875326D01*
X75947759Y-53621295D01*
X76163795Y-53405259D01*
X76417826Y-53235521D01*
X76700090Y-53118604D01*
X76850830Y-53088620D01*
X76999739Y-53059000D01*
X77305261Y-53059000D01*
X77454170Y-53088620D01*
G37*
G36*
X58404170Y-53088620D02*
G01*
X58554910Y-53118604D01*
X58837174Y-53235521D01*
X59091205Y-53405259D01*
X59307241Y-53621295D01*
X59476979Y-53875326D01*
X59593896Y-54157590D01*
X59653500Y-54457240D01*
X59653500Y-54762760D01*
X59593896Y-55062410D01*
X59476979Y-55344674D01*
X59307241Y-55598705D01*
X59091205Y-55814741D01*
X58837174Y-55984479D01*
X58554910Y-56101396D01*
X58405085Y-56131198D01*
X58255261Y-56161000D01*
X57949739Y-56161000D01*
X57799915Y-56131198D01*
X57650090Y-56101396D01*
X57367826Y-55984479D01*
X57113795Y-55814741D01*
X56897759Y-55598705D01*
X56728021Y-55344674D01*
X56611104Y-55062410D01*
X56551500Y-54762760D01*
X56551500Y-54457240D01*
X56611104Y-54157590D01*
X56728021Y-53875326D01*
X56897759Y-53621295D01*
X57113795Y-53405259D01*
X57367826Y-53235521D01*
X57650090Y-53118604D01*
X57800830Y-53088620D01*
X57949739Y-53059000D01*
X58255261Y-53059000D01*
X58404170Y-53088620D01*
G37*
G36*
X39354170Y-53088620D02*
G01*
X39504910Y-53118604D01*
X39787174Y-53235521D01*
X40041205Y-53405259D01*
X40257241Y-53621295D01*
X40426979Y-53875326D01*
X40543896Y-54157590D01*
X40603500Y-54457240D01*
X40603500Y-54762760D01*
X40543896Y-55062410D01*
X40426979Y-55344674D01*
X40257241Y-55598705D01*
X40041205Y-55814741D01*
X39787174Y-55984479D01*
X39504910Y-56101396D01*
X39355085Y-56131198D01*
X39205261Y-56161000D01*
X38899739Y-56161000D01*
X38749915Y-56131198D01*
X38600090Y-56101396D01*
X38317826Y-55984479D01*
X38063795Y-55814741D01*
X37847759Y-55598705D01*
X37678021Y-55344674D01*
X37561104Y-55062410D01*
X37501500Y-54762760D01*
X37501500Y-54457240D01*
X37561104Y-54157590D01*
X37678021Y-53875326D01*
X37847759Y-53621295D01*
X38063795Y-53405259D01*
X38317826Y-53235521D01*
X38600090Y-53118604D01*
X38750830Y-53088620D01*
X38899739Y-53059000D01*
X39205261Y-53059000D01*
X39354170Y-53088620D01*
G37*
G36*
X101397500Y-55911000D02*
G01*
X98745500Y-55911000D01*
X98745500Y-53309000D01*
X101397500Y-53309000D01*
X101397500Y-55911000D01*
G37*
G36*
X37103500Y-55911000D02*
G01*
X34451500Y-55911000D01*
X34451500Y-53309000D01*
X37103500Y-53309000D01*
X37103500Y-55911000D01*
G37*
G36*
X56153500Y-55911000D02*
G01*
X53501500Y-55911000D01*
X53501500Y-53309000D01*
X56153500Y-53309000D01*
X56153500Y-55911000D01*
G37*
G36*
X75203500Y-55911000D02*
G01*
X72551500Y-55911000D01*
X72551500Y-53309000D01*
X75203500Y-53309000D01*
X75203500Y-55911000D01*
G37*
G36*
X92616000Y-55606000D02*
G01*
X91564000Y-55606000D01*
X91564000Y-54204000D01*
X92616000Y-54204000D01*
X92616000Y-55606000D01*
G37*
G36*
X95626000Y-55606000D02*
G01*
X94574000Y-55606000D01*
X94574000Y-54204000D01*
X95626000Y-54204000D01*
X95626000Y-55606000D01*
G37*
G36*
X64755085Y-50548802D02*
G01*
X64904910Y-50578604D01*
X65187174Y-50695521D01*
X65441205Y-50865259D01*
X65657241Y-51081295D01*
X65826979Y-51335326D01*
X65943896Y-51617590D01*
X66003500Y-51917240D01*
X66003500Y-52222760D01*
X65943896Y-52522410D01*
X65826979Y-52804674D01*
X65657241Y-53058705D01*
X65441205Y-53274741D01*
X65187174Y-53444479D01*
X64904910Y-53561396D01*
X64757604Y-53590697D01*
X64605261Y-53621000D01*
X64299739Y-53621000D01*
X64147396Y-53590697D01*
X64000090Y-53561396D01*
X63717826Y-53444479D01*
X63463795Y-53274741D01*
X63247759Y-53058705D01*
X63078021Y-52804674D01*
X62961104Y-52522410D01*
X62901500Y-52222760D01*
X62901500Y-51917240D01*
X62961104Y-51617590D01*
X63078021Y-51335326D01*
X63247759Y-51081295D01*
X63463795Y-50865259D01*
X63717826Y-50695521D01*
X64000090Y-50578604D01*
X64149915Y-50548802D01*
X64299739Y-50519000D01*
X64605261Y-50519000D01*
X64755085Y-50548802D01*
G37*
G36*
X45705085Y-50548802D02*
G01*
X45854910Y-50578604D01*
X46137174Y-50695521D01*
X46391205Y-50865259D01*
X46607241Y-51081295D01*
X46776979Y-51335326D01*
X46893896Y-51617590D01*
X46953500Y-51917240D01*
X46953500Y-52222760D01*
X46893896Y-52522410D01*
X46776979Y-52804674D01*
X46607241Y-53058705D01*
X46391205Y-53274741D01*
X46137174Y-53444479D01*
X45854910Y-53561396D01*
X45707604Y-53590697D01*
X45555261Y-53621000D01*
X45249739Y-53621000D01*
X45097396Y-53590697D01*
X44950090Y-53561396D01*
X44667826Y-53444479D01*
X44413795Y-53274741D01*
X44197759Y-53058705D01*
X44028021Y-52804674D01*
X43911104Y-52522410D01*
X43851500Y-52222760D01*
X43851500Y-51917240D01*
X43911104Y-51617590D01*
X44028021Y-51335326D01*
X44197759Y-51081295D01*
X44413795Y-50865259D01*
X44667826Y-50695521D01*
X44950090Y-50578604D01*
X45099915Y-50548802D01*
X45249739Y-50519000D01*
X45555261Y-50519000D01*
X45705085Y-50548802D01*
G37*
G36*
X83805085Y-50548802D02*
G01*
X83954910Y-50578604D01*
X84237174Y-50695521D01*
X84491205Y-50865259D01*
X84707241Y-51081295D01*
X84876979Y-51335326D01*
X84993896Y-51617590D01*
X85053500Y-51917240D01*
X85053500Y-52222760D01*
X84993896Y-52522410D01*
X84876979Y-52804674D01*
X84707241Y-53058705D01*
X84491205Y-53274741D01*
X84237174Y-53444479D01*
X83954910Y-53561396D01*
X83807604Y-53590697D01*
X83655261Y-53621000D01*
X83349739Y-53621000D01*
X83197396Y-53590697D01*
X83050090Y-53561396D01*
X82767826Y-53444479D01*
X82513795Y-53274741D01*
X82297759Y-53058705D01*
X82128021Y-52804674D01*
X82011104Y-52522410D01*
X81951500Y-52222760D01*
X81951500Y-51917240D01*
X82011104Y-51617590D01*
X82128021Y-51335326D01*
X82297759Y-51081295D01*
X82513795Y-50865259D01*
X82767826Y-50695521D01*
X83050090Y-50578604D01*
X83199915Y-50548802D01*
X83349739Y-50519000D01*
X83655261Y-50519000D01*
X83805085Y-50548802D01*
G37*
G36*
X109999085Y-50548802D02*
G01*
X110148910Y-50578604D01*
X110431174Y-50695521D01*
X110685205Y-50865259D01*
X110901241Y-51081295D01*
X111070979Y-51335326D01*
X111187896Y-51617590D01*
X111247500Y-51917240D01*
X111247500Y-52222760D01*
X111187896Y-52522410D01*
X111070979Y-52804674D01*
X110901241Y-53058705D01*
X110685205Y-53274741D01*
X110431174Y-53444479D01*
X110148910Y-53561396D01*
X110001604Y-53590697D01*
X109849261Y-53621000D01*
X109543739Y-53621000D01*
X109391396Y-53590697D01*
X109244090Y-53561396D01*
X108961826Y-53444479D01*
X108707795Y-53274741D01*
X108491759Y-53058705D01*
X108322021Y-52804674D01*
X108205104Y-52522410D01*
X108145500Y-52222760D01*
X108145500Y-51917240D01*
X108205104Y-51617590D01*
X108322021Y-51335326D01*
X108491759Y-51081295D01*
X108707795Y-50865259D01*
X108961826Y-50695521D01*
X109244090Y-50578604D01*
X109393915Y-50548802D01*
X109543739Y-50519000D01*
X109849261Y-50519000D01*
X109999085Y-50548802D01*
G37*
G36*
X92184425Y-52124599D02*
G01*
X92308621Y-52149302D01*
X92445022Y-52205801D01*
X92567779Y-52287825D01*
X92672175Y-52392221D01*
X92754199Y-52514978D01*
X92810698Y-52651379D01*
X92839500Y-52796181D01*
X92839500Y-52943819D01*
X92810698Y-53088621D01*
X92754199Y-53225022D01*
X92672175Y-53347779D01*
X92567779Y-53452175D01*
X92445022Y-53534199D01*
X92308621Y-53590698D01*
X92184425Y-53615401D01*
X92163820Y-53619500D01*
X92016180Y-53619500D01*
X91995575Y-53615401D01*
X91871379Y-53590698D01*
X91734978Y-53534199D01*
X91612221Y-53452175D01*
X91507825Y-53347779D01*
X91425801Y-53225022D01*
X91369302Y-53088621D01*
X91340500Y-52943819D01*
X91340500Y-52796181D01*
X91369302Y-52651379D01*
X91425801Y-52514978D01*
X91507825Y-52392221D01*
X91612221Y-52287825D01*
X91734978Y-52205801D01*
X91871379Y-52149302D01*
X91995575Y-52124599D01*
X92016180Y-52120500D01*
X92163820Y-52120500D01*
X92184425Y-52124599D01*
G37*
G36*
X95194425Y-52124599D02*
G01*
X95318621Y-52149302D01*
X95455022Y-52205801D01*
X95577779Y-52287825D01*
X95682175Y-52392221D01*
X95764199Y-52514978D01*
X95820698Y-52651379D01*
X95849500Y-52796181D01*
X95849500Y-52943819D01*
X95820698Y-53088621D01*
X95764199Y-53225022D01*
X95682175Y-53347779D01*
X95577779Y-53452175D01*
X95455022Y-53534199D01*
X95318621Y-53590698D01*
X95194425Y-53615401D01*
X95173820Y-53619500D01*
X95026180Y-53619500D01*
X95005575Y-53615401D01*
X94881379Y-53590698D01*
X94744978Y-53534199D01*
X94622221Y-53452175D01*
X94517825Y-53347779D01*
X94435801Y-53225022D01*
X94379302Y-53088621D01*
X94350500Y-52943819D01*
X94350500Y-52796181D01*
X94379302Y-52651379D01*
X94435801Y-52514978D01*
X94517825Y-52392221D01*
X94622221Y-52287825D01*
X94744978Y-52205801D01*
X94881379Y-52149302D01*
X95005575Y-52124599D01*
X95026180Y-52120500D01*
X95173820Y-52120500D01*
X95194425Y-52124599D01*
G37*
G36*
X114324500Y-53371000D02*
G01*
X111672500Y-53371000D01*
X111672500Y-50769000D01*
X114324500Y-50769000D01*
X114324500Y-53371000D01*
G37*
G36*
X88130500Y-53371000D02*
G01*
X85478500Y-53371000D01*
X85478500Y-50769000D01*
X88130500Y-50769000D01*
X88130500Y-53371000D01*
G37*
G36*
X69080500Y-53371000D02*
G01*
X66428500Y-53371000D01*
X66428500Y-50769000D01*
X69080500Y-50769000D01*
X69080500Y-53371000D01*
G37*
G36*
X50030500Y-53371000D02*
G01*
X47378500Y-53371000D01*
X47378500Y-50769000D01*
X50030500Y-50769000D01*
X50030500Y-53371000D01*
G37*
G36*
X63434425Y-47984599D02*
G01*
X63558621Y-48009302D01*
X63695022Y-48065801D01*
X63817779Y-48147825D01*
X63922175Y-48252221D01*
X64004199Y-48374978D01*
X64060698Y-48511379D01*
X64089500Y-48656181D01*
X64089500Y-48803819D01*
X64060698Y-48948621D01*
X64004199Y-49085022D01*
X63922175Y-49207779D01*
X63817779Y-49312175D01*
X63695022Y-49394199D01*
X63558621Y-49450698D01*
X63434425Y-49475401D01*
X63413820Y-49479500D01*
X63266180Y-49479500D01*
X63245575Y-49475401D01*
X63121379Y-49450698D01*
X62984978Y-49394199D01*
X62862221Y-49312175D01*
X62757825Y-49207779D01*
X62675801Y-49085022D01*
X62619302Y-48948621D01*
X62590500Y-48803819D01*
X62590500Y-48656181D01*
X62619302Y-48511379D01*
X62675801Y-48374978D01*
X62757825Y-48252221D01*
X62862221Y-48147825D01*
X62984978Y-48065801D01*
X63121379Y-48009302D01*
X63245575Y-47984599D01*
X63266180Y-47980500D01*
X63413820Y-47980500D01*
X63434425Y-47984599D01*
G37*
G36*
X56469500Y-49479500D02*
G01*
X54970500Y-49479500D01*
X54970500Y-47980500D01*
X56469500Y-47980500D01*
X56469500Y-49479500D01*
G37*
G36*
X43719500Y-49409500D02*
G01*
X42220500Y-49409500D01*
X42220500Y-47910500D01*
X43719500Y-47910500D01*
X43719500Y-49409500D01*
G37*
G36*
X50684425Y-47914599D02*
G01*
X50808621Y-47939302D01*
X50945022Y-47995801D01*
X51067779Y-48077825D01*
X51172175Y-48182221D01*
X51254199Y-48304978D01*
X51310698Y-48441379D01*
X51339500Y-48586181D01*
X51339500Y-48733819D01*
X51310698Y-48878621D01*
X51254199Y-49015022D01*
X51172175Y-49137779D01*
X51067779Y-49242175D01*
X50945022Y-49324199D01*
X50808621Y-49380698D01*
X50684425Y-49405401D01*
X50663820Y-49409500D01*
X50516180Y-49409500D01*
X50495575Y-49405401D01*
X50371379Y-49380698D01*
X50234978Y-49324199D01*
X50112221Y-49242175D01*
X50007825Y-49137779D01*
X49925801Y-49015022D01*
X49869302Y-48878621D01*
X49840500Y-48733819D01*
X49840500Y-48586181D01*
X49869302Y-48441379D01*
X49925801Y-48304978D01*
X50007825Y-48182221D01*
X50112221Y-48077825D01*
X50234978Y-47995801D01*
X50371379Y-47939302D01*
X50495575Y-47914599D01*
X50516180Y-47910500D01*
X50663820Y-47910500D01*
X50684425Y-47914599D01*
G37*
G36*
X58456000Y-49256000D02*
G01*
X57054000Y-49256000D01*
X57054000Y-48204000D01*
X58456000Y-48204000D01*
X58456000Y-49256000D01*
G37*
G36*
X62006000Y-49256000D02*
G01*
X60604000Y-49256000D01*
X60604000Y-48204000D01*
X62006000Y-48204000D01*
X62006000Y-49256000D01*
G37*
G36*
X45706000Y-49186000D02*
G01*
X44304000Y-49186000D01*
X44304000Y-48134000D01*
X45706000Y-48134000D01*
X45706000Y-49186000D01*
G37*
G36*
X49256000Y-49186000D02*
G01*
X47854000Y-49186000D01*
X47854000Y-48134000D01*
X49256000Y-48134000D01*
X49256000Y-49186000D01*
G37*
G36*
X111499500Y-47159500D02*
G01*
X110000500Y-47159500D01*
X110000500Y-45660500D01*
X111499500Y-45660500D01*
X111499500Y-47159500D01*
G37*
G36*
X108969500Y-47129500D02*
G01*
X107470500Y-47129500D01*
X107470500Y-45630500D01*
X108969500Y-45630500D01*
X108969500Y-47129500D01*
G37*
G36*
X89979500Y-46979500D02*
G01*
X88480500Y-46979500D01*
X88480500Y-45480500D01*
X89979500Y-45480500D01*
X89979500Y-46979500D01*
G37*
G36*
X70909500Y-46939500D02*
G01*
X69410500Y-46939500D01*
X69410500Y-45440500D01*
X70909500Y-45440500D01*
X70909500Y-46939500D01*
G37*
G36*
X111276000Y-45076000D02*
G01*
X110224000Y-45076000D01*
X110224000Y-43674000D01*
X111276000Y-43674000D01*
X111276000Y-45076000D01*
G37*
G36*
X108746000Y-45046000D02*
G01*
X107694000Y-45046000D01*
X107694000Y-43644000D01*
X108746000Y-43644000D01*
X108746000Y-45046000D01*
G37*
G36*
X89756000Y-44896000D02*
G01*
X88704000Y-44896000D01*
X88704000Y-43494000D01*
X89756000Y-43494000D01*
X89756000Y-44896000D01*
G37*
G36*
X70686000Y-44856000D02*
G01*
X69634000Y-44856000D01*
X69634000Y-43454000D01*
X70686000Y-43454000D01*
X70686000Y-44856000D01*
G37*
G36*
X47539500Y-42099500D02*
G01*
X46040500Y-42099500D01*
X46040500Y-40600500D01*
X47539500Y-40600500D01*
X47539500Y-42099500D01*
G37*
G36*
X111276000Y-41526000D02*
G01*
X110224000Y-41526000D01*
X110224000Y-40124000D01*
X111276000Y-40124000D01*
X111276000Y-41526000D01*
G37*
G36*
X108746000Y-41496000D02*
G01*
X107694000Y-41496000D01*
X107694000Y-40094000D01*
X108746000Y-40094000D01*
X108746000Y-41496000D01*
G37*
G36*
X89756000Y-41346000D02*
G01*
X88704000Y-41346000D01*
X88704000Y-39944000D01*
X89756000Y-39944000D01*
X89756000Y-41346000D01*
G37*
G36*
X70686000Y-41306000D02*
G01*
X69634000Y-41306000D01*
X69634000Y-39904000D01*
X70686000Y-39904000D01*
X70686000Y-41306000D01*
G37*
G36*
X100490036Y-36052827D02*
G01*
X100625339Y-36079740D01*
X101007697Y-36238118D01*
X101092336Y-36294672D01*
X101348747Y-36466000D01*
X101351810Y-36468047D01*
X101644453Y-36760690D01*
X101874382Y-37104803D01*
X102022297Y-37461900D01*
X102032760Y-37487162D01*
X102113500Y-37893068D01*
X102113500Y-38306932D01*
X102093997Y-38404978D01*
X102032760Y-38712839D01*
X101964544Y-38877527D01*
X101894025Y-39047776D01*
X101874382Y-39095197D01*
X101809583Y-39192175D01*
X101697781Y-39359500D01*
X101644453Y-39439310D01*
X101351810Y-39731953D01*
X101007697Y-39961882D01*
X100625339Y-40120260D01*
X100490036Y-40147173D01*
X100219432Y-40201000D01*
X99805568Y-40201000D01*
X99534964Y-40147173D01*
X99399661Y-40120260D01*
X99017303Y-39961882D01*
X98673190Y-39731953D01*
X98380547Y-39439310D01*
X98327220Y-39359500D01*
X98215417Y-39192175D01*
X98150618Y-39095197D01*
X98130976Y-39047776D01*
X98060456Y-38877527D01*
X97992240Y-38712839D01*
X97931003Y-38404978D01*
X97911500Y-38306932D01*
X97911500Y-37893068D01*
X97992240Y-37487162D01*
X98002704Y-37461900D01*
X98150618Y-37104803D01*
X98380547Y-36760690D01*
X98673190Y-36468047D01*
X98676254Y-36466000D01*
X98932664Y-36294672D01*
X99017303Y-36238118D01*
X99399661Y-36079740D01*
X99534964Y-36052827D01*
X99805568Y-35999000D01*
X100219432Y-35999000D01*
X100490036Y-36052827D01*
G37*
G36*
X119540036Y-36052827D02*
G01*
X119675339Y-36079740D01*
X120057697Y-36238118D01*
X120142336Y-36294672D01*
X120398747Y-36466000D01*
X120401810Y-36468047D01*
X120694453Y-36760690D01*
X120924382Y-37104803D01*
X121072297Y-37461900D01*
X121082760Y-37487162D01*
X121163500Y-37893068D01*
X121163500Y-38306932D01*
X121143997Y-38404978D01*
X121082760Y-38712839D01*
X121014544Y-38877527D01*
X120944025Y-39047776D01*
X120924382Y-39095197D01*
X120859583Y-39192175D01*
X120747781Y-39359500D01*
X120694453Y-39439310D01*
X120401810Y-39731953D01*
X120057697Y-39961882D01*
X119675339Y-40120260D01*
X119540036Y-40147173D01*
X119269432Y-40201000D01*
X118855568Y-40201000D01*
X118584964Y-40147173D01*
X118449661Y-40120260D01*
X118067303Y-39961882D01*
X117723190Y-39731953D01*
X117430547Y-39439310D01*
X117377220Y-39359500D01*
X117265417Y-39192175D01*
X117200618Y-39095197D01*
X117180976Y-39047776D01*
X117110456Y-38877527D01*
X117042240Y-38712839D01*
X116981003Y-38404978D01*
X116961500Y-38306932D01*
X116961500Y-37893068D01*
X117042240Y-37487162D01*
X117052704Y-37461900D01*
X117200618Y-37104803D01*
X117430547Y-36760690D01*
X117723190Y-36468047D01*
X117726254Y-36466000D01*
X117982664Y-36294672D01*
X118067303Y-36238118D01*
X118449661Y-36079740D01*
X118584964Y-36052827D01*
X118855568Y-35999000D01*
X119269432Y-35999000D01*
X119540036Y-36052827D01*
G37*
G36*
X81440036Y-36052827D02*
G01*
X81575339Y-36079740D01*
X81957697Y-36238118D01*
X82042336Y-36294672D01*
X82298747Y-36466000D01*
X82301810Y-36468047D01*
X82594453Y-36760690D01*
X82824382Y-37104803D01*
X82972297Y-37461900D01*
X82982760Y-37487162D01*
X83063500Y-37893068D01*
X83063500Y-38306932D01*
X83043997Y-38404978D01*
X82982760Y-38712839D01*
X82914544Y-38877527D01*
X82844025Y-39047776D01*
X82824382Y-39095197D01*
X82759583Y-39192175D01*
X82647781Y-39359500D01*
X82594453Y-39439310D01*
X82301810Y-39731953D01*
X81957697Y-39961882D01*
X81575339Y-40120260D01*
X81440036Y-40147173D01*
X81169432Y-40201000D01*
X80755568Y-40201000D01*
X80484964Y-40147173D01*
X80349661Y-40120260D01*
X79967303Y-39961882D01*
X79623190Y-39731953D01*
X79330547Y-39439310D01*
X79277220Y-39359500D01*
X79165417Y-39192175D01*
X79100618Y-39095197D01*
X79080976Y-39047776D01*
X79010456Y-38877527D01*
X78942240Y-38712839D01*
X78881003Y-38404978D01*
X78861500Y-38306932D01*
X78861500Y-37893068D01*
X78942240Y-37487162D01*
X78952704Y-37461900D01*
X79100618Y-37104803D01*
X79330547Y-36760690D01*
X79623190Y-36468047D01*
X79626254Y-36466000D01*
X79882664Y-36294672D01*
X79967303Y-36238118D01*
X80349661Y-36079740D01*
X80484964Y-36052827D01*
X80755568Y-35999000D01*
X81169432Y-35999000D01*
X81440036Y-36052827D01*
G37*
G36*
X62390036Y-36052827D02*
G01*
X62525339Y-36079740D01*
X62907697Y-36238118D01*
X62992336Y-36294672D01*
X63248747Y-36466000D01*
X63251810Y-36468047D01*
X63544453Y-36760690D01*
X63774382Y-37104803D01*
X63922297Y-37461900D01*
X63932760Y-37487162D01*
X64013500Y-37893068D01*
X64013500Y-38306932D01*
X63993997Y-38404978D01*
X63932760Y-38712839D01*
X63864544Y-38877527D01*
X63794025Y-39047776D01*
X63774382Y-39095197D01*
X63709583Y-39192175D01*
X63597781Y-39359500D01*
X63544453Y-39439310D01*
X63251810Y-39731953D01*
X62907697Y-39961882D01*
X62525339Y-40120260D01*
X62390036Y-40147173D01*
X62119432Y-40201000D01*
X61705568Y-40201000D01*
X61434964Y-40147173D01*
X61299661Y-40120260D01*
X60917303Y-39961882D01*
X60573190Y-39731953D01*
X60280547Y-39439310D01*
X60227220Y-39359500D01*
X60115417Y-39192175D01*
X60050618Y-39095197D01*
X60030976Y-39047776D01*
X59960456Y-38877527D01*
X59892240Y-38712839D01*
X59831003Y-38404978D01*
X59811500Y-38306932D01*
X59811500Y-37893068D01*
X59892240Y-37487162D01*
X59902704Y-37461900D01*
X60050618Y-37104803D01*
X60280547Y-36760690D01*
X60573190Y-36468047D01*
X60576254Y-36466000D01*
X60832664Y-36294672D01*
X60917303Y-36238118D01*
X61299661Y-36079740D01*
X61434964Y-36052827D01*
X61705568Y-35999000D01*
X62119432Y-35999000D01*
X62390036Y-36052827D01*
G37*
G36*
X36196536Y-36052827D02*
G01*
X36331839Y-36079740D01*
X36714197Y-36238118D01*
X36798836Y-36294672D01*
X37055247Y-36466000D01*
X37058310Y-36468047D01*
X37350953Y-36760690D01*
X37580882Y-37104803D01*
X37728797Y-37461900D01*
X37739260Y-37487162D01*
X37820000Y-37893068D01*
X37820000Y-38306932D01*
X37800497Y-38404978D01*
X37739260Y-38712839D01*
X37671044Y-38877527D01*
X37600525Y-39047776D01*
X37580882Y-39095197D01*
X37516083Y-39192175D01*
X37404281Y-39359500D01*
X37350953Y-39439310D01*
X37058310Y-39731953D01*
X36714197Y-39961882D01*
X36331839Y-40120260D01*
X36196536Y-40147173D01*
X35925932Y-40201000D01*
X35512068Y-40201000D01*
X35241464Y-40147173D01*
X35106161Y-40120260D01*
X34723803Y-39961882D01*
X34379690Y-39731953D01*
X34087047Y-39439310D01*
X34033720Y-39359500D01*
X33921917Y-39192175D01*
X33857118Y-39095197D01*
X33837476Y-39047776D01*
X33766956Y-38877527D01*
X33698740Y-38712839D01*
X33637503Y-38404978D01*
X33618000Y-38306932D01*
X33618000Y-37893068D01*
X33698740Y-37487162D01*
X33709204Y-37461900D01*
X33857118Y-37104803D01*
X34087047Y-36760690D01*
X34379690Y-36468047D01*
X34382754Y-36466000D01*
X34639164Y-36294672D01*
X34723803Y-36238118D01*
X35106161Y-36079740D01*
X35241464Y-36052827D01*
X35512068Y-35999000D01*
X35925932Y-35999000D01*
X36196536Y-36052827D01*
G37*
G36*
X47316000Y-40016000D02*
G01*
X46264000Y-40016000D01*
X46264000Y-38614000D01*
X47316000Y-38614000D01*
X47316000Y-40016000D01*
G37*
G36*
X110844425Y-38044599D02*
G01*
X110968621Y-38069302D01*
X111105022Y-38125801D01*
X111227779Y-38207825D01*
X111332175Y-38312221D01*
X111414199Y-38434978D01*
X111470698Y-38571379D01*
X111499500Y-38716181D01*
X111499500Y-38863819D01*
X111470698Y-39008621D01*
X111414199Y-39145022D01*
X111332175Y-39267779D01*
X111227779Y-39372175D01*
X111105022Y-39454199D01*
X110968621Y-39510698D01*
X110844425Y-39535401D01*
X110823820Y-39539500D01*
X110676180Y-39539500D01*
X110655575Y-39535401D01*
X110531379Y-39510698D01*
X110394978Y-39454199D01*
X110272221Y-39372175D01*
X110167825Y-39267779D01*
X110085801Y-39145022D01*
X110029302Y-39008621D01*
X110000500Y-38863819D01*
X110000500Y-38716181D01*
X110029302Y-38571379D01*
X110085801Y-38434978D01*
X110167825Y-38312221D01*
X110272221Y-38207825D01*
X110394978Y-38125801D01*
X110531379Y-38069302D01*
X110655575Y-38044599D01*
X110676180Y-38040500D01*
X110823820Y-38040500D01*
X110844425Y-38044599D01*
G37*
G36*
X108314425Y-38014599D02*
G01*
X108438621Y-38039302D01*
X108575022Y-38095801D01*
X108697779Y-38177825D01*
X108802175Y-38282221D01*
X108884199Y-38404978D01*
X108940698Y-38541379D01*
X108961074Y-38643819D01*
X108969031Y-38683820D01*
X108969500Y-38686181D01*
X108969500Y-38833819D01*
X108940698Y-38978621D01*
X108884199Y-39115022D01*
X108802175Y-39237779D01*
X108697779Y-39342175D01*
X108575022Y-39424199D01*
X108438621Y-39480698D01*
X108314425Y-39505401D01*
X108293820Y-39509500D01*
X108146180Y-39509500D01*
X108125575Y-39505401D01*
X108001379Y-39480698D01*
X107864978Y-39424199D01*
X107742221Y-39342175D01*
X107637825Y-39237779D01*
X107555801Y-39115022D01*
X107499302Y-38978621D01*
X107470500Y-38833819D01*
X107470500Y-38686181D01*
X107470970Y-38683820D01*
X107478926Y-38643819D01*
X107499302Y-38541379D01*
X107555801Y-38404978D01*
X107637825Y-38282221D01*
X107742221Y-38177825D01*
X107864978Y-38095801D01*
X108001379Y-38039302D01*
X108125575Y-38014599D01*
X108146180Y-38010500D01*
X108293820Y-38010500D01*
X108314425Y-38014599D01*
G37*
G36*
X89324425Y-37864599D02*
G01*
X89448621Y-37889302D01*
X89585022Y-37945801D01*
X89707779Y-38027825D01*
X89812175Y-38132221D01*
X89894199Y-38254978D01*
X89950698Y-38391379D01*
X89971544Y-38496181D01*
X89979500Y-38536180D01*
X89979500Y-38683820D01*
X89979030Y-38686181D01*
X89950698Y-38828621D01*
X89894199Y-38965022D01*
X89812175Y-39087779D01*
X89707779Y-39192175D01*
X89585022Y-39274199D01*
X89448621Y-39330698D01*
X89324425Y-39355401D01*
X89303820Y-39359500D01*
X89156180Y-39359500D01*
X89135575Y-39355401D01*
X89011379Y-39330698D01*
X88874978Y-39274199D01*
X88752221Y-39192175D01*
X88647825Y-39087779D01*
X88565801Y-38965022D01*
X88509302Y-38828621D01*
X88480970Y-38686181D01*
X88480500Y-38683820D01*
X88480500Y-38536180D01*
X88488456Y-38496181D01*
X88509302Y-38391379D01*
X88565801Y-38254978D01*
X88647825Y-38132221D01*
X88752221Y-38027825D01*
X88874978Y-37945801D01*
X89011379Y-37889302D01*
X89135575Y-37864599D01*
X89156180Y-37860500D01*
X89303820Y-37860500D01*
X89324425Y-37864599D01*
G37*
G36*
X70254425Y-37824599D02*
G01*
X70378621Y-37849302D01*
X70515022Y-37905801D01*
X70637779Y-37987825D01*
X70742175Y-38092221D01*
X70824199Y-38214978D01*
X70880698Y-38351379D01*
X70909500Y-38496181D01*
X70909500Y-38643819D01*
X70880698Y-38788621D01*
X70824199Y-38925022D01*
X70742175Y-39047779D01*
X70637779Y-39152175D01*
X70515022Y-39234199D01*
X70378621Y-39290698D01*
X70254425Y-39315401D01*
X70233820Y-39319500D01*
X70086180Y-39319500D01*
X70065575Y-39315401D01*
X69941379Y-39290698D01*
X69804978Y-39234199D01*
X69682221Y-39152175D01*
X69577825Y-39047779D01*
X69495801Y-38925022D01*
X69439302Y-38788621D01*
X69410500Y-38643819D01*
X69410500Y-38496181D01*
X69439302Y-38351379D01*
X69495801Y-38214978D01*
X69577825Y-38092221D01*
X69682221Y-37987825D01*
X69804978Y-37905801D01*
X69941379Y-37849302D01*
X70065575Y-37824599D01*
X70086180Y-37820500D01*
X70233820Y-37820500D01*
X70254425Y-37824599D01*
G37*
G36*
X30766764Y-37104803D02*
G01*
X30930981Y-37137468D01*
X31113151Y-37212926D01*
X31277100Y-37322473D01*
X31416527Y-37461900D01*
X31526074Y-37625849D01*
X31601532Y-37808019D01*
X31640000Y-38001410D01*
X31640000Y-38198590D01*
X31601532Y-38391981D01*
X31526074Y-38574151D01*
X31416527Y-38738100D01*
X31277100Y-38877527D01*
X31113151Y-38987074D01*
X30930981Y-39062532D01*
X30737591Y-39101000D01*
X30540409Y-39101000D01*
X30347019Y-39062532D01*
X30164849Y-38987074D01*
X30000900Y-38877527D01*
X29861473Y-38738100D01*
X29751926Y-38574151D01*
X29676468Y-38391981D01*
X29638000Y-38198590D01*
X29638000Y-38001410D01*
X29676468Y-37808019D01*
X29751926Y-37625849D01*
X29861473Y-37461900D01*
X30000900Y-37322473D01*
X30164849Y-37212926D01*
X30347019Y-37137468D01*
X30511236Y-37104803D01*
X30540409Y-37099000D01*
X30737591Y-37099000D01*
X30766764Y-37104803D01*
G37*
G36*
X105220264Y-37104803D02*
G01*
X105384481Y-37137468D01*
X105566651Y-37212926D01*
X105730600Y-37322473D01*
X105870027Y-37461900D01*
X105979574Y-37625849D01*
X106055032Y-37808019D01*
X106093500Y-38001410D01*
X106093500Y-38198590D01*
X106055032Y-38391981D01*
X105979574Y-38574151D01*
X105870027Y-38738100D01*
X105730600Y-38877527D01*
X105566651Y-38987074D01*
X105384481Y-39062532D01*
X105191091Y-39101000D01*
X104993909Y-39101000D01*
X104800519Y-39062532D01*
X104618349Y-38987074D01*
X104454400Y-38877527D01*
X104314973Y-38738100D01*
X104205426Y-38574151D01*
X104129968Y-38391981D01*
X104091500Y-38198590D01*
X104091500Y-38001410D01*
X104129968Y-37808019D01*
X104205426Y-37625849D01*
X104314973Y-37461900D01*
X104454400Y-37322473D01*
X104618349Y-37212926D01*
X104800519Y-37137468D01*
X104964736Y-37104803D01*
X104993909Y-37099000D01*
X105191091Y-37099000D01*
X105220264Y-37104803D01*
G37*
G36*
X95060264Y-37104803D02*
G01*
X95224481Y-37137468D01*
X95406651Y-37212926D01*
X95570600Y-37322473D01*
X95710027Y-37461900D01*
X95819574Y-37625849D01*
X95895032Y-37808019D01*
X95933500Y-38001410D01*
X95933500Y-38198590D01*
X95895032Y-38391981D01*
X95819574Y-38574151D01*
X95710027Y-38738100D01*
X95570600Y-38877527D01*
X95406651Y-38987074D01*
X95224481Y-39062532D01*
X95031091Y-39101000D01*
X94833909Y-39101000D01*
X94640519Y-39062532D01*
X94458349Y-38987074D01*
X94294400Y-38877527D01*
X94154973Y-38738100D01*
X94045426Y-38574151D01*
X93969968Y-38391981D01*
X93931500Y-38198590D01*
X93931500Y-38001410D01*
X93969968Y-37808019D01*
X94045426Y-37625849D01*
X94154973Y-37461900D01*
X94294400Y-37322473D01*
X94458349Y-37212926D01*
X94640519Y-37137468D01*
X94804736Y-37104803D01*
X94833909Y-37099000D01*
X95031091Y-37099000D01*
X95060264Y-37104803D01*
G37*
G36*
X86170264Y-37104803D02*
G01*
X86334481Y-37137468D01*
X86516651Y-37212926D01*
X86680600Y-37322473D01*
X86820027Y-37461900D01*
X86929574Y-37625849D01*
X87005032Y-37808019D01*
X87043500Y-38001410D01*
X87043500Y-38198590D01*
X87005032Y-38391981D01*
X86929574Y-38574151D01*
X86820027Y-38738100D01*
X86680600Y-38877527D01*
X86516651Y-38987074D01*
X86334481Y-39062532D01*
X86141091Y-39101000D01*
X85943909Y-39101000D01*
X85750519Y-39062532D01*
X85568349Y-38987074D01*
X85404400Y-38877527D01*
X85264973Y-38738100D01*
X85155426Y-38574151D01*
X85079968Y-38391981D01*
X85041500Y-38198590D01*
X85041500Y-38001410D01*
X85079968Y-37808019D01*
X85155426Y-37625849D01*
X85264973Y-37461900D01*
X85404400Y-37322473D01*
X85568349Y-37212926D01*
X85750519Y-37137468D01*
X85914736Y-37104803D01*
X85943909Y-37099000D01*
X86141091Y-37099000D01*
X86170264Y-37104803D01*
G37*
G36*
X56960264Y-37104803D02*
G01*
X57124481Y-37137468D01*
X57306651Y-37212926D01*
X57470600Y-37322473D01*
X57610027Y-37461900D01*
X57719574Y-37625849D01*
X57795032Y-37808019D01*
X57833500Y-38001410D01*
X57833500Y-38198590D01*
X57795032Y-38391981D01*
X57719574Y-38574151D01*
X57610027Y-38738100D01*
X57470600Y-38877527D01*
X57306651Y-38987074D01*
X57124481Y-39062532D01*
X56931091Y-39101000D01*
X56733909Y-39101000D01*
X56540519Y-39062532D01*
X56358349Y-38987074D01*
X56194400Y-38877527D01*
X56054973Y-38738100D01*
X55945426Y-38574151D01*
X55869968Y-38391981D01*
X55831500Y-38198590D01*
X55831500Y-38001410D01*
X55869968Y-37808019D01*
X55945426Y-37625849D01*
X56054973Y-37461900D01*
X56194400Y-37322473D01*
X56358349Y-37212926D01*
X56540519Y-37137468D01*
X56704736Y-37104803D01*
X56733909Y-37099000D01*
X56931091Y-37099000D01*
X56960264Y-37104803D01*
G37*
G36*
X67120264Y-37104803D02*
G01*
X67284481Y-37137468D01*
X67466651Y-37212926D01*
X67630600Y-37322473D01*
X67770027Y-37461900D01*
X67879574Y-37625849D01*
X67955032Y-37808019D01*
X67993500Y-38001410D01*
X67993500Y-38198590D01*
X67955032Y-38391981D01*
X67879574Y-38574151D01*
X67770027Y-38738100D01*
X67630600Y-38877527D01*
X67466651Y-38987074D01*
X67284481Y-39062532D01*
X67091091Y-39101000D01*
X66893909Y-39101000D01*
X66700519Y-39062532D01*
X66518349Y-38987074D01*
X66354400Y-38877527D01*
X66214973Y-38738100D01*
X66105426Y-38574151D01*
X66029968Y-38391981D01*
X65991500Y-38198590D01*
X65991500Y-38001410D01*
X66029968Y-37808019D01*
X66105426Y-37625849D01*
X66214973Y-37461900D01*
X66354400Y-37322473D01*
X66518349Y-37212926D01*
X66700519Y-37137468D01*
X66864736Y-37104803D01*
X66893909Y-37099000D01*
X67091091Y-37099000D01*
X67120264Y-37104803D01*
G37*
G36*
X76010264Y-37104803D02*
G01*
X76174481Y-37137468D01*
X76356651Y-37212926D01*
X76520600Y-37322473D01*
X76660027Y-37461900D01*
X76769574Y-37625849D01*
X76845032Y-37808019D01*
X76883500Y-38001410D01*
X76883500Y-38198590D01*
X76845032Y-38391981D01*
X76769574Y-38574151D01*
X76660027Y-38738100D01*
X76520600Y-38877527D01*
X76356651Y-38987074D01*
X76174481Y-39062532D01*
X75981091Y-39101000D01*
X75783909Y-39101000D01*
X75590519Y-39062532D01*
X75408349Y-38987074D01*
X75244400Y-38877527D01*
X75104973Y-38738100D01*
X74995426Y-38574151D01*
X74919968Y-38391981D01*
X74881500Y-38198590D01*
X74881500Y-38001410D01*
X74919968Y-37808019D01*
X74995426Y-37625849D01*
X75104973Y-37461900D01*
X75244400Y-37322473D01*
X75408349Y-37212926D01*
X75590519Y-37137468D01*
X75754736Y-37104803D01*
X75783909Y-37099000D01*
X75981091Y-37099000D01*
X76010264Y-37104803D01*
G37*
G36*
X40926764Y-37104803D02*
G01*
X41090981Y-37137468D01*
X41273151Y-37212926D01*
X41437100Y-37322473D01*
X41576527Y-37461900D01*
X41686074Y-37625849D01*
X41761532Y-37808019D01*
X41800000Y-38001410D01*
X41800000Y-38198590D01*
X41761532Y-38391981D01*
X41686074Y-38574151D01*
X41576527Y-38738100D01*
X41437100Y-38877527D01*
X41273151Y-38987074D01*
X41090981Y-39062532D01*
X40897591Y-39101000D01*
X40700409Y-39101000D01*
X40507019Y-39062532D01*
X40324849Y-38987074D01*
X40160900Y-38877527D01*
X40021473Y-38738100D01*
X39911926Y-38574151D01*
X39836468Y-38391981D01*
X39798000Y-38198590D01*
X39798000Y-38001410D01*
X39836468Y-37808019D01*
X39911926Y-37625849D01*
X40021473Y-37461900D01*
X40160900Y-37322473D01*
X40324849Y-37212926D01*
X40507019Y-37137468D01*
X40671236Y-37104803D01*
X40700409Y-37099000D01*
X40897591Y-37099000D01*
X40926764Y-37104803D01*
G37*
G36*
X124270264Y-37104803D02*
G01*
X124434481Y-37137468D01*
X124616651Y-37212926D01*
X124780600Y-37322473D01*
X124920027Y-37461900D01*
X125029574Y-37625849D01*
X125105032Y-37808019D01*
X125143500Y-38001410D01*
X125143500Y-38198590D01*
X125105032Y-38391981D01*
X125029574Y-38574151D01*
X124920027Y-38738100D01*
X124780600Y-38877527D01*
X124616651Y-38987074D01*
X124434481Y-39062532D01*
X124241091Y-39101000D01*
X124043909Y-39101000D01*
X123850519Y-39062532D01*
X123668349Y-38987074D01*
X123504400Y-38877527D01*
X123364973Y-38738100D01*
X123255426Y-38574151D01*
X123179968Y-38391981D01*
X123141500Y-38198590D01*
X123141500Y-38001410D01*
X123179968Y-37808019D01*
X123255426Y-37625849D01*
X123364973Y-37461900D01*
X123504400Y-37322473D01*
X123668349Y-37212926D01*
X123850519Y-37137468D01*
X124014736Y-37104803D01*
X124043909Y-37099000D01*
X124241091Y-37099000D01*
X124270264Y-37104803D01*
G37*
G36*
X114110264Y-37104803D02*
G01*
X114274481Y-37137468D01*
X114456651Y-37212926D01*
X114620600Y-37322473D01*
X114760027Y-37461900D01*
X114869574Y-37625849D01*
X114945032Y-37808019D01*
X114983500Y-38001410D01*
X114983500Y-38198590D01*
X114945032Y-38391981D01*
X114869574Y-38574151D01*
X114760027Y-38738100D01*
X114620600Y-38877527D01*
X114456651Y-38987074D01*
X114274481Y-39062532D01*
X114081091Y-39101000D01*
X113883909Y-39101000D01*
X113690519Y-39062532D01*
X113508349Y-38987074D01*
X113344400Y-38877527D01*
X113204973Y-38738100D01*
X113095426Y-38574151D01*
X113019968Y-38391981D01*
X112981500Y-38198590D01*
X112981500Y-38001410D01*
X113019968Y-37808019D01*
X113095426Y-37625849D01*
X113204973Y-37461900D01*
X113344400Y-37322473D01*
X113508349Y-37212926D01*
X113690519Y-37137468D01*
X113854736Y-37104803D01*
X113883909Y-37099000D01*
X114081091Y-37099000D01*
X114110264Y-37104803D01*
G37*
G36*
X32211585Y-34038802D02*
G01*
X32361410Y-34068604D01*
X32643674Y-34185521D01*
X32897705Y-34355259D01*
X33113741Y-34571295D01*
X33283479Y-34825326D01*
X33400396Y-35107590D01*
X33460000Y-35407240D01*
X33460000Y-35712760D01*
X33400396Y-36012410D01*
X33283479Y-36294674D01*
X33113741Y-36548705D01*
X32897705Y-36764741D01*
X32643674Y-36934479D01*
X32361410Y-37051396D01*
X32211585Y-37081198D01*
X32061761Y-37111000D01*
X31756239Y-37111000D01*
X31606415Y-37081198D01*
X31456590Y-37051396D01*
X31174326Y-36934479D01*
X30920295Y-36764741D01*
X30704259Y-36548705D01*
X30534521Y-36294674D01*
X30417604Y-36012410D01*
X30358000Y-35712760D01*
X30358000Y-35407240D01*
X30417604Y-35107590D01*
X30534521Y-34825326D01*
X30704259Y-34571295D01*
X30920295Y-34355259D01*
X31174326Y-34185521D01*
X31456590Y-34068604D01*
X31606415Y-34038802D01*
X31756239Y-34009000D01*
X32061761Y-34009000D01*
X32211585Y-34038802D01*
G37*
G36*
X96505085Y-34038802D02*
G01*
X96654910Y-34068604D01*
X96937174Y-34185521D01*
X97191205Y-34355259D01*
X97407241Y-34571295D01*
X97576979Y-34825326D01*
X97693896Y-35107590D01*
X97753500Y-35407240D01*
X97753500Y-35712760D01*
X97693896Y-36012410D01*
X97576979Y-36294674D01*
X97407241Y-36548705D01*
X97191205Y-36764741D01*
X96937174Y-36934479D01*
X96654910Y-37051396D01*
X96505085Y-37081198D01*
X96355261Y-37111000D01*
X96049739Y-37111000D01*
X95899915Y-37081198D01*
X95750090Y-37051396D01*
X95467826Y-36934479D01*
X95213795Y-36764741D01*
X94997759Y-36548705D01*
X94828021Y-36294674D01*
X94711104Y-36012410D01*
X94651500Y-35712760D01*
X94651500Y-35407240D01*
X94711104Y-35107590D01*
X94828021Y-34825326D01*
X94997759Y-34571295D01*
X95213795Y-34355259D01*
X95467826Y-34185521D01*
X95750090Y-34068604D01*
X95899915Y-34038802D01*
X96049739Y-34009000D01*
X96355261Y-34009000D01*
X96505085Y-34038802D01*
G37*
G36*
X115555085Y-34038802D02*
G01*
X115704910Y-34068604D01*
X115987174Y-34185521D01*
X116241205Y-34355259D01*
X116457241Y-34571295D01*
X116626979Y-34825326D01*
X116743896Y-35107590D01*
X116803500Y-35407240D01*
X116803500Y-35712760D01*
X116743896Y-36012410D01*
X116626979Y-36294674D01*
X116457241Y-36548705D01*
X116241205Y-36764741D01*
X115987174Y-36934479D01*
X115704910Y-37051396D01*
X115555085Y-37081198D01*
X115405261Y-37111000D01*
X115099739Y-37111000D01*
X114949915Y-37081198D01*
X114800090Y-37051396D01*
X114517826Y-36934479D01*
X114263795Y-36764741D01*
X114047759Y-36548705D01*
X113878021Y-36294674D01*
X113761104Y-36012410D01*
X113701500Y-35712760D01*
X113701500Y-35407240D01*
X113761104Y-35107590D01*
X113878021Y-34825326D01*
X114047759Y-34571295D01*
X114263795Y-34355259D01*
X114517826Y-34185521D01*
X114800090Y-34068604D01*
X114949915Y-34038802D01*
X115099739Y-34009000D01*
X115405261Y-34009000D01*
X115555085Y-34038802D01*
G37*
G36*
X58405085Y-34038802D02*
G01*
X58554910Y-34068604D01*
X58837174Y-34185521D01*
X59091205Y-34355259D01*
X59307241Y-34571295D01*
X59476979Y-34825326D01*
X59593896Y-35107590D01*
X59653500Y-35407240D01*
X59653500Y-35712760D01*
X59593896Y-36012410D01*
X59476979Y-36294674D01*
X59307241Y-36548705D01*
X59091205Y-36764741D01*
X58837174Y-36934479D01*
X58554910Y-37051396D01*
X58405085Y-37081198D01*
X58255261Y-37111000D01*
X57949739Y-37111000D01*
X57799915Y-37081198D01*
X57650090Y-37051396D01*
X57367826Y-36934479D01*
X57113795Y-36764741D01*
X56897759Y-36548705D01*
X56728021Y-36294674D01*
X56611104Y-36012410D01*
X56551500Y-35712760D01*
X56551500Y-35407240D01*
X56611104Y-35107590D01*
X56728021Y-34825326D01*
X56897759Y-34571295D01*
X57113795Y-34355259D01*
X57367826Y-34185521D01*
X57650090Y-34068604D01*
X57799915Y-34038802D01*
X57949739Y-34009000D01*
X58255261Y-34009000D01*
X58405085Y-34038802D01*
G37*
G36*
X77455085Y-34038802D02*
G01*
X77604910Y-34068604D01*
X77887174Y-34185521D01*
X78141205Y-34355259D01*
X78357241Y-34571295D01*
X78526979Y-34825326D01*
X78643896Y-35107590D01*
X78703500Y-35407240D01*
X78703500Y-35712760D01*
X78643896Y-36012410D01*
X78526979Y-36294674D01*
X78357241Y-36548705D01*
X78141205Y-36764741D01*
X77887174Y-36934479D01*
X77604910Y-37051396D01*
X77455085Y-37081198D01*
X77305261Y-37111000D01*
X76999739Y-37111000D01*
X76849915Y-37081198D01*
X76700090Y-37051396D01*
X76417826Y-36934479D01*
X76163795Y-36764741D01*
X75947759Y-36548705D01*
X75778021Y-36294674D01*
X75661104Y-36012410D01*
X75601500Y-35712760D01*
X75601500Y-35407240D01*
X75661104Y-35107590D01*
X75778021Y-34825326D01*
X75947759Y-34571295D01*
X76163795Y-34355259D01*
X76417826Y-34185521D01*
X76700090Y-34068604D01*
X76849915Y-34038802D01*
X76999739Y-34009000D01*
X77305261Y-34009000D01*
X77455085Y-34038802D01*
G37*
G36*
X29960000Y-36861000D02*
G01*
X27308000Y-36861000D01*
X27308000Y-34259000D01*
X29960000Y-34259000D01*
X29960000Y-36861000D01*
G37*
G36*
X75203500Y-36861000D02*
G01*
X72551500Y-36861000D01*
X72551500Y-34259000D01*
X75203500Y-34259000D01*
X75203500Y-36861000D01*
G37*
G36*
X56153500Y-36861000D02*
G01*
X53501500Y-36861000D01*
X53501500Y-34259000D01*
X56153500Y-34259000D01*
X56153500Y-36861000D01*
G37*
G36*
X113303500Y-36861000D02*
G01*
X110651500Y-36861000D01*
X110651500Y-34259000D01*
X113303500Y-34259000D01*
X113303500Y-36861000D01*
G37*
G36*
X94253500Y-36861000D02*
G01*
X91601500Y-36861000D01*
X91601500Y-34259000D01*
X94253500Y-34259000D01*
X94253500Y-36861000D01*
G37*
G36*
X47316000Y-36466000D02*
G01*
X46264000Y-36466000D01*
X46264000Y-35064000D01*
X47316000Y-35064000D01*
X47316000Y-36466000D01*
G37*
G36*
X121905085Y-31498802D02*
G01*
X122054910Y-31528604D01*
X122337174Y-31645521D01*
X122591205Y-31815259D01*
X122807241Y-32031295D01*
X122976979Y-32285326D01*
X123093896Y-32567590D01*
X123153500Y-32867240D01*
X123153500Y-33172760D01*
X123093896Y-33472410D01*
X122976979Y-33754674D01*
X122807241Y-34008705D01*
X122591205Y-34224741D01*
X122337174Y-34394479D01*
X122054910Y-34511396D01*
X121905085Y-34541198D01*
X121755261Y-34571000D01*
X121449739Y-34571000D01*
X121299915Y-34541198D01*
X121150090Y-34511396D01*
X120867826Y-34394479D01*
X120613795Y-34224741D01*
X120397759Y-34008705D01*
X120228021Y-33754674D01*
X120111104Y-33472410D01*
X120051500Y-33172760D01*
X120051500Y-32867240D01*
X120111104Y-32567590D01*
X120228021Y-32285326D01*
X120397759Y-32031295D01*
X120613795Y-31815259D01*
X120867826Y-31645521D01*
X121150090Y-31528604D01*
X121299915Y-31498802D01*
X121449739Y-31469000D01*
X121755261Y-31469000D01*
X121905085Y-31498802D01*
G37*
G36*
X102855085Y-31498802D02*
G01*
X103004910Y-31528604D01*
X103287174Y-31645521D01*
X103541205Y-31815259D01*
X103757241Y-32031295D01*
X103926979Y-32285326D01*
X104043896Y-32567590D01*
X104103500Y-32867240D01*
X104103500Y-33172760D01*
X104043896Y-33472410D01*
X103926979Y-33754674D01*
X103757241Y-34008705D01*
X103541205Y-34224741D01*
X103287174Y-34394479D01*
X103004910Y-34511396D01*
X102855085Y-34541198D01*
X102705261Y-34571000D01*
X102399739Y-34571000D01*
X102249915Y-34541198D01*
X102100090Y-34511396D01*
X101817826Y-34394479D01*
X101563795Y-34224741D01*
X101347759Y-34008705D01*
X101178021Y-33754674D01*
X101061104Y-33472410D01*
X101001500Y-33172760D01*
X101001500Y-32867240D01*
X101061104Y-32567590D01*
X101178021Y-32285326D01*
X101347759Y-32031295D01*
X101563795Y-31815259D01*
X101817826Y-31645521D01*
X102100090Y-31528604D01*
X102249915Y-31498802D01*
X102399739Y-31469000D01*
X102705261Y-31469000D01*
X102855085Y-31498802D01*
G37*
G36*
X83805085Y-31498802D02*
G01*
X83954910Y-31528604D01*
X84237174Y-31645521D01*
X84491205Y-31815259D01*
X84707241Y-32031295D01*
X84876979Y-32285326D01*
X84993896Y-32567590D01*
X85053500Y-32867240D01*
X85053500Y-33172760D01*
X84993896Y-33472410D01*
X84876979Y-33754674D01*
X84707241Y-34008705D01*
X84491205Y-34224741D01*
X84237174Y-34394479D01*
X83954910Y-34511396D01*
X83805085Y-34541198D01*
X83655261Y-34571000D01*
X83349739Y-34571000D01*
X83199915Y-34541198D01*
X83050090Y-34511396D01*
X82767826Y-34394479D01*
X82513795Y-34224741D01*
X82297759Y-34008705D01*
X82128021Y-33754674D01*
X82011104Y-33472410D01*
X81951500Y-33172760D01*
X81951500Y-32867240D01*
X82011104Y-32567590D01*
X82128021Y-32285326D01*
X82297759Y-32031295D01*
X82513795Y-31815259D01*
X82767826Y-31645521D01*
X83050090Y-31528604D01*
X83199915Y-31498802D01*
X83349739Y-31469000D01*
X83655261Y-31469000D01*
X83805085Y-31498802D01*
G37*
G36*
X38561585Y-31498802D02*
G01*
X38711410Y-31528604D01*
X38993674Y-31645521D01*
X39247705Y-31815259D01*
X39463741Y-32031295D01*
X39633479Y-32285326D01*
X39750396Y-32567590D01*
X39810000Y-32867240D01*
X39810000Y-33172760D01*
X39750396Y-33472410D01*
X39633479Y-33754674D01*
X39463741Y-34008705D01*
X39247705Y-34224741D01*
X38993674Y-34394479D01*
X38711410Y-34511396D01*
X38561585Y-34541198D01*
X38411761Y-34571000D01*
X38106239Y-34571000D01*
X37956415Y-34541198D01*
X37806590Y-34511396D01*
X37524326Y-34394479D01*
X37270295Y-34224741D01*
X37054259Y-34008705D01*
X36884521Y-33754674D01*
X36767604Y-33472410D01*
X36708000Y-33172760D01*
X36708000Y-32867240D01*
X36767604Y-32567590D01*
X36884521Y-32285326D01*
X37054259Y-32031295D01*
X37270295Y-31815259D01*
X37524326Y-31645521D01*
X37806590Y-31528604D01*
X37956415Y-31498802D01*
X38106239Y-31469000D01*
X38411761Y-31469000D01*
X38561585Y-31498802D01*
G37*
G36*
X64755085Y-31498802D02*
G01*
X64904910Y-31528604D01*
X65187174Y-31645521D01*
X65441205Y-31815259D01*
X65657241Y-32031295D01*
X65826979Y-32285326D01*
X65943896Y-32567590D01*
X66003500Y-32867240D01*
X66003500Y-33172760D01*
X65943896Y-33472410D01*
X65826979Y-33754674D01*
X65657241Y-34008705D01*
X65441205Y-34224741D01*
X65187174Y-34394479D01*
X64904910Y-34511396D01*
X64755085Y-34541198D01*
X64605261Y-34571000D01*
X64299739Y-34571000D01*
X64149915Y-34541198D01*
X64000090Y-34511396D01*
X63717826Y-34394479D01*
X63463795Y-34224741D01*
X63247759Y-34008705D01*
X63078021Y-33754674D01*
X62961104Y-33472410D01*
X62901500Y-33172760D01*
X62901500Y-32867240D01*
X62961104Y-32567590D01*
X63078021Y-32285326D01*
X63247759Y-32031295D01*
X63463795Y-31815259D01*
X63717826Y-31645521D01*
X64000090Y-31528604D01*
X64149915Y-31498802D01*
X64299739Y-31469000D01*
X64605261Y-31469000D01*
X64755085Y-31498802D01*
G37*
G36*
X46884425Y-32984599D02*
G01*
X47008621Y-33009302D01*
X47145022Y-33065801D01*
X47267779Y-33147825D01*
X47372175Y-33252221D01*
X47454199Y-33374978D01*
X47510698Y-33511379D01*
X47539500Y-33656181D01*
X47539500Y-33803819D01*
X47510698Y-33948621D01*
X47454199Y-34085022D01*
X47372175Y-34207779D01*
X47267779Y-34312175D01*
X47145022Y-34394199D01*
X47008621Y-34450698D01*
X46884425Y-34475401D01*
X46863820Y-34479500D01*
X46716180Y-34479500D01*
X46695575Y-34475401D01*
X46571379Y-34450698D01*
X46434978Y-34394199D01*
X46312221Y-34312175D01*
X46207825Y-34207779D01*
X46125801Y-34085022D01*
X46069302Y-33948621D01*
X46040500Y-33803819D01*
X46040500Y-33656181D01*
X46069302Y-33511379D01*
X46125801Y-33374978D01*
X46207825Y-33252221D01*
X46312221Y-33147825D01*
X46434978Y-33065801D01*
X46571379Y-33009302D01*
X46695575Y-32984599D01*
X46716180Y-32980500D01*
X46863820Y-32980500D01*
X46884425Y-32984599D01*
G37*
G36*
X126230500Y-34321000D02*
G01*
X123578500Y-34321000D01*
X123578500Y-31719000D01*
X126230500Y-31719000D01*
X126230500Y-34321000D01*
G37*
G36*
X88130500Y-34321000D02*
G01*
X85478500Y-34321000D01*
X85478500Y-31719000D01*
X88130500Y-31719000D01*
X88130500Y-34321000D01*
G37*
G36*
X107180500Y-34321000D02*
G01*
X104528500Y-34321000D01*
X104528500Y-31719000D01*
X107180500Y-31719000D01*
X107180500Y-34321000D01*
G37*
G36*
X69080500Y-34321000D02*
G01*
X66428500Y-34321000D01*
X66428500Y-31719000D01*
X69080500Y-31719000D01*
X69080500Y-34321000D01*
G37*
G36*
X42887000Y-34321000D02*
G01*
X40235000Y-34321000D01*
X40235000Y-31719000D01*
X42887000Y-31719000D01*
X42887000Y-34321000D01*
G37*
G36*
X114393000Y-29783000D02*
G01*
X112767000Y-29783000D01*
X112767000Y-28157000D01*
X114393000Y-28157000D01*
X114393000Y-29783000D01*
G37*
G36*
X98301000Y-27941000D02*
G01*
X96599000Y-27941000D01*
X96599000Y-26839000D01*
X98301000Y-26839000D01*
X98301000Y-27941000D01*
G37*
G36*
X103301000Y-27941000D02*
G01*
X101599000Y-27941000D01*
X101599000Y-26839000D01*
X103301000Y-26839000D01*
X103301000Y-27941000D01*
G37*
G36*
X69811000Y-27891000D02*
G01*
X68109000Y-27891000D01*
X68109000Y-26789000D01*
X69811000Y-26789000D01*
X69811000Y-27891000D01*
G37*
G36*
X74811000Y-27891000D02*
G01*
X73109000Y-27891000D01*
X73109000Y-26789000D01*
X74811000Y-26789000D01*
X74811000Y-27891000D01*
G37*
G36*
X48421000Y-27881000D02*
G01*
X46719000Y-27881000D01*
X46719000Y-26779000D01*
X48421000Y-26779000D01*
X48421000Y-27881000D01*
G37*
G36*
X43421000Y-27881000D02*
G01*
X41719000Y-27881000D01*
X41719000Y-26779000D01*
X43421000Y-26779000D01*
X43421000Y-27881000D01*
G37*
G36*
X114393000Y-27243000D02*
G01*
X112767000Y-27243000D01*
X112767000Y-25617000D01*
X114393000Y-25617000D01*
X114393000Y-27243000D01*
G37*
G36*
X98301000Y-24741000D02*
G01*
X96599000Y-24741000D01*
X96599000Y-23639000D01*
X98301000Y-23639000D01*
X98301000Y-24741000D01*
G37*
G36*
X103301000Y-24741000D02*
G01*
X101599000Y-24741000D01*
X101599000Y-23639000D01*
X103301000Y-23639000D01*
X103301000Y-24741000D01*
G37*
G36*
X114393000Y-24703000D02*
G01*
X112767000Y-24703000D01*
X112767000Y-23077000D01*
X114393000Y-23077000D01*
X114393000Y-24703000D01*
G37*
G36*
X74811000Y-24691000D02*
G01*
X73109000Y-24691000D01*
X73109000Y-23589000D01*
X74811000Y-23589000D01*
X74811000Y-24691000D01*
G37*
G36*
X69811000Y-24691000D02*
G01*
X68109000Y-24691000D01*
X68109000Y-23589000D01*
X69811000Y-23589000D01*
X69811000Y-24691000D01*
G37*
G36*
X48421000Y-24681000D02*
G01*
X46719000Y-24681000D01*
X46719000Y-23579000D01*
X48421000Y-23579000D01*
X48421000Y-24681000D01*
G37*
G36*
X43421000Y-24681000D02*
G01*
X41719000Y-24681000D01*
X41719000Y-23579000D01*
X43421000Y-23579000D01*
X43421000Y-24681000D01*
G37*
G36*
X52830716Y-16996000D02*
G01*
X53000339Y-17029740D01*
X53382697Y-17188118D01*
X53409459Y-17206000D01*
X53726809Y-17418046D01*
X54019454Y-17710691D01*
X54086478Y-17811000D01*
X54249382Y-18054803D01*
X54397297Y-18411900D01*
X54407760Y-18437162D01*
X54488500Y-18843068D01*
X54488500Y-19256932D01*
X54435347Y-19524149D01*
X54407760Y-19662839D01*
X54249382Y-20045197D01*
X54019453Y-20389310D01*
X53726810Y-20681953D01*
X53382697Y-20911882D01*
X53000339Y-21070260D01*
X52865036Y-21097173D01*
X52594432Y-21151000D01*
X52180568Y-21151000D01*
X51909964Y-21097173D01*
X51774661Y-21070260D01*
X51392303Y-20911882D01*
X51048190Y-20681953D01*
X50755547Y-20389310D01*
X50525618Y-20045197D01*
X50367240Y-19662839D01*
X50339653Y-19524149D01*
X50286500Y-19256932D01*
X50286500Y-18843068D01*
X50367240Y-18437162D01*
X50377704Y-18411900D01*
X50525618Y-18054803D01*
X50688522Y-17811000D01*
X50755546Y-17710691D01*
X51048191Y-17418046D01*
X51365541Y-17206000D01*
X51392303Y-17188118D01*
X51774661Y-17029740D01*
X51944284Y-16996000D01*
X52180568Y-16949000D01*
X52594432Y-16949000D01*
X52830716Y-16996000D01*
G37*
G36*
X71880716Y-16996000D02*
G01*
X72050339Y-17029740D01*
X72432697Y-17188118D01*
X72459459Y-17206000D01*
X72776809Y-17418046D01*
X73069454Y-17710691D01*
X73136478Y-17811000D01*
X73299382Y-18054803D01*
X73447297Y-18411900D01*
X73457760Y-18437162D01*
X73538500Y-18843068D01*
X73538500Y-19256932D01*
X73485347Y-19524149D01*
X73457760Y-19662839D01*
X73299382Y-20045197D01*
X73069453Y-20389310D01*
X72776810Y-20681953D01*
X72432697Y-20911882D01*
X72050339Y-21070260D01*
X71915036Y-21097173D01*
X71644432Y-21151000D01*
X71230568Y-21151000D01*
X70959964Y-21097173D01*
X70824661Y-21070260D01*
X70442303Y-20911882D01*
X70098190Y-20681953D01*
X69805547Y-20389310D01*
X69575618Y-20045197D01*
X69417240Y-19662839D01*
X69389653Y-19524149D01*
X69336500Y-19256932D01*
X69336500Y-18843068D01*
X69417240Y-18437162D01*
X69427704Y-18411900D01*
X69575618Y-18054803D01*
X69738522Y-17811000D01*
X69805546Y-17710691D01*
X70098191Y-17418046D01*
X70415541Y-17206000D01*
X70442303Y-17188118D01*
X70824661Y-17029740D01*
X70994284Y-16996000D01*
X71230568Y-16949000D01*
X71644432Y-16949000D01*
X71880716Y-16996000D01*
G37*
G36*
X90930716Y-16996000D02*
G01*
X91100339Y-17029740D01*
X91482697Y-17188118D01*
X91509459Y-17206000D01*
X91826809Y-17418046D01*
X92119454Y-17710691D01*
X92186478Y-17811000D01*
X92349382Y-18054803D01*
X92497297Y-18411900D01*
X92507760Y-18437162D01*
X92588500Y-18843068D01*
X92588500Y-19256932D01*
X92535347Y-19524149D01*
X92507760Y-19662839D01*
X92349382Y-20045197D01*
X92119453Y-20389310D01*
X91826810Y-20681953D01*
X91482697Y-20911882D01*
X91100339Y-21070260D01*
X90965036Y-21097173D01*
X90694432Y-21151000D01*
X90280568Y-21151000D01*
X90009964Y-21097173D01*
X89874661Y-21070260D01*
X89492303Y-20911882D01*
X89148190Y-20681953D01*
X88855547Y-20389310D01*
X88625618Y-20045197D01*
X88467240Y-19662839D01*
X88439653Y-19524149D01*
X88386500Y-19256932D01*
X88386500Y-18843068D01*
X88467240Y-18437162D01*
X88477704Y-18411900D01*
X88625618Y-18054803D01*
X88788522Y-17811000D01*
X88855546Y-17710691D01*
X89148191Y-17418046D01*
X89465541Y-17206000D01*
X89492303Y-17188118D01*
X89874661Y-17029740D01*
X90044284Y-16996000D01*
X90280568Y-16949000D01*
X90694432Y-16949000D01*
X90930716Y-16996000D01*
G37*
G36*
X109980716Y-16996000D02*
G01*
X110150339Y-17029740D01*
X110532697Y-17188118D01*
X110559459Y-17206000D01*
X110876809Y-17418046D01*
X111169454Y-17710691D01*
X111236478Y-17811000D01*
X111399382Y-18054803D01*
X111547297Y-18411900D01*
X111557760Y-18437162D01*
X111638500Y-18843068D01*
X111638500Y-19256932D01*
X111585347Y-19524149D01*
X111557760Y-19662839D01*
X111399382Y-20045197D01*
X111169453Y-20389310D01*
X110876810Y-20681953D01*
X110532697Y-20911882D01*
X110150339Y-21070260D01*
X110015036Y-21097173D01*
X109744432Y-21151000D01*
X109330568Y-21151000D01*
X109059964Y-21097173D01*
X108924661Y-21070260D01*
X108542303Y-20911882D01*
X108198190Y-20681953D01*
X107905547Y-20389310D01*
X107675618Y-20045197D01*
X107517240Y-19662839D01*
X107489653Y-19524149D01*
X107436500Y-19256932D01*
X107436500Y-18843068D01*
X107517240Y-18437162D01*
X107527704Y-18411900D01*
X107675618Y-18054803D01*
X107838522Y-17811000D01*
X107905546Y-17710691D01*
X108198191Y-17418046D01*
X108515541Y-17206000D01*
X108542303Y-17188118D01*
X108924661Y-17029740D01*
X109094284Y-16996000D01*
X109330568Y-16949000D01*
X109744432Y-16949000D01*
X109980716Y-16996000D01*
G37*
G36*
X31399216Y-16996000D02*
G01*
X31568839Y-17029740D01*
X31951197Y-17188118D01*
X31977959Y-17206000D01*
X32295309Y-17418046D01*
X32587954Y-17710691D01*
X32654978Y-17811000D01*
X32817882Y-18054803D01*
X32965797Y-18411900D01*
X32976260Y-18437162D01*
X33057000Y-18843068D01*
X33057000Y-19256932D01*
X33003847Y-19524149D01*
X32976260Y-19662839D01*
X32817882Y-20045197D01*
X32587953Y-20389310D01*
X32295310Y-20681953D01*
X31951197Y-20911882D01*
X31568839Y-21070260D01*
X31433536Y-21097173D01*
X31162932Y-21151000D01*
X30749068Y-21151000D01*
X30478464Y-21097173D01*
X30343161Y-21070260D01*
X29960803Y-20911882D01*
X29616690Y-20681953D01*
X29324047Y-20389310D01*
X29094118Y-20045197D01*
X28935740Y-19662839D01*
X28908153Y-19524149D01*
X28855000Y-19256932D01*
X28855000Y-18843068D01*
X28935740Y-18437162D01*
X28946204Y-18411900D01*
X29094118Y-18054803D01*
X29257022Y-17811000D01*
X29324046Y-17710691D01*
X29616691Y-17418046D01*
X29934041Y-17206000D01*
X29960803Y-17188118D01*
X30343161Y-17029740D01*
X30512784Y-16996000D01*
X30749068Y-16949000D01*
X31162932Y-16949000D01*
X31399216Y-16996000D01*
G37*
G36*
X57595264Y-18054803D02*
G01*
X57759481Y-18087468D01*
X57941651Y-18162926D01*
X58105600Y-18272473D01*
X58245027Y-18411900D01*
X58354574Y-18575849D01*
X58430032Y-18758019D01*
X58468500Y-18951410D01*
X58468500Y-19148590D01*
X58430032Y-19341981D01*
X58354574Y-19524151D01*
X58245027Y-19688100D01*
X58105600Y-19827527D01*
X57941651Y-19937074D01*
X57759481Y-20012532D01*
X57566091Y-20051000D01*
X57368909Y-20051000D01*
X57175519Y-20012532D01*
X56993349Y-19937074D01*
X56829400Y-19827527D01*
X56689973Y-19688100D01*
X56580426Y-19524151D01*
X56504968Y-19341981D01*
X56466500Y-19148590D01*
X56466500Y-18951410D01*
X56504968Y-18758019D01*
X56580426Y-18575849D01*
X56689973Y-18411900D01*
X56829400Y-18272473D01*
X56993349Y-18162926D01*
X57175519Y-18087468D01*
X57339736Y-18054803D01*
X57368909Y-18049000D01*
X57566091Y-18049000D01*
X57595264Y-18054803D01*
G37*
G36*
X95695264Y-18054803D02*
G01*
X95859481Y-18087468D01*
X96041651Y-18162926D01*
X96205600Y-18272473D01*
X96345027Y-18411900D01*
X96454574Y-18575849D01*
X96530032Y-18758019D01*
X96568500Y-18951410D01*
X96568500Y-19148590D01*
X96530032Y-19341981D01*
X96454574Y-19524151D01*
X96345027Y-19688100D01*
X96205600Y-19827527D01*
X96041651Y-19937074D01*
X95859481Y-20012532D01*
X95666091Y-20051000D01*
X95468909Y-20051000D01*
X95275519Y-20012532D01*
X95093349Y-19937074D01*
X94929400Y-19827527D01*
X94789973Y-19688100D01*
X94680426Y-19524151D01*
X94604968Y-19341981D01*
X94566500Y-19148590D01*
X94566500Y-18951410D01*
X94604968Y-18758019D01*
X94680426Y-18575849D01*
X94789973Y-18411900D01*
X94929400Y-18272473D01*
X95093349Y-18162926D01*
X95275519Y-18087468D01*
X95439736Y-18054803D01*
X95468909Y-18049000D01*
X95666091Y-18049000D01*
X95695264Y-18054803D01*
G37*
G36*
X85535264Y-18054803D02*
G01*
X85699481Y-18087468D01*
X85881651Y-18162926D01*
X86045600Y-18272473D01*
X86185027Y-18411900D01*
X86294574Y-18575849D01*
X86370032Y-18758019D01*
X86408500Y-18951410D01*
X86408500Y-19148590D01*
X86370032Y-19341981D01*
X86294574Y-19524151D01*
X86185027Y-19688100D01*
X86045600Y-19827527D01*
X85881651Y-19937074D01*
X85699481Y-20012532D01*
X85506091Y-20051000D01*
X85308909Y-20051000D01*
X85115519Y-20012532D01*
X84933349Y-19937074D01*
X84769400Y-19827527D01*
X84629973Y-19688100D01*
X84520426Y-19524151D01*
X84444968Y-19341981D01*
X84406500Y-19148590D01*
X84406500Y-18951410D01*
X84444968Y-18758019D01*
X84520426Y-18575849D01*
X84629973Y-18411900D01*
X84769400Y-18272473D01*
X84933349Y-18162926D01*
X85115519Y-18087468D01*
X85279736Y-18054803D01*
X85308909Y-18049000D01*
X85506091Y-18049000D01*
X85535264Y-18054803D01*
G37*
G36*
X26003764Y-18054803D02*
G01*
X26167981Y-18087468D01*
X26350151Y-18162926D01*
X26514100Y-18272473D01*
X26653527Y-18411900D01*
X26763074Y-18575849D01*
X26838532Y-18758019D01*
X26877000Y-18951410D01*
X26877000Y-19148590D01*
X26838532Y-19341981D01*
X26763074Y-19524151D01*
X26653527Y-19688100D01*
X26514100Y-19827527D01*
X26350151Y-19937074D01*
X26167981Y-20012532D01*
X25974591Y-20051000D01*
X25777409Y-20051000D01*
X25584019Y-20012532D01*
X25401849Y-19937074D01*
X25237900Y-19827527D01*
X25098473Y-19688100D01*
X24988926Y-19524151D01*
X24913468Y-19341981D01*
X24875000Y-19148590D01*
X24875000Y-18951410D01*
X24913468Y-18758019D01*
X24988926Y-18575849D01*
X25098473Y-18411900D01*
X25237900Y-18272473D01*
X25401849Y-18162926D01*
X25584019Y-18087468D01*
X25748236Y-18054803D01*
X25777409Y-18049000D01*
X25974591Y-18049000D01*
X26003764Y-18054803D01*
G37*
G36*
X36163764Y-18054803D02*
G01*
X36327981Y-18087468D01*
X36510151Y-18162926D01*
X36674100Y-18272473D01*
X36813527Y-18411900D01*
X36923074Y-18575849D01*
X36998532Y-18758019D01*
X37037000Y-18951410D01*
X37037000Y-19148590D01*
X36998532Y-19341981D01*
X36923074Y-19524151D01*
X36813527Y-19688100D01*
X36674100Y-19827527D01*
X36510151Y-19937074D01*
X36327981Y-20012532D01*
X36134591Y-20051000D01*
X35937409Y-20051000D01*
X35744019Y-20012532D01*
X35561849Y-19937074D01*
X35397900Y-19827527D01*
X35258473Y-19688100D01*
X35148926Y-19524151D01*
X35073468Y-19341981D01*
X35035000Y-19148590D01*
X35035000Y-18951410D01*
X35073468Y-18758019D01*
X35148926Y-18575849D01*
X35258473Y-18411900D01*
X35397900Y-18272473D01*
X35561849Y-18162926D01*
X35744019Y-18087468D01*
X35908236Y-18054803D01*
X35937409Y-18049000D01*
X36134591Y-18049000D01*
X36163764Y-18054803D01*
G37*
G36*
X47435264Y-18054803D02*
G01*
X47599481Y-18087468D01*
X47781651Y-18162926D01*
X47945600Y-18272473D01*
X48085027Y-18411900D01*
X48194574Y-18575849D01*
X48270032Y-18758019D01*
X48308500Y-18951410D01*
X48308500Y-19148590D01*
X48270032Y-19341981D01*
X48194574Y-19524151D01*
X48085027Y-19688100D01*
X47945600Y-19827527D01*
X47781651Y-19937074D01*
X47599481Y-20012532D01*
X47406091Y-20051000D01*
X47208909Y-20051000D01*
X47015519Y-20012532D01*
X46833349Y-19937074D01*
X46669400Y-19827527D01*
X46529973Y-19688100D01*
X46420426Y-19524151D01*
X46344968Y-19341981D01*
X46306500Y-19148590D01*
X46306500Y-18951410D01*
X46344968Y-18758019D01*
X46420426Y-18575849D01*
X46529973Y-18411900D01*
X46669400Y-18272473D01*
X46833349Y-18162926D01*
X47015519Y-18087468D01*
X47179736Y-18054803D01*
X47208909Y-18049000D01*
X47406091Y-18049000D01*
X47435264Y-18054803D01*
G37*
G36*
X66485264Y-18054803D02*
G01*
X66649481Y-18087468D01*
X66831651Y-18162926D01*
X66995600Y-18272473D01*
X67135027Y-18411900D01*
X67244574Y-18575849D01*
X67320032Y-18758019D01*
X67358500Y-18951410D01*
X67358500Y-19148590D01*
X67320032Y-19341981D01*
X67244574Y-19524151D01*
X67135027Y-19688100D01*
X66995600Y-19827527D01*
X66831651Y-19937074D01*
X66649481Y-20012532D01*
X66456091Y-20051000D01*
X66258909Y-20051000D01*
X66065519Y-20012532D01*
X65883349Y-19937074D01*
X65719400Y-19827527D01*
X65579973Y-19688100D01*
X65470426Y-19524151D01*
X65394968Y-19341981D01*
X65356500Y-19148590D01*
X65356500Y-18951410D01*
X65394968Y-18758019D01*
X65470426Y-18575849D01*
X65579973Y-18411900D01*
X65719400Y-18272473D01*
X65883349Y-18162926D01*
X66065519Y-18087468D01*
X66229736Y-18054803D01*
X66258909Y-18049000D01*
X66456091Y-18049000D01*
X66485264Y-18054803D01*
G37*
G36*
X76645264Y-18054803D02*
G01*
X76809481Y-18087468D01*
X76991651Y-18162926D01*
X77155600Y-18272473D01*
X77295027Y-18411900D01*
X77404574Y-18575849D01*
X77480032Y-18758019D01*
X77518500Y-18951410D01*
X77518500Y-19148590D01*
X77480032Y-19341981D01*
X77404574Y-19524151D01*
X77295027Y-19688100D01*
X77155600Y-19827527D01*
X76991651Y-19937074D01*
X76809481Y-20012532D01*
X76616091Y-20051000D01*
X76418909Y-20051000D01*
X76225519Y-20012532D01*
X76043349Y-19937074D01*
X75879400Y-19827527D01*
X75739973Y-19688100D01*
X75630426Y-19524151D01*
X75554968Y-19341981D01*
X75516500Y-19148590D01*
X75516500Y-18951410D01*
X75554968Y-18758019D01*
X75630426Y-18575849D01*
X75739973Y-18411900D01*
X75879400Y-18272473D01*
X76043349Y-18162926D01*
X76225519Y-18087468D01*
X76389736Y-18054803D01*
X76418909Y-18049000D01*
X76616091Y-18049000D01*
X76645264Y-18054803D01*
G37*
G36*
X104585264Y-18054803D02*
G01*
X104749481Y-18087468D01*
X104931651Y-18162926D01*
X105095600Y-18272473D01*
X105235027Y-18411900D01*
X105344574Y-18575849D01*
X105420032Y-18758019D01*
X105458500Y-18951410D01*
X105458500Y-19148590D01*
X105420032Y-19341981D01*
X105344574Y-19524151D01*
X105235027Y-19688100D01*
X105095600Y-19827527D01*
X104931651Y-19937074D01*
X104749481Y-20012532D01*
X104556091Y-20051000D01*
X104358909Y-20051000D01*
X104165519Y-20012532D01*
X103983349Y-19937074D01*
X103819400Y-19827527D01*
X103679973Y-19688100D01*
X103570426Y-19524151D01*
X103494968Y-19341981D01*
X103456500Y-19148590D01*
X103456500Y-18951410D01*
X103494968Y-18758019D01*
X103570426Y-18575849D01*
X103679973Y-18411900D01*
X103819400Y-18272473D01*
X103983349Y-18162926D01*
X104165519Y-18087468D01*
X104329736Y-18054803D01*
X104358909Y-18049000D01*
X104556091Y-18049000D01*
X104585264Y-18054803D01*
G37*
G36*
X114745264Y-18054803D02*
G01*
X114909481Y-18087468D01*
X115091651Y-18162926D01*
X115255600Y-18272473D01*
X115395027Y-18411900D01*
X115504574Y-18575849D01*
X115580032Y-18758019D01*
X115618500Y-18951410D01*
X115618500Y-19148590D01*
X115580032Y-19341981D01*
X115504574Y-19524151D01*
X115395027Y-19688100D01*
X115255600Y-19827527D01*
X115091651Y-19937074D01*
X114909481Y-20012532D01*
X114716091Y-20051000D01*
X114518909Y-20051000D01*
X114325519Y-20012532D01*
X114143349Y-19937074D01*
X113979400Y-19827527D01*
X113839973Y-19688100D01*
X113730426Y-19524151D01*
X113654968Y-19341981D01*
X113616500Y-19148590D01*
X113616500Y-18951410D01*
X113654968Y-18758019D01*
X113730426Y-18575849D01*
X113839973Y-18411900D01*
X113979400Y-18272473D01*
X114143349Y-18162926D01*
X114325519Y-18087468D01*
X114489736Y-18054803D01*
X114518909Y-18049000D01*
X114716091Y-18049000D01*
X114745264Y-18054803D01*
G37*
G36*
X80469500Y-19289500D02*
G01*
X78970500Y-19289500D01*
X78970500Y-17790500D01*
X80469500Y-17790500D01*
X80469500Y-19289500D01*
G37*
G36*
X61559500Y-19139500D02*
G01*
X60060500Y-19139500D01*
X60060500Y-17640500D01*
X61559500Y-17640500D01*
X61559500Y-19139500D01*
G37*
G36*
X40099500Y-19079500D02*
G01*
X38600500Y-19079500D01*
X38600500Y-17580500D01*
X40099500Y-17580500D01*
X40099500Y-19079500D01*
G37*
G36*
X67930085Y-14988802D02*
G01*
X68079910Y-15018604D01*
X68362174Y-15135521D01*
X68616205Y-15305259D01*
X68832241Y-15521295D01*
X69001979Y-15775326D01*
X69118896Y-16057590D01*
X69178500Y-16357240D01*
X69178500Y-16662760D01*
X69118896Y-16962410D01*
X69001979Y-17244674D01*
X68832241Y-17498705D01*
X68616205Y-17714741D01*
X68362174Y-17884479D01*
X68079910Y-18001396D01*
X67930085Y-18031198D01*
X67780261Y-18061000D01*
X67474739Y-18061000D01*
X67324915Y-18031198D01*
X67175090Y-18001396D01*
X66892826Y-17884479D01*
X66638795Y-17714741D01*
X66422759Y-17498705D01*
X66253021Y-17244674D01*
X66136104Y-16962410D01*
X66076500Y-16662760D01*
X66076500Y-16357240D01*
X66136104Y-16057590D01*
X66253021Y-15775326D01*
X66422759Y-15521295D01*
X66638795Y-15305259D01*
X66892826Y-15135521D01*
X67175090Y-15018604D01*
X67324915Y-14988802D01*
X67474739Y-14959000D01*
X67780261Y-14959000D01*
X67930085Y-14988802D01*
G37*
G36*
X106030085Y-14988802D02*
G01*
X106179910Y-15018604D01*
X106462174Y-15135521D01*
X106716205Y-15305259D01*
X106932241Y-15521295D01*
X107101979Y-15775326D01*
X107218896Y-16057590D01*
X107278500Y-16357240D01*
X107278500Y-16662760D01*
X107218896Y-16962410D01*
X107101979Y-17244674D01*
X106932241Y-17498705D01*
X106716205Y-17714741D01*
X106462174Y-17884479D01*
X106179910Y-18001396D01*
X106030085Y-18031198D01*
X105880261Y-18061000D01*
X105574739Y-18061000D01*
X105424915Y-18031198D01*
X105275090Y-18001396D01*
X104992826Y-17884479D01*
X104738795Y-17714741D01*
X104522759Y-17498705D01*
X104353021Y-17244674D01*
X104236104Y-16962410D01*
X104176500Y-16662760D01*
X104176500Y-16357240D01*
X104236104Y-16057590D01*
X104353021Y-15775326D01*
X104522759Y-15521295D01*
X104738795Y-15305259D01*
X104992826Y-15135521D01*
X105275090Y-15018604D01*
X105424915Y-14988802D01*
X105574739Y-14959000D01*
X105880261Y-14959000D01*
X106030085Y-14988802D01*
G37*
G36*
X27448585Y-14988802D02*
G01*
X27598410Y-15018604D01*
X27880674Y-15135521D01*
X28134705Y-15305259D01*
X28350741Y-15521295D01*
X28520479Y-15775326D01*
X28637396Y-16057590D01*
X28697000Y-16357240D01*
X28697000Y-16662760D01*
X28637396Y-16962410D01*
X28520479Y-17244674D01*
X28350741Y-17498705D01*
X28134705Y-17714741D01*
X27880674Y-17884479D01*
X27598410Y-18001396D01*
X27448585Y-18031198D01*
X27298761Y-18061000D01*
X26993239Y-18061000D01*
X26843415Y-18031198D01*
X26693590Y-18001396D01*
X26411326Y-17884479D01*
X26157295Y-17714741D01*
X25941259Y-17498705D01*
X25771521Y-17244674D01*
X25654604Y-16962410D01*
X25595000Y-16662760D01*
X25595000Y-16357240D01*
X25654604Y-16057590D01*
X25771521Y-15775326D01*
X25941259Y-15521295D01*
X26157295Y-15305259D01*
X26411326Y-15135521D01*
X26693590Y-15018604D01*
X26843415Y-14988802D01*
X26993239Y-14959000D01*
X27298761Y-14959000D01*
X27448585Y-14988802D01*
G37*
G36*
X48880085Y-14988802D02*
G01*
X49029910Y-15018604D01*
X49312174Y-15135521D01*
X49566205Y-15305259D01*
X49782241Y-15521295D01*
X49951979Y-15775326D01*
X50068896Y-16057590D01*
X50128500Y-16357240D01*
X50128500Y-16662760D01*
X50068896Y-16962410D01*
X49951979Y-17244674D01*
X49782241Y-17498705D01*
X49566205Y-17714741D01*
X49312174Y-17884479D01*
X49029910Y-18001396D01*
X48880085Y-18031198D01*
X48730261Y-18061000D01*
X48424739Y-18061000D01*
X48274915Y-18031198D01*
X48125090Y-18001396D01*
X47842826Y-17884479D01*
X47588795Y-17714741D01*
X47372759Y-17498705D01*
X47203021Y-17244674D01*
X47086104Y-16962410D01*
X47026500Y-16662760D01*
X47026500Y-16357240D01*
X47086104Y-16057590D01*
X47203021Y-15775326D01*
X47372759Y-15521295D01*
X47588795Y-15305259D01*
X47842826Y-15135521D01*
X48125090Y-15018604D01*
X48274915Y-14988802D01*
X48424739Y-14959000D01*
X48730261Y-14959000D01*
X48880085Y-14988802D01*
G37*
G36*
X86980085Y-14988802D02*
G01*
X87129910Y-15018604D01*
X87412174Y-15135521D01*
X87666205Y-15305259D01*
X87882241Y-15521295D01*
X88051979Y-15775326D01*
X88168896Y-16057590D01*
X88228500Y-16357240D01*
X88228500Y-16662760D01*
X88168896Y-16962410D01*
X88051979Y-17244674D01*
X87882241Y-17498705D01*
X87666205Y-17714741D01*
X87412174Y-17884479D01*
X87129910Y-18001396D01*
X86980085Y-18031198D01*
X86830261Y-18061000D01*
X86524739Y-18061000D01*
X86374915Y-18031198D01*
X86225090Y-18001396D01*
X85942826Y-17884479D01*
X85688795Y-17714741D01*
X85472759Y-17498705D01*
X85303021Y-17244674D01*
X85186104Y-16962410D01*
X85126500Y-16662760D01*
X85126500Y-16357240D01*
X85186104Y-16057590D01*
X85303021Y-15775326D01*
X85472759Y-15521295D01*
X85688795Y-15305259D01*
X85942826Y-15135521D01*
X86225090Y-15018604D01*
X86374915Y-14988802D01*
X86524739Y-14959000D01*
X86830261Y-14959000D01*
X86980085Y-14988802D01*
G37*
G36*
X25197000Y-17811000D02*
G01*
X22545000Y-17811000D01*
X22545000Y-15209000D01*
X25197000Y-15209000D01*
X25197000Y-17811000D01*
G37*
G36*
X46628500Y-17811000D02*
G01*
X43976500Y-17811000D01*
X43976500Y-15209000D01*
X46628500Y-15209000D01*
X46628500Y-17811000D01*
G37*
G36*
X65678500Y-17811000D02*
G01*
X63026500Y-17811000D01*
X63026500Y-15209000D01*
X65678500Y-15209000D01*
X65678500Y-17811000D01*
G37*
G36*
X84728500Y-17811000D02*
G01*
X82076500Y-17811000D01*
X82076500Y-15209000D01*
X84728500Y-15209000D01*
X84728500Y-17811000D01*
G37*
G36*
X103778500Y-17811000D02*
G01*
X101126500Y-17811000D01*
X101126500Y-15209000D01*
X103778500Y-15209000D01*
X103778500Y-17811000D01*
G37*
G36*
X80246000Y-17206000D02*
G01*
X79194000Y-17206000D01*
X79194000Y-15804000D01*
X80246000Y-15804000D01*
X80246000Y-17206000D01*
G37*
G36*
X61336000Y-17056000D02*
G01*
X60284000Y-17056000D01*
X60284000Y-15654000D01*
X61336000Y-15654000D01*
X61336000Y-17056000D01*
G37*
G36*
X39876000Y-16996000D02*
G01*
X38824000Y-16996000D01*
X38824000Y-15594000D01*
X39876000Y-15594000D01*
X39876000Y-16996000D01*
G37*
G36*
X112380085Y-12448802D02*
G01*
X112529910Y-12478604D01*
X112812174Y-12595521D01*
X113066205Y-12765259D01*
X113282241Y-12981295D01*
X113451979Y-13235326D01*
X113568896Y-13517590D01*
X113628500Y-13817240D01*
X113628500Y-14122760D01*
X113568896Y-14422410D01*
X113451979Y-14704674D01*
X113282241Y-14958705D01*
X113066205Y-15174741D01*
X112812174Y-15344479D01*
X112529910Y-15461396D01*
X112380085Y-15491198D01*
X112230261Y-15521000D01*
X111924739Y-15521000D01*
X111774915Y-15491198D01*
X111625090Y-15461396D01*
X111342826Y-15344479D01*
X111088795Y-15174741D01*
X110872759Y-14958705D01*
X110703021Y-14704674D01*
X110586104Y-14422410D01*
X110526500Y-14122760D01*
X110526500Y-13817240D01*
X110586104Y-13517590D01*
X110703021Y-13235326D01*
X110872759Y-12981295D01*
X111088795Y-12765259D01*
X111342826Y-12595521D01*
X111625090Y-12478604D01*
X111774915Y-12448802D01*
X111924739Y-12419000D01*
X112230261Y-12419000D01*
X112380085Y-12448802D01*
G37*
G36*
X33798585Y-12448802D02*
G01*
X33948410Y-12478604D01*
X34230674Y-12595521D01*
X34484705Y-12765259D01*
X34700741Y-12981295D01*
X34870479Y-13235326D01*
X34987396Y-13517590D01*
X35047000Y-13817240D01*
X35047000Y-14122760D01*
X34987396Y-14422410D01*
X34870479Y-14704674D01*
X34700741Y-14958705D01*
X34484705Y-15174741D01*
X34230674Y-15344479D01*
X33948410Y-15461396D01*
X33798585Y-15491198D01*
X33648761Y-15521000D01*
X33343239Y-15521000D01*
X33193415Y-15491198D01*
X33043590Y-15461396D01*
X32761326Y-15344479D01*
X32507295Y-15174741D01*
X32291259Y-14958705D01*
X32121521Y-14704674D01*
X32004604Y-14422410D01*
X31945000Y-14122760D01*
X31945000Y-13817240D01*
X32004604Y-13517590D01*
X32121521Y-13235326D01*
X32291259Y-12981295D01*
X32507295Y-12765259D01*
X32761326Y-12595521D01*
X33043590Y-12478604D01*
X33193415Y-12448802D01*
X33343239Y-12419000D01*
X33648761Y-12419000D01*
X33798585Y-12448802D01*
G37*
G36*
X93330085Y-12448802D02*
G01*
X93479910Y-12478604D01*
X93762174Y-12595521D01*
X94016205Y-12765259D01*
X94232241Y-12981295D01*
X94401979Y-13235326D01*
X94518896Y-13517590D01*
X94578500Y-13817240D01*
X94578500Y-14122760D01*
X94518896Y-14422410D01*
X94401979Y-14704674D01*
X94232241Y-14958705D01*
X94016205Y-15174741D01*
X93762174Y-15344479D01*
X93479910Y-15461396D01*
X93330085Y-15491198D01*
X93180261Y-15521000D01*
X92874739Y-15521000D01*
X92724915Y-15491198D01*
X92575090Y-15461396D01*
X92292826Y-15344479D01*
X92038795Y-15174741D01*
X91822759Y-14958705D01*
X91653021Y-14704674D01*
X91536104Y-14422410D01*
X91476500Y-14122760D01*
X91476500Y-13817240D01*
X91536104Y-13517590D01*
X91653021Y-13235326D01*
X91822759Y-12981295D01*
X92038795Y-12765259D01*
X92292826Y-12595521D01*
X92575090Y-12478604D01*
X92724915Y-12448802D01*
X92874739Y-12419000D01*
X93180261Y-12419000D01*
X93330085Y-12448802D01*
G37*
G36*
X55230085Y-12448802D02*
G01*
X55379910Y-12478604D01*
X55662174Y-12595521D01*
X55916205Y-12765259D01*
X56132241Y-12981295D01*
X56301979Y-13235326D01*
X56418896Y-13517590D01*
X56478500Y-13817240D01*
X56478500Y-14122760D01*
X56418896Y-14422410D01*
X56301979Y-14704674D01*
X56132241Y-14958705D01*
X55916205Y-15174741D01*
X55662174Y-15344479D01*
X55379910Y-15461396D01*
X55230085Y-15491198D01*
X55080261Y-15521000D01*
X54774739Y-15521000D01*
X54624915Y-15491198D01*
X54475090Y-15461396D01*
X54192826Y-15344479D01*
X53938795Y-15174741D01*
X53722759Y-14958705D01*
X53553021Y-14704674D01*
X53436104Y-14422410D01*
X53376500Y-14122760D01*
X53376500Y-13817240D01*
X53436104Y-13517590D01*
X53553021Y-13235326D01*
X53722759Y-12981295D01*
X53938795Y-12765259D01*
X54192826Y-12595521D01*
X54475090Y-12478604D01*
X54624915Y-12448802D01*
X54774739Y-12419000D01*
X55080261Y-12419000D01*
X55230085Y-12448802D01*
G37*
G36*
X74280085Y-12448802D02*
G01*
X74429910Y-12478604D01*
X74712174Y-12595521D01*
X74966205Y-12765259D01*
X75182241Y-12981295D01*
X75351979Y-13235326D01*
X75468896Y-13517590D01*
X75528500Y-13817240D01*
X75528500Y-14122760D01*
X75468896Y-14422410D01*
X75351979Y-14704674D01*
X75182241Y-14958705D01*
X74966205Y-15174741D01*
X74712174Y-15344479D01*
X74429910Y-15461396D01*
X74280085Y-15491198D01*
X74130261Y-15521000D01*
X73824739Y-15521000D01*
X73674915Y-15491198D01*
X73525090Y-15461396D01*
X73242826Y-15344479D01*
X72988795Y-15174741D01*
X72772759Y-14958705D01*
X72603021Y-14704674D01*
X72486104Y-14422410D01*
X72426500Y-14122760D01*
X72426500Y-13817240D01*
X72486104Y-13517590D01*
X72603021Y-13235326D01*
X72772759Y-12981295D01*
X72988795Y-12765259D01*
X73242826Y-12595521D01*
X73525090Y-12478604D01*
X73674915Y-12448802D01*
X73824739Y-12419000D01*
X74130261Y-12419000D01*
X74280085Y-12448802D01*
G37*
G36*
X78605500Y-15271000D02*
G01*
X75953500Y-15271000D01*
X75953500Y-12669000D01*
X78605500Y-12669000D01*
X78605500Y-15271000D01*
G37*
G36*
X116705500Y-15271000D02*
G01*
X114053500Y-15271000D01*
X114053500Y-12669000D01*
X116705500Y-12669000D01*
X116705500Y-15271000D01*
G37*
G36*
X38124000Y-15271000D02*
G01*
X35472000Y-15271000D01*
X35472000Y-12669000D01*
X38124000Y-12669000D01*
X38124000Y-15271000D01*
G37*
G36*
X59555500Y-15271000D02*
G01*
X56903500Y-15271000D01*
X56903500Y-12669000D01*
X59555500Y-12669000D01*
X59555500Y-15271000D01*
G37*
G36*
X97655500Y-15271000D02*
G01*
X95003500Y-15271000D01*
X95003500Y-12669000D01*
X97655500Y-12669000D01*
X97655500Y-15271000D01*
G37*
G36*
X80246000Y-13656000D02*
G01*
X79194000Y-13656000D01*
X79194000Y-12254000D01*
X80246000Y-12254000D01*
X80246000Y-13656000D01*
G37*
G36*
X61336000Y-13506000D02*
G01*
X60284000Y-13506000D01*
X60284000Y-12104000D01*
X61336000Y-12104000D01*
X61336000Y-13506000D01*
G37*
G36*
X39876000Y-13446000D02*
G01*
X38824000Y-13446000D01*
X38824000Y-12044000D01*
X39876000Y-12044000D01*
X39876000Y-13446000D01*
G37*
G36*
X79814425Y-10174599D02*
G01*
X79938621Y-10199302D01*
X80075022Y-10255801D01*
X80197779Y-10337825D01*
X80302175Y-10442221D01*
X80384199Y-10564978D01*
X80440698Y-10701379D01*
X80457096Y-10783820D01*
X80469031Y-10843820D01*
X80469500Y-10846181D01*
X80469500Y-10993819D01*
X80440698Y-11138621D01*
X80384199Y-11275022D01*
X80302175Y-11397779D01*
X80197779Y-11502175D01*
X80075022Y-11584199D01*
X79938621Y-11640698D01*
X79814425Y-11665401D01*
X79793820Y-11669500D01*
X79646180Y-11669500D01*
X79625575Y-11665401D01*
X79501379Y-11640698D01*
X79364978Y-11584199D01*
X79242221Y-11502175D01*
X79137825Y-11397779D01*
X79055801Y-11275022D01*
X78999302Y-11138621D01*
X78970500Y-10993819D01*
X78970500Y-10846181D01*
X78970970Y-10843820D01*
X78982904Y-10783820D01*
X78999302Y-10701379D01*
X79055801Y-10564978D01*
X79137825Y-10442221D01*
X79242221Y-10337825D01*
X79364978Y-10255801D01*
X79501379Y-10199302D01*
X79625575Y-10174599D01*
X79646180Y-10170500D01*
X79793820Y-10170500D01*
X79814425Y-10174599D01*
G37*
G36*
X60904425Y-10024599D02*
G01*
X61028621Y-10049302D01*
X61165022Y-10105801D01*
X61287779Y-10187825D01*
X61392175Y-10292221D01*
X61474199Y-10414978D01*
X61530698Y-10551379D01*
X61555401Y-10675575D01*
X61559500Y-10696180D01*
X61559500Y-10843820D01*
X61559030Y-10846181D01*
X61530698Y-10988621D01*
X61474199Y-11125022D01*
X61392175Y-11247779D01*
X61287779Y-11352175D01*
X61165022Y-11434199D01*
X61028621Y-11490698D01*
X60904425Y-11515401D01*
X60883820Y-11519500D01*
X60736180Y-11519500D01*
X60715575Y-11515401D01*
X60591379Y-11490698D01*
X60454978Y-11434199D01*
X60332221Y-11352175D01*
X60227825Y-11247779D01*
X60145801Y-11125022D01*
X60089302Y-10988621D01*
X60060970Y-10846181D01*
X60060500Y-10843820D01*
X60060500Y-10696180D01*
X60064599Y-10675575D01*
X60089302Y-10551379D01*
X60145801Y-10414978D01*
X60227825Y-10292221D01*
X60332221Y-10187825D01*
X60454978Y-10105801D01*
X60591379Y-10049302D01*
X60715575Y-10024599D01*
X60736180Y-10020500D01*
X60883820Y-10020500D01*
X60904425Y-10024599D01*
G37*
G36*
X39444425Y-9964599D02*
G01*
X39568621Y-9989302D01*
X39705022Y-10045801D01*
X39827779Y-10127825D01*
X39932175Y-10232221D01*
X40014199Y-10354978D01*
X40070698Y-10491379D01*
X40099500Y-10636181D01*
X40099500Y-10783819D01*
X40070698Y-10928621D01*
X40014199Y-11065022D01*
X39932175Y-11187779D01*
X39827779Y-11292175D01*
X39705022Y-11374199D01*
X39568621Y-11430698D01*
X39444425Y-11455401D01*
X39423820Y-11459500D01*
X39276180Y-11459500D01*
X39255575Y-11455401D01*
X39131379Y-11430698D01*
X38994978Y-11374199D01*
X38872221Y-11292175D01*
X38767825Y-11187779D01*
X38685801Y-11065022D01*
X38629302Y-10928621D01*
X38600500Y-10783819D01*
X38600500Y-10636181D01*
X38629302Y-10491379D01*
X38685801Y-10354978D01*
X38767825Y-10232221D01*
X38872221Y-10127825D01*
X38994978Y-10045801D01*
X39131379Y-9989302D01*
X39255575Y-9964599D01*
X39276180Y-9960500D01*
X39423820Y-9960500D01*
X39444425Y-9964599D01*
G37*
G36*
X90054425Y-9874599D02*
G01*
X90178621Y-9899302D01*
X90315022Y-9955801D01*
X90437779Y-10037825D01*
X90542175Y-10142221D01*
X90624199Y-10264978D01*
X90680698Y-10401379D01*
X90705401Y-10525575D01*
X90709500Y-10546180D01*
X90709500Y-10693820D01*
X90709030Y-10696181D01*
X90680698Y-10838621D01*
X90624199Y-10975022D01*
X90542175Y-11097779D01*
X90437779Y-11202175D01*
X90315022Y-11284199D01*
X90178621Y-11340698D01*
X90054425Y-11365401D01*
X90033820Y-11369500D01*
X89886180Y-11369500D01*
X89865575Y-11365401D01*
X89741379Y-11340698D01*
X89604978Y-11284199D01*
X89482221Y-11202175D01*
X89377825Y-11097779D01*
X89295801Y-10975022D01*
X89239302Y-10838621D01*
X89210970Y-10696181D01*
X89210500Y-10693820D01*
X89210500Y-10546180D01*
X89214599Y-10525575D01*
X89239302Y-10401379D01*
X89295801Y-10264978D01*
X89377825Y-10142221D01*
X89482221Y-10037825D01*
X89604978Y-9955801D01*
X89741379Y-9899302D01*
X89865575Y-9874599D01*
X89886180Y-9870500D01*
X90033820Y-9870500D01*
X90054425Y-9874599D01*
G37*
G36*
X101679500Y-11369500D02*
G01*
X100180500Y-11369500D01*
X100180500Y-9870500D01*
X101679500Y-9870500D01*
X101679500Y-11369500D01*
G37*
G36*
X83089500Y-11369500D02*
G01*
X81590500Y-11369500D01*
X81590500Y-9870500D01*
X83089500Y-9870500D01*
X83089500Y-11369500D01*
G37*
G36*
X108644425Y-9874599D02*
G01*
X108768621Y-9899302D01*
X108905022Y-9955801D01*
X109027779Y-10037825D01*
X109132175Y-10142221D01*
X109214199Y-10264978D01*
X109270698Y-10401379D01*
X109295401Y-10525575D01*
X109299500Y-10546180D01*
X109299500Y-10693820D01*
X109299030Y-10696181D01*
X109270698Y-10838621D01*
X109214199Y-10975022D01*
X109132175Y-11097779D01*
X109027779Y-11202175D01*
X108905022Y-11284199D01*
X108768621Y-11340698D01*
X108644425Y-11365401D01*
X108623820Y-11369500D01*
X108476180Y-11369500D01*
X108455575Y-11365401D01*
X108331379Y-11340698D01*
X108194978Y-11284199D01*
X108072221Y-11202175D01*
X107967825Y-11097779D01*
X107885801Y-10975022D01*
X107829302Y-10838621D01*
X107800970Y-10696181D01*
X107800500Y-10693820D01*
X107800500Y-10546180D01*
X107804599Y-10525575D01*
X107829302Y-10401379D01*
X107885801Y-10264978D01*
X107967825Y-10142221D01*
X108072221Y-10037825D01*
X108194978Y-9955801D01*
X108331379Y-9899302D01*
X108455575Y-9874599D01*
X108476180Y-9870500D01*
X108623820Y-9870500D01*
X108644425Y-9874599D01*
G37*
G36*
X88626000Y-11146000D02*
G01*
X87224000Y-11146000D01*
X87224000Y-10094000D01*
X88626000Y-10094000D01*
X88626000Y-11146000D01*
G37*
G36*
X107216000Y-11146000D02*
G01*
X105814000Y-11146000D01*
X105814000Y-10094000D01*
X107216000Y-10094000D01*
X107216000Y-11146000D01*
G37*
G36*
X85076000Y-11146000D02*
G01*
X83674000Y-11146000D01*
X83674000Y-10094000D01*
X85076000Y-10094000D01*
X85076000Y-11146000D01*
G37*
G36*
X103666000Y-11146000D02*
G01*
X102264000Y-11146000D01*
X102264000Y-10094000D01*
X103666000Y-10094000D01*
X103666000Y-11146000D01*
G37*
G36*
X58949500Y-9069500D02*
G01*
X57450500Y-9069500D01*
X57450500Y-7570500D01*
X58949500Y-7570500D01*
X58949500Y-9069500D01*
G37*
G36*
X94649500Y-8959500D02*
G01*
X93150500Y-8959500D01*
X93150500Y-7460500D01*
X94649500Y-7460500D01*
X94649500Y-8959500D01*
G37*
G36*
X75789500Y-8929500D02*
G01*
X74290500Y-8929500D01*
X74290500Y-7430500D01*
X75789500Y-7430500D01*
X75789500Y-8929500D01*
G37*
G36*
X97229500Y-8869500D02*
G01*
X95730500Y-8869500D01*
X95730500Y-7370500D01*
X97229500Y-7370500D01*
X97229500Y-8869500D01*
G37*
G36*
X48869142Y-6446842D02*
G01*
X49017101Y-6508129D01*
X49150255Y-6597099D01*
X49263501Y-6710345D01*
X49352471Y-6843499D01*
X49413758Y-6991458D01*
X49445000Y-7148525D01*
X49445000Y-7308675D01*
X49413758Y-7465742D01*
X49352471Y-7613701D01*
X49263501Y-7746855D01*
X49150255Y-7860101D01*
X49017101Y-7949071D01*
X48869142Y-8010358D01*
X48712075Y-8041600D01*
X48551925Y-8041600D01*
X48394858Y-8010358D01*
X48246899Y-7949071D01*
X48113745Y-7860101D01*
X48000499Y-7746855D01*
X47911529Y-7613701D01*
X47850242Y-7465742D01*
X47819000Y-7308675D01*
X47819000Y-7148525D01*
X47850242Y-6991458D01*
X47911529Y-6843499D01*
X48000499Y-6710345D01*
X48113745Y-6597099D01*
X48246899Y-6508129D01*
X48394858Y-6446842D01*
X48551925Y-6415600D01*
X48712075Y-6415600D01*
X48869142Y-6446842D01*
G37*
G36*
X46329142Y-6446842D02*
G01*
X46477101Y-6508129D01*
X46610255Y-6597099D01*
X46723501Y-6710345D01*
X46812471Y-6843499D01*
X46873758Y-6991458D01*
X46905000Y-7148525D01*
X46905000Y-7308675D01*
X46873758Y-7465742D01*
X46812471Y-7613701D01*
X46723501Y-7746855D01*
X46610255Y-7860101D01*
X46477101Y-7949071D01*
X46329142Y-8010358D01*
X46172075Y-8041600D01*
X46011925Y-8041600D01*
X45854858Y-8010358D01*
X45706899Y-7949071D01*
X45573745Y-7860101D01*
X45460499Y-7746855D01*
X45371529Y-7613701D01*
X45310242Y-7465742D01*
X45279000Y-7308675D01*
X45279000Y-7148525D01*
X45310242Y-6991458D01*
X45371529Y-6843499D01*
X45460499Y-6710345D01*
X45573745Y-6597099D01*
X45706899Y-6508129D01*
X45854858Y-6446842D01*
X46011925Y-6415600D01*
X46172075Y-6415600D01*
X46329142Y-6446842D01*
G37*
G36*
X53949142Y-6446842D02*
G01*
X54097101Y-6508129D01*
X54230255Y-6597099D01*
X54343501Y-6710345D01*
X54432471Y-6843499D01*
X54493758Y-6991458D01*
X54525000Y-7148525D01*
X54525000Y-7308675D01*
X54493758Y-7465742D01*
X54432471Y-7613701D01*
X54343501Y-7746855D01*
X54230255Y-7860101D01*
X54097101Y-7949071D01*
X53949142Y-8010358D01*
X53792075Y-8041600D01*
X53631925Y-8041600D01*
X53474858Y-8010358D01*
X53326899Y-7949071D01*
X53193745Y-7860101D01*
X53080499Y-7746855D01*
X52991529Y-7613701D01*
X52930242Y-7465742D01*
X52899000Y-7308675D01*
X52899000Y-7148525D01*
X52930242Y-6991458D01*
X52991529Y-6843499D01*
X53080499Y-6710345D01*
X53193745Y-6597099D01*
X53326899Y-6508129D01*
X53474858Y-6446842D01*
X53631925Y-6415600D01*
X53792075Y-6415600D01*
X53949142Y-6446842D01*
G37*
G36*
X43789142Y-6446842D02*
G01*
X43937101Y-6508129D01*
X44070255Y-6597099D01*
X44183501Y-6710345D01*
X44272471Y-6843499D01*
X44333758Y-6991458D01*
X44365000Y-7148525D01*
X44365000Y-7308675D01*
X44333758Y-7465742D01*
X44272471Y-7613701D01*
X44183501Y-7746855D01*
X44070255Y-7860101D01*
X43937101Y-7949071D01*
X43789142Y-8010358D01*
X43632075Y-8041600D01*
X43471925Y-8041600D01*
X43314858Y-8010358D01*
X43166899Y-7949071D01*
X43033745Y-7860101D01*
X42920499Y-7746855D01*
X42831529Y-7613701D01*
X42770242Y-7465742D01*
X42739000Y-7308675D01*
X42739000Y-7148525D01*
X42770242Y-6991458D01*
X42831529Y-6843499D01*
X42920499Y-6710345D01*
X43033745Y-6597099D01*
X43166899Y-6508129D01*
X43314858Y-6446842D01*
X43471925Y-6415600D01*
X43632075Y-6415600D01*
X43789142Y-6446842D01*
G37*
G36*
X41249142Y-6446842D02*
G01*
X41397101Y-6508129D01*
X41530255Y-6597099D01*
X41643501Y-6710345D01*
X41732471Y-6843499D01*
X41793758Y-6991458D01*
X41825000Y-7148525D01*
X41825000Y-7308675D01*
X41793758Y-7465742D01*
X41732471Y-7613701D01*
X41643501Y-7746855D01*
X41530255Y-7860101D01*
X41397101Y-7949071D01*
X41249142Y-8010358D01*
X41092075Y-8041600D01*
X40931925Y-8041600D01*
X40774858Y-8010358D01*
X40626899Y-7949071D01*
X40493745Y-7860101D01*
X40380499Y-7746855D01*
X40291529Y-7613701D01*
X40230242Y-7465742D01*
X40199000Y-7308675D01*
X40199000Y-7148525D01*
X40230242Y-6991458D01*
X40291529Y-6843499D01*
X40380499Y-6710345D01*
X40493745Y-6597099D01*
X40626899Y-6508129D01*
X40774858Y-6446842D01*
X40931925Y-6415600D01*
X41092075Y-6415600D01*
X41249142Y-6446842D01*
G37*
G36*
X33629142Y-6446842D02*
G01*
X33777101Y-6508129D01*
X33910255Y-6597099D01*
X34023501Y-6710345D01*
X34112471Y-6843499D01*
X34173758Y-6991458D01*
X34205000Y-7148525D01*
X34205000Y-7308675D01*
X34173758Y-7465742D01*
X34112471Y-7613701D01*
X34023501Y-7746855D01*
X33910255Y-7860101D01*
X33777101Y-7949071D01*
X33629142Y-8010358D01*
X33472075Y-8041600D01*
X33311925Y-8041600D01*
X33154858Y-8010358D01*
X33006899Y-7949071D01*
X32873745Y-7860101D01*
X32760499Y-7746855D01*
X32671529Y-7613701D01*
X32610242Y-7465742D01*
X32579000Y-7308675D01*
X32579000Y-7148525D01*
X32610242Y-6991458D01*
X32671529Y-6843499D01*
X32760499Y-6710345D01*
X32873745Y-6597099D01*
X33006899Y-6508129D01*
X33154858Y-6446842D01*
X33311925Y-6415600D01*
X33472075Y-6415600D01*
X33629142Y-6446842D01*
G37*
G36*
X38709142Y-6446842D02*
G01*
X38857101Y-6508129D01*
X38990255Y-6597099D01*
X39103501Y-6710345D01*
X39192471Y-6843499D01*
X39253758Y-6991458D01*
X39285000Y-7148525D01*
X39285000Y-7308675D01*
X39253758Y-7465742D01*
X39192471Y-7613701D01*
X39103501Y-7746855D01*
X38990255Y-7860101D01*
X38857101Y-7949071D01*
X38709142Y-8010358D01*
X38552075Y-8041600D01*
X38391925Y-8041600D01*
X38234858Y-8010358D01*
X38086899Y-7949071D01*
X37953745Y-7860101D01*
X37840499Y-7746855D01*
X37751529Y-7613701D01*
X37690242Y-7465742D01*
X37659000Y-7308675D01*
X37659000Y-7148525D01*
X37690242Y-6991458D01*
X37751529Y-6843499D01*
X37840499Y-6710345D01*
X37953745Y-6597099D01*
X38086899Y-6508129D01*
X38234858Y-6446842D01*
X38391925Y-6415600D01*
X38552075Y-6415600D01*
X38709142Y-6446842D01*
G37*
G36*
X36169142Y-6446842D02*
G01*
X36317101Y-6508129D01*
X36450255Y-6597099D01*
X36563501Y-6710345D01*
X36652471Y-6843499D01*
X36713758Y-6991458D01*
X36745000Y-7148525D01*
X36745000Y-7308675D01*
X36713758Y-7465742D01*
X36652471Y-7613701D01*
X36563501Y-7746855D01*
X36450255Y-7860101D01*
X36317101Y-7949071D01*
X36169142Y-8010358D01*
X36012075Y-8041600D01*
X35851925Y-8041600D01*
X35694858Y-8010358D01*
X35546899Y-7949071D01*
X35413745Y-7860101D01*
X35300499Y-7746855D01*
X35211529Y-7613701D01*
X35150242Y-7465742D01*
X35119000Y-7308675D01*
X35119000Y-7148525D01*
X35150242Y-6991458D01*
X35211529Y-6843499D01*
X35300499Y-6710345D01*
X35413745Y-6597099D01*
X35546899Y-6508129D01*
X35694858Y-6446842D01*
X35851925Y-6415600D01*
X36012075Y-6415600D01*
X36169142Y-6446842D01*
G37*
G36*
X51409142Y-6446842D02*
G01*
X51557101Y-6508129D01*
X51690255Y-6597099D01*
X51803501Y-6710345D01*
X51892471Y-6843499D01*
X51953758Y-6991458D01*
X51985000Y-7148525D01*
X51985000Y-7308675D01*
X51953758Y-7465742D01*
X51892471Y-7613701D01*
X51803501Y-7746855D01*
X51690255Y-7860101D01*
X51557101Y-7949071D01*
X51409142Y-8010358D01*
X51252075Y-8041600D01*
X51091925Y-8041600D01*
X50934858Y-8010358D01*
X50786899Y-7949071D01*
X50653745Y-7860101D01*
X50540499Y-7746855D01*
X50451529Y-7613701D01*
X50390242Y-7465742D01*
X50359000Y-7308675D01*
X50359000Y-7148525D01*
X50390242Y-6991458D01*
X50451529Y-6843499D01*
X50540499Y-6710345D01*
X50653745Y-6597099D01*
X50786899Y-6508129D01*
X50934858Y-6446842D01*
X51091925Y-6415600D01*
X51252075Y-6415600D01*
X51409142Y-6446842D01*
G37*
G36*
X31089142Y-6446842D02*
G01*
X31237101Y-6508129D01*
X31370255Y-6597099D01*
X31483501Y-6710345D01*
X31572471Y-6843499D01*
X31633758Y-6991458D01*
X31665000Y-7148525D01*
X31665000Y-7308675D01*
X31633758Y-7465742D01*
X31572471Y-7613701D01*
X31483501Y-7746855D01*
X31370255Y-7860101D01*
X31237101Y-7949071D01*
X31089142Y-8010358D01*
X30932075Y-8041600D01*
X30771925Y-8041600D01*
X30614858Y-8010358D01*
X30466899Y-7949071D01*
X30333745Y-7860101D01*
X30220499Y-7746855D01*
X30131529Y-7613701D01*
X30070242Y-7465742D01*
X30039000Y-7308675D01*
X30039000Y-7148525D01*
X30070242Y-6991458D01*
X30131529Y-6843499D01*
X30220499Y-6710345D01*
X30333745Y-6597099D01*
X30466899Y-6508129D01*
X30614858Y-6446842D01*
X30771925Y-6415600D01*
X30932075Y-6415600D01*
X31089142Y-6446842D01*
G37*
G36*
X28549142Y-6446842D02*
G01*
X28697101Y-6508129D01*
X28830255Y-6597099D01*
X28943501Y-6710345D01*
X29032471Y-6843499D01*
X29093758Y-6991458D01*
X29125000Y-7148525D01*
X29125000Y-7308675D01*
X29093758Y-7465742D01*
X29032471Y-7613701D01*
X28943501Y-7746855D01*
X28830255Y-7860101D01*
X28697101Y-7949071D01*
X28549142Y-8010358D01*
X28392075Y-8041600D01*
X28231925Y-8041600D01*
X28074858Y-8010358D01*
X27926899Y-7949071D01*
X27793745Y-7860101D01*
X27680499Y-7746855D01*
X27591529Y-7613701D01*
X27530242Y-7465742D01*
X27499000Y-7308675D01*
X27499000Y-7148525D01*
X27530242Y-6991458D01*
X27591529Y-6843499D01*
X27680499Y-6710345D01*
X27793745Y-6597099D01*
X27926899Y-6508129D01*
X28074858Y-6446842D01*
X28231925Y-6415600D01*
X28392075Y-6415600D01*
X28549142Y-6446842D01*
G37*
G36*
X26009142Y-6446842D02*
G01*
X26157101Y-6508129D01*
X26290255Y-6597099D01*
X26403501Y-6710345D01*
X26492471Y-6843499D01*
X26553758Y-6991458D01*
X26585000Y-7148525D01*
X26585000Y-7308675D01*
X26553758Y-7465742D01*
X26492471Y-7613701D01*
X26403501Y-7746855D01*
X26290255Y-7860101D01*
X26157101Y-7949071D01*
X26009142Y-8010358D01*
X25852075Y-8041600D01*
X25691925Y-8041600D01*
X25534858Y-8010358D01*
X25386899Y-7949071D01*
X25253745Y-7860101D01*
X25140499Y-7746855D01*
X25051529Y-7613701D01*
X24990242Y-7465742D01*
X24959000Y-7308675D01*
X24959000Y-7148525D01*
X24990242Y-6991458D01*
X25051529Y-6843499D01*
X25140499Y-6710345D01*
X25253745Y-6597099D01*
X25386899Y-6508129D01*
X25534858Y-6446842D01*
X25691925Y-6415600D01*
X25852075Y-6415600D01*
X26009142Y-6446842D01*
G37*
G36*
X58726000Y-6986000D02*
G01*
X57674000Y-6986000D01*
X57674000Y-5584000D01*
X58726000Y-5584000D01*
X58726000Y-6986000D01*
G37*
G36*
X94426000Y-6876000D02*
G01*
X93374000Y-6876000D01*
X93374000Y-5474000D01*
X94426000Y-5474000D01*
X94426000Y-6876000D01*
G37*
G36*
X75566000Y-6846000D02*
G01*
X74514000Y-6846000D01*
X74514000Y-5444000D01*
X75566000Y-5444000D01*
X75566000Y-6846000D01*
G37*
G36*
X97006000Y-6786000D02*
G01*
X95954000Y-6786000D01*
X95954000Y-5384000D01*
X97006000Y-5384000D01*
X97006000Y-6786000D01*
G37*
G36*
X37629500Y-5899500D02*
G01*
X36130500Y-5899500D01*
X36130500Y-4400500D01*
X37629500Y-4400500D01*
X37629500Y-5899500D01*
G37*
G36*
X37406000Y-3816000D02*
G01*
X36354000Y-3816000D01*
X36354000Y-2414000D01*
X37406000Y-2414000D01*
X37406000Y-3816000D01*
G37*
G36*
X58726000Y-3436000D02*
G01*
X57674000Y-3436000D01*
X57674000Y-2034000D01*
X58726000Y-2034000D01*
X58726000Y-3436000D01*
G37*
G36*
X94426000Y-3326000D02*
G01*
X93374000Y-3326000D01*
X93374000Y-1924000D01*
X94426000Y-1924000D01*
X94426000Y-3326000D01*
G37*
G36*
X75566000Y-3296000D02*
G01*
X74514000Y-3296000D01*
X74514000Y-1894000D01*
X75566000Y-1894000D01*
X75566000Y-3296000D01*
G37*
G36*
X97006000Y-3236000D02*
G01*
X95954000Y-3236000D01*
X95954000Y-1834000D01*
X97006000Y-1834000D01*
X97006000Y-3236000D01*
G37*
G36*
X48102536Y2047173D02*
G01*
X48237839Y2020260D01*
X48620197Y1861882D01*
X48964310Y1631953D01*
X49256953Y1339310D01*
X49486882Y995197D01*
X49634797Y638100D01*
X49645260Y612838D01*
X49726000Y206932D01*
X49726000Y-206932D01*
X49672847Y-474149D01*
X49645260Y-612839D01*
X49578580Y-773819D01*
X49507667Y-945019D01*
X49486882Y-995197D01*
X49446910Y-1055019D01*
X49276872Y-1309500D01*
X49256953Y-1339310D01*
X48964310Y-1631953D01*
X48620197Y-1861882D01*
X48237839Y-2020260D01*
X48168763Y-2034000D01*
X47831932Y-2101000D01*
X47418068Y-2101000D01*
X47081237Y-2034000D01*
X47012161Y-2020260D01*
X46629803Y-1861882D01*
X46285690Y-1631953D01*
X45993047Y-1339310D01*
X45973129Y-1309500D01*
X45803090Y-1055019D01*
X45763118Y-995197D01*
X45742334Y-945019D01*
X45671420Y-773819D01*
X45604740Y-612839D01*
X45577153Y-474149D01*
X45524000Y-206932D01*
X45524000Y206932D01*
X45604740Y612838D01*
X45615204Y638100D01*
X45763118Y995197D01*
X45993047Y1339310D01*
X46285690Y1631953D01*
X46629803Y1861882D01*
X47012161Y2020260D01*
X47147464Y2047173D01*
X47418068Y2101000D01*
X47831932Y2101000D01*
X48102536Y2047173D01*
G37*
G36*
X105252536Y2047173D02*
G01*
X105387839Y2020260D01*
X105770197Y1861882D01*
X106114310Y1631953D01*
X106406953Y1339310D01*
X106636882Y995197D01*
X106784797Y638100D01*
X106795260Y612838D01*
X106876000Y206932D01*
X106876000Y-206932D01*
X106822847Y-474149D01*
X106795260Y-612839D01*
X106728580Y-773819D01*
X106657667Y-945019D01*
X106636882Y-995197D01*
X106596910Y-1055019D01*
X106426872Y-1309500D01*
X106406953Y-1339310D01*
X106114310Y-1631953D01*
X105770197Y-1861882D01*
X105387839Y-2020260D01*
X105318763Y-2034000D01*
X104981932Y-2101000D01*
X104568068Y-2101000D01*
X104231237Y-2034000D01*
X104162161Y-2020260D01*
X103779803Y-1861882D01*
X103435690Y-1631953D01*
X103143047Y-1339310D01*
X103123129Y-1309500D01*
X102953090Y-1055019D01*
X102913118Y-995197D01*
X102892334Y-945019D01*
X102821420Y-773819D01*
X102754740Y-612839D01*
X102727153Y-474149D01*
X102674000Y-206932D01*
X102674000Y206932D01*
X102754740Y612838D01*
X102765204Y638100D01*
X102913118Y995197D01*
X103143047Y1339310D01*
X103435690Y1631953D01*
X103779803Y1861882D01*
X104162161Y2020260D01*
X104297464Y2047173D01*
X104568068Y2101000D01*
X104981932Y2101000D01*
X105252536Y2047173D01*
G37*
G36*
X67152536Y2047173D02*
G01*
X67287839Y2020260D01*
X67670197Y1861882D01*
X68014310Y1631953D01*
X68306953Y1339310D01*
X68536882Y995197D01*
X68684797Y638100D01*
X68695260Y612838D01*
X68776000Y206932D01*
X68776000Y-206932D01*
X68722847Y-474149D01*
X68695260Y-612839D01*
X68628580Y-773819D01*
X68557667Y-945019D01*
X68536882Y-995197D01*
X68496910Y-1055019D01*
X68326872Y-1309500D01*
X68306953Y-1339310D01*
X68014310Y-1631953D01*
X67670197Y-1861882D01*
X67287839Y-2020260D01*
X67218763Y-2034000D01*
X66881932Y-2101000D01*
X66468068Y-2101000D01*
X66131237Y-2034000D01*
X66062161Y-2020260D01*
X65679803Y-1861882D01*
X65335690Y-1631953D01*
X65043047Y-1339310D01*
X65023129Y-1309500D01*
X64853090Y-1055019D01*
X64813118Y-995197D01*
X64792334Y-945019D01*
X64721420Y-773819D01*
X64654740Y-612839D01*
X64627153Y-474149D01*
X64574000Y-206932D01*
X64574000Y206932D01*
X64654740Y612838D01*
X64665204Y638100D01*
X64813118Y995197D01*
X65043047Y1339310D01*
X65335690Y1631953D01*
X65679803Y1861882D01*
X66062161Y2020260D01*
X66197464Y2047173D01*
X66468068Y2101000D01*
X66881932Y2101000D01*
X67152536Y2047173D01*
G37*
G36*
X86202536Y2047173D02*
G01*
X86337839Y2020260D01*
X86720197Y1861882D01*
X87064310Y1631953D01*
X87356953Y1339310D01*
X87586882Y995197D01*
X87734797Y638100D01*
X87745260Y612838D01*
X87826000Y206932D01*
X87826000Y-206932D01*
X87772847Y-474149D01*
X87745260Y-612839D01*
X87678580Y-773819D01*
X87607667Y-945019D01*
X87586882Y-995197D01*
X87546910Y-1055019D01*
X87376872Y-1309500D01*
X87356953Y-1339310D01*
X87064310Y-1631953D01*
X86720197Y-1861882D01*
X86337839Y-2020260D01*
X86268763Y-2034000D01*
X85931932Y-2101000D01*
X85518068Y-2101000D01*
X85181237Y-2034000D01*
X85112161Y-2020260D01*
X84729803Y-1861882D01*
X84385690Y-1631953D01*
X84093047Y-1339310D01*
X84073129Y-1309500D01*
X83903090Y-1055019D01*
X83863118Y-995197D01*
X83842334Y-945019D01*
X83771420Y-773819D01*
X83704740Y-612839D01*
X83677153Y-474149D01*
X83624000Y-206932D01*
X83624000Y206932D01*
X83704740Y612838D01*
X83715204Y638100D01*
X83863118Y995197D01*
X84093047Y1339310D01*
X84385690Y1631953D01*
X84729803Y1861882D01*
X85112161Y2020260D01*
X85247464Y2047173D01*
X85518068Y2101000D01*
X85931932Y2101000D01*
X86202536Y2047173D01*
G37*
G36*
X29052536Y2047173D02*
G01*
X29187839Y2020260D01*
X29570197Y1861882D01*
X29914310Y1631953D01*
X30206953Y1339310D01*
X30436882Y995197D01*
X30584797Y638100D01*
X30595260Y612838D01*
X30676000Y206932D01*
X30676000Y-206932D01*
X30622847Y-474149D01*
X30595260Y-612839D01*
X30528580Y-773819D01*
X30457667Y-945019D01*
X30436882Y-995197D01*
X30396910Y-1055019D01*
X30226872Y-1309500D01*
X30206953Y-1339310D01*
X29914310Y-1631953D01*
X29570197Y-1861882D01*
X29187839Y-2020260D01*
X29118763Y-2034000D01*
X28781932Y-2101000D01*
X28368068Y-2101000D01*
X28031237Y-2034000D01*
X27962161Y-2020260D01*
X27579803Y-1861882D01*
X27235690Y-1631953D01*
X26943047Y-1339310D01*
X26923129Y-1309500D01*
X26753090Y-1055019D01*
X26713118Y-995197D01*
X26692334Y-945019D01*
X26621420Y-773819D01*
X26554740Y-612839D01*
X26527153Y-474149D01*
X26474000Y-206932D01*
X26474000Y206932D01*
X26554740Y612838D01*
X26565204Y638100D01*
X26713118Y995197D01*
X26943047Y1339310D01*
X27235690Y1631953D01*
X27579803Y1861882D01*
X27962161Y2020260D01*
X28097464Y2047173D01*
X28368068Y2101000D01*
X28781932Y2101000D01*
X29052536Y2047173D01*
G37*
G36*
X58294425Y45401D02*
G01*
X58418621Y20698D01*
X58555022Y-35801D01*
X58677779Y-117825D01*
X58782175Y-222221D01*
X58864199Y-344978D01*
X58920698Y-481379D01*
X58939085Y-573819D01*
X58949500Y-626180D01*
X58949500Y-773820D01*
X58948545Y-778620D01*
X58920698Y-918621D01*
X58864199Y-1055022D01*
X58782175Y-1177779D01*
X58677779Y-1282175D01*
X58555022Y-1364199D01*
X58418621Y-1420698D01*
X58294425Y-1445401D01*
X58273820Y-1449500D01*
X58126180Y-1449500D01*
X58105575Y-1445401D01*
X57981379Y-1420698D01*
X57844978Y-1364199D01*
X57722221Y-1282175D01*
X57617825Y-1177779D01*
X57535801Y-1055022D01*
X57479302Y-918621D01*
X57451455Y-778620D01*
X57450500Y-773820D01*
X57450500Y-626180D01*
X57460915Y-573819D01*
X57479302Y-481379D01*
X57535801Y-344978D01*
X57617825Y-222221D01*
X57722221Y-117825D01*
X57844978Y-35801D01*
X57981379Y20698D01*
X58105575Y45401D01*
X58126180Y49500D01*
X58273820Y49500D01*
X58294425Y45401D01*
G37*
G36*
X93994425Y155401D02*
G01*
X94118621Y130698D01*
X94255022Y74199D01*
X94377779Y-7825D01*
X94482175Y-112221D01*
X94564199Y-234978D01*
X94620698Y-371379D01*
X94649500Y-516181D01*
X94649500Y-663819D01*
X94620698Y-808621D01*
X94564199Y-945022D01*
X94482175Y-1067779D01*
X94377779Y-1172175D01*
X94255022Y-1254199D01*
X94118621Y-1310698D01*
X93994425Y-1335401D01*
X93973820Y-1339500D01*
X93826180Y-1339500D01*
X93805575Y-1335401D01*
X93681379Y-1310698D01*
X93544978Y-1254199D01*
X93422221Y-1172175D01*
X93317825Y-1067779D01*
X93235801Y-945022D01*
X93179302Y-808621D01*
X93150500Y-663819D01*
X93150500Y-516181D01*
X93179302Y-371379D01*
X93235801Y-234978D01*
X93317825Y-112221D01*
X93422221Y-7825D01*
X93544978Y74199D01*
X93681379Y130698D01*
X93805575Y155401D01*
X93826180Y159500D01*
X93973820Y159500D01*
X93994425Y155401D01*
G37*
G36*
X75134425Y185401D02*
G01*
X75258621Y160698D01*
X75395022Y104199D01*
X75517779Y22175D01*
X75622175Y-82221D01*
X75704199Y-204978D01*
X75760698Y-341379D01*
X75785401Y-465575D01*
X75789500Y-486180D01*
X75789500Y-633820D01*
X75785401Y-654425D01*
X75760698Y-778621D01*
X75704199Y-915022D01*
X75622175Y-1037779D01*
X75517779Y-1142175D01*
X75395022Y-1224199D01*
X75258621Y-1280698D01*
X75134425Y-1305401D01*
X75113820Y-1309500D01*
X74966180Y-1309500D01*
X74945575Y-1305401D01*
X74821379Y-1280698D01*
X74684978Y-1224199D01*
X74562221Y-1142175D01*
X74457825Y-1037779D01*
X74375801Y-915022D01*
X74319302Y-778621D01*
X74294599Y-654425D01*
X74290500Y-633820D01*
X74290500Y-486180D01*
X74294599Y-465575D01*
X74319302Y-341379D01*
X74375801Y-204978D01*
X74457825Y-82221D01*
X74562221Y22175D01*
X74684978Y104199D01*
X74821379Y160698D01*
X74945575Y185401D01*
X74966180Y189500D01*
X75113820Y189500D01*
X75134425Y185401D01*
G37*
G36*
X96574425Y245401D02*
G01*
X96698621Y220698D01*
X96835022Y164199D01*
X96957779Y82175D01*
X97062175Y-22221D01*
X97144199Y-144978D01*
X97200698Y-281379D01*
X97229500Y-426181D01*
X97229500Y-573819D01*
X97200698Y-718621D01*
X97144199Y-855022D01*
X97062175Y-977779D01*
X96957779Y-1082175D01*
X96835022Y-1164199D01*
X96698621Y-1220698D01*
X96574425Y-1245401D01*
X96553820Y-1249500D01*
X96406180Y-1249500D01*
X96385575Y-1245401D01*
X96261379Y-1220698D01*
X96124978Y-1164199D01*
X96002221Y-1082175D01*
X95897825Y-977779D01*
X95815801Y-855022D01*
X95759302Y-718621D01*
X95730500Y-573819D01*
X95730500Y-426181D01*
X95759302Y-281379D01*
X95815801Y-144978D01*
X95897825Y-22221D01*
X96002221Y82175D01*
X96124978Y164199D01*
X96261379Y220698D01*
X96385575Y245401D01*
X96406180Y249500D01*
X96553820Y249500D01*
X96574425Y245401D01*
G37*
G36*
X42672764Y995197D02*
G01*
X42836981Y962532D01*
X43019151Y887074D01*
X43183100Y777527D01*
X43322527Y638100D01*
X43339406Y612838D01*
X43432075Y474149D01*
X43507532Y291980D01*
X43539614Y130697D01*
X43546000Y98590D01*
X43546000Y-98590D01*
X43507532Y-291981D01*
X43432074Y-474151D01*
X43322527Y-638100D01*
X43183100Y-777527D01*
X43019151Y-887074D01*
X42836981Y-962532D01*
X42760329Y-977779D01*
X42643591Y-1001000D01*
X42446409Y-1001000D01*
X42329671Y-977779D01*
X42253019Y-962532D01*
X42070849Y-887074D01*
X41906900Y-777527D01*
X41767473Y-638100D01*
X41657926Y-474151D01*
X41582468Y-291981D01*
X41544000Y-98590D01*
X41544000Y98590D01*
X41550387Y130697D01*
X41582468Y291980D01*
X41657925Y474149D01*
X41750594Y612838D01*
X41767473Y638100D01*
X41906900Y777527D01*
X42070849Y887074D01*
X42253019Y962532D01*
X42417236Y995197D01*
X42446409Y1001000D01*
X42643591Y1001000D01*
X42672764Y995197D01*
G37*
G36*
X71882764Y995197D02*
G01*
X72046981Y962532D01*
X72229151Y887074D01*
X72393100Y777527D01*
X72532527Y638100D01*
X72549406Y612838D01*
X72642075Y474149D01*
X72717532Y291980D01*
X72749614Y130697D01*
X72756000Y98590D01*
X72756000Y-98590D01*
X72717532Y-291981D01*
X72642074Y-474151D01*
X72532527Y-638100D01*
X72393100Y-777527D01*
X72229151Y-887074D01*
X72046981Y-962532D01*
X71970329Y-977779D01*
X71853591Y-1001000D01*
X71656409Y-1001000D01*
X71539671Y-977779D01*
X71463019Y-962532D01*
X71280849Y-887074D01*
X71116900Y-777527D01*
X70977473Y-638100D01*
X70867926Y-474151D01*
X70792468Y-291981D01*
X70754000Y-98590D01*
X70754000Y98590D01*
X70760387Y130697D01*
X70792468Y291980D01*
X70867925Y474149D01*
X70960594Y612838D01*
X70977473Y638100D01*
X71116900Y777527D01*
X71280849Y887074D01*
X71463019Y962532D01*
X71627236Y995197D01*
X71656409Y1001000D01*
X71853591Y1001000D01*
X71882764Y995197D01*
G37*
G36*
X61722764Y995197D02*
G01*
X61886981Y962532D01*
X62069151Y887074D01*
X62233100Y777527D01*
X62372527Y638100D01*
X62389406Y612838D01*
X62482075Y474149D01*
X62557532Y291980D01*
X62589614Y130697D01*
X62596000Y98590D01*
X62596000Y-98590D01*
X62557532Y-291981D01*
X62482074Y-474151D01*
X62372527Y-638100D01*
X62233100Y-777527D01*
X62069151Y-887074D01*
X61886981Y-962532D01*
X61810329Y-977779D01*
X61693591Y-1001000D01*
X61496409Y-1001000D01*
X61379671Y-977779D01*
X61303019Y-962532D01*
X61120849Y-887074D01*
X60956900Y-777527D01*
X60817473Y-638100D01*
X60707926Y-474151D01*
X60632468Y-291981D01*
X60594000Y-98590D01*
X60594000Y98590D01*
X60600387Y130697D01*
X60632468Y291980D01*
X60707925Y474149D01*
X60800594Y612838D01*
X60817473Y638100D01*
X60956900Y777527D01*
X61120849Y887074D01*
X61303019Y962532D01*
X61467236Y995197D01*
X61496409Y1001000D01*
X61693591Y1001000D01*
X61722764Y995197D01*
G37*
G36*
X23622764Y995197D02*
G01*
X23786981Y962532D01*
X23969151Y887074D01*
X24133100Y777527D01*
X24272527Y638100D01*
X24289406Y612838D01*
X24382075Y474149D01*
X24457532Y291980D01*
X24489614Y130697D01*
X24496000Y98590D01*
X24496000Y-98590D01*
X24457532Y-291981D01*
X24382074Y-474151D01*
X24272527Y-638100D01*
X24133100Y-777527D01*
X23969151Y-887074D01*
X23786981Y-962532D01*
X23710329Y-977779D01*
X23593591Y-1001000D01*
X23396409Y-1001000D01*
X23279671Y-977779D01*
X23203019Y-962532D01*
X23020849Y-887074D01*
X22856900Y-777527D01*
X22717473Y-638100D01*
X22607926Y-474151D01*
X22532468Y-291981D01*
X22494000Y-98590D01*
X22494000Y98590D01*
X22500387Y130697D01*
X22532468Y291980D01*
X22607925Y474149D01*
X22700594Y612838D01*
X22717473Y638100D01*
X22856900Y777527D01*
X23020849Y887074D01*
X23203019Y962532D01*
X23367236Y995197D01*
X23396409Y1001000D01*
X23593591Y1001000D01*
X23622764Y995197D01*
G37*
G36*
X33782764Y995197D02*
G01*
X33946981Y962532D01*
X34129151Y887074D01*
X34293100Y777527D01*
X34432527Y638100D01*
X34449406Y612838D01*
X34542075Y474149D01*
X34617532Y291980D01*
X34649614Y130697D01*
X34656000Y98590D01*
X34656000Y-98590D01*
X34617532Y-291981D01*
X34542074Y-474151D01*
X34432527Y-638100D01*
X34293100Y-777527D01*
X34129151Y-887074D01*
X33946981Y-962532D01*
X33870329Y-977779D01*
X33753591Y-1001000D01*
X33556409Y-1001000D01*
X33439671Y-977779D01*
X33363019Y-962532D01*
X33180849Y-887074D01*
X33016900Y-777527D01*
X32877473Y-638100D01*
X32767926Y-474151D01*
X32692468Y-291981D01*
X32654000Y-98590D01*
X32654000Y98590D01*
X32660387Y130697D01*
X32692468Y291980D01*
X32767925Y474149D01*
X32860594Y612838D01*
X32877473Y638100D01*
X33016900Y777527D01*
X33180849Y887074D01*
X33363019Y962532D01*
X33527236Y995197D01*
X33556409Y1001000D01*
X33753591Y1001000D01*
X33782764Y995197D01*
G37*
G36*
X109982764Y995197D02*
G01*
X110146981Y962532D01*
X110329151Y887074D01*
X110493100Y777527D01*
X110632527Y638100D01*
X110649406Y612838D01*
X110742075Y474149D01*
X110817532Y291980D01*
X110849614Y130697D01*
X110856000Y98590D01*
X110856000Y-98590D01*
X110817532Y-291981D01*
X110742074Y-474151D01*
X110632527Y-638100D01*
X110493100Y-777527D01*
X110329151Y-887074D01*
X110146981Y-962532D01*
X110070329Y-977779D01*
X109953591Y-1001000D01*
X109756409Y-1001000D01*
X109639671Y-977779D01*
X109563019Y-962532D01*
X109380849Y-887074D01*
X109216900Y-777527D01*
X109077473Y-638100D01*
X108967926Y-474151D01*
X108892468Y-291981D01*
X108854000Y-98590D01*
X108854000Y98590D01*
X108860387Y130697D01*
X108892468Y291980D01*
X108967925Y474149D01*
X109060594Y612838D01*
X109077473Y638100D01*
X109216900Y777527D01*
X109380849Y887074D01*
X109563019Y962532D01*
X109727236Y995197D01*
X109756409Y1001000D01*
X109953591Y1001000D01*
X109982764Y995197D01*
G37*
G36*
X99822764Y995197D02*
G01*
X99986981Y962532D01*
X100169151Y887074D01*
X100333100Y777527D01*
X100472527Y638100D01*
X100489406Y612838D01*
X100582075Y474149D01*
X100657532Y291980D01*
X100689614Y130697D01*
X100696000Y98590D01*
X100696000Y-98590D01*
X100657532Y-291981D01*
X100582074Y-474151D01*
X100472527Y-638100D01*
X100333100Y-777527D01*
X100169151Y-887074D01*
X99986981Y-962532D01*
X99910329Y-977779D01*
X99793591Y-1001000D01*
X99596409Y-1001000D01*
X99479671Y-977779D01*
X99403019Y-962532D01*
X99220849Y-887074D01*
X99056900Y-777527D01*
X98917473Y-638100D01*
X98807926Y-474151D01*
X98732468Y-291981D01*
X98694000Y-98590D01*
X98694000Y98590D01*
X98700387Y130697D01*
X98732468Y291980D01*
X98807925Y474149D01*
X98900594Y612838D01*
X98917473Y638100D01*
X99056900Y777527D01*
X99220849Y887074D01*
X99403019Y962532D01*
X99567236Y995197D01*
X99596409Y1001000D01*
X99793591Y1001000D01*
X99822764Y995197D01*
G37*
G36*
X90932764Y995197D02*
G01*
X91096981Y962532D01*
X91279151Y887074D01*
X91443100Y777527D01*
X91582527Y638100D01*
X91599406Y612838D01*
X91692075Y474149D01*
X91767532Y291980D01*
X91799614Y130697D01*
X91806000Y98590D01*
X91806000Y-98590D01*
X91767532Y-291981D01*
X91692074Y-474151D01*
X91582527Y-638100D01*
X91443100Y-777527D01*
X91279151Y-887074D01*
X91096981Y-962532D01*
X91020329Y-977779D01*
X90903591Y-1001000D01*
X90706409Y-1001000D01*
X90589671Y-977779D01*
X90513019Y-962532D01*
X90330849Y-887074D01*
X90166900Y-777527D01*
X90027473Y-638100D01*
X89917926Y-474151D01*
X89842468Y-291981D01*
X89804000Y-98590D01*
X89804000Y98590D01*
X89810387Y130697D01*
X89842468Y291980D01*
X89917925Y474149D01*
X90010594Y612838D01*
X90027473Y638100D01*
X90166900Y777527D01*
X90330849Y887074D01*
X90513019Y962532D01*
X90677236Y995197D01*
X90706409Y1001000D01*
X90903591Y1001000D01*
X90932764Y995197D01*
G37*
G36*
X80772764Y995197D02*
G01*
X80936981Y962532D01*
X81119151Y887074D01*
X81283100Y777527D01*
X81422527Y638100D01*
X81439406Y612838D01*
X81532075Y474149D01*
X81607532Y291980D01*
X81639614Y130697D01*
X81646000Y98590D01*
X81646000Y-98590D01*
X81607532Y-291981D01*
X81532074Y-474151D01*
X81422527Y-638100D01*
X81283100Y-777527D01*
X81119151Y-887074D01*
X80936981Y-962532D01*
X80860329Y-977779D01*
X80743591Y-1001000D01*
X80546409Y-1001000D01*
X80429671Y-977779D01*
X80353019Y-962532D01*
X80170849Y-887074D01*
X80006900Y-777527D01*
X79867473Y-638100D01*
X79757926Y-474151D01*
X79682468Y-291981D01*
X79644000Y-98590D01*
X79644000Y98590D01*
X79650387Y130697D01*
X79682468Y291980D01*
X79757925Y474149D01*
X79850594Y612838D01*
X79867473Y638100D01*
X80006900Y777527D01*
X80170849Y887074D01*
X80353019Y962532D01*
X80517236Y995197D01*
X80546409Y1001000D01*
X80743591Y1001000D01*
X80772764Y995197D01*
G37*
G36*
X52832764Y995197D02*
G01*
X52996981Y962532D01*
X53179151Y887074D01*
X53343100Y777527D01*
X53482527Y638100D01*
X53499406Y612838D01*
X53592075Y474149D01*
X53667532Y291980D01*
X53699614Y130697D01*
X53706000Y98590D01*
X53706000Y-98590D01*
X53667532Y-291981D01*
X53592074Y-474151D01*
X53482527Y-638100D01*
X53343100Y-777527D01*
X53179151Y-887074D01*
X52996981Y-962532D01*
X52920329Y-977779D01*
X52803591Y-1001000D01*
X52606409Y-1001000D01*
X52489671Y-977779D01*
X52413019Y-962532D01*
X52230849Y-887074D01*
X52066900Y-777527D01*
X51927473Y-638100D01*
X51817926Y-474151D01*
X51742468Y-291981D01*
X51704000Y-98590D01*
X51704000Y98590D01*
X51710387Y130697D01*
X51742468Y291980D01*
X51817925Y474149D01*
X51910594Y612838D01*
X51927473Y638100D01*
X52066900Y777527D01*
X52230849Y887074D01*
X52413019Y962532D01*
X52577236Y995197D01*
X52606409Y1001000D01*
X52803591Y1001000D01*
X52832764Y995197D01*
G37*
G36*
X37406000Y-266000D02*
G01*
X36354000Y-266000D01*
X36354000Y1136000D01*
X37406000Y1136000D01*
X37406000Y-266000D01*
G37*
G36*
X101267585Y4061198D02*
G01*
X101417410Y4031396D01*
X101699674Y3914479D01*
X101953705Y3744741D01*
X102169741Y3528705D01*
X102339479Y3274674D01*
X102456396Y2992410D01*
X102456396Y2992409D01*
X102489692Y2825022D01*
X102516000Y2692760D01*
X102516000Y2387240D01*
X102456396Y2087590D01*
X102339479Y1805326D01*
X102169741Y1551295D01*
X101953705Y1335259D01*
X101699674Y1165521D01*
X101417410Y1048604D01*
X101267585Y1018802D01*
X101117761Y989000D01*
X100812239Y989000D01*
X100662415Y1018802D01*
X100512590Y1048604D01*
X100230326Y1165521D01*
X99976295Y1335259D01*
X99760259Y1551295D01*
X99590521Y1805326D01*
X99473604Y2087590D01*
X99414000Y2387240D01*
X99414000Y2692760D01*
X99440309Y2825022D01*
X99473604Y2992409D01*
X99473604Y2992410D01*
X99590521Y3274674D01*
X99760259Y3528705D01*
X99976295Y3744741D01*
X100230326Y3914479D01*
X100512590Y4031396D01*
X100662415Y4061198D01*
X100812239Y4091000D01*
X101117761Y4091000D01*
X101267585Y4061198D01*
G37*
G36*
X82217585Y4061198D02*
G01*
X82367410Y4031396D01*
X82649674Y3914479D01*
X82903705Y3744741D01*
X83119741Y3528705D01*
X83289479Y3274674D01*
X83406396Y2992410D01*
X83406396Y2992409D01*
X83439692Y2825022D01*
X83466000Y2692760D01*
X83466000Y2387240D01*
X83406396Y2087590D01*
X83289479Y1805326D01*
X83119741Y1551295D01*
X82903705Y1335259D01*
X82649674Y1165521D01*
X82367410Y1048604D01*
X82217585Y1018802D01*
X82067761Y989000D01*
X81762239Y989000D01*
X81612415Y1018802D01*
X81462590Y1048604D01*
X81180326Y1165521D01*
X80926295Y1335259D01*
X80710259Y1551295D01*
X80540521Y1805326D01*
X80423604Y2087590D01*
X80364000Y2387240D01*
X80364000Y2692760D01*
X80390309Y2825022D01*
X80423604Y2992409D01*
X80423604Y2992410D01*
X80540521Y3274674D01*
X80710259Y3528705D01*
X80926295Y3744741D01*
X81180326Y3914479D01*
X81462590Y4031396D01*
X81612415Y4061198D01*
X81762239Y4091000D01*
X82067761Y4091000D01*
X82217585Y4061198D01*
G37*
G36*
X63167585Y4061198D02*
G01*
X63317410Y4031396D01*
X63599674Y3914479D01*
X63853705Y3744741D01*
X64069741Y3528705D01*
X64239479Y3274674D01*
X64356396Y2992410D01*
X64356396Y2992409D01*
X64389692Y2825022D01*
X64416000Y2692760D01*
X64416000Y2387240D01*
X64356396Y2087590D01*
X64239479Y1805326D01*
X64069741Y1551295D01*
X63853705Y1335259D01*
X63599674Y1165521D01*
X63317410Y1048604D01*
X63167585Y1018802D01*
X63017761Y989000D01*
X62712239Y989000D01*
X62562415Y1018802D01*
X62412590Y1048604D01*
X62130326Y1165521D01*
X61876295Y1335259D01*
X61660259Y1551295D01*
X61490521Y1805326D01*
X61373604Y2087590D01*
X61314000Y2387240D01*
X61314000Y2692760D01*
X61340309Y2825022D01*
X61373604Y2992409D01*
X61373604Y2992410D01*
X61490521Y3274674D01*
X61660259Y3528705D01*
X61876295Y3744741D01*
X62130326Y3914479D01*
X62412590Y4031396D01*
X62562415Y4061198D01*
X62712239Y4091000D01*
X63017761Y4091000D01*
X63167585Y4061198D01*
G37*
G36*
X44117585Y4061198D02*
G01*
X44267410Y4031396D01*
X44549674Y3914479D01*
X44803705Y3744741D01*
X45019741Y3528705D01*
X45189479Y3274674D01*
X45306396Y2992410D01*
X45306396Y2992409D01*
X45339692Y2825022D01*
X45366000Y2692760D01*
X45366000Y2387240D01*
X45306396Y2087590D01*
X45189479Y1805326D01*
X45019741Y1551295D01*
X44803705Y1335259D01*
X44549674Y1165521D01*
X44267410Y1048604D01*
X44117585Y1018802D01*
X43967761Y989000D01*
X43662239Y989000D01*
X43512415Y1018802D01*
X43362590Y1048604D01*
X43080326Y1165521D01*
X42826295Y1335259D01*
X42610259Y1551295D01*
X42440521Y1805326D01*
X42323604Y2087590D01*
X42264000Y2387240D01*
X42264000Y2692760D01*
X42290309Y2825022D01*
X42323604Y2992409D01*
X42323604Y2992410D01*
X42440521Y3274674D01*
X42610259Y3528705D01*
X42826295Y3744741D01*
X43080326Y3914479D01*
X43362590Y4031396D01*
X43512415Y4061198D01*
X43662239Y4091000D01*
X43967761Y4091000D01*
X44117585Y4061198D01*
G37*
G36*
X25067585Y4061198D02*
G01*
X25217410Y4031396D01*
X25499674Y3914479D01*
X25753705Y3744741D01*
X25969741Y3528705D01*
X26139479Y3274674D01*
X26256396Y2992410D01*
X26256396Y2992409D01*
X26289692Y2825022D01*
X26316000Y2692760D01*
X26316000Y2387240D01*
X26256396Y2087590D01*
X26139479Y1805326D01*
X25969741Y1551295D01*
X25753705Y1335259D01*
X25499674Y1165521D01*
X25217410Y1048604D01*
X25067585Y1018802D01*
X24917761Y989000D01*
X24612239Y989000D01*
X24462415Y1018802D01*
X24312590Y1048604D01*
X24030326Y1165521D01*
X23776295Y1335259D01*
X23560259Y1551295D01*
X23390521Y1805326D01*
X23273604Y2087590D01*
X23214000Y2387240D01*
X23214000Y2692760D01*
X23240309Y2825022D01*
X23273604Y2992409D01*
X23273604Y2992410D01*
X23390521Y3274674D01*
X23560259Y3528705D01*
X23776295Y3744741D01*
X24030326Y3914479D01*
X24312590Y4031396D01*
X24462415Y4061198D01*
X24612239Y4091000D01*
X24917761Y4091000D01*
X25067585Y4061198D01*
G37*
G36*
X99016000Y1239000D02*
G01*
X96364000Y1239000D01*
X96364000Y3841000D01*
X99016000Y3841000D01*
X99016000Y1239000D01*
G37*
G36*
X79966000Y1239000D02*
G01*
X77314000Y1239000D01*
X77314000Y3841000D01*
X79966000Y3841000D01*
X79966000Y1239000D01*
G37*
G36*
X22816000Y1239000D02*
G01*
X20164000Y1239000D01*
X20164000Y3841000D01*
X22816000Y3841000D01*
X22816000Y1239000D01*
G37*
G36*
X60916000Y1239000D02*
G01*
X58264000Y1239000D01*
X58264000Y3841000D01*
X60916000Y3841000D01*
X60916000Y1239000D01*
G37*
G36*
X41866000Y1239000D02*
G01*
X39214000Y1239000D01*
X39214000Y3841000D01*
X41866000Y3841000D01*
X41866000Y1239000D01*
G37*
G36*
X36974425Y3215401D02*
G01*
X37098621Y3190698D01*
X37235022Y3134199D01*
X37357779Y3052175D01*
X37462175Y2947779D01*
X37544199Y2825022D01*
X37600698Y2688621D01*
X37629500Y2543819D01*
X37629500Y2396181D01*
X37600698Y2251379D01*
X37544199Y2114978D01*
X37462175Y1992221D01*
X37357779Y1887825D01*
X37235022Y1805801D01*
X37098621Y1749302D01*
X36974425Y1724599D01*
X36953820Y1720500D01*
X36806180Y1720500D01*
X36785575Y1724599D01*
X36661379Y1749302D01*
X36524978Y1805801D01*
X36402221Y1887825D01*
X36297825Y1992221D01*
X36215801Y2114978D01*
X36159302Y2251379D01*
X36130500Y2396181D01*
X36130500Y2543819D01*
X36159302Y2688621D01*
X36215801Y2825022D01*
X36297825Y2947779D01*
X36402221Y3052175D01*
X36524978Y3134199D01*
X36661379Y3190698D01*
X36785575Y3215401D01*
X36806180Y3219500D01*
X36953820Y3219500D01*
X36974425Y3215401D01*
G37*
G36*
X107617585Y6601198D02*
G01*
X107767410Y6571396D01*
X108049674Y6454479D01*
X108303705Y6284741D01*
X108519741Y6068705D01*
X108689479Y5814674D01*
X108806396Y5532410D01*
X108866000Y5232760D01*
X108866000Y4927240D01*
X108806396Y4627590D01*
X108689479Y4345326D01*
X108519741Y4091295D01*
X108303705Y3875259D01*
X108049674Y3705521D01*
X107767410Y3588604D01*
X107617585Y3558802D01*
X107467761Y3529000D01*
X107162239Y3529000D01*
X107012415Y3558802D01*
X106862590Y3588604D01*
X106580326Y3705521D01*
X106326295Y3875259D01*
X106110259Y4091295D01*
X105940521Y4345326D01*
X105823604Y4627590D01*
X105764000Y4927240D01*
X105764000Y5232760D01*
X105823604Y5532410D01*
X105940521Y5814674D01*
X106110259Y6068705D01*
X106326295Y6284741D01*
X106580326Y6454479D01*
X106862590Y6571396D01*
X107012415Y6601198D01*
X107162239Y6631000D01*
X107467761Y6631000D01*
X107617585Y6601198D01*
G37*
G36*
X88567585Y6601198D02*
G01*
X88717410Y6571396D01*
X88999674Y6454479D01*
X89253705Y6284741D01*
X89469741Y6068705D01*
X89639479Y5814674D01*
X89756396Y5532410D01*
X89816000Y5232760D01*
X89816000Y4927240D01*
X89756396Y4627590D01*
X89639479Y4345326D01*
X89469741Y4091295D01*
X89253705Y3875259D01*
X88999674Y3705521D01*
X88717410Y3588604D01*
X88567585Y3558802D01*
X88417761Y3529000D01*
X88112239Y3529000D01*
X87962415Y3558802D01*
X87812590Y3588604D01*
X87530326Y3705521D01*
X87276295Y3875259D01*
X87060259Y4091295D01*
X86890521Y4345326D01*
X86773604Y4627590D01*
X86714000Y4927240D01*
X86714000Y5232760D01*
X86773604Y5532410D01*
X86890521Y5814674D01*
X87060259Y6068705D01*
X87276295Y6284741D01*
X87530326Y6454479D01*
X87812590Y6571396D01*
X87962415Y6601198D01*
X88112239Y6631000D01*
X88417761Y6631000D01*
X88567585Y6601198D01*
G37*
G36*
X50467585Y6601198D02*
G01*
X50617410Y6571396D01*
X50899674Y6454479D01*
X51153705Y6284741D01*
X51369741Y6068705D01*
X51539479Y5814674D01*
X51656396Y5532410D01*
X51716000Y5232760D01*
X51716000Y4927240D01*
X51656396Y4627590D01*
X51539479Y4345326D01*
X51369741Y4091295D01*
X51153705Y3875259D01*
X50899674Y3705521D01*
X50617410Y3588604D01*
X50467585Y3558802D01*
X50317761Y3529000D01*
X50012239Y3529000D01*
X49862415Y3558802D01*
X49712590Y3588604D01*
X49430326Y3705521D01*
X49176295Y3875259D01*
X48960259Y4091295D01*
X48790521Y4345326D01*
X48673604Y4627590D01*
X48614000Y4927240D01*
X48614000Y5232760D01*
X48673604Y5532410D01*
X48790521Y5814674D01*
X48960259Y6068705D01*
X49176295Y6284741D01*
X49430326Y6454479D01*
X49712590Y6571396D01*
X49862415Y6601198D01*
X50012239Y6631000D01*
X50317761Y6631000D01*
X50467585Y6601198D01*
G37*
G36*
X31417585Y6601198D02*
G01*
X31567410Y6571396D01*
X31849674Y6454479D01*
X32103705Y6284741D01*
X32319741Y6068705D01*
X32489479Y5814674D01*
X32606396Y5532410D01*
X32666000Y5232760D01*
X32666000Y4927240D01*
X32606396Y4627590D01*
X32489479Y4345326D01*
X32319741Y4091295D01*
X32103705Y3875259D01*
X31849674Y3705521D01*
X31567410Y3588604D01*
X31417585Y3558802D01*
X31267761Y3529000D01*
X30962239Y3529000D01*
X30812415Y3558802D01*
X30662590Y3588604D01*
X30380326Y3705521D01*
X30126295Y3875259D01*
X29910259Y4091295D01*
X29740521Y4345326D01*
X29623604Y4627590D01*
X29564000Y4927240D01*
X29564000Y5232760D01*
X29623604Y5532410D01*
X29740521Y5814674D01*
X29910259Y6068705D01*
X30126295Y6284741D01*
X30380326Y6454479D01*
X30662590Y6571396D01*
X30812415Y6601198D01*
X30962239Y6631000D01*
X31267761Y6631000D01*
X31417585Y6601198D01*
G37*
G36*
X69517585Y6601198D02*
G01*
X69667410Y6571396D01*
X69949674Y6454479D01*
X70203705Y6284741D01*
X70419741Y6068705D01*
X70589479Y5814674D01*
X70706396Y5532410D01*
X70766000Y5232760D01*
X70766000Y4927240D01*
X70706396Y4627590D01*
X70589479Y4345326D01*
X70419741Y4091295D01*
X70203705Y3875259D01*
X69949674Y3705521D01*
X69667410Y3588604D01*
X69517585Y3558802D01*
X69367761Y3529000D01*
X69062239Y3529000D01*
X68912415Y3558802D01*
X68762590Y3588604D01*
X68480326Y3705521D01*
X68226295Y3875259D01*
X68010259Y4091295D01*
X67840521Y4345326D01*
X67723604Y4627590D01*
X67664000Y4927240D01*
X67664000Y5232760D01*
X67723604Y5532410D01*
X67840521Y5814674D01*
X68010259Y6068705D01*
X68226295Y6284741D01*
X68480326Y6454479D01*
X68762590Y6571396D01*
X68912415Y6601198D01*
X69062239Y6631000D01*
X69367761Y6631000D01*
X69517585Y6601198D01*
G37*
G36*
X92893000Y3779000D02*
G01*
X90241000Y3779000D01*
X90241000Y6381000D01*
X92893000Y6381000D01*
X92893000Y3779000D01*
G37*
G36*
X35743000Y3779000D02*
G01*
X33091000Y3779000D01*
X33091000Y6381000D01*
X35743000Y6381000D01*
X35743000Y3779000D01*
G37*
G36*
X111943000Y3779000D02*
G01*
X109291000Y3779000D01*
X109291000Y6381000D01*
X111943000Y6381000D01*
X111943000Y3779000D01*
G37*
G36*
X54793000Y3779000D02*
G01*
X52141000Y3779000D01*
X52141000Y6381000D01*
X54793000Y6381000D01*
X54793000Y3779000D01*
G37*
G36*
X73843000Y3779000D02*
G01*
X71191000Y3779000D01*
X71191000Y6381000D01*
X73843000Y6381000D01*
X73843000Y3779000D01*
G37*
G36*
X53949142Y8773158D02*
G01*
X54097101Y8711871D01*
X54230255Y8622901D01*
X54343501Y8509655D01*
X54432471Y8376501D01*
X54493758Y8228542D01*
X54525000Y8071475D01*
X54525000Y7911325D01*
X54493758Y7754258D01*
X54432471Y7606299D01*
X54343501Y7473145D01*
X54230255Y7359899D01*
X54097101Y7270929D01*
X53949142Y7209642D01*
X53792075Y7178400D01*
X53631925Y7178400D01*
X53474858Y7209642D01*
X53326899Y7270929D01*
X53193745Y7359899D01*
X53080499Y7473145D01*
X52991529Y7606299D01*
X52930242Y7754258D01*
X52899000Y7911325D01*
X52899000Y8071475D01*
X52930242Y8228542D01*
X52991529Y8376501D01*
X53080499Y8509655D01*
X53193745Y8622901D01*
X53326899Y8711871D01*
X53474858Y8773158D01*
X53631925Y8804400D01*
X53792075Y8804400D01*
X53949142Y8773158D01*
G37*
G36*
X51409142Y8773158D02*
G01*
X51557101Y8711871D01*
X51690255Y8622901D01*
X51803501Y8509655D01*
X51892471Y8376501D01*
X51953758Y8228542D01*
X51985000Y8071475D01*
X51985000Y7911325D01*
X51953758Y7754258D01*
X51892471Y7606299D01*
X51803501Y7473145D01*
X51690255Y7359899D01*
X51557101Y7270929D01*
X51409142Y7209642D01*
X51252075Y7178400D01*
X51091925Y7178400D01*
X50934858Y7209642D01*
X50786899Y7270929D01*
X50653745Y7359899D01*
X50540499Y7473145D01*
X50451529Y7606299D01*
X50390242Y7754258D01*
X50359000Y7911325D01*
X50359000Y8071475D01*
X50390242Y8228542D01*
X50451529Y8376501D01*
X50540499Y8509655D01*
X50653745Y8622901D01*
X50786899Y8711871D01*
X50934858Y8773158D01*
X51091925Y8804400D01*
X51252075Y8804400D01*
X51409142Y8773158D01*
G37*
G36*
X48869142Y8773158D02*
G01*
X49017101Y8711871D01*
X49150255Y8622901D01*
X49263501Y8509655D01*
X49352471Y8376501D01*
X49413758Y8228542D01*
X49445000Y8071475D01*
X49445000Y7911325D01*
X49413758Y7754258D01*
X49352471Y7606299D01*
X49263501Y7473145D01*
X49150255Y7359899D01*
X49017101Y7270929D01*
X48869142Y7209642D01*
X48712075Y7178400D01*
X48551925Y7178400D01*
X48394858Y7209642D01*
X48246899Y7270929D01*
X48113745Y7359899D01*
X48000499Y7473145D01*
X47911529Y7606299D01*
X47850242Y7754258D01*
X47819000Y7911325D01*
X47819000Y8071475D01*
X47850242Y8228542D01*
X47911529Y8376501D01*
X48000499Y8509655D01*
X48113745Y8622901D01*
X48246899Y8711871D01*
X48394858Y8773158D01*
X48551925Y8804400D01*
X48712075Y8804400D01*
X48869142Y8773158D01*
G37*
G36*
X46329142Y8773158D02*
G01*
X46477101Y8711871D01*
X46610255Y8622901D01*
X46723501Y8509655D01*
X46812471Y8376501D01*
X46873758Y8228542D01*
X46905000Y8071475D01*
X46905000Y7911325D01*
X46873758Y7754258D01*
X46812471Y7606299D01*
X46723501Y7473145D01*
X46610255Y7359899D01*
X46477101Y7270929D01*
X46329142Y7209642D01*
X46172075Y7178400D01*
X46011925Y7178400D01*
X45854858Y7209642D01*
X45706899Y7270929D01*
X45573745Y7359899D01*
X45460499Y7473145D01*
X45371529Y7606299D01*
X45310242Y7754258D01*
X45279000Y7911325D01*
X45279000Y8071475D01*
X45310242Y8228542D01*
X45371529Y8376501D01*
X45460499Y8509655D01*
X45573745Y8622901D01*
X45706899Y8711871D01*
X45854858Y8773158D01*
X46011925Y8804400D01*
X46172075Y8804400D01*
X46329142Y8773158D01*
G37*
G36*
X41249142Y8773158D02*
G01*
X41397101Y8711871D01*
X41530255Y8622901D01*
X41643501Y8509655D01*
X41732471Y8376501D01*
X41793758Y8228542D01*
X41825000Y8071475D01*
X41825000Y7911325D01*
X41793758Y7754258D01*
X41732471Y7606299D01*
X41643501Y7473145D01*
X41530255Y7359899D01*
X41397101Y7270929D01*
X41249142Y7209642D01*
X41092075Y7178400D01*
X40931925Y7178400D01*
X40774858Y7209642D01*
X40626899Y7270929D01*
X40493745Y7359899D01*
X40380499Y7473145D01*
X40291529Y7606299D01*
X40230242Y7754258D01*
X40199000Y7911325D01*
X40199000Y8071475D01*
X40230242Y8228542D01*
X40291529Y8376501D01*
X40380499Y8509655D01*
X40493745Y8622901D01*
X40626899Y8711871D01*
X40774858Y8773158D01*
X40931925Y8804400D01*
X41092075Y8804400D01*
X41249142Y8773158D01*
G37*
G36*
X38709142Y8773158D02*
G01*
X38857101Y8711871D01*
X38990255Y8622901D01*
X39103501Y8509655D01*
X39192471Y8376501D01*
X39253758Y8228542D01*
X39285000Y8071475D01*
X39285000Y7911325D01*
X39253758Y7754258D01*
X39192471Y7606299D01*
X39103501Y7473145D01*
X38990255Y7359899D01*
X38857101Y7270929D01*
X38709142Y7209642D01*
X38552075Y7178400D01*
X38391925Y7178400D01*
X38234858Y7209642D01*
X38086899Y7270929D01*
X37953745Y7359899D01*
X37840499Y7473145D01*
X37751529Y7606299D01*
X37690242Y7754258D01*
X37659000Y7911325D01*
X37659000Y8071475D01*
X37690242Y8228542D01*
X37751529Y8376501D01*
X37840499Y8509655D01*
X37953745Y8622901D01*
X38086899Y8711871D01*
X38234858Y8773158D01*
X38391925Y8804400D01*
X38552075Y8804400D01*
X38709142Y8773158D01*
G37*
G36*
X36169142Y8773158D02*
G01*
X36317101Y8711871D01*
X36450255Y8622901D01*
X36563501Y8509655D01*
X36652471Y8376501D01*
X36713758Y8228542D01*
X36745000Y8071475D01*
X36745000Y7911325D01*
X36713758Y7754258D01*
X36652471Y7606299D01*
X36563501Y7473145D01*
X36450255Y7359899D01*
X36317101Y7270929D01*
X36169142Y7209642D01*
X36012075Y7178400D01*
X35851925Y7178400D01*
X35694858Y7209642D01*
X35546899Y7270929D01*
X35413745Y7359899D01*
X35300499Y7473145D01*
X35211529Y7606299D01*
X35150242Y7754258D01*
X35119000Y7911325D01*
X35119000Y8071475D01*
X35150242Y8228542D01*
X35211529Y8376501D01*
X35300499Y8509655D01*
X35413745Y8622901D01*
X35546899Y8711871D01*
X35694858Y8773158D01*
X35851925Y8804400D01*
X36012075Y8804400D01*
X36169142Y8773158D01*
G37*
G36*
X33629142Y8773158D02*
G01*
X33777101Y8711871D01*
X33910255Y8622901D01*
X34023501Y8509655D01*
X34112471Y8376501D01*
X34173758Y8228542D01*
X34205000Y8071475D01*
X34205000Y7911325D01*
X34173758Y7754258D01*
X34112471Y7606299D01*
X34023501Y7473145D01*
X33910255Y7359899D01*
X33777101Y7270929D01*
X33629142Y7209642D01*
X33472075Y7178400D01*
X33311925Y7178400D01*
X33154858Y7209642D01*
X33006899Y7270929D01*
X32873745Y7359899D01*
X32760499Y7473145D01*
X32671529Y7606299D01*
X32610242Y7754258D01*
X32579000Y7911325D01*
X32579000Y8071475D01*
X32610242Y8228542D01*
X32671529Y8376501D01*
X32760499Y8509655D01*
X32873745Y8622901D01*
X33006899Y8711871D01*
X33154858Y8773158D01*
X33311925Y8804400D01*
X33472075Y8804400D01*
X33629142Y8773158D01*
G37*
G36*
X31089142Y8773158D02*
G01*
X31237101Y8711871D01*
X31370255Y8622901D01*
X31483501Y8509655D01*
X31572471Y8376501D01*
X31633758Y8228542D01*
X31665000Y8071475D01*
X31665000Y7911325D01*
X31633758Y7754258D01*
X31572471Y7606299D01*
X31483501Y7473145D01*
X31370255Y7359899D01*
X31237101Y7270929D01*
X31089142Y7209642D01*
X30932075Y7178400D01*
X30771925Y7178400D01*
X30614858Y7209642D01*
X30466899Y7270929D01*
X30333745Y7359899D01*
X30220499Y7473145D01*
X30131529Y7606299D01*
X30070242Y7754258D01*
X30039000Y7911325D01*
X30039000Y8071475D01*
X30070242Y8228542D01*
X30131529Y8376501D01*
X30220499Y8509655D01*
X30333745Y8622901D01*
X30466899Y8711871D01*
X30614858Y8773158D01*
X30771925Y8804400D01*
X30932075Y8804400D01*
X31089142Y8773158D01*
G37*
G36*
X28549142Y8773158D02*
G01*
X28697101Y8711871D01*
X28830255Y8622901D01*
X28943501Y8509655D01*
X29032471Y8376501D01*
X29093758Y8228542D01*
X29125000Y8071475D01*
X29125000Y7911325D01*
X29093758Y7754258D01*
X29032471Y7606299D01*
X28943501Y7473145D01*
X28830255Y7359899D01*
X28697101Y7270929D01*
X28549142Y7209642D01*
X28392075Y7178400D01*
X28231925Y7178400D01*
X28074858Y7209642D01*
X27926899Y7270929D01*
X27793745Y7359899D01*
X27680499Y7473145D01*
X27591529Y7606299D01*
X27530242Y7754258D01*
X27499000Y7911325D01*
X27499000Y8071475D01*
X27530242Y8228542D01*
X27591529Y8376501D01*
X27680499Y8509655D01*
X27793745Y8622901D01*
X27926899Y8711871D01*
X28074858Y8773158D01*
X28231925Y8804400D01*
X28392075Y8804400D01*
X28549142Y8773158D01*
G37*
G36*
X26009142Y8773158D02*
G01*
X26157101Y8711871D01*
X26290255Y8622901D01*
X26403501Y8509655D01*
X26492471Y8376501D01*
X26553758Y8228542D01*
X26585000Y8071475D01*
X26585000Y7911325D01*
X26553758Y7754258D01*
X26492471Y7606299D01*
X26403501Y7473145D01*
X26290255Y7359899D01*
X26157101Y7270929D01*
X26009142Y7209642D01*
X25852075Y7178400D01*
X25691925Y7178400D01*
X25534858Y7209642D01*
X25386899Y7270929D01*
X25253745Y7359899D01*
X25140499Y7473145D01*
X25051529Y7606299D01*
X24990242Y7754258D01*
X24959000Y7911325D01*
X24959000Y8071475D01*
X24990242Y8228542D01*
X25051529Y8376501D01*
X25140499Y8509655D01*
X25253745Y8622901D01*
X25386899Y8711871D01*
X25534858Y8773158D01*
X25691925Y8804400D01*
X25852075Y8804400D01*
X26009142Y8773158D01*
G37*
G36*
X43789142Y8773158D02*
G01*
X43937101Y8711871D01*
X44070255Y8622901D01*
X44183501Y8509655D01*
X44272471Y8376501D01*
X44333758Y8228542D01*
X44365000Y8071475D01*
X44365000Y7911325D01*
X44333758Y7754258D01*
X44272471Y7606299D01*
X44183501Y7473145D01*
X44070255Y7359899D01*
X43937101Y7270929D01*
X43789142Y7209642D01*
X43632075Y7178400D01*
X43471925Y7178400D01*
X43314858Y7209642D01*
X43166899Y7270929D01*
X43033745Y7359899D01*
X42920499Y7473145D01*
X42831529Y7606299D01*
X42770242Y7754258D01*
X42739000Y7911325D01*
X42739000Y8071475D01*
X42770242Y8228542D01*
X42831529Y8376501D01*
X42920499Y8509655D01*
X43033745Y8622901D01*
X43166899Y8711871D01*
X43314858Y8773158D01*
X43471925Y8804400D01*
X43632075Y8804400D01*
X43789142Y8773158D01*
G37*
G36*
X65478674Y14565983D02*
G01*
X65597148Y14516909D01*
X65703772Y14445665D01*
X65794449Y14354988D01*
X65865693Y14248364D01*
X65914767Y14129890D01*
X65939784Y14004118D01*
X65939784Y13875882D01*
X65914767Y13750110D01*
X65865693Y13631636D01*
X65794449Y13525012D01*
X65703772Y13434335D01*
X65597148Y13363091D01*
X65597147Y13363090D01*
X65597146Y13363090D01*
X65478674Y13314017D01*
X65352903Y13289000D01*
X65224665Y13289000D01*
X65098894Y13314017D01*
X64980422Y13363090D01*
X64980421Y13363090D01*
X64980420Y13363091D01*
X64873796Y13434335D01*
X64783119Y13525012D01*
X64711875Y13631636D01*
X64662801Y13750110D01*
X64637784Y13875882D01*
X64637784Y14004118D01*
X64662801Y14129890D01*
X64711875Y14248364D01*
X64783119Y14354988D01*
X64873796Y14445665D01*
X64980420Y14516909D01*
X65098894Y14565983D01*
X65224665Y14591000D01*
X65352903Y14591000D01*
X65478674Y14565983D01*
G37*
G36*
X71540852Y18065983D02*
G01*
X71659326Y18016909D01*
X71765950Y17945665D01*
X71856627Y17854988D01*
X71927871Y17748364D01*
X71976945Y17629890D01*
X72001962Y17504118D01*
X72001962Y17375882D01*
X71976945Y17250110D01*
X71927871Y17131636D01*
X71856627Y17025012D01*
X71765950Y16934335D01*
X71659326Y16863091D01*
X71659325Y16863090D01*
X71659324Y16863090D01*
X71540852Y16814017D01*
X71415081Y16789000D01*
X71286843Y16789000D01*
X71161072Y16814017D01*
X71042600Y16863090D01*
X71042599Y16863090D01*
X71042598Y16863091D01*
X70935974Y16934335D01*
X70845297Y17025012D01*
X70774053Y17131636D01*
X70724979Y17250110D01*
X70699962Y17375882D01*
X70699962Y17504118D01*
X70724979Y17629890D01*
X70774053Y17748364D01*
X70845297Y17854988D01*
X70935974Y17945665D01*
X71042598Y18016909D01*
X71161072Y18065983D01*
X71286843Y18091000D01*
X71415081Y18091000D01*
X71540852Y18065983D01*
G37*
M02*
