G04 #@! TF.GenerationSoftware,KiCad,Pcbnew,(5.1.6-0-10_14)*
G04 #@! TF.CreationDate,2022-05-03T07:19:32+09:00*
G04 #@! TF.ProjectId,cool936,636f6f6c-3933-4362-9e6b-696361645f70,rev?*
G04 #@! TF.SameCoordinates,Original*
G04 #@! TF.FileFunction,Legend,Bot*
G04 #@! TF.FilePolarity,Positive*
%FSLAX46Y46*%
G04 Gerber Fmt 4.6, Leading zero omitted, Abs format (unit mm)*
G04 Created by KiCad (PCBNEW (5.1.6-0-10_14)) date 2022-05-03 07:19:32*
%MOMM*%
%LPD*%
G01*
G04 APERTURE LIST*
%ADD10C,0.300000*%
%ADD11C,0.120000*%
%ADD12C,0.150000*%
%ADD13C,0.010000*%
%ADD14C,0.125000*%
G04 APERTURE END LIST*
D10*
X45478571Y-35734285D02*
X43978571Y-35734285D01*
X45407142Y-35734285D02*
X45478571Y-35591428D01*
X45478571Y-35305714D01*
X45407142Y-35162857D01*
X45335714Y-35091428D01*
X45192857Y-35020000D01*
X44764285Y-35020000D01*
X44621428Y-35091428D01*
X44550000Y-35162857D01*
X44478571Y-35305714D01*
X44478571Y-35591428D01*
X44550000Y-35734285D01*
X45478571Y-36448571D02*
X44478571Y-36448571D01*
X43978571Y-36448571D02*
X44050000Y-36377142D01*
X44121428Y-36448571D01*
X44050000Y-36520000D01*
X43978571Y-36448571D01*
X44121428Y-36448571D01*
X45478571Y-37377142D02*
X45407142Y-37234285D01*
X45335714Y-37162857D01*
X45192857Y-37091428D01*
X44764285Y-37091428D01*
X44621428Y-37162857D01*
X44550000Y-37234285D01*
X44478571Y-37377142D01*
X44478571Y-37591428D01*
X44550000Y-37734285D01*
X44621428Y-37805714D01*
X44764285Y-37877142D01*
X45192857Y-37877142D01*
X45335714Y-37805714D01*
X45407142Y-37734285D01*
X45478571Y-37591428D01*
X45478571Y-37377142D01*
X45478571Y-39162857D02*
X43978571Y-39162857D01*
X45407142Y-39162857D02*
X45478571Y-39020000D01*
X45478571Y-38734285D01*
X45407142Y-38591428D01*
X45335714Y-38520000D01*
X45192857Y-38448571D01*
X44764285Y-38448571D01*
X44621428Y-38520000D01*
X44550000Y-38591428D01*
X44478571Y-38734285D01*
X44478571Y-39020000D01*
X44550000Y-39162857D01*
X45407142Y-40448571D02*
X45478571Y-40305714D01*
X45478571Y-40020000D01*
X45407142Y-39877142D01*
X45264285Y-39805714D01*
X44692857Y-39805714D01*
X44550000Y-39877142D01*
X44478571Y-40020000D01*
X44478571Y-40305714D01*
X44550000Y-40448571D01*
X44692857Y-40520000D01*
X44835714Y-40520000D01*
X44978571Y-39805714D01*
X94028571Y-54804285D02*
X92528571Y-54804285D01*
X93957142Y-54804285D02*
X94028571Y-54661428D01*
X94028571Y-54375714D01*
X93957142Y-54232857D01*
X93885714Y-54161428D01*
X93742857Y-54090000D01*
X93314285Y-54090000D01*
X93171428Y-54161428D01*
X93100000Y-54232857D01*
X93028571Y-54375714D01*
X93028571Y-54661428D01*
X93100000Y-54804285D01*
X94028571Y-55518571D02*
X93028571Y-55518571D01*
X92528571Y-55518571D02*
X92600000Y-55447142D01*
X92671428Y-55518571D01*
X92600000Y-55590000D01*
X92528571Y-55518571D01*
X92671428Y-55518571D01*
X94028571Y-56447142D02*
X93957142Y-56304285D01*
X93885714Y-56232857D01*
X93742857Y-56161428D01*
X93314285Y-56161428D01*
X93171428Y-56232857D01*
X93100000Y-56304285D01*
X93028571Y-56447142D01*
X93028571Y-56661428D01*
X93100000Y-56804285D01*
X93171428Y-56875714D01*
X93314285Y-56947142D01*
X93742857Y-56947142D01*
X93885714Y-56875714D01*
X93957142Y-56804285D01*
X94028571Y-56661428D01*
X94028571Y-56447142D01*
X94028571Y-58232857D02*
X92528571Y-58232857D01*
X93957142Y-58232857D02*
X94028571Y-58090000D01*
X94028571Y-57804285D01*
X93957142Y-57661428D01*
X93885714Y-57590000D01*
X93742857Y-57518571D01*
X93314285Y-57518571D01*
X93171428Y-57590000D01*
X93100000Y-57661428D01*
X93028571Y-57804285D01*
X93028571Y-58090000D01*
X93100000Y-58232857D01*
X93957142Y-59518571D02*
X94028571Y-59375714D01*
X94028571Y-59090000D01*
X93957142Y-58947142D01*
X93814285Y-58875714D01*
X93242857Y-58875714D01*
X93100000Y-58947142D01*
X93028571Y-59090000D01*
X93028571Y-59375714D01*
X93100000Y-59518571D01*
X93242857Y-59590000D01*
X93385714Y-59590000D01*
X93528571Y-58875714D01*
X106898571Y-40684285D02*
X105398571Y-40684285D01*
X106827142Y-40684285D02*
X106898571Y-40541428D01*
X106898571Y-40255714D01*
X106827142Y-40112857D01*
X106755714Y-40041428D01*
X106612857Y-39970000D01*
X106184285Y-39970000D01*
X106041428Y-40041428D01*
X105970000Y-40112857D01*
X105898571Y-40255714D01*
X105898571Y-40541428D01*
X105970000Y-40684285D01*
X106898571Y-41398571D02*
X105898571Y-41398571D01*
X105398571Y-41398571D02*
X105470000Y-41327142D01*
X105541428Y-41398571D01*
X105470000Y-41470000D01*
X105398571Y-41398571D01*
X105541428Y-41398571D01*
X106898571Y-42327142D02*
X106827142Y-42184285D01*
X106755714Y-42112857D01*
X106612857Y-42041428D01*
X106184285Y-42041428D01*
X106041428Y-42112857D01*
X105970000Y-42184285D01*
X105898571Y-42327142D01*
X105898571Y-42541428D01*
X105970000Y-42684285D01*
X106041428Y-42755714D01*
X106184285Y-42827142D01*
X106612857Y-42827142D01*
X106755714Y-42755714D01*
X106827142Y-42684285D01*
X106898571Y-42541428D01*
X106898571Y-42327142D01*
X106898571Y-44112857D02*
X105398571Y-44112857D01*
X106827142Y-44112857D02*
X106898571Y-43970000D01*
X106898571Y-43684285D01*
X106827142Y-43541428D01*
X106755714Y-43470000D01*
X106612857Y-43398571D01*
X106184285Y-43398571D01*
X106041428Y-43470000D01*
X105970000Y-43541428D01*
X105898571Y-43684285D01*
X105898571Y-43970000D01*
X105970000Y-44112857D01*
X106827142Y-45398571D02*
X106898571Y-45255714D01*
X106898571Y-44970000D01*
X106827142Y-44827142D01*
X106684285Y-44755714D01*
X106112857Y-44755714D01*
X105970000Y-44827142D01*
X105898571Y-44970000D01*
X105898571Y-45255714D01*
X105970000Y-45398571D01*
X106112857Y-45470000D01*
X106255714Y-45470000D01*
X106398571Y-44755714D01*
X78758571Y-19494285D02*
X77258571Y-19494285D01*
X78687142Y-19494285D02*
X78758571Y-19351428D01*
X78758571Y-19065714D01*
X78687142Y-18922857D01*
X78615714Y-18851428D01*
X78472857Y-18780000D01*
X78044285Y-18780000D01*
X77901428Y-18851428D01*
X77830000Y-18922857D01*
X77758571Y-19065714D01*
X77758571Y-19351428D01*
X77830000Y-19494285D01*
X78758571Y-20208571D02*
X77758571Y-20208571D01*
X77258571Y-20208571D02*
X77330000Y-20137142D01*
X77401428Y-20208571D01*
X77330000Y-20280000D01*
X77258571Y-20208571D01*
X77401428Y-20208571D01*
X78758571Y-21137142D02*
X78687142Y-20994285D01*
X78615714Y-20922857D01*
X78472857Y-20851428D01*
X78044285Y-20851428D01*
X77901428Y-20922857D01*
X77830000Y-20994285D01*
X77758571Y-21137142D01*
X77758571Y-21351428D01*
X77830000Y-21494285D01*
X77901428Y-21565714D01*
X78044285Y-21637142D01*
X78472857Y-21637142D01*
X78615714Y-21565714D01*
X78687142Y-21494285D01*
X78758571Y-21351428D01*
X78758571Y-21137142D01*
X78758571Y-22922857D02*
X77258571Y-22922857D01*
X78687142Y-22922857D02*
X78758571Y-22780000D01*
X78758571Y-22494285D01*
X78687142Y-22351428D01*
X78615714Y-22280000D01*
X78472857Y-22208571D01*
X78044285Y-22208571D01*
X77901428Y-22280000D01*
X77830000Y-22351428D01*
X77758571Y-22494285D01*
X77758571Y-22780000D01*
X77830000Y-22922857D01*
X78687142Y-24208571D02*
X78758571Y-24065714D01*
X78758571Y-23780000D01*
X78687142Y-23637142D01*
X78544285Y-23565714D01*
X77972857Y-23565714D01*
X77830000Y-23637142D01*
X77758571Y-23780000D01*
X77758571Y-24065714D01*
X77830000Y-24208571D01*
X77972857Y-24280000D01*
X78115714Y-24280000D01*
X78258571Y-23565714D01*
X69148571Y-40684285D02*
X67648571Y-40684285D01*
X69077142Y-40684285D02*
X69148571Y-40541428D01*
X69148571Y-40255714D01*
X69077142Y-40112857D01*
X69005714Y-40041428D01*
X68862857Y-39970000D01*
X68434285Y-39970000D01*
X68291428Y-40041428D01*
X68220000Y-40112857D01*
X68148571Y-40255714D01*
X68148571Y-40541428D01*
X68220000Y-40684285D01*
X69148571Y-41398571D02*
X68148571Y-41398571D01*
X67648571Y-41398571D02*
X67720000Y-41327142D01*
X67791428Y-41398571D01*
X67720000Y-41470000D01*
X67648571Y-41398571D01*
X67791428Y-41398571D01*
X69148571Y-42327142D02*
X69077142Y-42184285D01*
X69005714Y-42112857D01*
X68862857Y-42041428D01*
X68434285Y-42041428D01*
X68291428Y-42112857D01*
X68220000Y-42184285D01*
X68148571Y-42327142D01*
X68148571Y-42541428D01*
X68220000Y-42684285D01*
X68291428Y-42755714D01*
X68434285Y-42827142D01*
X68862857Y-42827142D01*
X69005714Y-42755714D01*
X69077142Y-42684285D01*
X69148571Y-42541428D01*
X69148571Y-42327142D01*
X69148571Y-44112857D02*
X67648571Y-44112857D01*
X69077142Y-44112857D02*
X69148571Y-43970000D01*
X69148571Y-43684285D01*
X69077142Y-43541428D01*
X69005714Y-43470000D01*
X68862857Y-43398571D01*
X68434285Y-43398571D01*
X68291428Y-43470000D01*
X68220000Y-43541428D01*
X68148571Y-43684285D01*
X68148571Y-43970000D01*
X68220000Y-44112857D01*
X69077142Y-45398571D02*
X69148571Y-45255714D01*
X69148571Y-44970000D01*
X69077142Y-44827142D01*
X68934285Y-44755714D01*
X68362857Y-44755714D01*
X68220000Y-44827142D01*
X68148571Y-44970000D01*
X68148571Y-45255714D01*
X68220000Y-45398571D01*
X68362857Y-45470000D01*
X68505714Y-45470000D01*
X68648571Y-44755714D01*
X88078571Y-40234285D02*
X86578571Y-40234285D01*
X88007142Y-40234285D02*
X88078571Y-40091428D01*
X88078571Y-39805714D01*
X88007142Y-39662857D01*
X87935714Y-39591428D01*
X87792857Y-39520000D01*
X87364285Y-39520000D01*
X87221428Y-39591428D01*
X87150000Y-39662857D01*
X87078571Y-39805714D01*
X87078571Y-40091428D01*
X87150000Y-40234285D01*
X88078571Y-40948571D02*
X87078571Y-40948571D01*
X86578571Y-40948571D02*
X86650000Y-40877142D01*
X86721428Y-40948571D01*
X86650000Y-41020000D01*
X86578571Y-40948571D01*
X86721428Y-40948571D01*
X88078571Y-41877142D02*
X88007142Y-41734285D01*
X87935714Y-41662857D01*
X87792857Y-41591428D01*
X87364285Y-41591428D01*
X87221428Y-41662857D01*
X87150000Y-41734285D01*
X87078571Y-41877142D01*
X87078571Y-42091428D01*
X87150000Y-42234285D01*
X87221428Y-42305714D01*
X87364285Y-42377142D01*
X87792857Y-42377142D01*
X87935714Y-42305714D01*
X88007142Y-42234285D01*
X88078571Y-42091428D01*
X88078571Y-41877142D01*
X88078571Y-43662857D02*
X86578571Y-43662857D01*
X88007142Y-43662857D02*
X88078571Y-43520000D01*
X88078571Y-43234285D01*
X88007142Y-43091428D01*
X87935714Y-43020000D01*
X87792857Y-42948571D01*
X87364285Y-42948571D01*
X87221428Y-43020000D01*
X87150000Y-43091428D01*
X87078571Y-43234285D01*
X87078571Y-43520000D01*
X87150000Y-43662857D01*
X88007142Y-44948571D02*
X88078571Y-44805714D01*
X88078571Y-44520000D01*
X88007142Y-44377142D01*
X87864285Y-44305714D01*
X87292857Y-44305714D01*
X87150000Y-44377142D01*
X87078571Y-44520000D01*
X87078571Y-44805714D01*
X87150000Y-44948571D01*
X87292857Y-45020000D01*
X87435714Y-45020000D01*
X87578571Y-44305714D01*
X74098571Y-2294285D02*
X72598571Y-2294285D01*
X74027142Y-2294285D02*
X74098571Y-2151428D01*
X74098571Y-1865714D01*
X74027142Y-1722857D01*
X73955714Y-1651428D01*
X73812857Y-1580000D01*
X73384285Y-1580000D01*
X73241428Y-1651428D01*
X73170000Y-1722857D01*
X73098571Y-1865714D01*
X73098571Y-2151428D01*
X73170000Y-2294285D01*
X74098571Y-3008571D02*
X73098571Y-3008571D01*
X72598571Y-3008571D02*
X72670000Y-2937142D01*
X72741428Y-3008571D01*
X72670000Y-3080000D01*
X72598571Y-3008571D01*
X72741428Y-3008571D01*
X74098571Y-3937142D02*
X74027142Y-3794285D01*
X73955714Y-3722857D01*
X73812857Y-3651428D01*
X73384285Y-3651428D01*
X73241428Y-3722857D01*
X73170000Y-3794285D01*
X73098571Y-3937142D01*
X73098571Y-4151428D01*
X73170000Y-4294285D01*
X73241428Y-4365714D01*
X73384285Y-4437142D01*
X73812857Y-4437142D01*
X73955714Y-4365714D01*
X74027142Y-4294285D01*
X74098571Y-4151428D01*
X74098571Y-3937142D01*
X74098571Y-5722857D02*
X72598571Y-5722857D01*
X74027142Y-5722857D02*
X74098571Y-5580000D01*
X74098571Y-5294285D01*
X74027142Y-5151428D01*
X73955714Y-5080000D01*
X73812857Y-5008571D01*
X73384285Y-5008571D01*
X73241428Y-5080000D01*
X73170000Y-5151428D01*
X73098571Y-5294285D01*
X73098571Y-5580000D01*
X73170000Y-5722857D01*
X74027142Y-7008571D02*
X74098571Y-6865714D01*
X74098571Y-6580000D01*
X74027142Y-6437142D01*
X73884285Y-6365714D01*
X73312857Y-6365714D01*
X73170000Y-6437142D01*
X73098571Y-6580000D01*
X73098571Y-6865714D01*
X73170000Y-7008571D01*
X73312857Y-7080000D01*
X73455714Y-7080000D01*
X73598571Y-6365714D01*
X39508571Y235714D02*
X38008571Y235714D01*
X39437142Y235714D02*
X39508571Y378571D01*
X39508571Y664285D01*
X39437142Y807142D01*
X39365714Y878571D01*
X39222857Y950000D01*
X38794285Y950000D01*
X38651428Y878571D01*
X38580000Y807142D01*
X38508571Y664285D01*
X38508571Y378571D01*
X38580000Y235714D01*
X39508571Y-478571D02*
X38508571Y-478571D01*
X38008571Y-478571D02*
X38080000Y-407142D01*
X38151428Y-478571D01*
X38080000Y-550000D01*
X38008571Y-478571D01*
X38151428Y-478571D01*
X39508571Y-1407142D02*
X39437142Y-1264285D01*
X39365714Y-1192857D01*
X39222857Y-1121428D01*
X38794285Y-1121428D01*
X38651428Y-1192857D01*
X38580000Y-1264285D01*
X38508571Y-1407142D01*
X38508571Y-1621428D01*
X38580000Y-1764285D01*
X38651428Y-1835714D01*
X38794285Y-1907142D01*
X39222857Y-1907142D01*
X39365714Y-1835714D01*
X39437142Y-1764285D01*
X39508571Y-1621428D01*
X39508571Y-1407142D01*
X39508571Y-3192857D02*
X38008571Y-3192857D01*
X39437142Y-3192857D02*
X39508571Y-3050000D01*
X39508571Y-2764285D01*
X39437142Y-2621428D01*
X39365714Y-2550000D01*
X39222857Y-2478571D01*
X38794285Y-2478571D01*
X38651428Y-2550000D01*
X38580000Y-2621428D01*
X38508571Y-2764285D01*
X38508571Y-3050000D01*
X38580000Y-3192857D01*
X39437142Y-4478571D02*
X39508571Y-4335714D01*
X39508571Y-4050000D01*
X39437142Y-3907142D01*
X39294285Y-3835714D01*
X38722857Y-3835714D01*
X38580000Y-3907142D01*
X38508571Y-4050000D01*
X38508571Y-4335714D01*
X38580000Y-4478571D01*
X38722857Y-4550000D01*
X38865714Y-4550000D01*
X39008571Y-3835714D01*
X60638571Y-2744285D02*
X59138571Y-2744285D01*
X60567142Y-2744285D02*
X60638571Y-2601428D01*
X60638571Y-2315714D01*
X60567142Y-2172857D01*
X60495714Y-2101428D01*
X60352857Y-2030000D01*
X59924285Y-2030000D01*
X59781428Y-2101428D01*
X59710000Y-2172857D01*
X59638571Y-2315714D01*
X59638571Y-2601428D01*
X59710000Y-2744285D01*
X60638571Y-3458571D02*
X59638571Y-3458571D01*
X59138571Y-3458571D02*
X59210000Y-3387142D01*
X59281428Y-3458571D01*
X59210000Y-3530000D01*
X59138571Y-3458571D01*
X59281428Y-3458571D01*
X60638571Y-4387142D02*
X60567142Y-4244285D01*
X60495714Y-4172857D01*
X60352857Y-4101428D01*
X59924285Y-4101428D01*
X59781428Y-4172857D01*
X59710000Y-4244285D01*
X59638571Y-4387142D01*
X59638571Y-4601428D01*
X59710000Y-4744285D01*
X59781428Y-4815714D01*
X59924285Y-4887142D01*
X60352857Y-4887142D01*
X60495714Y-4815714D01*
X60567142Y-4744285D01*
X60638571Y-4601428D01*
X60638571Y-4387142D01*
X60638571Y-6172857D02*
X59138571Y-6172857D01*
X60567142Y-6172857D02*
X60638571Y-6030000D01*
X60638571Y-5744285D01*
X60567142Y-5601428D01*
X60495714Y-5530000D01*
X60352857Y-5458571D01*
X59924285Y-5458571D01*
X59781428Y-5530000D01*
X59710000Y-5601428D01*
X59638571Y-5744285D01*
X59638571Y-6030000D01*
X59710000Y-6172857D01*
X60567142Y-7458571D02*
X60638571Y-7315714D01*
X60638571Y-7030000D01*
X60567142Y-6887142D01*
X60424285Y-6815714D01*
X59852857Y-6815714D01*
X59710000Y-6887142D01*
X59638571Y-7030000D01*
X59638571Y-7315714D01*
X59710000Y-7458571D01*
X59852857Y-7530000D01*
X59995714Y-7530000D01*
X60138571Y-6815714D01*
X63258571Y-19534285D02*
X61758571Y-19534285D01*
X63187142Y-19534285D02*
X63258571Y-19391428D01*
X63258571Y-19105714D01*
X63187142Y-18962857D01*
X63115714Y-18891428D01*
X62972857Y-18820000D01*
X62544285Y-18820000D01*
X62401428Y-18891428D01*
X62330000Y-18962857D01*
X62258571Y-19105714D01*
X62258571Y-19391428D01*
X62330000Y-19534285D01*
X63258571Y-20248571D02*
X62258571Y-20248571D01*
X61758571Y-20248571D02*
X61830000Y-20177142D01*
X61901428Y-20248571D01*
X61830000Y-20320000D01*
X61758571Y-20248571D01*
X61901428Y-20248571D01*
X63258571Y-21177142D02*
X63187142Y-21034285D01*
X63115714Y-20962857D01*
X62972857Y-20891428D01*
X62544285Y-20891428D01*
X62401428Y-20962857D01*
X62330000Y-21034285D01*
X62258571Y-21177142D01*
X62258571Y-21391428D01*
X62330000Y-21534285D01*
X62401428Y-21605714D01*
X62544285Y-21677142D01*
X62972857Y-21677142D01*
X63115714Y-21605714D01*
X63187142Y-21534285D01*
X63258571Y-21391428D01*
X63258571Y-21177142D01*
X63258571Y-22962857D02*
X61758571Y-22962857D01*
X63187142Y-22962857D02*
X63258571Y-22820000D01*
X63258571Y-22534285D01*
X63187142Y-22391428D01*
X63115714Y-22320000D01*
X62972857Y-22248571D01*
X62544285Y-22248571D01*
X62401428Y-22320000D01*
X62330000Y-22391428D01*
X62258571Y-22534285D01*
X62258571Y-22820000D01*
X62330000Y-22962857D01*
X63187142Y-24248571D02*
X63258571Y-24105714D01*
X63258571Y-23820000D01*
X63187142Y-23677142D01*
X63044285Y-23605714D01*
X62472857Y-23605714D01*
X62330000Y-23677142D01*
X62258571Y-23820000D01*
X62258571Y-24105714D01*
X62330000Y-24248571D01*
X62472857Y-24320000D01*
X62615714Y-24320000D01*
X62758571Y-23605714D01*
X41958571Y-12464285D02*
X40458571Y-12464285D01*
X41887142Y-12464285D02*
X41958571Y-12321428D01*
X41958571Y-12035714D01*
X41887142Y-11892857D01*
X41815714Y-11821428D01*
X41672857Y-11750000D01*
X41244285Y-11750000D01*
X41101428Y-11821428D01*
X41030000Y-11892857D01*
X40958571Y-12035714D01*
X40958571Y-12321428D01*
X41030000Y-12464285D01*
X41958571Y-13178571D02*
X40958571Y-13178571D01*
X40458571Y-13178571D02*
X40530000Y-13107142D01*
X40601428Y-13178571D01*
X40530000Y-13250000D01*
X40458571Y-13178571D01*
X40601428Y-13178571D01*
X41958571Y-14107142D02*
X41887142Y-13964285D01*
X41815714Y-13892857D01*
X41672857Y-13821428D01*
X41244285Y-13821428D01*
X41101428Y-13892857D01*
X41030000Y-13964285D01*
X40958571Y-14107142D01*
X40958571Y-14321428D01*
X41030000Y-14464285D01*
X41101428Y-14535714D01*
X41244285Y-14607142D01*
X41672857Y-14607142D01*
X41815714Y-14535714D01*
X41887142Y-14464285D01*
X41958571Y-14321428D01*
X41958571Y-14107142D01*
X41958571Y-15892857D02*
X40458571Y-15892857D01*
X41887142Y-15892857D02*
X41958571Y-15750000D01*
X41958571Y-15464285D01*
X41887142Y-15321428D01*
X41815714Y-15250000D01*
X41672857Y-15178571D01*
X41244285Y-15178571D01*
X41101428Y-15250000D01*
X41030000Y-15321428D01*
X40958571Y-15464285D01*
X40958571Y-15750000D01*
X41030000Y-15892857D01*
X41887142Y-17178571D02*
X41958571Y-17035714D01*
X41958571Y-16750000D01*
X41887142Y-16607142D01*
X41744285Y-16535714D01*
X41172857Y-16535714D01*
X41030000Y-16607142D01*
X40958571Y-16750000D01*
X40958571Y-17035714D01*
X41030000Y-17178571D01*
X41172857Y-17250000D01*
X41315714Y-17250000D01*
X41458571Y-16535714D01*
X106345714Y-9598571D02*
X106345714Y-8098571D01*
X106345714Y-9527142D02*
X106488571Y-9598571D01*
X106774285Y-9598571D01*
X106917142Y-9527142D01*
X106988571Y-9455714D01*
X107060000Y-9312857D01*
X107060000Y-8884285D01*
X106988571Y-8741428D01*
X106917142Y-8670000D01*
X106774285Y-8598571D01*
X106488571Y-8598571D01*
X106345714Y-8670000D01*
X105631428Y-9598571D02*
X105631428Y-8598571D01*
X105631428Y-8098571D02*
X105702857Y-8170000D01*
X105631428Y-8241428D01*
X105560000Y-8170000D01*
X105631428Y-8098571D01*
X105631428Y-8241428D01*
X104702857Y-9598571D02*
X104845714Y-9527142D01*
X104917142Y-9455714D01*
X104988571Y-9312857D01*
X104988571Y-8884285D01*
X104917142Y-8741428D01*
X104845714Y-8670000D01*
X104702857Y-8598571D01*
X104488571Y-8598571D01*
X104345714Y-8670000D01*
X104274285Y-8741428D01*
X104202857Y-8884285D01*
X104202857Y-9312857D01*
X104274285Y-9455714D01*
X104345714Y-9527142D01*
X104488571Y-9598571D01*
X104702857Y-9598571D01*
X102917142Y-9598571D02*
X102917142Y-8098571D01*
X102917142Y-9527142D02*
X103060000Y-9598571D01*
X103345714Y-9598571D01*
X103488571Y-9527142D01*
X103560000Y-9455714D01*
X103631428Y-9312857D01*
X103631428Y-8884285D01*
X103560000Y-8741428D01*
X103488571Y-8670000D01*
X103345714Y-8598571D01*
X103060000Y-8598571D01*
X102917142Y-8670000D01*
X101631428Y-9527142D02*
X101774285Y-9598571D01*
X102060000Y-9598571D01*
X102202857Y-9527142D01*
X102274285Y-9384285D01*
X102274285Y-8812857D01*
X102202857Y-8670000D01*
X102060000Y-8598571D01*
X101774285Y-8598571D01*
X101631428Y-8670000D01*
X101560000Y-8812857D01*
X101560000Y-8955714D01*
X102274285Y-9098571D01*
X87925714Y-9578571D02*
X87925714Y-8078571D01*
X87925714Y-9507142D02*
X88068571Y-9578571D01*
X88354285Y-9578571D01*
X88497142Y-9507142D01*
X88568571Y-9435714D01*
X88640000Y-9292857D01*
X88640000Y-8864285D01*
X88568571Y-8721428D01*
X88497142Y-8650000D01*
X88354285Y-8578571D01*
X88068571Y-8578571D01*
X87925714Y-8650000D01*
X87211428Y-9578571D02*
X87211428Y-8578571D01*
X87211428Y-8078571D02*
X87282857Y-8150000D01*
X87211428Y-8221428D01*
X87140000Y-8150000D01*
X87211428Y-8078571D01*
X87211428Y-8221428D01*
X86282857Y-9578571D02*
X86425714Y-9507142D01*
X86497142Y-9435714D01*
X86568571Y-9292857D01*
X86568571Y-8864285D01*
X86497142Y-8721428D01*
X86425714Y-8650000D01*
X86282857Y-8578571D01*
X86068571Y-8578571D01*
X85925714Y-8650000D01*
X85854285Y-8721428D01*
X85782857Y-8864285D01*
X85782857Y-9292857D01*
X85854285Y-9435714D01*
X85925714Y-9507142D01*
X86068571Y-9578571D01*
X86282857Y-9578571D01*
X84497142Y-9578571D02*
X84497142Y-8078571D01*
X84497142Y-9507142D02*
X84640000Y-9578571D01*
X84925714Y-9578571D01*
X85068571Y-9507142D01*
X85140000Y-9435714D01*
X85211428Y-9292857D01*
X85211428Y-8864285D01*
X85140000Y-8721428D01*
X85068571Y-8650000D01*
X84925714Y-8578571D01*
X84640000Y-8578571D01*
X84497142Y-8650000D01*
X83211428Y-9507142D02*
X83354285Y-9578571D01*
X83640000Y-9578571D01*
X83782857Y-9507142D01*
X83854285Y-9364285D01*
X83854285Y-8792857D01*
X83782857Y-8650000D01*
X83640000Y-8578571D01*
X83354285Y-8578571D01*
X83211428Y-8650000D01*
X83140000Y-8792857D01*
X83140000Y-8935714D01*
X83854285Y-9078571D01*
X48685714Y-47478571D02*
X48685714Y-45978571D01*
X48685714Y-47407142D02*
X48828571Y-47478571D01*
X49114285Y-47478571D01*
X49257142Y-47407142D01*
X49328571Y-47335714D01*
X49400000Y-47192857D01*
X49400000Y-46764285D01*
X49328571Y-46621428D01*
X49257142Y-46550000D01*
X49114285Y-46478571D01*
X48828571Y-46478571D01*
X48685714Y-46550000D01*
X47971428Y-47478571D02*
X47971428Y-46478571D01*
X47971428Y-45978571D02*
X48042857Y-46050000D01*
X47971428Y-46121428D01*
X47900000Y-46050000D01*
X47971428Y-45978571D01*
X47971428Y-46121428D01*
X47042857Y-47478571D02*
X47185714Y-47407142D01*
X47257142Y-47335714D01*
X47328571Y-47192857D01*
X47328571Y-46764285D01*
X47257142Y-46621428D01*
X47185714Y-46550000D01*
X47042857Y-46478571D01*
X46828571Y-46478571D01*
X46685714Y-46550000D01*
X46614285Y-46621428D01*
X46542857Y-46764285D01*
X46542857Y-47192857D01*
X46614285Y-47335714D01*
X46685714Y-47407142D01*
X46828571Y-47478571D01*
X47042857Y-47478571D01*
X45257142Y-47478571D02*
X45257142Y-45978571D01*
X45257142Y-47407142D02*
X45400000Y-47478571D01*
X45685714Y-47478571D01*
X45828571Y-47407142D01*
X45900000Y-47335714D01*
X45971428Y-47192857D01*
X45971428Y-46764285D01*
X45900000Y-46621428D01*
X45828571Y-46550000D01*
X45685714Y-46478571D01*
X45400000Y-46478571D01*
X45257142Y-46550000D01*
X43971428Y-47407142D02*
X44114285Y-47478571D01*
X44400000Y-47478571D01*
X44542857Y-47407142D01*
X44614285Y-47264285D01*
X44614285Y-46692857D01*
X44542857Y-46550000D01*
X44400000Y-46478571D01*
X44114285Y-46478571D01*
X43971428Y-46550000D01*
X43900000Y-46692857D01*
X43900000Y-46835714D01*
X44614285Y-46978571D01*
X61285714Y-47628571D02*
X61285714Y-46128571D01*
X61285714Y-47557142D02*
X61428571Y-47628571D01*
X61714285Y-47628571D01*
X61857142Y-47557142D01*
X61928571Y-47485714D01*
X62000000Y-47342857D01*
X62000000Y-46914285D01*
X61928571Y-46771428D01*
X61857142Y-46700000D01*
X61714285Y-46628571D01*
X61428571Y-46628571D01*
X61285714Y-46700000D01*
X60571428Y-47628571D02*
X60571428Y-46628571D01*
X60571428Y-46128571D02*
X60642857Y-46200000D01*
X60571428Y-46271428D01*
X60500000Y-46200000D01*
X60571428Y-46128571D01*
X60571428Y-46271428D01*
X59642857Y-47628571D02*
X59785714Y-47557142D01*
X59857142Y-47485714D01*
X59928571Y-47342857D01*
X59928571Y-46914285D01*
X59857142Y-46771428D01*
X59785714Y-46700000D01*
X59642857Y-46628571D01*
X59428571Y-46628571D01*
X59285714Y-46700000D01*
X59214285Y-46771428D01*
X59142857Y-46914285D01*
X59142857Y-47342857D01*
X59214285Y-47485714D01*
X59285714Y-47557142D01*
X59428571Y-47628571D01*
X59642857Y-47628571D01*
X57857142Y-47628571D02*
X57857142Y-46128571D01*
X57857142Y-47557142D02*
X58000000Y-47628571D01*
X58285714Y-47628571D01*
X58428571Y-47557142D01*
X58500000Y-47485714D01*
X58571428Y-47342857D01*
X58571428Y-46914285D01*
X58500000Y-46771428D01*
X58428571Y-46700000D01*
X58285714Y-46628571D01*
X58000000Y-46628571D01*
X57857142Y-46700000D01*
X56571428Y-47557142D02*
X56714285Y-47628571D01*
X57000000Y-47628571D01*
X57142857Y-47557142D01*
X57214285Y-47414285D01*
X57214285Y-46842857D01*
X57142857Y-46700000D01*
X57000000Y-46628571D01*
X56714285Y-46628571D01*
X56571428Y-46700000D01*
X56500000Y-46842857D01*
X56500000Y-46985714D01*
X57214285Y-47128571D01*
X92318571Y-2654285D02*
X90818571Y-2654285D01*
X92247142Y-2654285D02*
X92318571Y-2511428D01*
X92318571Y-2225714D01*
X92247142Y-2082857D01*
X92175714Y-2011428D01*
X92032857Y-1940000D01*
X91604285Y-1940000D01*
X91461428Y-2011428D01*
X91390000Y-2082857D01*
X91318571Y-2225714D01*
X91318571Y-2511428D01*
X91390000Y-2654285D01*
X92318571Y-3368571D02*
X91318571Y-3368571D01*
X90818571Y-3368571D02*
X90890000Y-3297142D01*
X90961428Y-3368571D01*
X90890000Y-3440000D01*
X90818571Y-3368571D01*
X90961428Y-3368571D01*
X92318571Y-4297142D02*
X92247142Y-4154285D01*
X92175714Y-4082857D01*
X92032857Y-4011428D01*
X91604285Y-4011428D01*
X91461428Y-4082857D01*
X91390000Y-4154285D01*
X91318571Y-4297142D01*
X91318571Y-4511428D01*
X91390000Y-4654285D01*
X91461428Y-4725714D01*
X91604285Y-4797142D01*
X92032857Y-4797142D01*
X92175714Y-4725714D01*
X92247142Y-4654285D01*
X92318571Y-4511428D01*
X92318571Y-4297142D01*
X92318571Y-6082857D02*
X90818571Y-6082857D01*
X92247142Y-6082857D02*
X92318571Y-5940000D01*
X92318571Y-5654285D01*
X92247142Y-5511428D01*
X92175714Y-5440000D01*
X92032857Y-5368571D01*
X91604285Y-5368571D01*
X91461428Y-5440000D01*
X91390000Y-5511428D01*
X91318571Y-5654285D01*
X91318571Y-5940000D01*
X91390000Y-6082857D01*
X92247142Y-7368571D02*
X92318571Y-7225714D01*
X92318571Y-6940000D01*
X92247142Y-6797142D01*
X92104285Y-6725714D01*
X91532857Y-6725714D01*
X91390000Y-6797142D01*
X91318571Y-6940000D01*
X91318571Y-7225714D01*
X91390000Y-7368571D01*
X91532857Y-7440000D01*
X91675714Y-7440000D01*
X91818571Y-6725714D01*
X32965714Y-41982142D02*
X33108571Y-42053571D01*
X33394285Y-42053571D01*
X33537142Y-41982142D01*
X33608571Y-41910714D01*
X33680000Y-41767857D01*
X33680000Y-41339285D01*
X33608571Y-41196428D01*
X33537142Y-41125000D01*
X33394285Y-41053571D01*
X33108571Y-41053571D01*
X32965714Y-41125000D01*
X32108571Y-42053571D02*
X32251428Y-41982142D01*
X32322857Y-41910714D01*
X32394285Y-41767857D01*
X32394285Y-41339285D01*
X32322857Y-41196428D01*
X32251428Y-41125000D01*
X32108571Y-41053571D01*
X31894285Y-41053571D01*
X31751428Y-41125000D01*
X31680000Y-41196428D01*
X31608571Y-41339285D01*
X31608571Y-41767857D01*
X31680000Y-41910714D01*
X31751428Y-41982142D01*
X31894285Y-42053571D01*
X32108571Y-42053571D01*
X30751428Y-42053571D02*
X30894285Y-41982142D01*
X30965714Y-41910714D01*
X31037142Y-41767857D01*
X31037142Y-41339285D01*
X30965714Y-41196428D01*
X30894285Y-41125000D01*
X30751428Y-41053571D01*
X30537142Y-41053571D01*
X30394285Y-41125000D01*
X30322857Y-41196428D01*
X30251428Y-41339285D01*
X30251428Y-41767857D01*
X30322857Y-41910714D01*
X30394285Y-41982142D01*
X30537142Y-42053571D01*
X30751428Y-42053571D01*
X29394285Y-42053571D02*
X29537142Y-41982142D01*
X29608571Y-41839285D01*
X29608571Y-40553571D01*
X28751428Y-42053571D02*
X28465714Y-42053571D01*
X28322857Y-41982142D01*
X28251428Y-41910714D01*
X28108571Y-41696428D01*
X28037142Y-41410714D01*
X28037142Y-40839285D01*
X28108571Y-40696428D01*
X28180000Y-40625000D01*
X28322857Y-40553571D01*
X28608571Y-40553571D01*
X28751428Y-40625000D01*
X28822857Y-40696428D01*
X28894285Y-40839285D01*
X28894285Y-41196428D01*
X28822857Y-41339285D01*
X28751428Y-41410714D01*
X28608571Y-41482142D01*
X28322857Y-41482142D01*
X28180000Y-41410714D01*
X28108571Y-41339285D01*
X28037142Y-41196428D01*
X27537142Y-40553571D02*
X26608571Y-40553571D01*
X27108571Y-41125000D01*
X26894285Y-41125000D01*
X26751428Y-41196428D01*
X26680000Y-41267857D01*
X26608571Y-41410714D01*
X26608571Y-41767857D01*
X26680000Y-41910714D01*
X26751428Y-41982142D01*
X26894285Y-42053571D01*
X27322857Y-42053571D01*
X27465714Y-41982142D01*
X27537142Y-41910714D01*
X25322857Y-40553571D02*
X25608571Y-40553571D01*
X25751428Y-40625000D01*
X25822857Y-40696428D01*
X25965714Y-40910714D01*
X26037142Y-41196428D01*
X26037142Y-41767857D01*
X25965714Y-41910714D01*
X25894285Y-41982142D01*
X25751428Y-42053571D01*
X25465714Y-42053571D01*
X25322857Y-41982142D01*
X25251428Y-41910714D01*
X25180000Y-41767857D01*
X25180000Y-41410714D01*
X25251428Y-41267857D01*
X25322857Y-41196428D01*
X25465714Y-41125000D01*
X25751428Y-41125000D01*
X25894285Y-41196428D01*
X25965714Y-41267857D01*
X26037142Y-41410714D01*
X38108571Y-44603571D02*
X38108571Y-43103571D01*
X38108571Y-44532142D02*
X38251428Y-44603571D01*
X38537142Y-44603571D01*
X38680000Y-44532142D01*
X38751428Y-44460714D01*
X38822857Y-44317857D01*
X38822857Y-43889285D01*
X38751428Y-43746428D01*
X38680000Y-43675000D01*
X38537142Y-43603571D01*
X38251428Y-43603571D01*
X38108571Y-43675000D01*
X36822857Y-44532142D02*
X36965714Y-44603571D01*
X37251428Y-44603571D01*
X37394285Y-44532142D01*
X37465714Y-44389285D01*
X37465714Y-43817857D01*
X37394285Y-43675000D01*
X37251428Y-43603571D01*
X36965714Y-43603571D01*
X36822857Y-43675000D01*
X36751428Y-43817857D01*
X36751428Y-43960714D01*
X37465714Y-44103571D01*
X36180000Y-44532142D02*
X36037142Y-44603571D01*
X35751428Y-44603571D01*
X35608571Y-44532142D01*
X35537142Y-44389285D01*
X35537142Y-44317857D01*
X35608571Y-44175000D01*
X35751428Y-44103571D01*
X35965714Y-44103571D01*
X36108571Y-44032142D01*
X36180000Y-43889285D01*
X36180000Y-43817857D01*
X36108571Y-43675000D01*
X35965714Y-43603571D01*
X35751428Y-43603571D01*
X35608571Y-43675000D01*
X34894285Y-44603571D02*
X34894285Y-43603571D01*
X34894285Y-43103571D02*
X34965714Y-43175000D01*
X34894285Y-43246428D01*
X34822857Y-43175000D01*
X34894285Y-43103571D01*
X34894285Y-43246428D01*
X33537142Y-43603571D02*
X33537142Y-44817857D01*
X33608571Y-44960714D01*
X33680000Y-45032142D01*
X33822857Y-45103571D01*
X34037142Y-45103571D01*
X34180000Y-45032142D01*
X33537142Y-44532142D02*
X33680000Y-44603571D01*
X33965714Y-44603571D01*
X34108571Y-44532142D01*
X34180000Y-44460714D01*
X34251428Y-44317857D01*
X34251428Y-43889285D01*
X34180000Y-43746428D01*
X34108571Y-43675000D01*
X33965714Y-43603571D01*
X33680000Y-43603571D01*
X33537142Y-43675000D01*
X32822857Y-43603571D02*
X32822857Y-44603571D01*
X32822857Y-43746428D02*
X32751428Y-43675000D01*
X32608571Y-43603571D01*
X32394285Y-43603571D01*
X32251428Y-43675000D01*
X32180000Y-43817857D01*
X32180000Y-44603571D01*
X30894285Y-44532142D02*
X31037142Y-44603571D01*
X31322857Y-44603571D01*
X31465714Y-44532142D01*
X31537142Y-44389285D01*
X31537142Y-43817857D01*
X31465714Y-43675000D01*
X31322857Y-43603571D01*
X31037142Y-43603571D01*
X30894285Y-43675000D01*
X30822857Y-43817857D01*
X30822857Y-43960714D01*
X31537142Y-44103571D01*
X29537142Y-44603571D02*
X29537142Y-43103571D01*
X29537142Y-44532142D02*
X29680000Y-44603571D01*
X29965714Y-44603571D01*
X30108571Y-44532142D01*
X30180000Y-44460714D01*
X30251428Y-44317857D01*
X30251428Y-43889285D01*
X30180000Y-43746428D01*
X30108571Y-43675000D01*
X29965714Y-43603571D01*
X29680000Y-43603571D01*
X29537142Y-43675000D01*
X27680000Y-44603571D02*
X27680000Y-43103571D01*
X27680000Y-43675000D02*
X27537142Y-43603571D01*
X27251428Y-43603571D01*
X27108571Y-43675000D01*
X27037142Y-43746428D01*
X26965714Y-43889285D01*
X26965714Y-44317857D01*
X27037142Y-44460714D01*
X27108571Y-44532142D01*
X27251428Y-44603571D01*
X27537142Y-44603571D01*
X27680000Y-44532142D01*
X26465714Y-43603571D02*
X26108571Y-44603571D01*
X25751428Y-43603571D02*
X26108571Y-44603571D01*
X26251428Y-44960714D01*
X26322857Y-45032142D01*
X26465714Y-45103571D01*
X24037142Y-44603571D02*
X24037142Y-43603571D01*
X24037142Y-43746428D02*
X23965714Y-43675000D01*
X23822857Y-43603571D01*
X23608571Y-43603571D01*
X23465714Y-43675000D01*
X23394285Y-43817857D01*
X23394285Y-44603571D01*
X23394285Y-43817857D02*
X23322857Y-43675000D01*
X23180000Y-43603571D01*
X22965714Y-43603571D01*
X22822857Y-43675000D01*
X22751428Y-43817857D01*
X22751428Y-44603571D01*
X22037142Y-44460714D02*
X21965714Y-44532142D01*
X22037142Y-44603571D01*
X22108571Y-44532142D01*
X22037142Y-44460714D01*
X22037142Y-44603571D01*
X21322857Y-44603571D02*
X21322857Y-43103571D01*
X21180000Y-44032142D02*
X20751428Y-44603571D01*
X20751428Y-43603571D02*
X21322857Y-44175000D01*
X20108571Y-44603571D02*
X20108571Y-43603571D01*
X20108571Y-43103571D02*
X20180000Y-43175000D01*
X20108571Y-43246428D01*
X20037142Y-43175000D01*
X20108571Y-43103571D01*
X20108571Y-43246428D01*
X37144285Y-47153571D02*
X37144285Y-45653571D01*
X37144285Y-47082142D02*
X37287142Y-47153571D01*
X37572857Y-47153571D01*
X37715714Y-47082142D01*
X37787142Y-47010714D01*
X37858571Y-46867857D01*
X37858571Y-46439285D01*
X37787142Y-46296428D01*
X37715714Y-46225000D01*
X37572857Y-46153571D01*
X37287142Y-46153571D01*
X37144285Y-46225000D01*
X35787142Y-47153571D02*
X35787142Y-46367857D01*
X35858571Y-46225000D01*
X36001428Y-46153571D01*
X36287142Y-46153571D01*
X36430000Y-46225000D01*
X35787142Y-47082142D02*
X35930000Y-47153571D01*
X36287142Y-47153571D01*
X36430000Y-47082142D01*
X36501428Y-46939285D01*
X36501428Y-46796428D01*
X36430000Y-46653571D01*
X36287142Y-46582142D01*
X35930000Y-46582142D01*
X35787142Y-46510714D01*
X35287142Y-46153571D02*
X34715714Y-46153571D01*
X35072857Y-45653571D02*
X35072857Y-46939285D01*
X35001428Y-47082142D01*
X34858571Y-47153571D01*
X34715714Y-47153571D01*
X33644285Y-47082142D02*
X33787142Y-47153571D01*
X34072857Y-47153571D01*
X34215714Y-47082142D01*
X34287142Y-46939285D01*
X34287142Y-46367857D01*
X34215714Y-46225000D01*
X34072857Y-46153571D01*
X33787142Y-46153571D01*
X33644285Y-46225000D01*
X33572857Y-46367857D01*
X33572857Y-46510714D01*
X34287142Y-46653571D01*
X31858571Y-45796428D02*
X31787142Y-45725000D01*
X31644285Y-45653571D01*
X31287142Y-45653571D01*
X31144285Y-45725000D01*
X31072857Y-45796428D01*
X31001428Y-45939285D01*
X31001428Y-46082142D01*
X31072857Y-46296428D01*
X31930000Y-47153571D01*
X31001428Y-47153571D01*
X30072857Y-45653571D02*
X29930000Y-45653571D01*
X29787142Y-45725000D01*
X29715714Y-45796428D01*
X29644285Y-45939285D01*
X29572857Y-46225000D01*
X29572857Y-46582142D01*
X29644285Y-46867857D01*
X29715714Y-47010714D01*
X29787142Y-47082142D01*
X29930000Y-47153571D01*
X30072857Y-47153571D01*
X30215714Y-47082142D01*
X30287142Y-47010714D01*
X30358571Y-46867857D01*
X30430000Y-46582142D01*
X30430000Y-46225000D01*
X30358571Y-45939285D01*
X30287142Y-45796428D01*
X30215714Y-45725000D01*
X30072857Y-45653571D01*
X29001428Y-45796428D02*
X28930000Y-45725000D01*
X28787142Y-45653571D01*
X28430000Y-45653571D01*
X28287142Y-45725000D01*
X28215714Y-45796428D01*
X28144285Y-45939285D01*
X28144285Y-46082142D01*
X28215714Y-46296428D01*
X29072857Y-47153571D01*
X28144285Y-47153571D01*
X27572857Y-45796428D02*
X27501428Y-45725000D01*
X27358571Y-45653571D01*
X27001428Y-45653571D01*
X26858571Y-45725000D01*
X26787142Y-45796428D01*
X26715714Y-45939285D01*
X26715714Y-46082142D01*
X26787142Y-46296428D01*
X27644285Y-47153571D01*
X26715714Y-47153571D01*
X25787142Y-45653571D02*
X25644285Y-45653571D01*
X25501428Y-45725000D01*
X25430000Y-45796428D01*
X25358571Y-45939285D01*
X25287142Y-46225000D01*
X25287142Y-46582142D01*
X25358571Y-46867857D01*
X25430000Y-47010714D01*
X25501428Y-47082142D01*
X25644285Y-47153571D01*
X25787142Y-47153571D01*
X25930000Y-47082142D01*
X26001428Y-47010714D01*
X26072857Y-46867857D01*
X26144285Y-46582142D01*
X26144285Y-46225000D01*
X26072857Y-45939285D01*
X26001428Y-45796428D01*
X25930000Y-45725000D01*
X25787142Y-45653571D01*
X23930000Y-45653571D02*
X24644285Y-45653571D01*
X24715714Y-46367857D01*
X24644285Y-46296428D01*
X24501428Y-46225000D01*
X24144285Y-46225000D01*
X24001428Y-46296428D01*
X23930000Y-46367857D01*
X23858571Y-46510714D01*
X23858571Y-46867857D01*
X23930000Y-47010714D01*
X24001428Y-47082142D01*
X24144285Y-47153571D01*
X24501428Y-47153571D01*
X24644285Y-47082142D01*
X24715714Y-47010714D01*
X22930000Y-45653571D02*
X22787142Y-45653571D01*
X22644285Y-45725000D01*
X22572857Y-45796428D01*
X22501428Y-45939285D01*
X22430000Y-46225000D01*
X22430000Y-46582142D01*
X22501428Y-46867857D01*
X22572857Y-47010714D01*
X22644285Y-47082142D01*
X22787142Y-47153571D01*
X22930000Y-47153571D01*
X23072857Y-47082142D01*
X23144285Y-47010714D01*
X23215714Y-46867857D01*
X23287142Y-46582142D01*
X23287142Y-46225000D01*
X23215714Y-45939285D01*
X23144285Y-45796428D01*
X23072857Y-45725000D01*
X22930000Y-45653571D01*
X21930000Y-45653571D02*
X21001428Y-45653571D01*
X21501428Y-46225000D01*
X21287142Y-46225000D01*
X21144285Y-46296428D01*
X21072857Y-46367857D01*
X21001428Y-46510714D01*
X21001428Y-46867857D01*
X21072857Y-47010714D01*
X21144285Y-47082142D01*
X21287142Y-47153571D01*
X21715714Y-47153571D01*
X21858571Y-47082142D01*
X21930000Y-47010714D01*
X33037142Y-48703571D02*
X32680000Y-49703571D01*
X32322857Y-48703571D01*
X31180000Y-49632142D02*
X31322857Y-49703571D01*
X31608571Y-49703571D01*
X31751428Y-49632142D01*
X31822857Y-49489285D01*
X31822857Y-48917857D01*
X31751428Y-48775000D01*
X31608571Y-48703571D01*
X31322857Y-48703571D01*
X31180000Y-48775000D01*
X31108571Y-48917857D01*
X31108571Y-49060714D01*
X31822857Y-49203571D01*
X30465714Y-49703571D02*
X30465714Y-48703571D01*
X30465714Y-48989285D02*
X30394285Y-48846428D01*
X30322857Y-48775000D01*
X30180000Y-48703571D01*
X30037142Y-48703571D01*
X29537142Y-49560714D02*
X29465714Y-49632142D01*
X29537142Y-49703571D01*
X29608571Y-49632142D01*
X29537142Y-49560714D01*
X29537142Y-49703571D01*
X28037142Y-49703571D02*
X28894285Y-49703571D01*
X28465714Y-49703571D02*
X28465714Y-48203571D01*
X28608571Y-48417857D01*
X28751428Y-48560714D01*
X28894285Y-48632142D01*
X27394285Y-49560714D02*
X27322857Y-49632142D01*
X27394285Y-49703571D01*
X27465714Y-49632142D01*
X27394285Y-49560714D01*
X27394285Y-49703571D01*
X26822857Y-48203571D02*
X25894285Y-48203571D01*
X26394285Y-48775000D01*
X26180000Y-48775000D01*
X26037142Y-48846428D01*
X25965714Y-48917857D01*
X25894285Y-49060714D01*
X25894285Y-49417857D01*
X25965714Y-49560714D01*
X26037142Y-49632142D01*
X26180000Y-49703571D01*
X26608571Y-49703571D01*
X26751428Y-49632142D01*
X26822857Y-49560714D01*
X47221428Y4722857D02*
X47078571Y4651428D01*
X46792857Y4651428D01*
X46650000Y4722857D01*
X46578571Y4865714D01*
X46578571Y4937142D01*
X46650000Y5080000D01*
X46792857Y5151428D01*
X47007142Y5151428D01*
X47150000Y5222857D01*
X47221428Y5365714D01*
X47221428Y5437142D01*
X47150000Y5580000D01*
X47007142Y5651428D01*
X46792857Y5651428D01*
X46650000Y5580000D01*
X45721428Y4651428D02*
X45864285Y4722857D01*
X45935714Y4794285D01*
X46007142Y4937142D01*
X46007142Y5365714D01*
X45935714Y5508571D01*
X45864285Y5580000D01*
X45721428Y5651428D01*
X45507142Y5651428D01*
X45364285Y5580000D01*
X45292857Y5508571D01*
X45221428Y5365714D01*
X45221428Y4937142D01*
X45292857Y4794285D01*
X45364285Y4722857D01*
X45507142Y4651428D01*
X45721428Y4651428D01*
X43935714Y4722857D02*
X44078571Y4651428D01*
X44364285Y4651428D01*
X44507142Y4722857D01*
X44578571Y4794285D01*
X44650000Y4937142D01*
X44650000Y5365714D01*
X44578571Y5508571D01*
X44507142Y5580000D01*
X44364285Y5651428D01*
X44078571Y5651428D01*
X43935714Y5580000D01*
X43292857Y4651428D02*
X43292857Y6151428D01*
X43150000Y5222857D02*
X42721428Y4651428D01*
X42721428Y5651428D02*
X43292857Y5080000D01*
X41507142Y4722857D02*
X41650000Y4651428D01*
X41935714Y4651428D01*
X42078571Y4722857D01*
X42150000Y4865714D01*
X42150000Y5437142D01*
X42078571Y5580000D01*
X41935714Y5651428D01*
X41650000Y5651428D01*
X41507142Y5580000D01*
X41435714Y5437142D01*
X41435714Y5294285D01*
X42150000Y5151428D01*
X41007142Y5651428D02*
X40435714Y5651428D01*
X40792857Y6151428D02*
X40792857Y4865714D01*
X40721428Y4722857D01*
X40578571Y4651428D01*
X40435714Y4651428D01*
X28261428Y4852857D02*
X28118571Y4781428D01*
X27832857Y4781428D01*
X27689999Y4852857D01*
X27618571Y4995714D01*
X27618571Y5067142D01*
X27689999Y5210000D01*
X27832857Y5281428D01*
X28047142Y5281428D01*
X28189999Y5352857D01*
X28261428Y5495714D01*
X28261428Y5567142D01*
X28189999Y5710000D01*
X28047142Y5781428D01*
X27832857Y5781428D01*
X27689999Y5710000D01*
X26761428Y4781428D02*
X26904285Y4852857D01*
X26975714Y4924285D01*
X27047142Y5067142D01*
X27047142Y5495714D01*
X26975714Y5638571D01*
X26904285Y5710000D01*
X26761428Y5781428D01*
X26547142Y5781428D01*
X26404285Y5710000D01*
X26332857Y5638571D01*
X26261428Y5495714D01*
X26261428Y5067142D01*
X26332857Y4924285D01*
X26404285Y4852857D01*
X26547142Y4781428D01*
X26761428Y4781428D01*
X24975714Y4852857D02*
X25118571Y4781428D01*
X25404285Y4781428D01*
X25547142Y4852857D01*
X25618571Y4924285D01*
X25689999Y5067142D01*
X25689999Y5495714D01*
X25618571Y5638571D01*
X25547142Y5710000D01*
X25404285Y5781428D01*
X25118571Y5781428D01*
X24975714Y5710000D01*
X24332857Y4781428D02*
X24332857Y6281428D01*
X24189999Y5352857D02*
X23761428Y4781428D01*
X23761428Y5781428D02*
X24332857Y5210000D01*
X22547142Y4852857D02*
X22689999Y4781428D01*
X22975714Y4781428D01*
X23118571Y4852857D01*
X23189999Y4995714D01*
X23189999Y5567142D01*
X23118571Y5710000D01*
X22975714Y5781428D01*
X22689999Y5781428D01*
X22547142Y5710000D01*
X22475714Y5567142D01*
X22475714Y5424285D01*
X23189999Y5281428D01*
X22047142Y5781428D02*
X21475714Y5781428D01*
X21832857Y6281428D02*
X21832857Y4995714D01*
X21761428Y4852857D01*
X21618571Y4781428D01*
X21475714Y4781428D01*
D11*
X48770000Y-23130000D02*
X48770000Y-24622509D01*
X41570000Y-23130000D02*
X48770000Y-23130000D01*
X41570000Y-28330000D02*
X48570000Y-28330000D01*
X75160000Y-23140000D02*
X75160000Y-24632509D01*
X67960000Y-23140000D02*
X75160000Y-23140000D01*
X67960000Y-28340000D02*
X74960000Y-28340000D01*
X103650000Y-23190000D02*
X103650000Y-24682509D01*
X96450000Y-23190000D02*
X103650000Y-23190000D01*
X96450000Y-28390000D02*
X103450000Y-28390000D01*
D12*
X40100000Y-11820000D02*
X38600000Y-11820000D01*
X40100000Y-17220000D02*
X40100000Y-11820000D01*
X38600000Y-17220000D02*
X40100000Y-17220000D01*
X38600000Y-11820000D02*
X38600000Y-17220000D01*
X38850000Y-15020000D02*
X39850000Y-15020000D01*
X39850000Y-14020000D02*
X39350000Y-14920000D01*
X38850000Y-14020000D02*
X39850000Y-14020000D01*
X39350000Y-14920000D02*
X38850000Y-14020000D01*
X47540000Y-34840000D02*
X46040000Y-34840000D01*
X47540000Y-40240000D02*
X47540000Y-34840000D01*
X46040000Y-40240000D02*
X47540000Y-40240000D01*
X46040000Y-34840000D02*
X46040000Y-40240000D01*
X46290000Y-38040000D02*
X47290000Y-38040000D01*
X47290000Y-37040000D02*
X46790000Y-37940000D01*
X46290000Y-37040000D02*
X47290000Y-37040000D01*
X46790000Y-37940000D02*
X46290000Y-37040000D01*
X95850000Y-53980000D02*
X94350000Y-53980000D01*
X95850000Y-59380000D02*
X95850000Y-53980000D01*
X94350000Y-59380000D02*
X95850000Y-59380000D01*
X94350000Y-53980000D02*
X94350000Y-59380000D01*
X94600000Y-57180000D02*
X95600000Y-57180000D01*
X95600000Y-56180000D02*
X95100000Y-57080000D01*
X94600000Y-56180000D02*
X95600000Y-56180000D01*
X95100000Y-57080000D02*
X94600000Y-56180000D01*
X92840000Y-53980000D02*
X91340000Y-53980000D01*
X92840000Y-59380000D02*
X92840000Y-53980000D01*
X91340000Y-59380000D02*
X92840000Y-59380000D01*
X91340000Y-53980000D02*
X91340000Y-59380000D01*
X91590000Y-57180000D02*
X92590000Y-57180000D01*
X92590000Y-56180000D02*
X92090000Y-57080000D01*
X91590000Y-56180000D02*
X92590000Y-56180000D01*
X92090000Y-57080000D02*
X91590000Y-56180000D01*
X89980000Y-39720000D02*
X88480000Y-39720000D01*
X89980000Y-45120000D02*
X89980000Y-39720000D01*
X88480000Y-45120000D02*
X89980000Y-45120000D01*
X88480000Y-39720000D02*
X88480000Y-45120000D01*
X88730000Y-42920000D02*
X89730000Y-42920000D01*
X89730000Y-41920000D02*
X89230000Y-42820000D01*
X88730000Y-41920000D02*
X89730000Y-41920000D01*
X89230000Y-42820000D02*
X88730000Y-41920000D01*
X108970000Y-39870000D02*
X107470000Y-39870000D01*
X108970000Y-45270000D02*
X108970000Y-39870000D01*
X107470000Y-45270000D02*
X108970000Y-45270000D01*
X107470000Y-39870000D02*
X107470000Y-45270000D01*
X107720000Y-43070000D02*
X108720000Y-43070000D01*
X108720000Y-42070000D02*
X108220000Y-42970000D01*
X107720000Y-42070000D02*
X108720000Y-42070000D01*
X108220000Y-42970000D02*
X107720000Y-42070000D01*
X110750000Y-43000000D02*
X110250000Y-42100000D01*
X110250000Y-42100000D02*
X111250000Y-42100000D01*
X111250000Y-42100000D02*
X110750000Y-43000000D01*
X110250000Y-43100000D02*
X111250000Y-43100000D01*
X110000000Y-39900000D02*
X110000000Y-45300000D01*
X110000000Y-45300000D02*
X111500000Y-45300000D01*
X111500000Y-45300000D02*
X111500000Y-39900000D01*
X111500000Y-39900000D02*
X110000000Y-39900000D01*
X49480000Y-49410000D02*
X49480000Y-47910000D01*
X44080000Y-49410000D02*
X49480000Y-49410000D01*
X44080000Y-47910000D02*
X44080000Y-49410000D01*
X49480000Y-47910000D02*
X44080000Y-47910000D01*
X46280000Y-48160000D02*
X46280000Y-49160000D01*
X47280000Y-49160000D02*
X46380000Y-48660000D01*
X47280000Y-48160000D02*
X47280000Y-49160000D01*
X46380000Y-48660000D02*
X47280000Y-48160000D01*
X62230000Y-49480000D02*
X62230000Y-47980000D01*
X56830000Y-49480000D02*
X62230000Y-49480000D01*
X56830000Y-47980000D02*
X56830000Y-49480000D01*
X62230000Y-47980000D02*
X56830000Y-47980000D01*
X59030000Y-48230000D02*
X59030000Y-49230000D01*
X60030000Y-49230000D02*
X59130000Y-48730000D01*
X60030000Y-48230000D02*
X60030000Y-49230000D01*
X59130000Y-48730000D02*
X60030000Y-48230000D01*
X37630000Y1360000D02*
X36130000Y1360000D01*
X37630000Y-4040000D02*
X37630000Y1360000D01*
X36130000Y-4040000D02*
X37630000Y-4040000D01*
X36130000Y1360000D02*
X36130000Y-4040000D01*
X36380000Y-1840000D02*
X37380000Y-1840000D01*
X37380000Y-840000D02*
X36880000Y-1740000D01*
X36380000Y-840000D02*
X37380000Y-840000D01*
X36880000Y-1740000D02*
X36380000Y-840000D01*
X55000000Y9280000D02*
X55000000Y8270000D01*
X55000000Y-8520000D02*
X55000000Y-7520000D01*
X54000000Y9280000D02*
X55000000Y9280000D01*
X53950000Y-8520000D02*
X55000000Y-8520000D01*
X21950000Y9280000D02*
X21950000Y8330000D01*
X21950000Y-8520000D02*
X21950000Y-7520000D01*
X21950000Y9280000D02*
X22950000Y9280000D01*
X21950000Y-8520000D02*
X22950000Y-8520000D01*
X19050000Y-3370000D02*
X20350000Y-3370000D01*
X20350000Y-3370000D02*
X20350000Y4130000D01*
X20350000Y4130000D02*
X19050000Y4130000D01*
X19050000Y4130000D02*
X19050000Y-3370000D01*
X19400000Y-120000D02*
X19400000Y880000D01*
X19400000Y880000D02*
X20050000Y380000D01*
X20050000Y380000D02*
X19400000Y-120000D01*
X19550000Y30000D02*
X19550000Y730000D01*
X19700000Y130000D02*
X19700000Y630000D01*
X19850000Y230000D02*
X19850000Y530000D01*
X74150000Y15591924D02*
X71150000Y20788076D01*
X71150000Y20788076D02*
X60757695Y14788076D01*
X60757695Y14788076D02*
X63757695Y9591924D01*
X63757695Y9591924D02*
X74150000Y15591924D01*
D13*
G36*
X113473584Y-59537344D02*
G01*
X113463333Y-59621666D01*
X113731788Y-59964193D01*
X113816111Y-59974444D01*
X114158637Y-59705989D01*
X114168889Y-59621666D01*
X113900434Y-59279140D01*
X113816111Y-59268889D01*
X113473584Y-59537344D01*
G37*
X113473584Y-59537344D02*
X113463333Y-59621666D01*
X113731788Y-59964193D01*
X113816111Y-59974444D01*
X114158637Y-59705989D01*
X114168889Y-59621666D01*
X113900434Y-59279140D01*
X113816111Y-59268889D01*
X113473584Y-59537344D01*
G36*
X64950007Y4515143D02*
G01*
X64486662Y3703503D01*
X64266717Y3084846D01*
X64020668Y2446888D01*
X63680187Y2096561D01*
X63048249Y1937512D01*
X61927831Y1873387D01*
X61779371Y1868421D01*
X60205369Y1830304D01*
X58412975Y1806545D01*
X57319454Y1802275D01*
X54015607Y1607361D01*
X51208555Y1020015D01*
X48931547Y52129D01*
X47217835Y-1284401D01*
X46625630Y-2022967D01*
X46123657Y-2826159D01*
X45877043Y-3351813D01*
X45877202Y-3442017D01*
X46214614Y-3332948D01*
X46973949Y-2923018D01*
X47967579Y-2315543D01*
X48992639Y-1676465D01*
X49767326Y-1224455D01*
X50114894Y-1060555D01*
X49976210Y-1274842D01*
X49432013Y-1834634D01*
X48663595Y-2559861D01*
X47486800Y-3766464D01*
X46426041Y-5083793D01*
X45594687Y-6347641D01*
X45106107Y-7393798D01*
X45024444Y-7830969D01*
X45148168Y-8054354D01*
X45572122Y-7908462D01*
X46375479Y-7351847D01*
X47229305Y-6676714D01*
X48428008Y-5742316D01*
X49561251Y-4924004D01*
X50408148Y-4380322D01*
X50492500Y-4334514D01*
X51019786Y-4081701D01*
X51119636Y-4128948D01*
X50761351Y-4539493D01*
X50051527Y-5242921D01*
X49303267Y-6041472D01*
X48771029Y-6733045D01*
X48509522Y-7211887D01*
X48573460Y-7372243D01*
X49017552Y-7108360D01*
X49135903Y-7012779D01*
X49497865Y-6744957D01*
X49510910Y-6901007D01*
X49182315Y-7579270D01*
X49178391Y-7586944D01*
X48700350Y-8736867D01*
X48390387Y-9791367D01*
X47994284Y-10759164D01*
X47399044Y-11458947D01*
X46925326Y-11921832D01*
X46888853Y-12214779D01*
X47263149Y-12137573D01*
X47990634Y-11696238D01*
X48690829Y-11164560D01*
X49561058Y-10470317D01*
X50189772Y-10003881D01*
X50402474Y-9880000D01*
X50386726Y-10181386D01*
X50191080Y-10954687D01*
X49990325Y-11614935D01*
X49578627Y-12694398D01*
X49134256Y-13271265D01*
X48501890Y-13537755D01*
X48422986Y-13554601D01*
X47199979Y-13989904D01*
X45586359Y-14842735D01*
X43693776Y-16035103D01*
X41633882Y-17489018D01*
X39518327Y-19126487D01*
X37458762Y-20869520D01*
X35940416Y-22274026D01*
X34715986Y-23474711D01*
X33881780Y-24346830D01*
X33467429Y-24887194D01*
X33502565Y-25092614D01*
X34016816Y-24959901D01*
X35039815Y-24485864D01*
X36601193Y-23667316D01*
X38730578Y-22501067D01*
X39909166Y-21846859D01*
X41090134Y-21221346D01*
X42187021Y-20691781D01*
X42676705Y-20484017D01*
X43197570Y-20305199D01*
X43351517Y-20357383D01*
X43106311Y-20732652D01*
X42429717Y-21523088D01*
X42235732Y-21743714D01*
X41469934Y-22700582D01*
X40946097Y-23521280D01*
X40790938Y-23952584D01*
X40538438Y-24461008D01*
X39878774Y-25233802D01*
X39017979Y-26046968D01*
X37890042Y-27131301D01*
X36838722Y-28341568D01*
X35931679Y-29568449D01*
X35236574Y-30702623D01*
X34821068Y-31634772D01*
X34752821Y-32255575D01*
X35050176Y-32457778D01*
X35393440Y-32224132D01*
X36112844Y-31594506D01*
X37089700Y-30675864D01*
X37814508Y-29966471D01*
X38950930Y-28843969D01*
X39673426Y-28170561D01*
X40068624Y-27898095D01*
X40223152Y-27978419D01*
X40223637Y-28363378D01*
X40194445Y-28643555D01*
X40138110Y-29381534D01*
X40239697Y-29504499D01*
X40516919Y-29147323D01*
X41756098Y-27550640D01*
X42802787Y-26636944D01*
X41849444Y-26636944D01*
X41673055Y-26813333D01*
X41496666Y-26636944D01*
X41673055Y-26460555D01*
X41849444Y-26636944D01*
X42802787Y-26636944D01*
X43097980Y-26379259D01*
X44742147Y-25422693D01*
X46394320Y-24689169D01*
X47595470Y-24388846D01*
X48441566Y-24509270D01*
X48912075Y-24881581D01*
X49162431Y-25188059D01*
X49214328Y-25415470D01*
X48962768Y-25662928D01*
X48302752Y-26029551D01*
X47129279Y-26614453D01*
X47017603Y-26669903D01*
X44245265Y-28307557D01*
X42019516Y-30175341D01*
X40384891Y-32222953D01*
X39385928Y-34400087D01*
X39130965Y-35577807D01*
X39247939Y-37114932D01*
X39911412Y-38694541D01*
X41008061Y-40109231D01*
X42065773Y-40949128D01*
X43713485Y-41584583D01*
X45618570Y-41718590D01*
X47574870Y-41381628D01*
X49376226Y-40604178D01*
X50559385Y-39693392D01*
X51232417Y-39103124D01*
X51654456Y-38892204D01*
X51727222Y-38975347D01*
X51793051Y-39617902D01*
X51952098Y-40549336D01*
X51958679Y-40582423D01*
X52059534Y-41339431D01*
X51912872Y-41536571D01*
X51727783Y-41453958D01*
X51429543Y-41361548D01*
X51498143Y-41544745D01*
X51406544Y-41984254D01*
X50870366Y-42546779D01*
X50806391Y-42594708D01*
X50309657Y-43043482D01*
X49991615Y-43630829D01*
X49783193Y-44549391D01*
X49625340Y-45888724D01*
X49184124Y-48386259D01*
X48408790Y-50627568D01*
X47368139Y-52433196D01*
X46907271Y-52978416D01*
X46321742Y-53730613D01*
X46260445Y-54247678D01*
X46757124Y-54540572D01*
X47845522Y-54620261D01*
X49559382Y-54497707D01*
X51021666Y-54315218D01*
X52442707Y-54166874D01*
X54150461Y-54055560D01*
X55460787Y-54012111D01*
X56719441Y-53970609D01*
X57676336Y-53894304D01*
X58136102Y-53799178D01*
X58144309Y-53792542D01*
X58315042Y-53175348D01*
X57973980Y-52333971D01*
X57209055Y-51415895D01*
X56292173Y-50685977D01*
X54600100Y-49567500D01*
X55700215Y-47565077D01*
X56398207Y-46457680D01*
X57107511Y-45590751D01*
X57594844Y-45200649D01*
X57999037Y-45057105D01*
X58278363Y-45154815D01*
X58503659Y-45616190D01*
X58745763Y-46563639D01*
X58957781Y-47555849D01*
X59295683Y-49020712D01*
X59657019Y-50351590D01*
X59969030Y-51282843D01*
X59996300Y-51347386D01*
X60278213Y-52187042D01*
X60176700Y-52776721D01*
X59977364Y-53090507D01*
X59592356Y-53726957D01*
X59488333Y-54044648D01*
X59788238Y-54275264D01*
X60536424Y-54310756D01*
X61505600Y-54159495D01*
X62199395Y-53944809D01*
X62961330Y-53763006D01*
X64229971Y-53577874D01*
X65807057Y-53414943D01*
X66993682Y-53327448D01*
X70794865Y-53095278D01*
X70014093Y-52057417D01*
X69292943Y-52057417D01*
X69218366Y-52434566D01*
X68511914Y-52505993D01*
X68116735Y-52455682D01*
X67323394Y-52434362D01*
X66133347Y-52521841D01*
X64748930Y-52688448D01*
X63372474Y-52904514D01*
X62206312Y-53140368D01*
X61452780Y-53366342D01*
X61304449Y-53454624D01*
X60891550Y-53652717D01*
X60760740Y-53339785D01*
X60911513Y-52896338D01*
X61116624Y-52144411D01*
X60884389Y-51666026D01*
X60617835Y-51085084D01*
X60307239Y-50027034D01*
X60016439Y-48712029D01*
X59995841Y-48601771D01*
X59733786Y-47238142D01*
X59490616Y-46074124D01*
X59316775Y-45350541D01*
X59310075Y-45327800D01*
X59262683Y-44990407D01*
X59391837Y-44641008D01*
X59781243Y-44198328D01*
X60514606Y-43581091D01*
X61675629Y-42708020D01*
X62987171Y-41757385D01*
X63660987Y-41482012D01*
X64719676Y-41250021D01*
X65244217Y-41180738D01*
X66943157Y-41005873D01*
X66251511Y-41758908D01*
X65458873Y-42814220D01*
X64746218Y-44086618D01*
X64242519Y-45314971D01*
X64074444Y-46166773D01*
X64216281Y-46929903D01*
X64584552Y-48056195D01*
X65000126Y-49072523D01*
X65774427Y-50478477D01*
X66546262Y-51283241D01*
X67270795Y-51451616D01*
X67703473Y-51194860D01*
X68187063Y-51043037D01*
X68726294Y-51390882D01*
X69292943Y-52057417D01*
X70014093Y-52057417D01*
X69391944Y-51230412D01*
X68457684Y-50064960D01*
X67835247Y-49482351D01*
X67485273Y-49453478D01*
X67381736Y-49743889D01*
X67295605Y-50432936D01*
X67293541Y-50449444D01*
X67099991Y-50762431D01*
X66724853Y-50549456D01*
X66244047Y-49941441D01*
X65733492Y-49069312D01*
X65269105Y-48063991D01*
X64926805Y-47056403D01*
X64782511Y-46177471D01*
X64781792Y-46117858D01*
X64968338Y-45426458D01*
X65453603Y-44392653D01*
X66073283Y-43335913D01*
X66798864Y-42261402D01*
X67361318Y-41646584D01*
X67959099Y-41345294D01*
X68790660Y-41211365D01*
X68981906Y-41193625D01*
X70104465Y-41047182D01*
X71000938Y-40850440D01*
X71212198Y-40775186D01*
X71593767Y-40663321D01*
X71652781Y-40921835D01*
X71427914Y-41682752D01*
X70938012Y-42752081D01*
X70324912Y-43646944D01*
X69617561Y-44429165D01*
X70638364Y-45704324D01*
X72047041Y-47670588D01*
X72930174Y-49376799D01*
X73272893Y-50779302D01*
X73060330Y-51834444D01*
X72829213Y-52136898D01*
X72564627Y-52590777D01*
X72604060Y-52746652D01*
X73020736Y-52831841D01*
X73993338Y-52903760D01*
X75379900Y-52961119D01*
X77038460Y-53002626D01*
X78827051Y-53026989D01*
X80603710Y-53032917D01*
X82226473Y-53019117D01*
X83553374Y-52984299D01*
X84442451Y-52927171D01*
X84750094Y-52857161D01*
X84677959Y-52458439D01*
X84375029Y-51650058D01*
X83937941Y-50647339D01*
X83463334Y-49665600D01*
X83047844Y-48920161D01*
X82879157Y-48688494D01*
X82608090Y-48802655D01*
X82370747Y-49136886D01*
X81949434Y-49552645D01*
X81682911Y-49548698D01*
X81431365Y-49601299D01*
X81440009Y-49761764D01*
X81254681Y-50239272D01*
X81046867Y-50362919D01*
X80732520Y-50352275D01*
X80838843Y-50054239D01*
X80943526Y-49765591D01*
X80832212Y-49829022D01*
X80366947Y-49868738D01*
X79812813Y-49366460D01*
X79243854Y-48466685D01*
X78734116Y-47313910D01*
X78357643Y-46052631D01*
X78188481Y-44827345D01*
X78185555Y-44664145D01*
X78358723Y-43593323D01*
X78804530Y-42523634D01*
X79412429Y-41608259D01*
X80071873Y-41000377D01*
X80672317Y-40853167D01*
X80864551Y-40951966D01*
X81544543Y-41194272D01*
X82441829Y-41198605D01*
X83182752Y-41150706D01*
X83407374Y-41374845D01*
X83360032Y-41687257D01*
X83419107Y-42224409D01*
X83801512Y-42335555D01*
X84278623Y-42637955D01*
X84952116Y-43559414D01*
X85836961Y-45121328D01*
X86084941Y-45598750D01*
X87175940Y-47951113D01*
X87825009Y-49876693D01*
X88024291Y-51342550D01*
X87765925Y-52315745D01*
X87706281Y-52394872D01*
X87400169Y-52896842D01*
X87399664Y-53078368D01*
X87785883Y-53141389D01*
X88721906Y-53200787D01*
X90065918Y-53254200D01*
X91676101Y-53299262D01*
X93410637Y-53333609D01*
X95127708Y-53354877D01*
X96685498Y-53360701D01*
X97942189Y-53348717D01*
X98755964Y-53316560D01*
X98993503Y-53271666D01*
X98807813Y-52904899D01*
X98596644Y-52566111D01*
X97606452Y-52566111D01*
X88856258Y-52566111D01*
X88697911Y-50714028D01*
X88514006Y-49531318D01*
X88127926Y-48253022D01*
X87485778Y-46747545D01*
X86533668Y-44883294D01*
X85673339Y-43328756D01*
X85115875Y-42225613D01*
X84776323Y-41320054D01*
X84725230Y-40840643D01*
X85135743Y-40348319D01*
X85897735Y-39776925D01*
X86018571Y-39703364D01*
X86969662Y-39055027D01*
X88058796Y-38193894D01*
X88457124Y-37846812D01*
X89787567Y-36644837D01*
X90180643Y-38104609D01*
X90353858Y-38936659D01*
X90353673Y-39722920D01*
X90151198Y-40687013D01*
X89717540Y-42052560D01*
X89642108Y-42272885D01*
X89184221Y-43595594D01*
X88801959Y-44684342D01*
X88563166Y-45346320D01*
X88533906Y-45422361D01*
X88462266Y-45860249D01*
X88733172Y-45827997D01*
X89237948Y-45397872D01*
X89867919Y-44642144D01*
X90012853Y-44438886D01*
X90620750Y-43674546D01*
X91088850Y-43287470D01*
X91239783Y-43292359D01*
X91446985Y-43754809D01*
X91756325Y-44695079D01*
X92088167Y-45863333D01*
X92511031Y-47272078D01*
X92988652Y-48592890D01*
X93338017Y-49377355D01*
X93729090Y-50237401D01*
X93756390Y-50815114D01*
X93473289Y-51370549D01*
X93186548Y-51881954D01*
X93331262Y-52096279D01*
X94033164Y-52142395D01*
X94226703Y-52142778D01*
X95197764Y-52015553D01*
X95785093Y-51531624D01*
X95964580Y-51229567D01*
X96443059Y-50316357D01*
X97024755Y-51441234D01*
X97606452Y-52566111D01*
X98596644Y-52566111D01*
X98338053Y-52151242D01*
X97924200Y-51527264D01*
X96861795Y-49959251D01*
X97734127Y-49150379D01*
X98751809Y-47847015D01*
X99735405Y-45871036D01*
X100674416Y-43254987D01*
X101558346Y-40031413D01*
X102376698Y-36232861D01*
X102947441Y-32986944D01*
X103108213Y-31226101D01*
X103129423Y-29023979D01*
X103117907Y-28762509D01*
X102028313Y-28762509D01*
X101701172Y-32151947D01*
X101033329Y-36054974D01*
X100393511Y-38984167D01*
X99981038Y-40761225D01*
X99539462Y-42689125D01*
X99170658Y-44322538D01*
X98478372Y-46409602D01*
X97441042Y-48231355D01*
X96169806Y-49616015D01*
X95415495Y-50126729D01*
X94952245Y-50345892D01*
X94940671Y-50183480D01*
X95281072Y-49638690D01*
X95774941Y-48530678D01*
X96200972Y-46921459D01*
X96527916Y-45014432D01*
X96724524Y-43012997D01*
X96739632Y-42196622D01*
X96032401Y-42196622D01*
X95981258Y-43510212D01*
X95825931Y-44699501D01*
X95822722Y-44715682D01*
X95376069Y-46827091D01*
X95007153Y-48281577D01*
X94703430Y-49121971D01*
X94453313Y-49391111D01*
X94149085Y-49098108D01*
X93736020Y-48366027D01*
X93601113Y-48068194D01*
X93197864Y-46993206D01*
X92743773Y-45587970D01*
X92437110Y-44520443D01*
X91839705Y-42295608D01*
X93205409Y-40897000D01*
X94036214Y-40156158D01*
X94733484Y-39725410D01*
X95039712Y-39678211D01*
X95345495Y-39669618D01*
X95307846Y-39533669D01*
X95342635Y-39082955D01*
X95425763Y-39012537D01*
X95676042Y-39166688D01*
X95868263Y-39859196D01*
X95990892Y-40924395D01*
X96032401Y-42196622D01*
X96739632Y-42196622D01*
X96759548Y-41120554D01*
X96711458Y-40328271D01*
X96573378Y-39083006D01*
X96431145Y-38167919D01*
X96312575Y-37756883D01*
X96298879Y-37749444D01*
X95788674Y-37973088D01*
X94927958Y-38560362D01*
X93874727Y-39385786D01*
X92786974Y-40323875D01*
X91822692Y-41249148D01*
X91611749Y-41472082D01*
X90880572Y-42216497D01*
X90423615Y-42583882D01*
X90334263Y-42500073D01*
X90342079Y-42480397D01*
X90661532Y-41526879D01*
X91029165Y-40155806D01*
X91391921Y-38603574D01*
X91696746Y-37106580D01*
X91890582Y-35901221D01*
X91898115Y-35809167D01*
X91238333Y-35809167D01*
X91155977Y-36622950D01*
X90937473Y-36888672D01*
X90885555Y-36867500D01*
X90609978Y-36379991D01*
X90532778Y-35809167D01*
X90665942Y-35070450D01*
X90885555Y-34750833D01*
X91124547Y-34901094D01*
X91235316Y-35623191D01*
X91238333Y-35809167D01*
X91898115Y-35809167D01*
X91931840Y-35397047D01*
X91829190Y-34111692D01*
X91814016Y-34083172D01*
X90320266Y-34083172D01*
X90293402Y-34418503D01*
X89957695Y-35044543D01*
X89393751Y-35843564D01*
X88682178Y-36697838D01*
X87903585Y-37489635D01*
X87367225Y-37939651D01*
X86482275Y-38593189D01*
X85857964Y-39033294D01*
X85664130Y-39149843D01*
X85786967Y-38903216D01*
X86218964Y-38264527D01*
X86526050Y-37837639D01*
X87834842Y-36165959D01*
X88993942Y-34914832D01*
X89912868Y-34181323D01*
X89957676Y-34156279D01*
X90320266Y-34083172D01*
X91814016Y-34083172D01*
X91450346Y-33399654D01*
X90740842Y-33164443D01*
X90671031Y-33163333D01*
X89900311Y-33441650D01*
X88881614Y-34196701D01*
X87743658Y-35308642D01*
X86615161Y-36657624D01*
X86021922Y-37492032D01*
X85381593Y-38365204D01*
X85032400Y-38643122D01*
X84999752Y-38322348D01*
X85231241Y-37599016D01*
X85454036Y-36664594D01*
X85567176Y-35475365D01*
X85571656Y-34259162D01*
X85468470Y-33243820D01*
X85258614Y-32657171D01*
X85209481Y-32614618D01*
X84806291Y-32742947D01*
X84059526Y-33292782D01*
X83099436Y-34162850D01*
X82685915Y-34576758D01*
X81770104Y-35481918D01*
X81103025Y-36069863D01*
X80778463Y-36261718D01*
X80773762Y-36184906D01*
X80784611Y-35309012D01*
X80360847Y-34182899D01*
X79600991Y-33018494D01*
X78997428Y-32363814D01*
X78167542Y-31736090D01*
X77216490Y-31417432D01*
X76043563Y-31305480D01*
X74816645Y-31306995D01*
X73784969Y-31401429D01*
X73395285Y-31492234D01*
X72886362Y-31598967D01*
X72753764Y-31273370D01*
X72806964Y-30773429D01*
X72639457Y-29572945D01*
X72229110Y-28916751D01*
X71717830Y-28460633D01*
X71498112Y-28571989D01*
X71615989Y-29156836D01*
X71857213Y-29676023D01*
X72005883Y-30561964D01*
X71804155Y-31734975D01*
X71323266Y-32916412D01*
X70852377Y-33606468D01*
X70530352Y-34181082D01*
X70573043Y-34487858D01*
X70964124Y-34472417D01*
X71247038Y-34212826D01*
X72556536Y-32939651D01*
X74128795Y-32267429D01*
X75675492Y-32117687D01*
X77512380Y-32383533D01*
X78882074Y-33109557D01*
X79730531Y-34227926D01*
X80003706Y-35670804D01*
X79714306Y-37187113D01*
X79420583Y-38256763D01*
X79485975Y-38719367D01*
X79902909Y-38570664D01*
X80663814Y-37806392D01*
X80713103Y-37749201D01*
X81570679Y-36771258D01*
X82618648Y-35606425D01*
X83241587Y-34927222D01*
X84711944Y-33339722D01*
X84822070Y-34673306D01*
X84785907Y-35715419D01*
X84576075Y-37006987D01*
X84249735Y-38328870D01*
X83864050Y-39461926D01*
X83476178Y-40187016D01*
X83353950Y-40301681D01*
X82755694Y-40495123D01*
X81967014Y-40559442D01*
X81285968Y-40493950D01*
X81010102Y-40307083D01*
X81189936Y-39862040D01*
X81628350Y-39114408D01*
X81713333Y-38984167D01*
X82189138Y-38071552D01*
X82404678Y-37273484D01*
X82405869Y-37220278D01*
X82344564Y-36836290D01*
X82097315Y-36921170D01*
X81547646Y-37520429D01*
X81503081Y-37573055D01*
X80189325Y-39252278D01*
X79033550Y-40964050D01*
X78116782Y-42567603D01*
X77520053Y-43922174D01*
X77323337Y-44834209D01*
X77498598Y-46099345D01*
X77968638Y-47500530D01*
X78639838Y-48872196D01*
X79418578Y-50048776D01*
X80211240Y-50864702D01*
X80897390Y-51155000D01*
X81479609Y-50923854D01*
X82021869Y-50493686D01*
X82472802Y-50100044D01*
X82773505Y-50156716D01*
X83118487Y-50747450D01*
X83250884Y-51022852D01*
X83818585Y-52213333D01*
X73775833Y-52211149D01*
X73770073Y-50536547D01*
X73695500Y-49521783D01*
X73415268Y-48616457D01*
X72832744Y-47579488D01*
X72233104Y-46702153D01*
X71460784Y-45591543D01*
X71048179Y-44880468D01*
X70942333Y-44396176D01*
X71090288Y-43965916D01*
X71293993Y-43638706D01*
X71658123Y-42910686D01*
X72111251Y-41776275D01*
X72573421Y-40468515D01*
X72964676Y-39220449D01*
X73205059Y-38265119D01*
X73243971Y-37955251D01*
X73043766Y-38005720D01*
X72527806Y-38485796D01*
X72100139Y-38956703D01*
X70953611Y-40281514D01*
X67710832Y-40346598D01*
X66354677Y-40349753D01*
X65368098Y-40304895D01*
X64881489Y-40220701D01*
X64878393Y-40158078D01*
X65114635Y-39795683D01*
X65053603Y-39669344D01*
X64686397Y-39758453D01*
X63931592Y-40209463D01*
X62941095Y-40929588D01*
X62770764Y-41063686D01*
X61322558Y-42110471D01*
X59656695Y-43162143D01*
X58430000Y-43837273D01*
X57400314Y-44368153D01*
X56667319Y-44841638D01*
X56097218Y-45409085D01*
X55556218Y-46221851D01*
X54910521Y-47431291D01*
X54456079Y-48332778D01*
X53528567Y-50255831D01*
X52972201Y-51595813D01*
X52785918Y-52369041D01*
X52968654Y-52591834D01*
X53519346Y-52280509D01*
X54240422Y-51642246D01*
X55204729Y-50718382D01*
X56288197Y-51489880D01*
X57135834Y-52201404D01*
X57345935Y-52699180D01*
X56901997Y-53007926D01*
X55787518Y-53152358D01*
X55166805Y-53169494D01*
X53532061Y-53242622D01*
X51711627Y-53405649D01*
X50668889Y-53540061D01*
X48920449Y-53800077D01*
X47792186Y-53930420D01*
X47206327Y-53904722D01*
X47085096Y-53696618D01*
X47350721Y-53279740D01*
X47925426Y-52627720D01*
X47937704Y-52614131D01*
X49157327Y-50796836D01*
X50014616Y-48431212D01*
X50497706Y-45717061D01*
X50887211Y-43999318D01*
X51589191Y-42876530D01*
X52586191Y-42373385D01*
X52880471Y-42347292D01*
X53260072Y-42160719D01*
X53317273Y-41566255D01*
X53047705Y-40481356D01*
X52733899Y-39578562D01*
X52532991Y-38677285D01*
X52434733Y-37537097D01*
X52432778Y-37373701D01*
X52373163Y-36498706D01*
X52224523Y-36018473D01*
X52168194Y-35986878D01*
X51893989Y-36284767D01*
X51486339Y-37043743D01*
X51234718Y-37614482D01*
X50711199Y-38661405D01*
X50045474Y-39365031D01*
X48989275Y-39973148D01*
X48765273Y-40079158D01*
X46650755Y-40775105D01*
X44653024Y-40892196D01*
X42868854Y-40464569D01*
X41395020Y-39526367D01*
X40328295Y-38111728D01*
X39898636Y-36951141D01*
X39871850Y-35568739D01*
X40341297Y-33954828D01*
X41219234Y-32273855D01*
X42417919Y-30690268D01*
X43849610Y-29368513D01*
X44004934Y-29255133D01*
X44883386Y-28751174D01*
X45322842Y-28770884D01*
X45310287Y-29275478D01*
X44832704Y-30226177D01*
X44501102Y-30733512D01*
X43472536Y-32511724D01*
X43015433Y-33994247D01*
X43122786Y-35145065D01*
X43787587Y-35928160D01*
X45002827Y-36307513D01*
X45591688Y-36338333D01*
X46819491Y-36254455D01*
X47846408Y-35939628D01*
X48824390Y-35299060D01*
X49905392Y-34237959D01*
X50988071Y-32971976D01*
X52065037Y-31718787D01*
X53131582Y-30576666D01*
X54009937Y-29732809D01*
X54257516Y-29529191D01*
X55400891Y-28815001D01*
X56471297Y-28275008D01*
X53657027Y-28275008D01*
X53214005Y-29118212D01*
X52285786Y-30310154D01*
X51135346Y-31614160D01*
X49546546Y-33287093D01*
X48254350Y-34447080D01*
X47155450Y-35162448D01*
X46146539Y-35501525D01*
X45200833Y-35539239D01*
X44445470Y-35375148D01*
X44119459Y-34889053D01*
X44033629Y-34332325D01*
X44218559Y-32807892D01*
X44993460Y-31231109D01*
X46265183Y-29726146D01*
X47940581Y-28417172D01*
X48863893Y-27893383D01*
X50152293Y-27311626D01*
X51140568Y-27068849D01*
X52108117Y-27101589D01*
X52252591Y-27123692D01*
X53158552Y-27349161D01*
X53632621Y-27709129D01*
X53657027Y-28275008D01*
X56471297Y-28275008D01*
X57032574Y-27991858D01*
X58961088Y-27139753D01*
X60994957Y-26338681D01*
X62942704Y-25668636D01*
X64578837Y-25217236D01*
X67050416Y-24659200D01*
X68913745Y-24233638D01*
X70248557Y-23916534D01*
X71134584Y-23683872D01*
X71651559Y-23511636D01*
X71794613Y-23426285D01*
X67114925Y-23426285D01*
X66846135Y-23671125D01*
X66370897Y-23708007D01*
X66235000Y-23483873D01*
X65479436Y-23483873D01*
X65256016Y-23957301D01*
X64791168Y-24178742D01*
X63846049Y-24530778D01*
X62616134Y-24941079D01*
X62486944Y-24981920D01*
X60895186Y-25548511D01*
X59072732Y-26294847D01*
X57407709Y-27061758D01*
X57371666Y-27079713D01*
X56075577Y-27711015D01*
X55275163Y-28041502D01*
X54843450Y-28102192D01*
X54653461Y-27924105D01*
X54609310Y-27754531D01*
X54227989Y-27182647D01*
X53456251Y-26658907D01*
X53374588Y-26621811D01*
X52753831Y-26303960D01*
X52628433Y-26131037D01*
X52685085Y-26121586D01*
X53252878Y-25874850D01*
X54036457Y-25287200D01*
X54827722Y-24549734D01*
X55418571Y-23853554D01*
X55607778Y-23437675D01*
X55601850Y-23423003D01*
X54490889Y-23423003D01*
X54385388Y-23915005D01*
X54133531Y-24337358D01*
X53631740Y-24763231D01*
X52776440Y-25265792D01*
X51464055Y-25918209D01*
X49963333Y-26621357D01*
X48621116Y-27268380D01*
X47448182Y-27878399D01*
X46658628Y-28339025D01*
X46557368Y-28409351D01*
X45875859Y-28739955D01*
X45573752Y-28609811D01*
X45751190Y-28285575D01*
X46436144Y-27774609D01*
X47491839Y-27177752D01*
X47568606Y-27139099D01*
X49849311Y-25881183D01*
X51461819Y-24724353D01*
X52398284Y-23675928D01*
X52565076Y-23059987D01*
X51690703Y-23059987D01*
X51336867Y-23789657D01*
X50960172Y-24232957D01*
X50402482Y-24797240D01*
X50099516Y-25048613D01*
X50094263Y-25049444D01*
X49806044Y-24827337D01*
X49229760Y-24283207D01*
X49134904Y-24188945D01*
X48274405Y-23328445D01*
X49347900Y-22954222D01*
X50659711Y-22613314D01*
X51452815Y-22658221D01*
X51690703Y-23059987D01*
X52565076Y-23059987D01*
X52650854Y-22743225D01*
X52583498Y-22463930D01*
X52340864Y-22044967D01*
X51947570Y-21803134D01*
X51327533Y-21754792D01*
X50404672Y-21916306D01*
X49102905Y-22304038D01*
X47346153Y-22934352D01*
X45058332Y-23823610D01*
X43659929Y-24383164D01*
X42778531Y-24872165D01*
X41562874Y-25720740D01*
X40183277Y-26795303D01*
X38810062Y-27962270D01*
X37613550Y-29088053D01*
X37456321Y-29248759D01*
X36508074Y-30201804D01*
X36018726Y-30619816D01*
X35987617Y-30503125D01*
X36414088Y-29852059D01*
X36506316Y-29723750D01*
X37500603Y-28541523D01*
X38862193Y-27167945D01*
X40372413Y-25804651D01*
X41812590Y-24653281D01*
X42555000Y-24146272D01*
X44679942Y-22892468D01*
X46417372Y-22027631D01*
X47925223Y-21493178D01*
X49361427Y-21230531D01*
X50560908Y-21176733D01*
X52452579Y-21320409D01*
X53718265Y-21747178D01*
X54384744Y-22472344D01*
X54490889Y-23423003D01*
X55601850Y-23423003D01*
X55389301Y-22896986D01*
X54839124Y-22099953D01*
X54552984Y-21755985D01*
X53160121Y-20676622D01*
X51421498Y-20189621D01*
X49372762Y-20293764D01*
X47049561Y-20987836D01*
X44800547Y-22088983D01*
X43577422Y-22778310D01*
X42608413Y-23309928D01*
X42039545Y-23604376D01*
X41953206Y-23638333D01*
X41993841Y-23377137D01*
X42207510Y-22922897D01*
X42645349Y-22458949D01*
X42979985Y-22448237D01*
X43204672Y-22470537D01*
X43134543Y-22308733D01*
X43263519Y-21920491D01*
X43798291Y-21287968D01*
X44563891Y-20567528D01*
X45361884Y-19934166D01*
X44318889Y-19934166D01*
X44142500Y-20110555D01*
X43966111Y-19934166D01*
X44142500Y-19757778D01*
X44318889Y-19934166D01*
X45361884Y-19934166D01*
X45385351Y-19915541D01*
X46087702Y-19488373D01*
X46383694Y-19405000D01*
X46766440Y-19135023D01*
X46788333Y-19005772D01*
X46494441Y-18733740D01*
X45694575Y-18752956D01*
X44511450Y-19034422D01*
X43067781Y-19549140D01*
X41521658Y-20250319D01*
X40289755Y-20819218D01*
X39280069Y-21194870D01*
X38667853Y-21314784D01*
X38592650Y-21294726D01*
X38379591Y-21281900D01*
X38456008Y-21453633D01*
X38320905Y-21844862D01*
X37617741Y-22365460D01*
X37187599Y-22595640D01*
X35675833Y-23343889D01*
X37263333Y-21905526D01*
X38184033Y-21140690D01*
X39488012Y-20148278D01*
X41043996Y-19018670D01*
X42720710Y-17842248D01*
X44386880Y-16709392D01*
X45911231Y-15710483D01*
X47162488Y-14935902D01*
X48009376Y-14476030D01*
X48125216Y-14427270D01*
X48750387Y-14212849D01*
X48795716Y-14333372D01*
X48447143Y-14740092D01*
X47984615Y-15479143D01*
X47865412Y-16159424D01*
X48111251Y-16553953D01*
X48270844Y-16582778D01*
X48765538Y-16354136D01*
X49509121Y-15778973D01*
X49823367Y-15489142D01*
X50951712Y-14395507D01*
X51202919Y-15224559D01*
X51591731Y-16117744D01*
X52230652Y-17221910D01*
X52985044Y-18341029D01*
X53720266Y-19279072D01*
X54301681Y-19840012D01*
X54415235Y-19901537D01*
X55046441Y-20010153D01*
X55158190Y-19645521D01*
X54930804Y-19105628D01*
X54678215Y-18438547D01*
X54555383Y-17748815D01*
X54567298Y-17233442D01*
X54718951Y-17089438D01*
X54884347Y-17271490D01*
X55060763Y-17887520D01*
X55000826Y-18119747D01*
X55026790Y-18287356D01*
X55184994Y-18213543D01*
X55630061Y-18299848D01*
X56153776Y-18852025D01*
X56157137Y-18857141D01*
X56728146Y-19508107D01*
X57623408Y-20308652D01*
X58655279Y-21115965D01*
X59636115Y-21787237D01*
X60378271Y-22179657D01*
X60585226Y-22227222D01*
X60813656Y-21968080D01*
X60759294Y-21665282D01*
X60510997Y-20893594D01*
X60315949Y-20165976D01*
X60184975Y-19523119D01*
X60343610Y-19477663D01*
X60832622Y-19887980D01*
X61585951Y-20418791D01*
X62678268Y-21038448D01*
X63320980Y-21355345D01*
X64457212Y-22033888D01*
X65207026Y-22784177D01*
X65479436Y-23483873D01*
X66235000Y-23483873D01*
X66161536Y-23362710D01*
X66307281Y-23051792D01*
X66728513Y-23031245D01*
X66910859Y-23117938D01*
X67114925Y-23426285D01*
X71794613Y-23426285D01*
X71879215Y-23375809D01*
X71897283Y-23252375D01*
X71785497Y-23117318D01*
X71730632Y-23063039D01*
X71279390Y-23001791D01*
X70426544Y-23121540D01*
X70125220Y-23191540D01*
X69361416Y-23344173D01*
X68720535Y-23305446D01*
X67989368Y-23012958D01*
X66954707Y-22404310D01*
X66539828Y-22142201D01*
X65146248Y-21289399D01*
X63700981Y-20457139D01*
X62639660Y-19889153D01*
X61635734Y-19277715D01*
X60916968Y-18642302D01*
X60714391Y-18319367D01*
X60378655Y-17765975D01*
X59996013Y-17834952D01*
X59658044Y-18456836D01*
X59488333Y-19249304D01*
X59311944Y-20625955D01*
X57789801Y-19248239D01*
X56842991Y-18298676D01*
X56060057Y-17352585D01*
X55752269Y-16873873D01*
X55246858Y-16177545D01*
X54740910Y-15877480D01*
X54729186Y-15877222D01*
X54181027Y-16163015D01*
X53742665Y-16802304D01*
X53609362Y-17467954D01*
X53672006Y-17648402D01*
X53731683Y-17971962D01*
X53669785Y-17993889D01*
X53426125Y-17698760D01*
X52985334Y-16921102D01*
X52438231Y-15822505D01*
X52380991Y-15700833D01*
X51838894Y-14580358D01*
X51409838Y-13763532D01*
X51178833Y-13411265D01*
X51169551Y-13407778D01*
X50869210Y-13640441D01*
X50249619Y-14236680D01*
X49767764Y-14730694D01*
X49134078Y-15337559D01*
X48826500Y-15511186D01*
X48861811Y-15319041D01*
X49397141Y-14513099D01*
X49767684Y-14129318D01*
X50236767Y-13480349D01*
X50331595Y-13099999D01*
X50492049Y-12298760D01*
X50908089Y-11035693D01*
X51523265Y-9481772D01*
X51536483Y-9450617D01*
X51602013Y-9032675D01*
X51197733Y-8904193D01*
X50736556Y-8921450D01*
X50043714Y-9042530D01*
X49822616Y-9229971D01*
X49827070Y-9238262D01*
X49729369Y-9610330D01*
X49616310Y-9700054D01*
X49339956Y-9589693D01*
X49257777Y-9125047D01*
X49545061Y-8373534D01*
X50364464Y-7331573D01*
X51109861Y-6579900D01*
X52039734Y-5688468D01*
X52495517Y-5189187D01*
X52522548Y-4996707D01*
X52166163Y-5025680D01*
X51903611Y-5085621D01*
X50845277Y-5339897D01*
X52080000Y-4404502D01*
X53045328Y-3739016D01*
X53102480Y-3706389D01*
X52080000Y-3706389D01*
X51903611Y-3882778D01*
X51727222Y-3706389D01*
X51903611Y-3530000D01*
X52080000Y-3706389D01*
X53102480Y-3706389D01*
X53922748Y-3238114D01*
X54108472Y-3155507D01*
X54720464Y-2771543D01*
X54902222Y-2452368D01*
X54608305Y-2232416D01*
X53814889Y-2297856D01*
X52654477Y-2620421D01*
X51259570Y-3171840D01*
X51021666Y-3280257D01*
X50011184Y-3716383D01*
X49232787Y-3993842D01*
X49006739Y-4042331D01*
X48427713Y-4304769D01*
X48124794Y-4575414D01*
X47857685Y-4900764D01*
X48082106Y-4769963D01*
X48287639Y-4616318D01*
X48840247Y-4239359D01*
X48951284Y-4255024D01*
X48693205Y-4572631D01*
X48138467Y-5101497D01*
X47417602Y-5705217D01*
X45930204Y-6881389D01*
X47110406Y-5164075D01*
X48013146Y-4076692D01*
X49247157Y-2874197D01*
X50545907Y-1816230D01*
X50550806Y-1812687D01*
X51653018Y-1000013D01*
X52241192Y-501855D01*
X52381865Y-231805D01*
X52141578Y-103460D01*
X51896606Y-65080D01*
X51017448Y-155989D01*
X49921956Y-520579D01*
X49565276Y-690098D01*
X48782044Y-1051962D01*
X48378887Y-1144093D01*
X48372652Y-1065703D01*
X49069381Y-485580D01*
X50331867Y45009D01*
X52020540Y494435D01*
X53995829Y831069D01*
X56118163Y1023280D01*
X57724444Y1053604D01*
X59961820Y1023114D01*
X61600113Y1016605D01*
X62745692Y1046012D01*
X63504926Y1123269D01*
X63984184Y1260311D01*
X64289836Y1469072D01*
X64528251Y1761486D01*
X64570699Y1821733D01*
X64996074Y2647342D01*
X65132778Y3251273D01*
X65364280Y3760907D01*
X65952261Y3859760D01*
X66736929Y3617964D01*
X67558495Y3105650D01*
X68257168Y2392947D01*
X68622308Y1719743D01*
X68962405Y466944D01*
X68974700Y-338666D01*
X68663988Y-618979D01*
X68481103Y-579028D01*
X67517362Y-576332D01*
X66268353Y-1168718D01*
X64834576Y-2287939D01*
X63698370Y-3533078D01*
X63205983Y-4683368D01*
X63324328Y-5842974D01*
X63544209Y-6350156D01*
X64402354Y-7319916D01*
X65621688Y-7720517D01*
X66738771Y-7613826D01*
X67359749Y-7506634D01*
X67431854Y-7737899D01*
X67245422Y-8123626D01*
X66633695Y-8841233D01*
X65690569Y-9555950D01*
X64700872Y-10078648D01*
X64071034Y-10231459D01*
X63666217Y-9951116D01*
X63576916Y-9330013D01*
X63016111Y-9330013D01*
X62947213Y-9925072D01*
X62645242Y-10372003D01*
X61967282Y-10796260D01*
X60770417Y-11323299D01*
X60723259Y-11342726D01*
X59419597Y-11827628D01*
X58715095Y-11960127D01*
X58598112Y-11740993D01*
X58779554Y-11471384D01*
X59274651Y-11121163D01*
X59524264Y-11136929D01*
X59695616Y-11057431D01*
X59641247Y-10827979D01*
X59768394Y-10296306D01*
X60324330Y-9622628D01*
X61107979Y-8982866D01*
X61918267Y-8552945D01*
X62337622Y-8468889D01*
X62878424Y-8696244D01*
X63016111Y-9330013D01*
X63576916Y-9330013D01*
X63541867Y-9086250D01*
X63321738Y-8169838D01*
X62712424Y-7780839D01*
X61801044Y-7926144D01*
X60674716Y-8612642D01*
X60405383Y-8838167D01*
X59135555Y-9953090D01*
X59135555Y-9034600D01*
X59028129Y-8290685D01*
X58739375Y-8192220D01*
X58319577Y-8718201D01*
X57939138Y-9534361D01*
X57528565Y-10721680D01*
X57456933Y-11620445D01*
X57781944Y-12440660D01*
X58561302Y-13392330D01*
X59169866Y-14013425D01*
X60168277Y-14923948D01*
X61182949Y-15631023D01*
X62329514Y-16168244D01*
X63723605Y-16569205D01*
X65480854Y-16867500D01*
X67716895Y-17096724D01*
X70424444Y-17283169D01*
X72569984Y-17426855D01*
X74644350Y-17593783D01*
X76467955Y-17767535D01*
X77861209Y-17931691D01*
X78361944Y-18008868D01*
X79632612Y-18276405D01*
X81171486Y-18659421D01*
X82798414Y-19105767D01*
X84333247Y-19563289D01*
X85595836Y-19979838D01*
X86406030Y-20303262D01*
X86534563Y-20374743D01*
X87166937Y-20944374D01*
X87865778Y-21791225D01*
X88489049Y-22709173D01*
X88894716Y-23492091D01*
X88962218Y-23897785D01*
X88963536Y-24214966D01*
X89101331Y-24180068D01*
X89553308Y-24221652D01*
X89633285Y-24315495D01*
X89473383Y-24565311D01*
X88730519Y-24758048D01*
X87525099Y-24892152D01*
X85977526Y-24966073D01*
X84208207Y-24978258D01*
X82337546Y-24927155D01*
X80485949Y-24811214D01*
X78773820Y-24628881D01*
X77762947Y-24468481D01*
X77022746Y-24367140D01*
X76860502Y-24484887D01*
X77037959Y-24719504D01*
X77750149Y-25080579D01*
X79103636Y-25367467D01*
X81037316Y-25572616D01*
X83490083Y-25688474D01*
X85064722Y-25711524D01*
X88306133Y-25503606D01*
X91371021Y-24880203D01*
X94169152Y-23886908D01*
X96610290Y-22569313D01*
X98604198Y-20973011D01*
X100060643Y-19143596D01*
X100688275Y-17817500D01*
X100899192Y-17273337D01*
X101014462Y-17224780D01*
X101067442Y-17745326D01*
X101088549Y-18699444D01*
X101182305Y-20062399D01*
X101400105Y-21736799D01*
X101680062Y-23285555D01*
X102019645Y-25826949D01*
X102028313Y-28762509D01*
X103117907Y-28762509D01*
X103023903Y-26628200D01*
X102804488Y-24286387D01*
X102484011Y-22246163D01*
X102362362Y-21698055D01*
X102086939Y-20183026D01*
X101894997Y-18397335D01*
X101834233Y-17023750D01*
X101756875Y-15488040D01*
X101548220Y-14643165D01*
X101215664Y-14488171D01*
X100766604Y-15022103D01*
X100208434Y-16244007D01*
X99832692Y-17282052D01*
X98968010Y-19100294D01*
X97667887Y-20624109D01*
X95843174Y-21934175D01*
X93404722Y-23111169D01*
X93380630Y-23121030D01*
X92072227Y-23645144D01*
X91045394Y-24036095D01*
X90447781Y-24238679D01*
X90355971Y-24251927D01*
X90142586Y-23936815D01*
X89675294Y-23256761D01*
X89514282Y-23023380D01*
X89068936Y-22198793D01*
X88943410Y-21570609D01*
X88977477Y-21469567D01*
X89022314Y-21221310D01*
X88874675Y-21279898D01*
X88423230Y-21196761D01*
X87778913Y-20705965D01*
X87673641Y-20598046D01*
X86728479Y-19815775D01*
X85638983Y-19197808D01*
X85634910Y-19196098D01*
X83892105Y-18593749D01*
X81659990Y-18010408D01*
X79154399Y-17489215D01*
X76591163Y-17073307D01*
X74186117Y-16805824D01*
X73423055Y-16755325D01*
X70836103Y-16610300D01*
X68883534Y-16472323D01*
X67494370Y-16331932D01*
X66597633Y-16179658D01*
X66122345Y-16006039D01*
X65997527Y-15801608D01*
X66005118Y-15766124D01*
X66171708Y-15126906D01*
X66348347Y-14363607D01*
X66854282Y-13453154D01*
X67847988Y-12562811D01*
X69120650Y-11824841D01*
X70463454Y-11371511D01*
X71199067Y-11291111D01*
X72195558Y-11142631D01*
X72549526Y-10713293D01*
X72301172Y-10144905D01*
X71252081Y-10144905D01*
X71090821Y-10419783D01*
X70393505Y-10661990D01*
X70120160Y-10713271D01*
X68843105Y-11166176D01*
X67522558Y-12028741D01*
X66355042Y-13127515D01*
X65537081Y-14289045D01*
X65289321Y-14976992D01*
X65108246Y-15734523D01*
X64800766Y-15998006D01*
X64131030Y-15895902D01*
X63777605Y-15800378D01*
X62535377Y-15377507D01*
X61300426Y-14841244D01*
X61252222Y-14816927D01*
X60269211Y-14222946D01*
X59483792Y-13593890D01*
X59410686Y-13517388D01*
X59178828Y-13217925D01*
X59171024Y-12970243D01*
X59482897Y-12715323D01*
X60210071Y-12394146D01*
X61448169Y-11947694D01*
X62585686Y-11557773D01*
X64570943Y-10942873D01*
X66506169Y-10453368D01*
X68266923Y-10109544D01*
X69728764Y-9931689D01*
X70767250Y-9940090D01*
X71252081Y-10144905D01*
X72301172Y-10144905D01*
X72249763Y-10027250D01*
X71943908Y-9685972D01*
X71445921Y-9351344D01*
X70703162Y-9211958D01*
X69515958Y-9238090D01*
X69128463Y-9266828D01*
X66910222Y-9444887D01*
X67609000Y-8556535D01*
X68127205Y-7700634D01*
X68315923Y-6972346D01*
X68168565Y-6534482D01*
X67690416Y-6544625D01*
X66402665Y-6923150D01*
X65262018Y-6940650D01*
X64487789Y-6596966D01*
X64442466Y-6546979D01*
X64061911Y-5620912D01*
X64058307Y-4462340D01*
X64416134Y-3425080D01*
X64589612Y-3192691D01*
X65339429Y-2539184D01*
X66238269Y-1986788D01*
X67089055Y-1626840D01*
X67694711Y-1550677D01*
X67858012Y-1677917D01*
X68238517Y-2101060D01*
X68760355Y-1944150D01*
X69271639Y-1268869D01*
X69363676Y-1066435D01*
X69635040Y436297D01*
X69287862Y1924523D01*
X68397345Y3255189D01*
X67038691Y4285239D01*
X66398248Y4574555D01*
X65540077Y4772558D01*
X64950007Y4515143D01*
G37*
X64950007Y4515143D02*
X64486662Y3703503D01*
X64266717Y3084846D01*
X64020668Y2446888D01*
X63680187Y2096561D01*
X63048249Y1937512D01*
X61927831Y1873387D01*
X61779371Y1868421D01*
X60205369Y1830304D01*
X58412975Y1806545D01*
X57319454Y1802275D01*
X54015607Y1607361D01*
X51208555Y1020015D01*
X48931547Y52129D01*
X47217835Y-1284401D01*
X46625630Y-2022967D01*
X46123657Y-2826159D01*
X45877043Y-3351813D01*
X45877202Y-3442017D01*
X46214614Y-3332948D01*
X46973949Y-2923018D01*
X47967579Y-2315543D01*
X48992639Y-1676465D01*
X49767326Y-1224455D01*
X50114894Y-1060555D01*
X49976210Y-1274842D01*
X49432013Y-1834634D01*
X48663595Y-2559861D01*
X47486800Y-3766464D01*
X46426041Y-5083793D01*
X45594687Y-6347641D01*
X45106107Y-7393798D01*
X45024444Y-7830969D01*
X45148168Y-8054354D01*
X45572122Y-7908462D01*
X46375479Y-7351847D01*
X47229305Y-6676714D01*
X48428008Y-5742316D01*
X49561251Y-4924004D01*
X50408148Y-4380322D01*
X50492500Y-4334514D01*
X51019786Y-4081701D01*
X51119636Y-4128948D01*
X50761351Y-4539493D01*
X50051527Y-5242921D01*
X49303267Y-6041472D01*
X48771029Y-6733045D01*
X48509522Y-7211887D01*
X48573460Y-7372243D01*
X49017552Y-7108360D01*
X49135903Y-7012779D01*
X49497865Y-6744957D01*
X49510910Y-6901007D01*
X49182315Y-7579270D01*
X49178391Y-7586944D01*
X48700350Y-8736867D01*
X48390387Y-9791367D01*
X47994284Y-10759164D01*
X47399044Y-11458947D01*
X46925326Y-11921832D01*
X46888853Y-12214779D01*
X47263149Y-12137573D01*
X47990634Y-11696238D01*
X48690829Y-11164560D01*
X49561058Y-10470317D01*
X50189772Y-10003881D01*
X50402474Y-9880000D01*
X50386726Y-10181386D01*
X50191080Y-10954687D01*
X49990325Y-11614935D01*
X49578627Y-12694398D01*
X49134256Y-13271265D01*
X48501890Y-13537755D01*
X48422986Y-13554601D01*
X47199979Y-13989904D01*
X45586359Y-14842735D01*
X43693776Y-16035103D01*
X41633882Y-17489018D01*
X39518327Y-19126487D01*
X37458762Y-20869520D01*
X35940416Y-22274026D01*
X34715986Y-23474711D01*
X33881780Y-24346830D01*
X33467429Y-24887194D01*
X33502565Y-25092614D01*
X34016816Y-24959901D01*
X35039815Y-24485864D01*
X36601193Y-23667316D01*
X38730578Y-22501067D01*
X39909166Y-21846859D01*
X41090134Y-21221346D01*
X42187021Y-20691781D01*
X42676705Y-20484017D01*
X43197570Y-20305199D01*
X43351517Y-20357383D01*
X43106311Y-20732652D01*
X42429717Y-21523088D01*
X42235732Y-21743714D01*
X41469934Y-22700582D01*
X40946097Y-23521280D01*
X40790938Y-23952584D01*
X40538438Y-24461008D01*
X39878774Y-25233802D01*
X39017979Y-26046968D01*
X37890042Y-27131301D01*
X36838722Y-28341568D01*
X35931679Y-29568449D01*
X35236574Y-30702623D01*
X34821068Y-31634772D01*
X34752821Y-32255575D01*
X35050176Y-32457778D01*
X35393440Y-32224132D01*
X36112844Y-31594506D01*
X37089700Y-30675864D01*
X37814508Y-29966471D01*
X38950930Y-28843969D01*
X39673426Y-28170561D01*
X40068624Y-27898095D01*
X40223152Y-27978419D01*
X40223637Y-28363378D01*
X40194445Y-28643555D01*
X40138110Y-29381534D01*
X40239697Y-29504499D01*
X40516919Y-29147323D01*
X41756098Y-27550640D01*
X42802787Y-26636944D01*
X41849444Y-26636944D01*
X41673055Y-26813333D01*
X41496666Y-26636944D01*
X41673055Y-26460555D01*
X41849444Y-26636944D01*
X42802787Y-26636944D01*
X43097980Y-26379259D01*
X44742147Y-25422693D01*
X46394320Y-24689169D01*
X47595470Y-24388846D01*
X48441566Y-24509270D01*
X48912075Y-24881581D01*
X49162431Y-25188059D01*
X49214328Y-25415470D01*
X48962768Y-25662928D01*
X48302752Y-26029551D01*
X47129279Y-26614453D01*
X47017603Y-26669903D01*
X44245265Y-28307557D01*
X42019516Y-30175341D01*
X40384891Y-32222953D01*
X39385928Y-34400087D01*
X39130965Y-35577807D01*
X39247939Y-37114932D01*
X39911412Y-38694541D01*
X41008061Y-40109231D01*
X42065773Y-40949128D01*
X43713485Y-41584583D01*
X45618570Y-41718590D01*
X47574870Y-41381628D01*
X49376226Y-40604178D01*
X50559385Y-39693392D01*
X51232417Y-39103124D01*
X51654456Y-38892204D01*
X51727222Y-38975347D01*
X51793051Y-39617902D01*
X51952098Y-40549336D01*
X51958679Y-40582423D01*
X52059534Y-41339431D01*
X51912872Y-41536571D01*
X51727783Y-41453958D01*
X51429543Y-41361548D01*
X51498143Y-41544745D01*
X51406544Y-41984254D01*
X50870366Y-42546779D01*
X50806391Y-42594708D01*
X50309657Y-43043482D01*
X49991615Y-43630829D01*
X49783193Y-44549391D01*
X49625340Y-45888724D01*
X49184124Y-48386259D01*
X48408790Y-50627568D01*
X47368139Y-52433196D01*
X46907271Y-52978416D01*
X46321742Y-53730613D01*
X46260445Y-54247678D01*
X46757124Y-54540572D01*
X47845522Y-54620261D01*
X49559382Y-54497707D01*
X51021666Y-54315218D01*
X52442707Y-54166874D01*
X54150461Y-54055560D01*
X55460787Y-54012111D01*
X56719441Y-53970609D01*
X57676336Y-53894304D01*
X58136102Y-53799178D01*
X58144309Y-53792542D01*
X58315042Y-53175348D01*
X57973980Y-52333971D01*
X57209055Y-51415895D01*
X56292173Y-50685977D01*
X54600100Y-49567500D01*
X55700215Y-47565077D01*
X56398207Y-46457680D01*
X57107511Y-45590751D01*
X57594844Y-45200649D01*
X57999037Y-45057105D01*
X58278363Y-45154815D01*
X58503659Y-45616190D01*
X58745763Y-46563639D01*
X58957781Y-47555849D01*
X59295683Y-49020712D01*
X59657019Y-50351590D01*
X59969030Y-51282843D01*
X59996300Y-51347386D01*
X60278213Y-52187042D01*
X60176700Y-52776721D01*
X59977364Y-53090507D01*
X59592356Y-53726957D01*
X59488333Y-54044648D01*
X59788238Y-54275264D01*
X60536424Y-54310756D01*
X61505600Y-54159495D01*
X62199395Y-53944809D01*
X62961330Y-53763006D01*
X64229971Y-53577874D01*
X65807057Y-53414943D01*
X66993682Y-53327448D01*
X70794865Y-53095278D01*
X70014093Y-52057417D01*
X69292943Y-52057417D01*
X69218366Y-52434566D01*
X68511914Y-52505993D01*
X68116735Y-52455682D01*
X67323394Y-52434362D01*
X66133347Y-52521841D01*
X64748930Y-52688448D01*
X63372474Y-52904514D01*
X62206312Y-53140368D01*
X61452780Y-53366342D01*
X61304449Y-53454624D01*
X60891550Y-53652717D01*
X60760740Y-53339785D01*
X60911513Y-52896338D01*
X61116624Y-52144411D01*
X60884389Y-51666026D01*
X60617835Y-51085084D01*
X60307239Y-50027034D01*
X60016439Y-48712029D01*
X59995841Y-48601771D01*
X59733786Y-47238142D01*
X59490616Y-46074124D01*
X59316775Y-45350541D01*
X59310075Y-45327800D01*
X59262683Y-44990407D01*
X59391837Y-44641008D01*
X59781243Y-44198328D01*
X60514606Y-43581091D01*
X61675629Y-42708020D01*
X62987171Y-41757385D01*
X63660987Y-41482012D01*
X64719676Y-41250021D01*
X65244217Y-41180738D01*
X66943157Y-41005873D01*
X66251511Y-41758908D01*
X65458873Y-42814220D01*
X64746218Y-44086618D01*
X64242519Y-45314971D01*
X64074444Y-46166773D01*
X64216281Y-46929903D01*
X64584552Y-48056195D01*
X65000126Y-49072523D01*
X65774427Y-50478477D01*
X66546262Y-51283241D01*
X67270795Y-51451616D01*
X67703473Y-51194860D01*
X68187063Y-51043037D01*
X68726294Y-51390882D01*
X69292943Y-52057417D01*
X70014093Y-52057417D01*
X69391944Y-51230412D01*
X68457684Y-50064960D01*
X67835247Y-49482351D01*
X67485273Y-49453478D01*
X67381736Y-49743889D01*
X67295605Y-50432936D01*
X67293541Y-50449444D01*
X67099991Y-50762431D01*
X66724853Y-50549456D01*
X66244047Y-49941441D01*
X65733492Y-49069312D01*
X65269105Y-48063991D01*
X64926805Y-47056403D01*
X64782511Y-46177471D01*
X64781792Y-46117858D01*
X64968338Y-45426458D01*
X65453603Y-44392653D01*
X66073283Y-43335913D01*
X66798864Y-42261402D01*
X67361318Y-41646584D01*
X67959099Y-41345294D01*
X68790660Y-41211365D01*
X68981906Y-41193625D01*
X70104465Y-41047182D01*
X71000938Y-40850440D01*
X71212198Y-40775186D01*
X71593767Y-40663321D01*
X71652781Y-40921835D01*
X71427914Y-41682752D01*
X70938012Y-42752081D01*
X70324912Y-43646944D01*
X69617561Y-44429165D01*
X70638364Y-45704324D01*
X72047041Y-47670588D01*
X72930174Y-49376799D01*
X73272893Y-50779302D01*
X73060330Y-51834444D01*
X72829213Y-52136898D01*
X72564627Y-52590777D01*
X72604060Y-52746652D01*
X73020736Y-52831841D01*
X73993338Y-52903760D01*
X75379900Y-52961119D01*
X77038460Y-53002626D01*
X78827051Y-53026989D01*
X80603710Y-53032917D01*
X82226473Y-53019117D01*
X83553374Y-52984299D01*
X84442451Y-52927171D01*
X84750094Y-52857161D01*
X84677959Y-52458439D01*
X84375029Y-51650058D01*
X83937941Y-50647339D01*
X83463334Y-49665600D01*
X83047844Y-48920161D01*
X82879157Y-48688494D01*
X82608090Y-48802655D01*
X82370747Y-49136886D01*
X81949434Y-49552645D01*
X81682911Y-49548698D01*
X81431365Y-49601299D01*
X81440009Y-49761764D01*
X81254681Y-50239272D01*
X81046867Y-50362919D01*
X80732520Y-50352275D01*
X80838843Y-50054239D01*
X80943526Y-49765591D01*
X80832212Y-49829022D01*
X80366947Y-49868738D01*
X79812813Y-49366460D01*
X79243854Y-48466685D01*
X78734116Y-47313910D01*
X78357643Y-46052631D01*
X78188481Y-44827345D01*
X78185555Y-44664145D01*
X78358723Y-43593323D01*
X78804530Y-42523634D01*
X79412429Y-41608259D01*
X80071873Y-41000377D01*
X80672317Y-40853167D01*
X80864551Y-40951966D01*
X81544543Y-41194272D01*
X82441829Y-41198605D01*
X83182752Y-41150706D01*
X83407374Y-41374845D01*
X83360032Y-41687257D01*
X83419107Y-42224409D01*
X83801512Y-42335555D01*
X84278623Y-42637955D01*
X84952116Y-43559414D01*
X85836961Y-45121328D01*
X86084941Y-45598750D01*
X87175940Y-47951113D01*
X87825009Y-49876693D01*
X88024291Y-51342550D01*
X87765925Y-52315745D01*
X87706281Y-52394872D01*
X87400169Y-52896842D01*
X87399664Y-53078368D01*
X87785883Y-53141389D01*
X88721906Y-53200787D01*
X90065918Y-53254200D01*
X91676101Y-53299262D01*
X93410637Y-53333609D01*
X95127708Y-53354877D01*
X96685498Y-53360701D01*
X97942189Y-53348717D01*
X98755964Y-53316560D01*
X98993503Y-53271666D01*
X98807813Y-52904899D01*
X98596644Y-52566111D01*
X97606452Y-52566111D01*
X88856258Y-52566111D01*
X88697911Y-50714028D01*
X88514006Y-49531318D01*
X88127926Y-48253022D01*
X87485778Y-46747545D01*
X86533668Y-44883294D01*
X85673339Y-43328756D01*
X85115875Y-42225613D01*
X84776323Y-41320054D01*
X84725230Y-40840643D01*
X85135743Y-40348319D01*
X85897735Y-39776925D01*
X86018571Y-39703364D01*
X86969662Y-39055027D01*
X88058796Y-38193894D01*
X88457124Y-37846812D01*
X89787567Y-36644837D01*
X90180643Y-38104609D01*
X90353858Y-38936659D01*
X90353673Y-39722920D01*
X90151198Y-40687013D01*
X89717540Y-42052560D01*
X89642108Y-42272885D01*
X89184221Y-43595594D01*
X88801959Y-44684342D01*
X88563166Y-45346320D01*
X88533906Y-45422361D01*
X88462266Y-45860249D01*
X88733172Y-45827997D01*
X89237948Y-45397872D01*
X89867919Y-44642144D01*
X90012853Y-44438886D01*
X90620750Y-43674546D01*
X91088850Y-43287470D01*
X91239783Y-43292359D01*
X91446985Y-43754809D01*
X91756325Y-44695079D01*
X92088167Y-45863333D01*
X92511031Y-47272078D01*
X92988652Y-48592890D01*
X93338017Y-49377355D01*
X93729090Y-50237401D01*
X93756390Y-50815114D01*
X93473289Y-51370549D01*
X93186548Y-51881954D01*
X93331262Y-52096279D01*
X94033164Y-52142395D01*
X94226703Y-52142778D01*
X95197764Y-52015553D01*
X95785093Y-51531624D01*
X95964580Y-51229567D01*
X96443059Y-50316357D01*
X97024755Y-51441234D01*
X97606452Y-52566111D01*
X98596644Y-52566111D01*
X98338053Y-52151242D01*
X97924200Y-51527264D01*
X96861795Y-49959251D01*
X97734127Y-49150379D01*
X98751809Y-47847015D01*
X99735405Y-45871036D01*
X100674416Y-43254987D01*
X101558346Y-40031413D01*
X102376698Y-36232861D01*
X102947441Y-32986944D01*
X103108213Y-31226101D01*
X103129423Y-29023979D01*
X103117907Y-28762509D01*
X102028313Y-28762509D01*
X101701172Y-32151947D01*
X101033329Y-36054974D01*
X100393511Y-38984167D01*
X99981038Y-40761225D01*
X99539462Y-42689125D01*
X99170658Y-44322538D01*
X98478372Y-46409602D01*
X97441042Y-48231355D01*
X96169806Y-49616015D01*
X95415495Y-50126729D01*
X94952245Y-50345892D01*
X94940671Y-50183480D01*
X95281072Y-49638690D01*
X95774941Y-48530678D01*
X96200972Y-46921459D01*
X96527916Y-45014432D01*
X96724524Y-43012997D01*
X96739632Y-42196622D01*
X96032401Y-42196622D01*
X95981258Y-43510212D01*
X95825931Y-44699501D01*
X95822722Y-44715682D01*
X95376069Y-46827091D01*
X95007153Y-48281577D01*
X94703430Y-49121971D01*
X94453313Y-49391111D01*
X94149085Y-49098108D01*
X93736020Y-48366027D01*
X93601113Y-48068194D01*
X93197864Y-46993206D01*
X92743773Y-45587970D01*
X92437110Y-44520443D01*
X91839705Y-42295608D01*
X93205409Y-40897000D01*
X94036214Y-40156158D01*
X94733484Y-39725410D01*
X95039712Y-39678211D01*
X95345495Y-39669618D01*
X95307846Y-39533669D01*
X95342635Y-39082955D01*
X95425763Y-39012537D01*
X95676042Y-39166688D01*
X95868263Y-39859196D01*
X95990892Y-40924395D01*
X96032401Y-42196622D01*
X96739632Y-42196622D01*
X96759548Y-41120554D01*
X96711458Y-40328271D01*
X96573378Y-39083006D01*
X96431145Y-38167919D01*
X96312575Y-37756883D01*
X96298879Y-37749444D01*
X95788674Y-37973088D01*
X94927958Y-38560362D01*
X93874727Y-39385786D01*
X92786974Y-40323875D01*
X91822692Y-41249148D01*
X91611749Y-41472082D01*
X90880572Y-42216497D01*
X90423615Y-42583882D01*
X90334263Y-42500073D01*
X90342079Y-42480397D01*
X90661532Y-41526879D01*
X91029165Y-40155806D01*
X91391921Y-38603574D01*
X91696746Y-37106580D01*
X91890582Y-35901221D01*
X91898115Y-35809167D01*
X91238333Y-35809167D01*
X91155977Y-36622950D01*
X90937473Y-36888672D01*
X90885555Y-36867500D01*
X90609978Y-36379991D01*
X90532778Y-35809167D01*
X90665942Y-35070450D01*
X90885555Y-34750833D01*
X91124547Y-34901094D01*
X91235316Y-35623191D01*
X91238333Y-35809167D01*
X91898115Y-35809167D01*
X91931840Y-35397047D01*
X91829190Y-34111692D01*
X91814016Y-34083172D01*
X90320266Y-34083172D01*
X90293402Y-34418503D01*
X89957695Y-35044543D01*
X89393751Y-35843564D01*
X88682178Y-36697838D01*
X87903585Y-37489635D01*
X87367225Y-37939651D01*
X86482275Y-38593189D01*
X85857964Y-39033294D01*
X85664130Y-39149843D01*
X85786967Y-38903216D01*
X86218964Y-38264527D01*
X86526050Y-37837639D01*
X87834842Y-36165959D01*
X88993942Y-34914832D01*
X89912868Y-34181323D01*
X89957676Y-34156279D01*
X90320266Y-34083172D01*
X91814016Y-34083172D01*
X91450346Y-33399654D01*
X90740842Y-33164443D01*
X90671031Y-33163333D01*
X89900311Y-33441650D01*
X88881614Y-34196701D01*
X87743658Y-35308642D01*
X86615161Y-36657624D01*
X86021922Y-37492032D01*
X85381593Y-38365204D01*
X85032400Y-38643122D01*
X84999752Y-38322348D01*
X85231241Y-37599016D01*
X85454036Y-36664594D01*
X85567176Y-35475365D01*
X85571656Y-34259162D01*
X85468470Y-33243820D01*
X85258614Y-32657171D01*
X85209481Y-32614618D01*
X84806291Y-32742947D01*
X84059526Y-33292782D01*
X83099436Y-34162850D01*
X82685915Y-34576758D01*
X81770104Y-35481918D01*
X81103025Y-36069863D01*
X80778463Y-36261718D01*
X80773762Y-36184906D01*
X80784611Y-35309012D01*
X80360847Y-34182899D01*
X79600991Y-33018494D01*
X78997428Y-32363814D01*
X78167542Y-31736090D01*
X77216490Y-31417432D01*
X76043563Y-31305480D01*
X74816645Y-31306995D01*
X73784969Y-31401429D01*
X73395285Y-31492234D01*
X72886362Y-31598967D01*
X72753764Y-31273370D01*
X72806964Y-30773429D01*
X72639457Y-29572945D01*
X72229110Y-28916751D01*
X71717830Y-28460633D01*
X71498112Y-28571989D01*
X71615989Y-29156836D01*
X71857213Y-29676023D01*
X72005883Y-30561964D01*
X71804155Y-31734975D01*
X71323266Y-32916412D01*
X70852377Y-33606468D01*
X70530352Y-34181082D01*
X70573043Y-34487858D01*
X70964124Y-34472417D01*
X71247038Y-34212826D01*
X72556536Y-32939651D01*
X74128795Y-32267429D01*
X75675492Y-32117687D01*
X77512380Y-32383533D01*
X78882074Y-33109557D01*
X79730531Y-34227926D01*
X80003706Y-35670804D01*
X79714306Y-37187113D01*
X79420583Y-38256763D01*
X79485975Y-38719367D01*
X79902909Y-38570664D01*
X80663814Y-37806392D01*
X80713103Y-37749201D01*
X81570679Y-36771258D01*
X82618648Y-35606425D01*
X83241587Y-34927222D01*
X84711944Y-33339722D01*
X84822070Y-34673306D01*
X84785907Y-35715419D01*
X84576075Y-37006987D01*
X84249735Y-38328870D01*
X83864050Y-39461926D01*
X83476178Y-40187016D01*
X83353950Y-40301681D01*
X82755694Y-40495123D01*
X81967014Y-40559442D01*
X81285968Y-40493950D01*
X81010102Y-40307083D01*
X81189936Y-39862040D01*
X81628350Y-39114408D01*
X81713333Y-38984167D01*
X82189138Y-38071552D01*
X82404678Y-37273484D01*
X82405869Y-37220278D01*
X82344564Y-36836290D01*
X82097315Y-36921170D01*
X81547646Y-37520429D01*
X81503081Y-37573055D01*
X80189325Y-39252278D01*
X79033550Y-40964050D01*
X78116782Y-42567603D01*
X77520053Y-43922174D01*
X77323337Y-44834209D01*
X77498598Y-46099345D01*
X77968638Y-47500530D01*
X78639838Y-48872196D01*
X79418578Y-50048776D01*
X80211240Y-50864702D01*
X80897390Y-51155000D01*
X81479609Y-50923854D01*
X82021869Y-50493686D01*
X82472802Y-50100044D01*
X82773505Y-50156716D01*
X83118487Y-50747450D01*
X83250884Y-51022852D01*
X83818585Y-52213333D01*
X73775833Y-52211149D01*
X73770073Y-50536547D01*
X73695500Y-49521783D01*
X73415268Y-48616457D01*
X72832744Y-47579488D01*
X72233104Y-46702153D01*
X71460784Y-45591543D01*
X71048179Y-44880468D01*
X70942333Y-44396176D01*
X71090288Y-43965916D01*
X71293993Y-43638706D01*
X71658123Y-42910686D01*
X72111251Y-41776275D01*
X72573421Y-40468515D01*
X72964676Y-39220449D01*
X73205059Y-38265119D01*
X73243971Y-37955251D01*
X73043766Y-38005720D01*
X72527806Y-38485796D01*
X72100139Y-38956703D01*
X70953611Y-40281514D01*
X67710832Y-40346598D01*
X66354677Y-40349753D01*
X65368098Y-40304895D01*
X64881489Y-40220701D01*
X64878393Y-40158078D01*
X65114635Y-39795683D01*
X65053603Y-39669344D01*
X64686397Y-39758453D01*
X63931592Y-40209463D01*
X62941095Y-40929588D01*
X62770764Y-41063686D01*
X61322558Y-42110471D01*
X59656695Y-43162143D01*
X58430000Y-43837273D01*
X57400314Y-44368153D01*
X56667319Y-44841638D01*
X56097218Y-45409085D01*
X55556218Y-46221851D01*
X54910521Y-47431291D01*
X54456079Y-48332778D01*
X53528567Y-50255831D01*
X52972201Y-51595813D01*
X52785918Y-52369041D01*
X52968654Y-52591834D01*
X53519346Y-52280509D01*
X54240422Y-51642246D01*
X55204729Y-50718382D01*
X56288197Y-51489880D01*
X57135834Y-52201404D01*
X57345935Y-52699180D01*
X56901997Y-53007926D01*
X55787518Y-53152358D01*
X55166805Y-53169494D01*
X53532061Y-53242622D01*
X51711627Y-53405649D01*
X50668889Y-53540061D01*
X48920449Y-53800077D01*
X47792186Y-53930420D01*
X47206327Y-53904722D01*
X47085096Y-53696618D01*
X47350721Y-53279740D01*
X47925426Y-52627720D01*
X47937704Y-52614131D01*
X49157327Y-50796836D01*
X50014616Y-48431212D01*
X50497706Y-45717061D01*
X50887211Y-43999318D01*
X51589191Y-42876530D01*
X52586191Y-42373385D01*
X52880471Y-42347292D01*
X53260072Y-42160719D01*
X53317273Y-41566255D01*
X53047705Y-40481356D01*
X52733899Y-39578562D01*
X52532991Y-38677285D01*
X52434733Y-37537097D01*
X52432778Y-37373701D01*
X52373163Y-36498706D01*
X52224523Y-36018473D01*
X52168194Y-35986878D01*
X51893989Y-36284767D01*
X51486339Y-37043743D01*
X51234718Y-37614482D01*
X50711199Y-38661405D01*
X50045474Y-39365031D01*
X48989275Y-39973148D01*
X48765273Y-40079158D01*
X46650755Y-40775105D01*
X44653024Y-40892196D01*
X42868854Y-40464569D01*
X41395020Y-39526367D01*
X40328295Y-38111728D01*
X39898636Y-36951141D01*
X39871850Y-35568739D01*
X40341297Y-33954828D01*
X41219234Y-32273855D01*
X42417919Y-30690268D01*
X43849610Y-29368513D01*
X44004934Y-29255133D01*
X44883386Y-28751174D01*
X45322842Y-28770884D01*
X45310287Y-29275478D01*
X44832704Y-30226177D01*
X44501102Y-30733512D01*
X43472536Y-32511724D01*
X43015433Y-33994247D01*
X43122786Y-35145065D01*
X43787587Y-35928160D01*
X45002827Y-36307513D01*
X45591688Y-36338333D01*
X46819491Y-36254455D01*
X47846408Y-35939628D01*
X48824390Y-35299060D01*
X49905392Y-34237959D01*
X50988071Y-32971976D01*
X52065037Y-31718787D01*
X53131582Y-30576666D01*
X54009937Y-29732809D01*
X54257516Y-29529191D01*
X55400891Y-28815001D01*
X56471297Y-28275008D01*
X53657027Y-28275008D01*
X53214005Y-29118212D01*
X52285786Y-30310154D01*
X51135346Y-31614160D01*
X49546546Y-33287093D01*
X48254350Y-34447080D01*
X47155450Y-35162448D01*
X46146539Y-35501525D01*
X45200833Y-35539239D01*
X44445470Y-35375148D01*
X44119459Y-34889053D01*
X44033629Y-34332325D01*
X44218559Y-32807892D01*
X44993460Y-31231109D01*
X46265183Y-29726146D01*
X47940581Y-28417172D01*
X48863893Y-27893383D01*
X50152293Y-27311626D01*
X51140568Y-27068849D01*
X52108117Y-27101589D01*
X52252591Y-27123692D01*
X53158552Y-27349161D01*
X53632621Y-27709129D01*
X53657027Y-28275008D01*
X56471297Y-28275008D01*
X57032574Y-27991858D01*
X58961088Y-27139753D01*
X60994957Y-26338681D01*
X62942704Y-25668636D01*
X64578837Y-25217236D01*
X67050416Y-24659200D01*
X68913745Y-24233638D01*
X70248557Y-23916534D01*
X71134584Y-23683872D01*
X71651559Y-23511636D01*
X71794613Y-23426285D01*
X67114925Y-23426285D01*
X66846135Y-23671125D01*
X66370897Y-23708007D01*
X66235000Y-23483873D01*
X65479436Y-23483873D01*
X65256016Y-23957301D01*
X64791168Y-24178742D01*
X63846049Y-24530778D01*
X62616134Y-24941079D01*
X62486944Y-24981920D01*
X60895186Y-25548511D01*
X59072732Y-26294847D01*
X57407709Y-27061758D01*
X57371666Y-27079713D01*
X56075577Y-27711015D01*
X55275163Y-28041502D01*
X54843450Y-28102192D01*
X54653461Y-27924105D01*
X54609310Y-27754531D01*
X54227989Y-27182647D01*
X53456251Y-26658907D01*
X53374588Y-26621811D01*
X52753831Y-26303960D01*
X52628433Y-26131037D01*
X52685085Y-26121586D01*
X53252878Y-25874850D01*
X54036457Y-25287200D01*
X54827722Y-24549734D01*
X55418571Y-23853554D01*
X55607778Y-23437675D01*
X55601850Y-23423003D01*
X54490889Y-23423003D01*
X54385388Y-23915005D01*
X54133531Y-24337358D01*
X53631740Y-24763231D01*
X52776440Y-25265792D01*
X51464055Y-25918209D01*
X49963333Y-26621357D01*
X48621116Y-27268380D01*
X47448182Y-27878399D01*
X46658628Y-28339025D01*
X46557368Y-28409351D01*
X45875859Y-28739955D01*
X45573752Y-28609811D01*
X45751190Y-28285575D01*
X46436144Y-27774609D01*
X47491839Y-27177752D01*
X47568606Y-27139099D01*
X49849311Y-25881183D01*
X51461819Y-24724353D01*
X52398284Y-23675928D01*
X52565076Y-23059987D01*
X51690703Y-23059987D01*
X51336867Y-23789657D01*
X50960172Y-24232957D01*
X50402482Y-24797240D01*
X50099516Y-25048613D01*
X50094263Y-25049444D01*
X49806044Y-24827337D01*
X49229760Y-24283207D01*
X49134904Y-24188945D01*
X48274405Y-23328445D01*
X49347900Y-22954222D01*
X50659711Y-22613314D01*
X51452815Y-22658221D01*
X51690703Y-23059987D01*
X52565076Y-23059987D01*
X52650854Y-22743225D01*
X52583498Y-22463930D01*
X52340864Y-22044967D01*
X51947570Y-21803134D01*
X51327533Y-21754792D01*
X50404672Y-21916306D01*
X49102905Y-22304038D01*
X47346153Y-22934352D01*
X45058332Y-23823610D01*
X43659929Y-24383164D01*
X42778531Y-24872165D01*
X41562874Y-25720740D01*
X40183277Y-26795303D01*
X38810062Y-27962270D01*
X37613550Y-29088053D01*
X37456321Y-29248759D01*
X36508074Y-30201804D01*
X36018726Y-30619816D01*
X35987617Y-30503125D01*
X36414088Y-29852059D01*
X36506316Y-29723750D01*
X37500603Y-28541523D01*
X38862193Y-27167945D01*
X40372413Y-25804651D01*
X41812590Y-24653281D01*
X42555000Y-24146272D01*
X44679942Y-22892468D01*
X46417372Y-22027631D01*
X47925223Y-21493178D01*
X49361427Y-21230531D01*
X50560908Y-21176733D01*
X52452579Y-21320409D01*
X53718265Y-21747178D01*
X54384744Y-22472344D01*
X54490889Y-23423003D01*
X55601850Y-23423003D01*
X55389301Y-22896986D01*
X54839124Y-22099953D01*
X54552984Y-21755985D01*
X53160121Y-20676622D01*
X51421498Y-20189621D01*
X49372762Y-20293764D01*
X47049561Y-20987836D01*
X44800547Y-22088983D01*
X43577422Y-22778310D01*
X42608413Y-23309928D01*
X42039545Y-23604376D01*
X41953206Y-23638333D01*
X41993841Y-23377137D01*
X42207510Y-22922897D01*
X42645349Y-22458949D01*
X42979985Y-22448237D01*
X43204672Y-22470537D01*
X43134543Y-22308733D01*
X43263519Y-21920491D01*
X43798291Y-21287968D01*
X44563891Y-20567528D01*
X45361884Y-19934166D01*
X44318889Y-19934166D01*
X44142500Y-20110555D01*
X43966111Y-19934166D01*
X44142500Y-19757778D01*
X44318889Y-19934166D01*
X45361884Y-19934166D01*
X45385351Y-19915541D01*
X46087702Y-19488373D01*
X46383694Y-19405000D01*
X46766440Y-19135023D01*
X46788333Y-19005772D01*
X46494441Y-18733740D01*
X45694575Y-18752956D01*
X44511450Y-19034422D01*
X43067781Y-19549140D01*
X41521658Y-20250319D01*
X40289755Y-20819218D01*
X39280069Y-21194870D01*
X38667853Y-21314784D01*
X38592650Y-21294726D01*
X38379591Y-21281900D01*
X38456008Y-21453633D01*
X38320905Y-21844862D01*
X37617741Y-22365460D01*
X37187599Y-22595640D01*
X35675833Y-23343889D01*
X37263333Y-21905526D01*
X38184033Y-21140690D01*
X39488012Y-20148278D01*
X41043996Y-19018670D01*
X42720710Y-17842248D01*
X44386880Y-16709392D01*
X45911231Y-15710483D01*
X47162488Y-14935902D01*
X48009376Y-14476030D01*
X48125216Y-14427270D01*
X48750387Y-14212849D01*
X48795716Y-14333372D01*
X48447143Y-14740092D01*
X47984615Y-15479143D01*
X47865412Y-16159424D01*
X48111251Y-16553953D01*
X48270844Y-16582778D01*
X48765538Y-16354136D01*
X49509121Y-15778973D01*
X49823367Y-15489142D01*
X50951712Y-14395507D01*
X51202919Y-15224559D01*
X51591731Y-16117744D01*
X52230652Y-17221910D01*
X52985044Y-18341029D01*
X53720266Y-19279072D01*
X54301681Y-19840012D01*
X54415235Y-19901537D01*
X55046441Y-20010153D01*
X55158190Y-19645521D01*
X54930804Y-19105628D01*
X54678215Y-18438547D01*
X54555383Y-17748815D01*
X54567298Y-17233442D01*
X54718951Y-17089438D01*
X54884347Y-17271490D01*
X55060763Y-17887520D01*
X55000826Y-18119747D01*
X55026790Y-18287356D01*
X55184994Y-18213543D01*
X55630061Y-18299848D01*
X56153776Y-18852025D01*
X56157137Y-18857141D01*
X56728146Y-19508107D01*
X57623408Y-20308652D01*
X58655279Y-21115965D01*
X59636115Y-21787237D01*
X60378271Y-22179657D01*
X60585226Y-22227222D01*
X60813656Y-21968080D01*
X60759294Y-21665282D01*
X60510997Y-20893594D01*
X60315949Y-20165976D01*
X60184975Y-19523119D01*
X60343610Y-19477663D01*
X60832622Y-19887980D01*
X61585951Y-20418791D01*
X62678268Y-21038448D01*
X63320980Y-21355345D01*
X64457212Y-22033888D01*
X65207026Y-22784177D01*
X65479436Y-23483873D01*
X66235000Y-23483873D01*
X66161536Y-23362710D01*
X66307281Y-23051792D01*
X66728513Y-23031245D01*
X66910859Y-23117938D01*
X67114925Y-23426285D01*
X71794613Y-23426285D01*
X71879215Y-23375809D01*
X71897283Y-23252375D01*
X71785497Y-23117318D01*
X71730632Y-23063039D01*
X71279390Y-23001791D01*
X70426544Y-23121540D01*
X70125220Y-23191540D01*
X69361416Y-23344173D01*
X68720535Y-23305446D01*
X67989368Y-23012958D01*
X66954707Y-22404310D01*
X66539828Y-22142201D01*
X65146248Y-21289399D01*
X63700981Y-20457139D01*
X62639660Y-19889153D01*
X61635734Y-19277715D01*
X60916968Y-18642302D01*
X60714391Y-18319367D01*
X60378655Y-17765975D01*
X59996013Y-17834952D01*
X59658044Y-18456836D01*
X59488333Y-19249304D01*
X59311944Y-20625955D01*
X57789801Y-19248239D01*
X56842991Y-18298676D01*
X56060057Y-17352585D01*
X55752269Y-16873873D01*
X55246858Y-16177545D01*
X54740910Y-15877480D01*
X54729186Y-15877222D01*
X54181027Y-16163015D01*
X53742665Y-16802304D01*
X53609362Y-17467954D01*
X53672006Y-17648402D01*
X53731683Y-17971962D01*
X53669785Y-17993889D01*
X53426125Y-17698760D01*
X52985334Y-16921102D01*
X52438231Y-15822505D01*
X52380991Y-15700833D01*
X51838894Y-14580358D01*
X51409838Y-13763532D01*
X51178833Y-13411265D01*
X51169551Y-13407778D01*
X50869210Y-13640441D01*
X50249619Y-14236680D01*
X49767764Y-14730694D01*
X49134078Y-15337559D01*
X48826500Y-15511186D01*
X48861811Y-15319041D01*
X49397141Y-14513099D01*
X49767684Y-14129318D01*
X50236767Y-13480349D01*
X50331595Y-13099999D01*
X50492049Y-12298760D01*
X50908089Y-11035693D01*
X51523265Y-9481772D01*
X51536483Y-9450617D01*
X51602013Y-9032675D01*
X51197733Y-8904193D01*
X50736556Y-8921450D01*
X50043714Y-9042530D01*
X49822616Y-9229971D01*
X49827070Y-9238262D01*
X49729369Y-9610330D01*
X49616310Y-9700054D01*
X49339956Y-9589693D01*
X49257777Y-9125047D01*
X49545061Y-8373534D01*
X50364464Y-7331573D01*
X51109861Y-6579900D01*
X52039734Y-5688468D01*
X52495517Y-5189187D01*
X52522548Y-4996707D01*
X52166163Y-5025680D01*
X51903611Y-5085621D01*
X50845277Y-5339897D01*
X52080000Y-4404502D01*
X53045328Y-3739016D01*
X53102480Y-3706389D01*
X52080000Y-3706389D01*
X51903611Y-3882778D01*
X51727222Y-3706389D01*
X51903611Y-3530000D01*
X52080000Y-3706389D01*
X53102480Y-3706389D01*
X53922748Y-3238114D01*
X54108472Y-3155507D01*
X54720464Y-2771543D01*
X54902222Y-2452368D01*
X54608305Y-2232416D01*
X53814889Y-2297856D01*
X52654477Y-2620421D01*
X51259570Y-3171840D01*
X51021666Y-3280257D01*
X50011184Y-3716383D01*
X49232787Y-3993842D01*
X49006739Y-4042331D01*
X48427713Y-4304769D01*
X48124794Y-4575414D01*
X47857685Y-4900764D01*
X48082106Y-4769963D01*
X48287639Y-4616318D01*
X48840247Y-4239359D01*
X48951284Y-4255024D01*
X48693205Y-4572631D01*
X48138467Y-5101497D01*
X47417602Y-5705217D01*
X45930204Y-6881389D01*
X47110406Y-5164075D01*
X48013146Y-4076692D01*
X49247157Y-2874197D01*
X50545907Y-1816230D01*
X50550806Y-1812687D01*
X51653018Y-1000013D01*
X52241192Y-501855D01*
X52381865Y-231805D01*
X52141578Y-103460D01*
X51896606Y-65080D01*
X51017448Y-155989D01*
X49921956Y-520579D01*
X49565276Y-690098D01*
X48782044Y-1051962D01*
X48378887Y-1144093D01*
X48372652Y-1065703D01*
X49069381Y-485580D01*
X50331867Y45009D01*
X52020540Y494435D01*
X53995829Y831069D01*
X56118163Y1023280D01*
X57724444Y1053604D01*
X59961820Y1023114D01*
X61600113Y1016605D01*
X62745692Y1046012D01*
X63504926Y1123269D01*
X63984184Y1260311D01*
X64289836Y1469072D01*
X64528251Y1761486D01*
X64570699Y1821733D01*
X64996074Y2647342D01*
X65132778Y3251273D01*
X65364280Y3760907D01*
X65952261Y3859760D01*
X66736929Y3617964D01*
X67558495Y3105650D01*
X68257168Y2392947D01*
X68622308Y1719743D01*
X68962405Y466944D01*
X68974700Y-338666D01*
X68663988Y-618979D01*
X68481103Y-579028D01*
X67517362Y-576332D01*
X66268353Y-1168718D01*
X64834576Y-2287939D01*
X63698370Y-3533078D01*
X63205983Y-4683368D01*
X63324328Y-5842974D01*
X63544209Y-6350156D01*
X64402354Y-7319916D01*
X65621688Y-7720517D01*
X66738771Y-7613826D01*
X67359749Y-7506634D01*
X67431854Y-7737899D01*
X67245422Y-8123626D01*
X66633695Y-8841233D01*
X65690569Y-9555950D01*
X64700872Y-10078648D01*
X64071034Y-10231459D01*
X63666217Y-9951116D01*
X63576916Y-9330013D01*
X63016111Y-9330013D01*
X62947213Y-9925072D01*
X62645242Y-10372003D01*
X61967282Y-10796260D01*
X60770417Y-11323299D01*
X60723259Y-11342726D01*
X59419597Y-11827628D01*
X58715095Y-11960127D01*
X58598112Y-11740993D01*
X58779554Y-11471384D01*
X59274651Y-11121163D01*
X59524264Y-11136929D01*
X59695616Y-11057431D01*
X59641247Y-10827979D01*
X59768394Y-10296306D01*
X60324330Y-9622628D01*
X61107979Y-8982866D01*
X61918267Y-8552945D01*
X62337622Y-8468889D01*
X62878424Y-8696244D01*
X63016111Y-9330013D01*
X63576916Y-9330013D01*
X63541867Y-9086250D01*
X63321738Y-8169838D01*
X62712424Y-7780839D01*
X61801044Y-7926144D01*
X60674716Y-8612642D01*
X60405383Y-8838167D01*
X59135555Y-9953090D01*
X59135555Y-9034600D01*
X59028129Y-8290685D01*
X58739375Y-8192220D01*
X58319577Y-8718201D01*
X57939138Y-9534361D01*
X57528565Y-10721680D01*
X57456933Y-11620445D01*
X57781944Y-12440660D01*
X58561302Y-13392330D01*
X59169866Y-14013425D01*
X60168277Y-14923948D01*
X61182949Y-15631023D01*
X62329514Y-16168244D01*
X63723605Y-16569205D01*
X65480854Y-16867500D01*
X67716895Y-17096724D01*
X70424444Y-17283169D01*
X72569984Y-17426855D01*
X74644350Y-17593783D01*
X76467955Y-17767535D01*
X77861209Y-17931691D01*
X78361944Y-18008868D01*
X79632612Y-18276405D01*
X81171486Y-18659421D01*
X82798414Y-19105767D01*
X84333247Y-19563289D01*
X85595836Y-19979838D01*
X86406030Y-20303262D01*
X86534563Y-20374743D01*
X87166937Y-20944374D01*
X87865778Y-21791225D01*
X88489049Y-22709173D01*
X88894716Y-23492091D01*
X88962218Y-23897785D01*
X88963536Y-24214966D01*
X89101331Y-24180068D01*
X89553308Y-24221652D01*
X89633285Y-24315495D01*
X89473383Y-24565311D01*
X88730519Y-24758048D01*
X87525099Y-24892152D01*
X85977526Y-24966073D01*
X84208207Y-24978258D01*
X82337546Y-24927155D01*
X80485949Y-24811214D01*
X78773820Y-24628881D01*
X77762947Y-24468481D01*
X77022746Y-24367140D01*
X76860502Y-24484887D01*
X77037959Y-24719504D01*
X77750149Y-25080579D01*
X79103636Y-25367467D01*
X81037316Y-25572616D01*
X83490083Y-25688474D01*
X85064722Y-25711524D01*
X88306133Y-25503606D01*
X91371021Y-24880203D01*
X94169152Y-23886908D01*
X96610290Y-22569313D01*
X98604198Y-20973011D01*
X100060643Y-19143596D01*
X100688275Y-17817500D01*
X100899192Y-17273337D01*
X101014462Y-17224780D01*
X101067442Y-17745326D01*
X101088549Y-18699444D01*
X101182305Y-20062399D01*
X101400105Y-21736799D01*
X101680062Y-23285555D01*
X102019645Y-25826949D01*
X102028313Y-28762509D01*
X103117907Y-28762509D01*
X103023903Y-26628200D01*
X102804488Y-24286387D01*
X102484011Y-22246163D01*
X102362362Y-21698055D01*
X102086939Y-20183026D01*
X101894997Y-18397335D01*
X101834233Y-17023750D01*
X101756875Y-15488040D01*
X101548220Y-14643165D01*
X101215664Y-14488171D01*
X100766604Y-15022103D01*
X100208434Y-16244007D01*
X99832692Y-17282052D01*
X98968010Y-19100294D01*
X97667887Y-20624109D01*
X95843174Y-21934175D01*
X93404722Y-23111169D01*
X93380630Y-23121030D01*
X92072227Y-23645144D01*
X91045394Y-24036095D01*
X90447781Y-24238679D01*
X90355971Y-24251927D01*
X90142586Y-23936815D01*
X89675294Y-23256761D01*
X89514282Y-23023380D01*
X89068936Y-22198793D01*
X88943410Y-21570609D01*
X88977477Y-21469567D01*
X89022314Y-21221310D01*
X88874675Y-21279898D01*
X88423230Y-21196761D01*
X87778913Y-20705965D01*
X87673641Y-20598046D01*
X86728479Y-19815775D01*
X85638983Y-19197808D01*
X85634910Y-19196098D01*
X83892105Y-18593749D01*
X81659990Y-18010408D01*
X79154399Y-17489215D01*
X76591163Y-17073307D01*
X74186117Y-16805824D01*
X73423055Y-16755325D01*
X70836103Y-16610300D01*
X68883534Y-16472323D01*
X67494370Y-16331932D01*
X66597633Y-16179658D01*
X66122345Y-16006039D01*
X65997527Y-15801608D01*
X66005118Y-15766124D01*
X66171708Y-15126906D01*
X66348347Y-14363607D01*
X66854282Y-13453154D01*
X67847988Y-12562811D01*
X69120650Y-11824841D01*
X70463454Y-11371511D01*
X71199067Y-11291111D01*
X72195558Y-11142631D01*
X72549526Y-10713293D01*
X72301172Y-10144905D01*
X71252081Y-10144905D01*
X71090821Y-10419783D01*
X70393505Y-10661990D01*
X70120160Y-10713271D01*
X68843105Y-11166176D01*
X67522558Y-12028741D01*
X66355042Y-13127515D01*
X65537081Y-14289045D01*
X65289321Y-14976992D01*
X65108246Y-15734523D01*
X64800766Y-15998006D01*
X64131030Y-15895902D01*
X63777605Y-15800378D01*
X62535377Y-15377507D01*
X61300426Y-14841244D01*
X61252222Y-14816927D01*
X60269211Y-14222946D01*
X59483792Y-13593890D01*
X59410686Y-13517388D01*
X59178828Y-13217925D01*
X59171024Y-12970243D01*
X59482897Y-12715323D01*
X60210071Y-12394146D01*
X61448169Y-11947694D01*
X62585686Y-11557773D01*
X64570943Y-10942873D01*
X66506169Y-10453368D01*
X68266923Y-10109544D01*
X69728764Y-9931689D01*
X70767250Y-9940090D01*
X71252081Y-10144905D01*
X72301172Y-10144905D01*
X72249763Y-10027250D01*
X71943908Y-9685972D01*
X71445921Y-9351344D01*
X70703162Y-9211958D01*
X69515958Y-9238090D01*
X69128463Y-9266828D01*
X66910222Y-9444887D01*
X67609000Y-8556535D01*
X68127205Y-7700634D01*
X68315923Y-6972346D01*
X68168565Y-6534482D01*
X67690416Y-6544625D01*
X66402665Y-6923150D01*
X65262018Y-6940650D01*
X64487789Y-6596966D01*
X64442466Y-6546979D01*
X64061911Y-5620912D01*
X64058307Y-4462340D01*
X64416134Y-3425080D01*
X64589612Y-3192691D01*
X65339429Y-2539184D01*
X66238269Y-1986788D01*
X67089055Y-1626840D01*
X67694711Y-1550677D01*
X67858012Y-1677917D01*
X68238517Y-2101060D01*
X68760355Y-1944150D01*
X69271639Y-1268869D01*
X69363676Y-1066435D01*
X69635040Y436297D01*
X69287862Y1924523D01*
X68397345Y3255189D01*
X67038691Y4285239D01*
X66398248Y4574555D01*
X65540077Y4772558D01*
X64950007Y4515143D01*
G36*
X66543889Y-49920278D02*
G01*
X66720278Y-50096666D01*
X66896666Y-49920278D01*
X66720278Y-49743889D01*
X66543889Y-49920278D01*
G37*
X66543889Y-49920278D02*
X66720278Y-50096666D01*
X66896666Y-49920278D01*
X66720278Y-49743889D01*
X66543889Y-49920278D01*
G36*
X51021666Y-43923055D02*
G01*
X51198055Y-44099444D01*
X51374444Y-43923055D01*
X51198055Y-43746667D01*
X51021666Y-43923055D01*
G37*
X51021666Y-43923055D02*
X51198055Y-44099444D01*
X51374444Y-43923055D01*
X51198055Y-43746667D01*
X51021666Y-43923055D01*
G36*
X83124444Y-39689722D02*
G01*
X83300833Y-39866111D01*
X83477222Y-39689722D01*
X83300833Y-39513333D01*
X83124444Y-39689722D01*
G37*
X83124444Y-39689722D02*
X83300833Y-39866111D01*
X83477222Y-39689722D01*
X83300833Y-39513333D01*
X83124444Y-39689722D01*
G36*
X58782778Y-19581389D02*
G01*
X58959166Y-19757778D01*
X59135555Y-19581389D01*
X58959166Y-19405000D01*
X58782778Y-19581389D01*
G37*
X58782778Y-19581389D02*
X58959166Y-19757778D01*
X59135555Y-19581389D01*
X58959166Y-19405000D01*
X58782778Y-19581389D01*
G36*
X66191111Y-8292500D02*
G01*
X66367500Y-8468889D01*
X66543889Y-8292500D01*
X66367500Y-8116111D01*
X66191111Y-8292500D01*
G37*
X66191111Y-8292500D02*
X66367500Y-8468889D01*
X66543889Y-8292500D01*
X66367500Y-8116111D01*
X66191111Y-8292500D01*
G36*
X60637220Y-194247D02*
G01*
X59921177Y-652900D01*
X59290919Y-1202050D01*
X58967011Y-1665565D01*
X58975838Y-1793087D01*
X59449666Y-2027215D01*
X60255979Y-2113719D01*
X61034547Y-2038965D01*
X61369815Y-1883704D01*
X61578950Y-1361005D01*
X61579368Y-1178148D01*
X60781852Y-1178148D01*
X60733426Y-1387874D01*
X60546666Y-1413333D01*
X60256290Y-1284257D01*
X60311481Y-1178148D01*
X60730146Y-1135927D01*
X60781852Y-1178148D01*
X61579368Y-1178148D01*
X61580553Y-659824D01*
X61401549Y-114909D01*
X61218486Y-2222D01*
X60637220Y-194247D01*
G37*
X60637220Y-194247D02*
X59921177Y-652900D01*
X59290919Y-1202050D01*
X58967011Y-1665565D01*
X58975838Y-1793087D01*
X59449666Y-2027215D01*
X60255979Y-2113719D01*
X61034547Y-2038965D01*
X61369815Y-1883704D01*
X61578950Y-1361005D01*
X61579368Y-1178148D01*
X60781852Y-1178148D01*
X60733426Y-1387874D01*
X60546666Y-1413333D01*
X60256290Y-1284257D01*
X60311481Y-1178148D01*
X60730146Y-1135927D01*
X60781852Y-1178148D01*
X61579368Y-1178148D01*
X61580553Y-659824D01*
X61401549Y-114909D01*
X61218486Y-2222D01*
X60637220Y-194247D01*
G36*
X90885555Y-43923055D02*
G01*
X91061944Y-44099444D01*
X91238333Y-43923055D01*
X91061944Y-43746667D01*
X90885555Y-43923055D01*
G37*
X90885555Y-43923055D02*
X91061944Y-44099444D01*
X91238333Y-43923055D01*
X91061944Y-43746667D01*
X90885555Y-43923055D01*
G36*
X87877969Y-36801821D02*
G01*
X87622361Y-36998890D01*
X87133778Y-37434075D01*
X87005000Y-37616251D01*
X87176603Y-37721847D01*
X87645576Y-37268667D01*
X87755554Y-37132083D01*
X88060653Y-36714220D01*
X87877969Y-36801821D01*
G37*
X87877969Y-36801821D02*
X87622361Y-36998890D01*
X87133778Y-37434075D01*
X87005000Y-37616251D01*
X87176603Y-37721847D01*
X87645576Y-37268667D01*
X87755554Y-37132083D01*
X88060653Y-36714220D01*
X87877969Y-36801821D01*
G36*
X89528951Y-34717146D02*
G01*
X89150229Y-35072356D01*
X89227918Y-35276566D01*
X89277235Y-35280000D01*
X89575621Y-35029429D01*
X89684520Y-34872715D01*
X89726100Y-34631311D01*
X89528951Y-34717146D01*
G37*
X89528951Y-34717146D02*
X89150229Y-35072356D01*
X89227918Y-35276566D01*
X89277235Y-35280000D01*
X89575621Y-35029429D01*
X89684520Y-34872715D01*
X89726100Y-34631311D01*
X89528951Y-34717146D01*
G36*
X53138333Y-27695278D02*
G01*
X53314722Y-27871667D01*
X53491111Y-27695278D01*
X53314722Y-27518889D01*
X53138333Y-27695278D01*
G37*
X53138333Y-27695278D02*
X53314722Y-27871667D01*
X53491111Y-27695278D01*
X53314722Y-27518889D01*
X53138333Y-27695278D01*
G36*
X48905000Y-21698055D02*
G01*
X49081389Y-21874444D01*
X49257777Y-21698055D01*
X49081389Y-21521666D01*
X48905000Y-21698055D01*
G37*
X48905000Y-21698055D02*
X49081389Y-21874444D01*
X49257777Y-21698055D01*
X49081389Y-21521666D01*
X48905000Y-21698055D01*
G36*
X64427222Y-22403611D02*
G01*
X64603611Y-22580000D01*
X64780000Y-22403611D01*
X64603611Y-22227222D01*
X64427222Y-22403611D01*
G37*
X64427222Y-22403611D02*
X64603611Y-22580000D01*
X64780000Y-22403611D01*
X64603611Y-22227222D01*
X64427222Y-22403611D01*
G36*
X47141111Y-15348055D02*
G01*
X47317500Y-15524444D01*
X47493889Y-15348055D01*
X47317500Y-15171667D01*
X47141111Y-15348055D01*
G37*
X47141111Y-15348055D02*
X47317500Y-15524444D01*
X47493889Y-15348055D01*
X47317500Y-15171667D01*
X47141111Y-15348055D01*
G36*
X50370618Y-24133813D02*
G01*
X49991895Y-24489022D01*
X50069585Y-24693232D01*
X50118902Y-24696666D01*
X50417287Y-24446096D01*
X50526187Y-24289382D01*
X50567766Y-24047978D01*
X50370618Y-24133813D01*
G37*
X50370618Y-24133813D02*
X49991895Y-24489022D01*
X50069585Y-24693232D01*
X50118902Y-24696666D01*
X50417287Y-24446096D01*
X50526187Y-24289382D01*
X50567766Y-24047978D01*
X50370618Y-24133813D01*
D12*
X68036924Y11075544D02*
X68161924Y10859038D01*
X73233076Y14075544D02*
X68036924Y11075544D01*
X73233076Y14075544D02*
X73358076Y13859038D01*
X74983076Y11044456D02*
X74858076Y11260962D01*
X69786924Y8044456D02*
X69661924Y8260962D01*
X74983076Y11044456D02*
X69786924Y8044456D01*
X75790000Y-1670000D02*
X74290000Y-1670000D01*
X75790000Y-7070000D02*
X75790000Y-1670000D01*
X74290000Y-7070000D02*
X75790000Y-7070000D01*
X74290000Y-1670000D02*
X74290000Y-7070000D01*
X74540000Y-4870000D02*
X75540000Y-4870000D01*
X75540000Y-3870000D02*
X75040000Y-4770000D01*
X74540000Y-3870000D02*
X75540000Y-3870000D01*
X75040000Y-4770000D02*
X74540000Y-3870000D01*
X58950000Y-1810000D02*
X57450000Y-1810000D01*
X58950000Y-7210000D02*
X58950000Y-1810000D01*
X57450000Y-7210000D02*
X58950000Y-7210000D01*
X57450000Y-1810000D02*
X57450000Y-7210000D01*
X57700000Y-5010000D02*
X58700000Y-5010000D01*
X58700000Y-4010000D02*
X58200000Y-4910000D01*
X57700000Y-4010000D02*
X58700000Y-4010000D01*
X58200000Y-4910000D02*
X57700000Y-4010000D01*
X97230000Y-1610000D02*
X95730000Y-1610000D01*
X97230000Y-7010000D02*
X97230000Y-1610000D01*
X95730000Y-7010000D02*
X97230000Y-7010000D01*
X95730000Y-1610000D02*
X95730000Y-7010000D01*
X95980000Y-4810000D02*
X96980000Y-4810000D01*
X96980000Y-3810000D02*
X96480000Y-4710000D01*
X95980000Y-3810000D02*
X96980000Y-3810000D01*
X96480000Y-4710000D02*
X95980000Y-3810000D01*
X94650000Y-1700000D02*
X93150000Y-1700000D01*
X94650000Y-7100000D02*
X94650000Y-1700000D01*
X93150000Y-7100000D02*
X94650000Y-7100000D01*
X93150000Y-1700000D02*
X93150000Y-7100000D01*
X93400000Y-4900000D02*
X94400000Y-4900000D01*
X94400000Y-3900000D02*
X93900000Y-4800000D01*
X93400000Y-3900000D02*
X94400000Y-3900000D01*
X93900000Y-4800000D02*
X93400000Y-3900000D01*
X88850000Y-11370000D02*
X88850000Y-9870000D01*
X83450000Y-11370000D02*
X88850000Y-11370000D01*
X83450000Y-9870000D02*
X83450000Y-11370000D01*
X88850000Y-9870000D02*
X83450000Y-9870000D01*
X85650000Y-10120000D02*
X85650000Y-11120000D01*
X86650000Y-11120000D02*
X85750000Y-10620000D01*
X86650000Y-10120000D02*
X86650000Y-11120000D01*
X85750000Y-10620000D02*
X86650000Y-10120000D01*
X104340000Y-10620000D02*
X105240000Y-10120000D01*
X105240000Y-10120000D02*
X105240000Y-11120000D01*
X105240000Y-11120000D02*
X104340000Y-10620000D01*
X104240000Y-10120000D02*
X104240000Y-11120000D01*
X107440000Y-9870000D02*
X102040000Y-9870000D01*
X102040000Y-9870000D02*
X102040000Y-11370000D01*
X102040000Y-11370000D02*
X107440000Y-11370000D01*
X107440000Y-11370000D02*
X107440000Y-9870000D01*
X70910000Y-39680000D02*
X69410000Y-39680000D01*
X70910000Y-45080000D02*
X70910000Y-39680000D01*
X69410000Y-45080000D02*
X70910000Y-45080000D01*
X69410000Y-39680000D02*
X69410000Y-45080000D01*
X69660000Y-42880000D02*
X70660000Y-42880000D01*
X70660000Y-41880000D02*
X70160000Y-42780000D01*
X69660000Y-41880000D02*
X70660000Y-41880000D01*
X70160000Y-42780000D02*
X69660000Y-41880000D01*
X80470000Y-12030000D02*
X78970000Y-12030000D01*
X80470000Y-17430000D02*
X80470000Y-12030000D01*
X78970000Y-17430000D02*
X80470000Y-17430000D01*
X78970000Y-12030000D02*
X78970000Y-17430000D01*
X79220000Y-15230000D02*
X80220000Y-15230000D01*
X80220000Y-14230000D02*
X79720000Y-15130000D01*
X79220000Y-14230000D02*
X80220000Y-14230000D01*
X79720000Y-15130000D02*
X79220000Y-14230000D01*
X61560000Y-11880000D02*
X60060000Y-11880000D01*
X61560000Y-17280000D02*
X61560000Y-11880000D01*
X60060000Y-17280000D02*
X61560000Y-17280000D01*
X60060000Y-11880000D02*
X60060000Y-17280000D01*
X60310000Y-15080000D02*
X61310000Y-15080000D01*
X61310000Y-14080000D02*
X60810000Y-14980000D01*
X60310000Y-14080000D02*
X61310000Y-14080000D01*
X60810000Y-14980000D02*
X60310000Y-14080000D01*
X116921904Y-28640000D02*
X117017142Y-28592380D01*
X117160000Y-28592380D01*
X117302857Y-28640000D01*
X117398095Y-28735238D01*
X117445714Y-28830476D01*
X117493333Y-29020952D01*
X117493333Y-29163809D01*
X117445714Y-29354285D01*
X117398095Y-29449523D01*
X117302857Y-29544761D01*
X117160000Y-29592380D01*
X117064761Y-29592380D01*
X116921904Y-29544761D01*
X116874285Y-29497142D01*
X116874285Y-29163809D01*
X117064761Y-29163809D01*
X116445714Y-29592380D02*
X116445714Y-28592380D01*
X115874285Y-29592380D01*
X115874285Y-28592380D01*
X115398095Y-29592380D02*
X115398095Y-28592380D01*
X115160000Y-28592380D01*
X115017142Y-28640000D01*
X114921904Y-28735238D01*
X114874285Y-28830476D01*
X114826666Y-29020952D01*
X114826666Y-29163809D01*
X114874285Y-29354285D01*
X114921904Y-29449523D01*
X115017142Y-29544761D01*
X115160000Y-29592380D01*
X115398095Y-29592380D01*
X116732857Y-26892380D02*
X117209047Y-26892380D01*
X117209047Y-25892380D01*
X116399523Y-26368571D02*
X116066190Y-26368571D01*
X115923333Y-26892380D02*
X116399523Y-26892380D01*
X116399523Y-25892380D01*
X115923333Y-25892380D01*
X115494761Y-26892380D02*
X115494761Y-25892380D01*
X115256666Y-25892380D01*
X115113809Y-25940000D01*
X115018571Y-26035238D01*
X114970952Y-26130476D01*
X114923333Y-26320952D01*
X114923333Y-26463809D01*
X114970952Y-26654285D01*
X115018571Y-26749523D01*
X115113809Y-26844761D01*
X115256666Y-26892380D01*
X115494761Y-26892380D01*
X117353333Y-23392380D02*
X117020000Y-24392380D01*
X116686666Y-23392380D01*
X115781904Y-24297142D02*
X115829523Y-24344761D01*
X115972380Y-24392380D01*
X116067619Y-24392380D01*
X116210476Y-24344761D01*
X116305714Y-24249523D01*
X116353333Y-24154285D01*
X116400952Y-23963809D01*
X116400952Y-23820952D01*
X116353333Y-23630476D01*
X116305714Y-23535238D01*
X116210476Y-23440000D01*
X116067619Y-23392380D01*
X115972380Y-23392380D01*
X115829523Y-23440000D01*
X115781904Y-23487619D01*
X114781904Y-24297142D02*
X114829523Y-24344761D01*
X114972380Y-24392380D01*
X115067619Y-24392380D01*
X115210476Y-24344761D01*
X115305714Y-24249523D01*
X115353333Y-24154285D01*
X115400952Y-23963809D01*
X115400952Y-23820952D01*
X115353333Y-23630476D01*
X115305714Y-23535238D01*
X115210476Y-23440000D01*
X115067619Y-23392380D01*
X114972380Y-23392380D01*
X114829523Y-23440000D01*
X114781904Y-23487619D01*
X107700785Y-52334761D02*
X107605547Y-52382380D01*
X107415071Y-52382380D01*
X107319833Y-52334761D01*
X107272214Y-52239523D01*
X107272214Y-52191904D01*
X107319833Y-52096666D01*
X107415071Y-52049047D01*
X107557928Y-52049047D01*
X107653166Y-52001428D01*
X107700785Y-51906190D01*
X107700785Y-51858571D01*
X107653166Y-51763333D01*
X107557928Y-51715714D01*
X107415071Y-51715714D01*
X107319833Y-51763333D01*
X106700785Y-52382380D02*
X106796023Y-52334761D01*
X106843642Y-52287142D01*
X106891261Y-52191904D01*
X106891261Y-51906190D01*
X106843642Y-51810952D01*
X106796023Y-51763333D01*
X106700785Y-51715714D01*
X106557928Y-51715714D01*
X106462690Y-51763333D01*
X106415071Y-51810952D01*
X106367452Y-51906190D01*
X106367452Y-52191904D01*
X106415071Y-52287142D01*
X106462690Y-52334761D01*
X106557928Y-52382380D01*
X106700785Y-52382380D01*
X105510309Y-52334761D02*
X105605547Y-52382380D01*
X105796023Y-52382380D01*
X105891261Y-52334761D01*
X105938880Y-52287142D01*
X105986500Y-52191904D01*
X105986500Y-51906190D01*
X105938880Y-51810952D01*
X105891261Y-51763333D01*
X105796023Y-51715714D01*
X105605547Y-51715714D01*
X105510309Y-51763333D01*
X105081738Y-52382380D02*
X105081738Y-51382380D01*
X104986500Y-52001428D02*
X104700785Y-52382380D01*
X104700785Y-51715714D02*
X105081738Y-52096666D01*
X103891261Y-52334761D02*
X103986500Y-52382380D01*
X104176976Y-52382380D01*
X104272214Y-52334761D01*
X104319833Y-52239523D01*
X104319833Y-51858571D01*
X104272214Y-51763333D01*
X104176976Y-51715714D01*
X103986500Y-51715714D01*
X103891261Y-51763333D01*
X103843642Y-51858571D01*
X103843642Y-51953809D01*
X104319833Y-52049047D01*
X103557928Y-51715714D02*
X103176976Y-51715714D01*
X103415071Y-51382380D02*
X103415071Y-52239523D01*
X103367452Y-52334761D01*
X103272214Y-52382380D01*
X103176976Y-52382380D01*
X36263285Y-33284761D02*
X36168047Y-33332380D01*
X35977571Y-33332380D01*
X35882333Y-33284761D01*
X35834714Y-33189523D01*
X35834714Y-33141904D01*
X35882333Y-33046666D01*
X35977571Y-32999047D01*
X36120428Y-32999047D01*
X36215666Y-32951428D01*
X36263285Y-32856190D01*
X36263285Y-32808571D01*
X36215666Y-32713333D01*
X36120428Y-32665714D01*
X35977571Y-32665714D01*
X35882333Y-32713333D01*
X35263285Y-33332380D02*
X35358523Y-33284761D01*
X35406142Y-33237142D01*
X35453761Y-33141904D01*
X35453761Y-32856190D01*
X35406142Y-32760952D01*
X35358523Y-32713333D01*
X35263285Y-32665714D01*
X35120428Y-32665714D01*
X35025190Y-32713333D01*
X34977571Y-32760952D01*
X34929952Y-32856190D01*
X34929952Y-33141904D01*
X34977571Y-33237142D01*
X35025190Y-33284761D01*
X35120428Y-33332380D01*
X35263285Y-33332380D01*
X34072809Y-33284761D02*
X34168047Y-33332380D01*
X34358523Y-33332380D01*
X34453761Y-33284761D01*
X34501380Y-33237142D01*
X34549000Y-33141904D01*
X34549000Y-32856190D01*
X34501380Y-32760952D01*
X34453761Y-32713333D01*
X34358523Y-32665714D01*
X34168047Y-32665714D01*
X34072809Y-32713333D01*
X33644238Y-33332380D02*
X33644238Y-32332380D01*
X33549000Y-32951428D02*
X33263285Y-33332380D01*
X33263285Y-32665714D02*
X33644238Y-33046666D01*
X32453761Y-33284761D02*
X32549000Y-33332380D01*
X32739476Y-33332380D01*
X32834714Y-33284761D01*
X32882333Y-33189523D01*
X32882333Y-32808571D01*
X32834714Y-32713333D01*
X32739476Y-32665714D01*
X32549000Y-32665714D01*
X32453761Y-32713333D01*
X32406142Y-32808571D01*
X32406142Y-32903809D01*
X32882333Y-32999047D01*
X32120428Y-32665714D02*
X31739476Y-32665714D01*
X31977571Y-32332380D02*
X31977571Y-33189523D01*
X31929952Y-33284761D01*
X31834714Y-33332380D01*
X31739476Y-33332380D01*
X31500285Y-14234761D02*
X31405047Y-14282380D01*
X31214571Y-14282380D01*
X31119333Y-14234761D01*
X31071714Y-14139523D01*
X31071714Y-14091904D01*
X31119333Y-13996666D01*
X31214571Y-13949047D01*
X31357428Y-13949047D01*
X31452666Y-13901428D01*
X31500285Y-13806190D01*
X31500285Y-13758571D01*
X31452666Y-13663333D01*
X31357428Y-13615714D01*
X31214571Y-13615714D01*
X31119333Y-13663333D01*
X30500285Y-14282380D02*
X30595523Y-14234761D01*
X30643142Y-14187142D01*
X30690761Y-14091904D01*
X30690761Y-13806190D01*
X30643142Y-13710952D01*
X30595523Y-13663333D01*
X30500285Y-13615714D01*
X30357428Y-13615714D01*
X30262190Y-13663333D01*
X30214571Y-13710952D01*
X30166952Y-13806190D01*
X30166952Y-14091904D01*
X30214571Y-14187142D01*
X30262190Y-14234761D01*
X30357428Y-14282380D01*
X30500285Y-14282380D01*
X29309809Y-14234761D02*
X29405047Y-14282380D01*
X29595523Y-14282380D01*
X29690761Y-14234761D01*
X29738380Y-14187142D01*
X29786000Y-14091904D01*
X29786000Y-13806190D01*
X29738380Y-13710952D01*
X29690761Y-13663333D01*
X29595523Y-13615714D01*
X29405047Y-13615714D01*
X29309809Y-13663333D01*
X28881238Y-14282380D02*
X28881238Y-13282380D01*
X28786000Y-13901428D02*
X28500285Y-14282380D01*
X28500285Y-13615714D02*
X28881238Y-13996666D01*
X27690761Y-14234761D02*
X27786000Y-14282380D01*
X27976476Y-14282380D01*
X28071714Y-14234761D01*
X28119333Y-14139523D01*
X28119333Y-13758571D01*
X28071714Y-13663333D01*
X27976476Y-13615714D01*
X27786000Y-13615714D01*
X27690761Y-13663333D01*
X27643142Y-13758571D01*
X27643142Y-13853809D01*
X28119333Y-13949047D01*
X27357428Y-13615714D02*
X26976476Y-13615714D01*
X27214571Y-13282380D02*
X27214571Y-14139523D01*
X27166952Y-14234761D01*
X27071714Y-14282380D01*
X26976476Y-14282380D01*
X81506785Y-52334761D02*
X81411547Y-52382380D01*
X81221071Y-52382380D01*
X81125833Y-52334761D01*
X81078214Y-52239523D01*
X81078214Y-52191904D01*
X81125833Y-52096666D01*
X81221071Y-52049047D01*
X81363928Y-52049047D01*
X81459166Y-52001428D01*
X81506785Y-51906190D01*
X81506785Y-51858571D01*
X81459166Y-51763333D01*
X81363928Y-51715714D01*
X81221071Y-51715714D01*
X81125833Y-51763333D01*
X80506785Y-52382380D02*
X80602023Y-52334761D01*
X80649642Y-52287142D01*
X80697261Y-52191904D01*
X80697261Y-51906190D01*
X80649642Y-51810952D01*
X80602023Y-51763333D01*
X80506785Y-51715714D01*
X80363928Y-51715714D01*
X80268690Y-51763333D01*
X80221071Y-51810952D01*
X80173452Y-51906190D01*
X80173452Y-52191904D01*
X80221071Y-52287142D01*
X80268690Y-52334761D01*
X80363928Y-52382380D01*
X80506785Y-52382380D01*
X79316309Y-52334761D02*
X79411547Y-52382380D01*
X79602023Y-52382380D01*
X79697261Y-52334761D01*
X79744880Y-52287142D01*
X79792500Y-52191904D01*
X79792500Y-51906190D01*
X79744880Y-51810952D01*
X79697261Y-51763333D01*
X79602023Y-51715714D01*
X79411547Y-51715714D01*
X79316309Y-51763333D01*
X78887738Y-52382380D02*
X78887738Y-51382380D01*
X78792500Y-52001428D02*
X78506785Y-52382380D01*
X78506785Y-51715714D02*
X78887738Y-52096666D01*
X77697261Y-52334761D02*
X77792500Y-52382380D01*
X77982976Y-52382380D01*
X78078214Y-52334761D01*
X78125833Y-52239523D01*
X78125833Y-51858571D01*
X78078214Y-51763333D01*
X77982976Y-51715714D01*
X77792500Y-51715714D01*
X77697261Y-51763333D01*
X77649642Y-51858571D01*
X77649642Y-51953809D01*
X78125833Y-52049047D01*
X77363928Y-51715714D02*
X76982976Y-51715714D01*
X77221071Y-51382380D02*
X77221071Y-52239523D01*
X77173452Y-52334761D01*
X77078214Y-52382380D01*
X76982976Y-52382380D01*
X62456785Y-52334761D02*
X62361547Y-52382380D01*
X62171071Y-52382380D01*
X62075833Y-52334761D01*
X62028214Y-52239523D01*
X62028214Y-52191904D01*
X62075833Y-52096666D01*
X62171071Y-52049047D01*
X62313928Y-52049047D01*
X62409166Y-52001428D01*
X62456785Y-51906190D01*
X62456785Y-51858571D01*
X62409166Y-51763333D01*
X62313928Y-51715714D01*
X62171071Y-51715714D01*
X62075833Y-51763333D01*
X61456785Y-52382380D02*
X61552023Y-52334761D01*
X61599642Y-52287142D01*
X61647261Y-52191904D01*
X61647261Y-51906190D01*
X61599642Y-51810952D01*
X61552023Y-51763333D01*
X61456785Y-51715714D01*
X61313928Y-51715714D01*
X61218690Y-51763333D01*
X61171071Y-51810952D01*
X61123452Y-51906190D01*
X61123452Y-52191904D01*
X61171071Y-52287142D01*
X61218690Y-52334761D01*
X61313928Y-52382380D01*
X61456785Y-52382380D01*
X60266309Y-52334761D02*
X60361547Y-52382380D01*
X60552023Y-52382380D01*
X60647261Y-52334761D01*
X60694880Y-52287142D01*
X60742500Y-52191904D01*
X60742500Y-51906190D01*
X60694880Y-51810952D01*
X60647261Y-51763333D01*
X60552023Y-51715714D01*
X60361547Y-51715714D01*
X60266309Y-51763333D01*
X59837738Y-52382380D02*
X59837738Y-51382380D01*
X59742500Y-52001428D02*
X59456785Y-52382380D01*
X59456785Y-51715714D02*
X59837738Y-52096666D01*
X58647261Y-52334761D02*
X58742500Y-52382380D01*
X58932976Y-52382380D01*
X59028214Y-52334761D01*
X59075833Y-52239523D01*
X59075833Y-51858571D01*
X59028214Y-51763333D01*
X58932976Y-51715714D01*
X58742500Y-51715714D01*
X58647261Y-51763333D01*
X58599642Y-51858571D01*
X58599642Y-51953809D01*
X59075833Y-52049047D01*
X58313928Y-51715714D02*
X57932976Y-51715714D01*
X58171071Y-51382380D02*
X58171071Y-52239523D01*
X58123452Y-52334761D01*
X58028214Y-52382380D01*
X57932976Y-52382380D01*
X43406785Y-52334761D02*
X43311547Y-52382380D01*
X43121071Y-52382380D01*
X43025833Y-52334761D01*
X42978214Y-52239523D01*
X42978214Y-52191904D01*
X43025833Y-52096666D01*
X43121071Y-52049047D01*
X43263928Y-52049047D01*
X43359166Y-52001428D01*
X43406785Y-51906190D01*
X43406785Y-51858571D01*
X43359166Y-51763333D01*
X43263928Y-51715714D01*
X43121071Y-51715714D01*
X43025833Y-51763333D01*
X42406785Y-52382380D02*
X42502023Y-52334761D01*
X42549642Y-52287142D01*
X42597261Y-52191904D01*
X42597261Y-51906190D01*
X42549642Y-51810952D01*
X42502023Y-51763333D01*
X42406785Y-51715714D01*
X42263928Y-51715714D01*
X42168690Y-51763333D01*
X42121071Y-51810952D01*
X42073452Y-51906190D01*
X42073452Y-52191904D01*
X42121071Y-52287142D01*
X42168690Y-52334761D01*
X42263928Y-52382380D01*
X42406785Y-52382380D01*
X41216309Y-52334761D02*
X41311547Y-52382380D01*
X41502023Y-52382380D01*
X41597261Y-52334761D01*
X41644880Y-52287142D01*
X41692500Y-52191904D01*
X41692500Y-51906190D01*
X41644880Y-51810952D01*
X41597261Y-51763333D01*
X41502023Y-51715714D01*
X41311547Y-51715714D01*
X41216309Y-51763333D01*
X40787738Y-52382380D02*
X40787738Y-51382380D01*
X40692500Y-52001428D02*
X40406785Y-52382380D01*
X40406785Y-51715714D02*
X40787738Y-52096666D01*
X39597261Y-52334761D02*
X39692500Y-52382380D01*
X39882976Y-52382380D01*
X39978214Y-52334761D01*
X40025833Y-52239523D01*
X40025833Y-51858571D01*
X39978214Y-51763333D01*
X39882976Y-51715714D01*
X39692500Y-51715714D01*
X39597261Y-51763333D01*
X39549642Y-51858571D01*
X39549642Y-51953809D01*
X40025833Y-52049047D01*
X39263928Y-51715714D02*
X38882976Y-51715714D01*
X39121071Y-51382380D02*
X39121071Y-52239523D01*
X39073452Y-52334761D01*
X38978214Y-52382380D01*
X38882976Y-52382380D01*
X119606785Y-33284761D02*
X119511547Y-33332380D01*
X119321071Y-33332380D01*
X119225833Y-33284761D01*
X119178214Y-33189523D01*
X119178214Y-33141904D01*
X119225833Y-33046666D01*
X119321071Y-32999047D01*
X119463928Y-32999047D01*
X119559166Y-32951428D01*
X119606785Y-32856190D01*
X119606785Y-32808571D01*
X119559166Y-32713333D01*
X119463928Y-32665714D01*
X119321071Y-32665714D01*
X119225833Y-32713333D01*
X118606785Y-33332380D02*
X118702023Y-33284761D01*
X118749642Y-33237142D01*
X118797261Y-33141904D01*
X118797261Y-32856190D01*
X118749642Y-32760952D01*
X118702023Y-32713333D01*
X118606785Y-32665714D01*
X118463928Y-32665714D01*
X118368690Y-32713333D01*
X118321071Y-32760952D01*
X118273452Y-32856190D01*
X118273452Y-33141904D01*
X118321071Y-33237142D01*
X118368690Y-33284761D01*
X118463928Y-33332380D01*
X118606785Y-33332380D01*
X117416309Y-33284761D02*
X117511547Y-33332380D01*
X117702023Y-33332380D01*
X117797261Y-33284761D01*
X117844880Y-33237142D01*
X117892500Y-33141904D01*
X117892500Y-32856190D01*
X117844880Y-32760952D01*
X117797261Y-32713333D01*
X117702023Y-32665714D01*
X117511547Y-32665714D01*
X117416309Y-32713333D01*
X116987738Y-33332380D02*
X116987738Y-32332380D01*
X116892500Y-32951428D02*
X116606785Y-33332380D01*
X116606785Y-32665714D02*
X116987738Y-33046666D01*
X115797261Y-33284761D02*
X115892500Y-33332380D01*
X116082976Y-33332380D01*
X116178214Y-33284761D01*
X116225833Y-33189523D01*
X116225833Y-32808571D01*
X116178214Y-32713333D01*
X116082976Y-32665714D01*
X115892500Y-32665714D01*
X115797261Y-32713333D01*
X115749642Y-32808571D01*
X115749642Y-32903809D01*
X116225833Y-32999047D01*
X115463928Y-32665714D02*
X115082976Y-32665714D01*
X115321071Y-32332380D02*
X115321071Y-33189523D01*
X115273452Y-33284761D01*
X115178214Y-33332380D01*
X115082976Y-33332380D01*
X100556785Y-33284761D02*
X100461547Y-33332380D01*
X100271071Y-33332380D01*
X100175833Y-33284761D01*
X100128214Y-33189523D01*
X100128214Y-33141904D01*
X100175833Y-33046666D01*
X100271071Y-32999047D01*
X100413928Y-32999047D01*
X100509166Y-32951428D01*
X100556785Y-32856190D01*
X100556785Y-32808571D01*
X100509166Y-32713333D01*
X100413928Y-32665714D01*
X100271071Y-32665714D01*
X100175833Y-32713333D01*
X99556785Y-33332380D02*
X99652023Y-33284761D01*
X99699642Y-33237142D01*
X99747261Y-33141904D01*
X99747261Y-32856190D01*
X99699642Y-32760952D01*
X99652023Y-32713333D01*
X99556785Y-32665714D01*
X99413928Y-32665714D01*
X99318690Y-32713333D01*
X99271071Y-32760952D01*
X99223452Y-32856190D01*
X99223452Y-33141904D01*
X99271071Y-33237142D01*
X99318690Y-33284761D01*
X99413928Y-33332380D01*
X99556785Y-33332380D01*
X98366309Y-33284761D02*
X98461547Y-33332380D01*
X98652023Y-33332380D01*
X98747261Y-33284761D01*
X98794880Y-33237142D01*
X98842500Y-33141904D01*
X98842500Y-32856190D01*
X98794880Y-32760952D01*
X98747261Y-32713333D01*
X98652023Y-32665714D01*
X98461547Y-32665714D01*
X98366309Y-32713333D01*
X97937738Y-33332380D02*
X97937738Y-32332380D01*
X97842500Y-32951428D02*
X97556785Y-33332380D01*
X97556785Y-32665714D02*
X97937738Y-33046666D01*
X96747261Y-33284761D02*
X96842500Y-33332380D01*
X97032976Y-33332380D01*
X97128214Y-33284761D01*
X97175833Y-33189523D01*
X97175833Y-32808571D01*
X97128214Y-32713333D01*
X97032976Y-32665714D01*
X96842500Y-32665714D01*
X96747261Y-32713333D01*
X96699642Y-32808571D01*
X96699642Y-32903809D01*
X97175833Y-32999047D01*
X96413928Y-32665714D02*
X96032976Y-32665714D01*
X96271071Y-32332380D02*
X96271071Y-33189523D01*
X96223452Y-33284761D01*
X96128214Y-33332380D01*
X96032976Y-33332380D01*
X81506785Y-33284761D02*
X81411547Y-33332380D01*
X81221071Y-33332380D01*
X81125833Y-33284761D01*
X81078214Y-33189523D01*
X81078214Y-33141904D01*
X81125833Y-33046666D01*
X81221071Y-32999047D01*
X81363928Y-32999047D01*
X81459166Y-32951428D01*
X81506785Y-32856190D01*
X81506785Y-32808571D01*
X81459166Y-32713333D01*
X81363928Y-32665714D01*
X81221071Y-32665714D01*
X81125833Y-32713333D01*
X80506785Y-33332380D02*
X80602023Y-33284761D01*
X80649642Y-33237142D01*
X80697261Y-33141904D01*
X80697261Y-32856190D01*
X80649642Y-32760952D01*
X80602023Y-32713333D01*
X80506785Y-32665714D01*
X80363928Y-32665714D01*
X80268690Y-32713333D01*
X80221071Y-32760952D01*
X80173452Y-32856190D01*
X80173452Y-33141904D01*
X80221071Y-33237142D01*
X80268690Y-33284761D01*
X80363928Y-33332380D01*
X80506785Y-33332380D01*
X79316309Y-33284761D02*
X79411547Y-33332380D01*
X79602023Y-33332380D01*
X79697261Y-33284761D01*
X79744880Y-33237142D01*
X79792500Y-33141904D01*
X79792500Y-32856190D01*
X79744880Y-32760952D01*
X79697261Y-32713333D01*
X79602023Y-32665714D01*
X79411547Y-32665714D01*
X79316309Y-32713333D01*
X78887738Y-33332380D02*
X78887738Y-32332380D01*
X78792500Y-32951428D02*
X78506785Y-33332380D01*
X78506785Y-32665714D02*
X78887738Y-33046666D01*
X77697261Y-33284761D02*
X77792500Y-33332380D01*
X77982976Y-33332380D01*
X78078214Y-33284761D01*
X78125833Y-33189523D01*
X78125833Y-32808571D01*
X78078214Y-32713333D01*
X77982976Y-32665714D01*
X77792500Y-32665714D01*
X77697261Y-32713333D01*
X77649642Y-32808571D01*
X77649642Y-32903809D01*
X78125833Y-32999047D01*
X77363928Y-32665714D02*
X76982976Y-32665714D01*
X77221071Y-32332380D02*
X77221071Y-33189523D01*
X77173452Y-33284761D01*
X77078214Y-33332380D01*
X76982976Y-33332380D01*
X62456785Y-33284761D02*
X62361547Y-33332380D01*
X62171071Y-33332380D01*
X62075833Y-33284761D01*
X62028214Y-33189523D01*
X62028214Y-33141904D01*
X62075833Y-33046666D01*
X62171071Y-32999047D01*
X62313928Y-32999047D01*
X62409166Y-32951428D01*
X62456785Y-32856190D01*
X62456785Y-32808571D01*
X62409166Y-32713333D01*
X62313928Y-32665714D01*
X62171071Y-32665714D01*
X62075833Y-32713333D01*
X61456785Y-33332380D02*
X61552023Y-33284761D01*
X61599642Y-33237142D01*
X61647261Y-33141904D01*
X61647261Y-32856190D01*
X61599642Y-32760952D01*
X61552023Y-32713333D01*
X61456785Y-32665714D01*
X61313928Y-32665714D01*
X61218690Y-32713333D01*
X61171071Y-32760952D01*
X61123452Y-32856190D01*
X61123452Y-33141904D01*
X61171071Y-33237142D01*
X61218690Y-33284761D01*
X61313928Y-33332380D01*
X61456785Y-33332380D01*
X60266309Y-33284761D02*
X60361547Y-33332380D01*
X60552023Y-33332380D01*
X60647261Y-33284761D01*
X60694880Y-33237142D01*
X60742500Y-33141904D01*
X60742500Y-32856190D01*
X60694880Y-32760952D01*
X60647261Y-32713333D01*
X60552023Y-32665714D01*
X60361547Y-32665714D01*
X60266309Y-32713333D01*
X59837738Y-33332380D02*
X59837738Y-32332380D01*
X59742500Y-32951428D02*
X59456785Y-33332380D01*
X59456785Y-32665714D02*
X59837738Y-33046666D01*
X58647261Y-33284761D02*
X58742500Y-33332380D01*
X58932976Y-33332380D01*
X59028214Y-33284761D01*
X59075833Y-33189523D01*
X59075833Y-32808571D01*
X59028214Y-32713333D01*
X58932976Y-32665714D01*
X58742500Y-32665714D01*
X58647261Y-32713333D01*
X58599642Y-32808571D01*
X58599642Y-32903809D01*
X59075833Y-32999047D01*
X58313928Y-32665714D02*
X57932976Y-32665714D01*
X58171071Y-32332380D02*
X58171071Y-33189523D01*
X58123452Y-33284761D01*
X58028214Y-33332380D01*
X57932976Y-33332380D01*
X110081785Y-14234761D02*
X109986547Y-14282380D01*
X109796071Y-14282380D01*
X109700833Y-14234761D01*
X109653214Y-14139523D01*
X109653214Y-14091904D01*
X109700833Y-13996666D01*
X109796071Y-13949047D01*
X109938928Y-13949047D01*
X110034166Y-13901428D01*
X110081785Y-13806190D01*
X110081785Y-13758571D01*
X110034166Y-13663333D01*
X109938928Y-13615714D01*
X109796071Y-13615714D01*
X109700833Y-13663333D01*
X109081785Y-14282380D02*
X109177023Y-14234761D01*
X109224642Y-14187142D01*
X109272261Y-14091904D01*
X109272261Y-13806190D01*
X109224642Y-13710952D01*
X109177023Y-13663333D01*
X109081785Y-13615714D01*
X108938928Y-13615714D01*
X108843690Y-13663333D01*
X108796071Y-13710952D01*
X108748452Y-13806190D01*
X108748452Y-14091904D01*
X108796071Y-14187142D01*
X108843690Y-14234761D01*
X108938928Y-14282380D01*
X109081785Y-14282380D01*
X107891309Y-14234761D02*
X107986547Y-14282380D01*
X108177023Y-14282380D01*
X108272261Y-14234761D01*
X108319880Y-14187142D01*
X108367500Y-14091904D01*
X108367500Y-13806190D01*
X108319880Y-13710952D01*
X108272261Y-13663333D01*
X108177023Y-13615714D01*
X107986547Y-13615714D01*
X107891309Y-13663333D01*
X107462738Y-14282380D02*
X107462738Y-13282380D01*
X107367500Y-13901428D02*
X107081785Y-14282380D01*
X107081785Y-13615714D02*
X107462738Y-13996666D01*
X106272261Y-14234761D02*
X106367500Y-14282380D01*
X106557976Y-14282380D01*
X106653214Y-14234761D01*
X106700833Y-14139523D01*
X106700833Y-13758571D01*
X106653214Y-13663333D01*
X106557976Y-13615714D01*
X106367500Y-13615714D01*
X106272261Y-13663333D01*
X106224642Y-13758571D01*
X106224642Y-13853809D01*
X106700833Y-13949047D01*
X105938928Y-13615714D02*
X105557976Y-13615714D01*
X105796071Y-13282380D02*
X105796071Y-14139523D01*
X105748452Y-14234761D01*
X105653214Y-14282380D01*
X105557976Y-14282380D01*
X91031785Y-14234761D02*
X90936547Y-14282380D01*
X90746071Y-14282380D01*
X90650833Y-14234761D01*
X90603214Y-14139523D01*
X90603214Y-14091904D01*
X90650833Y-13996666D01*
X90746071Y-13949047D01*
X90888928Y-13949047D01*
X90984166Y-13901428D01*
X91031785Y-13806190D01*
X91031785Y-13758571D01*
X90984166Y-13663333D01*
X90888928Y-13615714D01*
X90746071Y-13615714D01*
X90650833Y-13663333D01*
X90031785Y-14282380D02*
X90127023Y-14234761D01*
X90174642Y-14187142D01*
X90222261Y-14091904D01*
X90222261Y-13806190D01*
X90174642Y-13710952D01*
X90127023Y-13663333D01*
X90031785Y-13615714D01*
X89888928Y-13615714D01*
X89793690Y-13663333D01*
X89746071Y-13710952D01*
X89698452Y-13806190D01*
X89698452Y-14091904D01*
X89746071Y-14187142D01*
X89793690Y-14234761D01*
X89888928Y-14282380D01*
X90031785Y-14282380D01*
X88841309Y-14234761D02*
X88936547Y-14282380D01*
X89127023Y-14282380D01*
X89222261Y-14234761D01*
X89269880Y-14187142D01*
X89317500Y-14091904D01*
X89317500Y-13806190D01*
X89269880Y-13710952D01*
X89222261Y-13663333D01*
X89127023Y-13615714D01*
X88936547Y-13615714D01*
X88841309Y-13663333D01*
X88412738Y-14282380D02*
X88412738Y-13282380D01*
X88317500Y-13901428D02*
X88031785Y-14282380D01*
X88031785Y-13615714D02*
X88412738Y-13996666D01*
X87222261Y-14234761D02*
X87317500Y-14282380D01*
X87507976Y-14282380D01*
X87603214Y-14234761D01*
X87650833Y-14139523D01*
X87650833Y-13758571D01*
X87603214Y-13663333D01*
X87507976Y-13615714D01*
X87317500Y-13615714D01*
X87222261Y-13663333D01*
X87174642Y-13758571D01*
X87174642Y-13853809D01*
X87650833Y-13949047D01*
X86888928Y-13615714D02*
X86507976Y-13615714D01*
X86746071Y-13282380D02*
X86746071Y-14139523D01*
X86698452Y-14234761D01*
X86603214Y-14282380D01*
X86507976Y-14282380D01*
X71981785Y-14234761D02*
X71886547Y-14282380D01*
X71696071Y-14282380D01*
X71600833Y-14234761D01*
X71553214Y-14139523D01*
X71553214Y-14091904D01*
X71600833Y-13996666D01*
X71696071Y-13949047D01*
X71838928Y-13949047D01*
X71934166Y-13901428D01*
X71981785Y-13806190D01*
X71981785Y-13758571D01*
X71934166Y-13663333D01*
X71838928Y-13615714D01*
X71696071Y-13615714D01*
X71600833Y-13663333D01*
X70981785Y-14282380D02*
X71077023Y-14234761D01*
X71124642Y-14187142D01*
X71172261Y-14091904D01*
X71172261Y-13806190D01*
X71124642Y-13710952D01*
X71077023Y-13663333D01*
X70981785Y-13615714D01*
X70838928Y-13615714D01*
X70743690Y-13663333D01*
X70696071Y-13710952D01*
X70648452Y-13806190D01*
X70648452Y-14091904D01*
X70696071Y-14187142D01*
X70743690Y-14234761D01*
X70838928Y-14282380D01*
X70981785Y-14282380D01*
X69791309Y-14234761D02*
X69886547Y-14282380D01*
X70077023Y-14282380D01*
X70172261Y-14234761D01*
X70219880Y-14187142D01*
X70267500Y-14091904D01*
X70267500Y-13806190D01*
X70219880Y-13710952D01*
X70172261Y-13663333D01*
X70077023Y-13615714D01*
X69886547Y-13615714D01*
X69791309Y-13663333D01*
X69362738Y-14282380D02*
X69362738Y-13282380D01*
X69267500Y-13901428D02*
X68981785Y-14282380D01*
X68981785Y-13615714D02*
X69362738Y-13996666D01*
X68172261Y-14234761D02*
X68267500Y-14282380D01*
X68457976Y-14282380D01*
X68553214Y-14234761D01*
X68600833Y-14139523D01*
X68600833Y-13758571D01*
X68553214Y-13663333D01*
X68457976Y-13615714D01*
X68267500Y-13615714D01*
X68172261Y-13663333D01*
X68124642Y-13758571D01*
X68124642Y-13853809D01*
X68600833Y-13949047D01*
X67838928Y-13615714D02*
X67457976Y-13615714D01*
X67696071Y-13282380D02*
X67696071Y-14139523D01*
X67648452Y-14234761D01*
X67553214Y-14282380D01*
X67457976Y-14282380D01*
X52931785Y-14234761D02*
X52836547Y-14282380D01*
X52646071Y-14282380D01*
X52550833Y-14234761D01*
X52503214Y-14139523D01*
X52503214Y-14091904D01*
X52550833Y-13996666D01*
X52646071Y-13949047D01*
X52788928Y-13949047D01*
X52884166Y-13901428D01*
X52931785Y-13806190D01*
X52931785Y-13758571D01*
X52884166Y-13663333D01*
X52788928Y-13615714D01*
X52646071Y-13615714D01*
X52550833Y-13663333D01*
X51931785Y-14282380D02*
X52027023Y-14234761D01*
X52074642Y-14187142D01*
X52122261Y-14091904D01*
X52122261Y-13806190D01*
X52074642Y-13710952D01*
X52027023Y-13663333D01*
X51931785Y-13615714D01*
X51788928Y-13615714D01*
X51693690Y-13663333D01*
X51646071Y-13710952D01*
X51598452Y-13806190D01*
X51598452Y-14091904D01*
X51646071Y-14187142D01*
X51693690Y-14234761D01*
X51788928Y-14282380D01*
X51931785Y-14282380D01*
X50741309Y-14234761D02*
X50836547Y-14282380D01*
X51027023Y-14282380D01*
X51122261Y-14234761D01*
X51169880Y-14187142D01*
X51217500Y-14091904D01*
X51217500Y-13806190D01*
X51169880Y-13710952D01*
X51122261Y-13663333D01*
X51027023Y-13615714D01*
X50836547Y-13615714D01*
X50741309Y-13663333D01*
X50312738Y-14282380D02*
X50312738Y-13282380D01*
X50217500Y-13901428D02*
X49931785Y-14282380D01*
X49931785Y-13615714D02*
X50312738Y-13996666D01*
X49122261Y-14234761D02*
X49217500Y-14282380D01*
X49407976Y-14282380D01*
X49503214Y-14234761D01*
X49550833Y-14139523D01*
X49550833Y-13758571D01*
X49503214Y-13663333D01*
X49407976Y-13615714D01*
X49217500Y-13615714D01*
X49122261Y-13663333D01*
X49074642Y-13758571D01*
X49074642Y-13853809D01*
X49550833Y-13949047D01*
X48788928Y-13615714D02*
X48407976Y-13615714D01*
X48646071Y-13282380D02*
X48646071Y-14139523D01*
X48598452Y-14234761D01*
X48503214Y-14282380D01*
X48407976Y-14282380D01*
X105319285Y4815238D02*
X105224047Y4767619D01*
X105033571Y4767619D01*
X104938333Y4815238D01*
X104890714Y4910476D01*
X104890714Y4958095D01*
X104938333Y5053333D01*
X105033571Y5100952D01*
X105176428Y5100952D01*
X105271666Y5148571D01*
X105319285Y5243809D01*
X105319285Y5291428D01*
X105271666Y5386666D01*
X105176428Y5434285D01*
X105033571Y5434285D01*
X104938333Y5386666D01*
X104319285Y4767619D02*
X104414523Y4815238D01*
X104462142Y4862857D01*
X104509761Y4958095D01*
X104509761Y5243809D01*
X104462142Y5339047D01*
X104414523Y5386666D01*
X104319285Y5434285D01*
X104176428Y5434285D01*
X104081190Y5386666D01*
X104033571Y5339047D01*
X103985952Y5243809D01*
X103985952Y4958095D01*
X104033571Y4862857D01*
X104081190Y4815238D01*
X104176428Y4767619D01*
X104319285Y4767619D01*
X103128809Y4815238D02*
X103224047Y4767619D01*
X103414523Y4767619D01*
X103509761Y4815238D01*
X103557380Y4862857D01*
X103605000Y4958095D01*
X103605000Y5243809D01*
X103557380Y5339047D01*
X103509761Y5386666D01*
X103414523Y5434285D01*
X103224047Y5434285D01*
X103128809Y5386666D01*
X102700238Y4767619D02*
X102700238Y5767619D01*
X102605000Y5148571D02*
X102319285Y4767619D01*
X102319285Y5434285D02*
X102700238Y5053333D01*
X101509761Y4815238D02*
X101605000Y4767619D01*
X101795476Y4767619D01*
X101890714Y4815238D01*
X101938333Y4910476D01*
X101938333Y5291428D01*
X101890714Y5386666D01*
X101795476Y5434285D01*
X101605000Y5434285D01*
X101509761Y5386666D01*
X101462142Y5291428D01*
X101462142Y5196190D01*
X101938333Y5100952D01*
X101176428Y5434285D02*
X100795476Y5434285D01*
X101033571Y5767619D02*
X101033571Y4910476D01*
X100985952Y4815238D01*
X100890714Y4767619D01*
X100795476Y4767619D01*
X86269285Y4815238D02*
X86174047Y4767619D01*
X85983571Y4767619D01*
X85888333Y4815238D01*
X85840714Y4910476D01*
X85840714Y4958095D01*
X85888333Y5053333D01*
X85983571Y5100952D01*
X86126428Y5100952D01*
X86221666Y5148571D01*
X86269285Y5243809D01*
X86269285Y5291428D01*
X86221666Y5386666D01*
X86126428Y5434285D01*
X85983571Y5434285D01*
X85888333Y5386666D01*
X85269285Y4767619D02*
X85364523Y4815238D01*
X85412142Y4862857D01*
X85459761Y4958095D01*
X85459761Y5243809D01*
X85412142Y5339047D01*
X85364523Y5386666D01*
X85269285Y5434285D01*
X85126428Y5434285D01*
X85031190Y5386666D01*
X84983571Y5339047D01*
X84935952Y5243809D01*
X84935952Y4958095D01*
X84983571Y4862857D01*
X85031190Y4815238D01*
X85126428Y4767619D01*
X85269285Y4767619D01*
X84078809Y4815238D02*
X84174047Y4767619D01*
X84364523Y4767619D01*
X84459761Y4815238D01*
X84507380Y4862857D01*
X84555000Y4958095D01*
X84555000Y5243809D01*
X84507380Y5339047D01*
X84459761Y5386666D01*
X84364523Y5434285D01*
X84174047Y5434285D01*
X84078809Y5386666D01*
X83650238Y4767619D02*
X83650238Y5767619D01*
X83555000Y5148571D02*
X83269285Y4767619D01*
X83269285Y5434285D02*
X83650238Y5053333D01*
X82459761Y4815238D02*
X82555000Y4767619D01*
X82745476Y4767619D01*
X82840714Y4815238D01*
X82888333Y4910476D01*
X82888333Y5291428D01*
X82840714Y5386666D01*
X82745476Y5434285D01*
X82555000Y5434285D01*
X82459761Y5386666D01*
X82412142Y5291428D01*
X82412142Y5196190D01*
X82888333Y5100952D01*
X82126428Y5434285D02*
X81745476Y5434285D01*
X81983571Y5767619D02*
X81983571Y4910476D01*
X81935952Y4815238D01*
X81840714Y4767619D01*
X81745476Y4767619D01*
X67219285Y4815238D02*
X67124047Y4767619D01*
X66933571Y4767619D01*
X66838333Y4815238D01*
X66790714Y4910476D01*
X66790714Y4958095D01*
X66838333Y5053333D01*
X66933571Y5100952D01*
X67076428Y5100952D01*
X67171666Y5148571D01*
X67219285Y5243809D01*
X67219285Y5291428D01*
X67171666Y5386666D01*
X67076428Y5434285D01*
X66933571Y5434285D01*
X66838333Y5386666D01*
X66219285Y4767619D02*
X66314523Y4815238D01*
X66362142Y4862857D01*
X66409761Y4958095D01*
X66409761Y5243809D01*
X66362142Y5339047D01*
X66314523Y5386666D01*
X66219285Y5434285D01*
X66076428Y5434285D01*
X65981190Y5386666D01*
X65933571Y5339047D01*
X65885952Y5243809D01*
X65885952Y4958095D01*
X65933571Y4862857D01*
X65981190Y4815238D01*
X66076428Y4767619D01*
X66219285Y4767619D01*
X65028809Y4815238D02*
X65124047Y4767619D01*
X65314523Y4767619D01*
X65409761Y4815238D01*
X65457380Y4862857D01*
X65505000Y4958095D01*
X65505000Y5243809D01*
X65457380Y5339047D01*
X65409761Y5386666D01*
X65314523Y5434285D01*
X65124047Y5434285D01*
X65028809Y5386666D01*
X64600238Y4767619D02*
X64600238Y5767619D01*
X64505000Y5148571D02*
X64219285Y4767619D01*
X64219285Y5434285D02*
X64600238Y5053333D01*
X63409761Y4815238D02*
X63505000Y4767619D01*
X63695476Y4767619D01*
X63790714Y4815238D01*
X63838333Y4910476D01*
X63838333Y5291428D01*
X63790714Y5386666D01*
X63695476Y5434285D01*
X63505000Y5434285D01*
X63409761Y5386666D01*
X63362142Y5291428D01*
X63362142Y5196190D01*
X63838333Y5100952D01*
X63076428Y5434285D02*
X62695476Y5434285D01*
X62933571Y5767619D02*
X62933571Y4910476D01*
X62885952Y4815238D01*
X62790714Y4767619D01*
X62695476Y4767619D01*
X48169285Y4815238D02*
X48074047Y4767619D01*
X47883571Y4767619D01*
X47788333Y4815238D01*
X47740714Y4910476D01*
X47740714Y4958095D01*
X47788333Y5053333D01*
X47883571Y5100952D01*
X48026428Y5100952D01*
X48121666Y5148571D01*
X48169285Y5243809D01*
X48169285Y5291428D01*
X48121666Y5386666D01*
X48026428Y5434285D01*
X47883571Y5434285D01*
X47788333Y5386666D01*
X47169285Y4767619D02*
X47264523Y4815238D01*
X47312142Y4862857D01*
X47359761Y4958095D01*
X47359761Y5243809D01*
X47312142Y5339047D01*
X47264523Y5386666D01*
X47169285Y5434285D01*
X47026428Y5434285D01*
X46931190Y5386666D01*
X46883571Y5339047D01*
X46835952Y5243809D01*
X46835952Y4958095D01*
X46883571Y4862857D01*
X46931190Y4815238D01*
X47026428Y4767619D01*
X47169285Y4767619D01*
X45978809Y4815238D02*
X46074047Y4767619D01*
X46264523Y4767619D01*
X46359761Y4815238D01*
X46407380Y4862857D01*
X46455000Y4958095D01*
X46455000Y5243809D01*
X46407380Y5339047D01*
X46359761Y5386666D01*
X46264523Y5434285D01*
X46074047Y5434285D01*
X45978809Y5386666D01*
X45550238Y4767619D02*
X45550238Y5767619D01*
X45455000Y5148571D02*
X45169285Y4767619D01*
X45169285Y5434285D02*
X45550238Y5053333D01*
X44359761Y4815238D02*
X44455000Y4767619D01*
X44645476Y4767619D01*
X44740714Y4815238D01*
X44788333Y4910476D01*
X44788333Y5291428D01*
X44740714Y5386666D01*
X44645476Y5434285D01*
X44455000Y5434285D01*
X44359761Y5386666D01*
X44312142Y5291428D01*
X44312142Y5196190D01*
X44788333Y5100952D01*
X44026428Y5434285D02*
X43645476Y5434285D01*
X43883571Y5767619D02*
X43883571Y4910476D01*
X43835952Y4815238D01*
X43740714Y4767619D01*
X43645476Y4767619D01*
X29119285Y4815238D02*
X29024047Y4767619D01*
X28833571Y4767619D01*
X28738333Y4815238D01*
X28690714Y4910476D01*
X28690714Y4958095D01*
X28738333Y5053333D01*
X28833571Y5100952D01*
X28976428Y5100952D01*
X29071666Y5148571D01*
X29119285Y5243809D01*
X29119285Y5291428D01*
X29071666Y5386666D01*
X28976428Y5434285D01*
X28833571Y5434285D01*
X28738333Y5386666D01*
X28119285Y4767619D02*
X28214523Y4815238D01*
X28262142Y4862857D01*
X28309761Y4958095D01*
X28309761Y5243809D01*
X28262142Y5339047D01*
X28214523Y5386666D01*
X28119285Y5434285D01*
X27976428Y5434285D01*
X27881190Y5386666D01*
X27833571Y5339047D01*
X27785952Y5243809D01*
X27785952Y4958095D01*
X27833571Y4862857D01*
X27881190Y4815238D01*
X27976428Y4767619D01*
X28119285Y4767619D01*
X26928809Y4815238D02*
X27024047Y4767619D01*
X27214523Y4767619D01*
X27309761Y4815238D01*
X27357380Y4862857D01*
X27405000Y4958095D01*
X27405000Y5243809D01*
X27357380Y5339047D01*
X27309761Y5386666D01*
X27214523Y5434285D01*
X27024047Y5434285D01*
X26928809Y5386666D01*
X26500238Y4767619D02*
X26500238Y5767619D01*
X26405000Y5148571D02*
X26119285Y4767619D01*
X26119285Y5434285D02*
X26500238Y5053333D01*
X25309761Y4815238D02*
X25405000Y4767619D01*
X25595476Y4767619D01*
X25690714Y4815238D01*
X25738333Y4910476D01*
X25738333Y5291428D01*
X25690714Y5386666D01*
X25595476Y5434285D01*
X25405000Y5434285D01*
X25309761Y5386666D01*
X25262142Y5291428D01*
X25262142Y5196190D01*
X25738333Y5100952D01*
X24976428Y5434285D02*
X24595476Y5434285D01*
X24833571Y5767619D02*
X24833571Y4910476D01*
X24785952Y4815238D01*
X24690714Y4767619D01*
X24595476Y4767619D01*
X45236666Y-29682380D02*
X45712857Y-29682380D01*
X45712857Y-28682380D01*
X44998571Y-28682380D02*
X44379523Y-28682380D01*
X44712857Y-29063333D01*
X44570000Y-29063333D01*
X44474761Y-29110952D01*
X44427142Y-29158571D01*
X44379523Y-29253809D01*
X44379523Y-29491904D01*
X44427142Y-29587142D01*
X44474761Y-29634761D01*
X44570000Y-29682380D01*
X44855714Y-29682380D01*
X44950952Y-29634761D01*
X44998571Y-29587142D01*
X71626666Y-29692380D02*
X72102857Y-29692380D01*
X72102857Y-28692380D01*
X71340952Y-28787619D02*
X71293333Y-28740000D01*
X71198095Y-28692380D01*
X70960000Y-28692380D01*
X70864761Y-28740000D01*
X70817142Y-28787619D01*
X70769523Y-28882857D01*
X70769523Y-28978095D01*
X70817142Y-29120952D01*
X71388571Y-29692380D01*
X70769523Y-29692380D01*
X100116666Y-29742380D02*
X100592857Y-29742380D01*
X100592857Y-28742380D01*
X99259523Y-29742380D02*
X99830952Y-29742380D01*
X99545238Y-29742380D02*
X99545238Y-28742380D01*
X99640476Y-28885238D01*
X99735714Y-28980476D01*
X99830952Y-29028095D01*
X36011904Y927619D02*
X36011904Y118095D01*
X35964285Y22857D01*
X35916666Y-24761D01*
X35821428Y-72380D01*
X35630952Y-72380D01*
X35535714Y-24761D01*
X35488095Y22857D01*
X35440476Y118095D01*
X35440476Y927619D01*
X34440476Y-72380D02*
X35011904Y-72380D01*
X34726190Y-72380D02*
X34726190Y927619D01*
X34821428Y784761D01*
X34916666Y689523D01*
X35011904Y641904D01*
D11*
X21639285Y-2116428D02*
X20889285Y-2116428D01*
X21425000Y-1866428D01*
X20889285Y-1616428D01*
X21639285Y-1616428D01*
X21639285Y-1259285D02*
X21139285Y-1259285D01*
X20889285Y-1259285D02*
X20925000Y-1295000D01*
X20960714Y-1259285D01*
X20925000Y-1223571D01*
X20889285Y-1259285D01*
X20960714Y-1259285D01*
X21603571Y-580714D02*
X21639285Y-652142D01*
X21639285Y-795000D01*
X21603571Y-866428D01*
X21567857Y-902142D01*
X21496428Y-937857D01*
X21282142Y-937857D01*
X21210714Y-902142D01*
X21175000Y-866428D01*
X21139285Y-795000D01*
X21139285Y-652142D01*
X21175000Y-580714D01*
X21639285Y-259285D02*
X21139285Y-259285D01*
X21282142Y-259285D02*
X21210714Y-223571D01*
X21175000Y-187857D01*
X21139285Y-116428D01*
X21139285Y-45000D01*
X21639285Y312142D02*
X21603571Y240714D01*
X21567857Y205000D01*
X21496428Y169285D01*
X21282142Y169285D01*
X21210714Y205000D01*
X21175000Y240714D01*
X21139285Y312142D01*
X21139285Y419285D01*
X21175000Y490714D01*
X21210714Y526428D01*
X21282142Y562142D01*
X21496428Y562142D01*
X21567857Y526428D01*
X21603571Y490714D01*
X21639285Y419285D01*
X21639285Y312142D01*
X20889285Y883571D02*
X21496428Y883571D01*
X21567857Y919285D01*
X21603571Y955000D01*
X21639285Y1026428D01*
X21639285Y1169285D01*
X21603571Y1240714D01*
X21567857Y1276428D01*
X21496428Y1312142D01*
X20889285Y1312142D01*
X21603571Y1633571D02*
X21639285Y1740714D01*
X21639285Y1919285D01*
X21603571Y1990714D01*
X21567857Y2026428D01*
X21496428Y2062142D01*
X21425000Y2062142D01*
X21353571Y2026428D01*
X21317857Y1990714D01*
X21282142Y1919285D01*
X21246428Y1776428D01*
X21210714Y1705000D01*
X21175000Y1669285D01*
X21103571Y1633571D01*
X21032142Y1633571D01*
X20960714Y1669285D01*
X20925000Y1705000D01*
X20889285Y1776428D01*
X20889285Y1955000D01*
X20925000Y2062142D01*
X21246428Y2633571D02*
X21282142Y2740714D01*
X21317857Y2776428D01*
X21389285Y2812142D01*
X21496428Y2812142D01*
X21567857Y2776428D01*
X21603571Y2740714D01*
X21639285Y2669285D01*
X21639285Y2383571D01*
X20889285Y2383571D01*
X20889285Y2633571D01*
X20925000Y2705000D01*
X20960714Y2740714D01*
X21032142Y2776428D01*
X21103571Y2776428D01*
X21175000Y2740714D01*
X21210714Y2705000D01*
X21246428Y2633571D01*
X21246428Y2383571D01*
D14*
X51118428Y6401190D02*
X51154142Y6305476D01*
X51189857Y6273571D01*
X51261285Y6241666D01*
X51368428Y6241666D01*
X51439857Y6273571D01*
X51475571Y6305476D01*
X51511285Y6369285D01*
X51511285Y6624523D01*
X50761285Y6624523D01*
X50761285Y6401190D01*
X50797000Y6337380D01*
X50832714Y6305476D01*
X50904142Y6273571D01*
X50975571Y6273571D01*
X51047000Y6305476D01*
X51082714Y6337380D01*
X51118428Y6401190D01*
X51118428Y6624523D01*
X51011285Y5667380D02*
X51511285Y5667380D01*
X50725571Y5826904D02*
X51261285Y5986428D01*
X51261285Y5571666D01*
X50725571Y4837857D02*
X51689857Y5412142D01*
X51082714Y4518809D02*
X51047000Y4582619D01*
X51011285Y4614523D01*
X50939857Y4646428D01*
X50904142Y4646428D01*
X50832714Y4614523D01*
X50797000Y4582619D01*
X50761285Y4518809D01*
X50761285Y4391190D01*
X50797000Y4327380D01*
X50832714Y4295476D01*
X50904142Y4263571D01*
X50939857Y4263571D01*
X51011285Y4295476D01*
X51047000Y4327380D01*
X51082714Y4391190D01*
X51082714Y4518809D01*
X51118428Y4582619D01*
X51154142Y4614523D01*
X51225571Y4646428D01*
X51368428Y4646428D01*
X51439857Y4614523D01*
X51475571Y4582619D01*
X51511285Y4518809D01*
X51511285Y4391190D01*
X51475571Y4327380D01*
X51439857Y4295476D01*
X51368428Y4263571D01*
X51225571Y4263571D01*
X51154142Y4295476D01*
X51118428Y4327380D01*
X51082714Y4391190D01*
X28651285Y6389571D02*
X27901285Y6389571D01*
X27901285Y6230047D01*
X27937000Y6134333D01*
X28008428Y6070523D01*
X28079857Y6038619D01*
X28222714Y6006714D01*
X28329857Y6006714D01*
X28472714Y6038619D01*
X28544142Y6070523D01*
X28615571Y6134333D01*
X28651285Y6230047D01*
X28651285Y6389571D01*
X27972714Y5751476D02*
X27937000Y5719571D01*
X27901285Y5655761D01*
X27901285Y5496238D01*
X27937000Y5432428D01*
X27972714Y5400523D01*
X28044142Y5368619D01*
X28115571Y5368619D01*
X28222714Y5400523D01*
X28651285Y5783380D01*
X28651285Y5368619D01*
X27865571Y4602904D02*
X28829857Y5177190D01*
X28651285Y3996714D02*
X28294142Y4220047D01*
X28651285Y4379571D02*
X27901285Y4379571D01*
X27901285Y4124333D01*
X27937000Y4060523D01*
X27972714Y4028619D01*
X28044142Y3996714D01*
X28151285Y3996714D01*
X28222714Y4028619D01*
X28258428Y4060523D01*
X28294142Y4124333D01*
X28294142Y4379571D01*
X27901285Y3773380D02*
X28651285Y3326714D01*
X27901285Y3326714D02*
X28651285Y3773380D01*
X28651285Y2720523D02*
X28651285Y3103380D01*
X28651285Y2911952D02*
X27901285Y2911952D01*
X28008428Y2975761D01*
X28079857Y3039571D01*
X28115571Y3103380D01*
X53496428Y6026190D02*
X53532142Y5930476D01*
X53567857Y5898571D01*
X53639285Y5866666D01*
X53746428Y5866666D01*
X53817857Y5898571D01*
X53853571Y5930476D01*
X53889285Y5994285D01*
X53889285Y6249523D01*
X53139285Y6249523D01*
X53139285Y6026190D01*
X53175000Y5962380D01*
X53210714Y5930476D01*
X53282142Y5898571D01*
X53353571Y5898571D01*
X53425000Y5930476D01*
X53460714Y5962380D01*
X53496428Y6026190D01*
X53496428Y6249523D01*
X53139285Y5260476D02*
X53139285Y5579523D01*
X53496428Y5611428D01*
X53460714Y5579523D01*
X53425000Y5515714D01*
X53425000Y5356190D01*
X53460714Y5292380D01*
X53496428Y5260476D01*
X53567857Y5228571D01*
X53746428Y5228571D01*
X53817857Y5260476D01*
X53853571Y5292380D01*
X53889285Y5356190D01*
X53889285Y5515714D01*
X53853571Y5579523D01*
X53817857Y5611428D01*
X53103571Y4462857D02*
X54067857Y5037142D01*
X53889285Y4207619D02*
X53889285Y4080000D01*
X53853571Y4016190D01*
X53817857Y3984285D01*
X53710714Y3920476D01*
X53567857Y3888571D01*
X53282142Y3888571D01*
X53210714Y3920476D01*
X53175000Y3952380D01*
X53139285Y4016190D01*
X53139285Y4143809D01*
X53175000Y4207619D01*
X53210714Y4239523D01*
X53282142Y4271428D01*
X53460714Y4271428D01*
X53532142Y4239523D01*
X53567857Y4207619D01*
X53603571Y4143809D01*
X53603571Y4016190D01*
X53567857Y3952380D01*
X53532142Y3920476D01*
X53460714Y3888571D01*
X43947857Y6331666D02*
X43983571Y6363571D01*
X44019285Y6459285D01*
X44019285Y6523095D01*
X43983571Y6618809D01*
X43912142Y6682619D01*
X43840714Y6714523D01*
X43697857Y6746428D01*
X43590714Y6746428D01*
X43447857Y6714523D01*
X43376428Y6682619D01*
X43305000Y6618809D01*
X43269285Y6523095D01*
X43269285Y6459285D01*
X43305000Y6363571D01*
X43340714Y6331666D01*
X43269285Y5757380D02*
X43269285Y5885000D01*
X43305000Y5948809D01*
X43340714Y5980714D01*
X43447857Y6044523D01*
X43590714Y6076428D01*
X43876428Y6076428D01*
X43947857Y6044523D01*
X43983571Y6012619D01*
X44019285Y5948809D01*
X44019285Y5821190D01*
X43983571Y5757380D01*
X43947857Y5725476D01*
X43876428Y5693571D01*
X43697857Y5693571D01*
X43626428Y5725476D01*
X43590714Y5757380D01*
X43555000Y5821190D01*
X43555000Y5948809D01*
X43590714Y6012619D01*
X43626428Y6044523D01*
X43697857Y6076428D01*
X43233571Y4927857D02*
X44197857Y5502142D01*
X43269285Y4385476D02*
X43269285Y4704523D01*
X43626428Y4736428D01*
X43590714Y4704523D01*
X43555000Y4640714D01*
X43555000Y4481190D01*
X43590714Y4417380D01*
X43626428Y4385476D01*
X43697857Y4353571D01*
X43876428Y4353571D01*
X43947857Y4385476D01*
X43983571Y4417380D01*
X44019285Y4481190D01*
X44019285Y4640714D01*
X43983571Y4704523D01*
X43947857Y4736428D01*
X38775571Y6662619D02*
X38811285Y6566904D01*
X38811285Y6407380D01*
X38775571Y6343571D01*
X38739857Y6311666D01*
X38668428Y6279761D01*
X38597000Y6279761D01*
X38525571Y6311666D01*
X38489857Y6343571D01*
X38454142Y6407380D01*
X38418428Y6535000D01*
X38382714Y6598809D01*
X38347000Y6630714D01*
X38275571Y6662619D01*
X38204142Y6662619D01*
X38132714Y6630714D01*
X38097000Y6598809D01*
X38061285Y6535000D01*
X38061285Y6375476D01*
X38097000Y6279761D01*
X38739857Y5609761D02*
X38775571Y5641666D01*
X38811285Y5737380D01*
X38811285Y5801190D01*
X38775571Y5896904D01*
X38704142Y5960714D01*
X38632714Y5992619D01*
X38489857Y6024523D01*
X38382714Y6024523D01*
X38239857Y5992619D01*
X38168428Y5960714D01*
X38097000Y5896904D01*
X38061285Y5801190D01*
X38061285Y5737380D01*
X38097000Y5641666D01*
X38132714Y5609761D01*
X38811285Y5003571D02*
X38811285Y5322619D01*
X38061285Y5322619D01*
X38025571Y4301666D02*
X38989857Y4875952D01*
X38811285Y4078333D02*
X38061285Y4078333D01*
X38061285Y3918809D01*
X38097000Y3823095D01*
X38168428Y3759285D01*
X38239857Y3727380D01*
X38382714Y3695476D01*
X38489857Y3695476D01*
X38632714Y3727380D01*
X38704142Y3759285D01*
X38775571Y3823095D01*
X38811285Y3918809D01*
X38811285Y4078333D01*
X38061285Y3280714D02*
X38061285Y3216904D01*
X38097000Y3153095D01*
X38132714Y3121190D01*
X38204142Y3089285D01*
X38347000Y3057380D01*
X38525571Y3057380D01*
X38668428Y3089285D01*
X38739857Y3121190D01*
X38775571Y3153095D01*
X38811285Y3216904D01*
X38811285Y3280714D01*
X38775571Y3344523D01*
X38739857Y3376428D01*
X38668428Y3408333D01*
X38525571Y3440238D01*
X38347000Y3440238D01*
X38204142Y3408333D01*
X38132714Y3376428D01*
X38097000Y3344523D01*
X38061285Y3280714D01*
X38025571Y2291666D02*
X38989857Y2865952D01*
X38061285Y2132142D02*
X38061285Y1717380D01*
X38347000Y1940714D01*
X38347000Y1845000D01*
X38382714Y1781190D01*
X38418428Y1749285D01*
X38489857Y1717380D01*
X38668428Y1717380D01*
X38739857Y1749285D01*
X38775571Y1781190D01*
X38811285Y1845000D01*
X38811285Y2036428D01*
X38775571Y2100238D01*
X38739857Y2132142D01*
X36153571Y6323571D02*
X36189285Y6227857D01*
X36189285Y6068333D01*
X36153571Y6004523D01*
X36117857Y5972619D01*
X36046428Y5940714D01*
X35975000Y5940714D01*
X35903571Y5972619D01*
X35867857Y6004523D01*
X35832142Y6068333D01*
X35796428Y6195952D01*
X35760714Y6259761D01*
X35725000Y6291666D01*
X35653571Y6323571D01*
X35582142Y6323571D01*
X35510714Y6291666D01*
X35475000Y6259761D01*
X35439285Y6195952D01*
X35439285Y6036428D01*
X35475000Y5940714D01*
X36189285Y5653571D02*
X35439285Y5653571D01*
X35439285Y5494047D01*
X35475000Y5398333D01*
X35546428Y5334523D01*
X35617857Y5302619D01*
X35760714Y5270714D01*
X35867857Y5270714D01*
X36010714Y5302619D01*
X36082142Y5334523D01*
X36153571Y5398333D01*
X36189285Y5494047D01*
X36189285Y5653571D01*
X35975000Y5015476D02*
X35975000Y4696428D01*
X36189285Y5079285D02*
X35439285Y4855952D01*
X36189285Y4632619D01*
X35403571Y3930714D02*
X36367857Y4505000D01*
X36189285Y3707380D02*
X35439285Y3707380D01*
X35439285Y3547857D01*
X35475000Y3452142D01*
X35546428Y3388333D01*
X35617857Y3356428D01*
X35760714Y3324523D01*
X35867857Y3324523D01*
X36010714Y3356428D01*
X36082142Y3388333D01*
X36153571Y3452142D01*
X36189285Y3547857D01*
X36189285Y3707380D01*
X36189285Y2686428D02*
X36189285Y3069285D01*
X36189285Y2877857D02*
X35439285Y2877857D01*
X35546428Y2941666D01*
X35617857Y3005476D01*
X35653571Y3069285D01*
X35403571Y1920714D02*
X36367857Y2495000D01*
X35510714Y1729285D02*
X35475000Y1697380D01*
X35439285Y1633571D01*
X35439285Y1474047D01*
X35475000Y1410238D01*
X35510714Y1378333D01*
X35582142Y1346428D01*
X35653571Y1346428D01*
X35760714Y1378333D01*
X36189285Y1761190D01*
X36189285Y1346428D01*
X41478285Y6370523D02*
X40728285Y6370523D01*
X40728285Y6211000D01*
X40764000Y6115285D01*
X40835428Y6051476D01*
X40906857Y6019571D01*
X41049714Y5987666D01*
X41156857Y5987666D01*
X41299714Y6019571D01*
X41371142Y6051476D01*
X41442571Y6115285D01*
X41478285Y6211000D01*
X41478285Y6370523D01*
X40978285Y5413380D02*
X41478285Y5413380D01*
X40692571Y5572904D02*
X41228285Y5732428D01*
X41228285Y5317666D01*
X40692571Y4583857D02*
X41656857Y5158142D01*
X40978285Y4073380D02*
X41478285Y4073380D01*
X40692571Y4232904D02*
X41228285Y4392428D01*
X41228285Y3977666D01*
X26111285Y6690809D02*
X25361285Y6690809D01*
X25361285Y6531285D01*
X25397000Y6435571D01*
X25468428Y6371761D01*
X25539857Y6339857D01*
X25682714Y6307952D01*
X25789857Y6307952D01*
X25932714Y6339857D01*
X26004142Y6371761D01*
X26075571Y6435571D01*
X26111285Y6531285D01*
X26111285Y6690809D01*
X25361285Y6084619D02*
X25361285Y5669857D01*
X25647000Y5893190D01*
X25647000Y5797476D01*
X25682714Y5733666D01*
X25718428Y5701761D01*
X25789857Y5669857D01*
X25968428Y5669857D01*
X26039857Y5701761D01*
X26075571Y5733666D01*
X26111285Y5797476D01*
X26111285Y5988904D01*
X26075571Y6052714D01*
X26039857Y6084619D01*
X25325571Y4904142D02*
X26289857Y5478428D01*
X25361285Y4776523D02*
X25361285Y4393666D01*
X26111285Y4585095D02*
X25361285Y4585095D01*
X25361285Y4234142D02*
X26111285Y3787476D01*
X25361285Y3787476D02*
X26111285Y4234142D01*
X25361285Y3404619D02*
X25361285Y3340809D01*
X25397000Y3277000D01*
X25432714Y3245095D01*
X25504142Y3213190D01*
X25647000Y3181285D01*
X25825571Y3181285D01*
X25968428Y3213190D01*
X26039857Y3245095D01*
X26075571Y3277000D01*
X26111285Y3340809D01*
X26111285Y3404619D01*
X26075571Y3468428D01*
X26039857Y3500333D01*
X25968428Y3532238D01*
X25825571Y3564142D01*
X25647000Y3564142D01*
X25504142Y3532238D01*
X25432714Y3500333D01*
X25397000Y3468428D01*
X25361285Y3404619D01*
X32975000Y5845476D02*
X32939285Y5909285D01*
X32939285Y6005000D01*
X32975000Y6100714D01*
X33046428Y6164523D01*
X33117857Y6196428D01*
X33260714Y6228333D01*
X33367857Y6228333D01*
X33510714Y6196428D01*
X33582142Y6164523D01*
X33653571Y6100714D01*
X33689285Y6005000D01*
X33689285Y5941190D01*
X33653571Y5845476D01*
X33617857Y5813571D01*
X33367857Y5813571D01*
X33367857Y5941190D01*
X33689285Y5526428D02*
X32939285Y5526428D01*
X33689285Y5143571D01*
X32939285Y5143571D01*
X33689285Y4824523D02*
X32939285Y4824523D01*
X32939285Y4665000D01*
X32975000Y4569285D01*
X33046428Y4505476D01*
X33117857Y4473571D01*
X33260714Y4441666D01*
X33367857Y4441666D01*
X33510714Y4473571D01*
X33582142Y4505476D01*
X33653571Y4569285D01*
X33689285Y4665000D01*
X33689285Y4824523D01*
X30525000Y5845476D02*
X30489285Y5909285D01*
X30489285Y6005000D01*
X30525000Y6100714D01*
X30596428Y6164523D01*
X30667857Y6196428D01*
X30810714Y6228333D01*
X30917857Y6228333D01*
X31060714Y6196428D01*
X31132142Y6164523D01*
X31203571Y6100714D01*
X31239285Y6005000D01*
X31239285Y5941190D01*
X31203571Y5845476D01*
X31167857Y5813571D01*
X30917857Y5813571D01*
X30917857Y5941190D01*
X31239285Y5526428D02*
X30489285Y5526428D01*
X31239285Y5143571D01*
X30489285Y5143571D01*
X31239285Y4824523D02*
X30489285Y4824523D01*
X30489285Y4665000D01*
X30525000Y4569285D01*
X30596428Y4505476D01*
X30667857Y4473571D01*
X30810714Y4441666D01*
X30917857Y4441666D01*
X31060714Y4473571D01*
X31132142Y4505476D01*
X31203571Y4569285D01*
X31239285Y4665000D01*
X31239285Y4824523D01*
X46289285Y6249523D02*
X45539285Y6249523D01*
X45539285Y6090000D01*
X45575000Y5994285D01*
X45646428Y5930476D01*
X45717857Y5898571D01*
X45860714Y5866666D01*
X45967857Y5866666D01*
X46110714Y5898571D01*
X46182142Y5930476D01*
X46253571Y5994285D01*
X46289285Y6090000D01*
X46289285Y6249523D01*
X45539285Y5643333D02*
X45539285Y5196666D01*
X46289285Y5483809D01*
X45503571Y4462857D02*
X46467857Y5037142D01*
X45539285Y3952380D02*
X45539285Y4080000D01*
X45575000Y4143809D01*
X45610714Y4175714D01*
X45717857Y4239523D01*
X45860714Y4271428D01*
X46146428Y4271428D01*
X46217857Y4239523D01*
X46253571Y4207619D01*
X46289285Y4143809D01*
X46289285Y4016190D01*
X46253571Y3952380D01*
X46217857Y3920476D01*
X46146428Y3888571D01*
X45967857Y3888571D01*
X45896428Y3920476D01*
X45860714Y3952380D01*
X45825000Y4016190D01*
X45825000Y4143809D01*
X45860714Y4207619D01*
X45896428Y4239523D01*
X45967857Y4271428D01*
X47956428Y6762619D02*
X47956428Y6539285D01*
X48349285Y6443571D02*
X48349285Y6762619D01*
X47599285Y6762619D01*
X47599285Y6443571D01*
X47599285Y5869285D02*
X47599285Y5996904D01*
X47635000Y6060714D01*
X47670714Y6092619D01*
X47777857Y6156428D01*
X47920714Y6188333D01*
X48206428Y6188333D01*
X48277857Y6156428D01*
X48313571Y6124523D01*
X48349285Y6060714D01*
X48349285Y5933095D01*
X48313571Y5869285D01*
X48277857Y5837380D01*
X48206428Y5805476D01*
X48027857Y5805476D01*
X47956428Y5837380D01*
X47920714Y5869285D01*
X47885000Y5933095D01*
X47885000Y6060714D01*
X47920714Y6124523D01*
X47956428Y6156428D01*
X48027857Y6188333D01*
X47563571Y5039761D02*
X48527857Y5614047D01*
X47599285Y4880238D02*
X47599285Y4433571D01*
X48349285Y4720714D01*
X51539285Y-2882380D02*
X51539285Y-2499523D01*
X51539285Y-2690952D02*
X50789285Y-2690952D01*
X50896428Y-2627142D01*
X50967857Y-2563333D01*
X51003571Y-2499523D01*
X50789285Y-3456666D02*
X50789285Y-3329047D01*
X50825000Y-3265238D01*
X50860714Y-3233333D01*
X50967857Y-3169523D01*
X51110714Y-3137619D01*
X51396428Y-3137619D01*
X51467857Y-3169523D01*
X51503571Y-3201428D01*
X51539285Y-3265238D01*
X51539285Y-3392857D01*
X51503571Y-3456666D01*
X51467857Y-3488571D01*
X51396428Y-3520476D01*
X51217857Y-3520476D01*
X51146428Y-3488571D01*
X51110714Y-3456666D01*
X51075000Y-3392857D01*
X51075000Y-3265238D01*
X51110714Y-3201428D01*
X51146428Y-3169523D01*
X51217857Y-3137619D01*
X50753571Y-4286190D02*
X51717857Y-3711904D01*
X51146428Y-4732857D02*
X51182142Y-4828571D01*
X51217857Y-4860476D01*
X51289285Y-4892380D01*
X51396428Y-4892380D01*
X51467857Y-4860476D01*
X51503571Y-4828571D01*
X51539285Y-4764761D01*
X51539285Y-4509523D01*
X50789285Y-4509523D01*
X50789285Y-4732857D01*
X50825000Y-4796666D01*
X50860714Y-4828571D01*
X50932142Y-4860476D01*
X51003571Y-4860476D01*
X51075000Y-4828571D01*
X51110714Y-4796666D01*
X51146428Y-4732857D01*
X51146428Y-4509523D01*
X50860714Y-5147619D02*
X50825000Y-5179523D01*
X50789285Y-5243333D01*
X50789285Y-5402857D01*
X50825000Y-5466666D01*
X50860714Y-5498571D01*
X50932142Y-5530476D01*
X51003571Y-5530476D01*
X51110714Y-5498571D01*
X51539285Y-5115714D01*
X51539285Y-5530476D01*
X53924285Y-2805380D02*
X53924285Y-2422523D01*
X53924285Y-2613952D02*
X53174285Y-2613952D01*
X53281428Y-2550142D01*
X53352857Y-2486333D01*
X53388571Y-2422523D01*
X53174285Y-3220142D02*
X53174285Y-3283952D01*
X53210000Y-3347761D01*
X53245714Y-3379666D01*
X53317142Y-3411571D01*
X53460000Y-3443476D01*
X53638571Y-3443476D01*
X53781428Y-3411571D01*
X53852857Y-3379666D01*
X53888571Y-3347761D01*
X53924285Y-3283952D01*
X53924285Y-3220142D01*
X53888571Y-3156333D01*
X53852857Y-3124428D01*
X53781428Y-3092523D01*
X53638571Y-3060619D01*
X53460000Y-3060619D01*
X53317142Y-3092523D01*
X53245714Y-3124428D01*
X53210000Y-3156333D01*
X53174285Y-3220142D01*
X53138571Y-4209190D02*
X54102857Y-3634904D01*
X53531428Y-4655857D02*
X53567142Y-4751571D01*
X53602857Y-4783476D01*
X53674285Y-4815380D01*
X53781428Y-4815380D01*
X53852857Y-4783476D01*
X53888571Y-4751571D01*
X53924285Y-4687761D01*
X53924285Y-4432523D01*
X53174285Y-4432523D01*
X53174285Y-4655857D01*
X53210000Y-4719666D01*
X53245714Y-4751571D01*
X53317142Y-4783476D01*
X53388571Y-4783476D01*
X53460000Y-4751571D01*
X53495714Y-4719666D01*
X53531428Y-4655857D01*
X53531428Y-4432523D01*
X53174285Y-5389666D02*
X53174285Y-5262047D01*
X53210000Y-5198238D01*
X53245714Y-5166333D01*
X53352857Y-5102523D01*
X53495714Y-5070619D01*
X53781428Y-5070619D01*
X53852857Y-5102523D01*
X53888571Y-5134428D01*
X53924285Y-5198238D01*
X53924285Y-5325857D01*
X53888571Y-5389666D01*
X53852857Y-5421571D01*
X53781428Y-5453476D01*
X53602857Y-5453476D01*
X53531428Y-5421571D01*
X53495714Y-5389666D01*
X53460000Y-5325857D01*
X53460000Y-5198238D01*
X53495714Y-5134428D01*
X53531428Y-5102523D01*
X53602857Y-5070619D01*
X48989285Y-2882380D02*
X48989285Y-2499523D01*
X48989285Y-2690952D02*
X48239285Y-2690952D01*
X48346428Y-2627142D01*
X48417857Y-2563333D01*
X48453571Y-2499523D01*
X48489285Y-3456666D02*
X48989285Y-3456666D01*
X48203571Y-3297142D02*
X48739285Y-3137619D01*
X48739285Y-3552380D01*
X48203571Y-4286190D02*
X49167857Y-3711904D01*
X48596428Y-4732857D02*
X48632142Y-4828571D01*
X48667857Y-4860476D01*
X48739285Y-4892380D01*
X48846428Y-4892380D01*
X48917857Y-4860476D01*
X48953571Y-4828571D01*
X48989285Y-4764761D01*
X48989285Y-4509523D01*
X48239285Y-4509523D01*
X48239285Y-4732857D01*
X48275000Y-4796666D01*
X48310714Y-4828571D01*
X48382142Y-4860476D01*
X48453571Y-4860476D01*
X48525000Y-4828571D01*
X48560714Y-4796666D01*
X48596428Y-4732857D01*
X48596428Y-4509523D01*
X48239285Y-5115714D02*
X48239285Y-5530476D01*
X48525000Y-5307142D01*
X48525000Y-5402857D01*
X48560714Y-5466666D01*
X48596428Y-5498571D01*
X48667857Y-5530476D01*
X48846428Y-5530476D01*
X48917857Y-5498571D01*
X48953571Y-5466666D01*
X48989285Y-5402857D01*
X48989285Y-5211428D01*
X48953571Y-5147619D01*
X48917857Y-5115714D01*
X46439285Y-2882380D02*
X46439285Y-2499523D01*
X46439285Y-2690952D02*
X45689285Y-2690952D01*
X45796428Y-2627142D01*
X45867857Y-2563333D01*
X45903571Y-2499523D01*
X45689285Y-3488571D02*
X45689285Y-3169523D01*
X46046428Y-3137619D01*
X46010714Y-3169523D01*
X45975000Y-3233333D01*
X45975000Y-3392857D01*
X46010714Y-3456666D01*
X46046428Y-3488571D01*
X46117857Y-3520476D01*
X46296428Y-3520476D01*
X46367857Y-3488571D01*
X46403571Y-3456666D01*
X46439285Y-3392857D01*
X46439285Y-3233333D01*
X46403571Y-3169523D01*
X46367857Y-3137619D01*
X45653571Y-4286190D02*
X46617857Y-3711904D01*
X46046428Y-4732857D02*
X46082142Y-4828571D01*
X46117857Y-4860476D01*
X46189285Y-4892380D01*
X46296428Y-4892380D01*
X46367857Y-4860476D01*
X46403571Y-4828571D01*
X46439285Y-4764761D01*
X46439285Y-4509523D01*
X45689285Y-4509523D01*
X45689285Y-4732857D01*
X45725000Y-4796666D01*
X45760714Y-4828571D01*
X45832142Y-4860476D01*
X45903571Y-4860476D01*
X45975000Y-4828571D01*
X46010714Y-4796666D01*
X46046428Y-4732857D01*
X46046428Y-4509523D01*
X46439285Y-5530476D02*
X46439285Y-5147619D01*
X46439285Y-5339047D02*
X45689285Y-5339047D01*
X45796428Y-5275238D01*
X45867857Y-5211428D01*
X45903571Y-5147619D01*
X43675000Y-2579285D02*
X43675000Y-2898333D01*
X43889285Y-2515476D02*
X43139285Y-2738809D01*
X43889285Y-2962142D01*
X43139285Y-3313095D02*
X43139285Y-3376904D01*
X43175000Y-3440714D01*
X43210714Y-3472619D01*
X43282142Y-3504523D01*
X43425000Y-3536428D01*
X43603571Y-3536428D01*
X43746428Y-3504523D01*
X43817857Y-3472619D01*
X43853571Y-3440714D01*
X43889285Y-3376904D01*
X43889285Y-3313095D01*
X43853571Y-3249285D01*
X43817857Y-3217380D01*
X43746428Y-3185476D01*
X43603571Y-3153571D01*
X43425000Y-3153571D01*
X43282142Y-3185476D01*
X43210714Y-3217380D01*
X43175000Y-3249285D01*
X43139285Y-3313095D01*
X43103571Y-4302142D02*
X44067857Y-3727857D01*
X43496428Y-4748809D02*
X43496428Y-4525476D01*
X43889285Y-4525476D02*
X43139285Y-4525476D01*
X43139285Y-4844523D01*
X43139285Y-5035952D02*
X43139285Y-5482619D01*
X43889285Y-5195476D01*
X41125000Y-2579285D02*
X41125000Y-2898333D01*
X41339285Y-2515476D02*
X40589285Y-2738809D01*
X41339285Y-2962142D01*
X41339285Y-3536428D02*
X41339285Y-3153571D01*
X41339285Y-3345000D02*
X40589285Y-3345000D01*
X40696428Y-3281190D01*
X40767857Y-3217380D01*
X40803571Y-3153571D01*
X40553571Y-4302142D02*
X41517857Y-3727857D01*
X40946428Y-4748809D02*
X40946428Y-4525476D01*
X41339285Y-4525476D02*
X40589285Y-4525476D01*
X40589285Y-4844523D01*
X40589285Y-5386904D02*
X40589285Y-5259285D01*
X40625000Y-5195476D01*
X40660714Y-5163571D01*
X40767857Y-5099761D01*
X40910714Y-5067857D01*
X41196428Y-5067857D01*
X41267857Y-5099761D01*
X41303571Y-5131666D01*
X41339285Y-5195476D01*
X41339285Y-5323095D01*
X41303571Y-5386904D01*
X41267857Y-5418809D01*
X41196428Y-5450714D01*
X41017857Y-5450714D01*
X40946428Y-5418809D01*
X40910714Y-5386904D01*
X40875000Y-5323095D01*
X40875000Y-5195476D01*
X40910714Y-5131666D01*
X40946428Y-5099761D01*
X41017857Y-5067857D01*
X38625000Y-2579285D02*
X38625000Y-2898333D01*
X38839285Y-2515476D02*
X38089285Y-2738809D01*
X38839285Y-2962142D01*
X38160714Y-3153571D02*
X38125000Y-3185476D01*
X38089285Y-3249285D01*
X38089285Y-3408809D01*
X38125000Y-3472619D01*
X38160714Y-3504523D01*
X38232142Y-3536428D01*
X38303571Y-3536428D01*
X38410714Y-3504523D01*
X38839285Y-3121666D01*
X38839285Y-3536428D01*
X38053571Y-4302142D02*
X39017857Y-3727857D01*
X38446428Y-4748809D02*
X38446428Y-4525476D01*
X38839285Y-4525476D02*
X38089285Y-4525476D01*
X38089285Y-4844523D01*
X38089285Y-5418809D02*
X38089285Y-5099761D01*
X38446428Y-5067857D01*
X38410714Y-5099761D01*
X38375000Y-5163571D01*
X38375000Y-5323095D01*
X38410714Y-5386904D01*
X38446428Y-5418809D01*
X38517857Y-5450714D01*
X38696428Y-5450714D01*
X38767857Y-5418809D01*
X38803571Y-5386904D01*
X38839285Y-5323095D01*
X38839285Y-5163571D01*
X38803571Y-5099761D01*
X38767857Y-5067857D01*
X36125000Y-2579285D02*
X36125000Y-2898333D01*
X36339285Y-2515476D02*
X35589285Y-2738809D01*
X36339285Y-2962142D01*
X35589285Y-3121666D02*
X35589285Y-3536428D01*
X35875000Y-3313095D01*
X35875000Y-3408809D01*
X35910714Y-3472619D01*
X35946428Y-3504523D01*
X36017857Y-3536428D01*
X36196428Y-3536428D01*
X36267857Y-3504523D01*
X36303571Y-3472619D01*
X36339285Y-3408809D01*
X36339285Y-3217380D01*
X36303571Y-3153571D01*
X36267857Y-3121666D01*
X35553571Y-4302142D02*
X36517857Y-3727857D01*
X35946428Y-4748809D02*
X35946428Y-4525476D01*
X36339285Y-4525476D02*
X35589285Y-4525476D01*
X35589285Y-4844523D01*
X35839285Y-5386904D02*
X36339285Y-5386904D01*
X35553571Y-5227380D02*
X36089285Y-5067857D01*
X36089285Y-5482619D01*
X32889285Y-3721666D02*
X33639285Y-3945000D01*
X32889285Y-4168333D01*
X33567857Y-4774523D02*
X33603571Y-4742619D01*
X33639285Y-4646904D01*
X33639285Y-4583095D01*
X33603571Y-4487380D01*
X33532142Y-4423571D01*
X33460714Y-4391666D01*
X33317857Y-4359761D01*
X33210714Y-4359761D01*
X33067857Y-4391666D01*
X32996428Y-4423571D01*
X32925000Y-4487380D01*
X32889285Y-4583095D01*
X32889285Y-4646904D01*
X32925000Y-4742619D01*
X32960714Y-4774523D01*
X33567857Y-5444523D02*
X33603571Y-5412619D01*
X33639285Y-5316904D01*
X33639285Y-5253095D01*
X33603571Y-5157380D01*
X33532142Y-5093571D01*
X33460714Y-5061666D01*
X33317857Y-5029761D01*
X33210714Y-5029761D01*
X33067857Y-5061666D01*
X32996428Y-5093571D01*
X32925000Y-5157380D01*
X32889285Y-5253095D01*
X32889285Y-5316904D01*
X32925000Y-5412619D01*
X32960714Y-5444523D01*
X31189285Y-4248095D02*
X30832142Y-4024761D01*
X31189285Y-3865238D02*
X30439285Y-3865238D01*
X30439285Y-4120476D01*
X30475000Y-4184285D01*
X30510714Y-4216190D01*
X30582142Y-4248095D01*
X30689285Y-4248095D01*
X30760714Y-4216190D01*
X30796428Y-4184285D01*
X30832142Y-4120476D01*
X30832142Y-3865238D01*
X31153571Y-4503333D02*
X31189285Y-4599047D01*
X31189285Y-4758571D01*
X31153571Y-4822380D01*
X31117857Y-4854285D01*
X31046428Y-4886190D01*
X30975000Y-4886190D01*
X30903571Y-4854285D01*
X30867857Y-4822380D01*
X30832142Y-4758571D01*
X30796428Y-4630952D01*
X30760714Y-4567142D01*
X30725000Y-4535238D01*
X30653571Y-4503333D01*
X30582142Y-4503333D01*
X30510714Y-4535238D01*
X30475000Y-4567142D01*
X30439285Y-4630952D01*
X30439285Y-4790476D01*
X30475000Y-4886190D01*
X30439285Y-5077619D02*
X30439285Y-5460476D01*
X31189285Y-5269047D02*
X30439285Y-5269047D01*
X27925000Y-4104523D02*
X27889285Y-4040714D01*
X27889285Y-3945000D01*
X27925000Y-3849285D01*
X27996428Y-3785476D01*
X28067857Y-3753571D01*
X28210714Y-3721666D01*
X28317857Y-3721666D01*
X28460714Y-3753571D01*
X28532142Y-3785476D01*
X28603571Y-3849285D01*
X28639285Y-3945000D01*
X28639285Y-4008809D01*
X28603571Y-4104523D01*
X28567857Y-4136428D01*
X28317857Y-4136428D01*
X28317857Y-4008809D01*
X28639285Y-4423571D02*
X27889285Y-4423571D01*
X28639285Y-4806428D01*
X27889285Y-4806428D01*
X28639285Y-5125476D02*
X27889285Y-5125476D01*
X27889285Y-5285000D01*
X27925000Y-5380714D01*
X27996428Y-5444523D01*
X28067857Y-5476428D01*
X28210714Y-5508333D01*
X28317857Y-5508333D01*
X28460714Y-5476428D01*
X28532142Y-5444523D01*
X28603571Y-5380714D01*
X28639285Y-5285000D01*
X28639285Y-5125476D01*
X26089285Y-4152380D02*
X25732142Y-3929047D01*
X26089285Y-3769523D02*
X25339285Y-3769523D01*
X25339285Y-4024761D01*
X25375000Y-4088571D01*
X25410714Y-4120476D01*
X25482142Y-4152380D01*
X25589285Y-4152380D01*
X25660714Y-4120476D01*
X25696428Y-4088571D01*
X25732142Y-4024761D01*
X25732142Y-3769523D01*
X25875000Y-4407619D02*
X25875000Y-4726666D01*
X26089285Y-4343809D02*
X25339285Y-4567142D01*
X26089285Y-4790476D01*
X25339285Y-4950000D02*
X26089285Y-5109523D01*
X25553571Y-5237142D01*
X26089285Y-5364761D01*
X25339285Y-5524285D01*
D12*
X68794340Y13063436D02*
X68508626Y13558307D01*
X67785457Y12810872D02*
X68651483Y13310872D01*
X67190219Y13841854D02*
X67769279Y13791274D01*
X67475934Y13346983D02*
X68341959Y13846983D01*
X68151483Y14176897D01*
X68062624Y14235566D01*
X67997576Y14252996D01*
X67891287Y14246616D01*
X67767570Y14175188D01*
X67708900Y14086329D01*
X67691471Y14021280D01*
X67697850Y13914992D01*
X67888327Y13585078D01*
X66690219Y14707880D02*
X67269279Y14657300D01*
X66975934Y14213008D02*
X67841959Y14713008D01*
X67651483Y15042922D01*
X67562624Y15101591D01*
X67497576Y15119021D01*
X67391287Y15112642D01*
X67267570Y15041213D01*
X67208900Y14952355D01*
X67191471Y14887306D01*
X67197850Y14781018D01*
X67388327Y14451103D01*
X66540982Y15061604D02*
X66428314Y15161512D01*
X66309267Y15367708D01*
X66302887Y15473997D01*
X66320317Y15539045D01*
X66378986Y15627904D01*
X66461465Y15675523D01*
X66567753Y15681903D01*
X66632802Y15664473D01*
X66721660Y15605804D01*
X66858137Y15464656D01*
X66946996Y15405987D01*
X67012044Y15388557D01*
X67118333Y15394937D01*
X67200811Y15442556D01*
X67259480Y15531414D01*
X67276910Y15596463D01*
X67270530Y15702751D01*
X67151483Y15908948D01*
X67038815Y16008856D01*
X72993989Y11394417D02*
X73044569Y11973476D01*
X73488860Y11680131D02*
X72988860Y12546156D01*
X72658946Y12355680D01*
X72600277Y12266822D01*
X72582847Y12201773D01*
X72589227Y12095485D01*
X72660655Y11971767D01*
X72749514Y11913098D01*
X72814563Y11895668D01*
X72920851Y11902048D01*
X73250765Y12092524D01*
X72360930Y11633763D02*
X72072255Y11467097D01*
X72210442Y10942036D02*
X72622835Y11180131D01*
X72122835Y12046156D01*
X71710442Y11808061D01*
X71856718Y10792799D02*
X71756810Y10680131D01*
X71550613Y10561083D01*
X71444325Y10554704D01*
X71379276Y10572133D01*
X71290418Y10630802D01*
X71242799Y10713281D01*
X71236419Y10819569D01*
X71253849Y10884618D01*
X71312518Y10973476D01*
X71453666Y11109954D01*
X71512335Y11198812D01*
X71529764Y11263861D01*
X71523385Y11370149D01*
X71475766Y11452628D01*
X71386907Y11511297D01*
X71321858Y11528726D01*
X71215570Y11522347D01*
X71009374Y11403299D01*
X70909465Y11290631D01*
X70752597Y10705192D02*
X70463922Y10538525D01*
X70602109Y10013464D02*
X71014502Y10251559D01*
X70514502Y11117585D01*
X70102109Y10879490D01*
X69854673Y10736632D02*
X69359802Y10450918D01*
X70107237Y9727750D02*
X69607237Y10593775D01*
M02*
