G04 #@! TF.GenerationSoftware,KiCad,Pcbnew,(5.1.6-0-10_14)*
G04 #@! TF.CreationDate,2022-05-29T14:18:20+09:00*
G04 #@! TF.ProjectId,cool936,636f6f6c-3933-4362-9e6b-696361645f70,rev?*
G04 #@! TF.SameCoordinates,Original*
G04 #@! TF.FileFunction,Legend,Bot*
G04 #@! TF.FilePolarity,Positive*
%FSLAX46Y46*%
G04 Gerber Fmt 4.6, Leading zero omitted, Abs format (unit mm)*
G04 Created by KiCad (PCBNEW (5.1.6-0-10_14)) date 2022-05-29 14:18:20*
%MOMM*%
%LPD*%
G01*
G04 APERTURE LIST*
%ADD10C,0.300000*%
%ADD11C,0.150000*%
%ADD12C,0.010000*%
%ADD13C,0.120000*%
%ADD14C,0.125000*%
G04 APERTURE END LIST*
D10*
X226028571Y-2584285D02*
X224528571Y-2584285D01*
X225957142Y-2584285D02*
X226028571Y-2441428D01*
X226028571Y-2155714D01*
X225957142Y-2012857D01*
X225885714Y-1941428D01*
X225742857Y-1870000D01*
X225314285Y-1870000D01*
X225171428Y-1941428D01*
X225100000Y-2012857D01*
X225028571Y-2155714D01*
X225028571Y-2441428D01*
X225100000Y-2584285D01*
X226028571Y-3298571D02*
X225028571Y-3298571D01*
X224528571Y-3298571D02*
X224600000Y-3227142D01*
X224671428Y-3298571D01*
X224600000Y-3370000D01*
X224528571Y-3298571D01*
X224671428Y-3298571D01*
X226028571Y-4227142D02*
X225957142Y-4084285D01*
X225885714Y-4012857D01*
X225742857Y-3941428D01*
X225314285Y-3941428D01*
X225171428Y-4012857D01*
X225100000Y-4084285D01*
X225028571Y-4227142D01*
X225028571Y-4441428D01*
X225100000Y-4584285D01*
X225171428Y-4655714D01*
X225314285Y-4727142D01*
X225742857Y-4727142D01*
X225885714Y-4655714D01*
X225957142Y-4584285D01*
X226028571Y-4441428D01*
X226028571Y-4227142D01*
X226028571Y-6012857D02*
X224528571Y-6012857D01*
X225957142Y-6012857D02*
X226028571Y-5870000D01*
X226028571Y-5584285D01*
X225957142Y-5441428D01*
X225885714Y-5370000D01*
X225742857Y-5298571D01*
X225314285Y-5298571D01*
X225171428Y-5370000D01*
X225100000Y-5441428D01*
X225028571Y-5584285D01*
X225028571Y-5870000D01*
X225100000Y-6012857D01*
X225957142Y-7298571D02*
X226028571Y-7155714D01*
X226028571Y-6870000D01*
X225957142Y-6727142D01*
X225814285Y-6655714D01*
X225242857Y-6655714D01*
X225100000Y-6727142D01*
X225028571Y-6870000D01*
X225028571Y-7155714D01*
X225100000Y-7298571D01*
X225242857Y-7370000D01*
X225385714Y-7370000D01*
X225528571Y-6655714D01*
X231158571Y-53424285D02*
X229658571Y-53424285D01*
X231087142Y-53424285D02*
X231158571Y-53281428D01*
X231158571Y-52995714D01*
X231087142Y-52852857D01*
X231015714Y-52781428D01*
X230872857Y-52710000D01*
X230444285Y-52710000D01*
X230301428Y-52781428D01*
X230230000Y-52852857D01*
X230158571Y-52995714D01*
X230158571Y-53281428D01*
X230230000Y-53424285D01*
X231158571Y-54138571D02*
X230158571Y-54138571D01*
X229658571Y-54138571D02*
X229730000Y-54067142D01*
X229801428Y-54138571D01*
X229730000Y-54210000D01*
X229658571Y-54138571D01*
X229801428Y-54138571D01*
X231158571Y-55067142D02*
X231087142Y-54924285D01*
X231015714Y-54852857D01*
X230872857Y-54781428D01*
X230444285Y-54781428D01*
X230301428Y-54852857D01*
X230230000Y-54924285D01*
X230158571Y-55067142D01*
X230158571Y-55281428D01*
X230230000Y-55424285D01*
X230301428Y-55495714D01*
X230444285Y-55567142D01*
X230872857Y-55567142D01*
X231015714Y-55495714D01*
X231087142Y-55424285D01*
X231158571Y-55281428D01*
X231158571Y-55067142D01*
X231158571Y-56852857D02*
X229658571Y-56852857D01*
X231087142Y-56852857D02*
X231158571Y-56710000D01*
X231158571Y-56424285D01*
X231087142Y-56281428D01*
X231015714Y-56210000D01*
X230872857Y-56138571D01*
X230444285Y-56138571D01*
X230301428Y-56210000D01*
X230230000Y-56281428D01*
X230158571Y-56424285D01*
X230158571Y-56710000D01*
X230230000Y-56852857D01*
X231087142Y-58138571D02*
X231158571Y-57995714D01*
X231158571Y-57710000D01*
X231087142Y-57567142D01*
X230944285Y-57495714D01*
X230372857Y-57495714D01*
X230230000Y-57567142D01*
X230158571Y-57710000D01*
X230158571Y-57995714D01*
X230230000Y-58138571D01*
X230372857Y-58210000D01*
X230515714Y-58210000D01*
X230658571Y-57495714D01*
X263715714Y-42812142D02*
X263858571Y-42883571D01*
X264144285Y-42883571D01*
X264287142Y-42812142D01*
X264358571Y-42740714D01*
X264430000Y-42597857D01*
X264430000Y-42169285D01*
X264358571Y-42026428D01*
X264287142Y-41955000D01*
X264144285Y-41883571D01*
X263858571Y-41883571D01*
X263715714Y-41955000D01*
X262858571Y-42883571D02*
X263001428Y-42812142D01*
X263072857Y-42740714D01*
X263144285Y-42597857D01*
X263144285Y-42169285D01*
X263072857Y-42026428D01*
X263001428Y-41955000D01*
X262858571Y-41883571D01*
X262644285Y-41883571D01*
X262501428Y-41955000D01*
X262430000Y-42026428D01*
X262358571Y-42169285D01*
X262358571Y-42597857D01*
X262430000Y-42740714D01*
X262501428Y-42812142D01*
X262644285Y-42883571D01*
X262858571Y-42883571D01*
X261501428Y-42883571D02*
X261644285Y-42812142D01*
X261715714Y-42740714D01*
X261787142Y-42597857D01*
X261787142Y-42169285D01*
X261715714Y-42026428D01*
X261644285Y-41955000D01*
X261501428Y-41883571D01*
X261287142Y-41883571D01*
X261144285Y-41955000D01*
X261072857Y-42026428D01*
X261001428Y-42169285D01*
X261001428Y-42597857D01*
X261072857Y-42740714D01*
X261144285Y-42812142D01*
X261287142Y-42883571D01*
X261501428Y-42883571D01*
X260144285Y-42883571D02*
X260287142Y-42812142D01*
X260358571Y-42669285D01*
X260358571Y-41383571D01*
X259501428Y-42883571D02*
X259215714Y-42883571D01*
X259072857Y-42812142D01*
X259001428Y-42740714D01*
X258858571Y-42526428D01*
X258787142Y-42240714D01*
X258787142Y-41669285D01*
X258858571Y-41526428D01*
X258930000Y-41455000D01*
X259072857Y-41383571D01*
X259358571Y-41383571D01*
X259501428Y-41455000D01*
X259572857Y-41526428D01*
X259644285Y-41669285D01*
X259644285Y-42026428D01*
X259572857Y-42169285D01*
X259501428Y-42240714D01*
X259358571Y-42312142D01*
X259072857Y-42312142D01*
X258930000Y-42240714D01*
X258858571Y-42169285D01*
X258787142Y-42026428D01*
X258287142Y-41383571D02*
X257358571Y-41383571D01*
X257858571Y-41955000D01*
X257644285Y-41955000D01*
X257501428Y-42026428D01*
X257430000Y-42097857D01*
X257358571Y-42240714D01*
X257358571Y-42597857D01*
X257430000Y-42740714D01*
X257501428Y-42812142D01*
X257644285Y-42883571D01*
X258072857Y-42883571D01*
X258215714Y-42812142D01*
X258287142Y-42740714D01*
X256072857Y-41383571D02*
X256358571Y-41383571D01*
X256501428Y-41455000D01*
X256572857Y-41526428D01*
X256715714Y-41740714D01*
X256787142Y-42026428D01*
X256787142Y-42597857D01*
X256715714Y-42740714D01*
X256644285Y-42812142D01*
X256501428Y-42883571D01*
X256215714Y-42883571D01*
X256072857Y-42812142D01*
X256001428Y-42740714D01*
X255930000Y-42597857D01*
X255930000Y-42240714D01*
X256001428Y-42097857D01*
X256072857Y-42026428D01*
X256215714Y-41955000D01*
X256501428Y-41955000D01*
X256644285Y-42026428D01*
X256715714Y-42097857D01*
X256787142Y-42240714D01*
X268858571Y-45433571D02*
X268858571Y-43933571D01*
X268858571Y-45362142D02*
X269001428Y-45433571D01*
X269287142Y-45433571D01*
X269430000Y-45362142D01*
X269501428Y-45290714D01*
X269572857Y-45147857D01*
X269572857Y-44719285D01*
X269501428Y-44576428D01*
X269430000Y-44505000D01*
X269287142Y-44433571D01*
X269001428Y-44433571D01*
X268858571Y-44505000D01*
X267572857Y-45362142D02*
X267715714Y-45433571D01*
X268001428Y-45433571D01*
X268144285Y-45362142D01*
X268215714Y-45219285D01*
X268215714Y-44647857D01*
X268144285Y-44505000D01*
X268001428Y-44433571D01*
X267715714Y-44433571D01*
X267572857Y-44505000D01*
X267501428Y-44647857D01*
X267501428Y-44790714D01*
X268215714Y-44933571D01*
X266930000Y-45362142D02*
X266787142Y-45433571D01*
X266501428Y-45433571D01*
X266358571Y-45362142D01*
X266287142Y-45219285D01*
X266287142Y-45147857D01*
X266358571Y-45005000D01*
X266501428Y-44933571D01*
X266715714Y-44933571D01*
X266858571Y-44862142D01*
X266930000Y-44719285D01*
X266930000Y-44647857D01*
X266858571Y-44505000D01*
X266715714Y-44433571D01*
X266501428Y-44433571D01*
X266358571Y-44505000D01*
X265644285Y-45433571D02*
X265644285Y-44433571D01*
X265644285Y-43933571D02*
X265715714Y-44005000D01*
X265644285Y-44076428D01*
X265572857Y-44005000D01*
X265644285Y-43933571D01*
X265644285Y-44076428D01*
X264287142Y-44433571D02*
X264287142Y-45647857D01*
X264358571Y-45790714D01*
X264430000Y-45862142D01*
X264572857Y-45933571D01*
X264787142Y-45933571D01*
X264930000Y-45862142D01*
X264287142Y-45362142D02*
X264430000Y-45433571D01*
X264715714Y-45433571D01*
X264858571Y-45362142D01*
X264930000Y-45290714D01*
X265001428Y-45147857D01*
X265001428Y-44719285D01*
X264930000Y-44576428D01*
X264858571Y-44505000D01*
X264715714Y-44433571D01*
X264430000Y-44433571D01*
X264287142Y-44505000D01*
X263572857Y-44433571D02*
X263572857Y-45433571D01*
X263572857Y-44576428D02*
X263501428Y-44505000D01*
X263358571Y-44433571D01*
X263144285Y-44433571D01*
X263001428Y-44505000D01*
X262930000Y-44647857D01*
X262930000Y-45433571D01*
X261644285Y-45362142D02*
X261787142Y-45433571D01*
X262072857Y-45433571D01*
X262215714Y-45362142D01*
X262287142Y-45219285D01*
X262287142Y-44647857D01*
X262215714Y-44505000D01*
X262072857Y-44433571D01*
X261787142Y-44433571D01*
X261644285Y-44505000D01*
X261572857Y-44647857D01*
X261572857Y-44790714D01*
X262287142Y-44933571D01*
X260287142Y-45433571D02*
X260287142Y-43933571D01*
X260287142Y-45362142D02*
X260430000Y-45433571D01*
X260715714Y-45433571D01*
X260858571Y-45362142D01*
X260930000Y-45290714D01*
X261001428Y-45147857D01*
X261001428Y-44719285D01*
X260930000Y-44576428D01*
X260858571Y-44505000D01*
X260715714Y-44433571D01*
X260430000Y-44433571D01*
X260287142Y-44505000D01*
X258430000Y-45433571D02*
X258430000Y-43933571D01*
X258430000Y-44505000D02*
X258287142Y-44433571D01*
X258001428Y-44433571D01*
X257858571Y-44505000D01*
X257787142Y-44576428D01*
X257715714Y-44719285D01*
X257715714Y-45147857D01*
X257787142Y-45290714D01*
X257858571Y-45362142D01*
X258001428Y-45433571D01*
X258287142Y-45433571D01*
X258430000Y-45362142D01*
X257215714Y-44433571D02*
X256858571Y-45433571D01*
X256501428Y-44433571D02*
X256858571Y-45433571D01*
X257001428Y-45790714D01*
X257072857Y-45862142D01*
X257215714Y-45933571D01*
X254787142Y-45433571D02*
X254787142Y-44433571D01*
X254787142Y-44576428D02*
X254715714Y-44505000D01*
X254572857Y-44433571D01*
X254358571Y-44433571D01*
X254215714Y-44505000D01*
X254144285Y-44647857D01*
X254144285Y-45433571D01*
X254144285Y-44647857D02*
X254072857Y-44505000D01*
X253930000Y-44433571D01*
X253715714Y-44433571D01*
X253572857Y-44505000D01*
X253501428Y-44647857D01*
X253501428Y-45433571D01*
X252787142Y-45290714D02*
X252715714Y-45362142D01*
X252787142Y-45433571D01*
X252858571Y-45362142D01*
X252787142Y-45290714D01*
X252787142Y-45433571D01*
X252072857Y-45433571D02*
X252072857Y-43933571D01*
X251930000Y-44862142D02*
X251501428Y-45433571D01*
X251501428Y-44433571D02*
X252072857Y-45005000D01*
X250858571Y-45433571D02*
X250858571Y-44433571D01*
X250858571Y-43933571D02*
X250930000Y-44005000D01*
X250858571Y-44076428D01*
X250787142Y-44005000D01*
X250858571Y-43933571D01*
X250858571Y-44076428D01*
X267894285Y-47983571D02*
X267894285Y-46483571D01*
X267894285Y-47912142D02*
X268037142Y-47983571D01*
X268322857Y-47983571D01*
X268465714Y-47912142D01*
X268537142Y-47840714D01*
X268608571Y-47697857D01*
X268608571Y-47269285D01*
X268537142Y-47126428D01*
X268465714Y-47055000D01*
X268322857Y-46983571D01*
X268037142Y-46983571D01*
X267894285Y-47055000D01*
X266537142Y-47983571D02*
X266537142Y-47197857D01*
X266608571Y-47055000D01*
X266751428Y-46983571D01*
X267037142Y-46983571D01*
X267180000Y-47055000D01*
X266537142Y-47912142D02*
X266680000Y-47983571D01*
X267037142Y-47983571D01*
X267180000Y-47912142D01*
X267251428Y-47769285D01*
X267251428Y-47626428D01*
X267180000Y-47483571D01*
X267037142Y-47412142D01*
X266680000Y-47412142D01*
X266537142Y-47340714D01*
X266037142Y-46983571D02*
X265465714Y-46983571D01*
X265822857Y-46483571D02*
X265822857Y-47769285D01*
X265751428Y-47912142D01*
X265608571Y-47983571D01*
X265465714Y-47983571D01*
X264394285Y-47912142D02*
X264537142Y-47983571D01*
X264822857Y-47983571D01*
X264965714Y-47912142D01*
X265037142Y-47769285D01*
X265037142Y-47197857D01*
X264965714Y-47055000D01*
X264822857Y-46983571D01*
X264537142Y-46983571D01*
X264394285Y-47055000D01*
X264322857Y-47197857D01*
X264322857Y-47340714D01*
X265037142Y-47483571D01*
X262608571Y-46626428D02*
X262537142Y-46555000D01*
X262394285Y-46483571D01*
X262037142Y-46483571D01*
X261894285Y-46555000D01*
X261822857Y-46626428D01*
X261751428Y-46769285D01*
X261751428Y-46912142D01*
X261822857Y-47126428D01*
X262680000Y-47983571D01*
X261751428Y-47983571D01*
X260822857Y-46483571D02*
X260680000Y-46483571D01*
X260537142Y-46555000D01*
X260465714Y-46626428D01*
X260394285Y-46769285D01*
X260322857Y-47055000D01*
X260322857Y-47412142D01*
X260394285Y-47697857D01*
X260465714Y-47840714D01*
X260537142Y-47912142D01*
X260680000Y-47983571D01*
X260822857Y-47983571D01*
X260965714Y-47912142D01*
X261037142Y-47840714D01*
X261108571Y-47697857D01*
X261180000Y-47412142D01*
X261180000Y-47055000D01*
X261108571Y-46769285D01*
X261037142Y-46626428D01*
X260965714Y-46555000D01*
X260822857Y-46483571D01*
X259751428Y-46626428D02*
X259680000Y-46555000D01*
X259537142Y-46483571D01*
X259180000Y-46483571D01*
X259037142Y-46555000D01*
X258965714Y-46626428D01*
X258894285Y-46769285D01*
X258894285Y-46912142D01*
X258965714Y-47126428D01*
X259822857Y-47983571D01*
X258894285Y-47983571D01*
X258322857Y-46626428D02*
X258251428Y-46555000D01*
X258108571Y-46483571D01*
X257751428Y-46483571D01*
X257608571Y-46555000D01*
X257537142Y-46626428D01*
X257465714Y-46769285D01*
X257465714Y-46912142D01*
X257537142Y-47126428D01*
X258394285Y-47983571D01*
X257465714Y-47983571D01*
X256537142Y-46483571D02*
X256394285Y-46483571D01*
X256251428Y-46555000D01*
X256180000Y-46626428D01*
X256108571Y-46769285D01*
X256037142Y-47055000D01*
X256037142Y-47412142D01*
X256108571Y-47697857D01*
X256180000Y-47840714D01*
X256251428Y-47912142D01*
X256394285Y-47983571D01*
X256537142Y-47983571D01*
X256680000Y-47912142D01*
X256751428Y-47840714D01*
X256822857Y-47697857D01*
X256894285Y-47412142D01*
X256894285Y-47055000D01*
X256822857Y-46769285D01*
X256751428Y-46626428D01*
X256680000Y-46555000D01*
X256537142Y-46483571D01*
X254680000Y-46483571D02*
X255394285Y-46483571D01*
X255465714Y-47197857D01*
X255394285Y-47126428D01*
X255251428Y-47055000D01*
X254894285Y-47055000D01*
X254751428Y-47126428D01*
X254680000Y-47197857D01*
X254608571Y-47340714D01*
X254608571Y-47697857D01*
X254680000Y-47840714D01*
X254751428Y-47912142D01*
X254894285Y-47983571D01*
X255251428Y-47983571D01*
X255394285Y-47912142D01*
X255465714Y-47840714D01*
X254037142Y-46626428D02*
X253965714Y-46555000D01*
X253822857Y-46483571D01*
X253465714Y-46483571D01*
X253322857Y-46555000D01*
X253251428Y-46626428D01*
X253180000Y-46769285D01*
X253180000Y-46912142D01*
X253251428Y-47126428D01*
X254108571Y-47983571D01*
X253180000Y-47983571D01*
X252465714Y-47983571D02*
X252180000Y-47983571D01*
X252037142Y-47912142D01*
X251965714Y-47840714D01*
X251822857Y-47626428D01*
X251751428Y-47340714D01*
X251751428Y-46769285D01*
X251822857Y-46626428D01*
X251894285Y-46555000D01*
X252037142Y-46483571D01*
X252322857Y-46483571D01*
X252465714Y-46555000D01*
X252537142Y-46626428D01*
X252608571Y-46769285D01*
X252608571Y-47126428D01*
X252537142Y-47269285D01*
X252465714Y-47340714D01*
X252322857Y-47412142D01*
X252037142Y-47412142D01*
X251894285Y-47340714D01*
X251822857Y-47269285D01*
X251751428Y-47126428D01*
X263787142Y-49533571D02*
X263430000Y-50533571D01*
X263072857Y-49533571D01*
X261930000Y-50462142D02*
X262072857Y-50533571D01*
X262358571Y-50533571D01*
X262501428Y-50462142D01*
X262572857Y-50319285D01*
X262572857Y-49747857D01*
X262501428Y-49605000D01*
X262358571Y-49533571D01*
X262072857Y-49533571D01*
X261930000Y-49605000D01*
X261858571Y-49747857D01*
X261858571Y-49890714D01*
X262572857Y-50033571D01*
X261215714Y-50533571D02*
X261215714Y-49533571D01*
X261215714Y-49819285D02*
X261144285Y-49676428D01*
X261072857Y-49605000D01*
X260930000Y-49533571D01*
X260787142Y-49533571D01*
X260287142Y-50390714D02*
X260215714Y-50462142D01*
X260287142Y-50533571D01*
X260358571Y-50462142D01*
X260287142Y-50390714D01*
X260287142Y-50533571D01*
X258787142Y-50533571D02*
X259644285Y-50533571D01*
X259215714Y-50533571D02*
X259215714Y-49033571D01*
X259358571Y-49247857D01*
X259501428Y-49390714D01*
X259644285Y-49462142D01*
X258144285Y-50390714D02*
X258072857Y-50462142D01*
X258144285Y-50533571D01*
X258215714Y-50462142D01*
X258144285Y-50390714D01*
X258144285Y-50533571D01*
X256715714Y-49033571D02*
X257430000Y-49033571D01*
X257501428Y-49747857D01*
X257430000Y-49676428D01*
X257287142Y-49605000D01*
X256930000Y-49605000D01*
X256787142Y-49676428D01*
X256715714Y-49747857D01*
X256644285Y-49890714D01*
X256644285Y-50247857D01*
X256715714Y-50390714D01*
X256787142Y-50462142D01*
X256930000Y-50533571D01*
X257287142Y-50533571D01*
X257430000Y-50462142D01*
X257501428Y-50390714D01*
X255288571Y-53374285D02*
X253788571Y-53374285D01*
X255217142Y-53374285D02*
X255288571Y-53231428D01*
X255288571Y-52945714D01*
X255217142Y-52802857D01*
X255145714Y-52731428D01*
X255002857Y-52660000D01*
X254574285Y-52660000D01*
X254431428Y-52731428D01*
X254360000Y-52802857D01*
X254288571Y-52945714D01*
X254288571Y-53231428D01*
X254360000Y-53374285D01*
X255288571Y-54088571D02*
X254288571Y-54088571D01*
X253788571Y-54088571D02*
X253860000Y-54017142D01*
X253931428Y-54088571D01*
X253860000Y-54160000D01*
X253788571Y-54088571D01*
X253931428Y-54088571D01*
X255288571Y-55017142D02*
X255217142Y-54874285D01*
X255145714Y-54802857D01*
X255002857Y-54731428D01*
X254574285Y-54731428D01*
X254431428Y-54802857D01*
X254360000Y-54874285D01*
X254288571Y-55017142D01*
X254288571Y-55231428D01*
X254360000Y-55374285D01*
X254431428Y-55445714D01*
X254574285Y-55517142D01*
X255002857Y-55517142D01*
X255145714Y-55445714D01*
X255217142Y-55374285D01*
X255288571Y-55231428D01*
X255288571Y-55017142D01*
X255288571Y-56802857D02*
X253788571Y-56802857D01*
X255217142Y-56802857D02*
X255288571Y-56660000D01*
X255288571Y-56374285D01*
X255217142Y-56231428D01*
X255145714Y-56160000D01*
X255002857Y-56088571D01*
X254574285Y-56088571D01*
X254431428Y-56160000D01*
X254360000Y-56231428D01*
X254288571Y-56374285D01*
X254288571Y-56660000D01*
X254360000Y-56802857D01*
X255217142Y-58088571D02*
X255288571Y-57945714D01*
X255288571Y-57660000D01*
X255217142Y-57517142D01*
X255074285Y-57445714D01*
X254502857Y-57445714D01*
X254360000Y-57517142D01*
X254288571Y-57660000D01*
X254288571Y-57945714D01*
X254360000Y-58088571D01*
X254502857Y-58160000D01*
X254645714Y-58160000D01*
X254788571Y-57445714D01*
X212328571Y-16424285D02*
X210828571Y-16424285D01*
X212257142Y-16424285D02*
X212328571Y-16281428D01*
X212328571Y-15995714D01*
X212257142Y-15852857D01*
X212185714Y-15781428D01*
X212042857Y-15710000D01*
X211614285Y-15710000D01*
X211471428Y-15781428D01*
X211400000Y-15852857D01*
X211328571Y-15995714D01*
X211328571Y-16281428D01*
X211400000Y-16424285D01*
X212328571Y-17138571D02*
X211328571Y-17138571D01*
X210828571Y-17138571D02*
X210900000Y-17067142D01*
X210971428Y-17138571D01*
X210900000Y-17210000D01*
X210828571Y-17138571D01*
X210971428Y-17138571D01*
X212328571Y-18067142D02*
X212257142Y-17924285D01*
X212185714Y-17852857D01*
X212042857Y-17781428D01*
X211614285Y-17781428D01*
X211471428Y-17852857D01*
X211400000Y-17924285D01*
X211328571Y-18067142D01*
X211328571Y-18281428D01*
X211400000Y-18424285D01*
X211471428Y-18495714D01*
X211614285Y-18567142D01*
X212042857Y-18567142D01*
X212185714Y-18495714D01*
X212257142Y-18424285D01*
X212328571Y-18281428D01*
X212328571Y-18067142D01*
X212328571Y-19852857D02*
X210828571Y-19852857D01*
X212257142Y-19852857D02*
X212328571Y-19710000D01*
X212328571Y-19424285D01*
X212257142Y-19281428D01*
X212185714Y-19210000D01*
X212042857Y-19138571D01*
X211614285Y-19138571D01*
X211471428Y-19210000D01*
X211400000Y-19281428D01*
X211328571Y-19424285D01*
X211328571Y-19710000D01*
X211400000Y-19852857D01*
X212257142Y-21138571D02*
X212328571Y-20995714D01*
X212328571Y-20710000D01*
X212257142Y-20567142D01*
X212114285Y-20495714D01*
X211542857Y-20495714D01*
X211400000Y-20567142D01*
X211328571Y-20710000D01*
X211328571Y-20995714D01*
X211400000Y-21138571D01*
X211542857Y-21210000D01*
X211685714Y-21210000D01*
X211828571Y-20495714D01*
X221448571Y-40454285D02*
X219948571Y-40454285D01*
X221377142Y-40454285D02*
X221448571Y-40311428D01*
X221448571Y-40025714D01*
X221377142Y-39882857D01*
X221305714Y-39811428D01*
X221162857Y-39740000D01*
X220734285Y-39740000D01*
X220591428Y-39811428D01*
X220520000Y-39882857D01*
X220448571Y-40025714D01*
X220448571Y-40311428D01*
X220520000Y-40454285D01*
X221448571Y-41168571D02*
X220448571Y-41168571D01*
X219948571Y-41168571D02*
X220020000Y-41097142D01*
X220091428Y-41168571D01*
X220020000Y-41240000D01*
X219948571Y-41168571D01*
X220091428Y-41168571D01*
X221448571Y-42097142D02*
X221377142Y-41954285D01*
X221305714Y-41882857D01*
X221162857Y-41811428D01*
X220734285Y-41811428D01*
X220591428Y-41882857D01*
X220520000Y-41954285D01*
X220448571Y-42097142D01*
X220448571Y-42311428D01*
X220520000Y-42454285D01*
X220591428Y-42525714D01*
X220734285Y-42597142D01*
X221162857Y-42597142D01*
X221305714Y-42525714D01*
X221377142Y-42454285D01*
X221448571Y-42311428D01*
X221448571Y-42097142D01*
X221448571Y-43882857D02*
X219948571Y-43882857D01*
X221377142Y-43882857D02*
X221448571Y-43740000D01*
X221448571Y-43454285D01*
X221377142Y-43311428D01*
X221305714Y-43240000D01*
X221162857Y-43168571D01*
X220734285Y-43168571D01*
X220591428Y-43240000D01*
X220520000Y-43311428D01*
X220448571Y-43454285D01*
X220448571Y-43740000D01*
X220520000Y-43882857D01*
X221377142Y-45168571D02*
X221448571Y-45025714D01*
X221448571Y-44740000D01*
X221377142Y-44597142D01*
X221234285Y-44525714D01*
X220662857Y-44525714D01*
X220520000Y-44597142D01*
X220448571Y-44740000D01*
X220448571Y-45025714D01*
X220520000Y-45168571D01*
X220662857Y-45240000D01*
X220805714Y-45240000D01*
X220948571Y-44525714D01*
X266468571Y-34014285D02*
X264968571Y-34014285D01*
X266397142Y-34014285D02*
X266468571Y-33871428D01*
X266468571Y-33585714D01*
X266397142Y-33442857D01*
X266325714Y-33371428D01*
X266182857Y-33300000D01*
X265754285Y-33300000D01*
X265611428Y-33371428D01*
X265540000Y-33442857D01*
X265468571Y-33585714D01*
X265468571Y-33871428D01*
X265540000Y-34014285D01*
X266468571Y-34728571D02*
X265468571Y-34728571D01*
X264968571Y-34728571D02*
X265040000Y-34657142D01*
X265111428Y-34728571D01*
X265040000Y-34800000D01*
X264968571Y-34728571D01*
X265111428Y-34728571D01*
X266468571Y-35657142D02*
X266397142Y-35514285D01*
X266325714Y-35442857D01*
X266182857Y-35371428D01*
X265754285Y-35371428D01*
X265611428Y-35442857D01*
X265540000Y-35514285D01*
X265468571Y-35657142D01*
X265468571Y-35871428D01*
X265540000Y-36014285D01*
X265611428Y-36085714D01*
X265754285Y-36157142D01*
X266182857Y-36157142D01*
X266325714Y-36085714D01*
X266397142Y-36014285D01*
X266468571Y-35871428D01*
X266468571Y-35657142D01*
X266468571Y-37442857D02*
X264968571Y-37442857D01*
X266397142Y-37442857D02*
X266468571Y-37300000D01*
X266468571Y-37014285D01*
X266397142Y-36871428D01*
X266325714Y-36800000D01*
X266182857Y-36728571D01*
X265754285Y-36728571D01*
X265611428Y-36800000D01*
X265540000Y-36871428D01*
X265468571Y-37014285D01*
X265468571Y-37300000D01*
X265540000Y-37442857D01*
X266397142Y-38728571D02*
X266468571Y-38585714D01*
X266468571Y-38300000D01*
X266397142Y-38157142D01*
X266254285Y-38085714D01*
X265682857Y-38085714D01*
X265540000Y-38157142D01*
X265468571Y-38300000D01*
X265468571Y-38585714D01*
X265540000Y-38728571D01*
X265682857Y-38800000D01*
X265825714Y-38800000D01*
X265968571Y-38085714D01*
X206928571Y-2394285D02*
X205428571Y-2394285D01*
X206857142Y-2394285D02*
X206928571Y-2251428D01*
X206928571Y-1965714D01*
X206857142Y-1822857D01*
X206785714Y-1751428D01*
X206642857Y-1680000D01*
X206214285Y-1680000D01*
X206071428Y-1751428D01*
X206000000Y-1822857D01*
X205928571Y-1965714D01*
X205928571Y-2251428D01*
X206000000Y-2394285D01*
X206928571Y-3108571D02*
X205928571Y-3108571D01*
X205428571Y-3108571D02*
X205500000Y-3037142D01*
X205571428Y-3108571D01*
X205500000Y-3180000D01*
X205428571Y-3108571D01*
X205571428Y-3108571D01*
X206928571Y-4037142D02*
X206857142Y-3894285D01*
X206785714Y-3822857D01*
X206642857Y-3751428D01*
X206214285Y-3751428D01*
X206071428Y-3822857D01*
X206000000Y-3894285D01*
X205928571Y-4037142D01*
X205928571Y-4251428D01*
X206000000Y-4394285D01*
X206071428Y-4465714D01*
X206214285Y-4537142D01*
X206642857Y-4537142D01*
X206785714Y-4465714D01*
X206857142Y-4394285D01*
X206928571Y-4251428D01*
X206928571Y-4037142D01*
X206928571Y-5822857D02*
X205428571Y-5822857D01*
X206857142Y-5822857D02*
X206928571Y-5680000D01*
X206928571Y-5394285D01*
X206857142Y-5251428D01*
X206785714Y-5180000D01*
X206642857Y-5108571D01*
X206214285Y-5108571D01*
X206071428Y-5180000D01*
X206000000Y-5251428D01*
X205928571Y-5394285D01*
X205928571Y-5680000D01*
X206000000Y-5822857D01*
X206857142Y-7108571D02*
X206928571Y-6965714D01*
X206928571Y-6680000D01*
X206857142Y-6537142D01*
X206714285Y-6465714D01*
X206142857Y-6465714D01*
X206000000Y-6537142D01*
X205928571Y-6680000D01*
X205928571Y-6965714D01*
X206000000Y-7108571D01*
X206142857Y-7180000D01*
X206285714Y-7180000D01*
X206428571Y-6465714D01*
X242478571Y-35014285D02*
X240978571Y-35014285D01*
X242407142Y-35014285D02*
X242478571Y-34871428D01*
X242478571Y-34585714D01*
X242407142Y-34442857D01*
X242335714Y-34371428D01*
X242192857Y-34300000D01*
X241764285Y-34300000D01*
X241621428Y-34371428D01*
X241550000Y-34442857D01*
X241478571Y-34585714D01*
X241478571Y-34871428D01*
X241550000Y-35014285D01*
X242478571Y-35728571D02*
X241478571Y-35728571D01*
X240978571Y-35728571D02*
X241050000Y-35657142D01*
X241121428Y-35728571D01*
X241050000Y-35800000D01*
X240978571Y-35728571D01*
X241121428Y-35728571D01*
X242478571Y-36657142D02*
X242407142Y-36514285D01*
X242335714Y-36442857D01*
X242192857Y-36371428D01*
X241764285Y-36371428D01*
X241621428Y-36442857D01*
X241550000Y-36514285D01*
X241478571Y-36657142D01*
X241478571Y-36871428D01*
X241550000Y-37014285D01*
X241621428Y-37085714D01*
X241764285Y-37157142D01*
X242192857Y-37157142D01*
X242335714Y-37085714D01*
X242407142Y-37014285D01*
X242478571Y-36871428D01*
X242478571Y-36657142D01*
X242478571Y-38442857D02*
X240978571Y-38442857D01*
X242407142Y-38442857D02*
X242478571Y-38300000D01*
X242478571Y-38014285D01*
X242407142Y-37871428D01*
X242335714Y-37800000D01*
X242192857Y-37728571D01*
X241764285Y-37728571D01*
X241621428Y-37800000D01*
X241550000Y-37871428D01*
X241478571Y-38014285D01*
X241478571Y-38300000D01*
X241550000Y-38442857D01*
X242407142Y-39728571D02*
X242478571Y-39585714D01*
X242478571Y-39300000D01*
X242407142Y-39157142D01*
X242264285Y-39085714D01*
X241692857Y-39085714D01*
X241550000Y-39157142D01*
X241478571Y-39300000D01*
X241478571Y-39585714D01*
X241550000Y-39728571D01*
X241692857Y-39800000D01*
X241835714Y-39800000D01*
X241978571Y-39085714D01*
X188028571Y-2764285D02*
X186528571Y-2764285D01*
X187957142Y-2764285D02*
X188028571Y-2621428D01*
X188028571Y-2335714D01*
X187957142Y-2192857D01*
X187885714Y-2121428D01*
X187742857Y-2050000D01*
X187314285Y-2050000D01*
X187171428Y-2121428D01*
X187100000Y-2192857D01*
X187028571Y-2335714D01*
X187028571Y-2621428D01*
X187100000Y-2764285D01*
X188028571Y-3478571D02*
X187028571Y-3478571D01*
X186528571Y-3478571D02*
X186600000Y-3407142D01*
X186671428Y-3478571D01*
X186600000Y-3550000D01*
X186528571Y-3478571D01*
X186671428Y-3478571D01*
X188028571Y-4407142D02*
X187957142Y-4264285D01*
X187885714Y-4192857D01*
X187742857Y-4121428D01*
X187314285Y-4121428D01*
X187171428Y-4192857D01*
X187100000Y-4264285D01*
X187028571Y-4407142D01*
X187028571Y-4621428D01*
X187100000Y-4764285D01*
X187171428Y-4835714D01*
X187314285Y-4907142D01*
X187742857Y-4907142D01*
X187885714Y-4835714D01*
X187957142Y-4764285D01*
X188028571Y-4621428D01*
X188028571Y-4407142D01*
X188028571Y-6192857D02*
X186528571Y-6192857D01*
X187957142Y-6192857D02*
X188028571Y-6050000D01*
X188028571Y-5764285D01*
X187957142Y-5621428D01*
X187885714Y-5550000D01*
X187742857Y-5478571D01*
X187314285Y-5478571D01*
X187171428Y-5550000D01*
X187100000Y-5621428D01*
X187028571Y-5764285D01*
X187028571Y-6050000D01*
X187100000Y-6192857D01*
X187957142Y-7478571D02*
X188028571Y-7335714D01*
X188028571Y-7050000D01*
X187957142Y-6907142D01*
X187814285Y-6835714D01*
X187242857Y-6835714D01*
X187100000Y-6907142D01*
X187028571Y-7050000D01*
X187028571Y-7335714D01*
X187100000Y-7478571D01*
X187242857Y-7550000D01*
X187385714Y-7550000D01*
X187528571Y-6835714D01*
X236928571Y-20744285D02*
X235428571Y-20744285D01*
X236857142Y-20744285D02*
X236928571Y-20601428D01*
X236928571Y-20315714D01*
X236857142Y-20172857D01*
X236785714Y-20101428D01*
X236642857Y-20030000D01*
X236214285Y-20030000D01*
X236071428Y-20101428D01*
X236000000Y-20172857D01*
X235928571Y-20315714D01*
X235928571Y-20601428D01*
X236000000Y-20744285D01*
X236928571Y-21458571D02*
X235928571Y-21458571D01*
X235428571Y-21458571D02*
X235500000Y-21387142D01*
X235571428Y-21458571D01*
X235500000Y-21530000D01*
X235428571Y-21458571D01*
X235571428Y-21458571D01*
X236928571Y-22387142D02*
X236857142Y-22244285D01*
X236785714Y-22172857D01*
X236642857Y-22101428D01*
X236214285Y-22101428D01*
X236071428Y-22172857D01*
X236000000Y-22244285D01*
X235928571Y-22387142D01*
X235928571Y-22601428D01*
X236000000Y-22744285D01*
X236071428Y-22815714D01*
X236214285Y-22887142D01*
X236642857Y-22887142D01*
X236785714Y-22815714D01*
X236857142Y-22744285D01*
X236928571Y-22601428D01*
X236928571Y-22387142D01*
X236928571Y-24172857D02*
X235428571Y-24172857D01*
X236857142Y-24172857D02*
X236928571Y-24030000D01*
X236928571Y-23744285D01*
X236857142Y-23601428D01*
X236785714Y-23530000D01*
X236642857Y-23458571D01*
X236214285Y-23458571D01*
X236071428Y-23530000D01*
X236000000Y-23601428D01*
X235928571Y-23744285D01*
X235928571Y-24030000D01*
X236000000Y-24172857D01*
X236857142Y-25458571D02*
X236928571Y-25315714D01*
X236928571Y-25030000D01*
X236857142Y-24887142D01*
X236714285Y-24815714D01*
X236142857Y-24815714D01*
X236000000Y-24887142D01*
X235928571Y-25030000D01*
X235928571Y-25315714D01*
X236000000Y-25458571D01*
X236142857Y-25530000D01*
X236285714Y-25530000D01*
X236428571Y-24815714D01*
X193308571Y-16284285D02*
X191808571Y-16284285D01*
X193237142Y-16284285D02*
X193308571Y-16141428D01*
X193308571Y-15855714D01*
X193237142Y-15712857D01*
X193165714Y-15641428D01*
X193022857Y-15570000D01*
X192594285Y-15570000D01*
X192451428Y-15641428D01*
X192380000Y-15712857D01*
X192308571Y-15855714D01*
X192308571Y-16141428D01*
X192380000Y-16284285D01*
X193308571Y-16998571D02*
X192308571Y-16998571D01*
X191808571Y-16998571D02*
X191880000Y-16927142D01*
X191951428Y-16998571D01*
X191880000Y-17070000D01*
X191808571Y-16998571D01*
X191951428Y-16998571D01*
X193308571Y-17927142D02*
X193237142Y-17784285D01*
X193165714Y-17712857D01*
X193022857Y-17641428D01*
X192594285Y-17641428D01*
X192451428Y-17712857D01*
X192380000Y-17784285D01*
X192308571Y-17927142D01*
X192308571Y-18141428D01*
X192380000Y-18284285D01*
X192451428Y-18355714D01*
X192594285Y-18427142D01*
X193022857Y-18427142D01*
X193165714Y-18355714D01*
X193237142Y-18284285D01*
X193308571Y-18141428D01*
X193308571Y-17927142D01*
X193308571Y-19712857D02*
X191808571Y-19712857D01*
X193237142Y-19712857D02*
X193308571Y-19570000D01*
X193308571Y-19284285D01*
X193237142Y-19141428D01*
X193165714Y-19070000D01*
X193022857Y-18998571D01*
X192594285Y-18998571D01*
X192451428Y-19070000D01*
X192380000Y-19141428D01*
X192308571Y-19284285D01*
X192308571Y-19570000D01*
X192380000Y-19712857D01*
X193237142Y-20998571D02*
X193308571Y-20855714D01*
X193308571Y-20570000D01*
X193237142Y-20427142D01*
X193094285Y-20355714D01*
X192522857Y-20355714D01*
X192380000Y-20427142D01*
X192308571Y-20570000D01*
X192308571Y-20855714D01*
X192380000Y-20998571D01*
X192522857Y-21070000D01*
X192665714Y-21070000D01*
X192808571Y-20355714D01*
X266958571Y-604285D02*
X265458571Y-604285D01*
X266887142Y-604285D02*
X266958571Y-461428D01*
X266958571Y-175714D01*
X266887142Y-32857D01*
X266815714Y38571D01*
X266672857Y110000D01*
X266244285Y110000D01*
X266101428Y38571D01*
X266030000Y-32857D01*
X265958571Y-175714D01*
X265958571Y-461428D01*
X266030000Y-604285D01*
X266958571Y-1318571D02*
X265958571Y-1318571D01*
X265458571Y-1318571D02*
X265530000Y-1247142D01*
X265601428Y-1318571D01*
X265530000Y-1390000D01*
X265458571Y-1318571D01*
X265601428Y-1318571D01*
X266958571Y-2247142D02*
X266887142Y-2104285D01*
X266815714Y-2032857D01*
X266672857Y-1961428D01*
X266244285Y-1961428D01*
X266101428Y-2032857D01*
X266030000Y-2104285D01*
X265958571Y-2247142D01*
X265958571Y-2461428D01*
X266030000Y-2604285D01*
X266101428Y-2675714D01*
X266244285Y-2747142D01*
X266672857Y-2747142D01*
X266815714Y-2675714D01*
X266887142Y-2604285D01*
X266958571Y-2461428D01*
X266958571Y-2247142D01*
X266958571Y-4032857D02*
X265458571Y-4032857D01*
X266887142Y-4032857D02*
X266958571Y-3890000D01*
X266958571Y-3604285D01*
X266887142Y-3461428D01*
X266815714Y-3390000D01*
X266672857Y-3318571D01*
X266244285Y-3318571D01*
X266101428Y-3390000D01*
X266030000Y-3461428D01*
X265958571Y-3604285D01*
X265958571Y-3890000D01*
X266030000Y-4032857D01*
X266887142Y-5318571D02*
X266958571Y-5175714D01*
X266958571Y-4890000D01*
X266887142Y-4747142D01*
X266744285Y-4675714D01*
X266172857Y-4675714D01*
X266030000Y-4747142D01*
X265958571Y-4890000D01*
X265958571Y-5175714D01*
X266030000Y-5318571D01*
X266172857Y-5390000D01*
X266315714Y-5390000D01*
X266458571Y-4675714D01*
X200698571Y-53084285D02*
X199198571Y-53084285D01*
X200627142Y-53084285D02*
X200698571Y-52941428D01*
X200698571Y-52655714D01*
X200627142Y-52512857D01*
X200555714Y-52441428D01*
X200412857Y-52370000D01*
X199984285Y-52370000D01*
X199841428Y-52441428D01*
X199770000Y-52512857D01*
X199698571Y-52655714D01*
X199698571Y-52941428D01*
X199770000Y-53084285D01*
X200698571Y-53798571D02*
X199698571Y-53798571D01*
X199198571Y-53798571D02*
X199270000Y-53727142D01*
X199341428Y-53798571D01*
X199270000Y-53870000D01*
X199198571Y-53798571D01*
X199341428Y-53798571D01*
X200698571Y-54727142D02*
X200627142Y-54584285D01*
X200555714Y-54512857D01*
X200412857Y-54441428D01*
X199984285Y-54441428D01*
X199841428Y-54512857D01*
X199770000Y-54584285D01*
X199698571Y-54727142D01*
X199698571Y-54941428D01*
X199770000Y-55084285D01*
X199841428Y-55155714D01*
X199984285Y-55227142D01*
X200412857Y-55227142D01*
X200555714Y-55155714D01*
X200627142Y-55084285D01*
X200698571Y-54941428D01*
X200698571Y-54727142D01*
X200698571Y-56512857D02*
X199198571Y-56512857D01*
X200627142Y-56512857D02*
X200698571Y-56370000D01*
X200698571Y-56084285D01*
X200627142Y-55941428D01*
X200555714Y-55870000D01*
X200412857Y-55798571D01*
X199984285Y-55798571D01*
X199841428Y-55870000D01*
X199770000Y-55941428D01*
X199698571Y-56084285D01*
X199698571Y-56370000D01*
X199770000Y-56512857D01*
X200627142Y-57798571D02*
X200698571Y-57655714D01*
X200698571Y-57370000D01*
X200627142Y-57227142D01*
X200484285Y-57155714D01*
X199912857Y-57155714D01*
X199770000Y-57227142D01*
X199698571Y-57370000D01*
X199698571Y-57655714D01*
X199770000Y-57798571D01*
X199912857Y-57870000D01*
X200055714Y-57870000D01*
X200198571Y-57155714D01*
X202378571Y-40534285D02*
X200878571Y-40534285D01*
X202307142Y-40534285D02*
X202378571Y-40391428D01*
X202378571Y-40105714D01*
X202307142Y-39962857D01*
X202235714Y-39891428D01*
X202092857Y-39820000D01*
X201664285Y-39820000D01*
X201521428Y-39891428D01*
X201450000Y-39962857D01*
X201378571Y-40105714D01*
X201378571Y-40391428D01*
X201450000Y-40534285D01*
X202378571Y-41248571D02*
X201378571Y-41248571D01*
X200878571Y-41248571D02*
X200950000Y-41177142D01*
X201021428Y-41248571D01*
X200950000Y-41320000D01*
X200878571Y-41248571D01*
X201021428Y-41248571D01*
X202378571Y-42177142D02*
X202307142Y-42034285D01*
X202235714Y-41962857D01*
X202092857Y-41891428D01*
X201664285Y-41891428D01*
X201521428Y-41962857D01*
X201450000Y-42034285D01*
X201378571Y-42177142D01*
X201378571Y-42391428D01*
X201450000Y-42534285D01*
X201521428Y-42605714D01*
X201664285Y-42677142D01*
X202092857Y-42677142D01*
X202235714Y-42605714D01*
X202307142Y-42534285D01*
X202378571Y-42391428D01*
X202378571Y-42177142D01*
X202378571Y-43962857D02*
X200878571Y-43962857D01*
X202307142Y-43962857D02*
X202378571Y-43820000D01*
X202378571Y-43534285D01*
X202307142Y-43391428D01*
X202235714Y-43320000D01*
X202092857Y-43248571D01*
X201664285Y-43248571D01*
X201521428Y-43320000D01*
X201450000Y-43391428D01*
X201378571Y-43534285D01*
X201378571Y-43820000D01*
X201450000Y-43962857D01*
X202307142Y-45248571D02*
X202378571Y-45105714D01*
X202378571Y-44820000D01*
X202307142Y-44677142D01*
X202164285Y-44605714D01*
X201592857Y-44605714D01*
X201450000Y-44677142D01*
X201378571Y-44820000D01*
X201378571Y-45105714D01*
X201450000Y-45248571D01*
X201592857Y-45320000D01*
X201735714Y-45320000D01*
X201878571Y-44605714D01*
X245968571Y995714D02*
X244468571Y995714D01*
X245897142Y995714D02*
X245968571Y1138571D01*
X245968571Y1424285D01*
X245897142Y1567142D01*
X245825714Y1638571D01*
X245682857Y1710000D01*
X245254285Y1710000D01*
X245111428Y1638571D01*
X245040000Y1567142D01*
X244968571Y1424285D01*
X244968571Y1138571D01*
X245040000Y995714D01*
X245968571Y281428D02*
X244968571Y281428D01*
X244468571Y281428D02*
X244540000Y352857D01*
X244611428Y281428D01*
X244540000Y210000D01*
X244468571Y281428D01*
X244611428Y281428D01*
X245968571Y-647142D02*
X245897142Y-504285D01*
X245825714Y-432857D01*
X245682857Y-361428D01*
X245254285Y-361428D01*
X245111428Y-432857D01*
X245040000Y-504285D01*
X244968571Y-647142D01*
X244968571Y-861428D01*
X245040000Y-1004285D01*
X245111428Y-1075714D01*
X245254285Y-1147142D01*
X245682857Y-1147142D01*
X245825714Y-1075714D01*
X245897142Y-1004285D01*
X245968571Y-861428D01*
X245968571Y-647142D01*
X245968571Y-2432857D02*
X244468571Y-2432857D01*
X245897142Y-2432857D02*
X245968571Y-2290000D01*
X245968571Y-2004285D01*
X245897142Y-1861428D01*
X245825714Y-1790000D01*
X245682857Y-1718571D01*
X245254285Y-1718571D01*
X245111428Y-1790000D01*
X245040000Y-1861428D01*
X244968571Y-2004285D01*
X244968571Y-2290000D01*
X245040000Y-2432857D01*
X245897142Y-3718571D02*
X245968571Y-3575714D01*
X245968571Y-3290000D01*
X245897142Y-3147142D01*
X245754285Y-3075714D01*
X245182857Y-3075714D01*
X245040000Y-3147142D01*
X244968571Y-3290000D01*
X244968571Y-3575714D01*
X245040000Y-3718571D01*
X245182857Y-3790000D01*
X245325714Y-3790000D01*
X245468571Y-3075714D01*
D11*
X246980000Y-1190000D02*
X246480000Y-290000D01*
X246480000Y-290000D02*
X247480000Y-290000D01*
X247480000Y-290000D02*
X246980000Y-1190000D01*
X246480000Y-1290000D02*
X247480000Y-1290000D01*
X246230000Y1910000D02*
X246230000Y-3490000D01*
X246230000Y-3490000D02*
X247730000Y-3490000D01*
X247730000Y-3490000D02*
X247730000Y1910000D01*
X247730000Y1910000D02*
X246230000Y1910000D01*
X243780000Y-37450000D02*
X243280000Y-36550000D01*
X243280000Y-36550000D02*
X244280000Y-36550000D01*
X244280000Y-36550000D02*
X243780000Y-37450000D01*
X243280000Y-37550000D02*
X244280000Y-37550000D01*
X243030000Y-34350000D02*
X243030000Y-39750000D01*
X243030000Y-39750000D02*
X244530000Y-39750000D01*
X244530000Y-39750000D02*
X244530000Y-34350000D01*
X244530000Y-34350000D02*
X243030000Y-34350000D01*
X201760000Y-55490000D02*
X201260000Y-54590000D01*
X201260000Y-54590000D02*
X202260000Y-54590000D01*
X202260000Y-54590000D02*
X201760000Y-55490000D01*
X201260000Y-55590000D02*
X202260000Y-55590000D01*
X201010000Y-52390000D02*
X201010000Y-57790000D01*
X201010000Y-57790000D02*
X202510000Y-57790000D01*
X202510000Y-57790000D02*
X202510000Y-52390000D01*
X202510000Y-52390000D02*
X201010000Y-52390000D01*
X232570000Y-17010000D02*
X232070000Y-16110000D01*
X232070000Y-16110000D02*
X233070000Y-16110000D01*
X233070000Y-16110000D02*
X232570000Y-17010000D01*
X232070000Y-17110000D02*
X233070000Y-17110000D01*
X231820000Y-13910000D02*
X231820000Y-19310000D01*
X231820000Y-19310000D02*
X233320000Y-19310000D01*
X233320000Y-19310000D02*
X233320000Y-13910000D01*
X233320000Y-13910000D02*
X231820000Y-13910000D01*
X189180000Y-4820000D02*
X188680000Y-3920000D01*
X188680000Y-3920000D02*
X189680000Y-3920000D01*
X189680000Y-3920000D02*
X189180000Y-4820000D01*
X188680000Y-4920000D02*
X189680000Y-4920000D01*
X188430000Y-1720000D02*
X188430000Y-7120000D01*
X188430000Y-7120000D02*
X189930000Y-7120000D01*
X189930000Y-7120000D02*
X189930000Y-1720000D01*
X189930000Y-1720000D02*
X188430000Y-1720000D01*
X251440000Y-15910000D02*
X250940000Y-15010000D01*
X250940000Y-15010000D02*
X251940000Y-15010000D01*
X251940000Y-15010000D02*
X251440000Y-15910000D01*
X250940000Y-16010000D02*
X251940000Y-16010000D01*
X250690000Y-12810000D02*
X250690000Y-18210000D01*
X250690000Y-18210000D02*
X252190000Y-18210000D01*
X252190000Y-18210000D02*
X252190000Y-12810000D01*
X252190000Y-12810000D02*
X250690000Y-12810000D01*
X267750000Y-36220000D02*
X267250000Y-35320000D01*
X267250000Y-35320000D02*
X268250000Y-35320000D01*
X268250000Y-35320000D02*
X267750000Y-36220000D01*
X267250000Y-36320000D02*
X268250000Y-36320000D01*
X267000000Y-33120000D02*
X267000000Y-38520000D01*
X267000000Y-38520000D02*
X268500000Y-38520000D01*
X268500000Y-38520000D02*
X268500000Y-33120000D01*
X268500000Y-33120000D02*
X267000000Y-33120000D01*
X256480000Y-55475000D02*
X255980000Y-54575000D01*
X255980000Y-54575000D02*
X256980000Y-54575000D01*
X256980000Y-54575000D02*
X256480000Y-55475000D01*
X255980000Y-55575000D02*
X256980000Y-55575000D01*
X255730000Y-52375000D02*
X255730000Y-57775000D01*
X255730000Y-57775000D02*
X257230000Y-57775000D01*
X257230000Y-57775000D02*
X257230000Y-52375000D01*
X257230000Y-52375000D02*
X255730000Y-52375000D01*
X233140000Y-52440000D02*
X231640000Y-52440000D01*
X233140000Y-57840000D02*
X233140000Y-52440000D01*
X231640000Y-57840000D02*
X233140000Y-57840000D01*
X231640000Y-52440000D02*
X231640000Y-57840000D01*
X231890000Y-55640000D02*
X232890000Y-55640000D01*
X232890000Y-54640000D02*
X232390000Y-55540000D01*
X231890000Y-54640000D02*
X232890000Y-54640000D01*
X232390000Y-55540000D02*
X231890000Y-54640000D01*
X208240000Y-4690000D02*
X207740000Y-3790000D01*
X207740000Y-3790000D02*
X208740000Y-3790000D01*
X208740000Y-3790000D02*
X208240000Y-4690000D01*
X207740000Y-4790000D02*
X208740000Y-4790000D01*
X207490000Y-1590000D02*
X207490000Y-6990000D01*
X207490000Y-6990000D02*
X208990000Y-6990000D01*
X208990000Y-6990000D02*
X208990000Y-1590000D01*
X208990000Y-1590000D02*
X207490000Y-1590000D01*
X212476924Y14415544D02*
X217673076Y11415544D01*
X217673076Y11415544D02*
X217548076Y11199038D01*
X212476924Y14415544D02*
X212351924Y14199038D01*
X210726924Y11384456D02*
X210851924Y11600962D01*
X210726924Y11384456D02*
X215923076Y8384456D01*
X215923076Y8384456D02*
X216048076Y8600962D01*
X234210000Y-8490000D02*
X234210000Y-7480000D01*
X234210000Y9310000D02*
X234210000Y8310000D01*
X235210000Y-8490000D02*
X234210000Y-8490000D01*
X235260000Y9310000D02*
X234210000Y9310000D01*
X267260000Y-8490000D02*
X267260000Y-7540000D01*
X267260000Y9310000D02*
X267260000Y8310000D01*
X267260000Y-8490000D02*
X266260000Y-8490000D01*
X267260000Y9310000D02*
X266260000Y9310000D01*
X270160000Y4160000D02*
X268860000Y4160000D01*
X268860000Y4160000D02*
X268860000Y-3340000D01*
X268860000Y-3340000D02*
X270160000Y-3340000D01*
X270160000Y-3340000D02*
X270160000Y4160000D01*
X269810000Y910000D02*
X269810000Y-90000D01*
X269810000Y-90000D02*
X269160000Y410000D01*
X269160000Y410000D02*
X269810000Y910000D01*
X269660000Y760000D02*
X269660000Y60000D01*
X269510000Y660000D02*
X269510000Y160000D01*
X269360000Y560000D02*
X269360000Y260000D01*
X246430000Y-37450000D02*
X245930000Y-36550000D01*
X245930000Y-36550000D02*
X246930000Y-36550000D01*
X246930000Y-36550000D02*
X246430000Y-37450000D01*
X245930000Y-37550000D02*
X246930000Y-37550000D01*
X245680000Y-34350000D02*
X245680000Y-39750000D01*
X245680000Y-39750000D02*
X247180000Y-39750000D01*
X247180000Y-39750000D02*
X247180000Y-34350000D01*
X247180000Y-34350000D02*
X245680000Y-34350000D01*
X194340000Y-17110000D02*
X193840000Y-16210000D01*
X193840000Y-16210000D02*
X194840000Y-16210000D01*
X194840000Y-16210000D02*
X194340000Y-17110000D01*
X193840000Y-17210000D02*
X194840000Y-17210000D01*
X193590000Y-14010000D02*
X193590000Y-19410000D01*
X193590000Y-19410000D02*
X195090000Y-19410000D01*
X195090000Y-19410000D02*
X195090000Y-14010000D01*
X195090000Y-14010000D02*
X193590000Y-14010000D01*
X222500000Y-42770000D02*
X222000000Y-41870000D01*
X222000000Y-41870000D02*
X223000000Y-41870000D01*
X223000000Y-41870000D02*
X222500000Y-42770000D01*
X222000000Y-42870000D02*
X223000000Y-42870000D01*
X221750000Y-39670000D02*
X221750000Y-45070000D01*
X221750000Y-45070000D02*
X223250000Y-45070000D01*
X223250000Y-45070000D02*
X223250000Y-39670000D01*
X223250000Y-39670000D02*
X221750000Y-39670000D01*
X203500000Y-42740000D02*
X203000000Y-41840000D01*
X203000000Y-41840000D02*
X204000000Y-41840000D01*
X204000000Y-41840000D02*
X203500000Y-42740000D01*
X203000000Y-42840000D02*
X204000000Y-42840000D01*
X202750000Y-39640000D02*
X202750000Y-45040000D01*
X202750000Y-45040000D02*
X204250000Y-45040000D01*
X204250000Y-45040000D02*
X204250000Y-39640000D01*
X204250000Y-39640000D02*
X202750000Y-39640000D01*
X224732305Y15348076D02*
X214340000Y21348076D01*
X221732305Y10151924D02*
X224732305Y15348076D01*
X211340000Y16151924D02*
X221732305Y10151924D01*
X214340000Y21348076D02*
X211340000Y16151924D01*
X213520000Y-16880000D02*
X213020000Y-15980000D01*
X213020000Y-15980000D02*
X214020000Y-15980000D01*
X214020000Y-15980000D02*
X213520000Y-16880000D01*
X213020000Y-16980000D02*
X214020000Y-16980000D01*
X212770000Y-13780000D02*
X212770000Y-19180000D01*
X212770000Y-19180000D02*
X214270000Y-19180000D01*
X214270000Y-19180000D02*
X214270000Y-13780000D01*
X214270000Y-13780000D02*
X212770000Y-13780000D01*
X227340000Y-4950000D02*
X226840000Y-4050000D01*
X226840000Y-4050000D02*
X227840000Y-4050000D01*
X227840000Y-4050000D02*
X227340000Y-4950000D01*
X226840000Y-5050000D02*
X227840000Y-5050000D01*
X226590000Y-1850000D02*
X226590000Y-7250000D01*
X226590000Y-7250000D02*
X228090000Y-7250000D01*
X228090000Y-7250000D02*
X228090000Y-1850000D01*
X228090000Y-1850000D02*
X226590000Y-1850000D01*
X267830000Y-2880000D02*
X267330000Y-1980000D01*
X267330000Y-1980000D02*
X268330000Y-1980000D01*
X268330000Y-1980000D02*
X267830000Y-2880000D01*
X267330000Y-2980000D02*
X268330000Y-2980000D01*
X267080000Y220000D02*
X267080000Y-5180000D01*
X267080000Y-5180000D02*
X268580000Y-5180000D01*
X268580000Y-5180000D02*
X268580000Y220000D01*
X268580000Y220000D02*
X267080000Y220000D01*
D12*
G36*
X176468584Y-69917344D02*
G01*
X176458333Y-70001666D01*
X176726788Y-70344193D01*
X176811111Y-70354444D01*
X177153637Y-70085989D01*
X177163889Y-70001666D01*
X176895434Y-69659140D01*
X176811111Y-69648889D01*
X176468584Y-69917344D01*
G37*
X176468584Y-69917344D02*
X176458333Y-70001666D01*
X176726788Y-70344193D01*
X176811111Y-70354444D01*
X177153637Y-70085989D01*
X177163889Y-70001666D01*
X176895434Y-69659140D01*
X176811111Y-69648889D01*
X176468584Y-69917344D01*
G36*
X224228974Y-5805445D02*
G01*
X222708149Y-6679500D01*
X221626136Y-7909955D01*
X221058136Y-9353756D01*
X221079354Y-10867847D01*
X221263546Y-11446435D01*
X221690521Y-12119940D01*
X222188794Y-12489124D01*
X222572064Y-12461452D01*
X222672222Y-12146111D01*
X222898895Y-11827991D01*
X223482984Y-11911585D01*
X224280589Y-12302128D01*
X225147812Y-12904852D01*
X225940755Y-13624992D01*
X226515520Y-14367779D01*
X226699200Y-14798144D01*
X226713169Y-15966776D01*
X226211446Y-16865784D01*
X225320202Y-17336521D01*
X224669647Y-17350118D01*
X223671302Y-17152905D01*
X222936805Y-16924625D01*
X222453002Y-16918841D01*
X222311744Y-17363364D01*
X222506444Y-18095383D01*
X223018222Y-18936535D01*
X223717000Y-19824887D01*
X221498758Y-19646828D01*
X220170021Y-19584150D01*
X219335386Y-19679596D01*
X218795181Y-19962892D01*
X218683314Y-20065972D01*
X218118628Y-20848037D01*
X218212162Y-21383069D01*
X218952707Y-21646915D01*
X219428155Y-21671111D01*
X220715057Y-21896260D01*
X222054142Y-22483530D01*
X223236597Y-23300657D01*
X224053608Y-24215375D01*
X224278874Y-24743607D01*
X224482034Y-25615276D01*
X224622104Y-26146124D01*
X224545825Y-26356248D01*
X224130212Y-26534075D01*
X223304284Y-26689071D01*
X221997065Y-26830700D01*
X220137575Y-26968430D01*
X217654837Y-27111723D01*
X217204166Y-27135325D01*
X214905252Y-27340791D01*
X212372749Y-27709750D01*
X209822490Y-28199066D01*
X207470309Y-28765598D01*
X205532038Y-29366210D01*
X204992311Y-29576098D01*
X203903323Y-30192625D01*
X202956468Y-30974969D01*
X202953581Y-30978046D01*
X202301539Y-31521382D01*
X201802034Y-31679957D01*
X201752546Y-31659898D01*
X201567429Y-31670459D01*
X201649745Y-31849567D01*
X201628486Y-32375593D01*
X201261156Y-33174009D01*
X201112939Y-33403380D01*
X200599830Y-34148674D01*
X200298095Y-34591110D01*
X200271251Y-34631927D01*
X199945887Y-34545188D01*
X199116899Y-34242263D01*
X197931935Y-33778354D01*
X197246591Y-33501030D01*
X194802216Y-32325499D01*
X192971102Y-31018295D01*
X191662733Y-29497749D01*
X190786589Y-27682191D01*
X190781769Y-27668257D01*
X190155512Y-26042959D01*
X189639031Y-25100703D01*
X189239927Y-24843185D01*
X188965800Y-25272100D01*
X188824249Y-26389143D01*
X188805555Y-27227493D01*
X188721160Y-28904533D01*
X188502770Y-30785116D01*
X188274758Y-32078187D01*
X187823994Y-34753431D01*
X187555129Y-37607644D01*
X187481632Y-40381190D01*
X187616970Y-42814434D01*
X187689179Y-43366944D01*
X188353679Y-47211852D01*
X189121478Y-50676662D01*
X189971956Y-53697330D01*
X190884492Y-56209808D01*
X191838468Y-58150051D01*
X192813262Y-59454013D01*
X192893095Y-59530379D01*
X193765427Y-60339251D01*
X192703022Y-61907264D01*
X192109261Y-62812050D01*
X191720570Y-63458821D01*
X191633718Y-63651666D01*
X191960182Y-63702805D01*
X192849957Y-63731763D01*
X194161225Y-63740905D01*
X195752169Y-63732597D01*
X197480973Y-63709201D01*
X199205817Y-63673084D01*
X200784885Y-63626609D01*
X202076360Y-63572140D01*
X202938424Y-63512043D01*
X203227557Y-63458368D01*
X203153445Y-63112760D01*
X202920940Y-62774872D01*
X202609241Y-61860667D01*
X202756096Y-60449998D01*
X203353645Y-58575804D01*
X204394032Y-56271025D01*
X204542280Y-55978750D01*
X205480608Y-54258380D01*
X206203955Y-53183648D01*
X206727292Y-52733163D01*
X206825710Y-52715555D01*
X207276603Y-52503836D01*
X207267190Y-52067257D01*
X207255295Y-51631382D01*
X207657986Y-51521674D01*
X208185392Y-51578605D01*
X209112067Y-51569677D01*
X209762671Y-51331966D01*
X210082543Y-51220643D01*
X205901992Y-51220643D01*
X205834232Y-51758267D01*
X205474977Y-52686579D01*
X204953882Y-53708756D01*
X203757966Y-55895237D01*
X202908982Y-57632667D01*
X202353038Y-59052641D01*
X202036241Y-60286753D01*
X201929310Y-61094028D01*
X201770964Y-62946111D01*
X193020770Y-62946111D01*
X193602466Y-61821234D01*
X194184163Y-60696357D01*
X194662642Y-61609567D01*
X195181702Y-62265364D01*
X195975893Y-62507388D01*
X196400518Y-62522778D01*
X197215126Y-62493135D01*
X197450098Y-62318291D01*
X197231167Y-61869376D01*
X197153933Y-61750549D01*
X196861452Y-61157873D01*
X196913216Y-60570590D01*
X197289204Y-59757355D01*
X197724406Y-58753601D01*
X198200789Y-57392181D01*
X198539055Y-56243333D01*
X198882245Y-55037854D01*
X199189257Y-54110306D01*
X199387439Y-53672359D01*
X199703122Y-53771075D01*
X200246179Y-54328894D01*
X200614369Y-54818886D01*
X201257322Y-55636687D01*
X201799044Y-56144819D01*
X202130859Y-56271015D01*
X202144091Y-55943005D01*
X202093315Y-55802361D01*
X201900837Y-55276750D01*
X201547982Y-54276320D01*
X201102595Y-52993879D01*
X200985113Y-52652885D01*
X200519040Y-51218203D01*
X200287934Y-50214261D01*
X200262901Y-49417436D01*
X200415052Y-48604108D01*
X200446579Y-48484609D01*
X200839655Y-47024837D01*
X202170098Y-48226812D01*
X203210279Y-49094497D01*
X204261855Y-49863158D01*
X204608651Y-50083364D01*
X205398176Y-50646275D01*
X205875500Y-51164653D01*
X205901992Y-51220643D01*
X210082543Y-51220643D01*
X210159797Y-51193757D01*
X210654884Y-51491008D01*
X211346940Y-52253775D01*
X212185627Y-53546110D01*
X212496717Y-54889279D01*
X212458664Y-55987317D01*
X212185897Y-57020852D01*
X211635847Y-58289634D01*
X210960132Y-59488801D01*
X210310371Y-60313490D01*
X210304416Y-60318905D01*
X209789059Y-60735082D01*
X209414270Y-60735019D01*
X208924539Y-60267055D01*
X208686022Y-59991686D01*
X208108455Y-59376427D01*
X207756451Y-59106705D01*
X207723277Y-59113045D01*
X207345707Y-59739026D01*
X206876559Y-60669950D01*
X206411246Y-61692418D01*
X206045184Y-62593029D01*
X205873787Y-63158384D01*
X205878392Y-63239207D01*
X206262688Y-63316669D01*
X207210147Y-63370670D01*
X208578815Y-63402527D01*
X210226734Y-63413554D01*
X212011949Y-63405068D01*
X213792503Y-63378384D01*
X215426440Y-63334818D01*
X216771804Y-63275685D01*
X217686639Y-63202301D01*
X218023162Y-63126652D01*
X217983180Y-62755709D01*
X217798009Y-62516898D01*
X217369421Y-61606339D01*
X217501346Y-60331795D01*
X218178761Y-58737406D01*
X219386644Y-56867312D01*
X219985922Y-56088174D01*
X220587781Y-55284952D01*
X220776738Y-54791697D01*
X220605594Y-54388348D01*
X220440348Y-54194271D01*
X219938526Y-53464105D01*
X219411087Y-52446873D01*
X219309868Y-52214558D01*
X218975632Y-51371991D01*
X218934033Y-51034957D01*
X219194902Y-51062591D01*
X219384608Y-51143514D01*
X220123257Y-51349972D01*
X221213654Y-51527711D01*
X221645315Y-51573625D01*
X222540512Y-51692864D01*
X223165948Y-51952964D01*
X223720079Y-52500092D01*
X224401358Y-53480414D01*
X224553939Y-53715913D01*
X225378393Y-55131711D01*
X225750778Y-56272775D01*
X225689156Y-57390472D01*
X225211593Y-58736172D01*
X224954943Y-59296099D01*
X224311813Y-60513472D01*
X223825881Y-61073436D01*
X223458444Y-60996396D01*
X223170800Y-60302756D01*
X223155892Y-60244603D01*
X222950394Y-59624664D01*
X222715733Y-59621144D01*
X222496929Y-59886342D01*
X222039585Y-60246708D01*
X221787031Y-60206600D01*
X221655614Y-60190600D01*
X221728566Y-60346447D01*
X221658829Y-60830337D01*
X221227545Y-61619629D01*
X220869998Y-62110336D01*
X219783634Y-63475278D01*
X223609178Y-63707448D01*
X225289066Y-63838954D01*
X226799661Y-64010427D01*
X227943711Y-64196595D01*
X228427827Y-64324809D01*
X229416147Y-64602866D01*
X230343929Y-64700078D01*
X230983882Y-64608075D01*
X231138889Y-64424648D01*
X230950510Y-63942371D01*
X230649858Y-63470507D01*
X230352364Y-62875839D01*
X230440195Y-62206100D01*
X230630922Y-61727386D01*
X230933409Y-60854249D01*
X231292957Y-59553241D01*
X231636808Y-58090004D01*
X231669440Y-57935849D01*
X231963907Y-56584998D01*
X232193065Y-55804032D01*
X232427751Y-55470542D01*
X232738804Y-55462118D01*
X233032378Y-55580649D01*
X233615646Y-56072218D01*
X234333811Y-56986719D01*
X234927007Y-57945077D01*
X236027121Y-59947500D01*
X234288560Y-61096739D01*
X233146529Y-61982799D01*
X232593661Y-62726090D01*
X232550000Y-62948822D01*
X232547274Y-63659384D01*
X232544039Y-63916250D01*
X232867882Y-64052708D01*
X233741961Y-64200257D01*
X235011772Y-64336149D01*
X235807234Y-64396651D01*
X237652018Y-64530430D01*
X239598202Y-64690692D01*
X241283419Y-64847223D01*
X241587848Y-64878656D01*
X243061343Y-64991444D01*
X243949301Y-64944254D01*
X244354688Y-64731283D01*
X244360413Y-64722365D01*
X244312873Y-64196120D01*
X243810422Y-63455926D01*
X243719951Y-63358416D01*
X242599264Y-61777943D01*
X241713607Y-59696376D01*
X241134264Y-57298914D01*
X241005545Y-56306137D01*
X240841079Y-54920760D01*
X240624905Y-54024824D01*
X240272958Y-53402960D01*
X239701171Y-52839796D01*
X239628510Y-52778286D01*
X238914028Y-52095304D01*
X238651258Y-51470432D01*
X238711368Y-50560810D01*
X238736207Y-50403592D01*
X238968017Y-48973573D01*
X240101845Y-50107400D01*
X241620523Y-51179137D01*
X243570669Y-51877763D01*
X245745094Y-52130054D01*
X245824300Y-52129890D01*
X247505878Y-51806448D01*
X249044793Y-50950140D01*
X250313402Y-49699862D01*
X251184066Y-48194510D01*
X251529141Y-46572980D01*
X251521951Y-46438473D01*
X250816065Y-46438473D01*
X250773153Y-47240682D01*
X250418106Y-48125087D01*
X250306442Y-48344967D01*
X249148112Y-49904480D01*
X247617965Y-50899226D01*
X245791100Y-51310405D01*
X243742612Y-51119214D01*
X241861948Y-50459158D01*
X240719393Y-49843223D01*
X240007411Y-49171803D01*
X239477735Y-48197108D01*
X239392504Y-47994482D01*
X238959903Y-47059988D01*
X238594618Y-46471278D01*
X238459028Y-46366878D01*
X238292195Y-46678814D01*
X238200520Y-47458200D01*
X238194444Y-47753701D01*
X238117140Y-48889538D01*
X237927617Y-49856535D01*
X237893322Y-49958562D01*
X237429058Y-51371277D01*
X237294139Y-52244892D01*
X237484197Y-52661952D01*
X237746751Y-52727292D01*
X238809137Y-53070587D01*
X239577790Y-54045347D01*
X240042413Y-55636917D01*
X240104562Y-56083310D01*
X240643009Y-58971790D01*
X241525712Y-61287897D01*
X242720592Y-63028527D01*
X243983138Y-64426014D01*
X241882541Y-64188945D01*
X240264120Y-63984684D01*
X238523380Y-63733319D01*
X237752220Y-63609632D01*
X236385695Y-63456853D01*
X235091652Y-63437525D01*
X234489026Y-63498788D01*
X233575566Y-63526453D01*
X233235695Y-63214054D01*
X233476872Y-62642609D01*
X234306558Y-61893132D01*
X234339024Y-61869880D01*
X235422493Y-61098382D01*
X236386800Y-62022246D01*
X237236893Y-62757231D01*
X237719897Y-62971412D01*
X237834750Y-62648470D01*
X237580387Y-61772087D01*
X236955746Y-60325945D01*
X236171142Y-58712778D01*
X235409130Y-57216795D01*
X234826328Y-56201783D01*
X234288941Y-55516384D01*
X234185966Y-55432929D01*
X231366565Y-55432929D01*
X231317147Y-55707800D01*
X231148710Y-56399415D01*
X230908105Y-57545027D01*
X230645773Y-58903813D01*
X230631381Y-58981771D01*
X230344945Y-60307874D01*
X230033581Y-61394722D01*
X229761126Y-62022163D01*
X229742833Y-62046026D01*
X229502947Y-62625432D01*
X229744337Y-63329830D01*
X229989354Y-63878148D01*
X229800843Y-63959801D01*
X229504234Y-63858754D01*
X228840520Y-63668916D01*
X227718711Y-63408937D01*
X226375156Y-63133394D01*
X226302848Y-63119508D01*
X224842937Y-62901332D01*
X223475263Y-62799849D01*
X222510487Y-62835682D01*
X221584901Y-62875213D01*
X221287914Y-62603300D01*
X221628877Y-62036277D01*
X221900928Y-61770882D01*
X222522094Y-61407334D01*
X222923749Y-61574860D01*
X223592149Y-61848182D01*
X224337603Y-61461756D01*
X225115273Y-60450785D01*
X225627095Y-59452523D01*
X226117987Y-58229494D01*
X226453622Y-57146202D01*
X226552777Y-56546773D01*
X226347290Y-55581200D01*
X225816809Y-54336645D01*
X225090311Y-53074240D01*
X224375711Y-52138908D01*
X223684065Y-51385873D01*
X225383005Y-51560738D01*
X226511147Y-51745743D01*
X227400419Y-52011432D01*
X227640051Y-52137385D01*
X229208880Y-53277288D01*
X230282242Y-54095518D01*
X230943840Y-54673351D01*
X231277380Y-55092063D01*
X231366565Y-55432929D01*
X234185966Y-55432929D01*
X233663175Y-55009242D01*
X232815234Y-54529002D01*
X232197222Y-54217273D01*
X230656219Y-53354065D01*
X229000101Y-52283114D01*
X227856458Y-51443686D01*
X226842331Y-50689087D01*
X226039572Y-50188747D01*
X225600089Y-50035451D01*
X225573619Y-50049344D01*
X225595007Y-50405589D01*
X225748829Y-50538078D01*
X225607507Y-50640902D01*
X224891492Y-50709363D01*
X223731177Y-50734785D01*
X222916390Y-50726598D01*
X219673611Y-50661514D01*
X218527083Y-49336703D01*
X217880018Y-48645367D01*
X217465525Y-48310810D01*
X217383250Y-48335251D01*
X217510184Y-49038500D01*
X217830733Y-50159065D01*
X218264939Y-51463905D01*
X218732847Y-52719976D01*
X219154501Y-53694236D01*
X219333229Y-54018706D01*
X219615967Y-54505149D01*
X219678835Y-54934937D01*
X219468877Y-55480821D01*
X218933134Y-56315552D01*
X218394117Y-57082153D01*
X217558103Y-58339102D01*
X217088401Y-59304692D01*
X216888379Y-60220001D01*
X216857149Y-60916547D01*
X216851389Y-62591149D01*
X206808637Y-62593333D01*
X207376338Y-61402852D01*
X207769106Y-60645945D01*
X208062606Y-60446776D01*
X208451344Y-60721598D01*
X208605352Y-60873686D01*
X209268508Y-61374953D01*
X209729831Y-61535000D01*
X210430917Y-61222008D01*
X211231237Y-60385286D01*
X212031708Y-59178213D01*
X212733246Y-57754169D01*
X213236765Y-56266532D01*
X213296524Y-56013881D01*
X213323601Y-55013148D01*
X212979553Y-53799095D01*
X212230286Y-52304751D01*
X211041708Y-50463145D01*
X209379724Y-48207303D01*
X209210979Y-47988419D01*
X208631119Y-47383305D01*
X208329407Y-47356394D01*
X208327174Y-47828734D01*
X208645749Y-48721373D01*
X208882064Y-49205920D01*
X209324944Y-50089007D01*
X209587968Y-50677995D01*
X209619444Y-50786141D01*
X209322854Y-50920612D01*
X208634556Y-50940917D01*
X207856759Y-50860510D01*
X207291673Y-50692847D01*
X207273271Y-50681681D01*
X206897680Y-50145238D01*
X206581012Y-49323888D01*
X204742475Y-49323888D01*
X204374867Y-49167519D01*
X203524252Y-48551173D01*
X202886424Y-48051266D01*
X202163551Y-47375856D01*
X201464771Y-46560374D01*
X201234228Y-46239203D01*
X199999207Y-46239203D01*
X199901203Y-46630139D01*
X199673354Y-47062666D01*
X199537204Y-46840455D01*
X199484815Y-46630139D01*
X199435036Y-45729997D01*
X199484815Y-45395417D01*
X199627844Y-44962889D01*
X199807571Y-45185100D01*
X199901203Y-45395417D01*
X199999207Y-46239203D01*
X201234228Y-46239203D01*
X200871369Y-45733704D01*
X200464634Y-45024732D01*
X200325852Y-44562344D01*
X200536311Y-44475426D01*
X200669546Y-44536279D01*
X201582398Y-45246014D01*
X202748904Y-46495835D01*
X204091847Y-48202665D01*
X204147224Y-48278016D01*
X204656714Y-49025610D01*
X204742475Y-49323888D01*
X206581012Y-49323888D01*
X206504837Y-49126313D01*
X206151904Y-47844049D01*
X205896043Y-46517585D01*
X205794413Y-45366061D01*
X205805152Y-45053306D01*
X205915278Y-43719722D01*
X207385634Y-45307222D01*
X208403577Y-46422499D01*
X209414732Y-47555805D01*
X209914118Y-48129201D01*
X210575061Y-48820558D01*
X211048456Y-49170552D01*
X211162166Y-49173760D01*
X211172759Y-48756098D01*
X210977317Y-47925320D01*
X210843605Y-47507961D01*
X210571254Y-45859997D01*
X210923001Y-44465472D01*
X211841748Y-43394022D01*
X213270401Y-42715281D01*
X214951730Y-42497687D01*
X216836497Y-42735745D01*
X218345717Y-43521398D01*
X219380184Y-44592826D01*
X219818755Y-45005073D01*
X220013425Y-44900407D01*
X219944007Y-44431063D01*
X219590315Y-43749277D01*
X219507502Y-43632686D01*
X218877373Y-42238293D01*
X218732550Y-40554544D01*
X218945592Y-39310000D01*
X219198047Y-38428055D01*
X218436650Y-39296751D01*
X217841171Y-40412285D01*
X217820257Y-41153429D01*
X217860527Y-41832759D01*
X217604609Y-41981846D01*
X217231937Y-41872234D01*
X216466910Y-41733279D01*
X215317426Y-41673900D01*
X214583659Y-41685480D01*
X213274327Y-41824212D01*
X212355336Y-42175567D01*
X211629794Y-42743814D01*
X210747595Y-43774506D01*
X210097680Y-44912017D01*
X209784154Y-45940094D01*
X209825436Y-46491879D01*
X209690789Y-46498402D01*
X209162972Y-46079860D01*
X208339712Y-45317970D01*
X207874598Y-44860598D01*
X206659236Y-43715442D01*
X205826181Y-43141108D01*
X205320420Y-43154739D01*
X205086943Y-43773477D01*
X205070737Y-45014465D01*
X205115122Y-45720499D01*
X205244408Y-47016314D01*
X205409532Y-48108195D01*
X205543600Y-48658611D01*
X205641108Y-49037923D01*
X205421824Y-48886249D01*
X205072431Y-48482222D01*
X204609241Y-47748383D01*
X204492070Y-47181506D01*
X204497729Y-47163537D01*
X204466610Y-46817968D01*
X204349441Y-46810760D01*
X203967117Y-46618465D01*
X203263944Y-46033705D01*
X202427794Y-45219028D01*
X201129924Y-44064811D01*
X200087409Y-43542652D01*
X199320554Y-43649514D01*
X198849666Y-44382361D01*
X198695051Y-45738158D01*
X198695381Y-45777047D01*
X198790036Y-46656634D01*
X199027582Y-47984447D01*
X199357105Y-49530296D01*
X199727691Y-51063992D01*
X200088425Y-52355343D01*
X200269069Y-52891944D01*
X200359543Y-53250277D01*
X200127171Y-53040945D01*
X199876008Y-52715555D01*
X199800724Y-52593747D01*
X198810486Y-52593747D01*
X198201596Y-54859512D01*
X197708147Y-56534264D01*
X197199858Y-57985721D01*
X196730095Y-59081867D01*
X196352223Y-59690686D01*
X196216151Y-59771111D01*
X195972238Y-59467963D01*
X195666162Y-58713681D01*
X195582975Y-58448194D01*
X194996405Y-56045472D01*
X194657020Y-53740671D01*
X194589289Y-51741634D01*
X194683535Y-50807545D01*
X194984696Y-49075924D01*
X196897591Y-50834836D01*
X198810486Y-52593747D01*
X199800724Y-52593747D01*
X199441459Y-52012472D01*
X199310967Y-51546796D01*
X199312175Y-51542806D01*
X199192355Y-51397925D01*
X199091999Y-51446292D01*
X198657823Y-51357062D01*
X198113120Y-50902286D01*
X197534539Y-50363803D01*
X196677739Y-49675827D01*
X195737218Y-48980855D01*
X194907478Y-48421384D01*
X194383020Y-48139911D01*
X194328342Y-48129444D01*
X194216044Y-48452338D01*
X194075534Y-49305882D01*
X193934289Y-50517376D01*
X193912488Y-50743232D01*
X193864685Y-52507378D01*
X193997235Y-54485331D01*
X194277563Y-56470352D01*
X194673091Y-58255704D01*
X195151243Y-59634648D01*
X195380800Y-60061512D01*
X195717954Y-60624401D01*
X195619129Y-60708059D01*
X195211727Y-60506729D01*
X193859577Y-59433797D01*
X192680547Y-57829820D01*
X191785776Y-55866579D01*
X191456564Y-54702538D01*
X191080680Y-53038018D01*
X190638796Y-51109172D01*
X190233711Y-49364167D01*
X189335079Y-45083999D01*
X188780425Y-41357388D01*
X188564855Y-38124624D01*
X188683476Y-35325995D01*
X188947159Y-33665555D01*
X189241153Y-32002305D01*
X189455911Y-30255762D01*
X189541144Y-28903055D01*
X189570164Y-27793786D01*
X189630723Y-27320217D01*
X189745998Y-27412542D01*
X189892515Y-27844722D01*
X190069860Y-28736688D01*
X190042622Y-29362350D01*
X190048851Y-29669357D01*
X190170079Y-29637404D01*
X190538639Y-29782203D01*
X191159272Y-30353215D01*
X191603135Y-30865453D01*
X193333767Y-32512738D01*
X195614224Y-33903415D01*
X198320850Y-34991190D01*
X201329986Y-35729768D01*
X204517978Y-36072855D01*
X205562500Y-36091524D01*
X208278822Y-36028873D01*
X210510215Y-35872709D01*
X212195574Y-35630584D01*
X213273795Y-35310050D01*
X213589262Y-35099504D01*
X213772913Y-34805461D01*
X213451617Y-34755784D01*
X212864274Y-34848481D01*
X211313295Y-35076248D01*
X209542028Y-35236582D01*
X207670878Y-35331035D01*
X205820249Y-35361159D01*
X204110548Y-35328506D01*
X202662180Y-35234628D01*
X201595548Y-35081076D01*
X201031059Y-34869402D01*
X200993937Y-34695495D01*
X201415600Y-34514664D01*
X201525891Y-34560068D01*
X201713869Y-34493137D01*
X201665003Y-34277785D01*
X201773533Y-33772209D01*
X202220571Y-32956147D01*
X202864081Y-32035725D01*
X203562026Y-31217067D01*
X204092658Y-30754743D01*
X204730859Y-30469685D01*
X205875845Y-30075757D01*
X207347467Y-29625109D01*
X208965575Y-29169893D01*
X210550018Y-28762260D01*
X211920648Y-28454362D01*
X212265278Y-28388868D01*
X213359066Y-28236393D01*
X214977968Y-28065658D01*
X216942396Y-27893083D01*
X219072759Y-27735087D01*
X220202777Y-27663169D01*
X223007899Y-27468668D01*
X225223105Y-27237381D01*
X226964028Y-26935712D01*
X228346301Y-26530068D01*
X229485557Y-25986854D01*
X230497428Y-25272475D01*
X231457355Y-24393425D01*
X232361896Y-23433226D01*
X231484477Y-23433226D01*
X231388958Y-23691908D01*
X231217368Y-23895966D01*
X230021134Y-24837389D01*
X228277919Y-25682975D01*
X227081944Y-26095306D01*
X225670833Y-26520362D01*
X225370946Y-25329365D01*
X224824754Y-24223469D01*
X223777294Y-23011681D01*
X223463957Y-22723740D01*
X221941414Y-21629427D01*
X220538158Y-21098419D01*
X220507062Y-21093271D01*
X219687732Y-20875770D01*
X219356715Y-20601626D01*
X219375141Y-20524905D01*
X219884995Y-20316779D01*
X220938723Y-20314558D01*
X222411884Y-20497954D01*
X224180036Y-20846679D01*
X226118738Y-21340446D01*
X228041535Y-21937773D01*
X229667287Y-22498677D01*
X230719273Y-22895576D01*
X231293126Y-23187437D01*
X231484477Y-23433226D01*
X232361896Y-23433226D01*
X232497588Y-23289185D01*
X233053264Y-22426343D01*
X233073813Y-22293712D01*
X231965014Y-22293712D01*
X231529214Y-22272890D01*
X230544198Y-21951733D01*
X230092350Y-21786753D01*
X228790921Y-21260200D01*
X228034867Y-20798293D01*
X227687440Y-20285348D01*
X227611111Y-19687637D01*
X227823842Y-19035425D01*
X228390523Y-18871778D01*
X229203887Y-19151326D01*
X230156669Y-19828697D01*
X231141600Y-20858522D01*
X231502526Y-21333584D01*
X231929987Y-21989007D01*
X231965014Y-22293712D01*
X233073813Y-22293712D01*
X233182087Y-21594893D01*
X232941760Y-20584832D01*
X232688084Y-19914361D01*
X232201712Y-18922407D01*
X231807707Y-18538744D01*
X231556356Y-18784377D01*
X231491666Y-19414600D01*
X231491666Y-20333090D01*
X230244669Y-19238212D01*
X229076229Y-18427058D01*
X228086123Y-18152232D01*
X227367057Y-18420508D01*
X227055454Y-19005227D01*
X226972805Y-19806662D01*
X227069552Y-20239950D01*
X227062457Y-20552851D01*
X226588112Y-20590369D01*
X225817749Y-20377371D01*
X224922596Y-19938728D01*
X224899598Y-19924781D01*
X224032503Y-19263926D01*
X223418450Y-18567219D01*
X223381799Y-18503626D01*
X223165866Y-17988873D01*
X223419422Y-17892452D01*
X223888451Y-17993826D01*
X225311702Y-18061136D01*
X226457760Y-17526061D01*
X227083013Y-16730156D01*
X227444443Y-15536217D01*
X227208837Y-14394706D01*
X226343105Y-13201456D01*
X225792645Y-12667939D01*
X224316985Y-11522040D01*
X223075919Y-10947476D01*
X222146119Y-10959028D01*
X221724194Y-10879712D01*
X221623607Y-10247936D01*
X221849154Y-9141805D01*
X222004914Y-8660257D01*
X222487985Y-7837002D01*
X223222861Y-7157556D01*
X224049752Y-6692050D01*
X224808868Y-6510614D01*
X225340419Y-6683381D01*
X225494444Y-7128727D01*
X225690123Y-7882649D01*
X226056523Y-8558267D01*
X226294102Y-8866440D01*
X226580428Y-9088885D01*
X227021870Y-9237537D01*
X227724798Y-9324330D01*
X228795580Y-9361198D01*
X230340586Y-9360075D01*
X232466185Y-9332896D01*
X232902777Y-9326396D01*
X235043776Y-9389360D01*
X237142540Y-9620498D01*
X239059496Y-9988182D01*
X240655076Y-10460780D01*
X241789707Y-11006663D01*
X242254570Y-11445703D01*
X242118147Y-11517931D01*
X241519366Y-11294511D01*
X241061946Y-11070098D01*
X239979925Y-10635224D01*
X238983763Y-10439054D01*
X238730615Y-10445080D01*
X238323246Y-10534704D01*
X238263238Y-10722401D01*
X238617131Y-11094577D01*
X239451465Y-11737638D01*
X240076416Y-12192687D01*
X241368657Y-13241735D01*
X242592231Y-14427436D01*
X243484246Y-15494814D01*
X243490655Y-15504104D01*
X244644697Y-17181447D01*
X242296201Y-15381423D01*
X240795916Y-14370473D01*
X240266849Y-14086389D01*
X238900000Y-14086389D01*
X238723611Y-14262778D01*
X238547222Y-14086389D01*
X238723611Y-13910000D01*
X238900000Y-14086389D01*
X240266849Y-14086389D01*
X239163065Y-13493710D01*
X237602995Y-12845355D01*
X236321055Y-12519626D01*
X236013748Y-12498889D01*
X235708474Y-12677213D01*
X235861580Y-13071055D01*
X236369934Y-13468713D01*
X236518750Y-13535507D01*
X237305049Y-13948553D01*
X238281558Y-14589175D01*
X238547222Y-14784502D01*
X239781944Y-15719897D01*
X237665278Y-15274259D01*
X238723611Y-16188059D01*
X239374039Y-16853897D01*
X239683023Y-17380000D01*
X239685009Y-17472429D01*
X239802996Y-17686052D01*
X239925455Y-17634486D01*
X240346490Y-17732784D01*
X240816140Y-18215927D01*
X241189684Y-18939320D01*
X241356299Y-19628109D01*
X241294000Y-20071896D01*
X241010912Y-20080054D01*
X240771373Y-19713204D01*
X240800152Y-19618262D01*
X240604167Y-19429726D01*
X239926877Y-19304221D01*
X239890666Y-19301450D01*
X239174743Y-19313755D01*
X239005863Y-19564429D01*
X239090739Y-19830617D01*
X239709145Y-21388400D01*
X240129485Y-22658571D01*
X240295308Y-23470154D01*
X240295626Y-23479999D01*
X240562371Y-24174151D01*
X240859538Y-24509318D01*
X241467019Y-25208261D01*
X241758709Y-25699041D01*
X241751938Y-25879394D01*
X241371770Y-25586464D01*
X240878889Y-25076657D01*
X239988024Y-24258910D01*
X239321858Y-23976990D01*
X238951760Y-24247814D01*
X238900000Y-24607572D01*
X238731601Y-25195407D01*
X238315863Y-26116601D01*
X237786972Y-27111007D01*
X237279113Y-27918480D01*
X237048273Y-28197500D01*
X236824399Y-28343449D01*
X236924282Y-28116596D01*
X236965476Y-27455343D01*
X236622377Y-26735841D01*
X236077506Y-26288788D01*
X235898036Y-26257222D01*
X235395798Y-26542510D01*
X234886851Y-27231119D01*
X234874953Y-27253873D01*
X234319010Y-28055489D01*
X233450346Y-29034030D01*
X232837421Y-29628239D01*
X231315277Y-31005955D01*
X231138889Y-29629304D01*
X230895177Y-28636415D01*
X230537732Y-28144052D01*
X230158133Y-28221676D01*
X229912831Y-28699367D01*
X229481762Y-29257965D01*
X228626476Y-29905970D01*
X227987562Y-30269153D01*
X226782314Y-30917641D01*
X225326629Y-31761203D01*
X224087394Y-32522201D01*
X222915632Y-33241317D01*
X222113337Y-33624966D01*
X221467299Y-33735545D01*
X220764309Y-33635456D01*
X220502002Y-33571540D01*
X219580639Y-33400425D01*
X218976381Y-33403544D01*
X218896590Y-33443039D01*
X218758261Y-33587803D01*
X218721970Y-33712564D01*
X218867449Y-33841340D01*
X219274430Y-33998146D01*
X220022647Y-34206999D01*
X221191831Y-34491915D01*
X222861714Y-34876910D01*
X225112031Y-35386001D01*
X226048384Y-35597236D01*
X227840071Y-36079994D01*
X229732884Y-36723592D01*
X231621233Y-37475743D01*
X233399525Y-38284159D01*
X234962167Y-39096550D01*
X236203567Y-39860629D01*
X237018133Y-40524108D01*
X237300272Y-41034698D01*
X237264601Y-41151390D01*
X237248289Y-41369747D01*
X237413021Y-41297166D01*
X237801679Y-41443548D01*
X238501217Y-42063187D01*
X239407293Y-43058904D01*
X239751064Y-43474751D01*
X241013466Y-44941739D01*
X242073226Y-45900769D01*
X243089569Y-46449573D01*
X244221721Y-46685882D01*
X245035534Y-46718333D01*
X246453020Y-46497781D01*
X247322664Y-45860137D01*
X247637459Y-44841419D01*
X247567397Y-44454676D01*
X246659792Y-44454676D01*
X246591122Y-45294882D01*
X246425926Y-45777592D01*
X245798167Y-45990385D01*
X244781963Y-45945754D01*
X243640637Y-45656468D01*
X243597271Y-45640425D01*
X242972159Y-45243828D01*
X242007057Y-44440447D01*
X240834333Y-43347604D01*
X239602549Y-42099726D01*
X238176539Y-40538617D01*
X237265484Y-39377996D01*
X236853235Y-38553876D01*
X236923642Y-38002268D01*
X237460558Y-37659186D01*
X238432224Y-37462561D01*
X240032880Y-37578635D01*
X241723372Y-38220261D01*
X243362604Y-39267531D01*
X244809481Y-40600536D01*
X245922907Y-42099367D01*
X246561786Y-43644115D01*
X246659792Y-44454676D01*
X247567397Y-44454676D01*
X247390396Y-43477645D01*
X246574467Y-41804833D01*
X246126120Y-41113512D01*
X245456140Y-40018889D01*
X245208572Y-39317337D01*
X245284578Y-39112241D01*
X245751325Y-39182068D01*
X246482640Y-39607294D01*
X247268595Y-40221144D01*
X247899261Y-40856847D01*
X248164711Y-41347628D01*
X248160416Y-41396892D01*
X248329011Y-41695998D01*
X248474901Y-41691250D01*
X248947116Y-41920579D01*
X249506967Y-42683495D01*
X250067946Y-43829860D01*
X250543548Y-45209534D01*
X250580899Y-45346356D01*
X250816065Y-46438473D01*
X251521951Y-46438473D01*
X251496257Y-45957807D01*
X250848791Y-43732817D01*
X249542286Y-41610943D01*
X247621278Y-39642492D01*
X245130303Y-37877765D01*
X243609619Y-37049903D01*
X242393389Y-36444627D01*
X241698494Y-36065067D01*
X241419932Y-35812108D01*
X241452706Y-35586632D01*
X241691815Y-35289525D01*
X241715147Y-35261581D01*
X242352993Y-34825222D01*
X243271891Y-34800008D01*
X244567811Y-35198392D01*
X245885074Y-35802693D01*
X247595374Y-36806039D01*
X248926498Y-37990970D01*
X250110303Y-39527323D01*
X250403242Y-39895680D01*
X250489719Y-39724852D01*
X250432776Y-39023555D01*
X250389948Y-38508939D01*
X250459401Y-38275745D01*
X250727762Y-38372127D01*
X251281660Y-38846238D01*
X252207722Y-39746230D01*
X252812713Y-40346471D01*
X253894121Y-41396787D01*
X254796064Y-42228371D01*
X255399855Y-42734260D01*
X255577046Y-42837778D01*
X255884134Y-42595859D01*
X255782311Y-41942984D01*
X255339237Y-40988471D01*
X255050054Y-40525709D01*
X254317374Y-40525709D01*
X254015320Y-40361619D01*
X253264114Y-39712417D01*
X252801031Y-39280975D01*
X251586365Y-38166658D01*
X250348600Y-37086075D01*
X250264280Y-37016944D01*
X249130555Y-37016944D01*
X248954166Y-37193333D01*
X248777777Y-37016944D01*
X248954166Y-36840555D01*
X249130555Y-37016944D01*
X250264280Y-37016944D01*
X249342146Y-36260921D01*
X249284391Y-36216514D01*
X248264202Y-35498015D01*
X247322424Y-34932626D01*
X246991335Y-34774118D01*
X244395883Y-33740429D01*
X244315385Y-33710069D01*
X242357475Y-33710069D01*
X241598876Y-34532507D01*
X240976549Y-35171566D01*
X240564513Y-35322146D01*
X240083188Y-35003537D01*
X239716487Y-34662395D01*
X239022842Y-33824529D01*
X238947404Y-33254941D01*
X239439871Y-32996292D01*
X240449942Y-33091240D01*
X241281650Y-33335034D01*
X242357475Y-33710069D01*
X244315385Y-33710069D01*
X242369987Y-32976359D01*
X240838170Y-32465628D01*
X239724952Y-32191952D01*
X238954857Y-32139050D01*
X238452406Y-32290638D01*
X238142122Y-32630436D01*
X238043724Y-32843930D01*
X238070427Y-33737111D01*
X238783597Y-34748412D01*
X240175384Y-35870516D01*
X242237939Y-37096106D01*
X243058615Y-37519099D01*
X244133328Y-38118014D01*
X244846030Y-38637474D01*
X245059944Y-38976640D01*
X245053470Y-38989811D01*
X244624650Y-39094131D01*
X244069854Y-38789351D01*
X243393748Y-38376836D01*
X242287012Y-37790121D01*
X240963743Y-37141600D01*
X240663889Y-37001357D01*
X238896298Y-36170170D01*
X237671266Y-35549220D01*
X236885217Y-35065338D01*
X236434576Y-34645356D01*
X236215766Y-34216107D01*
X236136333Y-33803003D01*
X236271945Y-32787940D01*
X236981972Y-32085444D01*
X238293194Y-31680210D01*
X240066314Y-31556733D01*
X241558571Y-31644616D01*
X242996533Y-31957589D01*
X244538132Y-32554234D01*
X246341302Y-33493130D01*
X248072222Y-34526272D01*
X249400574Y-35477856D01*
X250907767Y-36754586D01*
X252381612Y-38158706D01*
X253609923Y-39492461D01*
X254151388Y-40191944D01*
X254317374Y-40525709D01*
X255050054Y-40525709D01*
X254622574Y-39841640D01*
X253699981Y-38611812D01*
X252639119Y-37408306D01*
X251609243Y-36426968D01*
X250700324Y-35563416D01*
X250060845Y-34801542D01*
X249836284Y-34332584D01*
X249615040Y-33780417D01*
X249040723Y-32922204D01*
X248391489Y-32123714D01*
X247622901Y-31237240D01*
X247292278Y-30784725D01*
X247367386Y-30674087D01*
X247815991Y-30813242D01*
X247950517Y-30864017D01*
X248835098Y-31255660D01*
X250003344Y-31841532D01*
X250718055Y-32226859D01*
X252940562Y-33457201D01*
X254618673Y-34369655D01*
X255819807Y-34997750D01*
X256611382Y-35375017D01*
X257060815Y-35534985D01*
X257235523Y-35511182D01*
X257244444Y-35472695D01*
X256992109Y-35050778D01*
X256306992Y-34277525D01*
X255760117Y-33723889D01*
X254951389Y-33723889D01*
X253439623Y-32975640D01*
X252532468Y-32428476D01*
X252151461Y-31972946D01*
X252171213Y-31833633D01*
X252198188Y-31604402D01*
X252034571Y-31674726D01*
X251561897Y-31635818D01*
X250643717Y-31324043D01*
X249455286Y-30801894D01*
X249105564Y-30630319D01*
X248406826Y-30314166D01*
X246661111Y-30314166D01*
X246484722Y-30490555D01*
X246308333Y-30314166D01*
X246484722Y-30137778D01*
X246661111Y-30314166D01*
X248406826Y-30314166D01*
X247525778Y-29915525D01*
X246086518Y-29405623D01*
X244910498Y-29129609D01*
X244120433Y-29116482D01*
X243838889Y-29385772D01*
X244112525Y-29763399D01*
X244243528Y-29785000D01*
X244786634Y-29997391D01*
X245555953Y-30530321D01*
X246376518Y-31227421D01*
X247073360Y-31932324D01*
X247471510Y-32488663D01*
X247492679Y-32688733D01*
X247480030Y-32902419D01*
X247647237Y-32828237D01*
X248087794Y-32904034D01*
X248419712Y-33302897D01*
X248668014Y-33854571D01*
X248674016Y-34018333D01*
X248331022Y-33855537D01*
X247523017Y-33420243D01*
X246396388Y-32792089D01*
X245838641Y-32475803D01*
X243293267Y-31255812D01*
X240997173Y-30627185D01*
X238983478Y-30591095D01*
X237285301Y-31148716D01*
X236079362Y-32130149D01*
X235436722Y-32961093D01*
X235060291Y-33639311D01*
X235019444Y-33817675D01*
X235277259Y-34329095D01*
X235911969Y-35043861D01*
X236715474Y-35770875D01*
X237479673Y-36319035D01*
X237942136Y-36501586D01*
X237948897Y-36626856D01*
X237430569Y-36920559D01*
X237224305Y-37013723D01*
X236318977Y-37620472D01*
X236077778Y-38255456D01*
X235943068Y-38755034D01*
X235719245Y-38777277D01*
X235534246Y-38336280D01*
X235597364Y-38172783D01*
X235612472Y-37954262D01*
X235464811Y-38018054D01*
X234992232Y-37986712D01*
X234062665Y-37701703D01*
X232852595Y-37220040D01*
X232476610Y-37052718D01*
X230886835Y-36371369D01*
X229208384Y-35719727D01*
X227797398Y-35235864D01*
X227764222Y-35225776D01*
X226612222Y-34852734D01*
X225735068Y-34523759D01*
X225371206Y-34340853D01*
X225177594Y-33841944D01*
X224436111Y-33841944D01*
X224257111Y-34281001D01*
X224056875Y-34303495D01*
X223692398Y-33939294D01*
X223677639Y-33841944D01*
X223952283Y-33428301D01*
X224056875Y-33380393D01*
X224378551Y-33550686D01*
X224436111Y-33841944D01*
X225177594Y-33841944D01*
X225153682Y-33780329D01*
X225494454Y-33064424D01*
X226303019Y-32315001D01*
X227306242Y-31735345D01*
X228452215Y-31146152D01*
X229433540Y-30542999D01*
X229794600Y-30267980D01*
X230317865Y-29836196D01*
X230439907Y-29941758D01*
X230311272Y-30545976D01*
X230058068Y-31470269D01*
X229867928Y-32045282D01*
X229866220Y-32518062D01*
X230041995Y-32607222D01*
X230614512Y-32387887D01*
X231510604Y-31825087D01*
X232542628Y-31061634D01*
X233522940Y-30240337D01*
X234263896Y-29504007D01*
X234470085Y-29237141D01*
X234993491Y-28682277D01*
X235439953Y-28592158D01*
X235442227Y-28593543D01*
X235677712Y-28627998D01*
X235626395Y-28499747D01*
X235610396Y-27947548D01*
X235742875Y-27651490D01*
X235983211Y-27468182D01*
X236080731Y-27777765D01*
X236040425Y-28383229D01*
X235867284Y-29087564D01*
X235696418Y-29485628D01*
X235448336Y-30185690D01*
X235716060Y-30406872D01*
X236211986Y-30281537D01*
X236728509Y-29856600D01*
X237435338Y-29001417D01*
X238197836Y-27912018D01*
X238881362Y-26784431D01*
X239351277Y-25814684D01*
X239424302Y-25604559D01*
X239675510Y-24775507D01*
X240803855Y-25869142D01*
X241580951Y-26536381D01*
X242203489Y-26923547D01*
X242356378Y-26962778D01*
X242723809Y-26707865D01*
X242719237Y-26094451D01*
X242364379Y-25349519D01*
X242180078Y-25120092D01*
X241801515Y-24666039D01*
X241940238Y-24607715D01*
X242502006Y-24807270D01*
X243245598Y-25188276D01*
X244421575Y-25903279D01*
X245898662Y-26861899D01*
X247545584Y-27973754D01*
X249231066Y-29148465D01*
X250823835Y-30295649D01*
X252192614Y-31324927D01*
X253206130Y-32145918D01*
X253363889Y-32285526D01*
X254951389Y-33723889D01*
X255760117Y-33723889D01*
X255296925Y-33254972D01*
X254069739Y-32085156D01*
X252733267Y-30870111D01*
X251395340Y-29711873D01*
X250163790Y-28712479D01*
X249836111Y-28462573D01*
X247889716Y-27069373D01*
X246012605Y-25843227D01*
X244330259Y-24858581D01*
X242968157Y-24189883D01*
X242204235Y-23934601D01*
X241544753Y-23688421D01*
X241088672Y-23150930D01*
X240680673Y-22129911D01*
X240636897Y-21994935D01*
X240333217Y-20856741D01*
X240337210Y-20316445D01*
X240644564Y-20390356D01*
X240970410Y-20733431D01*
X241180087Y-21276421D01*
X241101800Y-21495546D01*
X241083638Y-21629012D01*
X241239785Y-21556088D01*
X241760783Y-21598578D01*
X242499295Y-22006403D01*
X242581280Y-22068914D01*
X243271612Y-22507545D01*
X243719620Y-22604478D01*
X243747988Y-22585159D01*
X243666090Y-22248810D01*
X243200244Y-21819382D01*
X242613675Y-21203095D01*
X242420030Y-20680968D01*
X242275033Y-20014121D01*
X241917448Y-19018725D01*
X241711146Y-18538348D01*
X241339786Y-17648574D01*
X241297190Y-17311500D01*
X241542505Y-17435016D01*
X241983341Y-17672790D01*
X242075000Y-17480581D01*
X241839029Y-17037803D01*
X241227838Y-16298237D01*
X240575694Y-15622921D01*
X239793109Y-14844190D01*
X239495411Y-14483867D01*
X239651902Y-14478717D01*
X240134722Y-14714514D01*
X240922972Y-15206277D01*
X242028973Y-15995211D01*
X243231839Y-16922772D01*
X243397916Y-17056714D01*
X244602058Y-17973953D01*
X245340667Y-18395354D01*
X245602388Y-18314510D01*
X245602777Y-18300772D01*
X245324058Y-17255450D01*
X244524055Y-15888005D01*
X243257002Y-14284468D01*
X242648277Y-13614003D01*
X241811325Y-12665966D01*
X241510881Y-12175425D01*
X241746076Y-12142674D01*
X242516039Y-12568009D01*
X243594617Y-13292947D01*
X244391297Y-13775867D01*
X244700026Y-13760216D01*
X244523925Y-13239170D01*
X244001591Y-12402967D01*
X243247224Y-11616944D01*
X240663889Y-11616944D01*
X240487500Y-11793333D01*
X240311111Y-11616944D01*
X240487500Y-11440555D01*
X240663889Y-11616944D01*
X243247224Y-11616944D01*
X242559309Y-10900163D01*
X240538373Y-9760510D01*
X237972033Y-8995903D01*
X234893539Y-8618234D01*
X233307767Y-8577725D01*
X231644746Y-8567833D01*
X229869373Y-8538678D01*
X228847851Y-8511579D01*
X227666952Y-8451695D01*
X226994496Y-8306650D01*
X226633457Y-7980088D01*
X226386810Y-7375656D01*
X226360505Y-7295154D01*
X225907744Y-6180952D01*
X225396431Y-5668620D01*
X224685191Y-5659352D01*
X224228974Y-5805445D01*
G37*
X224228974Y-5805445D02*
X222708149Y-6679500D01*
X221626136Y-7909955D01*
X221058136Y-9353756D01*
X221079354Y-10867847D01*
X221263546Y-11446435D01*
X221690521Y-12119940D01*
X222188794Y-12489124D01*
X222572064Y-12461452D01*
X222672222Y-12146111D01*
X222898895Y-11827991D01*
X223482984Y-11911585D01*
X224280589Y-12302128D01*
X225147812Y-12904852D01*
X225940755Y-13624992D01*
X226515520Y-14367779D01*
X226699200Y-14798144D01*
X226713169Y-15966776D01*
X226211446Y-16865784D01*
X225320202Y-17336521D01*
X224669647Y-17350118D01*
X223671302Y-17152905D01*
X222936805Y-16924625D01*
X222453002Y-16918841D01*
X222311744Y-17363364D01*
X222506444Y-18095383D01*
X223018222Y-18936535D01*
X223717000Y-19824887D01*
X221498758Y-19646828D01*
X220170021Y-19584150D01*
X219335386Y-19679596D01*
X218795181Y-19962892D01*
X218683314Y-20065972D01*
X218118628Y-20848037D01*
X218212162Y-21383069D01*
X218952707Y-21646915D01*
X219428155Y-21671111D01*
X220715057Y-21896260D01*
X222054142Y-22483530D01*
X223236597Y-23300657D01*
X224053608Y-24215375D01*
X224278874Y-24743607D01*
X224482034Y-25615276D01*
X224622104Y-26146124D01*
X224545825Y-26356248D01*
X224130212Y-26534075D01*
X223304284Y-26689071D01*
X221997065Y-26830700D01*
X220137575Y-26968430D01*
X217654837Y-27111723D01*
X217204166Y-27135325D01*
X214905252Y-27340791D01*
X212372749Y-27709750D01*
X209822490Y-28199066D01*
X207470309Y-28765598D01*
X205532038Y-29366210D01*
X204992311Y-29576098D01*
X203903323Y-30192625D01*
X202956468Y-30974969D01*
X202953581Y-30978046D01*
X202301539Y-31521382D01*
X201802034Y-31679957D01*
X201752546Y-31659898D01*
X201567429Y-31670459D01*
X201649745Y-31849567D01*
X201628486Y-32375593D01*
X201261156Y-33174009D01*
X201112939Y-33403380D01*
X200599830Y-34148674D01*
X200298095Y-34591110D01*
X200271251Y-34631927D01*
X199945887Y-34545188D01*
X199116899Y-34242263D01*
X197931935Y-33778354D01*
X197246591Y-33501030D01*
X194802216Y-32325499D01*
X192971102Y-31018295D01*
X191662733Y-29497749D01*
X190786589Y-27682191D01*
X190781769Y-27668257D01*
X190155512Y-26042959D01*
X189639031Y-25100703D01*
X189239927Y-24843185D01*
X188965800Y-25272100D01*
X188824249Y-26389143D01*
X188805555Y-27227493D01*
X188721160Y-28904533D01*
X188502770Y-30785116D01*
X188274758Y-32078187D01*
X187823994Y-34753431D01*
X187555129Y-37607644D01*
X187481632Y-40381190D01*
X187616970Y-42814434D01*
X187689179Y-43366944D01*
X188353679Y-47211852D01*
X189121478Y-50676662D01*
X189971956Y-53697330D01*
X190884492Y-56209808D01*
X191838468Y-58150051D01*
X192813262Y-59454013D01*
X192893095Y-59530379D01*
X193765427Y-60339251D01*
X192703022Y-61907264D01*
X192109261Y-62812050D01*
X191720570Y-63458821D01*
X191633718Y-63651666D01*
X191960182Y-63702805D01*
X192849957Y-63731763D01*
X194161225Y-63740905D01*
X195752169Y-63732597D01*
X197480973Y-63709201D01*
X199205817Y-63673084D01*
X200784885Y-63626609D01*
X202076360Y-63572140D01*
X202938424Y-63512043D01*
X203227557Y-63458368D01*
X203153445Y-63112760D01*
X202920940Y-62774872D01*
X202609241Y-61860667D01*
X202756096Y-60449998D01*
X203353645Y-58575804D01*
X204394032Y-56271025D01*
X204542280Y-55978750D01*
X205480608Y-54258380D01*
X206203955Y-53183648D01*
X206727292Y-52733163D01*
X206825710Y-52715555D01*
X207276603Y-52503836D01*
X207267190Y-52067257D01*
X207255295Y-51631382D01*
X207657986Y-51521674D01*
X208185392Y-51578605D01*
X209112067Y-51569677D01*
X209762671Y-51331966D01*
X210082543Y-51220643D01*
X205901992Y-51220643D01*
X205834232Y-51758267D01*
X205474977Y-52686579D01*
X204953882Y-53708756D01*
X203757966Y-55895237D01*
X202908982Y-57632667D01*
X202353038Y-59052641D01*
X202036241Y-60286753D01*
X201929310Y-61094028D01*
X201770964Y-62946111D01*
X193020770Y-62946111D01*
X193602466Y-61821234D01*
X194184163Y-60696357D01*
X194662642Y-61609567D01*
X195181702Y-62265364D01*
X195975893Y-62507388D01*
X196400518Y-62522778D01*
X197215126Y-62493135D01*
X197450098Y-62318291D01*
X197231167Y-61869376D01*
X197153933Y-61750549D01*
X196861452Y-61157873D01*
X196913216Y-60570590D01*
X197289204Y-59757355D01*
X197724406Y-58753601D01*
X198200789Y-57392181D01*
X198539055Y-56243333D01*
X198882245Y-55037854D01*
X199189257Y-54110306D01*
X199387439Y-53672359D01*
X199703122Y-53771075D01*
X200246179Y-54328894D01*
X200614369Y-54818886D01*
X201257322Y-55636687D01*
X201799044Y-56144819D01*
X202130859Y-56271015D01*
X202144091Y-55943005D01*
X202093315Y-55802361D01*
X201900837Y-55276750D01*
X201547982Y-54276320D01*
X201102595Y-52993879D01*
X200985113Y-52652885D01*
X200519040Y-51218203D01*
X200287934Y-50214261D01*
X200262901Y-49417436D01*
X200415052Y-48604108D01*
X200446579Y-48484609D01*
X200839655Y-47024837D01*
X202170098Y-48226812D01*
X203210279Y-49094497D01*
X204261855Y-49863158D01*
X204608651Y-50083364D01*
X205398176Y-50646275D01*
X205875500Y-51164653D01*
X205901992Y-51220643D01*
X210082543Y-51220643D01*
X210159797Y-51193757D01*
X210654884Y-51491008D01*
X211346940Y-52253775D01*
X212185627Y-53546110D01*
X212496717Y-54889279D01*
X212458664Y-55987317D01*
X212185897Y-57020852D01*
X211635847Y-58289634D01*
X210960132Y-59488801D01*
X210310371Y-60313490D01*
X210304416Y-60318905D01*
X209789059Y-60735082D01*
X209414270Y-60735019D01*
X208924539Y-60267055D01*
X208686022Y-59991686D01*
X208108455Y-59376427D01*
X207756451Y-59106705D01*
X207723277Y-59113045D01*
X207345707Y-59739026D01*
X206876559Y-60669950D01*
X206411246Y-61692418D01*
X206045184Y-62593029D01*
X205873787Y-63158384D01*
X205878392Y-63239207D01*
X206262688Y-63316669D01*
X207210147Y-63370670D01*
X208578815Y-63402527D01*
X210226734Y-63413554D01*
X212011949Y-63405068D01*
X213792503Y-63378384D01*
X215426440Y-63334818D01*
X216771804Y-63275685D01*
X217686639Y-63202301D01*
X218023162Y-63126652D01*
X217983180Y-62755709D01*
X217798009Y-62516898D01*
X217369421Y-61606339D01*
X217501346Y-60331795D01*
X218178761Y-58737406D01*
X219386644Y-56867312D01*
X219985922Y-56088174D01*
X220587781Y-55284952D01*
X220776738Y-54791697D01*
X220605594Y-54388348D01*
X220440348Y-54194271D01*
X219938526Y-53464105D01*
X219411087Y-52446873D01*
X219309868Y-52214558D01*
X218975632Y-51371991D01*
X218934033Y-51034957D01*
X219194902Y-51062591D01*
X219384608Y-51143514D01*
X220123257Y-51349972D01*
X221213654Y-51527711D01*
X221645315Y-51573625D01*
X222540512Y-51692864D01*
X223165948Y-51952964D01*
X223720079Y-52500092D01*
X224401358Y-53480414D01*
X224553939Y-53715913D01*
X225378393Y-55131711D01*
X225750778Y-56272775D01*
X225689156Y-57390472D01*
X225211593Y-58736172D01*
X224954943Y-59296099D01*
X224311813Y-60513472D01*
X223825881Y-61073436D01*
X223458444Y-60996396D01*
X223170800Y-60302756D01*
X223155892Y-60244603D01*
X222950394Y-59624664D01*
X222715733Y-59621144D01*
X222496929Y-59886342D01*
X222039585Y-60246708D01*
X221787031Y-60206600D01*
X221655614Y-60190600D01*
X221728566Y-60346447D01*
X221658829Y-60830337D01*
X221227545Y-61619629D01*
X220869998Y-62110336D01*
X219783634Y-63475278D01*
X223609178Y-63707448D01*
X225289066Y-63838954D01*
X226799661Y-64010427D01*
X227943711Y-64196595D01*
X228427827Y-64324809D01*
X229416147Y-64602866D01*
X230343929Y-64700078D01*
X230983882Y-64608075D01*
X231138889Y-64424648D01*
X230950510Y-63942371D01*
X230649858Y-63470507D01*
X230352364Y-62875839D01*
X230440195Y-62206100D01*
X230630922Y-61727386D01*
X230933409Y-60854249D01*
X231292957Y-59553241D01*
X231636808Y-58090004D01*
X231669440Y-57935849D01*
X231963907Y-56584998D01*
X232193065Y-55804032D01*
X232427751Y-55470542D01*
X232738804Y-55462118D01*
X233032378Y-55580649D01*
X233615646Y-56072218D01*
X234333811Y-56986719D01*
X234927007Y-57945077D01*
X236027121Y-59947500D01*
X234288560Y-61096739D01*
X233146529Y-61982799D01*
X232593661Y-62726090D01*
X232550000Y-62948822D01*
X232547274Y-63659384D01*
X232544039Y-63916250D01*
X232867882Y-64052708D01*
X233741961Y-64200257D01*
X235011772Y-64336149D01*
X235807234Y-64396651D01*
X237652018Y-64530430D01*
X239598202Y-64690692D01*
X241283419Y-64847223D01*
X241587848Y-64878656D01*
X243061343Y-64991444D01*
X243949301Y-64944254D01*
X244354688Y-64731283D01*
X244360413Y-64722365D01*
X244312873Y-64196120D01*
X243810422Y-63455926D01*
X243719951Y-63358416D01*
X242599264Y-61777943D01*
X241713607Y-59696376D01*
X241134264Y-57298914D01*
X241005545Y-56306137D01*
X240841079Y-54920760D01*
X240624905Y-54024824D01*
X240272958Y-53402960D01*
X239701171Y-52839796D01*
X239628510Y-52778286D01*
X238914028Y-52095304D01*
X238651258Y-51470432D01*
X238711368Y-50560810D01*
X238736207Y-50403592D01*
X238968017Y-48973573D01*
X240101845Y-50107400D01*
X241620523Y-51179137D01*
X243570669Y-51877763D01*
X245745094Y-52130054D01*
X245824300Y-52129890D01*
X247505878Y-51806448D01*
X249044793Y-50950140D01*
X250313402Y-49699862D01*
X251184066Y-48194510D01*
X251529141Y-46572980D01*
X251521951Y-46438473D01*
X250816065Y-46438473D01*
X250773153Y-47240682D01*
X250418106Y-48125087D01*
X250306442Y-48344967D01*
X249148112Y-49904480D01*
X247617965Y-50899226D01*
X245791100Y-51310405D01*
X243742612Y-51119214D01*
X241861948Y-50459158D01*
X240719393Y-49843223D01*
X240007411Y-49171803D01*
X239477735Y-48197108D01*
X239392504Y-47994482D01*
X238959903Y-47059988D01*
X238594618Y-46471278D01*
X238459028Y-46366878D01*
X238292195Y-46678814D01*
X238200520Y-47458200D01*
X238194444Y-47753701D01*
X238117140Y-48889538D01*
X237927617Y-49856535D01*
X237893322Y-49958562D01*
X237429058Y-51371277D01*
X237294139Y-52244892D01*
X237484197Y-52661952D01*
X237746751Y-52727292D01*
X238809137Y-53070587D01*
X239577790Y-54045347D01*
X240042413Y-55636917D01*
X240104562Y-56083310D01*
X240643009Y-58971790D01*
X241525712Y-61287897D01*
X242720592Y-63028527D01*
X243983138Y-64426014D01*
X241882541Y-64188945D01*
X240264120Y-63984684D01*
X238523380Y-63733319D01*
X237752220Y-63609632D01*
X236385695Y-63456853D01*
X235091652Y-63437525D01*
X234489026Y-63498788D01*
X233575566Y-63526453D01*
X233235695Y-63214054D01*
X233476872Y-62642609D01*
X234306558Y-61893132D01*
X234339024Y-61869880D01*
X235422493Y-61098382D01*
X236386800Y-62022246D01*
X237236893Y-62757231D01*
X237719897Y-62971412D01*
X237834750Y-62648470D01*
X237580387Y-61772087D01*
X236955746Y-60325945D01*
X236171142Y-58712778D01*
X235409130Y-57216795D01*
X234826328Y-56201783D01*
X234288941Y-55516384D01*
X234185966Y-55432929D01*
X231366565Y-55432929D01*
X231317147Y-55707800D01*
X231148710Y-56399415D01*
X230908105Y-57545027D01*
X230645773Y-58903813D01*
X230631381Y-58981771D01*
X230344945Y-60307874D01*
X230033581Y-61394722D01*
X229761126Y-62022163D01*
X229742833Y-62046026D01*
X229502947Y-62625432D01*
X229744337Y-63329830D01*
X229989354Y-63878148D01*
X229800843Y-63959801D01*
X229504234Y-63858754D01*
X228840520Y-63668916D01*
X227718711Y-63408937D01*
X226375156Y-63133394D01*
X226302848Y-63119508D01*
X224842937Y-62901332D01*
X223475263Y-62799849D01*
X222510487Y-62835682D01*
X221584901Y-62875213D01*
X221287914Y-62603300D01*
X221628877Y-62036277D01*
X221900928Y-61770882D01*
X222522094Y-61407334D01*
X222923749Y-61574860D01*
X223592149Y-61848182D01*
X224337603Y-61461756D01*
X225115273Y-60450785D01*
X225627095Y-59452523D01*
X226117987Y-58229494D01*
X226453622Y-57146202D01*
X226552777Y-56546773D01*
X226347290Y-55581200D01*
X225816809Y-54336645D01*
X225090311Y-53074240D01*
X224375711Y-52138908D01*
X223684065Y-51385873D01*
X225383005Y-51560738D01*
X226511147Y-51745743D01*
X227400419Y-52011432D01*
X227640051Y-52137385D01*
X229208880Y-53277288D01*
X230282242Y-54095518D01*
X230943840Y-54673351D01*
X231277380Y-55092063D01*
X231366565Y-55432929D01*
X234185966Y-55432929D01*
X233663175Y-55009242D01*
X232815234Y-54529002D01*
X232197222Y-54217273D01*
X230656219Y-53354065D01*
X229000101Y-52283114D01*
X227856458Y-51443686D01*
X226842331Y-50689087D01*
X226039572Y-50188747D01*
X225600089Y-50035451D01*
X225573619Y-50049344D01*
X225595007Y-50405589D01*
X225748829Y-50538078D01*
X225607507Y-50640902D01*
X224891492Y-50709363D01*
X223731177Y-50734785D01*
X222916390Y-50726598D01*
X219673611Y-50661514D01*
X218527083Y-49336703D01*
X217880018Y-48645367D01*
X217465525Y-48310810D01*
X217383250Y-48335251D01*
X217510184Y-49038500D01*
X217830733Y-50159065D01*
X218264939Y-51463905D01*
X218732847Y-52719976D01*
X219154501Y-53694236D01*
X219333229Y-54018706D01*
X219615967Y-54505149D01*
X219678835Y-54934937D01*
X219468877Y-55480821D01*
X218933134Y-56315552D01*
X218394117Y-57082153D01*
X217558103Y-58339102D01*
X217088401Y-59304692D01*
X216888379Y-60220001D01*
X216857149Y-60916547D01*
X216851389Y-62591149D01*
X206808637Y-62593333D01*
X207376338Y-61402852D01*
X207769106Y-60645945D01*
X208062606Y-60446776D01*
X208451344Y-60721598D01*
X208605352Y-60873686D01*
X209268508Y-61374953D01*
X209729831Y-61535000D01*
X210430917Y-61222008D01*
X211231237Y-60385286D01*
X212031708Y-59178213D01*
X212733246Y-57754169D01*
X213236765Y-56266532D01*
X213296524Y-56013881D01*
X213323601Y-55013148D01*
X212979553Y-53799095D01*
X212230286Y-52304751D01*
X211041708Y-50463145D01*
X209379724Y-48207303D01*
X209210979Y-47988419D01*
X208631119Y-47383305D01*
X208329407Y-47356394D01*
X208327174Y-47828734D01*
X208645749Y-48721373D01*
X208882064Y-49205920D01*
X209324944Y-50089007D01*
X209587968Y-50677995D01*
X209619444Y-50786141D01*
X209322854Y-50920612D01*
X208634556Y-50940917D01*
X207856759Y-50860510D01*
X207291673Y-50692847D01*
X207273271Y-50681681D01*
X206897680Y-50145238D01*
X206581012Y-49323888D01*
X204742475Y-49323888D01*
X204374867Y-49167519D01*
X203524252Y-48551173D01*
X202886424Y-48051266D01*
X202163551Y-47375856D01*
X201464771Y-46560374D01*
X201234228Y-46239203D01*
X199999207Y-46239203D01*
X199901203Y-46630139D01*
X199673354Y-47062666D01*
X199537204Y-46840455D01*
X199484815Y-46630139D01*
X199435036Y-45729997D01*
X199484815Y-45395417D01*
X199627844Y-44962889D01*
X199807571Y-45185100D01*
X199901203Y-45395417D01*
X199999207Y-46239203D01*
X201234228Y-46239203D01*
X200871369Y-45733704D01*
X200464634Y-45024732D01*
X200325852Y-44562344D01*
X200536311Y-44475426D01*
X200669546Y-44536279D01*
X201582398Y-45246014D01*
X202748904Y-46495835D01*
X204091847Y-48202665D01*
X204147224Y-48278016D01*
X204656714Y-49025610D01*
X204742475Y-49323888D01*
X206581012Y-49323888D01*
X206504837Y-49126313D01*
X206151904Y-47844049D01*
X205896043Y-46517585D01*
X205794413Y-45366061D01*
X205805152Y-45053306D01*
X205915278Y-43719722D01*
X207385634Y-45307222D01*
X208403577Y-46422499D01*
X209414732Y-47555805D01*
X209914118Y-48129201D01*
X210575061Y-48820558D01*
X211048456Y-49170552D01*
X211162166Y-49173760D01*
X211172759Y-48756098D01*
X210977317Y-47925320D01*
X210843605Y-47507961D01*
X210571254Y-45859997D01*
X210923001Y-44465472D01*
X211841748Y-43394022D01*
X213270401Y-42715281D01*
X214951730Y-42497687D01*
X216836497Y-42735745D01*
X218345717Y-43521398D01*
X219380184Y-44592826D01*
X219818755Y-45005073D01*
X220013425Y-44900407D01*
X219944007Y-44431063D01*
X219590315Y-43749277D01*
X219507502Y-43632686D01*
X218877373Y-42238293D01*
X218732550Y-40554544D01*
X218945592Y-39310000D01*
X219198047Y-38428055D01*
X218436650Y-39296751D01*
X217841171Y-40412285D01*
X217820257Y-41153429D01*
X217860527Y-41832759D01*
X217604609Y-41981846D01*
X217231937Y-41872234D01*
X216466910Y-41733279D01*
X215317426Y-41673900D01*
X214583659Y-41685480D01*
X213274327Y-41824212D01*
X212355336Y-42175567D01*
X211629794Y-42743814D01*
X210747595Y-43774506D01*
X210097680Y-44912017D01*
X209784154Y-45940094D01*
X209825436Y-46491879D01*
X209690789Y-46498402D01*
X209162972Y-46079860D01*
X208339712Y-45317970D01*
X207874598Y-44860598D01*
X206659236Y-43715442D01*
X205826181Y-43141108D01*
X205320420Y-43154739D01*
X205086943Y-43773477D01*
X205070737Y-45014465D01*
X205115122Y-45720499D01*
X205244408Y-47016314D01*
X205409532Y-48108195D01*
X205543600Y-48658611D01*
X205641108Y-49037923D01*
X205421824Y-48886249D01*
X205072431Y-48482222D01*
X204609241Y-47748383D01*
X204492070Y-47181506D01*
X204497729Y-47163537D01*
X204466610Y-46817968D01*
X204349441Y-46810760D01*
X203967117Y-46618465D01*
X203263944Y-46033705D01*
X202427794Y-45219028D01*
X201129924Y-44064811D01*
X200087409Y-43542652D01*
X199320554Y-43649514D01*
X198849666Y-44382361D01*
X198695051Y-45738158D01*
X198695381Y-45777047D01*
X198790036Y-46656634D01*
X199027582Y-47984447D01*
X199357105Y-49530296D01*
X199727691Y-51063992D01*
X200088425Y-52355343D01*
X200269069Y-52891944D01*
X200359543Y-53250277D01*
X200127171Y-53040945D01*
X199876008Y-52715555D01*
X199800724Y-52593747D01*
X198810486Y-52593747D01*
X198201596Y-54859512D01*
X197708147Y-56534264D01*
X197199858Y-57985721D01*
X196730095Y-59081867D01*
X196352223Y-59690686D01*
X196216151Y-59771111D01*
X195972238Y-59467963D01*
X195666162Y-58713681D01*
X195582975Y-58448194D01*
X194996405Y-56045472D01*
X194657020Y-53740671D01*
X194589289Y-51741634D01*
X194683535Y-50807545D01*
X194984696Y-49075924D01*
X196897591Y-50834836D01*
X198810486Y-52593747D01*
X199800724Y-52593747D01*
X199441459Y-52012472D01*
X199310967Y-51546796D01*
X199312175Y-51542806D01*
X199192355Y-51397925D01*
X199091999Y-51446292D01*
X198657823Y-51357062D01*
X198113120Y-50902286D01*
X197534539Y-50363803D01*
X196677739Y-49675827D01*
X195737218Y-48980855D01*
X194907478Y-48421384D01*
X194383020Y-48139911D01*
X194328342Y-48129444D01*
X194216044Y-48452338D01*
X194075534Y-49305882D01*
X193934289Y-50517376D01*
X193912488Y-50743232D01*
X193864685Y-52507378D01*
X193997235Y-54485331D01*
X194277563Y-56470352D01*
X194673091Y-58255704D01*
X195151243Y-59634648D01*
X195380800Y-60061512D01*
X195717954Y-60624401D01*
X195619129Y-60708059D01*
X195211727Y-60506729D01*
X193859577Y-59433797D01*
X192680547Y-57829820D01*
X191785776Y-55866579D01*
X191456564Y-54702538D01*
X191080680Y-53038018D01*
X190638796Y-51109172D01*
X190233711Y-49364167D01*
X189335079Y-45083999D01*
X188780425Y-41357388D01*
X188564855Y-38124624D01*
X188683476Y-35325995D01*
X188947159Y-33665555D01*
X189241153Y-32002305D01*
X189455911Y-30255762D01*
X189541144Y-28903055D01*
X189570164Y-27793786D01*
X189630723Y-27320217D01*
X189745998Y-27412542D01*
X189892515Y-27844722D01*
X190069860Y-28736688D01*
X190042622Y-29362350D01*
X190048851Y-29669357D01*
X190170079Y-29637404D01*
X190538639Y-29782203D01*
X191159272Y-30353215D01*
X191603135Y-30865453D01*
X193333767Y-32512738D01*
X195614224Y-33903415D01*
X198320850Y-34991190D01*
X201329986Y-35729768D01*
X204517978Y-36072855D01*
X205562500Y-36091524D01*
X208278822Y-36028873D01*
X210510215Y-35872709D01*
X212195574Y-35630584D01*
X213273795Y-35310050D01*
X213589262Y-35099504D01*
X213772913Y-34805461D01*
X213451617Y-34755784D01*
X212864274Y-34848481D01*
X211313295Y-35076248D01*
X209542028Y-35236582D01*
X207670878Y-35331035D01*
X205820249Y-35361159D01*
X204110548Y-35328506D01*
X202662180Y-35234628D01*
X201595548Y-35081076D01*
X201031059Y-34869402D01*
X200993937Y-34695495D01*
X201415600Y-34514664D01*
X201525891Y-34560068D01*
X201713869Y-34493137D01*
X201665003Y-34277785D01*
X201773533Y-33772209D01*
X202220571Y-32956147D01*
X202864081Y-32035725D01*
X203562026Y-31217067D01*
X204092658Y-30754743D01*
X204730859Y-30469685D01*
X205875845Y-30075757D01*
X207347467Y-29625109D01*
X208965575Y-29169893D01*
X210550018Y-28762260D01*
X211920648Y-28454362D01*
X212265278Y-28388868D01*
X213359066Y-28236393D01*
X214977968Y-28065658D01*
X216942396Y-27893083D01*
X219072759Y-27735087D01*
X220202777Y-27663169D01*
X223007899Y-27468668D01*
X225223105Y-27237381D01*
X226964028Y-26935712D01*
X228346301Y-26530068D01*
X229485557Y-25986854D01*
X230497428Y-25272475D01*
X231457355Y-24393425D01*
X232361896Y-23433226D01*
X231484477Y-23433226D01*
X231388958Y-23691908D01*
X231217368Y-23895966D01*
X230021134Y-24837389D01*
X228277919Y-25682975D01*
X227081944Y-26095306D01*
X225670833Y-26520362D01*
X225370946Y-25329365D01*
X224824754Y-24223469D01*
X223777294Y-23011681D01*
X223463957Y-22723740D01*
X221941414Y-21629427D01*
X220538158Y-21098419D01*
X220507062Y-21093271D01*
X219687732Y-20875770D01*
X219356715Y-20601626D01*
X219375141Y-20524905D01*
X219884995Y-20316779D01*
X220938723Y-20314558D01*
X222411884Y-20497954D01*
X224180036Y-20846679D01*
X226118738Y-21340446D01*
X228041535Y-21937773D01*
X229667287Y-22498677D01*
X230719273Y-22895576D01*
X231293126Y-23187437D01*
X231484477Y-23433226D01*
X232361896Y-23433226D01*
X232497588Y-23289185D01*
X233053264Y-22426343D01*
X233073813Y-22293712D01*
X231965014Y-22293712D01*
X231529214Y-22272890D01*
X230544198Y-21951733D01*
X230092350Y-21786753D01*
X228790921Y-21260200D01*
X228034867Y-20798293D01*
X227687440Y-20285348D01*
X227611111Y-19687637D01*
X227823842Y-19035425D01*
X228390523Y-18871778D01*
X229203887Y-19151326D01*
X230156669Y-19828697D01*
X231141600Y-20858522D01*
X231502526Y-21333584D01*
X231929987Y-21989007D01*
X231965014Y-22293712D01*
X233073813Y-22293712D01*
X233182087Y-21594893D01*
X232941760Y-20584832D01*
X232688084Y-19914361D01*
X232201712Y-18922407D01*
X231807707Y-18538744D01*
X231556356Y-18784377D01*
X231491666Y-19414600D01*
X231491666Y-20333090D01*
X230244669Y-19238212D01*
X229076229Y-18427058D01*
X228086123Y-18152232D01*
X227367057Y-18420508D01*
X227055454Y-19005227D01*
X226972805Y-19806662D01*
X227069552Y-20239950D01*
X227062457Y-20552851D01*
X226588112Y-20590369D01*
X225817749Y-20377371D01*
X224922596Y-19938728D01*
X224899598Y-19924781D01*
X224032503Y-19263926D01*
X223418450Y-18567219D01*
X223381799Y-18503626D01*
X223165866Y-17988873D01*
X223419422Y-17892452D01*
X223888451Y-17993826D01*
X225311702Y-18061136D01*
X226457760Y-17526061D01*
X227083013Y-16730156D01*
X227444443Y-15536217D01*
X227208837Y-14394706D01*
X226343105Y-13201456D01*
X225792645Y-12667939D01*
X224316985Y-11522040D01*
X223075919Y-10947476D01*
X222146119Y-10959028D01*
X221724194Y-10879712D01*
X221623607Y-10247936D01*
X221849154Y-9141805D01*
X222004914Y-8660257D01*
X222487985Y-7837002D01*
X223222861Y-7157556D01*
X224049752Y-6692050D01*
X224808868Y-6510614D01*
X225340419Y-6683381D01*
X225494444Y-7128727D01*
X225690123Y-7882649D01*
X226056523Y-8558267D01*
X226294102Y-8866440D01*
X226580428Y-9088885D01*
X227021870Y-9237537D01*
X227724798Y-9324330D01*
X228795580Y-9361198D01*
X230340586Y-9360075D01*
X232466185Y-9332896D01*
X232902777Y-9326396D01*
X235043776Y-9389360D01*
X237142540Y-9620498D01*
X239059496Y-9988182D01*
X240655076Y-10460780D01*
X241789707Y-11006663D01*
X242254570Y-11445703D01*
X242118147Y-11517931D01*
X241519366Y-11294511D01*
X241061946Y-11070098D01*
X239979925Y-10635224D01*
X238983763Y-10439054D01*
X238730615Y-10445080D01*
X238323246Y-10534704D01*
X238263238Y-10722401D01*
X238617131Y-11094577D01*
X239451465Y-11737638D01*
X240076416Y-12192687D01*
X241368657Y-13241735D01*
X242592231Y-14427436D01*
X243484246Y-15494814D01*
X243490655Y-15504104D01*
X244644697Y-17181447D01*
X242296201Y-15381423D01*
X240795916Y-14370473D01*
X240266849Y-14086389D01*
X238900000Y-14086389D01*
X238723611Y-14262778D01*
X238547222Y-14086389D01*
X238723611Y-13910000D01*
X238900000Y-14086389D01*
X240266849Y-14086389D01*
X239163065Y-13493710D01*
X237602995Y-12845355D01*
X236321055Y-12519626D01*
X236013748Y-12498889D01*
X235708474Y-12677213D01*
X235861580Y-13071055D01*
X236369934Y-13468713D01*
X236518750Y-13535507D01*
X237305049Y-13948553D01*
X238281558Y-14589175D01*
X238547222Y-14784502D01*
X239781944Y-15719897D01*
X237665278Y-15274259D01*
X238723611Y-16188059D01*
X239374039Y-16853897D01*
X239683023Y-17380000D01*
X239685009Y-17472429D01*
X239802996Y-17686052D01*
X239925455Y-17634486D01*
X240346490Y-17732784D01*
X240816140Y-18215927D01*
X241189684Y-18939320D01*
X241356299Y-19628109D01*
X241294000Y-20071896D01*
X241010912Y-20080054D01*
X240771373Y-19713204D01*
X240800152Y-19618262D01*
X240604167Y-19429726D01*
X239926877Y-19304221D01*
X239890666Y-19301450D01*
X239174743Y-19313755D01*
X239005863Y-19564429D01*
X239090739Y-19830617D01*
X239709145Y-21388400D01*
X240129485Y-22658571D01*
X240295308Y-23470154D01*
X240295626Y-23479999D01*
X240562371Y-24174151D01*
X240859538Y-24509318D01*
X241467019Y-25208261D01*
X241758709Y-25699041D01*
X241751938Y-25879394D01*
X241371770Y-25586464D01*
X240878889Y-25076657D01*
X239988024Y-24258910D01*
X239321858Y-23976990D01*
X238951760Y-24247814D01*
X238900000Y-24607572D01*
X238731601Y-25195407D01*
X238315863Y-26116601D01*
X237786972Y-27111007D01*
X237279113Y-27918480D01*
X237048273Y-28197500D01*
X236824399Y-28343449D01*
X236924282Y-28116596D01*
X236965476Y-27455343D01*
X236622377Y-26735841D01*
X236077506Y-26288788D01*
X235898036Y-26257222D01*
X235395798Y-26542510D01*
X234886851Y-27231119D01*
X234874953Y-27253873D01*
X234319010Y-28055489D01*
X233450346Y-29034030D01*
X232837421Y-29628239D01*
X231315277Y-31005955D01*
X231138889Y-29629304D01*
X230895177Y-28636415D01*
X230537732Y-28144052D01*
X230158133Y-28221676D01*
X229912831Y-28699367D01*
X229481762Y-29257965D01*
X228626476Y-29905970D01*
X227987562Y-30269153D01*
X226782314Y-30917641D01*
X225326629Y-31761203D01*
X224087394Y-32522201D01*
X222915632Y-33241317D01*
X222113337Y-33624966D01*
X221467299Y-33735545D01*
X220764309Y-33635456D01*
X220502002Y-33571540D01*
X219580639Y-33400425D01*
X218976381Y-33403544D01*
X218896590Y-33443039D01*
X218758261Y-33587803D01*
X218721970Y-33712564D01*
X218867449Y-33841340D01*
X219274430Y-33998146D01*
X220022647Y-34206999D01*
X221191831Y-34491915D01*
X222861714Y-34876910D01*
X225112031Y-35386001D01*
X226048384Y-35597236D01*
X227840071Y-36079994D01*
X229732884Y-36723592D01*
X231621233Y-37475743D01*
X233399525Y-38284159D01*
X234962167Y-39096550D01*
X236203567Y-39860629D01*
X237018133Y-40524108D01*
X237300272Y-41034698D01*
X237264601Y-41151390D01*
X237248289Y-41369747D01*
X237413021Y-41297166D01*
X237801679Y-41443548D01*
X238501217Y-42063187D01*
X239407293Y-43058904D01*
X239751064Y-43474751D01*
X241013466Y-44941739D01*
X242073226Y-45900769D01*
X243089569Y-46449573D01*
X244221721Y-46685882D01*
X245035534Y-46718333D01*
X246453020Y-46497781D01*
X247322664Y-45860137D01*
X247637459Y-44841419D01*
X247567397Y-44454676D01*
X246659792Y-44454676D01*
X246591122Y-45294882D01*
X246425926Y-45777592D01*
X245798167Y-45990385D01*
X244781963Y-45945754D01*
X243640637Y-45656468D01*
X243597271Y-45640425D01*
X242972159Y-45243828D01*
X242007057Y-44440447D01*
X240834333Y-43347604D01*
X239602549Y-42099726D01*
X238176539Y-40538617D01*
X237265484Y-39377996D01*
X236853235Y-38553876D01*
X236923642Y-38002268D01*
X237460558Y-37659186D01*
X238432224Y-37462561D01*
X240032880Y-37578635D01*
X241723372Y-38220261D01*
X243362604Y-39267531D01*
X244809481Y-40600536D01*
X245922907Y-42099367D01*
X246561786Y-43644115D01*
X246659792Y-44454676D01*
X247567397Y-44454676D01*
X247390396Y-43477645D01*
X246574467Y-41804833D01*
X246126120Y-41113512D01*
X245456140Y-40018889D01*
X245208572Y-39317337D01*
X245284578Y-39112241D01*
X245751325Y-39182068D01*
X246482640Y-39607294D01*
X247268595Y-40221144D01*
X247899261Y-40856847D01*
X248164711Y-41347628D01*
X248160416Y-41396892D01*
X248329011Y-41695998D01*
X248474901Y-41691250D01*
X248947116Y-41920579D01*
X249506967Y-42683495D01*
X250067946Y-43829860D01*
X250543548Y-45209534D01*
X250580899Y-45346356D01*
X250816065Y-46438473D01*
X251521951Y-46438473D01*
X251496257Y-45957807D01*
X250848791Y-43732817D01*
X249542286Y-41610943D01*
X247621278Y-39642492D01*
X245130303Y-37877765D01*
X243609619Y-37049903D01*
X242393389Y-36444627D01*
X241698494Y-36065067D01*
X241419932Y-35812108D01*
X241452706Y-35586632D01*
X241691815Y-35289525D01*
X241715147Y-35261581D01*
X242352993Y-34825222D01*
X243271891Y-34800008D01*
X244567811Y-35198392D01*
X245885074Y-35802693D01*
X247595374Y-36806039D01*
X248926498Y-37990970D01*
X250110303Y-39527323D01*
X250403242Y-39895680D01*
X250489719Y-39724852D01*
X250432776Y-39023555D01*
X250389948Y-38508939D01*
X250459401Y-38275745D01*
X250727762Y-38372127D01*
X251281660Y-38846238D01*
X252207722Y-39746230D01*
X252812713Y-40346471D01*
X253894121Y-41396787D01*
X254796064Y-42228371D01*
X255399855Y-42734260D01*
X255577046Y-42837778D01*
X255884134Y-42595859D01*
X255782311Y-41942984D01*
X255339237Y-40988471D01*
X255050054Y-40525709D01*
X254317374Y-40525709D01*
X254015320Y-40361619D01*
X253264114Y-39712417D01*
X252801031Y-39280975D01*
X251586365Y-38166658D01*
X250348600Y-37086075D01*
X250264280Y-37016944D01*
X249130555Y-37016944D01*
X248954166Y-37193333D01*
X248777777Y-37016944D01*
X248954166Y-36840555D01*
X249130555Y-37016944D01*
X250264280Y-37016944D01*
X249342146Y-36260921D01*
X249284391Y-36216514D01*
X248264202Y-35498015D01*
X247322424Y-34932626D01*
X246991335Y-34774118D01*
X244395883Y-33740429D01*
X244315385Y-33710069D01*
X242357475Y-33710069D01*
X241598876Y-34532507D01*
X240976549Y-35171566D01*
X240564513Y-35322146D01*
X240083188Y-35003537D01*
X239716487Y-34662395D01*
X239022842Y-33824529D01*
X238947404Y-33254941D01*
X239439871Y-32996292D01*
X240449942Y-33091240D01*
X241281650Y-33335034D01*
X242357475Y-33710069D01*
X244315385Y-33710069D01*
X242369987Y-32976359D01*
X240838170Y-32465628D01*
X239724952Y-32191952D01*
X238954857Y-32139050D01*
X238452406Y-32290638D01*
X238142122Y-32630436D01*
X238043724Y-32843930D01*
X238070427Y-33737111D01*
X238783597Y-34748412D01*
X240175384Y-35870516D01*
X242237939Y-37096106D01*
X243058615Y-37519099D01*
X244133328Y-38118014D01*
X244846030Y-38637474D01*
X245059944Y-38976640D01*
X245053470Y-38989811D01*
X244624650Y-39094131D01*
X244069854Y-38789351D01*
X243393748Y-38376836D01*
X242287012Y-37790121D01*
X240963743Y-37141600D01*
X240663889Y-37001357D01*
X238896298Y-36170170D01*
X237671266Y-35549220D01*
X236885217Y-35065338D01*
X236434576Y-34645356D01*
X236215766Y-34216107D01*
X236136333Y-33803003D01*
X236271945Y-32787940D01*
X236981972Y-32085444D01*
X238293194Y-31680210D01*
X240066314Y-31556733D01*
X241558571Y-31644616D01*
X242996533Y-31957589D01*
X244538132Y-32554234D01*
X246341302Y-33493130D01*
X248072222Y-34526272D01*
X249400574Y-35477856D01*
X250907767Y-36754586D01*
X252381612Y-38158706D01*
X253609923Y-39492461D01*
X254151388Y-40191944D01*
X254317374Y-40525709D01*
X255050054Y-40525709D01*
X254622574Y-39841640D01*
X253699981Y-38611812D01*
X252639119Y-37408306D01*
X251609243Y-36426968D01*
X250700324Y-35563416D01*
X250060845Y-34801542D01*
X249836284Y-34332584D01*
X249615040Y-33780417D01*
X249040723Y-32922204D01*
X248391489Y-32123714D01*
X247622901Y-31237240D01*
X247292278Y-30784725D01*
X247367386Y-30674087D01*
X247815991Y-30813242D01*
X247950517Y-30864017D01*
X248835098Y-31255660D01*
X250003344Y-31841532D01*
X250718055Y-32226859D01*
X252940562Y-33457201D01*
X254618673Y-34369655D01*
X255819807Y-34997750D01*
X256611382Y-35375017D01*
X257060815Y-35534985D01*
X257235523Y-35511182D01*
X257244444Y-35472695D01*
X256992109Y-35050778D01*
X256306992Y-34277525D01*
X255760117Y-33723889D01*
X254951389Y-33723889D01*
X253439623Y-32975640D01*
X252532468Y-32428476D01*
X252151461Y-31972946D01*
X252171213Y-31833633D01*
X252198188Y-31604402D01*
X252034571Y-31674726D01*
X251561897Y-31635818D01*
X250643717Y-31324043D01*
X249455286Y-30801894D01*
X249105564Y-30630319D01*
X248406826Y-30314166D01*
X246661111Y-30314166D01*
X246484722Y-30490555D01*
X246308333Y-30314166D01*
X246484722Y-30137778D01*
X246661111Y-30314166D01*
X248406826Y-30314166D01*
X247525778Y-29915525D01*
X246086518Y-29405623D01*
X244910498Y-29129609D01*
X244120433Y-29116482D01*
X243838889Y-29385772D01*
X244112525Y-29763399D01*
X244243528Y-29785000D01*
X244786634Y-29997391D01*
X245555953Y-30530321D01*
X246376518Y-31227421D01*
X247073360Y-31932324D01*
X247471510Y-32488663D01*
X247492679Y-32688733D01*
X247480030Y-32902419D01*
X247647237Y-32828237D01*
X248087794Y-32904034D01*
X248419712Y-33302897D01*
X248668014Y-33854571D01*
X248674016Y-34018333D01*
X248331022Y-33855537D01*
X247523017Y-33420243D01*
X246396388Y-32792089D01*
X245838641Y-32475803D01*
X243293267Y-31255812D01*
X240997173Y-30627185D01*
X238983478Y-30591095D01*
X237285301Y-31148716D01*
X236079362Y-32130149D01*
X235436722Y-32961093D01*
X235060291Y-33639311D01*
X235019444Y-33817675D01*
X235277259Y-34329095D01*
X235911969Y-35043861D01*
X236715474Y-35770875D01*
X237479673Y-36319035D01*
X237942136Y-36501586D01*
X237948897Y-36626856D01*
X237430569Y-36920559D01*
X237224305Y-37013723D01*
X236318977Y-37620472D01*
X236077778Y-38255456D01*
X235943068Y-38755034D01*
X235719245Y-38777277D01*
X235534246Y-38336280D01*
X235597364Y-38172783D01*
X235612472Y-37954262D01*
X235464811Y-38018054D01*
X234992232Y-37986712D01*
X234062665Y-37701703D01*
X232852595Y-37220040D01*
X232476610Y-37052718D01*
X230886835Y-36371369D01*
X229208384Y-35719727D01*
X227797398Y-35235864D01*
X227764222Y-35225776D01*
X226612222Y-34852734D01*
X225735068Y-34523759D01*
X225371206Y-34340853D01*
X225177594Y-33841944D01*
X224436111Y-33841944D01*
X224257111Y-34281001D01*
X224056875Y-34303495D01*
X223692398Y-33939294D01*
X223677639Y-33841944D01*
X223952283Y-33428301D01*
X224056875Y-33380393D01*
X224378551Y-33550686D01*
X224436111Y-33841944D01*
X225177594Y-33841944D01*
X225153682Y-33780329D01*
X225494454Y-33064424D01*
X226303019Y-32315001D01*
X227306242Y-31735345D01*
X228452215Y-31146152D01*
X229433540Y-30542999D01*
X229794600Y-30267980D01*
X230317865Y-29836196D01*
X230439907Y-29941758D01*
X230311272Y-30545976D01*
X230058068Y-31470269D01*
X229867928Y-32045282D01*
X229866220Y-32518062D01*
X230041995Y-32607222D01*
X230614512Y-32387887D01*
X231510604Y-31825087D01*
X232542628Y-31061634D01*
X233522940Y-30240337D01*
X234263896Y-29504007D01*
X234470085Y-29237141D01*
X234993491Y-28682277D01*
X235439953Y-28592158D01*
X235442227Y-28593543D01*
X235677712Y-28627998D01*
X235626395Y-28499747D01*
X235610396Y-27947548D01*
X235742875Y-27651490D01*
X235983211Y-27468182D01*
X236080731Y-27777765D01*
X236040425Y-28383229D01*
X235867284Y-29087564D01*
X235696418Y-29485628D01*
X235448336Y-30185690D01*
X235716060Y-30406872D01*
X236211986Y-30281537D01*
X236728509Y-29856600D01*
X237435338Y-29001417D01*
X238197836Y-27912018D01*
X238881362Y-26784431D01*
X239351277Y-25814684D01*
X239424302Y-25604559D01*
X239675510Y-24775507D01*
X240803855Y-25869142D01*
X241580951Y-26536381D01*
X242203489Y-26923547D01*
X242356378Y-26962778D01*
X242723809Y-26707865D01*
X242719237Y-26094451D01*
X242364379Y-25349519D01*
X242180078Y-25120092D01*
X241801515Y-24666039D01*
X241940238Y-24607715D01*
X242502006Y-24807270D01*
X243245598Y-25188276D01*
X244421575Y-25903279D01*
X245898662Y-26861899D01*
X247545584Y-27973754D01*
X249231066Y-29148465D01*
X250823835Y-30295649D01*
X252192614Y-31324927D01*
X253206130Y-32145918D01*
X253363889Y-32285526D01*
X254951389Y-33723889D01*
X255760117Y-33723889D01*
X255296925Y-33254972D01*
X254069739Y-32085156D01*
X252733267Y-30870111D01*
X251395340Y-29711873D01*
X250163790Y-28712479D01*
X249836111Y-28462573D01*
X247889716Y-27069373D01*
X246012605Y-25843227D01*
X244330259Y-24858581D01*
X242968157Y-24189883D01*
X242204235Y-23934601D01*
X241544753Y-23688421D01*
X241088672Y-23150930D01*
X240680673Y-22129911D01*
X240636897Y-21994935D01*
X240333217Y-20856741D01*
X240337210Y-20316445D01*
X240644564Y-20390356D01*
X240970410Y-20733431D01*
X241180087Y-21276421D01*
X241101800Y-21495546D01*
X241083638Y-21629012D01*
X241239785Y-21556088D01*
X241760783Y-21598578D01*
X242499295Y-22006403D01*
X242581280Y-22068914D01*
X243271612Y-22507545D01*
X243719620Y-22604478D01*
X243747988Y-22585159D01*
X243666090Y-22248810D01*
X243200244Y-21819382D01*
X242613675Y-21203095D01*
X242420030Y-20680968D01*
X242275033Y-20014121D01*
X241917448Y-19018725D01*
X241711146Y-18538348D01*
X241339786Y-17648574D01*
X241297190Y-17311500D01*
X241542505Y-17435016D01*
X241983341Y-17672790D01*
X242075000Y-17480581D01*
X241839029Y-17037803D01*
X241227838Y-16298237D01*
X240575694Y-15622921D01*
X239793109Y-14844190D01*
X239495411Y-14483867D01*
X239651902Y-14478717D01*
X240134722Y-14714514D01*
X240922972Y-15206277D01*
X242028973Y-15995211D01*
X243231839Y-16922772D01*
X243397916Y-17056714D01*
X244602058Y-17973953D01*
X245340667Y-18395354D01*
X245602388Y-18314510D01*
X245602777Y-18300772D01*
X245324058Y-17255450D01*
X244524055Y-15888005D01*
X243257002Y-14284468D01*
X242648277Y-13614003D01*
X241811325Y-12665966D01*
X241510881Y-12175425D01*
X241746076Y-12142674D01*
X242516039Y-12568009D01*
X243594617Y-13292947D01*
X244391297Y-13775867D01*
X244700026Y-13760216D01*
X244523925Y-13239170D01*
X244001591Y-12402967D01*
X243247224Y-11616944D01*
X240663889Y-11616944D01*
X240487500Y-11793333D01*
X240311111Y-11616944D01*
X240487500Y-11440555D01*
X240663889Y-11616944D01*
X243247224Y-11616944D01*
X242559309Y-10900163D01*
X240538373Y-9760510D01*
X237972033Y-8995903D01*
X234893539Y-8618234D01*
X233307767Y-8577725D01*
X231644746Y-8567833D01*
X229869373Y-8538678D01*
X228847851Y-8511579D01*
X227666952Y-8451695D01*
X226994496Y-8306650D01*
X226633457Y-7980088D01*
X226386810Y-7375656D01*
X226360505Y-7295154D01*
X225907744Y-6180952D01*
X225396431Y-5668620D01*
X224685191Y-5659352D01*
X224228974Y-5805445D01*
G36*
X219497222Y-51833611D02*
G01*
X219673611Y-52010000D01*
X219850000Y-51833611D01*
X219673611Y-51657222D01*
X219497222Y-51833611D01*
G37*
X219497222Y-51833611D02*
X219673611Y-52010000D01*
X219850000Y-51833611D01*
X219673611Y-51657222D01*
X219497222Y-51833611D01*
G36*
X242129507Y-35219368D02*
G01*
X241750784Y-35574578D01*
X241828473Y-35778788D01*
X241877791Y-35782222D01*
X242176176Y-35531651D01*
X242285076Y-35374937D01*
X242326655Y-35133533D01*
X242129507Y-35219368D01*
G37*
X242129507Y-35219368D02*
X241750784Y-35574578D01*
X241828473Y-35778788D01*
X241877791Y-35782222D01*
X242176176Y-35531651D01*
X242285076Y-35374937D01*
X242326655Y-35133533D01*
X242129507Y-35219368D01*
G36*
X233608333Y-63122500D02*
G01*
X233784722Y-63298889D01*
X233961111Y-63122500D01*
X233784722Y-62946111D01*
X233608333Y-63122500D01*
G37*
X233608333Y-63122500D02*
X233784722Y-63298889D01*
X233961111Y-63122500D01*
X233784722Y-62946111D01*
X233608333Y-63122500D01*
G36*
X235372222Y-61711389D02*
G01*
X235548611Y-61887778D01*
X235725000Y-61711389D01*
X235548611Y-61535000D01*
X235372222Y-61711389D01*
G37*
X235372222Y-61711389D02*
X235548611Y-61887778D01*
X235725000Y-61711389D01*
X235548611Y-61535000D01*
X235372222Y-61711389D01*
G36*
X207855555Y-61005833D02*
G01*
X208031944Y-61182222D01*
X208208333Y-61005833D01*
X208031944Y-60829444D01*
X207855555Y-61005833D01*
G37*
X207855555Y-61005833D02*
X208031944Y-61182222D01*
X208208333Y-61005833D01*
X208031944Y-60829444D01*
X207855555Y-61005833D01*
G36*
X207150000Y-50069722D02*
G01*
X207326389Y-50246111D01*
X207502778Y-50069722D01*
X207326389Y-49893333D01*
X207150000Y-50069722D01*
G37*
X207150000Y-50069722D02*
X207326389Y-50246111D01*
X207502778Y-50069722D01*
X207326389Y-49893333D01*
X207150000Y-50069722D01*
G36*
X211383333Y-44425278D02*
G01*
X211559722Y-44601667D01*
X211736111Y-44425278D01*
X211559722Y-44248889D01*
X211383333Y-44425278D01*
G37*
X211383333Y-44425278D02*
X211559722Y-44601667D01*
X211736111Y-44425278D01*
X211559722Y-44248889D01*
X211383333Y-44425278D01*
G36*
X224083333Y-18672500D02*
G01*
X224259722Y-18848889D01*
X224436111Y-18672500D01*
X224259722Y-18496111D01*
X224083333Y-18672500D01*
G37*
X224083333Y-18672500D02*
X224259722Y-18848889D01*
X224436111Y-18672500D01*
X224259722Y-18496111D01*
X224083333Y-18672500D01*
G36*
X242185680Y-14843431D02*
G01*
X242251389Y-14968333D01*
X242583781Y-15305237D01*
X242645806Y-15321111D01*
X242669875Y-15093235D01*
X242604166Y-14968333D01*
X242271774Y-14631429D01*
X242209749Y-14615555D01*
X242185680Y-14843431D01*
G37*
X242185680Y-14843431D02*
X242251389Y-14968333D01*
X242583781Y-15305237D01*
X242645806Y-15321111D01*
X242669875Y-15093235D01*
X242604166Y-14968333D01*
X242271774Y-14631429D01*
X242209749Y-14615555D01*
X242185680Y-14843431D01*
G36*
X229137409Y-10688620D02*
G01*
X229022254Y-11426916D01*
X229022222Y-11440555D01*
X229092908Y-12155808D01*
X229448540Y-12445966D01*
X230236124Y-12498889D01*
X231109352Y-12412785D01*
X231628233Y-12202533D01*
X231651383Y-12173087D01*
X231523532Y-11798847D01*
X231285928Y-11558148D01*
X230315740Y-11558148D01*
X230267315Y-11767874D01*
X230080555Y-11793333D01*
X229790179Y-11664257D01*
X229845370Y-11558148D01*
X230264035Y-11515927D01*
X230315740Y-11558148D01*
X231285928Y-11558148D01*
X230995994Y-11264438D01*
X230289333Y-10745993D01*
X229624113Y-10419641D01*
X229408736Y-10382222D01*
X229137409Y-10688620D01*
G37*
X229137409Y-10688620D02*
X229022254Y-11426916D01*
X229022222Y-11440555D01*
X229092908Y-12155808D01*
X229448540Y-12445966D01*
X230236124Y-12498889D01*
X231109352Y-12412785D01*
X231628233Y-12202533D01*
X231651383Y-12173087D01*
X231523532Y-11798847D01*
X231285928Y-11558148D01*
X230315740Y-11558148D01*
X230267315Y-11767874D01*
X230080555Y-11793333D01*
X229790179Y-11664257D01*
X229845370Y-11558148D01*
X230264035Y-11515927D01*
X230315740Y-11558148D01*
X231285928Y-11558148D01*
X230995994Y-11264438D01*
X230289333Y-10745993D01*
X229624113Y-10419641D01*
X229408736Y-10382222D01*
X229137409Y-10688620D01*
G36*
X203027346Y-47651765D02*
G01*
X203093055Y-47776667D01*
X203425448Y-48113570D01*
X203487473Y-48129444D01*
X203511542Y-47901568D01*
X203445833Y-47776667D01*
X203113441Y-47439763D01*
X203051416Y-47423889D01*
X203027346Y-47651765D01*
G37*
X203027346Y-47651765D02*
X203093055Y-47776667D01*
X203425448Y-48113570D01*
X203487473Y-48129444D01*
X203511542Y-47901568D01*
X203445833Y-47776667D01*
X203113441Y-47439763D01*
X203051416Y-47423889D01*
X203027346Y-47651765D01*
G36*
X200910710Y-45139808D02*
G01*
X201107779Y-45395417D01*
X201622696Y-45943873D01*
X201852541Y-45941487D01*
X201858333Y-45879584D01*
X201617254Y-45585107D01*
X201240972Y-45262223D01*
X200823109Y-44957124D01*
X200910710Y-45139808D01*
G37*
X200910710Y-45139808D02*
X201107779Y-45395417D01*
X201622696Y-45943873D01*
X201852541Y-45941487D01*
X201858333Y-45879584D01*
X201617254Y-45585107D01*
X201240972Y-45262223D01*
X200823109Y-44957124D01*
X200910710Y-45139808D01*
G36*
X236430555Y-33136389D02*
G01*
X236606944Y-33312778D01*
X236783333Y-33136389D01*
X236606944Y-32960000D01*
X236430555Y-33136389D01*
G37*
X236430555Y-33136389D02*
X236606944Y-33312778D01*
X236783333Y-33136389D01*
X236606944Y-32960000D01*
X236430555Y-33136389D01*
G36*
X241369444Y-32078055D02*
G01*
X241545833Y-32254444D01*
X241722222Y-32078055D01*
X241545833Y-31901666D01*
X241369444Y-32078055D01*
G37*
X241369444Y-32078055D02*
X241545833Y-32254444D01*
X241722222Y-32078055D01*
X241545833Y-31901666D01*
X241369444Y-32078055D01*
G36*
X243133333Y-25728055D02*
G01*
X243309722Y-25904444D01*
X243486111Y-25728055D01*
X243309722Y-25551667D01*
X243133333Y-25728055D01*
G37*
X243133333Y-25728055D02*
X243309722Y-25904444D01*
X243486111Y-25728055D01*
X243309722Y-25551667D01*
X243133333Y-25728055D01*
G36*
X230786111Y-21494722D02*
G01*
X230962500Y-21671111D01*
X231138889Y-21494722D01*
X230962500Y-21318333D01*
X230786111Y-21494722D01*
G37*
X230786111Y-21494722D02*
X230962500Y-21671111D01*
X231138889Y-21494722D01*
X230962500Y-21318333D01*
X230786111Y-21494722D01*
G36*
X227963889Y-19378055D02*
G01*
X228140277Y-19554444D01*
X228316666Y-19378055D01*
X228140277Y-19201666D01*
X227963889Y-19378055D01*
G37*
X227963889Y-19378055D02*
X228140277Y-19554444D01*
X228316666Y-19378055D01*
X228140277Y-19201666D01*
X227963889Y-19378055D01*
D11*
X181519285Y4815238D02*
X181424047Y4767619D01*
X181233571Y4767619D01*
X181138333Y4815238D01*
X181090714Y4910476D01*
X181090714Y4958095D01*
X181138333Y5053333D01*
X181233571Y5100952D01*
X181376428Y5100952D01*
X181471666Y5148571D01*
X181519285Y5243809D01*
X181519285Y5291428D01*
X181471666Y5386666D01*
X181376428Y5434285D01*
X181233571Y5434285D01*
X181138333Y5386666D01*
X180519285Y4767619D02*
X180614523Y4815238D01*
X180662142Y4862857D01*
X180709761Y4958095D01*
X180709761Y5243809D01*
X180662142Y5339047D01*
X180614523Y5386666D01*
X180519285Y5434285D01*
X180376428Y5434285D01*
X180281190Y5386666D01*
X180233571Y5339047D01*
X180185952Y5243809D01*
X180185952Y4958095D01*
X180233571Y4862857D01*
X180281190Y4815238D01*
X180376428Y4767619D01*
X180519285Y4767619D01*
X179328809Y4815238D02*
X179424047Y4767619D01*
X179614523Y4767619D01*
X179709761Y4815238D01*
X179757380Y4862857D01*
X179805000Y4958095D01*
X179805000Y5243809D01*
X179757380Y5339047D01*
X179709761Y5386666D01*
X179614523Y5434285D01*
X179424047Y5434285D01*
X179328809Y5386666D01*
X178900238Y4767619D02*
X178900238Y5767619D01*
X178805000Y5148571D02*
X178519285Y4767619D01*
X178519285Y5434285D02*
X178900238Y5053333D01*
X177709761Y4815238D02*
X177805000Y4767619D01*
X177995476Y4767619D01*
X178090714Y4815238D01*
X178138333Y4910476D01*
X178138333Y5291428D01*
X178090714Y5386666D01*
X177995476Y5434285D01*
X177805000Y5434285D01*
X177709761Y5386666D01*
X177662142Y5291428D01*
X177662142Y5196190D01*
X178138333Y5100952D01*
X177376428Y5434285D02*
X176995476Y5434285D01*
X177233571Y5767619D02*
X177233571Y4910476D01*
X177185952Y4815238D01*
X177090714Y4767619D01*
X176995476Y4767619D01*
X238669285Y4815238D02*
X238574047Y4767619D01*
X238383571Y4767619D01*
X238288333Y4815238D01*
X238240714Y4910476D01*
X238240714Y4958095D01*
X238288333Y5053333D01*
X238383571Y5100952D01*
X238526428Y5100952D01*
X238621666Y5148571D01*
X238669285Y5243809D01*
X238669285Y5291428D01*
X238621666Y5386666D01*
X238526428Y5434285D01*
X238383571Y5434285D01*
X238288333Y5386666D01*
X237669285Y4767619D02*
X237764523Y4815238D01*
X237812142Y4862857D01*
X237859761Y4958095D01*
X237859761Y5243809D01*
X237812142Y5339047D01*
X237764523Y5386666D01*
X237669285Y5434285D01*
X237526428Y5434285D01*
X237431190Y5386666D01*
X237383571Y5339047D01*
X237335952Y5243809D01*
X237335952Y4958095D01*
X237383571Y4862857D01*
X237431190Y4815238D01*
X237526428Y4767619D01*
X237669285Y4767619D01*
X236478809Y4815238D02*
X236574047Y4767619D01*
X236764523Y4767619D01*
X236859761Y4815238D01*
X236907380Y4862857D01*
X236955000Y4958095D01*
X236955000Y5243809D01*
X236907380Y5339047D01*
X236859761Y5386666D01*
X236764523Y5434285D01*
X236574047Y5434285D01*
X236478809Y5386666D01*
X236050238Y4767619D02*
X236050238Y5767619D01*
X235955000Y5148571D02*
X235669285Y4767619D01*
X235669285Y5434285D02*
X236050238Y5053333D01*
X234859761Y4815238D02*
X234955000Y4767619D01*
X235145476Y4767619D01*
X235240714Y4815238D01*
X235288333Y4910476D01*
X235288333Y5291428D01*
X235240714Y5386666D01*
X235145476Y5434285D01*
X234955000Y5434285D01*
X234859761Y5386666D01*
X234812142Y5291428D01*
X234812142Y5196190D01*
X235288333Y5100952D01*
X234526428Y5434285D02*
X234145476Y5434285D01*
X234383571Y5767619D02*
X234383571Y4910476D01*
X234335952Y4815238D01*
X234240714Y4767619D01*
X234145476Y4767619D01*
X193261904Y-28010000D02*
X193357142Y-27962380D01*
X193500000Y-27962380D01*
X193642857Y-28010000D01*
X193738095Y-28105238D01*
X193785714Y-28200476D01*
X193833333Y-28390952D01*
X193833333Y-28533809D01*
X193785714Y-28724285D01*
X193738095Y-28819523D01*
X193642857Y-28914761D01*
X193500000Y-28962380D01*
X193404761Y-28962380D01*
X193261904Y-28914761D01*
X193214285Y-28867142D01*
X193214285Y-28533809D01*
X193404761Y-28533809D01*
X192785714Y-28962380D02*
X192785714Y-27962380D01*
X192214285Y-28962380D01*
X192214285Y-27962380D01*
X191738095Y-28962380D02*
X191738095Y-27962380D01*
X191500000Y-27962380D01*
X191357142Y-28010000D01*
X191261904Y-28105238D01*
X191214285Y-28200476D01*
X191166666Y-28390952D01*
X191166666Y-28533809D01*
X191214285Y-28724285D01*
X191261904Y-28819523D01*
X191357142Y-28914761D01*
X191500000Y-28962380D01*
X191738095Y-28962380D01*
X193042857Y-26272380D02*
X193519047Y-26272380D01*
X193519047Y-25272380D01*
X192709523Y-25748571D02*
X192376190Y-25748571D01*
X192233333Y-26272380D02*
X192709523Y-26272380D01*
X192709523Y-25272380D01*
X192233333Y-25272380D01*
X191804761Y-26272380D02*
X191804761Y-25272380D01*
X191566666Y-25272380D01*
X191423809Y-25320000D01*
X191328571Y-25415238D01*
X191280952Y-25510476D01*
X191233333Y-25700952D01*
X191233333Y-25843809D01*
X191280952Y-26034285D01*
X191328571Y-26129523D01*
X191423809Y-26224761D01*
X191566666Y-26272380D01*
X191804761Y-26272380D01*
X193983333Y-22762380D02*
X193650000Y-23762380D01*
X193316666Y-22762380D01*
X192411904Y-23667142D02*
X192459523Y-23714761D01*
X192602380Y-23762380D01*
X192697619Y-23762380D01*
X192840476Y-23714761D01*
X192935714Y-23619523D01*
X192983333Y-23524285D01*
X193030952Y-23333809D01*
X193030952Y-23190952D01*
X192983333Y-23000476D01*
X192935714Y-22905238D01*
X192840476Y-22810000D01*
X192697619Y-22762380D01*
X192602380Y-22762380D01*
X192459523Y-22810000D01*
X192411904Y-22857619D01*
X191411904Y-23667142D02*
X191459523Y-23714761D01*
X191602380Y-23762380D01*
X191697619Y-23762380D01*
X191840476Y-23714761D01*
X191935714Y-23619523D01*
X191983333Y-23524285D01*
X192030952Y-23333809D01*
X192030952Y-23190952D01*
X191983333Y-23000476D01*
X191935714Y-22905238D01*
X191840476Y-22810000D01*
X191697619Y-22762380D01*
X191602380Y-22762380D01*
X191459523Y-22810000D01*
X191411904Y-22857619D01*
X214856785Y-33284761D02*
X214761547Y-33332380D01*
X214571071Y-33332380D01*
X214475833Y-33284761D01*
X214428214Y-33189523D01*
X214428214Y-33141904D01*
X214475833Y-33046666D01*
X214571071Y-32999047D01*
X214713928Y-32999047D01*
X214809166Y-32951428D01*
X214856785Y-32856190D01*
X214856785Y-32808571D01*
X214809166Y-32713333D01*
X214713928Y-32665714D01*
X214571071Y-32665714D01*
X214475833Y-32713333D01*
X213856785Y-33332380D02*
X213952023Y-33284761D01*
X213999642Y-33237142D01*
X214047261Y-33141904D01*
X214047261Y-32856190D01*
X213999642Y-32760952D01*
X213952023Y-32713333D01*
X213856785Y-32665714D01*
X213713928Y-32665714D01*
X213618690Y-32713333D01*
X213571071Y-32760952D01*
X213523452Y-32856190D01*
X213523452Y-33141904D01*
X213571071Y-33237142D01*
X213618690Y-33284761D01*
X213713928Y-33332380D01*
X213856785Y-33332380D01*
X212666309Y-33284761D02*
X212761547Y-33332380D01*
X212952023Y-33332380D01*
X213047261Y-33284761D01*
X213094880Y-33237142D01*
X213142500Y-33141904D01*
X213142500Y-32856190D01*
X213094880Y-32760952D01*
X213047261Y-32713333D01*
X212952023Y-32665714D01*
X212761547Y-32665714D01*
X212666309Y-32713333D01*
X212237738Y-33332380D02*
X212237738Y-32332380D01*
X212142500Y-32951428D02*
X211856785Y-33332380D01*
X211856785Y-32665714D02*
X212237738Y-33046666D01*
X211047261Y-33284761D02*
X211142500Y-33332380D01*
X211332976Y-33332380D01*
X211428214Y-33284761D01*
X211475833Y-33189523D01*
X211475833Y-32808571D01*
X211428214Y-32713333D01*
X211332976Y-32665714D01*
X211142500Y-32665714D01*
X211047261Y-32713333D01*
X210999642Y-32808571D01*
X210999642Y-32903809D01*
X211475833Y-32999047D01*
X210713928Y-32665714D02*
X210332976Y-32665714D01*
X210571071Y-32332380D02*
X210571071Y-33189523D01*
X210523452Y-33284761D01*
X210428214Y-33332380D01*
X210332976Y-33332380D01*
X245812785Y-52334761D02*
X245717547Y-52382380D01*
X245527071Y-52382380D01*
X245431833Y-52334761D01*
X245384214Y-52239523D01*
X245384214Y-52191904D01*
X245431833Y-52096666D01*
X245527071Y-52049047D01*
X245669928Y-52049047D01*
X245765166Y-52001428D01*
X245812785Y-51906190D01*
X245812785Y-51858571D01*
X245765166Y-51763333D01*
X245669928Y-51715714D01*
X245527071Y-51715714D01*
X245431833Y-51763333D01*
X244812785Y-52382380D02*
X244908023Y-52334761D01*
X244955642Y-52287142D01*
X245003261Y-52191904D01*
X245003261Y-51906190D01*
X244955642Y-51810952D01*
X244908023Y-51763333D01*
X244812785Y-51715714D01*
X244669928Y-51715714D01*
X244574690Y-51763333D01*
X244527071Y-51810952D01*
X244479452Y-51906190D01*
X244479452Y-52191904D01*
X244527071Y-52287142D01*
X244574690Y-52334761D01*
X244669928Y-52382380D01*
X244812785Y-52382380D01*
X243622309Y-52334761D02*
X243717547Y-52382380D01*
X243908023Y-52382380D01*
X244003261Y-52334761D01*
X244050880Y-52287142D01*
X244098500Y-52191904D01*
X244098500Y-51906190D01*
X244050880Y-51810952D01*
X244003261Y-51763333D01*
X243908023Y-51715714D01*
X243717547Y-51715714D01*
X243622309Y-51763333D01*
X243193738Y-52382380D02*
X243193738Y-51382380D01*
X243098500Y-52001428D02*
X242812785Y-52382380D01*
X242812785Y-51715714D02*
X243193738Y-52096666D01*
X242003261Y-52334761D02*
X242098500Y-52382380D01*
X242288976Y-52382380D01*
X242384214Y-52334761D01*
X242431833Y-52239523D01*
X242431833Y-51858571D01*
X242384214Y-51763333D01*
X242288976Y-51715714D01*
X242098500Y-51715714D01*
X242003261Y-51763333D01*
X241955642Y-51858571D01*
X241955642Y-51953809D01*
X242431833Y-52049047D01*
X241669928Y-51715714D02*
X241288976Y-51715714D01*
X241527071Y-51382380D02*
X241527071Y-52239523D01*
X241479452Y-52334761D01*
X241384214Y-52382380D01*
X241288976Y-52382380D01*
X257719785Y-33284761D02*
X257624547Y-33332380D01*
X257434071Y-33332380D01*
X257338833Y-33284761D01*
X257291214Y-33189523D01*
X257291214Y-33141904D01*
X257338833Y-33046666D01*
X257434071Y-32999047D01*
X257576928Y-32999047D01*
X257672166Y-32951428D01*
X257719785Y-32856190D01*
X257719785Y-32808571D01*
X257672166Y-32713333D01*
X257576928Y-32665714D01*
X257434071Y-32665714D01*
X257338833Y-32713333D01*
X256719785Y-33332380D02*
X256815023Y-33284761D01*
X256862642Y-33237142D01*
X256910261Y-33141904D01*
X256910261Y-32856190D01*
X256862642Y-32760952D01*
X256815023Y-32713333D01*
X256719785Y-32665714D01*
X256576928Y-32665714D01*
X256481690Y-32713333D01*
X256434071Y-32760952D01*
X256386452Y-32856190D01*
X256386452Y-33141904D01*
X256434071Y-33237142D01*
X256481690Y-33284761D01*
X256576928Y-33332380D01*
X256719785Y-33332380D01*
X255529309Y-33284761D02*
X255624547Y-33332380D01*
X255815023Y-33332380D01*
X255910261Y-33284761D01*
X255957880Y-33237142D01*
X256005500Y-33141904D01*
X256005500Y-32856190D01*
X255957880Y-32760952D01*
X255910261Y-32713333D01*
X255815023Y-32665714D01*
X255624547Y-32665714D01*
X255529309Y-32713333D01*
X255100738Y-33332380D02*
X255100738Y-32332380D01*
X255005500Y-32951428D02*
X254719785Y-33332380D01*
X254719785Y-32665714D02*
X255100738Y-33046666D01*
X253910261Y-33284761D02*
X254005500Y-33332380D01*
X254195976Y-33332380D01*
X254291214Y-33284761D01*
X254338833Y-33189523D01*
X254338833Y-32808571D01*
X254291214Y-32713333D01*
X254195976Y-32665714D01*
X254005500Y-32665714D01*
X253910261Y-32713333D01*
X253862642Y-32808571D01*
X253862642Y-32903809D01*
X254338833Y-32999047D01*
X253576928Y-32665714D02*
X253195976Y-32665714D01*
X253434071Y-32332380D02*
X253434071Y-33189523D01*
X253386452Y-33284761D01*
X253291214Y-33332380D01*
X253195976Y-33332380D01*
X217238285Y-52334761D02*
X217143047Y-52382380D01*
X216952571Y-52382380D01*
X216857333Y-52334761D01*
X216809714Y-52239523D01*
X216809714Y-52191904D01*
X216857333Y-52096666D01*
X216952571Y-52049047D01*
X217095428Y-52049047D01*
X217190666Y-52001428D01*
X217238285Y-51906190D01*
X217238285Y-51858571D01*
X217190666Y-51763333D01*
X217095428Y-51715714D01*
X216952571Y-51715714D01*
X216857333Y-51763333D01*
X216238285Y-52382380D02*
X216333523Y-52334761D01*
X216381142Y-52287142D01*
X216428761Y-52191904D01*
X216428761Y-51906190D01*
X216381142Y-51810952D01*
X216333523Y-51763333D01*
X216238285Y-51715714D01*
X216095428Y-51715714D01*
X216000190Y-51763333D01*
X215952571Y-51810952D01*
X215904952Y-51906190D01*
X215904952Y-52191904D01*
X215952571Y-52287142D01*
X216000190Y-52334761D01*
X216095428Y-52382380D01*
X216238285Y-52382380D01*
X215047809Y-52334761D02*
X215143047Y-52382380D01*
X215333523Y-52382380D01*
X215428761Y-52334761D01*
X215476380Y-52287142D01*
X215524000Y-52191904D01*
X215524000Y-51906190D01*
X215476380Y-51810952D01*
X215428761Y-51763333D01*
X215333523Y-51715714D01*
X215143047Y-51715714D01*
X215047809Y-51763333D01*
X214619238Y-52382380D02*
X214619238Y-51382380D01*
X214524000Y-52001428D02*
X214238285Y-52382380D01*
X214238285Y-51715714D02*
X214619238Y-52096666D01*
X213428761Y-52334761D02*
X213524000Y-52382380D01*
X213714476Y-52382380D01*
X213809714Y-52334761D01*
X213857333Y-52239523D01*
X213857333Y-51858571D01*
X213809714Y-51763333D01*
X213714476Y-51715714D01*
X213524000Y-51715714D01*
X213428761Y-51763333D01*
X213381142Y-51858571D01*
X213381142Y-51953809D01*
X213857333Y-52049047D01*
X213095428Y-51715714D02*
X212714476Y-51715714D01*
X212952571Y-51382380D02*
X212952571Y-52239523D01*
X212904952Y-52334761D01*
X212809714Y-52382380D01*
X212714476Y-52382380D01*
X262481785Y-14234761D02*
X262386547Y-14282380D01*
X262196071Y-14282380D01*
X262100833Y-14234761D01*
X262053214Y-14139523D01*
X262053214Y-14091904D01*
X262100833Y-13996666D01*
X262196071Y-13949047D01*
X262338928Y-13949047D01*
X262434166Y-13901428D01*
X262481785Y-13806190D01*
X262481785Y-13758571D01*
X262434166Y-13663333D01*
X262338928Y-13615714D01*
X262196071Y-13615714D01*
X262100833Y-13663333D01*
X261481785Y-14282380D02*
X261577023Y-14234761D01*
X261624642Y-14187142D01*
X261672261Y-14091904D01*
X261672261Y-13806190D01*
X261624642Y-13710952D01*
X261577023Y-13663333D01*
X261481785Y-13615714D01*
X261338928Y-13615714D01*
X261243690Y-13663333D01*
X261196071Y-13710952D01*
X261148452Y-13806190D01*
X261148452Y-14091904D01*
X261196071Y-14187142D01*
X261243690Y-14234761D01*
X261338928Y-14282380D01*
X261481785Y-14282380D01*
X260291309Y-14234761D02*
X260386547Y-14282380D01*
X260577023Y-14282380D01*
X260672261Y-14234761D01*
X260719880Y-14187142D01*
X260767500Y-14091904D01*
X260767500Y-13806190D01*
X260719880Y-13710952D01*
X260672261Y-13663333D01*
X260577023Y-13615714D01*
X260386547Y-13615714D01*
X260291309Y-13663333D01*
X259862738Y-14282380D02*
X259862738Y-13282380D01*
X259767500Y-13901428D02*
X259481785Y-14282380D01*
X259481785Y-13615714D02*
X259862738Y-13996666D01*
X258672261Y-14234761D02*
X258767500Y-14282380D01*
X258957976Y-14282380D01*
X259053214Y-14234761D01*
X259100833Y-14139523D01*
X259100833Y-13758571D01*
X259053214Y-13663333D01*
X258957976Y-13615714D01*
X258767500Y-13615714D01*
X258672261Y-13663333D01*
X258624642Y-13758571D01*
X258624642Y-13853809D01*
X259100833Y-13949047D01*
X258338928Y-13615714D02*
X257957976Y-13615714D01*
X258196071Y-13282380D02*
X258196071Y-14139523D01*
X258148452Y-14234761D01*
X258053214Y-14282380D01*
X257957976Y-14282380D01*
X219619285Y4815238D02*
X219524047Y4767619D01*
X219333571Y4767619D01*
X219238333Y4815238D01*
X219190714Y4910476D01*
X219190714Y4958095D01*
X219238333Y5053333D01*
X219333571Y5100952D01*
X219476428Y5100952D01*
X219571666Y5148571D01*
X219619285Y5243809D01*
X219619285Y5291428D01*
X219571666Y5386666D01*
X219476428Y5434285D01*
X219333571Y5434285D01*
X219238333Y5386666D01*
X218619285Y4767619D02*
X218714523Y4815238D01*
X218762142Y4862857D01*
X218809761Y4958095D01*
X218809761Y5243809D01*
X218762142Y5339047D01*
X218714523Y5386666D01*
X218619285Y5434285D01*
X218476428Y5434285D01*
X218381190Y5386666D01*
X218333571Y5339047D01*
X218285952Y5243809D01*
X218285952Y4958095D01*
X218333571Y4862857D01*
X218381190Y4815238D01*
X218476428Y4767619D01*
X218619285Y4767619D01*
X217428809Y4815238D02*
X217524047Y4767619D01*
X217714523Y4767619D01*
X217809761Y4815238D01*
X217857380Y4862857D01*
X217905000Y4958095D01*
X217905000Y5243809D01*
X217857380Y5339047D01*
X217809761Y5386666D01*
X217714523Y5434285D01*
X217524047Y5434285D01*
X217428809Y5386666D01*
X217000238Y4767619D02*
X217000238Y5767619D01*
X216905000Y5148571D02*
X216619285Y4767619D01*
X216619285Y5434285D02*
X217000238Y5053333D01*
X215809761Y4815238D02*
X215905000Y4767619D01*
X216095476Y4767619D01*
X216190714Y4815238D01*
X216238333Y4910476D01*
X216238333Y5291428D01*
X216190714Y5386666D01*
X216095476Y5434285D01*
X215905000Y5434285D01*
X215809761Y5386666D01*
X215762142Y5291428D01*
X215762142Y5196190D01*
X216238333Y5100952D01*
X215476428Y5434285D02*
X215095476Y5434285D01*
X215333571Y5767619D02*
X215333571Y4910476D01*
X215285952Y4815238D01*
X215190714Y4767619D01*
X215095476Y4767619D01*
X186281785Y-14234761D02*
X186186547Y-14282380D01*
X185996071Y-14282380D01*
X185900833Y-14234761D01*
X185853214Y-14139523D01*
X185853214Y-14091904D01*
X185900833Y-13996666D01*
X185996071Y-13949047D01*
X186138928Y-13949047D01*
X186234166Y-13901428D01*
X186281785Y-13806190D01*
X186281785Y-13758571D01*
X186234166Y-13663333D01*
X186138928Y-13615714D01*
X185996071Y-13615714D01*
X185900833Y-13663333D01*
X185281785Y-14282380D02*
X185377023Y-14234761D01*
X185424642Y-14187142D01*
X185472261Y-14091904D01*
X185472261Y-13806190D01*
X185424642Y-13710952D01*
X185377023Y-13663333D01*
X185281785Y-13615714D01*
X185138928Y-13615714D01*
X185043690Y-13663333D01*
X184996071Y-13710952D01*
X184948452Y-13806190D01*
X184948452Y-14091904D01*
X184996071Y-14187142D01*
X185043690Y-14234761D01*
X185138928Y-14282380D01*
X185281785Y-14282380D01*
X184091309Y-14234761D02*
X184186547Y-14282380D01*
X184377023Y-14282380D01*
X184472261Y-14234761D01*
X184519880Y-14187142D01*
X184567500Y-14091904D01*
X184567500Y-13806190D01*
X184519880Y-13710952D01*
X184472261Y-13663333D01*
X184377023Y-13615714D01*
X184186547Y-13615714D01*
X184091309Y-13663333D01*
X183662738Y-14282380D02*
X183662738Y-13282380D01*
X183567500Y-13901428D02*
X183281785Y-14282380D01*
X183281785Y-13615714D02*
X183662738Y-13996666D01*
X182472261Y-14234761D02*
X182567500Y-14282380D01*
X182757976Y-14282380D01*
X182853214Y-14234761D01*
X182900833Y-14139523D01*
X182900833Y-13758571D01*
X182853214Y-13663333D01*
X182757976Y-13615714D01*
X182567500Y-13615714D01*
X182472261Y-13663333D01*
X182424642Y-13758571D01*
X182424642Y-13853809D01*
X182900833Y-13949047D01*
X182138928Y-13615714D02*
X181757976Y-13615714D01*
X181996071Y-13282380D02*
X181996071Y-14139523D01*
X181948452Y-14234761D01*
X181853214Y-14282380D01*
X181757976Y-14282380D01*
X260100284Y4815238D02*
X260005046Y4767619D01*
X259814570Y4767619D01*
X259719332Y4815238D01*
X259671713Y4910476D01*
X259671713Y4958095D01*
X259719332Y5053333D01*
X259814570Y5100952D01*
X259957427Y5100952D01*
X260052665Y5148571D01*
X260100284Y5243809D01*
X260100284Y5291428D01*
X260052665Y5386666D01*
X259957427Y5434285D01*
X259814570Y5434285D01*
X259719332Y5386666D01*
X259100284Y4767619D02*
X259195522Y4815238D01*
X259243141Y4862857D01*
X259290760Y4958095D01*
X259290760Y5243809D01*
X259243141Y5339047D01*
X259195522Y5386666D01*
X259100284Y5434285D01*
X258957427Y5434285D01*
X258862189Y5386666D01*
X258814570Y5339047D01*
X258766951Y5243809D01*
X258766951Y4958095D01*
X258814570Y4862857D01*
X258862189Y4815238D01*
X258957427Y4767619D01*
X259100284Y4767619D01*
X257909808Y4815238D02*
X258005046Y4767619D01*
X258195522Y4767619D01*
X258290760Y4815238D01*
X258338379Y4862857D01*
X258385999Y4958095D01*
X258385999Y5243809D01*
X258338379Y5339047D01*
X258290760Y5386666D01*
X258195522Y5434285D01*
X258005046Y5434285D01*
X257909808Y5386666D01*
X257481237Y4767619D02*
X257481237Y5767619D01*
X257385999Y5148571D02*
X257100284Y4767619D01*
X257100284Y5434285D02*
X257481237Y5053333D01*
X256290760Y4815238D02*
X256385999Y4767619D01*
X256576475Y4767619D01*
X256671713Y4815238D01*
X256719332Y4910476D01*
X256719332Y5291428D01*
X256671713Y5386666D01*
X256576475Y5434285D01*
X256385999Y5434285D01*
X256290760Y5386666D01*
X256243141Y5291428D01*
X256243141Y5196190D01*
X256719332Y5100952D01*
X255957427Y5434285D02*
X255576475Y5434285D01*
X255814570Y5767619D02*
X255814570Y4910476D01*
X255766951Y4815238D01*
X255671713Y4767619D01*
X255576475Y4767619D01*
X224381785Y-14234761D02*
X224286547Y-14282380D01*
X224096071Y-14282380D01*
X224000833Y-14234761D01*
X223953214Y-14139523D01*
X223953214Y-14091904D01*
X224000833Y-13996666D01*
X224096071Y-13949047D01*
X224238928Y-13949047D01*
X224334166Y-13901428D01*
X224381785Y-13806190D01*
X224381785Y-13758571D01*
X224334166Y-13663333D01*
X224238928Y-13615714D01*
X224096071Y-13615714D01*
X224000833Y-13663333D01*
X223381785Y-14282380D02*
X223477023Y-14234761D01*
X223524642Y-14187142D01*
X223572261Y-14091904D01*
X223572261Y-13806190D01*
X223524642Y-13710952D01*
X223477023Y-13663333D01*
X223381785Y-13615714D01*
X223238928Y-13615714D01*
X223143690Y-13663333D01*
X223096071Y-13710952D01*
X223048452Y-13806190D01*
X223048452Y-14091904D01*
X223096071Y-14187142D01*
X223143690Y-14234761D01*
X223238928Y-14282380D01*
X223381785Y-14282380D01*
X222191309Y-14234761D02*
X222286547Y-14282380D01*
X222477023Y-14282380D01*
X222572261Y-14234761D01*
X222619880Y-14187142D01*
X222667500Y-14091904D01*
X222667500Y-13806190D01*
X222619880Y-13710952D01*
X222572261Y-13663333D01*
X222477023Y-13615714D01*
X222286547Y-13615714D01*
X222191309Y-13663333D01*
X221762738Y-14282380D02*
X221762738Y-13282380D01*
X221667500Y-13901428D02*
X221381785Y-14282380D01*
X221381785Y-13615714D02*
X221762738Y-13996666D01*
X220572261Y-14234761D02*
X220667500Y-14282380D01*
X220857976Y-14282380D01*
X220953214Y-14234761D01*
X221000833Y-14139523D01*
X221000833Y-13758571D01*
X220953214Y-13663333D01*
X220857976Y-13615714D01*
X220667500Y-13615714D01*
X220572261Y-13663333D01*
X220524642Y-13758571D01*
X220524642Y-13853809D01*
X221000833Y-13949047D01*
X220238928Y-13615714D02*
X219857976Y-13615714D01*
X220096071Y-13282380D02*
X220096071Y-14139523D01*
X220048452Y-14234761D01*
X219953214Y-14282380D01*
X219857976Y-14282380D01*
X215231608Y10282036D02*
X215758378Y10527762D01*
X215726479Y9996321D02*
X216226479Y10862347D01*
X215896565Y11052823D01*
X215790277Y11059203D01*
X215725228Y11041773D01*
X215636370Y10983104D01*
X215564941Y10859386D01*
X215558561Y10753098D01*
X215575991Y10688049D01*
X215634660Y10599191D01*
X215964575Y10408714D01*
X215122359Y10949954D02*
X214833684Y11116620D01*
X214448061Y10734417D02*
X214860454Y10496321D01*
X215360454Y11362347D01*
X214948061Y11600442D01*
X214141956Y10966132D02*
X213994429Y10996321D01*
X213788232Y11115369D01*
X213729563Y11204227D01*
X213712133Y11269276D01*
X213718513Y11375564D01*
X213766132Y11458043D01*
X213854990Y11516712D01*
X213920039Y11534142D01*
X214026327Y11527762D01*
X214215094Y11473763D01*
X214321382Y11467383D01*
X214386431Y11484813D01*
X214475289Y11543482D01*
X214522908Y11625961D01*
X214529288Y11732249D01*
X214511858Y11797298D01*
X214453189Y11886156D01*
X214246993Y12005204D01*
X214099465Y12035393D01*
X213514026Y11878525D02*
X213225351Y12045192D01*
X212839728Y11662988D02*
X213252121Y11424893D01*
X213752121Y12290918D01*
X213339728Y12529013D01*
X213092292Y12671871D02*
X212597421Y12957585D01*
X212344856Y11948702D02*
X212844856Y12814728D01*
X254721904Y957619D02*
X254721904Y148095D01*
X254674285Y52857D01*
X254626666Y5238D01*
X254531428Y-42380D01*
X254340952Y-42380D01*
X254245714Y5238D01*
X254198095Y52857D01*
X254150476Y148095D01*
X254150476Y957619D01*
X253721904Y862380D02*
X253674285Y910000D01*
X253579047Y957619D01*
X253340952Y957619D01*
X253245714Y910000D01*
X253198095Y862380D01*
X253150476Y767142D01*
X253150476Y671904D01*
X253198095Y529047D01*
X253769523Y-42380D01*
X253150476Y-42380D01*
D13*
X268249285Y-1986428D02*
X267499285Y-1986428D01*
X268035000Y-1736428D01*
X267499285Y-1486428D01*
X268249285Y-1486428D01*
X268249285Y-1129285D02*
X267749285Y-1129285D01*
X267499285Y-1129285D02*
X267535000Y-1165000D01*
X267570714Y-1129285D01*
X267535000Y-1093571D01*
X267499285Y-1129285D01*
X267570714Y-1129285D01*
X268213571Y-450714D02*
X268249285Y-522142D01*
X268249285Y-665000D01*
X268213571Y-736428D01*
X268177857Y-772142D01*
X268106428Y-807857D01*
X267892142Y-807857D01*
X267820714Y-772142D01*
X267785000Y-736428D01*
X267749285Y-665000D01*
X267749285Y-522142D01*
X267785000Y-450714D01*
X268249285Y-129285D02*
X267749285Y-129285D01*
X267892142Y-129285D02*
X267820714Y-93571D01*
X267785000Y-57857D01*
X267749285Y13571D01*
X267749285Y85000D01*
X268249285Y442142D02*
X268213571Y370714D01*
X268177857Y335000D01*
X268106428Y299285D01*
X267892142Y299285D01*
X267820714Y335000D01*
X267785000Y370714D01*
X267749285Y442142D01*
X267749285Y549285D01*
X267785000Y620714D01*
X267820714Y656428D01*
X267892142Y692142D01*
X268106428Y692142D01*
X268177857Y656428D01*
X268213571Y620714D01*
X268249285Y549285D01*
X268249285Y442142D01*
X267499285Y1013571D02*
X268106428Y1013571D01*
X268177857Y1049285D01*
X268213571Y1085000D01*
X268249285Y1156428D01*
X268249285Y1299285D01*
X268213571Y1370714D01*
X268177857Y1406428D01*
X268106428Y1442142D01*
X267499285Y1442142D01*
X268213571Y1763571D02*
X268249285Y1870714D01*
X268249285Y2049285D01*
X268213571Y2120714D01*
X268177857Y2156428D01*
X268106428Y2192142D01*
X268035000Y2192142D01*
X267963571Y2156428D01*
X267927857Y2120714D01*
X267892142Y2049285D01*
X267856428Y1906428D01*
X267820714Y1835000D01*
X267785000Y1799285D01*
X267713571Y1763571D01*
X267642142Y1763571D01*
X267570714Y1799285D01*
X267535000Y1835000D01*
X267499285Y1906428D01*
X267499285Y2085000D01*
X267535000Y2192142D01*
X267856428Y2763571D02*
X267892142Y2870714D01*
X267927857Y2906428D01*
X267999285Y2942142D01*
X268106428Y2942142D01*
X268177857Y2906428D01*
X268213571Y2870714D01*
X268249285Y2799285D01*
X268249285Y2513571D01*
X267499285Y2513571D01*
X267499285Y2763571D01*
X267535000Y2835000D01*
X267570714Y2870714D01*
X267642142Y2906428D01*
X267713571Y2906428D01*
X267785000Y2870714D01*
X267820714Y2835000D01*
X267856428Y2763571D01*
X267856428Y2513571D01*
D14*
X238091571Y-5611190D02*
X238055857Y-5515476D01*
X238020142Y-5483571D01*
X237948714Y-5451666D01*
X237841571Y-5451666D01*
X237770142Y-5483571D01*
X237734428Y-5515476D01*
X237698714Y-5579285D01*
X237698714Y-5834523D01*
X238448714Y-5834523D01*
X238448714Y-5611190D01*
X238413000Y-5547380D01*
X238377285Y-5515476D01*
X238305857Y-5483571D01*
X238234428Y-5483571D01*
X238163000Y-5515476D01*
X238127285Y-5547380D01*
X238091571Y-5611190D01*
X238091571Y-5834523D01*
X238198714Y-4877380D02*
X237698714Y-4877380D01*
X238484428Y-5036904D02*
X237948714Y-5196428D01*
X237948714Y-4781666D01*
X238484428Y-4047857D02*
X237520142Y-4622142D01*
X238127285Y-3728809D02*
X238163000Y-3792619D01*
X238198714Y-3824523D01*
X238270142Y-3856428D01*
X238305857Y-3856428D01*
X238377285Y-3824523D01*
X238413000Y-3792619D01*
X238448714Y-3728809D01*
X238448714Y-3601190D01*
X238413000Y-3537380D01*
X238377285Y-3505476D01*
X238305857Y-3473571D01*
X238270142Y-3473571D01*
X238198714Y-3505476D01*
X238163000Y-3537380D01*
X238127285Y-3601190D01*
X238127285Y-3728809D01*
X238091571Y-3792619D01*
X238055857Y-3824523D01*
X237984428Y-3856428D01*
X237841571Y-3856428D01*
X237770142Y-3824523D01*
X237734428Y-3792619D01*
X237698714Y-3728809D01*
X237698714Y-3601190D01*
X237734428Y-3537380D01*
X237770142Y-3505476D01*
X237841571Y-3473571D01*
X237984428Y-3473571D01*
X238055857Y-3505476D01*
X238091571Y-3537380D01*
X238127285Y-3601190D01*
X260558714Y-5599571D02*
X261308714Y-5599571D01*
X261308714Y-5440047D01*
X261273000Y-5344333D01*
X261201571Y-5280523D01*
X261130142Y-5248619D01*
X260987285Y-5216714D01*
X260880142Y-5216714D01*
X260737285Y-5248619D01*
X260665857Y-5280523D01*
X260594428Y-5344333D01*
X260558714Y-5440047D01*
X260558714Y-5599571D01*
X261237285Y-4961476D02*
X261273000Y-4929571D01*
X261308714Y-4865761D01*
X261308714Y-4706238D01*
X261273000Y-4642428D01*
X261237285Y-4610523D01*
X261165857Y-4578619D01*
X261094428Y-4578619D01*
X260987285Y-4610523D01*
X260558714Y-4993380D01*
X260558714Y-4578619D01*
X261344428Y-3812904D02*
X260380142Y-4387190D01*
X260558714Y-3206714D02*
X260915857Y-3430047D01*
X260558714Y-3589571D02*
X261308714Y-3589571D01*
X261308714Y-3334333D01*
X261273000Y-3270523D01*
X261237285Y-3238619D01*
X261165857Y-3206714D01*
X261058714Y-3206714D01*
X260987285Y-3238619D01*
X260951571Y-3270523D01*
X260915857Y-3334333D01*
X260915857Y-3589571D01*
X261308714Y-2983380D02*
X260558714Y-2536714D01*
X261308714Y-2536714D02*
X260558714Y-2983380D01*
X260558714Y-1930523D02*
X260558714Y-2313380D01*
X260558714Y-2121952D02*
X261308714Y-2121952D01*
X261201571Y-2185761D01*
X261130142Y-2249571D01*
X261094428Y-2313380D01*
X235713571Y-5236190D02*
X235677857Y-5140476D01*
X235642142Y-5108571D01*
X235570714Y-5076666D01*
X235463571Y-5076666D01*
X235392142Y-5108571D01*
X235356428Y-5140476D01*
X235320714Y-5204285D01*
X235320714Y-5459523D01*
X236070714Y-5459523D01*
X236070714Y-5236190D01*
X236035000Y-5172380D01*
X235999285Y-5140476D01*
X235927857Y-5108571D01*
X235856428Y-5108571D01*
X235785000Y-5140476D01*
X235749285Y-5172380D01*
X235713571Y-5236190D01*
X235713571Y-5459523D01*
X236070714Y-4470476D02*
X236070714Y-4789523D01*
X235713571Y-4821428D01*
X235749285Y-4789523D01*
X235785000Y-4725714D01*
X235785000Y-4566190D01*
X235749285Y-4502380D01*
X235713571Y-4470476D01*
X235642142Y-4438571D01*
X235463571Y-4438571D01*
X235392142Y-4470476D01*
X235356428Y-4502380D01*
X235320714Y-4566190D01*
X235320714Y-4725714D01*
X235356428Y-4789523D01*
X235392142Y-4821428D01*
X236106428Y-3672857D02*
X235142142Y-4247142D01*
X235320714Y-3417619D02*
X235320714Y-3290000D01*
X235356428Y-3226190D01*
X235392142Y-3194285D01*
X235499285Y-3130476D01*
X235642142Y-3098571D01*
X235927857Y-3098571D01*
X235999285Y-3130476D01*
X236035000Y-3162380D01*
X236070714Y-3226190D01*
X236070714Y-3353809D01*
X236035000Y-3417619D01*
X235999285Y-3449523D01*
X235927857Y-3481428D01*
X235749285Y-3481428D01*
X235677857Y-3449523D01*
X235642142Y-3417619D01*
X235606428Y-3353809D01*
X235606428Y-3226190D01*
X235642142Y-3162380D01*
X235677857Y-3130476D01*
X235749285Y-3098571D01*
X245262142Y-5541666D02*
X245226428Y-5573571D01*
X245190714Y-5669285D01*
X245190714Y-5733095D01*
X245226428Y-5828809D01*
X245297857Y-5892619D01*
X245369285Y-5924523D01*
X245512142Y-5956428D01*
X245619285Y-5956428D01*
X245762142Y-5924523D01*
X245833571Y-5892619D01*
X245905000Y-5828809D01*
X245940714Y-5733095D01*
X245940714Y-5669285D01*
X245905000Y-5573571D01*
X245869285Y-5541666D01*
X245940714Y-4967380D02*
X245940714Y-5095000D01*
X245905000Y-5158809D01*
X245869285Y-5190714D01*
X245762142Y-5254523D01*
X245619285Y-5286428D01*
X245333571Y-5286428D01*
X245262142Y-5254523D01*
X245226428Y-5222619D01*
X245190714Y-5158809D01*
X245190714Y-5031190D01*
X245226428Y-4967380D01*
X245262142Y-4935476D01*
X245333571Y-4903571D01*
X245512142Y-4903571D01*
X245583571Y-4935476D01*
X245619285Y-4967380D01*
X245655000Y-5031190D01*
X245655000Y-5158809D01*
X245619285Y-5222619D01*
X245583571Y-5254523D01*
X245512142Y-5286428D01*
X245976428Y-4137857D02*
X245012142Y-4712142D01*
X245940714Y-3595476D02*
X245940714Y-3914523D01*
X245583571Y-3946428D01*
X245619285Y-3914523D01*
X245655000Y-3850714D01*
X245655000Y-3691190D01*
X245619285Y-3627380D01*
X245583571Y-3595476D01*
X245512142Y-3563571D01*
X245333571Y-3563571D01*
X245262142Y-3595476D01*
X245226428Y-3627380D01*
X245190714Y-3691190D01*
X245190714Y-3850714D01*
X245226428Y-3914523D01*
X245262142Y-3946428D01*
X250434428Y-5872619D02*
X250398714Y-5776904D01*
X250398714Y-5617380D01*
X250434428Y-5553571D01*
X250470142Y-5521666D01*
X250541571Y-5489761D01*
X250613000Y-5489761D01*
X250684428Y-5521666D01*
X250720142Y-5553571D01*
X250755857Y-5617380D01*
X250791571Y-5745000D01*
X250827285Y-5808809D01*
X250863000Y-5840714D01*
X250934428Y-5872619D01*
X251005857Y-5872619D01*
X251077285Y-5840714D01*
X251113000Y-5808809D01*
X251148714Y-5745000D01*
X251148714Y-5585476D01*
X251113000Y-5489761D01*
X250470142Y-4819761D02*
X250434428Y-4851666D01*
X250398714Y-4947380D01*
X250398714Y-5011190D01*
X250434428Y-5106904D01*
X250505857Y-5170714D01*
X250577285Y-5202619D01*
X250720142Y-5234523D01*
X250827285Y-5234523D01*
X250970142Y-5202619D01*
X251041571Y-5170714D01*
X251113000Y-5106904D01*
X251148714Y-5011190D01*
X251148714Y-4947380D01*
X251113000Y-4851666D01*
X251077285Y-4819761D01*
X250398714Y-4213571D02*
X250398714Y-4532619D01*
X251148714Y-4532619D01*
X251184428Y-3511666D02*
X250220142Y-4085952D01*
X250398714Y-3288333D02*
X251148714Y-3288333D01*
X251148714Y-3128809D01*
X251113000Y-3033095D01*
X251041571Y-2969285D01*
X250970142Y-2937380D01*
X250827285Y-2905476D01*
X250720142Y-2905476D01*
X250577285Y-2937380D01*
X250505857Y-2969285D01*
X250434428Y-3033095D01*
X250398714Y-3128809D01*
X250398714Y-3288333D01*
X251148714Y-2490714D02*
X251148714Y-2426904D01*
X251113000Y-2363095D01*
X251077285Y-2331190D01*
X251005857Y-2299285D01*
X250863000Y-2267380D01*
X250684428Y-2267380D01*
X250541571Y-2299285D01*
X250470142Y-2331190D01*
X250434428Y-2363095D01*
X250398714Y-2426904D01*
X250398714Y-2490714D01*
X250434428Y-2554523D01*
X250470142Y-2586428D01*
X250541571Y-2618333D01*
X250684428Y-2650238D01*
X250863000Y-2650238D01*
X251005857Y-2618333D01*
X251077285Y-2586428D01*
X251113000Y-2554523D01*
X251148714Y-2490714D01*
X251184428Y-1501666D02*
X250220142Y-2075952D01*
X251148714Y-1342142D02*
X251148714Y-927380D01*
X250863000Y-1150714D01*
X250863000Y-1055000D01*
X250827285Y-991190D01*
X250791571Y-959285D01*
X250720142Y-927380D01*
X250541571Y-927380D01*
X250470142Y-959285D01*
X250434428Y-991190D01*
X250398714Y-1055000D01*
X250398714Y-1246428D01*
X250434428Y-1310238D01*
X250470142Y-1342142D01*
X253056428Y-5533571D02*
X253020714Y-5437857D01*
X253020714Y-5278333D01*
X253056428Y-5214523D01*
X253092142Y-5182619D01*
X253163571Y-5150714D01*
X253235000Y-5150714D01*
X253306428Y-5182619D01*
X253342142Y-5214523D01*
X253377857Y-5278333D01*
X253413571Y-5405952D01*
X253449285Y-5469761D01*
X253485000Y-5501666D01*
X253556428Y-5533571D01*
X253627857Y-5533571D01*
X253699285Y-5501666D01*
X253735000Y-5469761D01*
X253770714Y-5405952D01*
X253770714Y-5246428D01*
X253735000Y-5150714D01*
X253020714Y-4863571D02*
X253770714Y-4863571D01*
X253770714Y-4704047D01*
X253735000Y-4608333D01*
X253663571Y-4544523D01*
X253592142Y-4512619D01*
X253449285Y-4480714D01*
X253342142Y-4480714D01*
X253199285Y-4512619D01*
X253127857Y-4544523D01*
X253056428Y-4608333D01*
X253020714Y-4704047D01*
X253020714Y-4863571D01*
X253235000Y-4225476D02*
X253235000Y-3906428D01*
X253020714Y-4289285D02*
X253770714Y-4065952D01*
X253020714Y-3842619D01*
X253806428Y-3140714D02*
X252842142Y-3715000D01*
X253020714Y-2917380D02*
X253770714Y-2917380D01*
X253770714Y-2757857D01*
X253735000Y-2662142D01*
X253663571Y-2598333D01*
X253592142Y-2566428D01*
X253449285Y-2534523D01*
X253342142Y-2534523D01*
X253199285Y-2566428D01*
X253127857Y-2598333D01*
X253056428Y-2662142D01*
X253020714Y-2757857D01*
X253020714Y-2917380D01*
X253020714Y-1896428D02*
X253020714Y-2279285D01*
X253020714Y-2087857D02*
X253770714Y-2087857D01*
X253663571Y-2151666D01*
X253592142Y-2215476D01*
X253556428Y-2279285D01*
X253806428Y-1130714D02*
X252842142Y-1705000D01*
X253699285Y-939285D02*
X253735000Y-907380D01*
X253770714Y-843571D01*
X253770714Y-684047D01*
X253735000Y-620238D01*
X253699285Y-588333D01*
X253627857Y-556428D01*
X253556428Y-556428D01*
X253449285Y-588333D01*
X253020714Y-971190D01*
X253020714Y-556428D01*
X247731714Y-5580523D02*
X248481714Y-5580523D01*
X248481714Y-5421000D01*
X248446000Y-5325285D01*
X248374571Y-5261476D01*
X248303142Y-5229571D01*
X248160285Y-5197666D01*
X248053142Y-5197666D01*
X247910285Y-5229571D01*
X247838857Y-5261476D01*
X247767428Y-5325285D01*
X247731714Y-5421000D01*
X247731714Y-5580523D01*
X248231714Y-4623380D02*
X247731714Y-4623380D01*
X248517428Y-4782904D02*
X247981714Y-4942428D01*
X247981714Y-4527666D01*
X248517428Y-3793857D02*
X247553142Y-4368142D01*
X248231714Y-3283380D02*
X247731714Y-3283380D01*
X248517428Y-3442904D02*
X247981714Y-3602428D01*
X247981714Y-3187666D01*
X263098714Y-5900809D02*
X263848714Y-5900809D01*
X263848714Y-5741285D01*
X263813000Y-5645571D01*
X263741571Y-5581761D01*
X263670142Y-5549857D01*
X263527285Y-5517952D01*
X263420142Y-5517952D01*
X263277285Y-5549857D01*
X263205857Y-5581761D01*
X263134428Y-5645571D01*
X263098714Y-5741285D01*
X263098714Y-5900809D01*
X263848714Y-5294619D02*
X263848714Y-4879857D01*
X263563000Y-5103190D01*
X263563000Y-5007476D01*
X263527285Y-4943666D01*
X263491571Y-4911761D01*
X263420142Y-4879857D01*
X263241571Y-4879857D01*
X263170142Y-4911761D01*
X263134428Y-4943666D01*
X263098714Y-5007476D01*
X263098714Y-5198904D01*
X263134428Y-5262714D01*
X263170142Y-5294619D01*
X263884428Y-4114142D02*
X262920142Y-4688428D01*
X263848714Y-3986523D02*
X263848714Y-3603666D01*
X263098714Y-3795095D02*
X263848714Y-3795095D01*
X263848714Y-3444142D02*
X263098714Y-2997476D01*
X263848714Y-2997476D02*
X263098714Y-3444142D01*
X263848714Y-2614619D02*
X263848714Y-2550809D01*
X263813000Y-2487000D01*
X263777285Y-2455095D01*
X263705857Y-2423190D01*
X263563000Y-2391285D01*
X263384428Y-2391285D01*
X263241571Y-2423190D01*
X263170142Y-2455095D01*
X263134428Y-2487000D01*
X263098714Y-2550809D01*
X263098714Y-2614619D01*
X263134428Y-2678428D01*
X263170142Y-2710333D01*
X263241571Y-2742238D01*
X263384428Y-2774142D01*
X263563000Y-2774142D01*
X263705857Y-2742238D01*
X263777285Y-2710333D01*
X263813000Y-2678428D01*
X263848714Y-2614619D01*
X256235000Y-5055476D02*
X256270714Y-5119285D01*
X256270714Y-5215000D01*
X256235000Y-5310714D01*
X256163571Y-5374523D01*
X256092142Y-5406428D01*
X255949285Y-5438333D01*
X255842142Y-5438333D01*
X255699285Y-5406428D01*
X255627857Y-5374523D01*
X255556428Y-5310714D01*
X255520714Y-5215000D01*
X255520714Y-5151190D01*
X255556428Y-5055476D01*
X255592142Y-5023571D01*
X255842142Y-5023571D01*
X255842142Y-5151190D01*
X255520714Y-4736428D02*
X256270714Y-4736428D01*
X255520714Y-4353571D01*
X256270714Y-4353571D01*
X255520714Y-4034523D02*
X256270714Y-4034523D01*
X256270714Y-3875000D01*
X256235000Y-3779285D01*
X256163571Y-3715476D01*
X256092142Y-3683571D01*
X255949285Y-3651666D01*
X255842142Y-3651666D01*
X255699285Y-3683571D01*
X255627857Y-3715476D01*
X255556428Y-3779285D01*
X255520714Y-3875000D01*
X255520714Y-4034523D01*
X258685000Y-5055476D02*
X258720714Y-5119285D01*
X258720714Y-5215000D01*
X258685000Y-5310714D01*
X258613571Y-5374523D01*
X258542142Y-5406428D01*
X258399285Y-5438333D01*
X258292142Y-5438333D01*
X258149285Y-5406428D01*
X258077857Y-5374523D01*
X258006428Y-5310714D01*
X257970714Y-5215000D01*
X257970714Y-5151190D01*
X258006428Y-5055476D01*
X258042142Y-5023571D01*
X258292142Y-5023571D01*
X258292142Y-5151190D01*
X257970714Y-4736428D02*
X258720714Y-4736428D01*
X257970714Y-4353571D01*
X258720714Y-4353571D01*
X257970714Y-4034523D02*
X258720714Y-4034523D01*
X258720714Y-3875000D01*
X258685000Y-3779285D01*
X258613571Y-3715476D01*
X258542142Y-3683571D01*
X258399285Y-3651666D01*
X258292142Y-3651666D01*
X258149285Y-3683571D01*
X258077857Y-3715476D01*
X258006428Y-3779285D01*
X257970714Y-3875000D01*
X257970714Y-4034523D01*
X242920714Y-5459523D02*
X243670714Y-5459523D01*
X243670714Y-5300000D01*
X243635000Y-5204285D01*
X243563571Y-5140476D01*
X243492142Y-5108571D01*
X243349285Y-5076666D01*
X243242142Y-5076666D01*
X243099285Y-5108571D01*
X243027857Y-5140476D01*
X242956428Y-5204285D01*
X242920714Y-5300000D01*
X242920714Y-5459523D01*
X243670714Y-4853333D02*
X243670714Y-4406666D01*
X242920714Y-4693809D01*
X243706428Y-3672857D02*
X242742142Y-4247142D01*
X243670714Y-3162380D02*
X243670714Y-3290000D01*
X243635000Y-3353809D01*
X243599285Y-3385714D01*
X243492142Y-3449523D01*
X243349285Y-3481428D01*
X243063571Y-3481428D01*
X242992142Y-3449523D01*
X242956428Y-3417619D01*
X242920714Y-3353809D01*
X242920714Y-3226190D01*
X242956428Y-3162380D01*
X242992142Y-3130476D01*
X243063571Y-3098571D01*
X243242142Y-3098571D01*
X243313571Y-3130476D01*
X243349285Y-3162380D01*
X243385000Y-3226190D01*
X243385000Y-3353809D01*
X243349285Y-3417619D01*
X243313571Y-3449523D01*
X243242142Y-3481428D01*
X241253571Y-5972619D02*
X241253571Y-5749285D01*
X240860714Y-5653571D02*
X240860714Y-5972619D01*
X241610714Y-5972619D01*
X241610714Y-5653571D01*
X241610714Y-5079285D02*
X241610714Y-5206904D01*
X241575000Y-5270714D01*
X241539285Y-5302619D01*
X241432142Y-5366428D01*
X241289285Y-5398333D01*
X241003571Y-5398333D01*
X240932142Y-5366428D01*
X240896428Y-5334523D01*
X240860714Y-5270714D01*
X240860714Y-5143095D01*
X240896428Y-5079285D01*
X240932142Y-5047380D01*
X241003571Y-5015476D01*
X241182142Y-5015476D01*
X241253571Y-5047380D01*
X241289285Y-5079285D01*
X241325000Y-5143095D01*
X241325000Y-5270714D01*
X241289285Y-5334523D01*
X241253571Y-5366428D01*
X241182142Y-5398333D01*
X241646428Y-4249761D02*
X240682142Y-4824047D01*
X241610714Y-4090238D02*
X241610714Y-3643571D01*
X240860714Y-3930714D01*
X237670714Y3672380D02*
X237670714Y3289523D01*
X237670714Y3480952D02*
X238420714Y3480952D01*
X238313571Y3417142D01*
X238242142Y3353333D01*
X238206428Y3289523D01*
X238420714Y4246666D02*
X238420714Y4119047D01*
X238385000Y4055238D01*
X238349285Y4023333D01*
X238242142Y3959523D01*
X238099285Y3927619D01*
X237813571Y3927619D01*
X237742142Y3959523D01*
X237706428Y3991428D01*
X237670714Y4055238D01*
X237670714Y4182857D01*
X237706428Y4246666D01*
X237742142Y4278571D01*
X237813571Y4310476D01*
X237992142Y4310476D01*
X238063571Y4278571D01*
X238099285Y4246666D01*
X238135000Y4182857D01*
X238135000Y4055238D01*
X238099285Y3991428D01*
X238063571Y3959523D01*
X237992142Y3927619D01*
X238456428Y5076190D02*
X237492142Y4501904D01*
X238063571Y5522857D02*
X238027857Y5618571D01*
X237992142Y5650476D01*
X237920714Y5682380D01*
X237813571Y5682380D01*
X237742142Y5650476D01*
X237706428Y5618571D01*
X237670714Y5554761D01*
X237670714Y5299523D01*
X238420714Y5299523D01*
X238420714Y5522857D01*
X238385000Y5586666D01*
X238349285Y5618571D01*
X238277857Y5650476D01*
X238206428Y5650476D01*
X238135000Y5618571D01*
X238099285Y5586666D01*
X238063571Y5522857D01*
X238063571Y5299523D01*
X238349285Y5937619D02*
X238385000Y5969523D01*
X238420714Y6033333D01*
X238420714Y6192857D01*
X238385000Y6256666D01*
X238349285Y6288571D01*
X238277857Y6320476D01*
X238206428Y6320476D01*
X238099285Y6288571D01*
X237670714Y5905714D01*
X237670714Y6320476D01*
X235285714Y3595380D02*
X235285714Y3212523D01*
X235285714Y3403952D02*
X236035714Y3403952D01*
X235928571Y3340142D01*
X235857142Y3276333D01*
X235821428Y3212523D01*
X236035714Y4010142D02*
X236035714Y4073952D01*
X236000000Y4137761D01*
X235964285Y4169666D01*
X235892857Y4201571D01*
X235750000Y4233476D01*
X235571428Y4233476D01*
X235428571Y4201571D01*
X235357142Y4169666D01*
X235321428Y4137761D01*
X235285714Y4073952D01*
X235285714Y4010142D01*
X235321428Y3946333D01*
X235357142Y3914428D01*
X235428571Y3882523D01*
X235571428Y3850619D01*
X235750000Y3850619D01*
X235892857Y3882523D01*
X235964285Y3914428D01*
X236000000Y3946333D01*
X236035714Y4010142D01*
X236071428Y4999190D02*
X235107142Y4424904D01*
X235678571Y5445857D02*
X235642857Y5541571D01*
X235607142Y5573476D01*
X235535714Y5605380D01*
X235428571Y5605380D01*
X235357142Y5573476D01*
X235321428Y5541571D01*
X235285714Y5477761D01*
X235285714Y5222523D01*
X236035714Y5222523D01*
X236035714Y5445857D01*
X236000000Y5509666D01*
X235964285Y5541571D01*
X235892857Y5573476D01*
X235821428Y5573476D01*
X235750000Y5541571D01*
X235714285Y5509666D01*
X235678571Y5445857D01*
X235678571Y5222523D01*
X236035714Y6179666D02*
X236035714Y6052047D01*
X236000000Y5988238D01*
X235964285Y5956333D01*
X235857142Y5892523D01*
X235714285Y5860619D01*
X235428571Y5860619D01*
X235357142Y5892523D01*
X235321428Y5924428D01*
X235285714Y5988238D01*
X235285714Y6115857D01*
X235321428Y6179666D01*
X235357142Y6211571D01*
X235428571Y6243476D01*
X235607142Y6243476D01*
X235678571Y6211571D01*
X235714285Y6179666D01*
X235750000Y6115857D01*
X235750000Y5988238D01*
X235714285Y5924428D01*
X235678571Y5892523D01*
X235607142Y5860619D01*
X240220714Y3672380D02*
X240220714Y3289523D01*
X240220714Y3480952D02*
X240970714Y3480952D01*
X240863571Y3417142D01*
X240792142Y3353333D01*
X240756428Y3289523D01*
X240720714Y4246666D02*
X240220714Y4246666D01*
X241006428Y4087142D02*
X240470714Y3927619D01*
X240470714Y4342380D01*
X241006428Y5076190D02*
X240042142Y4501904D01*
X240613571Y5522857D02*
X240577857Y5618571D01*
X240542142Y5650476D01*
X240470714Y5682380D01*
X240363571Y5682380D01*
X240292142Y5650476D01*
X240256428Y5618571D01*
X240220714Y5554761D01*
X240220714Y5299523D01*
X240970714Y5299523D01*
X240970714Y5522857D01*
X240935000Y5586666D01*
X240899285Y5618571D01*
X240827857Y5650476D01*
X240756428Y5650476D01*
X240685000Y5618571D01*
X240649285Y5586666D01*
X240613571Y5522857D01*
X240613571Y5299523D01*
X240970714Y5905714D02*
X240970714Y6320476D01*
X240685000Y6097142D01*
X240685000Y6192857D01*
X240649285Y6256666D01*
X240613571Y6288571D01*
X240542142Y6320476D01*
X240363571Y6320476D01*
X240292142Y6288571D01*
X240256428Y6256666D01*
X240220714Y6192857D01*
X240220714Y6001428D01*
X240256428Y5937619D01*
X240292142Y5905714D01*
X242770714Y3672380D02*
X242770714Y3289523D01*
X242770714Y3480952D02*
X243520714Y3480952D01*
X243413571Y3417142D01*
X243342142Y3353333D01*
X243306428Y3289523D01*
X243520714Y4278571D02*
X243520714Y3959523D01*
X243163571Y3927619D01*
X243199285Y3959523D01*
X243235000Y4023333D01*
X243235000Y4182857D01*
X243199285Y4246666D01*
X243163571Y4278571D01*
X243092142Y4310476D01*
X242913571Y4310476D01*
X242842142Y4278571D01*
X242806428Y4246666D01*
X242770714Y4182857D01*
X242770714Y4023333D01*
X242806428Y3959523D01*
X242842142Y3927619D01*
X243556428Y5076190D02*
X242592142Y4501904D01*
X243163571Y5522857D02*
X243127857Y5618571D01*
X243092142Y5650476D01*
X243020714Y5682380D01*
X242913571Y5682380D01*
X242842142Y5650476D01*
X242806428Y5618571D01*
X242770714Y5554761D01*
X242770714Y5299523D01*
X243520714Y5299523D01*
X243520714Y5522857D01*
X243485000Y5586666D01*
X243449285Y5618571D01*
X243377857Y5650476D01*
X243306428Y5650476D01*
X243235000Y5618571D01*
X243199285Y5586666D01*
X243163571Y5522857D01*
X243163571Y5299523D01*
X242770714Y6320476D02*
X242770714Y5937619D01*
X242770714Y6129047D02*
X243520714Y6129047D01*
X243413571Y6065238D01*
X243342142Y6001428D01*
X243306428Y5937619D01*
X245535000Y3369285D02*
X245535000Y3688333D01*
X245320714Y3305476D02*
X246070714Y3528809D01*
X245320714Y3752142D01*
X246070714Y4103095D02*
X246070714Y4166904D01*
X246035000Y4230714D01*
X245999285Y4262619D01*
X245927857Y4294523D01*
X245785000Y4326428D01*
X245606428Y4326428D01*
X245463571Y4294523D01*
X245392142Y4262619D01*
X245356428Y4230714D01*
X245320714Y4166904D01*
X245320714Y4103095D01*
X245356428Y4039285D01*
X245392142Y4007380D01*
X245463571Y3975476D01*
X245606428Y3943571D01*
X245785000Y3943571D01*
X245927857Y3975476D01*
X245999285Y4007380D01*
X246035000Y4039285D01*
X246070714Y4103095D01*
X246106428Y5092142D02*
X245142142Y4517857D01*
X245713571Y5538809D02*
X245713571Y5315476D01*
X245320714Y5315476D02*
X246070714Y5315476D01*
X246070714Y5634523D01*
X246070714Y5825952D02*
X246070714Y6272619D01*
X245320714Y5985476D01*
X248085000Y3369285D02*
X248085000Y3688333D01*
X247870714Y3305476D02*
X248620714Y3528809D01*
X247870714Y3752142D01*
X247870714Y4326428D02*
X247870714Y3943571D01*
X247870714Y4135000D02*
X248620714Y4135000D01*
X248513571Y4071190D01*
X248442142Y4007380D01*
X248406428Y3943571D01*
X248656428Y5092142D02*
X247692142Y4517857D01*
X248263571Y5538809D02*
X248263571Y5315476D01*
X247870714Y5315476D02*
X248620714Y5315476D01*
X248620714Y5634523D01*
X248620714Y6176904D02*
X248620714Y6049285D01*
X248585000Y5985476D01*
X248549285Y5953571D01*
X248442142Y5889761D01*
X248299285Y5857857D01*
X248013571Y5857857D01*
X247942142Y5889761D01*
X247906428Y5921666D01*
X247870714Y5985476D01*
X247870714Y6113095D01*
X247906428Y6176904D01*
X247942142Y6208809D01*
X248013571Y6240714D01*
X248192142Y6240714D01*
X248263571Y6208809D01*
X248299285Y6176904D01*
X248335000Y6113095D01*
X248335000Y5985476D01*
X248299285Y5921666D01*
X248263571Y5889761D01*
X248192142Y5857857D01*
X250585000Y3369285D02*
X250585000Y3688333D01*
X250370714Y3305476D02*
X251120714Y3528809D01*
X250370714Y3752142D01*
X251049285Y3943571D02*
X251085000Y3975476D01*
X251120714Y4039285D01*
X251120714Y4198809D01*
X251085000Y4262619D01*
X251049285Y4294523D01*
X250977857Y4326428D01*
X250906428Y4326428D01*
X250799285Y4294523D01*
X250370714Y3911666D01*
X250370714Y4326428D01*
X251156428Y5092142D02*
X250192142Y4517857D01*
X250763571Y5538809D02*
X250763571Y5315476D01*
X250370714Y5315476D02*
X251120714Y5315476D01*
X251120714Y5634523D01*
X251120714Y6208809D02*
X251120714Y5889761D01*
X250763571Y5857857D01*
X250799285Y5889761D01*
X250835000Y5953571D01*
X250835000Y6113095D01*
X250799285Y6176904D01*
X250763571Y6208809D01*
X250692142Y6240714D01*
X250513571Y6240714D01*
X250442142Y6208809D01*
X250406428Y6176904D01*
X250370714Y6113095D01*
X250370714Y5953571D01*
X250406428Y5889761D01*
X250442142Y5857857D01*
X253085000Y3369285D02*
X253085000Y3688333D01*
X252870714Y3305476D02*
X253620714Y3528809D01*
X252870714Y3752142D01*
X253620714Y3911666D02*
X253620714Y4326428D01*
X253335000Y4103095D01*
X253335000Y4198809D01*
X253299285Y4262619D01*
X253263571Y4294523D01*
X253192142Y4326428D01*
X253013571Y4326428D01*
X252942142Y4294523D01*
X252906428Y4262619D01*
X252870714Y4198809D01*
X252870714Y4007380D01*
X252906428Y3943571D01*
X252942142Y3911666D01*
X253656428Y5092142D02*
X252692142Y4517857D01*
X253263571Y5538809D02*
X253263571Y5315476D01*
X252870714Y5315476D02*
X253620714Y5315476D01*
X253620714Y5634523D01*
X253370714Y6176904D02*
X252870714Y6176904D01*
X253656428Y6017380D02*
X253120714Y5857857D01*
X253120714Y6272619D01*
X256320714Y4511666D02*
X255570714Y4735000D01*
X256320714Y4958333D01*
X255642142Y5564523D02*
X255606428Y5532619D01*
X255570714Y5436904D01*
X255570714Y5373095D01*
X255606428Y5277380D01*
X255677857Y5213571D01*
X255749285Y5181666D01*
X255892142Y5149761D01*
X255999285Y5149761D01*
X256142142Y5181666D01*
X256213571Y5213571D01*
X256285000Y5277380D01*
X256320714Y5373095D01*
X256320714Y5436904D01*
X256285000Y5532619D01*
X256249285Y5564523D01*
X255642142Y6234523D02*
X255606428Y6202619D01*
X255570714Y6106904D01*
X255570714Y6043095D01*
X255606428Y5947380D01*
X255677857Y5883571D01*
X255749285Y5851666D01*
X255892142Y5819761D01*
X255999285Y5819761D01*
X256142142Y5851666D01*
X256213571Y5883571D01*
X256285000Y5947380D01*
X256320714Y6043095D01*
X256320714Y6106904D01*
X256285000Y6202619D01*
X256249285Y6234523D01*
X258020714Y5038095D02*
X258377857Y4814761D01*
X258020714Y4655238D02*
X258770714Y4655238D01*
X258770714Y4910476D01*
X258735000Y4974285D01*
X258699285Y5006190D01*
X258627857Y5038095D01*
X258520714Y5038095D01*
X258449285Y5006190D01*
X258413571Y4974285D01*
X258377857Y4910476D01*
X258377857Y4655238D01*
X258056428Y5293333D02*
X258020714Y5389047D01*
X258020714Y5548571D01*
X258056428Y5612380D01*
X258092142Y5644285D01*
X258163571Y5676190D01*
X258235000Y5676190D01*
X258306428Y5644285D01*
X258342142Y5612380D01*
X258377857Y5548571D01*
X258413571Y5420952D01*
X258449285Y5357142D01*
X258485000Y5325238D01*
X258556428Y5293333D01*
X258627857Y5293333D01*
X258699285Y5325238D01*
X258735000Y5357142D01*
X258770714Y5420952D01*
X258770714Y5580476D01*
X258735000Y5676190D01*
X258770714Y5867619D02*
X258770714Y6250476D01*
X258020714Y6059047D02*
X258770714Y6059047D01*
X261285000Y4894523D02*
X261320714Y4830714D01*
X261320714Y4735000D01*
X261285000Y4639285D01*
X261213571Y4575476D01*
X261142142Y4543571D01*
X260999285Y4511666D01*
X260892142Y4511666D01*
X260749285Y4543571D01*
X260677857Y4575476D01*
X260606428Y4639285D01*
X260570714Y4735000D01*
X260570714Y4798809D01*
X260606428Y4894523D01*
X260642142Y4926428D01*
X260892142Y4926428D01*
X260892142Y4798809D01*
X260570714Y5213571D02*
X261320714Y5213571D01*
X260570714Y5596428D01*
X261320714Y5596428D01*
X260570714Y5915476D02*
X261320714Y5915476D01*
X261320714Y6075000D01*
X261285000Y6170714D01*
X261213571Y6234523D01*
X261142142Y6266428D01*
X260999285Y6298333D01*
X260892142Y6298333D01*
X260749285Y6266428D01*
X260677857Y6234523D01*
X260606428Y6170714D01*
X260570714Y6075000D01*
X260570714Y5915476D01*
X263120714Y4942380D02*
X263477857Y4719047D01*
X263120714Y4559523D02*
X263870714Y4559523D01*
X263870714Y4814761D01*
X263835000Y4878571D01*
X263799285Y4910476D01*
X263727857Y4942380D01*
X263620714Y4942380D01*
X263549285Y4910476D01*
X263513571Y4878571D01*
X263477857Y4814761D01*
X263477857Y4559523D01*
X263335000Y5197619D02*
X263335000Y5516666D01*
X263120714Y5133809D02*
X263870714Y5357142D01*
X263120714Y5580476D01*
X263870714Y5740000D02*
X263120714Y5899523D01*
X263656428Y6027142D01*
X263120714Y6154761D01*
X263870714Y6314285D01*
D11*
X200569285Y4815238D02*
X200474047Y4767619D01*
X200283571Y4767619D01*
X200188333Y4815238D01*
X200140714Y4910476D01*
X200140714Y4958095D01*
X200188333Y5053333D01*
X200283571Y5100952D01*
X200426428Y5100952D01*
X200521666Y5148571D01*
X200569285Y5243809D01*
X200569285Y5291428D01*
X200521666Y5386666D01*
X200426428Y5434285D01*
X200283571Y5434285D01*
X200188333Y5386666D01*
X199569285Y4767619D02*
X199664523Y4815238D01*
X199712142Y4862857D01*
X199759761Y4958095D01*
X199759761Y5243809D01*
X199712142Y5339047D01*
X199664523Y5386666D01*
X199569285Y5434285D01*
X199426428Y5434285D01*
X199331190Y5386666D01*
X199283571Y5339047D01*
X199235952Y5243809D01*
X199235952Y4958095D01*
X199283571Y4862857D01*
X199331190Y4815238D01*
X199426428Y4767619D01*
X199569285Y4767619D01*
X198378809Y4815238D02*
X198474047Y4767619D01*
X198664523Y4767619D01*
X198759761Y4815238D01*
X198807380Y4862857D01*
X198855000Y4958095D01*
X198855000Y5243809D01*
X198807380Y5339047D01*
X198759761Y5386666D01*
X198664523Y5434285D01*
X198474047Y5434285D01*
X198378809Y5386666D01*
X197950238Y4767619D02*
X197950238Y5767619D01*
X197855000Y5148571D02*
X197569285Y4767619D01*
X197569285Y5434285D02*
X197950238Y5053333D01*
X196759761Y4815238D02*
X196855000Y4767619D01*
X197045476Y4767619D01*
X197140714Y4815238D01*
X197188333Y4910476D01*
X197188333Y5291428D01*
X197140714Y5386666D01*
X197045476Y5434285D01*
X196855000Y5434285D01*
X196759761Y5386666D01*
X196712142Y5291428D01*
X196712142Y5196190D01*
X197188333Y5100952D01*
X196426428Y5434285D02*
X196045476Y5434285D01*
X196283571Y5767619D02*
X196283571Y4910476D01*
X196235952Y4815238D01*
X196140714Y4767619D01*
X196045476Y4767619D01*
X233906785Y-33284761D02*
X233811547Y-33332380D01*
X233621071Y-33332380D01*
X233525833Y-33284761D01*
X233478214Y-33189523D01*
X233478214Y-33141904D01*
X233525833Y-33046666D01*
X233621071Y-32999047D01*
X233763928Y-32999047D01*
X233859166Y-32951428D01*
X233906785Y-32856190D01*
X233906785Y-32808571D01*
X233859166Y-32713333D01*
X233763928Y-32665714D01*
X233621071Y-32665714D01*
X233525833Y-32713333D01*
X232906785Y-33332380D02*
X233002023Y-33284761D01*
X233049642Y-33237142D01*
X233097261Y-33141904D01*
X233097261Y-32856190D01*
X233049642Y-32760952D01*
X233002023Y-32713333D01*
X232906785Y-32665714D01*
X232763928Y-32665714D01*
X232668690Y-32713333D01*
X232621071Y-32760952D01*
X232573452Y-32856190D01*
X232573452Y-33141904D01*
X232621071Y-33237142D01*
X232668690Y-33284761D01*
X232763928Y-33332380D01*
X232906785Y-33332380D01*
X231716309Y-33284761D02*
X231811547Y-33332380D01*
X232002023Y-33332380D01*
X232097261Y-33284761D01*
X232144880Y-33237142D01*
X232192500Y-33141904D01*
X232192500Y-32856190D01*
X232144880Y-32760952D01*
X232097261Y-32713333D01*
X232002023Y-32665714D01*
X231811547Y-32665714D01*
X231716309Y-32713333D01*
X231287738Y-33332380D02*
X231287738Y-32332380D01*
X231192500Y-32951428D02*
X230906785Y-33332380D01*
X230906785Y-32665714D02*
X231287738Y-33046666D01*
X230097261Y-33284761D02*
X230192500Y-33332380D01*
X230382976Y-33332380D01*
X230478214Y-33284761D01*
X230525833Y-33189523D01*
X230525833Y-32808571D01*
X230478214Y-32713333D01*
X230382976Y-32665714D01*
X230192500Y-32665714D01*
X230097261Y-32713333D01*
X230049642Y-32808571D01*
X230049642Y-32903809D01*
X230525833Y-32999047D01*
X229763928Y-32665714D02*
X229382976Y-32665714D01*
X229621071Y-32332380D02*
X229621071Y-33189523D01*
X229573452Y-33284761D01*
X229478214Y-33332380D01*
X229382976Y-33332380D01*
X191044285Y-52334761D02*
X190949047Y-52382380D01*
X190758571Y-52382380D01*
X190663333Y-52334761D01*
X190615714Y-52239523D01*
X190615714Y-52191904D01*
X190663333Y-52096666D01*
X190758571Y-52049047D01*
X190901428Y-52049047D01*
X190996666Y-52001428D01*
X191044285Y-51906190D01*
X191044285Y-51858571D01*
X190996666Y-51763333D01*
X190901428Y-51715714D01*
X190758571Y-51715714D01*
X190663333Y-51763333D01*
X190044285Y-52382380D02*
X190139523Y-52334761D01*
X190187142Y-52287142D01*
X190234761Y-52191904D01*
X190234761Y-51906190D01*
X190187142Y-51810952D01*
X190139523Y-51763333D01*
X190044285Y-51715714D01*
X189901428Y-51715714D01*
X189806190Y-51763333D01*
X189758571Y-51810952D01*
X189710952Y-51906190D01*
X189710952Y-52191904D01*
X189758571Y-52287142D01*
X189806190Y-52334761D01*
X189901428Y-52382380D01*
X190044285Y-52382380D01*
X188853809Y-52334761D02*
X188949047Y-52382380D01*
X189139523Y-52382380D01*
X189234761Y-52334761D01*
X189282380Y-52287142D01*
X189330000Y-52191904D01*
X189330000Y-51906190D01*
X189282380Y-51810952D01*
X189234761Y-51763333D01*
X189139523Y-51715714D01*
X188949047Y-51715714D01*
X188853809Y-51763333D01*
X188425238Y-52382380D02*
X188425238Y-51382380D01*
X188330000Y-52001428D02*
X188044285Y-52382380D01*
X188044285Y-51715714D02*
X188425238Y-52096666D01*
X187234761Y-52334761D02*
X187330000Y-52382380D01*
X187520476Y-52382380D01*
X187615714Y-52334761D01*
X187663333Y-52239523D01*
X187663333Y-51858571D01*
X187615714Y-51763333D01*
X187520476Y-51715714D01*
X187330000Y-51715714D01*
X187234761Y-51763333D01*
X187187142Y-51858571D01*
X187187142Y-51953809D01*
X187663333Y-52049047D01*
X186901428Y-51715714D02*
X186520476Y-51715714D01*
X186758571Y-51382380D02*
X186758571Y-52239523D01*
X186710952Y-52334761D01*
X186615714Y-52382380D01*
X186520476Y-52382380D01*
X205331785Y-14234761D02*
X205236547Y-14282380D01*
X205046071Y-14282380D01*
X204950833Y-14234761D01*
X204903214Y-14139523D01*
X204903214Y-14091904D01*
X204950833Y-13996666D01*
X205046071Y-13949047D01*
X205188928Y-13949047D01*
X205284166Y-13901428D01*
X205331785Y-13806190D01*
X205331785Y-13758571D01*
X205284166Y-13663333D01*
X205188928Y-13615714D01*
X205046071Y-13615714D01*
X204950833Y-13663333D01*
X204331785Y-14282380D02*
X204427023Y-14234761D01*
X204474642Y-14187142D01*
X204522261Y-14091904D01*
X204522261Y-13806190D01*
X204474642Y-13710952D01*
X204427023Y-13663333D01*
X204331785Y-13615714D01*
X204188928Y-13615714D01*
X204093690Y-13663333D01*
X204046071Y-13710952D01*
X203998452Y-13806190D01*
X203998452Y-14091904D01*
X204046071Y-14187142D01*
X204093690Y-14234761D01*
X204188928Y-14282380D01*
X204331785Y-14282380D01*
X203141309Y-14234761D02*
X203236547Y-14282380D01*
X203427023Y-14282380D01*
X203522261Y-14234761D01*
X203569880Y-14187142D01*
X203617500Y-14091904D01*
X203617500Y-13806190D01*
X203569880Y-13710952D01*
X203522261Y-13663333D01*
X203427023Y-13615714D01*
X203236547Y-13615714D01*
X203141309Y-13663333D01*
X202712738Y-14282380D02*
X202712738Y-13282380D01*
X202617500Y-13901428D02*
X202331785Y-14282380D01*
X202331785Y-13615714D02*
X202712738Y-13996666D01*
X201522261Y-14234761D02*
X201617500Y-14282380D01*
X201807976Y-14282380D01*
X201903214Y-14234761D01*
X201950833Y-14139523D01*
X201950833Y-13758571D01*
X201903214Y-13663333D01*
X201807976Y-13615714D01*
X201617500Y-13615714D01*
X201522261Y-13663333D01*
X201474642Y-13758571D01*
X201474642Y-13853809D01*
X201950833Y-13949047D01*
X201188928Y-13615714D02*
X200807976Y-13615714D01*
X201046071Y-13282380D02*
X201046071Y-14139523D01*
X200998452Y-14234761D01*
X200903214Y-14282380D01*
X200807976Y-14282380D01*
X195806785Y-33284761D02*
X195711547Y-33332380D01*
X195521071Y-33332380D01*
X195425833Y-33284761D01*
X195378214Y-33189523D01*
X195378214Y-33141904D01*
X195425833Y-33046666D01*
X195521071Y-32999047D01*
X195663928Y-32999047D01*
X195759166Y-32951428D01*
X195806785Y-32856190D01*
X195806785Y-32808571D01*
X195759166Y-32713333D01*
X195663928Y-32665714D01*
X195521071Y-32665714D01*
X195425833Y-32713333D01*
X194806785Y-33332380D02*
X194902023Y-33284761D01*
X194949642Y-33237142D01*
X194997261Y-33141904D01*
X194997261Y-32856190D01*
X194949642Y-32760952D01*
X194902023Y-32713333D01*
X194806785Y-32665714D01*
X194663928Y-32665714D01*
X194568690Y-32713333D01*
X194521071Y-32760952D01*
X194473452Y-32856190D01*
X194473452Y-33141904D01*
X194521071Y-33237142D01*
X194568690Y-33284761D01*
X194663928Y-33332380D01*
X194806785Y-33332380D01*
X193616309Y-33284761D02*
X193711547Y-33332380D01*
X193902023Y-33332380D01*
X193997261Y-33284761D01*
X194044880Y-33237142D01*
X194092500Y-33141904D01*
X194092500Y-32856190D01*
X194044880Y-32760952D01*
X193997261Y-32713333D01*
X193902023Y-32665714D01*
X193711547Y-32665714D01*
X193616309Y-32713333D01*
X193187738Y-33332380D02*
X193187738Y-32332380D01*
X193092500Y-32951428D02*
X192806785Y-33332380D01*
X192806785Y-32665714D02*
X193187738Y-33046666D01*
X191997261Y-33284761D02*
X192092500Y-33332380D01*
X192282976Y-33332380D01*
X192378214Y-33284761D01*
X192425833Y-33189523D01*
X192425833Y-32808571D01*
X192378214Y-32713333D01*
X192282976Y-32665714D01*
X192092500Y-32665714D01*
X191997261Y-32713333D01*
X191949642Y-32808571D01*
X191949642Y-32903809D01*
X192425833Y-32999047D01*
X191663928Y-32665714D02*
X191282976Y-32665714D01*
X191521071Y-32332380D02*
X191521071Y-33189523D01*
X191473452Y-33284761D01*
X191378214Y-33332380D01*
X191282976Y-33332380D01*
X243431785Y-14234761D02*
X243336547Y-14282380D01*
X243146071Y-14282380D01*
X243050833Y-14234761D01*
X243003214Y-14139523D01*
X243003214Y-14091904D01*
X243050833Y-13996666D01*
X243146071Y-13949047D01*
X243288928Y-13949047D01*
X243384166Y-13901428D01*
X243431785Y-13806190D01*
X243431785Y-13758571D01*
X243384166Y-13663333D01*
X243288928Y-13615714D01*
X243146071Y-13615714D01*
X243050833Y-13663333D01*
X242431785Y-14282380D02*
X242527023Y-14234761D01*
X242574642Y-14187142D01*
X242622261Y-14091904D01*
X242622261Y-13806190D01*
X242574642Y-13710952D01*
X242527023Y-13663333D01*
X242431785Y-13615714D01*
X242288928Y-13615714D01*
X242193690Y-13663333D01*
X242146071Y-13710952D01*
X242098452Y-13806190D01*
X242098452Y-14091904D01*
X242146071Y-14187142D01*
X242193690Y-14234761D01*
X242288928Y-14282380D01*
X242431785Y-14282380D01*
X241241309Y-14234761D02*
X241336547Y-14282380D01*
X241527023Y-14282380D01*
X241622261Y-14234761D01*
X241669880Y-14187142D01*
X241717500Y-14091904D01*
X241717500Y-13806190D01*
X241669880Y-13710952D01*
X241622261Y-13663333D01*
X241527023Y-13615714D01*
X241336547Y-13615714D01*
X241241309Y-13663333D01*
X240812738Y-14282380D02*
X240812738Y-13282380D01*
X240717500Y-13901428D02*
X240431785Y-14282380D01*
X240431785Y-13615714D02*
X240812738Y-13996666D01*
X239622261Y-14234761D02*
X239717500Y-14282380D01*
X239907976Y-14282380D01*
X240003214Y-14234761D01*
X240050833Y-14139523D01*
X240050833Y-13758571D01*
X240003214Y-13663333D01*
X239907976Y-13615714D01*
X239717500Y-13615714D01*
X239622261Y-13663333D01*
X239574642Y-13758571D01*
X239574642Y-13853809D01*
X240050833Y-13949047D01*
X239288928Y-13615714D02*
X238907976Y-13615714D01*
X239146071Y-13282380D02*
X239146071Y-14139523D01*
X239098452Y-14234761D01*
X239003214Y-14282380D01*
X238907976Y-14282380D01*
X219207564Y17974182D02*
X218921850Y17479311D01*
X219930732Y17226746D02*
X219064707Y17726746D01*
X219335494Y16195764D02*
X219089768Y16722534D01*
X219621208Y16690636D02*
X218755183Y17190636D01*
X218564707Y16860721D01*
X218558327Y16754433D01*
X218575757Y16689384D01*
X218634426Y16600526D01*
X218758144Y16529097D01*
X218864432Y16522717D01*
X218929481Y16540147D01*
X219018339Y16598816D01*
X219208815Y16928731D01*
X218835494Y15329738D02*
X218589768Y15856509D01*
X219121208Y15824610D02*
X218255183Y16324610D01*
X218064707Y15994696D01*
X218058327Y15888408D01*
X218075757Y15823359D01*
X218134426Y15734500D01*
X218258144Y15663072D01*
X218364432Y15656692D01*
X218429481Y15674122D01*
X218518339Y15732791D01*
X218708815Y16062705D01*
X218603779Y15023634D02*
X218573589Y14876106D01*
X218454542Y14669910D01*
X218365683Y14611240D01*
X218300634Y14593811D01*
X218194346Y14600190D01*
X218111868Y14647809D01*
X218053199Y14736668D01*
X218035769Y14801717D01*
X218042149Y14908005D01*
X218096147Y15096772D01*
X218102527Y15203060D01*
X218085097Y15268109D01*
X218026428Y15356967D01*
X217943950Y15404586D01*
X217837662Y15410966D01*
X217772613Y15393536D01*
X217683754Y15334867D01*
X217564707Y15128670D01*
X217534517Y14981143D01*
M02*
