G04 #@! TF.GenerationSoftware,KiCad,Pcbnew,(5.1.6-0-10_14)*
G04 #@! TF.CreationDate,2022-05-29T14:18:20+09:00*
G04 #@! TF.ProjectId,cool936,636f6f6c-3933-4362-9e6b-696361645f70,rev?*
G04 #@! TF.SameCoordinates,Original*
G04 #@! TF.FileFunction,Legend,Top*
G04 #@! TF.FilePolarity,Positive*
%FSLAX46Y46*%
G04 Gerber Fmt 4.6, Leading zero omitted, Abs format (unit mm)*
G04 Created by KiCad (PCBNEW (5.1.6-0-10_14)) date 2022-05-29 14:18:20*
%MOMM*%
%LPD*%
G01*
G04 APERTURE LIST*
%ADD10C,0.300000*%
%ADD11C,0.150000*%
G04 APERTURE END LIST*
D10*
X259652857Y-61002142D02*
X259510000Y-61073571D01*
X259224285Y-61073571D01*
X259081428Y-61002142D01*
X259010000Y-60930714D01*
X258938571Y-60787857D01*
X258938571Y-60359285D01*
X259010000Y-60216428D01*
X259081428Y-60145000D01*
X259224285Y-60073571D01*
X259510000Y-60073571D01*
X259652857Y-60145000D01*
X260510000Y-61073571D02*
X260367142Y-61002142D01*
X260295714Y-60930714D01*
X260224285Y-60787857D01*
X260224285Y-60359285D01*
X260295714Y-60216428D01*
X260367142Y-60145000D01*
X260510000Y-60073571D01*
X260724285Y-60073571D01*
X260867142Y-60145000D01*
X260938571Y-60216428D01*
X261010000Y-60359285D01*
X261010000Y-60787857D01*
X260938571Y-60930714D01*
X260867142Y-61002142D01*
X260724285Y-61073571D01*
X260510000Y-61073571D01*
X261867142Y-61073571D02*
X261724285Y-61002142D01*
X261652857Y-60930714D01*
X261581428Y-60787857D01*
X261581428Y-60359285D01*
X261652857Y-60216428D01*
X261724285Y-60145000D01*
X261867142Y-60073571D01*
X262081428Y-60073571D01*
X262224285Y-60145000D01*
X262295714Y-60216428D01*
X262367142Y-60359285D01*
X262367142Y-60787857D01*
X262295714Y-60930714D01*
X262224285Y-61002142D01*
X262081428Y-61073571D01*
X261867142Y-61073571D01*
X263224285Y-61073571D02*
X263081428Y-61002142D01*
X263010000Y-60859285D01*
X263010000Y-59573571D01*
X263867142Y-61073571D02*
X264152857Y-61073571D01*
X264295714Y-61002142D01*
X264367142Y-60930714D01*
X264510000Y-60716428D01*
X264581428Y-60430714D01*
X264581428Y-59859285D01*
X264510000Y-59716428D01*
X264438571Y-59645000D01*
X264295714Y-59573571D01*
X264010000Y-59573571D01*
X263867142Y-59645000D01*
X263795714Y-59716428D01*
X263724285Y-59859285D01*
X263724285Y-60216428D01*
X263795714Y-60359285D01*
X263867142Y-60430714D01*
X264010000Y-60502142D01*
X264295714Y-60502142D01*
X264438571Y-60430714D01*
X264510000Y-60359285D01*
X264581428Y-60216428D01*
X265081428Y-59573571D02*
X266010000Y-59573571D01*
X265510000Y-60145000D01*
X265724285Y-60145000D01*
X265867142Y-60216428D01*
X265938571Y-60287857D01*
X266010000Y-60430714D01*
X266010000Y-60787857D01*
X265938571Y-60930714D01*
X265867142Y-61002142D01*
X265724285Y-61073571D01*
X265295714Y-61073571D01*
X265152857Y-61002142D01*
X265081428Y-60930714D01*
X267295714Y-59573571D02*
X267010000Y-59573571D01*
X266867142Y-59645000D01*
X266795714Y-59716428D01*
X266652857Y-59930714D01*
X266581428Y-60216428D01*
X266581428Y-60787857D01*
X266652857Y-60930714D01*
X266724285Y-61002142D01*
X266867142Y-61073571D01*
X267152857Y-61073571D01*
X267295714Y-61002142D01*
X267367142Y-60930714D01*
X267438571Y-60787857D01*
X267438571Y-60430714D01*
X267367142Y-60287857D01*
X267295714Y-60216428D01*
X267152857Y-60145000D01*
X266867142Y-60145000D01*
X266724285Y-60216428D01*
X266652857Y-60287857D01*
X266581428Y-60430714D01*
X258652857Y-63623571D02*
X258652857Y-62623571D01*
X258652857Y-62909285D02*
X258724285Y-62766428D01*
X258795714Y-62695000D01*
X258938571Y-62623571D01*
X259081428Y-62623571D01*
X259581428Y-63623571D02*
X259581428Y-62623571D01*
X259581428Y-62123571D02*
X259510000Y-62195000D01*
X259581428Y-62266428D01*
X259652857Y-62195000D01*
X259581428Y-62123571D01*
X259581428Y-62266428D01*
X260938571Y-62623571D02*
X260938571Y-63837857D01*
X260867142Y-63980714D01*
X260795714Y-64052142D01*
X260652857Y-64123571D01*
X260438571Y-64123571D01*
X260295714Y-64052142D01*
X260938571Y-63552142D02*
X260795714Y-63623571D01*
X260510000Y-63623571D01*
X260367142Y-63552142D01*
X260295714Y-63480714D01*
X260224285Y-63337857D01*
X260224285Y-62909285D01*
X260295714Y-62766428D01*
X260367142Y-62695000D01*
X260510000Y-62623571D01*
X260795714Y-62623571D01*
X260938571Y-62695000D01*
X261652857Y-63623571D02*
X261652857Y-62123571D01*
X262295714Y-63623571D02*
X262295714Y-62837857D01*
X262224285Y-62695000D01*
X262081428Y-62623571D01*
X261867142Y-62623571D01*
X261724285Y-62695000D01*
X261652857Y-62766428D01*
X262795714Y-62623571D02*
X263367142Y-62623571D01*
X263010000Y-62123571D02*
X263010000Y-63409285D01*
X263081428Y-63552142D01*
X263224285Y-63623571D01*
X263367142Y-63623571D01*
X263510000Y-63766428D02*
X264652857Y-63766428D01*
X264938571Y-63552142D02*
X265081428Y-63623571D01*
X265367142Y-63623571D01*
X265510000Y-63552142D01*
X265581428Y-63409285D01*
X265581428Y-63337857D01*
X265510000Y-63195000D01*
X265367142Y-63123571D01*
X265152857Y-63123571D01*
X265010000Y-63052142D01*
X264938571Y-62909285D01*
X264938571Y-62837857D01*
X265010000Y-62695000D01*
X265152857Y-62623571D01*
X265367142Y-62623571D01*
X265510000Y-62695000D01*
X266224285Y-63623571D02*
X266224285Y-62623571D01*
X266224285Y-62123571D02*
X266152857Y-62195000D01*
X266224285Y-62266428D01*
X266295714Y-62195000D01*
X266224285Y-62123571D01*
X266224285Y-62266428D01*
X267581428Y-63623571D02*
X267581428Y-62123571D01*
X267581428Y-63552142D02*
X267438571Y-63623571D01*
X267152857Y-63623571D01*
X267010000Y-63552142D01*
X266938571Y-63480714D01*
X266867142Y-63337857D01*
X266867142Y-62909285D01*
X266938571Y-62766428D01*
X267010000Y-62695000D01*
X267152857Y-62623571D01*
X267438571Y-62623571D01*
X267581428Y-62695000D01*
X268867142Y-63552142D02*
X268724285Y-63623571D01*
X268438571Y-63623571D01*
X268295714Y-63552142D01*
X268224285Y-63409285D01*
X268224285Y-62837857D01*
X268295714Y-62695000D01*
X268438571Y-62623571D01*
X268724285Y-62623571D01*
X268867142Y-62695000D01*
X268938571Y-62837857D01*
X268938571Y-62980714D01*
X268224285Y-63123571D01*
D11*
X246980000Y-1190000D02*
X246480000Y-290000D01*
X246480000Y-290000D02*
X247480000Y-290000D01*
X247480000Y-290000D02*
X246980000Y-1190000D01*
X246480000Y-1290000D02*
X247480000Y-1290000D01*
X246230000Y1910000D02*
X246230000Y-3490000D01*
X246230000Y-3490000D02*
X247730000Y-3490000D01*
X247730000Y-3490000D02*
X247730000Y1910000D01*
X247730000Y1910000D02*
X246230000Y1910000D01*
X243780000Y-37450000D02*
X243280000Y-36550000D01*
X243280000Y-36550000D02*
X244280000Y-36550000D01*
X244280000Y-36550000D02*
X243780000Y-37450000D01*
X243280000Y-37550000D02*
X244280000Y-37550000D01*
X243030000Y-34350000D02*
X243030000Y-39750000D01*
X243030000Y-39750000D02*
X244530000Y-39750000D01*
X244530000Y-39750000D02*
X244530000Y-34350000D01*
X244530000Y-34350000D02*
X243030000Y-34350000D01*
X201760000Y-55490000D02*
X201260000Y-54590000D01*
X201260000Y-54590000D02*
X202260000Y-54590000D01*
X202260000Y-54590000D02*
X201760000Y-55490000D01*
X201260000Y-55590000D02*
X202260000Y-55590000D01*
X201010000Y-52390000D02*
X201010000Y-57790000D01*
X201010000Y-57790000D02*
X202510000Y-57790000D01*
X202510000Y-57790000D02*
X202510000Y-52390000D01*
X202510000Y-52390000D02*
X201010000Y-52390000D01*
X232570000Y-17010000D02*
X232070000Y-16110000D01*
X232070000Y-16110000D02*
X233070000Y-16110000D01*
X233070000Y-16110000D02*
X232570000Y-17010000D01*
X232070000Y-17110000D02*
X233070000Y-17110000D01*
X231820000Y-13910000D02*
X231820000Y-19310000D01*
X231820000Y-19310000D02*
X233320000Y-19310000D01*
X233320000Y-19310000D02*
X233320000Y-13910000D01*
X233320000Y-13910000D02*
X231820000Y-13910000D01*
X189180000Y-4820000D02*
X188680000Y-3920000D01*
X188680000Y-3920000D02*
X189680000Y-3920000D01*
X189680000Y-3920000D02*
X189180000Y-4820000D01*
X188680000Y-4920000D02*
X189680000Y-4920000D01*
X188430000Y-1720000D02*
X188430000Y-7120000D01*
X188430000Y-7120000D02*
X189930000Y-7120000D01*
X189930000Y-7120000D02*
X189930000Y-1720000D01*
X189930000Y-1720000D02*
X188430000Y-1720000D01*
X251440000Y-15910000D02*
X250940000Y-15010000D01*
X250940000Y-15010000D02*
X251940000Y-15010000D01*
X251940000Y-15010000D02*
X251440000Y-15910000D01*
X250940000Y-16010000D02*
X251940000Y-16010000D01*
X250690000Y-12810000D02*
X250690000Y-18210000D01*
X250690000Y-18210000D02*
X252190000Y-18210000D01*
X252190000Y-18210000D02*
X252190000Y-12810000D01*
X252190000Y-12810000D02*
X250690000Y-12810000D01*
X267750000Y-36220000D02*
X267250000Y-35320000D01*
X267250000Y-35320000D02*
X268250000Y-35320000D01*
X268250000Y-35320000D02*
X267750000Y-36220000D01*
X267250000Y-36320000D02*
X268250000Y-36320000D01*
X267000000Y-33120000D02*
X267000000Y-38520000D01*
X267000000Y-38520000D02*
X268500000Y-38520000D01*
X268500000Y-38520000D02*
X268500000Y-33120000D01*
X268500000Y-33120000D02*
X267000000Y-33120000D01*
X256480000Y-55475000D02*
X255980000Y-54575000D01*
X255980000Y-54575000D02*
X256980000Y-54575000D01*
X256980000Y-54575000D02*
X256480000Y-55475000D01*
X255980000Y-55575000D02*
X256980000Y-55575000D01*
X255730000Y-52375000D02*
X255730000Y-57775000D01*
X255730000Y-57775000D02*
X257230000Y-57775000D01*
X257230000Y-57775000D02*
X257230000Y-52375000D01*
X257230000Y-52375000D02*
X255730000Y-52375000D01*
X233140000Y-52440000D02*
X231640000Y-52440000D01*
X233140000Y-57840000D02*
X233140000Y-52440000D01*
X231640000Y-57840000D02*
X233140000Y-57840000D01*
X231640000Y-52440000D02*
X231640000Y-57840000D01*
X231890000Y-55640000D02*
X232890000Y-55640000D01*
X232890000Y-54640000D02*
X232390000Y-55540000D01*
X231890000Y-54640000D02*
X232890000Y-54640000D01*
X232390000Y-55540000D02*
X231890000Y-54640000D01*
X208240000Y-4690000D02*
X207740000Y-3790000D01*
X207740000Y-3790000D02*
X208740000Y-3790000D01*
X208740000Y-3790000D02*
X208240000Y-4690000D01*
X207740000Y-4790000D02*
X208740000Y-4790000D01*
X207490000Y-1590000D02*
X207490000Y-6990000D01*
X207490000Y-6990000D02*
X208990000Y-6990000D01*
X208990000Y-6990000D02*
X208990000Y-1590000D01*
X208990000Y-1590000D02*
X207490000Y-1590000D01*
X246430000Y-37450000D02*
X245930000Y-36550000D01*
X245930000Y-36550000D02*
X246930000Y-36550000D01*
X246930000Y-36550000D02*
X246430000Y-37450000D01*
X245930000Y-37550000D02*
X246930000Y-37550000D01*
X245680000Y-34350000D02*
X245680000Y-39750000D01*
X245680000Y-39750000D02*
X247180000Y-39750000D01*
X247180000Y-39750000D02*
X247180000Y-34350000D01*
X247180000Y-34350000D02*
X245680000Y-34350000D01*
X194340000Y-17110000D02*
X193840000Y-16210000D01*
X193840000Y-16210000D02*
X194840000Y-16210000D01*
X194840000Y-16210000D02*
X194340000Y-17110000D01*
X193840000Y-17210000D02*
X194840000Y-17210000D01*
X193590000Y-14010000D02*
X193590000Y-19410000D01*
X193590000Y-19410000D02*
X195090000Y-19410000D01*
X195090000Y-19410000D02*
X195090000Y-14010000D01*
X195090000Y-14010000D02*
X193590000Y-14010000D01*
X222500000Y-42770000D02*
X222000000Y-41870000D01*
X222000000Y-41870000D02*
X223000000Y-41870000D01*
X223000000Y-41870000D02*
X222500000Y-42770000D01*
X222000000Y-42870000D02*
X223000000Y-42870000D01*
X221750000Y-39670000D02*
X221750000Y-45070000D01*
X221750000Y-45070000D02*
X223250000Y-45070000D01*
X223250000Y-45070000D02*
X223250000Y-39670000D01*
X223250000Y-39670000D02*
X221750000Y-39670000D01*
X203500000Y-42740000D02*
X203000000Y-41840000D01*
X203000000Y-41840000D02*
X204000000Y-41840000D01*
X204000000Y-41840000D02*
X203500000Y-42740000D01*
X203000000Y-42840000D02*
X204000000Y-42840000D01*
X202750000Y-39640000D02*
X202750000Y-45040000D01*
X202750000Y-45040000D02*
X204250000Y-45040000D01*
X204250000Y-45040000D02*
X204250000Y-39640000D01*
X204250000Y-39640000D02*
X202750000Y-39640000D01*
X213520000Y-16880000D02*
X213020000Y-15980000D01*
X213020000Y-15980000D02*
X214020000Y-15980000D01*
X214020000Y-15980000D02*
X213520000Y-16880000D01*
X213020000Y-16980000D02*
X214020000Y-16980000D01*
X212770000Y-13780000D02*
X212770000Y-19180000D01*
X212770000Y-19180000D02*
X214270000Y-19180000D01*
X214270000Y-19180000D02*
X214270000Y-13780000D01*
X214270000Y-13780000D02*
X212770000Y-13780000D01*
X227340000Y-4950000D02*
X226840000Y-4050000D01*
X226840000Y-4050000D02*
X227840000Y-4050000D01*
X227840000Y-4050000D02*
X227340000Y-4950000D01*
X226840000Y-5050000D02*
X227840000Y-5050000D01*
X226590000Y-1850000D02*
X226590000Y-7250000D01*
X226590000Y-7250000D02*
X228090000Y-7250000D01*
X228090000Y-7250000D02*
X228090000Y-1850000D01*
X228090000Y-1850000D02*
X226590000Y-1850000D01*
X267830000Y-2880000D02*
X267330000Y-1980000D01*
X267330000Y-1980000D02*
X268330000Y-1980000D01*
X268330000Y-1980000D02*
X267830000Y-2880000D01*
X267330000Y-2980000D02*
X268330000Y-2980000D01*
X267080000Y220000D02*
X267080000Y-5180000D01*
X267080000Y-5180000D02*
X268580000Y-5180000D01*
X268580000Y-5180000D02*
X268580000Y220000D01*
X268580000Y220000D02*
X267080000Y220000D01*
M02*
