G04 #@! TF.GenerationSoftware,KiCad,Pcbnew,(5.1.6-0-10_14)*
G04 #@! TF.CreationDate,2022-08-31T17:49:11+09:00*
G04 #@! TF.ProjectId,cool936,636f6f6c-3933-4362-9e6b-696361645f70,rev?*
G04 #@! TF.SameCoordinates,Original*
G04 #@! TF.FileFunction,Copper,L1,Top*
G04 #@! TF.FilePolarity,Positive*
%FSLAX46Y46*%
G04 Gerber Fmt 4.6, Leading zero omitted, Abs format (unit mm)*
G04 Created by KiCad (PCBNEW (5.1.6-0-10_14)) date 2022-08-31 17:49:11*
%MOMM*%
%LPD*%
G01*
G04 APERTURE LIST*
G04 #@! TA.AperFunction,SMDPad,CuDef*
%ADD10R,0.950000X1.300000*%
G04 #@! TD*
G04 #@! TA.AperFunction,ComponentPad*
%ADD11C,1.397000*%
G04 #@! TD*
G04 #@! TA.AperFunction,ComponentPad*
%ADD12R,1.397000X1.397000*%
G04 #@! TD*
G04 #@! TA.AperFunction,SMDPad,CuDef*
%ADD13R,1.300000X0.950000*%
G04 #@! TD*
G04 #@! TA.AperFunction,ComponentPad*
%ADD14C,1.524000*%
G04 #@! TD*
G04 #@! TA.AperFunction,ComponentPad*
%ADD15C,2.000000*%
G04 #@! TD*
G04 #@! TA.AperFunction,ViaPad*
%ADD16C,0.800000*%
G04 #@! TD*
G04 #@! TA.AperFunction,Conductor*
%ADD17C,0.250000*%
G04 #@! TD*
G04 APERTURE END LIST*
G04 #@! TA.AperFunction,ComponentPad*
G36*
G01*
X69513526Y17822531D02*
X68820706Y17422531D01*
G75*
G02*
X67659584Y17733653I-425000J736122D01*
G01*
X67659584Y17733653D01*
G75*
G02*
X67970706Y18894775I736122J425000D01*
G01*
X68663526Y19294775D01*
G75*
G02*
X69824648Y18983653I425000J-736122D01*
G01*
X69824648Y18983653D01*
G75*
G02*
X69513526Y17822531I-736122J-425000D01*
G01*
G37*
G04 #@! TD.AperFunction*
G04 #@! TA.AperFunction,ComponentPad*
G36*
G01*
X66915450Y16322531D02*
X66222630Y15922531D01*
G75*
G02*
X65061508Y16233653I-425000J736122D01*
G01*
X65061508Y16233653D01*
G75*
G02*
X65372630Y17394775I736122J425000D01*
G01*
X66065450Y17794775D01*
G75*
G02*
X67226572Y17483653I425000J-736122D01*
G01*
X67226572Y17483653D01*
G75*
G02*
X66915450Y16322531I-736122J-425000D01*
G01*
G37*
G04 #@! TD.AperFunction*
G04 #@! TA.AperFunction,ComponentPad*
G36*
G01*
X63451348Y14322531D02*
X62758528Y13922531D01*
G75*
G02*
X61597406Y14233653I-425000J736122D01*
G01*
X61597406Y14233653D01*
G75*
G02*
X61908528Y15394775I736122J425000D01*
G01*
X62601348Y15794775D01*
G75*
G02*
X63762470Y15483653I425000J-736122D01*
G01*
X63762470Y15483653D01*
G75*
G02*
X63451348Y14322531I-736122J-425000D01*
G01*
G37*
G04 #@! TD.AperFunction*
G04 #@! TA.AperFunction,ComponentPad*
G36*
G01*
X64252310Y9935225D02*
X63559490Y9535225D01*
G75*
G02*
X62398368Y9846347I-425000J736122D01*
G01*
X62398368Y9846347D01*
G75*
G02*
X62709490Y11007469I736122J425000D01*
G01*
X63402310Y11407469D01*
G75*
G02*
X64563432Y11096347I425000J-736122D01*
G01*
X64563432Y11096347D01*
G75*
G02*
X64252310Y9935225I-736122J-425000D01*
G01*
G37*
G04 #@! TD.AperFunction*
D10*
X36880000Y435000D03*
D11*
X36880000Y2470000D03*
D12*
X36880000Y-5150000D03*
D10*
X36880000Y-3115000D03*
X108220000Y-40795000D03*
D11*
X108220000Y-38760000D03*
D12*
X108220000Y-46380000D03*
D10*
X108220000Y-44345000D03*
X110750000Y-44375000D03*
D12*
X110750000Y-46410000D03*
D11*
X110750000Y-38790000D03*
D10*
X110750000Y-40825000D03*
D13*
X87925000Y-10620000D03*
D11*
X89960000Y-10620000D03*
D12*
X82340000Y-10620000D03*
D13*
X84375000Y-10620000D03*
D10*
X70160000Y-40605000D03*
D11*
X70160000Y-38570000D03*
D12*
X70160000Y-46190000D03*
D10*
X70160000Y-44155000D03*
D14*
X25772000Y7991400D03*
X28312000Y7991400D03*
X30852000Y7991400D03*
X33392000Y7991400D03*
X35932000Y7991400D03*
X38472000Y7991400D03*
X41012000Y7991400D03*
X43552000Y7991400D03*
X46092000Y7991400D03*
X48632000Y7991400D03*
X51172000Y7991400D03*
X53712000Y7991400D03*
X53712000Y-7228600D03*
X51172000Y-7228600D03*
X48632000Y-7228600D03*
X46092000Y-7228600D03*
X43552000Y-7228600D03*
X41012000Y-7228600D03*
X38472000Y-7228600D03*
X35932000Y-7228600D03*
X33392000Y-7228600D03*
X30852000Y-7228600D03*
X28312000Y-7228600D03*
X25772000Y-7228600D03*
D13*
X61305000Y-48730000D03*
D11*
X63340000Y-48730000D03*
D12*
X55720000Y-48730000D03*
D13*
X57755000Y-48730000D03*
D10*
X96480000Y-2535000D03*
D11*
X96480000Y-500000D03*
D12*
X96480000Y-8120000D03*
D10*
X96480000Y-6085000D03*
X75040000Y-2595000D03*
D11*
X75040000Y-560000D03*
D12*
X75040000Y-8180000D03*
D10*
X75040000Y-6145000D03*
D13*
X48555000Y-48660000D03*
D11*
X50590000Y-48660000D03*
D12*
X42970000Y-48660000D03*
D13*
X45005000Y-48660000D03*
D10*
X39350000Y-12745000D03*
D11*
X39350000Y-10710000D03*
D12*
X39350000Y-18330000D03*
D10*
X39350000Y-16295000D03*
D15*
X74324583Y12685000D03*
X68695417Y9435000D03*
D10*
X60810000Y-12805000D03*
D11*
X60810000Y-10770000D03*
D12*
X60810000Y-18390000D03*
D10*
X60810000Y-16355000D03*
X89230000Y-40645000D03*
D11*
X89230000Y-38610000D03*
D12*
X89230000Y-46230000D03*
D10*
X89230000Y-44195000D03*
D13*
X102965000Y-10620000D03*
D12*
X100930000Y-10620000D03*
D11*
X108550000Y-10620000D03*
D13*
X106515000Y-10620000D03*
D10*
X95100000Y-54905000D03*
D11*
X95100000Y-52870000D03*
D12*
X95100000Y-60490000D03*
D10*
X95100000Y-58455000D03*
X92090000Y-54905000D03*
D11*
X92090000Y-52870000D03*
D12*
X92090000Y-60490000D03*
D10*
X92090000Y-58455000D03*
X93900000Y-2625000D03*
D11*
X93900000Y-590000D03*
D12*
X93900000Y-8210000D03*
D10*
X93900000Y-6175000D03*
X58200000Y-2735000D03*
D11*
X58200000Y-700000D03*
D12*
X58200000Y-8320000D03*
D10*
X58200000Y-6285000D03*
X46790000Y-35765000D03*
D11*
X46790000Y-33730000D03*
D12*
X46790000Y-41350000D03*
D10*
X46790000Y-39315000D03*
X79720000Y-12955000D03*
D11*
X79720000Y-10920000D03*
D12*
X79720000Y-18540000D03*
D10*
X79720000Y-16505000D03*
D16*
X51230000Y-23860000D03*
X51270000Y-32720000D03*
X52870000Y-43480000D03*
X52790000Y-32720000D03*
X52790000Y-23800000D03*
X52820000Y-47370000D03*
X85960000Y-12940000D03*
X94640000Y-24170000D03*
X94640000Y-28970000D03*
X39810000Y-27680000D03*
X85960000Y-5340000D03*
X59140000Y9550000D03*
X34320000Y-21550000D03*
X34320000Y-17200000D03*
X29600000Y-12530000D03*
X23871000Y-12529000D03*
X54070000Y-51600000D03*
X44840000Y-12780000D03*
X44790000Y-4250000D03*
X54270000Y-32970000D03*
X54220000Y-23800000D03*
X54130000Y-43540000D03*
X64220000Y-5290000D03*
X64290000Y-13600000D03*
X76870000Y-32410000D03*
X76800000Y-21700000D03*
X73900000Y-43150000D03*
X73960000Y-50910000D03*
X55590000Y2540000D03*
X79900000Y-5250000D03*
X100240000Y-43320000D03*
X92300000Y-32490000D03*
X92240000Y-23210000D03*
X100240000Y-51190000D03*
X83420000Y-13130000D03*
X75850000Y6760000D03*
X111920000Y-23310000D03*
X102290000Y-13110000D03*
X111940000Y-32410000D03*
X98950000Y-2670000D03*
X81040000Y6730000D03*
D17*
X36880000Y2470000D02*
X36880000Y435000D01*
X36880000Y2230000D02*
X36880000Y195000D01*
X58200000Y-700000D02*
X58200000Y-2735000D01*
X75040000Y-560000D02*
X75040000Y-2595000D01*
X93900000Y-590000D02*
X93900000Y-2625000D01*
X96480000Y-500000D02*
X96480000Y-2535000D01*
X60810000Y-10770000D02*
X60810000Y-12805000D01*
X79720000Y-10920000D02*
X79720000Y-12955000D01*
X89960000Y-10620000D02*
X87925000Y-10620000D01*
X106515000Y-10620000D02*
X108550000Y-10620000D01*
X70160000Y-38570000D02*
X70160000Y-40605000D01*
X89230000Y-38610000D02*
X89230000Y-40645000D01*
X108220000Y-38760000D02*
X108220000Y-40795000D01*
X110750000Y-40825000D02*
X110750000Y-38790000D01*
X50590000Y-48660000D02*
X48555000Y-48660000D01*
X61305000Y-48730000D02*
X63340000Y-48730000D01*
X92090000Y-54905000D02*
X92090000Y-52870000D01*
X39350000Y-10710000D02*
X39350000Y-12745000D01*
X46790000Y-33730000D02*
X46790000Y-35765000D01*
X95100000Y-52870000D02*
X95100000Y-54905000D01*
X93900000Y-6175000D02*
X93900000Y-8210000D01*
X96480000Y-6085000D02*
X96480000Y-8120000D01*
X36880000Y-3355000D02*
X36880000Y-5390000D01*
X58200000Y-6285000D02*
X58200000Y-8320000D01*
X36880000Y-5150000D02*
X36880000Y-3115000D01*
X75040000Y-6145000D02*
X75040000Y-8180000D01*
X84375000Y-10620000D02*
X82340000Y-10620000D01*
X100930000Y-10620000D02*
X102965000Y-10620000D01*
X58614999Y-21425001D02*
X60810000Y-19230000D01*
X79720000Y-16505000D02*
X79720000Y-18540000D01*
X42445001Y-21425001D02*
X58614999Y-21425001D01*
X39350000Y-16295000D02*
X39350000Y-18330000D01*
X60810000Y-19230000D02*
X60810000Y-18390000D01*
X39350000Y-18330000D02*
X42445001Y-21425001D01*
X60810000Y-16355000D02*
X60810000Y-18390000D01*
X70160000Y-44155000D02*
X70160000Y-46190000D01*
X46790000Y-39315000D02*
X46790000Y-41350000D01*
X51270000Y-32720000D02*
X51270000Y-23900000D01*
X51270000Y-23900000D02*
X51230000Y-23860000D01*
X110750000Y-46410000D02*
X110750000Y-44375000D01*
X89230000Y-44195000D02*
X89230000Y-46230000D01*
X108220000Y-44345000D02*
X108220000Y-46380000D01*
X45005000Y-48660000D02*
X42970000Y-48660000D01*
X95100000Y-58455000D02*
X95100000Y-60490000D01*
X52870000Y-47320000D02*
X52820000Y-47370000D01*
X92090000Y-60490000D02*
X92090000Y-58455000D01*
X52870000Y-43480000D02*
X52870000Y-47320000D01*
X55720000Y-48730000D02*
X57755000Y-48730000D01*
X52790000Y-23800000D02*
X52790000Y-32720000D01*
X34790000Y2440000D02*
X29220000Y2440000D01*
X56529990Y4356400D02*
X56529990Y2406988D01*
X28312000Y7991400D02*
X28312000Y3348000D01*
X29220000Y2440000D02*
X28635000Y3025000D01*
X55683002Y1560000D02*
X52410000Y1560000D01*
X38000219Y4865001D02*
X36728217Y3592999D01*
X52410000Y1560000D02*
X51880010Y2089990D01*
X36728217Y3592999D02*
X35942999Y3592999D01*
X59520000Y11710000D02*
X57790000Y9980000D01*
X57790000Y5616410D02*
X56529990Y4356400D01*
X28635000Y3025000D02*
X28392000Y3268000D01*
X51880010Y2089990D02*
X49203599Y2089991D01*
X28312000Y3348000D02*
X28635000Y3025000D01*
X68742116Y18358653D02*
X68742116Y16024330D01*
X63524999Y13014999D02*
X62220000Y11710000D01*
X68742116Y16024330D02*
X65732785Y13014999D01*
X57790000Y9980000D02*
X57790000Y5616410D01*
X62220000Y11710000D02*
X59520000Y11710000D01*
X46428589Y4865001D02*
X38000219Y4865001D01*
X65732785Y13014999D02*
X63524999Y13014999D01*
X56529990Y2406988D02*
X55683002Y1560000D01*
X35942999Y3592999D02*
X34790000Y2440000D01*
X49203599Y2089991D02*
X46428589Y4865001D01*
X28312000Y-9328000D02*
X26470000Y-11170000D01*
X21820000Y-24450000D02*
X25050000Y-27680000D01*
X28312000Y-7228600D02*
X28312000Y-9328000D01*
X25050000Y-27680000D02*
X39810000Y-27680000D01*
X21820000Y-12540000D02*
X21820000Y-24450000D01*
X26470000Y-11170000D02*
X23190000Y-11170000D01*
X23190000Y-11170000D02*
X21820000Y-12540000D01*
X94640000Y-24170000D02*
X94640000Y-28970000D01*
X85960000Y-5340000D02*
X85960000Y-12940000D01*
X39800000Y-1720000D02*
X40398901Y-2318901D01*
X34110000Y-3510000D02*
X34820000Y-2800000D01*
X56481099Y-2318901D02*
X56980000Y-1820000D01*
X34820000Y-2800000D02*
X35220000Y-2800000D01*
X59140000Y6330000D02*
X59140000Y9550000D01*
X46550000Y-3090000D02*
X50767802Y-3090000D01*
X45778901Y-2318901D02*
X46550000Y-3090000D01*
X56980000Y-1820000D02*
X56980000Y4170000D01*
X56980000Y4170000D02*
X59140000Y6330000D01*
X50767802Y-3090000D02*
X51538901Y-2318901D01*
X51538901Y-2318901D02*
X56481099Y-2318901D01*
X40398901Y-2318901D02*
X45778901Y-2318901D01*
X35220000Y-2800000D02*
X36300000Y-1720000D01*
X36300000Y-1720000D02*
X39800000Y-1720000D01*
X33392000Y-7228600D02*
X33392000Y-4228000D01*
X33392000Y-4228000D02*
X34110000Y-3510000D01*
X34110000Y-3510000D02*
X33472000Y-4148000D01*
X34320000Y-21550000D02*
X34320000Y-17200000D01*
X29600000Y-12530000D02*
X23872000Y-12530000D01*
X23872000Y-12530000D02*
X23871000Y-12529000D01*
X44810000Y-12750000D02*
X44840000Y-12780000D01*
X44810000Y-9620000D02*
X44810000Y-12750000D01*
X44810000Y-4270000D02*
X44790000Y-4250000D01*
X44810000Y-4990000D02*
X44810000Y-4270000D01*
X54220000Y-32920000D02*
X54270000Y-32970000D01*
X54220000Y-23800000D02*
X54220000Y-32920000D01*
X44810000Y-9620000D02*
X44810000Y-4990000D01*
X54130000Y-51540000D02*
X54070000Y-51600000D01*
X54130000Y-43540000D02*
X54130000Y-51540000D01*
X73900000Y-50850000D02*
X73960000Y-50910000D01*
X64220000Y-5290000D02*
X64220000Y-13530000D01*
X46092000Y5838000D02*
X46355000Y5575000D01*
X46355000Y5575000D02*
X46172000Y5758000D01*
X76800000Y-32340000D02*
X76870000Y-32410000D01*
X76800000Y-21700000D02*
X76800000Y-23120000D01*
X46092000Y7991400D02*
X46092000Y5838000D01*
X55590000Y2540000D02*
X49390000Y2540000D01*
X64220000Y-13530000D02*
X64290000Y-13600000D01*
X49390000Y2540000D02*
X46355000Y5575000D01*
X73900000Y-43150000D02*
X73900000Y-50850000D01*
X76800000Y-21700000D02*
X76800000Y-32340000D01*
X80895000Y-11665000D02*
X80895000Y-9355000D01*
X82360000Y-13130000D02*
X80895000Y-11665000D01*
X80490000Y-8950000D02*
X80490000Y-5840000D01*
X80490000Y-5840000D02*
X79900000Y-5250000D01*
X80895000Y-9355000D02*
X80490000Y-8950000D01*
X83420000Y-13130000D02*
X82360000Y-13130000D01*
X92240000Y-32430000D02*
X92300000Y-32490000D01*
X100240000Y-43320000D02*
X100240000Y-51190000D01*
X92240000Y-23210000D02*
X92240000Y-32430000D01*
X98950000Y-5330000D02*
X98950000Y-11660000D01*
X98950000Y-5330000D02*
X98950000Y-2670000D01*
X111920000Y-23310000D02*
X111920000Y-32390000D01*
X111920000Y-32390000D02*
X111940000Y-32410000D01*
X75850000Y6760000D02*
X81010000Y6760000D01*
X81010000Y6760000D02*
X81040000Y6730000D01*
X98950000Y-11660000D02*
X100400000Y-13110000D01*
X100400000Y-13110000D02*
X102290000Y-13110000D01*
M02*
